<svg version="1.1" xmlns="http://www.w3.org/2000/svg" xmlns:xlink="http://www.w3.org/1999/xlink" width="54.98247" height="54.98247" viewBox="0,0,54.98247,54.98247"><g transform="translate(-320.89601,-151.61303)"><g data-paper-data="{&quot;isPaintingLayer&quot;:true}" fill-rule="nonzero" stroke="#000000" stroke-linecap="butt" stroke-linejoin="miter" stroke-miterlimit="10" stroke-dasharray="" stroke-dashoffset="0" style="mix-blend-mode: normal"><path d="M325.39601,179.10427c0,-12.6977 10.29353,-22.99124 22.99124,-22.99124c12.6977,0 22.99123,10.29353 22.99123,22.99124c0,12.6977 -10.29352,22.99123 -22.99123,22.99123c-12.6977,0 -22.99124,-10.29353 -22.99124,-22.99123z" fill="none" stroke-width="9"></path><path d="M337.45787,155.63234c0,0 3.70946,-3.49855 3.86507,-1.83591c0.14099,1.50636 5.7976,22.0309 5.7976,22.0309c0,0 2.76521,-0.18497 3.63912,1.07546c1.56158,2.25223 1.72809,5.12393 -0.19149,6.25402c-0.96746,0.56956 -4.30072,0.79491 -5.16028,0.18286c-0.42709,-0.30411 -7.95003,-27.70732 -7.95003,-27.70732z" fill="#222222" stroke-width="0.25"></path></g></g></svg>