<svg version="1.1" xmlns="http://www.w3.org/2000/svg" xmlns:xlink="http://www.w3.org/1999/xlink" width="32.43779" height="32.43778" viewBox="0,0,32.43779,32.43778"><defs><radialGradient cx="245.34673" cy="175.42259" r="1.75624" gradientUnits="userSpaceOnUse" id="color-1"><stop offset="0" stop-color="#000000" stop-opacity="0"></stop><stop offset="1" stop-color="#000000" stop-opacity="0"></stop></radialGradient><radialGradient cx="247.12229" cy="182.54714" r="1.75624" gradientUnits="userSpaceOnUse" id="color-2"><stop offset="0" stop-color="#000000" stop-opacity="0"></stop><stop offset="1" stop-color="#000000" stop-opacity="0"></stop></radialGradient><radialGradient cx="233.90371" cy="184.61226" r="1.75624" gradientUnits="userSpaceOnUse" id="color-3"><stop offset="0" stop-color="#000000" stop-opacity="0"></stop><stop offset="1" stop-color="#000000" stop-opacity="0"></stop></radialGradient><radialGradient cx="232.92308" cy="177.33555" r="1.75624" gradientUnits="userSpaceOnUse" id="color-4"><stop offset="0" stop-color="#000000" stop-opacity="0"></stop><stop offset="1" stop-color="#000000" stop-opacity="0"></stop></radialGradient><radialGradient cx="238.85925" cy="172.83135" r="1.75624" gradientUnits="userSpaceOnUse" id="color-5"><stop offset="0" stop-color="#000000" stop-opacity="0"></stop><stop offset="1" stop-color="#000000" stop-opacity="0"></stop></radialGradient><radialGradient cx="240.9256" cy="187.16865" r="1.75624" gradientUnits="userSpaceOnUse" id="color-6"><stop offset="0" stop-color="#000000" stop-opacity="0"></stop><stop offset="1" stop-color="#000000" stop-opacity="0"></stop></radialGradient><radialGradient cx="240" cy="180" r="10.76401" gradientUnits="userSpaceOnUse" id="color-7"><stop offset="0" stop-color="#ffffff"></stop><stop offset="1" stop-color="#212121"></stop></radialGradient></defs><g transform="translate(-223.78111,-163.78111)"><g data-paper-data="{&quot;isPaintingLayer&quot;:true}" fill-rule="nonzero" stroke-linecap="butt" stroke-linejoin="miter" stroke-miterlimit="10" stroke-dasharray="" stroke-dashoffset="0" style="mix-blend-mode: normal"><g><g fill="#0e0e0e" stroke-width="0"><path d="M244.49848,175.95748l1.99502,-3.41496l0.95091,0.80493l-1.85163,2.87747l4.27988,2.91271l0.04139,0.83034c0,0 -3.42777,-2.59441 -4.37908,-2.94695c-2.10624,-0.54249 -7.0826,-0.64213 -7.0826,-0.64213l-0.02248,-0.54957z" stroke="url(#color-1)"></path><path d="M246.23085,182.08783l3.95497,-0.01455l-0.21083,1.22787l-3.4191,-0.13473l-0.33709,5.166l-0.6944,0.45714c0,0 0.49537,-4.27027 0.31622,-5.26886c-0.60173,-2.09009 -3.0419,-6.42825 -3.0419,-6.42825l0.46209,-0.29834z" stroke="url(#color-2)"></path><path d="M234.80567,184.17397l-2.35875,3.17464l-0.85654,-0.90469l2.15709,-2.6562l-3.93329,-3.36607l0.05026,-0.82984c0,0 3.1214,2.95592 4.02813,3.41102c2.03374,0.77102 6.96889,1.41776 6.96889,1.41776l-0.03814,0.54871z" data-paper-data="{&quot;index&quot;:null}" stroke="url(#color-3)"></path><path d="M233.75855,177.8902l-3.93255,-0.42083l0.34469,-1.19721l3.3835,0.51023l0.90362,-5.09752l0.7405,-0.37794c0,0 -0.96236,4.18981 -0.89421,5.20205c0.36803,2.14362 2.31591,6.72399 2.31591,6.72399l-0.49211,0.24566z" data-paper-data="{&quot;index&quot;:null}" stroke="url(#color-4)"></path><path d="M238.85218,173.83414l-1.79964,-3.52183l1.19068,-0.3666l1.42437,3.1112l4.76111,-2.03301l0.72154,0.41299c0,0 -4.03348,1.48715 -4.84344,2.09808c-1.59283,1.48103 -4.36076,5.61777 -4.36076,5.61777l-0.4749,-0.27748z" data-paper-data="{&quot;index&quot;:null}" stroke="url(#color-5)"></path><path d="M240.93267,186.16586l1.79964,3.52183l-1.19068,0.3666l-1.42437,-3.1112l-4.7611,2.03301l-0.72154,-0.41299c0,0 4.03348,-1.48715 4.84344,-2.09808c1.59283,-1.48103 4.36075,-5.61777 4.36075,-5.61777l0.47491,0.27748z" data-paper-data="{&quot;index&quot;:null}" stroke="url(#color-6)"></path></g><path d="M229.23599,180c0,-5.9448 4.81921,-10.76401 10.76401,-10.76401c5.9448,0 10.76401,4.81921 10.76401,10.76401c0,5.9448 -4.81921,10.76401 -10.76401,10.76401c-5.9448,0 -10.76401,-4.81921 -10.76401,-10.76401z" fill="none" stroke="url(#color-7)" stroke-width="2.5"></path><path d="M226.03111,180c0,-7.71481 6.25408,-13.96889 13.96889,-13.96889c7.71481,0 13.9689,6.25408 13.9689,13.96889c0,7.71481 -6.25409,13.96889 -13.9689,13.96889c-7.71481,0 -13.96889,-6.25408 -13.96889,-13.96889z" fill="none" stroke="#000000" stroke-width="4.5"></path><path d="M236.31576,183.80241l-1.34924,-5.029l3.40377,-3.52643l5.14706,0.67265l1.51613,5.30071l-3.78072,3.53268z" fill="#333333" stroke="#000000" stroke-width="0.25"></path></g></g></g></svg>