<svg version="1.1" xmlns="http://www.w3.org/2000/svg" xmlns:xlink="http://www.w3.org/1999/xlink" width="32.98844" height="32.98843" viewBox="0,0,32.98844,32.98843"><defs><radialGradient cx="241.50516" cy="189.08693" r="4.81495" gradientUnits="userSpaceOnUse" id="color-1"><stop offset="0" stop-color="#353535"></stop><stop offset="1" stop-color="#212121"></stop></radialGradient><radialGradient cx="247.07262" cy="173.72305" r="4.81495" gradientUnits="userSpaceOnUse" id="color-2"><stop offset="0" stop-color="#353535"></stop><stop offset="1" stop-color="#212121"></stop></radialGradient><radialGradient cx="232.52606" cy="174.12437" r="4.81495" gradientUnits="userSpaceOnUse" id="color-3"><stop offset="0" stop-color="#353535"></stop><stop offset="1" stop-color="#212121"></stop></radialGradient><radialGradient cx="240" cy="180" r="6.08683" gradientUnits="userSpaceOnUse" id="color-4"><stop offset="0" stop-color="#353535"></stop><stop offset="1" stop-color="#212121"></stop></radialGradient></defs><g transform="translate(-223.50578,-163.50578)"><g data-paper-data="{&quot;isPaintingLayer&quot;:true}" fill-rule="nonzero" stroke="#000000" stroke-linecap="butt" stroke-linejoin="miter" stroke-miterlimit="10" stroke-dasharray="" stroke-dashoffset="0" style="mix-blend-mode: normal"><g><path d="M237.55436,190.94166c0,0 0.22158,-0.54916 0.79031,-1.23258c0.1982,-0.23817 -0.27028,-4.05868 -0.27028,-4.05868l4.4582,-0.68492c0,0 -0.95146,3.261 -0.62254,4.54426c0.2268,0.88485 0.68361,1.4686 0.68361,1.4686z" data-paper-data="{&quot;index&quot;:null}" fill="url(#color-1)" stroke-width="0.25"></path><path d="M250.43666,176.50371c0,0 -0.59119,0.03411 -1.45201,-0.18837c-0.3,-0.07754 -3.55473,1.97734 -3.55473,1.97734l-2.52286,-3.73895c0,0 3.35506,-0.53198 4.37502,-1.37732c0.70331,-0.58289 1.03612,-1.24521 1.03612,-1.24521z" data-paper-data="{&quot;index&quot;:null}" fill="url(#color-2)" stroke-width="0.25"></path><path d="M231.28048,172.33252c0,0 0.33281,0.66231 1.03612,1.24521c1.01997,0.84534 4.37502,1.37731 4.37502,1.37731l-2.52286,3.73896c0,0 -3.25473,-2.05488 -3.55473,-1.97734c-0.86082,0.22248 -1.45201,0.18837 -1.45201,0.18837z" data-paper-data="{&quot;index&quot;:null}" fill="url(#color-3)" stroke-width="0.25"></path><path d="M226.50578,180c0,-7.45265 6.04157,-13.49421 13.49422,-13.49421c7.45265,0 13.49422,6.04156 13.49422,13.49421c0,7.45265 -6.04157,13.49422 -13.49422,13.49422c-7.45265,0 -13.49422,-6.04157 -13.49422,-13.49422z" fill="none" stroke-width="6"></path><path d="M234.42351,177.56029c1.34742,-3.07981 4.93639,-4.48419 8.01621,-3.13677c3.07981,1.34742 4.4842,4.9364 3.13678,8.01621c-1.34742,3.07981 -4.9364,4.48419 -8.01621,3.13677c-3.07981,-1.34742 -4.48419,-4.9364 -3.13677,-8.01621z" fill="url(#color-4)" stroke-width="0.25"></path></g></g></g></svg>