<svg version="1.1" xmlns="http://www.w3.org/2000/svg" xmlns:xlink="http://www.w3.org/1999/xlink" width="61.21489" height="61.21489" viewBox="0,0,61.21489,61.21489"><defs><radialGradient cx="249.57433" cy="175.09212" r="6.24865" gradientUnits="userSpaceOnUse" id="color-1"><stop offset="0" stop-color="#000000"></stop><stop offset="1" stop-color="#2d2d2d"></stop></radialGradient><radialGradient cx="249.27618" cy="173.56107" r="6.24864" gradientUnits="userSpaceOnUse" id="color-2"><stop offset="0" stop-color="#000000"></stop><stop offset="1" stop-color="#2d2d2d"></stop></radialGradient><radialGradient cx="250.02483" cy="174.54685" r="6.24865" gradientUnits="userSpaceOnUse" id="color-3"><stop offset="0" stop-color="#000000"></stop><stop offset="1" stop-color="#2d2d2d"></stop></radialGradient><radialGradient cx="248.7057" cy="173.71443" r="6.24864" gradientUnits="userSpaceOnUse" id="color-4"><stop offset="0" stop-color="#000000"></stop><stop offset="1" stop-color="#2d2d2d"></stop></radialGradient><radialGradient cx="250.60652" cy="182.69699" r="6.24864" gradientUnits="userSpaceOnUse" id="color-5"><stop offset="0" stop-color="#000000"></stop><stop offset="1" stop-color="#2d2d2d"></stop></radialGradient><radialGradient cx="251.3468" cy="181.32404" r="6.24865" gradientUnits="userSpaceOnUse" id="color-6"><stop offset="0" stop-color="#000000"></stop><stop offset="1" stop-color="#2d2d2d"></stop></radialGradient><radialGradient cx="251.30063" cy="182.56102" r="6.24865" gradientUnits="userSpaceOnUse" id="color-7"><stop offset="0" stop-color="#000000"></stop><stop offset="1" stop-color="#2d2d2d"></stop></radialGradient><radialGradient cx="250.80842" cy="181.08091" r="6.24864" gradientUnits="userSpaceOnUse" id="color-8"><stop offset="0" stop-color="#000000"></stop><stop offset="1" stop-color="#2d2d2d"></stop></radialGradient><radialGradient cx="245.87199" cy="189.06468" r="6.24865" gradientUnits="userSpaceOnUse" id="color-9"><stop offset="0" stop-color="#000000"></stop><stop offset="1" stop-color="#2d2d2d"></stop></radialGradient><radialGradient cx="247.37033" cy="188.6311" r="6.24867" gradientUnits="userSpaceOnUse" id="color-10"><stop offset="0" stop-color="#000000"></stop><stop offset="1" stop-color="#2d2d2d"></stop></radialGradient><radialGradient cx="246.45527" cy="189.46472" r="6.24867" gradientUnits="userSpaceOnUse" id="color-11"><stop offset="0" stop-color="#000000"></stop><stop offset="1" stop-color="#2d2d2d"></stop></radialGradient><radialGradient cx="247.16666" cy="188.0766" r="6.24865" gradientUnits="userSpaceOnUse" id="color-12"><stop offset="0" stop-color="#000000"></stop><stop offset="1" stop-color="#2d2d2d"></stop></radialGradient><radialGradient cx="238.55047" cy="190.68785" r="6.24865" gradientUnits="userSpaceOnUse" id="color-13"><stop offset="0" stop-color="#000000"></stop><stop offset="1" stop-color="#2d2d2d"></stop></radialGradient><radialGradient cx="240.03559" cy="191.16471" r="6.24866" gradientUnits="userSpaceOnUse" id="color-14"><stop offset="0" stop-color="#000000"></stop><stop offset="1" stop-color="#2d2d2d"></stop></radialGradient><radialGradient cx="238.81103" cy="191.34542" r="6.24865" gradientUnits="userSpaceOnUse" id="color-15"><stop offset="0" stop-color="#000000"></stop><stop offset="1" stop-color="#2d2d2d"></stop></radialGradient><radialGradient cx="240.17623" cy="190.59098" r="6.24865" gradientUnits="userSpaceOnUse" id="color-16"><stop offset="0" stop-color="#000000"></stop><stop offset="1" stop-color="#2d2d2d"></stop></radialGradient><radialGradient cx="231.60099" cy="187.25185" r="6.24866" gradientUnits="userSpaceOnUse" id="color-17"><stop offset="0" stop-color="#000000"></stop><stop offset="1" stop-color="#2d2d2d"></stop></radialGradient><radialGradient cx="232.46545" cy="188.55022" r="6.24865" gradientUnits="userSpaceOnUse" id="color-18"><stop offset="0" stop-color="#000000"></stop><stop offset="1" stop-color="#2d2d2d"></stop></radialGradient><radialGradient cx="231.39506" cy="187.92853" r="6.24865" gradientUnits="userSpaceOnUse" id="color-19"><stop offset="0" stop-color="#000000"></stop><stop offset="1" stop-color="#2d2d2d"></stop></radialGradient><radialGradient cx="232.93295" cy="188.18909" r="6.24866" gradientUnits="userSpaceOnUse" id="color-20"><stop offset="0" stop-color="#000000"></stop><stop offset="1" stop-color="#2d2d2d"></stop></radialGradient><radialGradient cx="228.83183" cy="180.76709" r="6.24866" gradientUnits="userSpaceOnUse" id="color-21"><stop offset="0" stop-color="#000000"></stop><stop offset="1" stop-color="#2d2d2d"></stop></radialGradient><radialGradient cx="228.61676" cy="182.31201" r="6.24866" gradientUnits="userSpaceOnUse" id="color-22"><stop offset="0" stop-color="#000000"></stop><stop offset="1" stop-color="#2d2d2d"></stop></radialGradient><radialGradient cx="228.2287" cy="181.13659" r="6.24865" gradientUnits="userSpaceOnUse" id="color-23"><stop offset="0" stop-color="#000000"></stop><stop offset="1" stop-color="#2d2d2d"></stop></radialGradient><radialGradient cx="229.20611" cy="182.35217" r="6.24866" gradientUnits="userSpaceOnUse" id="color-24"><stop offset="0" stop-color="#000000"></stop><stop offset="1" stop-color="#2d2d2d"></stop></radialGradient><radialGradient cx="230.42035" cy="173.25563" r="6.24864" gradientUnits="userSpaceOnUse" id="color-25"><stop offset="0" stop-color="#000000"></stop><stop offset="1" stop-color="#2d2d2d"></stop></radialGradient><radialGradient cx="229.28844" cy="174.32886" r="6.24865" gradientUnits="userSpaceOnUse" id="color-26"><stop offset="0" stop-color="#000000"></stop><stop offset="1" stop-color="#2d2d2d"></stop></radialGradient><radialGradient cx="229.71846" cy="173.16812" r="6.24865" gradientUnits="userSpaceOnUse" id="color-27"><stop offset="0" stop-color="#000000"></stop><stop offset="1" stop-color="#2d2d2d"></stop></radialGradient><radialGradient cx="229.72399" cy="174.72792" r="6.24866" gradientUnits="userSpaceOnUse" id="color-28"><stop offset="0" stop-color="#000000"></stop><stop offset="1" stop-color="#2d2d2d"></stop></radialGradient><radialGradient cx="236.95957" cy="168.99053" r="6.24864" gradientUnits="userSpaceOnUse" id="color-29"><stop offset="0" stop-color="#000000"></stop><stop offset="1" stop-color="#2d2d2d"></stop></radialGradient><radialGradient cx="235.39977" cy="168.98712" r="6.24865" gradientUnits="userSpaceOnUse" id="color-30"><stop offset="0" stop-color="#000000"></stop><stop offset="1" stop-color="#2d2d2d"></stop></radialGradient><radialGradient cx="236.51165" cy="168.44312" r="6.24865" gradientUnits="userSpaceOnUse" id="color-31"><stop offset="0" stop-color="#000000"></stop><stop offset="1" stop-color="#2d2d2d"></stop></radialGradient><radialGradient cx="235.43997" cy="169.57647" r="6.24867" gradientUnits="userSpaceOnUse" id="color-32"><stop offset="0" stop-color="#000000"></stop><stop offset="1" stop-color="#2d2d2d"></stop></radialGradient><radialGradient cx="244.55976" cy="170.01829" r="6.24864" gradientUnits="userSpaceOnUse" id="color-33"><stop offset="0" stop-color="#000000"></stop><stop offset="1" stop-color="#2d2d2d"></stop></radialGradient><radialGradient cx="243.29096" cy="169.11099" r="6.24865" gradientUnits="userSpaceOnUse" id="color-34"><stop offset="0" stop-color="#000000"></stop><stop offset="1" stop-color="#2d2d2d"></stop></radialGradient><radialGradient cx="244.51227" cy="169.31258" r="6.24866" gradientUnits="userSpaceOnUse" id="color-35"><stop offset="0" stop-color="#000000"></stop><stop offset="1" stop-color="#2d2d2d"></stop></radialGradient><radialGradient cx="242.98194" cy="169.61444" r="6.24868" gradientUnits="userSpaceOnUse" id="color-36"><stop offset="0" stop-color="#000000"></stop><stop offset="1" stop-color="#2d2d2d"></stop></radialGradient><radialGradient cx="240" cy="180.00001" r="6.5494" gradientUnits="userSpaceOnUse" id="color-37"><stop offset="0" stop-color="#757575"></stop><stop offset="1" stop-color="#676767"></stop></radialGradient><radialGradient cx="240" cy="180.00001" r="21.24131" gradientUnits="userSpaceOnUse" id="color-38"><stop offset="0" stop-color="#ffffff"></stop><stop offset="1" stop-color="#131313"></stop></radialGradient></defs><g transform="translate(-209.39256,-149.39256)"><g data-paper-data="{&quot;isPaintingLayer&quot;:true}" fill-rule="nonzero" stroke-linejoin="miter" stroke-miterlimit="10" stroke-dasharray="" stroke-dashoffset="0" style="mix-blend-mode: normal"><g fill="none" stroke-width="0.5" stroke-linecap="round"><g><path d="M243.04752,174.9732l15.25155,0.41451" stroke="url(#color-1)"></path><path d="M242.85259,174.72345l15.03711,-2.58215" stroke="url(#color-2)"></path><path d="M245.46429,179.2175l10.75637,-10.82047" stroke="url(#color-3)"></path><path d="M245.14881,179.18818l8.42752,-12.71845" stroke="url(#color-4)"></path></g><g><path d="M257.16554,188.45785l-11.53056,-9.99139" stroke="url(#color-5)"></path><path d="M258.90755,185.68794l-13.26489,-7.53823" stroke="url(#color-6)"></path><path d="M244.8125,183.28083l15.17863,-1.54651" stroke="url(#color-7)"></path><path d="M259.16845,178.56728l-14.58131,4.49086" stroke="url(#color-8)"></path></g><g><path d="M245.40803,182.55328l0.94804,15.22772" stroke="url(#color-9)"></path><path d="M249.55301,197.08357l-3.91359,-14.74674" stroke="url(#color-10)"></path><path d="M253.13341,195.08709l-11.73708,-9.74797" stroke="url(#color-11)"></path><path d="M254.81708,192.28134l-13.41971,-7.25905" stroke="url(#color-12)"></path></g><g><path d="M234.08556,198.18941l7.71541,-13.16262" stroke="url(#color-13)"></path><path d="M237.12724,199.39575l4.98655,-14.41932" stroke="url(#color-14)"></path><path d="M236.91741,185.09821l4.29492,14.64022" stroke="url(#color-15)"></path><path d="M244.17563,198.35071l-7.08049,-13.51478" stroke="url(#color-16)"></path></g><g><path d="M237.67078,184.84951l-14.23618,5.48757" stroke="url(#color-17)"></path><path d="M225.06194,193.17584l12.88487,-8.17084" stroke="url(#color-18)"></path><path d="M228.04354,195.98927l5.76307,-14.12689" stroke="url(#color-19)"></path><path d="M234.10905,181.76801l-2.88311,14.98233" stroke="url(#color-20)"></path></g><g><path d="M220.67566,177.65494l14.29084,5.34362" stroke="url(#color-21)"></path><path d="M235.06975,183.29809l-15.06089,-2.43966" stroke="url(#color-22)"></path><path d="M220.37191,184.94175l13.68668,-6.74219" stroke="url(#color-23)"></path><path d="M234.34744,178.3297l-12.10017,9.29345" stroke="url(#color-24)"></path></g><g><path d="M233.82262,178.8268l-7.83501,-13.09178" stroke="url(#color-25)"></path><path d="M233.71647,179.12534l-10.24851,-11.30267" stroke="url(#color-26)"></path><path d="M221.20423,171.24036l14.90279,3.26945" stroke="url(#color-27)"></path><path d="M236.25159,174.79175l-15.25454,-0.2858" stroke="url(#color-28)"></path></g><g><path d="M235.58132,175.37128l3.35467,-14.88383" stroke="url(#color-29)"></path><path d="M235.67166,160.26159l-0.37306,15.25264" stroke="url(#color-30)"></path><path d="M231.67539,161.17546l8.53733,12.645" stroke="url(#color-31)"></path><path d="M229.27332,163.39737l10.84966,10.72694" stroke="url(#color-32)"></path></g><g><path d="M239.73674,174.41738l11.36409,-10.18034" stroke="url(#color-33)"></path><path d="M239.42348,174.36991l9.14888,-12.20985" stroke="url(#color-34)"></path><path d="M244.40919,175.83968l0.37751,-15.25253" stroke="url(#color-35)"></path><path d="M244.15988,176.03517l-2.61861,-15.03081" stroke="url(#color-36)"></path></g></g><path d="M233.45201,180.13608c-0.07515,-3.61636 2.79556,-6.60891 6.41191,-6.68406c3.61636,-0.07515 6.60891,2.79556 6.68406,6.41191c0.07515,3.61636 -2.79555,6.60891 -6.41191,6.68406c-3.61636,0.07515 -6.60891,-2.79556 -6.68406,-6.41191z" fill="url(#color-37)" stroke="none" stroke-width="NaN" stroke-linecap="butt"></path><path d="M218.76328,180.44133c-0.24373,-11.72872 9.06669,-21.4343 20.79541,-21.67803c11.72872,-0.24373 21.4343,9.06669 21.67804,20.7954c0.24373,11.72872 -9.0667,21.4343 -20.79542,21.67803c-11.72872,0.24373 -21.43429,-9.06669 -21.67803,-20.7954z" fill="none" stroke="url(#color-38)" stroke-width="10" stroke-linecap="butt"></path><path d="M214.14256,180c0,-14.28067 11.57677,-25.85744 25.85744,-25.85744c14.28067,0 25.85744,11.57677 25.85744,25.85744c0,14.28067 -11.57677,25.85744 -25.85744,25.85744c-14.28067,0 -25.85744,-11.57677 -25.85744,-25.85744z" fill="none" stroke="#000000" stroke-width="9.5" stroke-linecap="butt"></path></g></g></svg>