<svg version="1.1" xmlns="http://www.w3.org/2000/svg" xmlns:xlink="http://www.w3.org/1999/xlink" width="111.42205" height="100.61256" viewBox="0,0,111.42205,100.61256"><defs><radialGradient cx="258.9519" cy="172.89184" r="21.7801" gradientUnits="userSpaceOnUse" id="color-1"><stop offset="0" stop-color="#1b1b1b"/><stop offset="1" stop-color="#1d1d1d"/></radialGradient><radialGradient cx="252.78577" cy="177.55758" r="8.5" gradientUnits="userSpaceOnUse" id="color-2"><stop offset="0" stop-color="#1b1b1b"/><stop offset="1" stop-color="#1d1d1d"/></radialGradient><radialGradient cx="283.93281" cy="151.70395" r="43.69191" gradientUnits="userSpaceOnUse" id="color-3"><stop offset="0" stop-color="#161f37"/><stop offset="1" stop-color="#192035"/></radialGradient><radialGradient cx="287.27887" cy="178.4161" r="3.94445" gradientUnits="userSpaceOnUse" id="color-4"><stop offset="0" stop-color="#1b1b1b"/><stop offset="1" stop-color="#1d1d1d"/></radialGradient><radialGradient cx="324.29464" cy="122.74713" r="2.09821" gradientUnits="userSpaceOnUse" id="color-5"><stop offset="0" stop-color="#232323"/><stop offset="1" stop-color="#2c2c2c"/></radialGradient><radialGradient cx="285.60752" cy="149.33479" r="9.73248" gradientUnits="userSpaceOnUse" id="color-6"><stop offset="0" stop-color="#1b1b1b"/><stop offset="1" stop-color="#1d1d1d"/></radialGradient><radialGradient cx="301.66178" cy="145.6866" r="22.63269" gradientUnits="userSpaceOnUse" id="color-7"><stop offset="0" stop-color="#161f37"/><stop offset="1" stop-color="#192035"/></radialGradient><radialGradient cx="322.50061" cy="119.86854" r="5.44051" gradientUnits="userSpaceOnUse" id="color-8"><stop offset="0" stop-color="#5016ad"/><stop offset="1" stop-color="#5a19b9"/></radialGradient><radialGradient cx="325.41739" cy="125.16782" r="2.44425" gradientUnits="userSpaceOnUse" id="color-9"><stop offset="0" stop-color="#191919"/><stop offset="1" stop-color="#090909"/></radialGradient><radialGradient cx="329.1674" cy="133.60531" r="2.44425" gradientUnits="userSpaceOnUse" id="color-10"><stop offset="0" stop-color="#191919"/><stop offset="1" stop-color="#090909"/></radialGradient></defs><g transform="translate(-229.50831,-82.46751)"><g data-paper-data="{&quot;isPaintingLayer&quot;:true}" fill-rule="nonzero" stroke-linecap="butt" stroke-linejoin="miter" stroke-miterlimit="10" stroke-dasharray="" stroke-dashoffset="0" style="mix-blend-mode: normal"><g stroke="none" stroke-width="0"><path d="M302.13499,169.13982l7.18077,-19.09032c0,0 3.80263,-0.93858 5.07908,0.78778c0.75729,1.18777 -7.18077,18.65282 -7.18077,18.65282c0,0 -2.22843,1.16894 -2.80763,1.12898c-0.93596,-0.06455 -2.27144,-1.47927 -2.27144,-1.47927z" fill="#5618b5"/><path d="M301.885,168.97486l7.0714,-18.79956c0,0 4.11401,-1.04738 5.00172,0.34494c0.74575,1.16968 -7.0714,18.79956 -7.0714,18.79956c0,0 -2.19449,1.15113 -2.76487,1.11179c-0.92171,-0.06357 -2.23685,-1.45674 -2.23685,-1.45674z" fill="#000000"/></g><g stroke="#000000" stroke-width="0.25"><path d="M235.57095,182.95507l-2.34352,-3.04992c0,0 -0.12241,-0.88739 0.13619,-0.98735c0.59659,-0.23061 23.72497,-14.20692 28.32934,-16.18676c2.87885,-0.82648 16.18936,7.3664 16.18936,7.3664l-4.10564,0.71821l-10.53225,-4.59453l-18.36116,9.41205c0,0 -0.55867,3.43005 -1.05893,4.1293c-0.27781,0.05552 -1.14389,1.43983 -2.64167,2.02451c-2.35263,0.91837 -5.6117,1.16809 -5.6117,1.16809z" fill="url(#color-1)"/><path d="M243.71434,179.77187l1,-2.71428c0,0 15.7873,-4.77509 23.26316,-6.1249c1.45749,-0.26316 3.88709,-2.12819 5.86518,-2.21313c1.71624,-0.07369 3.591,1.12355 6.28865,1.05092c2.98775,-0.08044 5.44015,0.42996 5.44015,0.42996l0.85714,3.57143c0,0 -5.87632,-1.47356 -10.43237,-0.88667c-7.73217,0.99601 -32.28191,6.88667 -32.28191,6.88667z" fill="url(#color-2)"/></g><path d="M312.42196,133.37142c0,0 -19.36863,12.12466 -26.49213,11.03294c-5.61554,-0.86062 -19.70144,-5.69472 -22.60994,-6.81445c-6.59802,-2.54013 -17.63256,-7.1899 -17.63256,-7.1899c0,0 12.61199,4.47497 26.44183,5.313c11.14115,0.67511 22.71297,-0.00518 25.08375,-1.05163c5.77115,-2.54735 20.10324,-4.39186 20.10324,-4.39186c0,0 6.45344,-3.99289 6.9504,-3.38205c1.30101,1.59917 3.35818,7.8348 3.35818,7.8348l-13.50859,9.33386l-13.17835,34.39684l-17.66814,0.24257c0,0 -0.00628,-4.64247 -1.0579,-8.49368c-0.24106,-1.16658 -4.53924,-6.96151 -5.02666,-8.68836c-0.41042,-1.45404 -0.31166,-5.08944 -0.31166,-5.08944z" fill="url(#color-3)" stroke="#000000" stroke-width="0.5"/><path d="M283.33442,178.86054v-0.88888l16.77778,-0.22223l12.86923,-33.66813c0,0 13.63007,-9.9874 13.81579,-9.94209c0.06007,0.01466 0.6294,1.13017 0.6294,1.13017l-13.2648,9.09994l-13.27185,34.38011z" fill="url(#color-4)" stroke="#000000" stroke-width="0.5"/><path d="M323.10886,125.65373l-0.584,-0.97453c0,0 0.31027,-0.39694 0.33088,-0.93452c0.01765,-0.46036 -0.46463,-0.91552 -0.22759,-1.25107c0.39304,-0.55638 1.91384,-1.09256 2.2051,-1.1663c0.19339,-0.04896 1.66869,2.61274 1.66869,2.61274z" fill="url(#color-5)" stroke="#000000" stroke-width="0.25"/><path d="M283.91912,135.93774c11.19072,-0.62994 34.49637,-6.34125 34.49637,-6.34125c0,0 -3.95091,3.55288 -10.21665,6.74088c-8.31851,4.23245 -20.33944,8.19096 -21.69444,7.74996c-3.02263,-0.98375 -7.05231,-1.87684 -10.91647,-3.02558c-4.47061,-1.32903 -8.762,-2.89447 -11.69551,-3.63977c-6.76026,-1.71755 -12.52406,-5.34783 -12.52406,-5.34783c0,0 26.86403,4.1837 32.55076,3.86359z" fill="#121212" stroke="#000000" stroke-width="0.25"/><path d="M302.00523,152.46896l8.36689,-6.82352l-9.39228,22.60005c0,0 -1.41554,-2.90835 -2.52041,-4.01322c-1.07687,-1.07687 -3.24764,-1.67574 -3.24764,-1.67574z" fill="#2a2a2a" stroke="#000000" stroke-width="0.5"/><path d="M275.87505,142.0473l2.30102,-0.01515c0,0 4.33809,1.56448 8.49624,2.33119c1.8256,0.33662 2.95535,-0.5045 3.8771,-0.23719c1.58162,0.45867 3.64776,2.17336 3.64776,2.17336l-3.8898,2.28504c0,0 -5.66928,5.26501 -7.98988,5.3371c-1.13923,0.03539 -2.05332,-0.25334 -1.92997,-1.17058c0.02645,-0.19673 7.42074,-5.90074 7.25292,-6.00106c-2.82957,-1.69159 -11.45552,-3.92802 -11.45552,-3.92802z" fill="url(#color-6)" stroke="#000000" stroke-width="0.5"/><path d="M277.93845,161.87686c-0.36867,-0.92944 -0.19512,-5.4596 -0.19512,-5.4596l41.55333,-27.28467l3.99977,6.39328c0,0 -13.91808,10.5464 -14.80653,11.07013c-1.10784,0.65304 -6.28198,5.07895 -6.51175,5.2328c-0.9005,0.6029 -7.46927,10.52511 -7.46927,10.52511c0,0 -4.86615,1.72371 -6.95963,5.337c-1.49164,2.57455 0.49568,6.24667 0.00283,7.02827c-0.77064,1.2221 -3.78716,4.33214 -4.61522,4.08006c-0.38564,-0.1174 -2.97997,-2.48798 -2.96198,-2.66168c0.1117,-1.07853 3.12199,-5.61335 3.12199,-5.61335c0,0 -4.78876,-7.71541 -5.15843,-8.64736z" fill="url(#color-7)" stroke="#000000" stroke-width="0.25"/><path d="M287.49072,170.07598c0,-3.59374 2.9133,-6.50706 6.50705,-6.50706c3.59374,0 6.50705,2.91331 6.50705,6.50706c0,3.59374 -2.9133,6.50705 -6.50705,6.50705c-3.59374,0 -6.50705,-2.9133 -6.50705,-6.50705z" fill="#545454" stroke="#000000" stroke-width="0.5"/><path d="M338.49799,159.1786l-15.52982,-33.86622l4.11634,-1.68395l13.84585,31.43384z" fill="#191919" stroke="none" stroke-width="0"/><path d="M323.25712,123.4515c-0.5856,-0.54466 -4.32959,-7.60913 -4.32959,-7.60913l2.93004,-1.3779c0,0 3.63089,7.6691 3.49287,8.24043c-0.1388,0.57456 -1.73433,1.08049 -2.09332,0.7466z" fill="url(#color-8)" stroke="#000000" stroke-width="0.25"/><path d="M322.22818,113.50981c0.18783,1.30178 -0.74818,2.51409 -2.09063,2.7078c-1.34246,0.1937 -2.58299,-0.70457 -2.77083,-2.00635c-0.18783,-1.30178 0.74818,-2.51409 2.09063,-2.7078c1.34246,-0.1937 2.58301,0.70457 2.77083,2.00635z" fill="#000000" stroke="none" stroke-width="0"/><path d="M323.82111,127.44677c-0.30065,-0.10188 -1.00581,-1.44199 -0.92684,-1.77767c0.00757,-0.41325 3.83688,-2.09941 4.38541,-1.9422c0.40906,0.11722 0.99415,1.49365 0.94023,1.70782c-0.08937,0.35503 -4.04975,2.13032 -4.3988,2.01204z" fill="url(#color-9)" stroke="#000000" stroke-width="0.25"/><path d="M327.57112,135.88427c-0.30065,-0.10188 -1.00581,-1.44199 -0.92684,-1.77767c0.00757,-0.41325 3.83688,-2.09941 4.38541,-1.9422c0.40906,0.11722 0.99415,1.49365 0.94023,1.70782c-0.08937,0.35503 -4.04975,2.13032 -4.3988,2.01204z" fill="url(#color-10)" stroke="#000000" stroke-width="0.25"/><path d="M290.85714,169.90338c0,-1.67411 1.35714,-3.03125 3.03125,-3.03125c0.62529,0 1.57153,-0.44031 2.439,0.38878c0.85271,0.81498 0.59225,1.59364 0.59225,2.64247c0,1.67411 -1.35714,3.03125 -3.03125,3.03125c-1.67411,0 -3.03125,-1.35714 -3.03125,-3.03125z" fill="#613a90" stroke="#000000" stroke-width="0.5"/><path d="M273.34111,136.06447c-14.07972,-5.45625 -29.24591,-11.30187 -31.80828,-12.20305c-0.71996,-0.25321 5.80754,-4.70425 5.80754,-4.70425l28.13093,6.79688c0,0 4.51754,0.83293 4.20417,3.77832c-0.23339,2.19372 -5.01904,6.84183 -6.33437,6.33211z" fill="#d89856" stroke="#000000" stroke-width="0.25"/><path d="M264.50988,102.26882l8.33474,18.22002c0,0 10.88016,9.15105 3.94401,11.92118c-3.11449,1.24387 -7.69068,-1.80182 -9.67926,-2.55598c-0.97815,-0.37095 -0.12313,-1.39899 -2.39164,-2.51485c-3.39057,-1.66779 -6.67357,-7.47763 -9.14428,-10.50395c-7.48449,-9.1676 8.93641,-14.56642 8.93641,-14.56642z" fill="#333333" stroke="#000000" stroke-width="0.25"/><path d="M263.65144,102.2905c0,0 3.86003,-5.19173 9.47877,-10.56823c3.20461,-3.06644 6.99609,-7.01431 10.9326,-8.02839c10.83851,-2.79211 8.87824,-0.19632 10.10389,6.88814c0.78282,4.5248 -4.46375,7.04486 -10.0923,13.22714c-4.40376,4.83701 -6.62841,11.64833 -8.26973,14.34635c-1.61811,2.65983 -12.15322,-15.86498 -12.15322,-15.86498z" fill="#afafaf" stroke="#000000" stroke-width="0.25"/><path d="M294.0735,95.64589l8.01659,12.09481l10.36018,3.66111l0.64534,4.25879c0,0 -10.91979,-0.49938 -15.34722,-2.87304c-2.30698,-1.87195 -9.90098,-13.22203 -9.90098,-13.22203z" fill="#d89856" stroke="#000000" stroke-width="0.25"/><path d="M288.2652,101.4766c0,0 -5.74792,-5.46126 -4.69806,-9.53949c0.57478,-2.23279 2.68996,-2.63676 4.06353,-2.96314c1.13529,-0.26975 2.77082,0.20192 4.19783,0.82257c3.15356,1.37158 4.47087,7.64126 4.47087,7.64126z" fill="#afafaf" stroke="#000000" stroke-width="0.25"/><path d="M284.30779,173.89275l0.62665,-9.74307l17.13813,5.73652l-0.32982,5.12792z" fill="#636363" stroke="#000000" stroke-width="0.25"/><path d="M241.49373,112.60186l7.19532,6.59904l-15.21713,9.74998l-3.787,-3.47318z" fill="#636363" stroke="#000000" stroke-width="0.25"/><path d="M313.13198,115.77504l-0.94366,-4.3037l5.31424,-3.11213l3.95096,0.79914l2.00435,3.29234c0,0 -3.53862,-1.2988 -4.90975,-0.90147c-1.27032,0.36812 -2.94559,1.7326 -4.06637,2.91147c-0.77449,0.81464 -1.34979,1.31436 -1.34979,1.31436z" fill="#383838" stroke="#000000" stroke-width="0.25"/><path d="M284.85822,133.22744c3.31059,14.73259 6.90296,30.58438 7.58169,33.21444c0.19071,0.73898 -7.14168,-2.20312 -7.14168,-2.20312l-10.02343,-27.14917c0,0 2.90998,-2.32773 5.53075,-3.708c1.95193,-1.02802 3.74341,-1.53046 4.05269,-0.15415z" fill="#d89856" stroke="#000000" stroke-width="0.25"/><path d="M263.88573,102.02597c0,0 16.22539,12.64962 14.69844,19.53472c-0.66079,2.97949 8.4525,10.31814 7.05084,17.65429c-1.40165,7.33615 -10.31734,-0.55768 -10.31734,-0.55768c0,0 -16.42611,-18.9808 -18.86318,-25.79992c-1.54414,-4.32064 7.43124,-10.83141 7.43124,-10.83141z" fill="#333333" stroke="#000000" stroke-width="0.25"/></g></g></svg>