<svg version="1.1" xmlns="http://www.w3.org/2000/svg" xmlns:xlink="http://www.w3.org/1999/xlink" width="168.62588" height="124.79129" viewBox="0,0,168.62588,124.79129"><defs><linearGradient x1="236.74594" y1="165.77024" x2="274.61271" y2="165.77024" gradientUnits="userSpaceOnUse" id="color-1"><stop offset="0" stop-color="#888888"></stop><stop offset="1" stop-color="#6b6b6b"></stop></linearGradient><linearGradient x1="271.38599" y1="144.45485" x2="322.95115" y2="144.45485" gradientUnits="userSpaceOnUse" id="color-2"><stop offset="0" stop-color="#888888"></stop><stop offset="1" stop-color="#6b6b6b"></stop></linearGradient><linearGradient x1="280.84817" y1="160.32521" x2="325.25068" y2="160.32521" gradientUnits="userSpaceOnUse" id="color-3"><stop offset="0" stop-color="#888888"></stop><stop offset="1" stop-color="#6b6b6b"></stop></linearGradient><linearGradient x1="270.46353" y1="167.25697" x2="283.43926" y2="167.25697" gradientUnits="userSpaceOnUse" id="color-4"><stop offset="0" stop-color="#888888"></stop><stop offset="1" stop-color="#6b6b6b"></stop></linearGradient><linearGradient x1="239.54564" y1="181.59098" x2="284.81183" y2="181.59098" gradientUnits="userSpaceOnUse" id="color-5"><stop offset="0" stop-color="#888888"></stop><stop offset="1" stop-color="#6b6b6b"></stop></linearGradient><linearGradient x1="319.50104" y1="155.43354" x2="344.95781" y2="155.43354" gradientUnits="userSpaceOnUse" id="color-6"><stop offset="0" stop-color="#888888"></stop><stop offset="1" stop-color="#6b6b6b"></stop></linearGradient><linearGradient x1="318.02779" y1="126.46908" x2="328.17724" y2="126.46908" gradientUnits="userSpaceOnUse" id="color-7"><stop offset="0" stop-color="#ffc02a"></stop><stop offset="1" stop-color="#ff9d00"></stop></linearGradient><linearGradient x1="265.44386" y1="146.20539" x2="274.73258" y2="146.20539" gradientUnits="userSpaceOnUse" id="color-8"><stop offset="0" stop-color="#888888"></stop><stop offset="1" stop-color="#6b6b6b"></stop></linearGradient></defs><g transform="translate(-206.74686,-87.99486)"><g data-paper-data="{&quot;isPaintingLayer&quot;:true}" fill-rule="nonzero" stroke-linecap="butt" stroke-linejoin="miter" stroke-miterlimit="10" stroke-dasharray="" stroke-dashoffset="0" style="mix-blend-mode: normal"><path d="M274.71061,173.76602l0.62665,-9.74307l17.13813,5.73652l-0.32982,5.12792z" fill="#636363" stroke="#000000" stroke-width="0.25"></path><path d="M248.5796,112.80484c0,0 21.52415,1.53889 19.9972,8.42399c-0.66079,2.97949 8.4525,10.31814 7.05084,17.65429c-1.40165,7.33615 -10.31734,-0.55768 -10.31734,-0.55768z" fill="#333333" stroke="#000000" stroke-width="0.25"></path><path d="M274.64579,132.89561c3.31059,14.73259 6.90296,30.58438 7.58169,33.21444c0.19071,0.73898 -7.14168,-2.20312 -7.14168,-2.20312l-10.02343,-27.14917c0,0 2.90998,-2.32773 5.53075,-3.708c1.95193,-1.02802 3.74341,-1.53046 4.05269,-0.15415z" fill="#d89856" stroke="#000000" stroke-width="0.25"></path><path d="M346.1882,179.87692c0,2.38448 -2.00458,4.31746 -4.47737,4.31746c-2.47278,0 -4.47737,-1.933 -4.47737,-4.31746c0,-2.38448 2.00459,-4.31745 4.47737,-4.31745c2.47278,0 4.47737,1.93299 4.47737,4.31745z" fill="#707070" stroke="none" stroke-width="0"></path><path d="M270.81093,179.62149c0,16.50044 -13.6137,29.87668 -30.40703,29.87668c-16.79334,0 -30.40704,-13.37624 -30.40704,-29.87668c0,-16.50044 13.6137,-29.87668 30.40704,-29.87668c16.79335,0 30.40703,13.37624 30.40703,29.87668z" fill="none" stroke="#000000" stroke-width="6.5"></path><path d="M244.23683,179.83895c0,2.38448 -2.00459,4.31746 -4.47737,4.31746c-2.47278,0 -4.47737,-1.93299 -4.47737,-4.31746c0,-2.38448 2.00459,-4.31746 4.47737,-4.31746c2.47278,0 4.47737,1.93299 4.47737,4.31746z" fill="#888888" stroke="none" stroke-width="0"></path><path d="M374.42733,179.24364c0,17.22355 -14.21029,31.18599 -31.73958,31.18599c-17.52929,0 -31.73959,-13.96244 -31.73959,-31.18599c0,-17.22355 14.2103,-31.18598 31.73959,-31.18598c17.52929,0 31.73958,13.96244 31.73958,31.18598z" fill="none" stroke="none" stroke-width="0"></path><path d="M239.56779,180.3096l-2.82184,-3.9253l35.045,-25.15338l2.82185,3.9253z" fill="url(#color-1)" stroke="none" stroke-width="0"></path><path d="M272.98681,155.86013l-1.60082,-4.50241l49.96437,-18.30814l1.60082,4.50241z" fill="url(#color-2)" stroke="none" stroke-width="0"></path><path d="M284.67404,183.66417l-3.82589,-3.68076l40.57662,-42.99714l3.8259,3.68077z" fill="url(#color-3)" stroke="none" stroke-width="0"></path><path d="M283.43926,180.27923l-4.01981,1.31762l-8.95589,-27.36214l4.01981,-1.31762z" fill="url(#color-4)" stroke="none" stroke-width="0"></path><path d="M372.12275,179.65947c0,16.50044 -13.6137,29.87668 -30.40704,29.87668c-16.79334,0 -30.40704,-13.37624 -30.40704,-29.87668c0,-16.50044 13.6137,-29.87668 30.40704,-29.87668c16.79334,0 30.40704,13.37624 30.40704,29.87668z" fill="none" stroke="#000000" stroke-width="6.5"></path><path d="M239.63968,184.37126l-0.09404,-4.83356l45.17221,-0.72701l0.09403,4.83355z" fill="url(#color-5)" stroke="none" stroke-width="0"></path><path d="M319.50104,129.8125l4.45971,-1.71616l20.99701,52.95822l-4.4597,1.71615z" fill="url(#color-6)" stroke="none" stroke-width="0"></path><path d="M319.82975,129.97125l-1.80204,-3.06175l8.88044,-3.94261l1.26902,4.1278z" fill="url(#color-7)" stroke="none" stroke-width="0"></path><path d="M322.34511,111.60279c0,1.06456 -2.01461,1.75298 -3.42295,1.75298c-1.40834,0 -2.55002,-0.863 -2.55002,-1.92757c0,-1.06456 1.14168,-1.92756 2.55002,-1.92756c1.40834,0 3.42295,1.03758 3.42295,2.10215z" fill="#000000" stroke="none" stroke-width="0"></path><path d="M323.93449,124.21873l-4.08573,-11.30607l3.13824,-1.51601l3.87253,11.8391z" fill="#000000" stroke="none" stroke-width="0"></path><path d="M270.78612,152.4107l-5.34225,-10.43857l3.9465,-1.97205l5.34225,10.43856z" fill="url(#color-8)" stroke="none" stroke-width="0"></path><path d="M254.2576,141.40822l1.49246,-6.07643c0,0 5.60407,-0.19671 8.77172,-0.63415c4.06736,-0.56168 13.61512,-2.45737 13.61512,-2.45737l0.53302,3.30473c0,0 -3.038,0.61937 -6.24167,1.55083c-0.89226,0.25942 -1.61626,2.661 -3.0558,3.09653c-1.76322,0.53346 -3.21102,1.71088 -5.25666,2.05227c-4.6087,0.76914 -9.85819,-0.83641 -9.85819,-0.83641z" fill="#383838" stroke="none" stroke-width="0"></path><path d="M314.60209,106.64095l7.61644,0.26811l1.59891,2.67877l-1.00611,3.23994c0,0 -0.16407,-2.25051 -1.52141,-2.69271c-1.25753,-0.40968 -3.41009,-0.223 -4.99972,0.12189c-1.09849,0.23834 -1.85519,0.3282 -1.85519,0.3282z" fill="#d89856" stroke="#000000" stroke-width="0.25"></path><path d="M258.73231,101.76519c0,0 4.91406,-4.20784 11.58407,-8.20633c3.80419,-2.2805 8.37591,-5.29056 12.43925,-5.40757c11.18773,-0.32218 8.70122,1.77497 8.32731,8.95494c-0.23881,4.5858 -5.91323,5.88123 -12.77128,10.66331c-5.36572,3.7415 -9.04374,9.89092 -11.24187,12.1584c-2.16704,2.23538 -8.33749,-18.16273 -8.33749,-18.16273z" fill="#afafaf" stroke="#000000" stroke-width="0.25"></path><path d="M228.5733,120.34491l9.01077,3.75846l-10.99393,14.34422l-4.7425,-1.97814z" fill="#636363" stroke="#000000" stroke-width="0.25"></path><path d="M266.78729,134.38326c-14.98663,-1.84669 -31.12196,-3.80517 -33.82692,-4.05224c-0.76003,-0.06942 4.4805,-5.98185 4.4805,-5.98185l28.93894,-0.29026c0,0 4.58405,-0.29734 5.00063,2.63523c0.31027,2.18417 -3.19311,7.86164 -4.59316,7.68913z" fill="#d89856" stroke="#000000" stroke-width="0.25"></path><path d="M258.78815,101.00654l7.30454,18.65691c0,0 9.82826,6.06649 2.74828,8.44507c-3.17908,1.06805 -7.05405,1.44934 -8.99743,0.58534c-0.95591,-0.42498 -0.04484,-1.40367 -2.24751,-2.64444c-3.29217,-1.85448 -6.24569,-7.83854 -8.54359,-10.99808c-6.96099,-9.57115 9.7357,-14.0448 9.7357,-14.0448z" fill="#333333" stroke="#000000" stroke-width="0.25"></path><path d="M291.05188,92.99001l12.08477,14.6516l11.31353,-0.91925l-0.07379,4.05428l-13.54826,1.35664l-17.71043,-13.24618z" fill="#d89856" stroke="#000000" stroke-width="0.25"></path><path d="M288.68998,103.4003c0,0 -7.10511,-3.51873 -7.30733,-7.72505c-0.11072,-2.30292 1.7906,-3.31393 3.00638,-4.03165c1.00487,-0.5932 2.70674,-0.62593 4.25343,-0.4547c3.41804,0.37838 6.52933,5.97875 6.52933,5.97875z" fill="#afafaf" stroke="#000000" stroke-width="0.25"></path></g></g></svg>