<svg version="1.1" xmlns="http://www.w3.org/2000/svg" xmlns:xlink="http://www.w3.org/1999/xlink" width="20.08236" height="20.08236" viewBox="0,0,20.08236,20.08236"><defs><radialGradient cx="239.99999" cy="180" r="5.7647" gradientUnits="userSpaceOnUse" id="color-1"><stop offset="0" stop-color="#ffffff"></stop><stop offset="1" stop-color="#3e3e3e"></stop></radialGradient><radialGradient cx="239.99999" cy="180" r="5.08823" gradientUnits="userSpaceOnUse" id="color-2"><stop offset="0" stop-color="#ffffff"></stop><stop offset="1" stop-color="#0e0e0e"></stop></radialGradient></defs><g transform="translate(-229.95882,-169.95882)"><g data-paper-data="{&quot;isPaintingLayer&quot;:true}" fill-rule="nonzero" stroke-linecap="butt" stroke-linejoin="miter" stroke-miterlimit="10" stroke-dasharray="" stroke-dashoffset="0" style="mix-blend-mode: normal"><g><path d="M231.95882,180c0,-4.44102 3.60016,-8.04118 8.04118,-8.04118c4.44102,0 8.04118,3.60016 8.04118,8.04118c0,4.44102 -3.60016,8.04118 -8.04118,8.04118c-4.44102,0 -8.04118,-3.60016 -8.04118,-8.04118z" fill="none" stroke="#000000" stroke-width="4"></path><path d="M234.23529,180c0,-3.18376 2.58094,-5.7647 5.7647,-5.7647c3.18376,0 5.7647,2.58094 5.7647,5.7647c0,3.18376 -2.58094,5.7647 -5.7647,5.7647c-3.18376,0 -5.7647,-2.58094 -5.7647,-5.7647z" fill="none" stroke="url(#color-1)" stroke-width="1"></path><path d="M234.91176,180c0,-2.81016 2.27808,-5.08823 5.08823,-5.08823c2.81016,0 5.08823,2.27808 5.08823,5.08823c0,2.81016 -2.27808,5.08823 -5.08823,5.08823c-2.81016,0 -5.08823,-2.27808 -5.08823,-5.08823z" fill="#424242" stroke="url(#color-2)" stroke-width="1"></path></g></g></g></svg>