<svg version="1.1" xmlns="http://www.w3.org/2000/svg" xmlns:xlink="http://www.w3.org/1999/xlink" width="10.56251" height="19.0458" viewBox="0,0,10.56251,19.0458"><g transform="translate(-311.71261,-163.22374)"><g data-paper-data="{&quot;isPaintingLayer&quot;:true}" fill-rule="nonzero" stroke="#000000" stroke-width="0.25" stroke-linecap="butt" stroke-linejoin="miter" stroke-miterlimit="10" stroke-dasharray="" stroke-dashoffset="0" style="mix-blend-mode: normal"><path d="M317.38768,179.49945l0.89181,-4.29184l0.94755,-0.05574c0,0 0.54945,0.14136 0.59488,0.54043c0.10436,0.91688 2.19203,4.36453 2.19203,4.36453c0,0 0.29466,0.72578 0.01707,0.86875c-0.33884,0.17451 -2.0133,-1.38095 -2.19233,-1.32c-0.13874,0.04724 -0.2008,0.62259 -0.10918,1.09848c0.13545,0.70354 0.47464,1.38795 0.32309,1.44048c-0.16303,0.05651 -0.65474,-0.25905 -1.11381,-0.52639c-0.3561,-0.20737 -0.67036,-0.31912 -0.93763,-0.6296c-0.56975,-0.66185 -0.61347,-1.48912 -0.61347,-1.48912z" fill="#2c2c2c"></path><path d="M315.60407,174.87318l-3.73446,-10.36731l2.50822,-1.11476l5.18365,13.26568c0,0 0.50911,2.14685 0.38413,2.37309c-0.37642,0.68137 -2.19253,0.62062 -2.49297,0.72246c-0.2253,0.07637 -1.64204,-2.31317 -2.06044,-3.78342c-0.17308,-0.6082 0.21187,-1.09574 0.21187,-1.09574z" fill="#2e2e2e"></path><path d="M319.15707,180.29075c0,-0.51947 0.42111,-0.94058 0.94058,-0.94058c0.51947,0 0.94058,0.42111 0.94058,0.94058c0,0.51947 -0.42111,0.94058 -0.94058,0.94058c-0.51947,0 -0.94058,-0.42111 -0.94058,-0.94058z" fill="#787878"></path></g></g></svg>