<svg version="1.1" xmlns="http://www.w3.org/2000/svg" xmlns:xlink="http://www.w3.org/1999/xlink" width="168.62587" height="127.96248" viewBox="0,0,168.62587,127.96248"><defs><linearGradient x1="236.74593" y1="165.77024" x2="274.61271" y2="165.77024" gradientUnits="userSpaceOnUse" id="color-1"><stop offset="0" stop-color="#888888"></stop><stop offset="1" stop-color="#6b6b6b"></stop></linearGradient><linearGradient x1="271.38599" y1="144.45485" x2="322.9512" y2="144.45485" gradientUnits="userSpaceOnUse" id="color-2"><stop offset="0" stop-color="#888888"></stop><stop offset="1" stop-color="#6b6b6b"></stop></linearGradient><linearGradient x1="280.84823" y1="160.32521" x2="325.25068" y2="160.32521" gradientUnits="userSpaceOnUse" id="color-3"><stop offset="0" stop-color="#888888"></stop><stop offset="1" stop-color="#6b6b6b"></stop></linearGradient><linearGradient x1="270.46353" y1="167.25697" x2="283.43926" y2="167.25697" gradientUnits="userSpaceOnUse" id="color-4"><stop offset="0" stop-color="#888888"></stop><stop offset="1" stop-color="#6b6b6b"></stop></linearGradient><linearGradient x1="239.54563" y1="181.59098" x2="284.81183" y2="181.59098" gradientUnits="userSpaceOnUse" id="color-5"><stop offset="0" stop-color="#888888"></stop><stop offset="1" stop-color="#6b6b6b"></stop></linearGradient><linearGradient x1="319.50104" y1="155.43354" x2="344.9578" y2="155.43354" gradientUnits="userSpaceOnUse" id="color-6"><stop offset="0" stop-color="#888888"></stop><stop offset="1" stop-color="#6b6b6b"></stop></linearGradient><linearGradient x1="318.02777" y1="126.46908" x2="328.17722" y2="126.46908" gradientUnits="userSpaceOnUse" id="color-7"><stop offset="0" stop-color="#ffc02a"></stop><stop offset="1" stop-color="#ff9d00"></stop></linearGradient><linearGradient x1="265.44386" y1="146.20539" x2="274.73258" y2="146.20539" gradientUnits="userSpaceOnUse" id="color-8"><stop offset="0" stop-color="#888888"></stop><stop offset="1" stop-color="#6b6b6b"></stop></linearGradient></defs><g transform="translate(-206.74686,-84.82368)"><g data-paper-data="{&quot;isPaintingLayer&quot;:true}" fill-rule="nonzero" stroke-linecap="butt" stroke-linejoin="miter" stroke-miterlimit="10" stroke-dasharray="" stroke-dashoffset="0" style="mix-blend-mode: normal"><path d="M346.18819,179.87692c0,2.38448 -2.00458,4.31746 -4.47737,4.31746c-2.47278,0 -4.47737,-1.933 -4.47737,-4.31746c0,-2.38448 2.00459,-4.31745 4.47737,-4.31745c2.47278,0 4.47737,1.93299 4.47737,4.31745z" fill="#707070" stroke="none" stroke-width="0"></path><path d="M270.81093,179.62149c0,16.50044 -13.6137,29.87668 -30.40703,29.87668c-16.79334,0 -30.40704,-13.37624 -30.40704,-29.87668c0,-16.50044 13.6137,-29.87668 30.40704,-29.87668c16.79335,0 30.40703,13.37624 30.40703,29.87668z" fill="none" stroke="#000000" stroke-width="6.5"></path><path d="M244.23682,179.83895c0,2.38448 -2.00459,4.31746 -4.47737,4.31746c-2.47278,0 -4.47737,-1.93299 -4.47737,-4.31746c0,-2.38448 2.00459,-4.31746 4.47737,-4.31746c2.47278,0 4.47737,1.93299 4.47737,4.31746z" fill="#888888" stroke="none" stroke-width="0"></path><path d="M374.42732,179.24364c0,17.22355 -14.21029,31.18599 -31.73958,31.18599c-17.52929,0 -31.73959,-13.96244 -31.73959,-31.18599c0,-17.22355 14.2103,-31.18598 31.73959,-31.18598c17.52929,0 31.73958,13.96244 31.73958,31.18598z" fill="none" stroke="none" stroke-width="0"></path><path d="M239.56778,180.3096l-2.82184,-3.9253l35.045,-25.15338l2.82185,3.9253z" fill="url(#color-1)" stroke="none" stroke-width="0"></path><path d="M272.98681,155.86013l-1.60082,-4.50241l49.96437,-18.30814l1.60082,4.50241z" fill="url(#color-2)" stroke="none" stroke-width="0"></path><path d="M284.67404,183.66417l-3.82589,-3.68076l40.57662,-42.99714l3.8259,3.68077z" fill="url(#color-3)" stroke="none" stroke-width="0"></path><path d="M283.43926,180.27923l-4.01981,1.31762l-8.95589,-27.36214l4.01981,-1.31762z" fill="url(#color-4)" stroke="none" stroke-width="0"></path><path d="M372.12274,179.65947c0,16.50044 -13.6137,29.87668 -30.40704,29.87668c-16.79334,0 -30.40704,-13.37624 -30.40704,-29.87668c0,-16.50044 13.6137,-29.87668 30.40704,-29.87668c16.79334,0 30.40704,13.37624 30.40704,29.87668z" fill="none" stroke="#000000" stroke-width="6.5"></path><path d="M239.63967,184.37126l-0.09404,-4.83356l45.17221,-0.72701l0.09403,4.83355z" fill="url(#color-5)" stroke="none" stroke-width="0"></path><path d="M319.50104,129.8125l4.45971,-1.71616l20.99701,52.95822l-4.4597,1.71615z" fill="url(#color-6)" stroke="none" stroke-width="0"></path><path d="M319.82975,129.97125l-1.80204,-3.06175l8.88044,-3.94261l1.26902,4.1278z" fill="url(#color-7)" stroke="none" stroke-width="0"></path><path d="M322.34511,111.60279c0,1.06456 -2.01461,1.75298 -3.42295,1.75298c-1.40834,0 -2.55002,-0.863 -2.55002,-1.92757c0,-1.06456 1.14168,-1.92756 2.55002,-1.92756c1.40834,0 3.42295,1.03758 3.42295,2.10215z" fill="#000000" stroke="none" stroke-width="0"></path><path d="M323.93449,124.21873l-4.08573,-11.30607l3.13824,-1.51601l3.87253,11.8391z" fill="#000000" stroke="none" stroke-width="0"></path><path d="M270.7861,152.4107l-5.34225,-10.43857l3.9465,-1.97205l5.34225,10.43856z" fill="url(#color-8)" stroke="none" stroke-width="0"></path><path d="M254.25759,141.40822l1.49246,-6.07643c0,0 5.60407,-0.19671 8.77172,-0.63415c4.06736,-0.56168 13.61512,-2.45737 13.61512,-2.45737l0.53302,3.30473c0,0 -3.038,0.61937 -6.24167,1.55083c-0.89226,0.25942 -1.61626,2.661 -3.0558,3.09653c-1.76322,0.53346 -3.21102,1.71088 -5.25666,2.05227c-4.6087,0.76914 -9.85819,-0.83641 -9.85819,-0.83641z" fill="#383838" stroke="none" stroke-width="0"></path><path d="M274.72064,181.10977l2.83727,-9.34184l15.373,9.50231l-1.4933,4.91675z" fill="#636363" stroke="#000000" stroke-width="0.25"></path><path d="M273.82674,97.87542c2.42708,-3.71238 5.22624,-8.41619 8.8309,-10.29524c9.92485,-5.17364 8.60322,-2.20143 11.40109,4.42154c1.78699,4.23005 -2.75274,7.87259 -6.83533,15.16872c-3.1942,5.70848 -4.02397,14.69246 -5.01178,17.69204c-0.97385,2.95713 -16.04501,-11.4707 -16.04501,-11.4707c0,0 3.40464,-9.00731 7.66013,-15.51637z" fill="#afafaf" stroke="#000000" stroke-width="0.25"></path><path d="M265.56055,113.49693c0,0 19.96396,8.19129 16.36094,14.25382c-1.5592,2.62352 4.80278,12.44355 1.17774,18.9737c-3.62503,6.53015 -9.62575,-3.75545 -9.62575,-3.75545z" fill="#333333" stroke="#000000" stroke-width="0.25"></path><path d="M284.20538,141.30671c-0.14486,15.09928 -0.27125,31.35254 -0.21171,34.06811c0.01673,0.76301 -6.44896,-3.77734 -6.44896,-3.77734l-3.55187,-28.72161c0,0 3.36504,-1.60089 6.23193,-2.34552c2.13525,-0.5546 3.99415,-0.63421 3.98062,0.77636z" fill="#d89856" stroke="#000000" stroke-width="0.25"></path><path d="M314.19548,110.82519l1.144,-3.31421l7.76636,1.34114l1.49181,4.16931l-0.84969,2.2071c0,0 -0.84398,-3.55469 -2.02397,-4.35812c-1.09323,-0.74436 -4.03273,0.26981 -5.65546,0.15736c-1.12136,-0.0777 -1.87307,-0.2026 -1.87307,-0.2026z" fill="#d89856" stroke="#000000" stroke-width="0.25"></path><path d="M291.31699,90.25849l14.7054,12.01925l10.29183,5.63065l-2.07896,3.18642l-9.603,-3.96197l-19.94993,-9.54574z" fill="#d89856" stroke="#000000" stroke-width="0.25"></path><path d="M289.68751,100.48783c0,0 -7.21591,-3.28554 -7.55498,-7.48304c-0.18564,-2.2981 1.68176,-3.37048 2.87353,-4.12739c0.98503,-0.6256 2.68492,-0.71374 4.23637,-0.59295c3.42854,0.26689 6.72052,5.763 6.72052,5.763z" fill="#afafaf" stroke="#000000" stroke-width="0.25"></path></g></g></svg>