<svg version="1.1" xmlns="http://www.w3.org/2000/svg" xmlns:xlink="http://www.w3.org/1999/xlink" width="104.64559" height="110.14032" viewBox="0,0,104.64559,110.14032"><defs><radialGradient cx="245.10777" cy="144.21927" r="15.70955" gradientUnits="userSpaceOnUse" id="color-1"><stop offset="0" stop-color="#25175c"></stop><stop offset="1" stop-color="#1f1a69"></stop></radialGradient><radialGradient cx="278.68835" cy="162.79539" r="42.31605" gradientUnits="userSpaceOnUse" id="color-2"><stop offset="0" stop-color="#25175c"></stop><stop offset="1" stop-color="#1f1a69"></stop></radialGradient><radialGradient cx="281.25076" cy="158.06149" r="36.41166" gradientUnits="userSpaceOnUse" id="color-3"><stop offset="0" stop-color="#25175c"></stop><stop offset="1" stop-color="#1f1a69"></stop></radialGradient><radialGradient cx="319.32267" cy="138.06249" r="6.58346" gradientUnits="userSpaceOnUse" id="color-4"><stop offset="0" stop-color="#25175c"></stop><stop offset="1" stop-color="#1f1a69"></stop></radialGradient><radialGradient cx="325.27612" cy="145.25717" r="15.41851" gradientUnits="userSpaceOnUse" id="color-5"><stop offset="0" stop-color="#8d8d8d"></stop><stop offset="1" stop-color="#bcbcbc"></stop></radialGradient></defs><g transform="translate(-229.27322,-76.78599)"><g data-paper-data="{&quot;isPaintingLayer&quot;:true}" fill-rule="nonzero" stroke-linecap="butt" stroke-linejoin="miter" stroke-miterlimit="10" stroke-dasharray="" stroke-dashoffset="0" style="mix-blend-mode: normal"><path d="M236.29718,139.73689c0,0 0.81419,-4.37995 2.89556,-4.92245c0.83737,-0.21826 7.63721,1.60014 17.5424,2.34841c5.82443,0.44 36.65382,-0.55198 37.64,-0.24805c1.73966,0.53614 2.89626,2.00092 1.99161,2.16214c-7.53471,1.34273 -29.90452,3.52103 -32.13486,4.55627c-2.45747,1.14067 -3.90155,4.35603 -3.90155,4.35603z" fill="#0e0e0e" stroke="none" stroke-width="0"></path><path d="M266.41098,157.2363c0,0 -5.15175,-2.11496 -5.53544,-3.75631c-0.46808,-2.00236 2.92944,-7.3916 2.92944,-7.3916l22.15103,-2.46123c0,0 5.76414,-1.35944 6.16654,-0.02621c0.51183,1.69579 0.7835,3.90387 -0.20238,5.4016c-3.15134,4.78743 -12.47917,7.65463 -12.47917,7.65463z" fill="#242424" stroke="#000000" stroke-width="0.25"></path><path d="M229.44242,138.46139c1.33777,-2.31608 31.37489,9.49311 31.37489,9.49311l-1.16064,2.32368c0,0 -31.59874,-9.01349 -30.21425,-11.81679z" fill="url(#color-1)" stroke="#000000" stroke-width="0.25"></path><path d="M295.64405,181.9781l21.17887,-43.18862l4.18144,1.99481c0,0 -20.61752,45.27047 -24.36399,45.93941c-3.93797,0.70313 -55.87651,-3.6025 -55.87651,-3.6025c0,0 -5.43688,1.79079 -4.21181,-4.46682c1.00971,-5.15762 7.16094,-2.01634 8.41347,-2.07867c2.31248,-0.11509 2.65873,4.36316 4.81251,4.42643c16.41099,0.4821 45.86602,0.97595 45.86602,0.97595z" fill="url(#color-2)" stroke="#000000" stroke-width="0.25"></path><path d="M263.9498,146.25188l-16.48659,32.41736c0,0 -0.83591,-0.99575 -1.22139,-1.3677c-0.28861,-0.27848 -0.88617,-0.66591 -0.88617,-0.66591c0,0 16.4678,-32.48227 17.70322,-33.69884c2.51804,-1.26473 53.30056,-5.80591 53.30056,-5.80591l1.303,3.61945z" fill="url(#color-3)" stroke="#000000" stroke-width="0.25"></path><path d="M319.20618,144.52006l-4.81357,-11.02334l3.17379,-2.0177l6.68632,13.16692z" fill="url(#color-4)" stroke="#000000" stroke-width="0.25"></path><path d="M331.32876,160.67568l-14.52507,-29.44369l2.87762,-1.39333l14.06727,29.90149z" fill="url(#color-5)" stroke="#000000" stroke-width="0.25"></path><path d="M316.06984,128.43484l-2.68088,-8.26484l3.15702,-1.34981l2.56419,9.03553c0,0 1.06678,2.00815 0.6704,2.79578c-0.83924,1.66765 -3.69946,2.32722 -5.25276,2.87082c-0.7144,0.25001 -1.67153,-1.23493 -1.20876,-3.20538c0.36616,-1.55911 2.75078,-1.88211 2.75078,-1.88211z" fill="#232323" stroke="#000000" stroke-width="0.25"></path><path d="M283.59146,175.73477c-0.24771,-0.20896 12.97879,-25.90607 13.43876,-26.15801c0.22505,-0.12327 8.74793,1.54486 9.01247,1.63966c0.31513,0.11293 3.7824,1.37946 3.89566,1.52424c0.24962,0.31909 -14.01048,28.73074 -14.01048,28.73074c0,0 -11.92476,-5.38937 -12.3364,-5.73662z" fill="#1c1c1c" stroke="#000000" stroke-width="0.25"></path><path d="M291.90616,158.68426c-0.40581,-0.62615 0.89772,-3.15395 1.58963,-3.01398c0.22316,0.04514 16.97736,6.43999 16.97736,6.43999l-1.38545,3.66737c0,0 -17.03523,-6.86763 -17.18154,-7.09338z" fill="#141414" stroke="#000000" stroke-width="0.25"></path><g fill="#ffffff" stroke="none" stroke-width="0"><path d="M293.07606,177.64592l2.69509,-1.99705l0.40543,3.38749l-0.55625,-0.25877l-0.25765,-2.09716l-1.64876,1.21652z"></path><path d="M295.30763,176.89831l0.35017,3.33604l-3.12342,-1.37246l0.50556,-0.34754l1.93707,0.84393l-0.20974,-2.03822z"></path><path d="M294.44858,176.43148l-1.65102,1.21346l1.92622,0.86843l0.08203,0.60798l-3.11456,-1.39245l2.7069,-1.98103z" data-paper-data="{&quot;index&quot;:null}"></path></g><path d="M286.59736,168.73012c-0.40581,-0.62615 0.89772,-3.15394 1.58964,-3.01397c0.22316,0.04514 16.97736,6.43998 16.97736,6.43998l-1.38545,3.66737c0,0 -17.03523,-6.86763 -17.18155,-7.09338z" fill="#141414" stroke="#000000" stroke-width="0.25"></path><path d="M310.8772,158.31016c1.05796,-1.11538 5.25022,-2.91322 5.08197,-2.58229c-0.99784,1.96265 -13.51277,25.94982 -13.51277,25.94982c0,0 -0.81849,-5.24681 -0.47208,-6.14284c0.3102,-0.80235 8.7741,-17.08892 8.90287,-17.22468z" fill="#1e1e1e" stroke="#000000" stroke-width="0.25"></path><path d="M311.97456,117.89525c0,-1.27692 1.03515,-2.31208 2.31208,-2.31208c1.27692,0 2.31208,1.03515 2.31208,2.31208c0,1.27692 -1.03515,2.31208 -2.31208,2.31208c-1.27692,0 -2.31208,-1.03515 -2.31208,-2.31208z" fill="#070707" stroke="#000000" stroke-width="0.25"></path><path d="M256.84558,78.82313c0,0 9.35598,-2.6166 17.93787,-1.72803c7.4448,0.77085 14.1259,4.94396 15.84974,6.30361c0.20447,0.16128 1.54655,9.09822 -3.25368,12.46464c-4.80023,3.36642 -7.39077,0.72443 -15.05268,0.37371c-7.02187,-0.32142 -15.69796,-4.19079 -15.77825,-4.86749c-0.47319,-3.98821 0.29698,-12.54646 0.29698,-12.54646z" fill="#afafaf" stroke="#000000" stroke-width="0.25"></path><path d="M308.71123,115.00737l1.9725,-3.46792l6.30257,1.09728l2.31579,3.29937l-0.81245,3.76789c0,0 -1.67273,-3.37797 -2.94082,-4.0336c-1.17485,-0.60743 -3.3293,-0.77087 -4.95376,-0.68726c-1.12257,0.05778 -1.88384,0.02424 -1.88384,0.02424z" fill="#383838" stroke="#000000" stroke-width="0.25"></path><path d="M284.9316,86.84979l10.61713,15.95219l15.08258,8.94663l-1.83635,3.15656c0,0 -11.03912,-3.45079 -16.72887,-7.10218c-5.64361,-3.62178 -12.5552,-14.71804 -12.5552,-14.71804z" fill="#d89856" stroke="#000000" stroke-width="0.25"></path><path d="M281.57029,97.28629c0,0 -3.08575,-3.34698 -3.389,-7.54723c-0.16603,-2.2996 1.71045,-3.35601 2.90863,-4.10272c0.99033,-0.61717 2.69092,-0.69079 4.24128,-0.55678c3.42615,0.29614 5.23544,7.87106 5.23544,7.87106z" fill="#afafaf" stroke="#000000" stroke-width="0.25"></path><path d="M258.52693,105.88003c-10.27551,11.0645 -21.31451,22.9945 -23.09926,25.04207c-0.50147,0.57532 -2.22355,-7.13535 -2.22355,-7.13535l16.71652,-23.62424c0,0 10.85509,3.29608 8.60629,5.71754z" fill="#d89856" stroke="#000000" stroke-width="0.25"></path><path d="M230.89351,132.28697l2.30754,-9.48659l15.88295,8.62293l-1.2145,4.99292z" fill="#636363" stroke="#000000" stroke-width="0.25"></path><path d="M246.14725,86.90875c2.86988,-8.08191 10.87109,-8.16222 10.87109,-8.16222c0,0 -0.93052,8.57098 1.63284,11.77425c3.48676,4.35719 0.09582,13.87016 0.19975,14.32312c-0.02966,4.85121 -11.6132,-1.89326 -11.6132,-1.89326c0,0 -3.47107,-9.33791 -1.09049,-16.04189z" fill="#333333" stroke="#000000" stroke-width="0.25"></path></g></g></svg>