<svg version="1.1" xmlns="http://www.w3.org/2000/svg" xmlns:xlink="http://www.w3.org/1999/xlink" width="86.45055" height="115.27807" viewBox="0,0,86.45055,115.27807"><g transform="translate(-236.27435,-82.25211)"><g data-paper-data="{&quot;isPaintingLayer&quot;:true}" fill-rule="nonzero" stroke-linecap="butt" stroke-linejoin="miter" stroke-miterlimit="10" stroke-dasharray="" stroke-dashoffset="0" style="mix-blend-mode: normal"><path d="M275.33832,144.13548c3.80411,14.61295 7.92746,30.33497 8.69424,32.94072c0.21544,0.73215 -7.21172,-1.96174 -7.21172,-1.96174l-10.93067,-26.79677c0,0 2.83007,-2.42427 5.40294,-3.89188c1.91626,-1.09307 3.68983,-1.65546 4.04522,-0.29034z" fill="#d89856" stroke="#000000" stroke-width="0.25"></path><path d="M274.96828,142.94362c2.85431,5.0006 -3.25138,7.04599 -3.25138,7.04599c0,0 -13.19091,-8.09782 -18.56684,-12.34557c-4.9317,-3.89675 -7.24202,-9.6948 -7.24202,-9.6948c0,0 15.01643,0.77999 20.03453,5.97273c0.45394,0.46974 6.17141,4.02104 9.02572,9.02165z" fill="#333333" stroke="#000000" stroke-width="0.25"></path><path d="M275.02509,184.42849l0.29868,-9.75864l17.32134,5.157l-0.1572,5.13611z" fill="#636363" stroke="#000000" stroke-width="0.25"></path><path d="M245.08393,132.01115c0,0 0.75117,-13.94128 2.88961,-18.1562c0.16033,-0.31602 3.38612,-5.08834 7.91542,-9.4559c5.567,-5.3682 13.35077,-7.88296 13.35077,-7.88296c0,0 6.72328,4.3551 9.57614,8.29406c1.05153,1.45184 0.51408,5.27723 0.441,5.33138c-5.82542,4.31593 -15.21413,11.70273 -12.89311,18.36223c1.0044,2.88187 -21.27983,3.5074 -21.27983,3.5074z" fill="#afafaf" stroke="#000000" stroke-width="0.25"></path><path d="M287.76559,92.51961c0,0.69346 2.21825,1.68677 2.18147,2.33587c-0.04218,0.74414 -2.4075,0.96797 -2.62375,1.62176c-1.09203,3.30153 -2.07685,5.84704 -6.46662,5.84704c-6.01734,0 -10.25752,-14.90733 -10.25752,-14.90733l10.25752,-5.02093c0,0 6.90891,4.62056 6.90891,10.12359z" fill="#d89856" stroke="#000000" stroke-width="0.25"></path><path d="M319.45801,179.31126c0.36532,7.30696 -5.24036,13.52549 -12.52065,13.88948c-7.28029,0.36399 -13.47828,-5.26439 -13.84361,-12.57135c-0.36532,-7.30696 5.24037,-13.52549 12.52065,-13.88948c7.28029,-0.36399 13.47828,5.2644 13.84361,12.57136z" fill="none" stroke="#000000" stroke-width="6.5"></path><path d="M265.88861,180.3907c0.36532,7.30696 -5.24036,13.52549 -12.52065,13.88948c-7.28029,0.36399 -13.47828,-5.26439 -13.84361,-12.57135c-0.36532,-7.30696 5.24037,-13.52549 12.52065,-13.88948c7.28029,-0.36399 13.47828,5.2644 13.84361,12.57136z" fill="none" stroke="#000000" stroke-width="6.5"></path><path d="M251.96299,180.56562l-0.87037,-1.4619l19.22097,-8.17771l-1.02331,-2.63168c0,0 2.08575,-1.05482 2.18509,-0.84853c0.97523,2.02508 1.18989,2.62482 1.18989,2.62482c0,0 9.99566,-3.60146 10.30208,-3.81755c1.52528,-1.07564 5.10776,-4.72634 5.53111,-5.12906c1.82469,-1.73576 5.7441,-5.06569 5.7441,-5.06569l1.7247,4.65279l-19.70376,23.11829l-23.46165,-1.2646c0,0 -2.68473,-3.28399 0.00502,-3.3614c3.88413,-0.11178 22.44061,1.74248 22.44061,1.74248c0,0 9.44253,-10.93847 10.21253,-11.92546c1.31808,-1.68955 4.52352,-4.58528 5.64517,-6.13154c0.51093,-0.70436 -0.28673,-1.08163 -0.28673,-1.08163l-7.71459,6.98681l-9.40392,3.05455l3.13476,7.82128l-1.39239,1.19381l-4.82024,-8.06737z" fill="#000000" stroke="none" stroke-width="0"></path><path d="M305.65863,181.31196c0,0 -7.55043,-16.38764 -9.05473,-19.50597c-0.48775,-1.01109 -1.12981,-1.60598 -1.12981,-1.60598l-1.72111,-6.08844l2.19833,-0.56287l11.7447,26.798z" fill="#000000" stroke="none" stroke-width="0"></path><path d="M295.49333,144.78884c0,0.95728 -1.33318,1.73331 -2.97773,1.73331c-1.64456,0 -2.97773,-0.77602 -2.97773,-1.73331c0,-0.95728 1.33318,-1.73331 2.97773,-1.73331c1.64456,0 2.97773,0.77602 2.97773,1.73331z" fill="#000000" stroke="none" stroke-width="0"></path><path d="M296.05668,149.65483l-1.9315,-4.10445l1.04623,-1.28767l3.21917,5.39211z" fill="#000000" stroke="none" stroke-width="0"></path><path d="M293.82043,154.2693l-1.4876,-2.71315c0,0 2.65868,-1.41398 3.72389,-1.90125c0.77132,-0.35283 1.9143,-0.67106 1.9143,-0.67106c0,0 0.73708,0.9375 0.68281,1.98884c-0.05361,1.03848 -2.45178,2.37493 -3.61057,2.86427c-0.7304,0.30844 -1.22282,0.43235 -1.22282,0.43235z" fill="#000000" stroke="none" stroke-width="0"></path><path d="M288.88149,129.3439l2.20357,-3.32588l6.21345,1.52299l2.08626,3.4491l-1.06658,3.70397c0,0 -1.43935,-3.48382 -2.65996,-4.22409c-1.13086,-0.68584 -3.26922,-0.99531 -4.89561,-1.02227c-1.12389,-0.01863 -1.88114,-0.10382 -1.88114,-0.10382z" fill="#d89856" stroke="#000000" stroke-width="0.25"></path><path d="M277.50073,105.08409l7.756,19.72487l6.24285,1.45171l-2.80944,3.01601l-6.10774,-1.48498l-13.26088,-17.15534z" fill="#d89856" stroke="#000000" stroke-width="0.25"></path><path d="M271.89096,115.69692c0,0 -4.06854,-4.75908 -3.83647,-8.96387c0.12706,-2.30208 2.1224,-3.11188 3.40564,-3.70056c1.06063,-0.48655 2.75681,-0.34382 4.27764,-0.0142c3.36089,0.72841 4.12124,7.14673 4.12124,7.14673z" fill="#afafaf" stroke="#000000" stroke-width="0.25"></path><path d="M276.18622,149.57208c-5.72169,13.97396 -11.85322,29.02682 -12.80274,31.57167c-0.2668,0.71504 -4.59351,-5.8955 -4.59351,-5.8955l7.32796,-27.99728c0,0 3.71856,-0.24211 6.6575,0.12693c2.18891,0.27486 3.94532,0.88874 3.41081,2.19418z" fill="#d89856" stroke="#000000" stroke-width="0.25"></path><path d="M255.71405,184.32666l2.04628,-9.54636l16.11365,8.18371l-1.07699,5.0244z" fill="#636363" stroke="#000000" stroke-width="0.25"></path><path d="M244.89019,131.77171c0,0 15.69314,-5.2032 21.26206,-2.84413c1.23799,0.52442 -0.09969,4.44624 0.07439,5.717c0.38583,2.81661 10.4549,12.33122 10.53921,12.83564c1.23117,7.36667 -7.53264,7.64426 -7.53264,7.64426z" fill="#333333" stroke="#000000" stroke-width="0.25"></path></g></g></svg>