<svg version="1.1" xmlns="http://www.w3.org/2000/svg" xmlns:xlink="http://www.w3.org/1999/xlink" width="58.01348" height="58.01349" viewBox="0,0,58.01348,58.01349"><defs><radialGradient cx="243.47477" cy="173.11076" r="8.99302" gradientUnits="userSpaceOnUse" id="color-1"><stop offset="0" stop-color="#000000"></stop><stop offset="1" stop-color="#2d2d2d"></stop></radialGradient><radialGradient cx="241.78847" cy="171.62886" r="8.99302" gradientUnits="userSpaceOnUse" id="color-2"><stop offset="0" stop-color="#000000"></stop><stop offset="1" stop-color="#2d2d2d"></stop></radialGradient><radialGradient cx="243.50835" cy="172.09336" r="8.99302" gradientUnits="userSpaceOnUse" id="color-3"><stop offset="0" stop-color="#000000"></stop><stop offset="1" stop-color="#2d2d2d"></stop></radialGradient><radialGradient cx="241.27349" cy="172.30532" r="8.99304" gradientUnits="userSpaceOnUse" id="color-4"><stop offset="0" stop-color="#000000"></stop><stop offset="1" stop-color="#2d2d2d"></stop></radialGradient><radialGradient cx="236.41533" cy="173.57461" r="8.99302" gradientUnits="userSpaceOnUse" id="color-5"><stop offset="0" stop-color="#000000"></stop><stop offset="1" stop-color="#2d2d2d"></stop></radialGradient><radialGradient cx="238.10161" cy="172.09271" r="8.99302" gradientUnits="userSpaceOnUse" id="color-6"><stop offset="0" stop-color="#000000"></stop><stop offset="1" stop-color="#2d2d2d"></stop></radialGradient><radialGradient cx="236.38175" cy="172.55719" r="8.99302" gradientUnits="userSpaceOnUse" id="color-7"><stop offset="0" stop-color="#000000"></stop><stop offset="1" stop-color="#2d2d2d"></stop></radialGradient><radialGradient cx="238.61659" cy="172.76914" r="8.99304" gradientUnits="userSpaceOnUse" id="color-8"><stop offset="0" stop-color="#000000"></stop><stop offset="1" stop-color="#2d2d2d"></stop></radialGradient><radialGradient cx="236.52524" cy="186.88927" r="8.99302" gradientUnits="userSpaceOnUse" id="color-9"><stop offset="0" stop-color="#000000"></stop><stop offset="1" stop-color="#2d2d2d"></stop></radialGradient><radialGradient cx="238.21153" cy="188.37114" r="8.99302" gradientUnits="userSpaceOnUse" id="color-10"><stop offset="0" stop-color="#000000"></stop><stop offset="1" stop-color="#2d2d2d"></stop></radialGradient><radialGradient cx="236.49166" cy="187.90666" r="8.99302" gradientUnits="userSpaceOnUse" id="color-11"><stop offset="0" stop-color="#000000"></stop><stop offset="1" stop-color="#2d2d2d"></stop></radialGradient><radialGradient cx="238.72651" cy="187.69471" r="8.99304" gradientUnits="userSpaceOnUse" id="color-12"><stop offset="0" stop-color="#000000"></stop><stop offset="1" stop-color="#2d2d2d"></stop></radialGradient><radialGradient cx="243.58467" cy="186.42543" r="8.99302" gradientUnits="userSpaceOnUse" id="color-13"><stop offset="0" stop-color="#000000"></stop><stop offset="1" stop-color="#2d2d2d"></stop></radialGradient><radialGradient cx="241.8984" cy="187.90732" r="8.99302" gradientUnits="userSpaceOnUse" id="color-14"><stop offset="0" stop-color="#000000"></stop><stop offset="1" stop-color="#2d2d2d"></stop></radialGradient><radialGradient cx="243.61826" cy="187.44282" r="8.99302" gradientUnits="userSpaceOnUse" id="color-15"><stop offset="0" stop-color="#000000"></stop><stop offset="1" stop-color="#2d2d2d"></stop></radialGradient><radialGradient cx="241.38341" cy="187.23088" r="8.99303" gradientUnits="userSpaceOnUse" id="color-16"><stop offset="0" stop-color="#000000"></stop><stop offset="1" stop-color="#2d2d2d"></stop></radialGradient><radialGradient cx="247.15789" cy="183.39428" r="8.99302" gradientUnits="userSpaceOnUse" id="color-17"><stop offset="0" stop-color="#000000"></stop><stop offset="1" stop-color="#2d2d2d"></stop></radialGradient><radialGradient cx="248.63884" cy="181.70714" r="8.99303" gradientUnits="userSpaceOnUse" id="color-18"><stop offset="0" stop-color="#000000"></stop><stop offset="1" stop-color="#2d2d2d"></stop></radialGradient><radialGradient cx="248.1753" cy="183.4273" r="8.99302" gradientUnits="userSpaceOnUse" id="color-19"><stop offset="0" stop-color="#000000"></stop><stop offset="1" stop-color="#2d2d2d"></stop></radialGradient><radialGradient cx="247.96211" cy="181.19256" r="8.99304" gradientUnits="userSpaceOnUse" id="color-20"><stop offset="0" stop-color="#000000"></stop><stop offset="1" stop-color="#2d2d2d"></stop></radialGradient><radialGradient cx="246.69009" cy="176.3351" r="8.99302" gradientUnits="userSpaceOnUse" id="color-21"><stop offset="0" stop-color="#000000"></stop><stop offset="1" stop-color="#2d2d2d"></stop></radialGradient><radialGradient cx="248.17293" cy="178.02056" r="8.99303" gradientUnits="userSpaceOnUse" id="color-22"><stop offset="0" stop-color="#000000"></stop><stop offset="1" stop-color="#2d2d2d"></stop></radialGradient><radialGradient cx="247.70746" cy="176.30096" r="8.99302" gradientUnits="userSpaceOnUse" id="color-23"><stop offset="0" stop-color="#000000"></stop><stop offset="1" stop-color="#2d2d2d"></stop></radialGradient><radialGradient cx="247.49677" cy="178.53591" r="8.99304" gradientUnits="userSpaceOnUse" id="color-24"><stop offset="0" stop-color="#000000"></stop><stop offset="1" stop-color="#2d2d2d"></stop></radialGradient><radialGradient cx="232.84211" cy="176.60574" r="8.99301" gradientUnits="userSpaceOnUse" id="color-25"><stop offset="0" stop-color="#000000"></stop><stop offset="1" stop-color="#2d2d2d"></stop></radialGradient><radialGradient cx="231.36117" cy="178.29285" r="8.99302" gradientUnits="userSpaceOnUse" id="color-26"><stop offset="0" stop-color="#000000"></stop><stop offset="1" stop-color="#2d2d2d"></stop></radialGradient><radialGradient cx="231.8247" cy="176.57274" r="8.99302" gradientUnits="userSpaceOnUse" id="color-27"><stop offset="0" stop-color="#000000"></stop><stop offset="1" stop-color="#2d2d2d"></stop></radialGradient><radialGradient cx="232.03791" cy="178.80747" r="8.99304" gradientUnits="userSpaceOnUse" id="color-28"><stop offset="0" stop-color="#000000"></stop><stop offset="1" stop-color="#2d2d2d"></stop></radialGradient><radialGradient cx="233.30992" cy="183.66493" r="8.99302" gradientUnits="userSpaceOnUse" id="color-29"><stop offset="0" stop-color="#000000"></stop><stop offset="1" stop-color="#2d2d2d"></stop></radialGradient><radialGradient cx="231.82709" cy="181.97948" r="8.99302" gradientUnits="userSpaceOnUse" id="color-30"><stop offset="0" stop-color="#000000"></stop><stop offset="1" stop-color="#2d2d2d"></stop></radialGradient><radialGradient cx="232.29255" cy="183.69907" r="8.99302" gradientUnits="userSpaceOnUse" id="color-31"><stop offset="0" stop-color="#000000"></stop><stop offset="1" stop-color="#2d2d2d"></stop></radialGradient><radialGradient cx="232.50325" cy="181.46411" r="8.99304" gradientUnits="userSpaceOnUse" id="color-32"><stop offset="0" stop-color="#000000"></stop><stop offset="1" stop-color="#2d2d2d"></stop></radialGradient><radialGradient cx="240" cy="180" r="2.6671" gradientUnits="userSpaceOnUse" id="color-33"><stop offset="0" stop-color="#2a2a2a"></stop><stop offset="1" stop-color="#191919"></stop></radialGradient><radialGradient cx="240" cy="180" r="21.99356" gradientUnits="userSpaceOnUse" id="color-34"><stop offset="0" stop-color="#ffffff"></stop><stop offset="1" stop-color="#000000"></stop></radialGradient></defs><g transform="translate(-210.99326,-150.99325)"><g data-paper-data="{&quot;isPaintingLayer&quot;:true}" fill-rule="nonzero" stroke-linejoin="miter" stroke-miterlimit="10" stroke-dasharray="" stroke-dashoffset="0" style="mix-blend-mode: normal"><g fill="none" stroke-width="0.35" stroke-linecap="round"><g><g><path d="M253.67367,165.77381l-17.73868,12.94201" stroke="url(#color-1)"></path><path d="M235.49326,178.60273l14.85871,-16.16711" stroke="url(#color-2)"></path><path d="M242.42108,181.42517l2.73636,-21.7869" stroke="url(#color-3)"></path><path d="M242.03594,181.66924l-1.58591,-21.90074" stroke="url(#color-4)"></path></g><g data-paper-data="{&quot;index&quot;:null}"><path d="M226.21642,166.23764l17.73867,12.94202" stroke="url(#color-5)"></path><path d="M244.39682,179.06657l-14.85871,-16.16711" stroke="url(#color-6)"></path><path d="M237.46902,181.889l-2.73637,-21.7869" stroke="url(#color-7)"></path><path d="M237.85417,182.13305l1.58591,-21.90074" stroke="url(#color-8)"></path></g></g><g data-paper-data="{&quot;index&quot;:null}"><g><path d="M226.32633,194.2262l17.73868,-12.94201" stroke="url(#color-9)"></path><path d="M244.50673,181.39728l-14.85871,16.16711" stroke="url(#color-10)"></path><path d="M234.84256,200.36174l2.73637,-21.7869" stroke="url(#color-11)"></path><path d="M239.55,200.23154l-1.58591,-21.90074" stroke="url(#color-12)"></path></g><g data-paper-data="{&quot;index&quot;:null}"><path d="M253.78359,193.76236l-17.73868,-12.94202" stroke="url(#color-13)"></path><path d="M235.60318,180.93344l14.85872,16.16711" stroke="url(#color-14)"></path><path d="M242.53099,178.11099l2.73637,21.7869" stroke="url(#color-15)"></path><path d="M240.55993,199.76769l1.58591,-21.90074" stroke="url(#color-16)"></path></g></g><g data-paper-data="{&quot;index&quot;:null}"><g><path d="M241.54858,175.85766l12.95198,17.73139" stroke="url(#color-17)"></path><path d="M257.8369,190.26548l-16.17547,-14.84962" stroke="url(#color-18)"></path><path d="M238.84288,182.34527l21.78844,2.72412" stroke="url(#color-19)"></path><path d="M238.59862,181.96024l21.89985,-1.59822" stroke="url(#color-20)"></path></g><g data-paper-data="{&quot;index&quot;:null}"><path d="M254.0213,166.13205l-12.93204,17.74595" stroke="url(#color-21)"></path><path d="M241.2026,184.31969l16.15877,-14.86779" stroke="url(#color-22)"></path><path d="M238.37626,177.39346l21.78536,-2.7486" stroke="url(#color-23)"></path><path d="M260.03405,179.35235l-21.90162,-1.5736" stroke="url(#color-24)"></path></g></g><g><g><path d="M225.49943,166.41094l12.95198,17.73141" stroke="url(#color-25)"></path><path d="M222.16311,169.73454l16.17546,14.84961" stroke="url(#color-26)"></path><path d="M219.36868,174.93064l21.78844,2.72412" stroke="url(#color-27)"></path><path d="M241.40139,178.03978l-21.89984,1.59822" stroke="url(#color-28)"></path></g><g data-paper-data="{&quot;index&quot;:null}"><path d="M238.91076,176.122l-12.93206,17.74596" stroke="url(#color-29)"></path><path d="M238.79742,175.68033l-16.15877,14.86779" stroke="url(#color-30)"></path><path d="M241.62374,182.60657l-21.78536,2.7486" stroke="url(#color-31)"></path><path d="M219.96596,180.64767l21.90162,1.57361" stroke="url(#color-32)"></path></g></g></g><path d="M237.33289,180c0,-1.47299 1.19411,-2.6671 2.66711,-2.6671c1.473,0 2.66711,1.19411 2.66711,2.6671c0,1.47299 -1.19411,2.6671 -2.66711,2.6671c-1.473,0 -2.66711,-1.19411 -2.66711,-2.6671z" fill="url(#color-33)" stroke="#000000" stroke-width="0.25" stroke-linecap="butt"></path><path d="M215.24326,180c0,-13.67277 11.08397,-24.75674 24.75674,-24.75674c13.67277,0 24.75674,11.08397 24.75674,24.75674c0,13.67277 -11.08397,24.75675 -24.75674,24.75675c-13.67277,0 -24.75674,-11.08397 -24.75674,-24.75675z" fill="none" stroke="#000000" stroke-width="8.5" stroke-linecap="butt"></path><path d="M218.00644,180c0,-12.1467 9.84685,-21.99356 21.99356,-21.99356c12.1467,0 21.99356,9.84685 21.99356,21.99356c0,12.1467 -9.84685,21.99356 -21.99356,21.99356c-12.1467,0 -21.99356,-9.84685 -21.99356,-21.99356z" fill="none" stroke="url(#color-34)" stroke-width="5.5" stroke-linecap="butt"></path></g></g></svg>