<svg version="1.1" xmlns="http://www.w3.org/2000/svg" xmlns:xlink="http://www.w3.org/1999/xlink" width="178.19028" height="110.45655" viewBox="0,0,178.19028,110.45655"><defs><linearGradient x1="283.71083" y1="152.1529" x2="308.51083" y2="152.1529" gradientUnits="userSpaceOnUse" id="color-1"><stop offset="0" stop-color="#9c9c9c"></stop><stop offset="1" stop-color="#bdbdbd"></stop></linearGradient></defs><g transform="translate(-173.72567,-91.49812)"><g data-paper-data="{&quot;isPaintingLayer&quot;:true}" fill-rule="nonzero" stroke-linejoin="miter" stroke-miterlimit="10" stroke-dasharray="" stroke-dashoffset="0" style="mix-blend-mode: normal"><path d="M299.71083,155.7529c0,0 3.42747,8.45204 -0.28175,11.67405c-4.59032,3.98739 -11.51825,-1.47405 -11.51825,-1.47405" fill="none" stroke="#000000" stroke-width="0.5" stroke-linecap="round"></path><path d="M304.36798,148.08333c0,0 -7.58174,1.55762 -11.33092,1.50249c-3.80554,-0.05596 -11.33575,-1.83582 -11.33575,-1.83582" fill="none" stroke="#000000" stroke-width="0.5" stroke-linecap="round"></path><path d="M309.36798,118.41667c0,0 1.79642,-1.25201 3.72737,-0.42057c2.22373,0.95751 4.68025,4.35195 5.67376,10.22301c0.39112,2.31127 1.41293,7.39256 0.78308,11.84311c-0.73799,5.21471 -3.1842,9.68777 -3.1842,9.68777" fill="none" stroke="#000000" stroke-width="0.5" stroke-linecap="round"></path><path d="M323.94408,185.71875c0,-6.48157 5.25435,-11.73594 11.73593,-11.73594c6.48157,0 11.73593,5.25436 11.73593,11.73594c0,6.48157 -5.25436,11.73592 -11.73593,11.73592c-6.48157,0 -11.73593,-5.25435 -11.73593,-11.73592z" fill="#ffffff" stroke="#000000" stroke-width="9" stroke-linecap="butt"></path><path d="M228.11078,184.71875c0,-6.48157 5.25436,-11.73594 11.73593,-11.73594c6.48157,0 11.73593,5.25436 11.73593,11.73594c0,6.48157 -5.25436,11.73592 -11.73593,11.73592c-6.48157,0 -11.73593,-5.25435 -11.73593,-11.73592z" fill="#ffffff" stroke="#000000" stroke-width="9" stroke-linecap="butt"></path><path d="M278.34647,171.52742l1.63187,-1.99451l6.34615,0.18132c0,0 -1.61704,1.78509 -3.01651,2.10315c-1.2407,0.28197 -4.96151,-0.28996 -4.96151,-0.28996z" fill="#5f5f5f" stroke="none" stroke-width="0" stroke-linecap="butt"></path><path d="M308.7013,115.75c0,0 12.30329,12.64443 12.68859,21.29603c0.21414,4.80842 -6.68859,9.0373 -6.68859,9.0373" fill="none" stroke="#000000" stroke-width="0.5" stroke-linecap="round"></path><path d="M242.25142,146.06765c0,0 -1.02943,-8.77549 -0.39364,-9.05587c3.68983,-1.62725 14.89627,0.97524 17.31933,1.08726c14.58842,0.67446 14.31167,0.3993 14.31167,0.3993c0,0 2.19491,3.7632 2.25313,4.1221c-0.29397,2.29775 -1.5453,3.75123 -1.5453,3.75123z" fill="#1d1d1d" stroke="none" stroke-width="0" stroke-linecap="butt"></path><path d="M334.24568,187.35526l-22.54083,-41.84839l2.23821,-1.29216l24.68663,43.28578z" fill="#45454c" stroke="none" stroke-width="0" stroke-linecap="butt"></path><path d="M278.36641,178.23527c0,4.47629 -3.59015,8.10505 -8.01883,8.10505c-4.42868,0 -8.01883,-3.62876 -8.01883,-8.10505c0,-4.47629 3.59015,-8.10506 8.01883,-8.10506c4.42868,0 8.01883,3.62876 8.01883,8.10506z" fill="#4a4a4a" stroke="none" stroke-width="0" stroke-linecap="butt"></path><path d="M310.69316,144.63258l-2.4589,-24.05493c0,0 0.16229,-2.4486 -0.90604,-3.83527c-1.06769,-1.38583 -3.69947,0.45706 -3.2906,0.03705c0.44716,-0.45934 -1.30253,-4.70212 -0.50679,-4.68501c0.39766,0.00855 1.68201,-0.56727 2.68008,-0.02886c1.28387,0.69258 2.31226,2.57419 2.6742,3.00334c1.51656,1.79817 1.80646,5.26073 1.80646,5.26073l2.62556,22.88827c0,0 0.94372,1.30295 0.84183,2.04909c-0.13526,0.99053 -1.35089,1.50799 -1.62192,1.65412c-0.37607,0.20275 -1.84387,-2.28851 -1.84387,-2.28851z" fill="#45454c" stroke="none" stroke-width="0" stroke-linecap="butt"></path><path d="M233.46098,177.59251v-4.08231h37.76142c0,0 2.27354,2.0086 2.24756,2.76218c-0.00514,0.149 2.00361,3.4399 -0.64303,3.62748c-0.27387,0.01941 -25.16657,8.14884 -25.16657,8.14884c0,0 -4.48311,-1.35986 -3.40046,-2.13318c0.85915,-0.61369 26.81671,-8.17719 26.81671,-8.17719c0,0 -0.12908,-1.75628 -1.89644,-1.76313c-1.23318,-0.00477 -22.76617,0.60649 -18.00595,0.30044c1.24416,-0.07999 0.93222,7.71356 0.93222,7.71356l-4.63805,0.82155c0,0 -0.52773,-7.44723 -2.48432,-8.10817c-5.66527,-1.91375 -11.52309,0.88995 -11.52309,0.88995z" fill="#000000" stroke="none" stroke-width="0" stroke-linecap="butt"></path><path d="M229.88095,177.95257l5.98118,-26.9509c0,0 0.92957,-1.77113 1.44511,-2.34627c0.31763,-0.35435 1.35332,-0.77566 1.35332,-0.77566l4.95379,0.39686c0,0 -3.17657,0.65411 -4.23578,1.32647c-0.92791,0.58902 -1.77785,2.49086 -1.77785,2.49086l-4.46032,25.57612l5.28714,0.19597l11.32325,9.17518l44.27996,0.01171c0,0 4.29746,-6.18574 5.55628,-8.7717c1.67212,-3.43503 13.66814,-23.15924 13.66814,-23.15924c0,0 0.00788,-2.0704 -0.72075,-3.62717c-0.91367,-1.95211 -2.27049,-2.8115 -2.24253,-2.77879c0.28958,0.33884 -11.30616,0.05692 -11.13979,-0.52746c0.10242,-0.35974 0.55361,-1.98155 0.55361,-1.98155c0,0 12.62101,0.67032 12.97586,0.98046c0.82727,0.72304 2.96535,5.51359 3.29039,6.41842c0.52042,1.4487 0.20748,3.18182 0.20748,3.18182c0,0 -15.85345,28.58626 -15.83344,28.71548c0.03766,0.24303 -0.94453,2.48735 -2.61965,3.68225c-1.70932,1.2193 -4.11265,1.38715 -4.11265,1.38715c0,0 -56.00134,-0.21256 -57.95716,-0.8325c-1.58012,-0.50086 -1.90723,-1.47335 -1.90723,-1.47335l-3.94789,0.0406z" fill="#45454c" stroke="none" stroke-width="0" stroke-linecap="butt"></path><path d="M240.14735,146.07479l63.20673,0.28937l1.66667,1.6823c0,0 -65.39483,0.868 -67.04006,0.34432z" fill="#45454c" stroke="none" stroke-width="0" stroke-linecap="butt"></path><path d="M305.77627,114.53532c0,1.57017 -1.59926,2.84304 -3.57203,2.84304c-1.97278,0 -3.57203,-1.27287 -3.57203,-2.84304c0,-1.57017 1.59925,-2.84304 3.57203,-2.84304c1.97278,0 3.57203,1.27286 3.57203,2.84304z" fill="#000000" stroke="none" stroke-width="0" stroke-linecap="butt"></path><path d="M273.26955,180.23071l0.54395,-8.52197c0,0 8.92835,-1.11017 14.14285,1.26923c1.43227,0.65355 0,9.06593 0,9.06593c0,0 -4.75019,5.3495 -5.23613,5.26543c-0.45315,-0.0784 -1.8999,0.04234 -2.93446,-0.33932c-1.27085,-0.46884 -2.5592,-2.05517 -3.6385,-2.9018c-2.0955,-1.64376 -2.87772,-3.8375 -2.87772,-3.8375z" fill="#484848" stroke="none" stroke-width="0" stroke-linecap="butt"></path><path d="M277.07723,179.68675c0,-4.20586 3.40952,-7.61538 7.61538,-7.61538c4.20586,0 7.61539,3.40952 7.61539,7.61538c0,4.20586 -3.40953,7.61538 -7.61539,7.61538c-4.20586,0 -7.61538,-3.40952 -7.61538,-7.61538z" fill="#000000" stroke="none" stroke-width="0" stroke-linecap="butt"></path><path d="M278.89042,171.70873c0,0 -0.65044,-1.74294 -0.54396,-5.62087c0.08922,-3.24935 1.63187,-3.62638 1.63187,-3.62638h12.14834c0,0 1.41524,0.54694 1.26923,4.17033c-0.13416,3.32934 -1.26923,3.62637 -1.26923,3.62637c0,0 -2.21113,2.26098 -3.71741,2.58962c-2.42286,0.52862 -4.74893,-0.77644 -6.0738,-0.77644c-1.05419,0 -3.44505,-0.36264 -3.44505,-0.36264z" fill="#000000" stroke="none" stroke-width="0" stroke-linecap="butt"></path><path d="M265.29152,176.78566l-1.45055,-10.51648c0,0 0.7765,-2.54968 2.17817,-3.25797c3.56637,-1.80218 7.61304,-0.73104 7.61304,-0.73104c0,0 2.41781,2.02095 2.70675,2.90536c0.44912,1.3747 -0.27368,4.54194 -0.27368,4.54194l-1.91772,1.33258c0,0 -0.46172,7.95232 -0.7207,10.05192c-0.14479,1.17382 -1.60784,0.56929 -1.60784,0.56929z" fill="#000000" stroke="none" stroke-width="0" stroke-linecap="butt"></path><text transform="translate(278.4232,182.2263) scale(0.19246,0.1856)" font-size="40" xml:space="preserve" fill="#a50000" fill-rule="nonzero" stroke="none" stroke-width="1" stroke-linecap="butt" stroke-linejoin="miter" stroke-miterlimit="10" stroke-dasharray="" stroke-dashoffset="0" font-family="Sans Serif" font-weight="normal" text-anchor="start" style="mix-blend-mode: normal"><tspan x="0" dy="0">212</tspan></text><path d="M283.71083,156.1529c-2.75988,-1.26301 -1.51926,-8.13329 0.2,-8c0.96931,0.07515 23.20885,-0.39661 24.6,0c3.42647,0.97688 0,8 0,8c0,0 -23.47317,0.6072 -24.8,0z" fill="url(#color-1)" stroke="none" stroke-width="0" stroke-linecap="butt"></path><path d="M173.72567,151.58237v-0.54396h0.36264v0.54396z" fill="#000000" stroke="none" stroke-width="0" stroke-linecap="butt"></path><path d="M294.49852,116.73651l-0.2846,-3.81813l4.74969,-4.28567l4.02545,0.21089l2.65586,3.17816c0,0 -3.89371,-0.77829 -5.19172,-0.1841c-1.20258,0.5505 -2.64692,1.94312 -3.58264,3.27366c-0.6466,0.91944 -1.14237,1.49814 -1.14237,1.49814z" data-paper-data="{&quot;index&quot;:null}" fill="#383838" stroke="#000000" stroke-width="0.25" stroke-linecap="butt"></path><path d="M261.80825,100.72017l32.45778,11.99336l-0.07541,4.04828l-16.55469,-4.2336l-21.77331,-5.33777z" data-paper-data="{&quot;index&quot;:null}" fill="#d89856" stroke="#000000" stroke-width="0.25" stroke-linecap="butt"></path><path d="M262.64061,110.34428c0,0 -8.19854,-1.11238 -9.38474,-5.15305c-0.64944,-2.21222 0.96065,-3.64219 1.97345,-4.62579c0.83711,-0.81296 2.48349,-1.24518 4.02704,-1.44267c3.41111,-0.43641 8.81478,2.67738 8.81478,2.67738z" data-paper-data="{&quot;index&quot;:null}" fill="#afafaf" stroke="#000000" stroke-width="0.25" stroke-linecap="butt"></path><path d="M267.52977,187.51802l2.83727,-9.34184l15.373,9.50231l-1.4933,4.91675z" fill="#636363" stroke="#000000" stroke-width="0.25" stroke-linecap="butt"></path><path d="M204.13581,105.52157c0,0 -0.38952,-0.65495 -0.86938,-1.67142c-0.34335,-0.72729 0.1379,-3.75389 0.06926,-6.44624c-0.07018,-2.75288 0.23484,-5.46838 0.77154,-5.35234c0.47698,0.10313 0.91674,2.29772 1.55299,4.66734c0.66356,2.47136 0.59868,5.42485 0.59868,5.42485l-0.93328,3.71324z" data-paper-data="{&quot;index&quot;:null}" fill="#383838" stroke="#000000" stroke-width="0.25" stroke-linecap="butt"></path><path d="M241.44812,95.68627l7.90697,-4.05107c0,0 12.0163,4.76412 12.02159,4.84136c0.17987,2.62707 0.67311,8.11999 0.19148,13.44596c-0.84444,9.33798 -2.46186,19.27469 1.90678,20.31563c2.96877,0.70739 -20.05202,3.29898 -20.05202,3.29898c0,0 -4.64259,-16.64263 -4.38036,-23.62992c0.02049,-0.5459 2.40556,-14.22094 2.40556,-14.22094z" fill="#afafaf" stroke="#000000" stroke-width="0.25" stroke-linecap="butt"></path><path d="M244.87116,102.89184l-22.36536,1.53614l-17.03479,1.34056l0.61791,-4.00155l34.03051,-6.26679z" data-paper-data="{&quot;index&quot;:null}" fill="#d89856" stroke="#000000" stroke-width="0.25" stroke-linecap="butt"></path><path d="M233.64091,95.47349c0,0 5.85652,-2.14397 9.14278,-1.13071c1.48705,0.45851 3.0353,1.16588 3.72107,2.11c0.8297,1.1423 2.17156,2.82651 1.15341,4.8951c-1.85964,3.77834 -10.12764,3.47247 -10.12764,3.47247z" data-paper-data="{&quot;index&quot;:null}" fill="#afafaf" stroke="#000000" stroke-width="0.25" stroke-linecap="butt"></path><path d="M277.01266,147.89371c-0.14486,15.09928 -0.27125,31.35254 -0.21171,34.06811c0.01673,0.76301 -6.44896,-3.77734 -6.44896,-3.77734l-3.55187,-28.72161c0,0 10.24426,-4.87362 10.21255,-1.56915z" fill="#d89856" stroke="#000000" stroke-width="0.25" stroke-linecap="butt"></path><path d="M242.75738,132.71591c0,0 19.61211,-9.11089 20.5362,-2.11931c0.39988,3.02557 12.61258,9.98134 13.80889,17.35375c1.19632,7.37242 -9.88409,3.01049 -9.88409,3.01049c0,0 -17.89836,-11.76595 -22.11649,-14.91216c-1.91039,-1.42492 -2.3445,-3.33277 -2.3445,-3.33277z" fill="#333333" stroke="#000000" stroke-width="0.25" stroke-linecap="butt"></path></g></g></svg>