<svg version="1.1" xmlns="http://www.w3.org/2000/svg" xmlns:xlink="http://www.w3.org/1999/xlink" width="35.03684" height="32.08368" viewBox="0,0,35.03684,32.08368"><defs><linearGradient x1="246.71506" y1="167.98554" x2="252.13307" y2="167.98554" gradientUnits="userSpaceOnUse" id="color-1"><stop offset="0" stop-color="#d07e7e"></stop><stop offset="1" stop-color="#822121"></stop></linearGradient></defs><g transform="translate(-221.96174,-150.78686)"><g data-paper-data="{&quot;isPaintingLayer&quot;:true}" fill-rule="nonzero" stroke="#000000" stroke-linecap="butt" stroke-linejoin="miter" stroke-miterlimit="10" stroke-dasharray="" stroke-dashoffset="0" style="mix-blend-mode: normal"><g><path d="M232.98672,176.17366c0,0 -0.5533,-0.05867 -0.9621,-0.43265c-0.49952,-0.45698 -0.21927,-0.95241 -0.21927,-0.95241h16.70213c0,0 1.12196,4.17742 0.27486,4.68234c-0.43561,0.25965 -1.41549,0.20609 -1.41549,0.20609c0,0 -4.93776,-1.31733 -7.288,-1.88991c-2.43978,-0.59439 -7.09212,-1.61346 -7.09212,-1.61346z" fill="#232323" stroke-width="0.5"></path><path d="M225.04303,162.73048l-2.72937,-2.68863c0,0 1.63708,-1.69267 6.77087,-4.3013c3.33949,-1.6969 5.59202,-4.72135 13.23227,-4.7036c8.92451,0.02074 11.81239,9.98258 11.81239,9.98258l-8.10664,3.13674c0,0 -0.91899,1.41181 -0.73427,2.96489c0.11883,0.99917 1.52912,2.92625 1.91632,3.30791c0.03597,0.03545 2.37128,1.29219 4.67293,1.97908c2.1066,0.62868 4.19823,0.69405 4.19823,0.69405c0,0 -0.02948,4.29376 -0.25375,4.60787c-0.11586,0.16227 -1.101,0.96222 -1.81638,1.966c-0.44952,0.63073 -0.71857,1.61312 -0.82961,1.72095c-0.72686,0.70582 -1.45008,1.15767 -1.45008,1.15767c0,0 -2.9868,-2.90319 -4.76892,-4.11526c-2.07179,-1.40908 -6.9242,-3.51163 -6.9242,-3.51163c0,0 -8.09396,0.61943 -8.14203,0.60573c-0.33561,-0.09562 -1.97556,-0.61873 -3.23001,-1.71361c-1.34673,-1.17541 -2.35399,-2.7681 -2.35399,-2.7681l-0.28634,0.01961c0,0 -0.19124,-0.55325 0.182,-1.0345c0.36971,-0.47669 1.304,-0.87967 1.28816,-1.24389c-0.05053,-1.16174 -1.74412,-4.01977 -1.74412,-4.01977c0,0 0.04476,-0.13634 -0.2946,-0.67634c-0.48463,-0.77117 -0.40884,-1.36645 -0.40884,-1.36645z" fill="#232323" stroke-width="0.5"></path><path d="M226.45712,169.76592l-0.68152,-5.13521l0.37143,0.11475l1.8815,4.80013z" fill="#232323" stroke-width="0.5"></path><path d="M247.5298,170.42975c-0.77948,-0.97313 -1.45136,-1.96898 -1.71619,-2.80707c-0.45062,-1.42606 -0.10872,-2.83919 0.08671,-3.09978c0.52538,-0.70053 7.51742,-3.45392 8.43254,-3.05527c0.52189,0.22735 1.548,11.56928 1.548,11.56928c0,0 -7.52653,-1.57778 -8.35107,-2.60716z" fill="url(#color-1)" stroke-width="2"></path></g></g></g></svg>