<svg version="1.1" xmlns="http://www.w3.org/2000/svg" xmlns:xlink="http://www.w3.org/1999/xlink" width="47.46767" height="47.46766" viewBox="0,0,47.46767,47.46766"><g transform="translate(-339.22916,-156.1461)"><g data-paper-data="{&quot;isPaintingLayer&quot;:true}" fill-rule="nonzero" stroke="#000000" stroke-linecap="butt" stroke-linejoin="miter" stroke-miterlimit="10" stroke-dasharray="" stroke-dashoffset="0" style="mix-blend-mode: normal"><g><path d="M345.22916,179.87993c0,-9.79413 7.9397,-17.73383 17.73383,-17.73383c9.79413,0 17.73384,7.9397 17.73384,17.73383c0,9.79413 -7.93971,17.73383 -17.73384,17.73383c-9.79412,0 -17.73383,-7.9397 -17.73383,-17.73383z" fill="#6b6b6b" stroke-width="12"></path><g fill="#7d7d7d" stroke-width="0.1"><path d="M354.2795,176.81428c0,-1.32316 1.07264,-2.39578 2.3958,-2.39578c1.32317,0 2.3958,1.07264 2.3958,2.39578c0,1.32316 -1.07264,2.3958 -2.3958,2.3958c-1.32317,0 -2.3958,-1.07264 -2.3958,-2.3958z"></path><path d="M360.59568,173.3295c0,-1.32316 1.07264,-2.3958 2.3958,-2.3958c1.32316,0 2.3958,1.07264 2.3958,2.3958c0,1.32316 -1.07264,2.3958 -2.3958,2.3958c-1.32317,0 -2.3958,-1.07264 -2.3958,-2.3958z"></path><path d="M367.12966,176.37868c0,-1.32316 1.07264,-2.39578 2.3958,-2.39578c1.32316,0 2.3958,1.07264 2.3958,2.39578c0,1.32316 -1.07262,2.3958 -2.3958,2.3958c-1.32317,0 -2.3958,-1.07264 -2.3958,-2.3958z"></path></g><g data-paper-data="{&quot;index&quot;:null}" fill="#7d7d7d" stroke-width="0.1"><path d="M356.40054,180.54977c1.32317,0 2.3958,1.07264 2.3958,2.3958c0,1.32316 -1.07264,2.3958 -2.3958,2.3958c-1.32317,0 -2.3958,-1.07262 -2.3958,-2.3958c0,-1.32316 1.07262,-2.3958 2.3958,-2.3958z"></path><path d="M362.71673,184.03457c1.32317,0 2.3958,1.07264 2.3958,2.3958c0,1.32316 -1.07264,2.3958 -2.3958,2.3958c-1.32317,0 -2.3958,-1.07264 -2.3958,-2.3958c0,-1.32316 1.07264,-2.3958 2.3958,-2.3958z"></path><path d="M369.25072,180.98538c1.32317,0 2.3958,1.07264 2.3958,2.3958c0,1.32316 -1.07264,2.3958 -2.3958,2.3958c-1.32317,0 -2.3958,-1.07264 -2.3958,-2.3958c0,-1.32316 1.07264,-2.3958 2.3958,-2.3958z"></path></g></g></g></g></svg>