<svg version="1.1" xmlns="http://www.w3.org/2000/svg" xmlns:xlink="http://www.w3.org/1999/xlink" width="158.3535" height="123.52263" viewBox="0,0,158.3535,123.52263"><defs><radialGradient cx="338.86343" cy="118.66407" r="3.37598" gradientUnits="userSpaceOnUse" id="color-1"><stop offset="0" stop-color="#000000" stop-opacity="0.41129"></stop><stop offset="1" stop-color="#000000"></stop></radialGradient><radialGradient cx="338.86343" cy="118.66407" r="3.37598" gradientUnits="userSpaceOnUse" id="color-2"><stop offset="0" stop-color="#000000" stop-opacity="0"></stop><stop offset="1" stop-color="#000000" stop-opacity="0"></stop></radialGradient><radialGradient cx="322.47885" cy="111.86094" r="6.15098" gradientUnits="userSpaceOnUse" id="color-3"><stop offset="0" stop-color="#000000"></stop><stop offset="1" stop-color="#333333"></stop></radialGradient><radialGradient cx="285.94504" cy="146.76184" r="9.9091" gradientUnits="userSpaceOnUse" id="color-4"><stop offset="0" stop-color="#36ebff"></stop><stop offset="1" stop-color="#00bac4"></stop></radialGradient><radialGradient cx="304.16442" cy="170.23074" r="1.33747" gradientUnits="userSpaceOnUse" id="color-5"><stop offset="0" stop-color="#c7c7c7"></stop><stop offset="1" stop-color="#9d9d9d"></stop></radialGradient><radialGradient cx="302.95674" cy="164.59824" r="1.5379" gradientUnits="userSpaceOnUse" id="color-6"><stop offset="0" stop-color="#c7c7c7"></stop><stop offset="1" stop-color="#9d9d9d"></stop></radialGradient><radialGradient cx="304.00485" cy="167.17757" r="1.33747" gradientUnits="userSpaceOnUse" id="color-7"><stop offset="0" stop-color="#c7c7c7"></stop><stop offset="1" stop-color="#9d9d9d"></stop></radialGradient><radialGradient cx="303.54977" cy="172.77727" r="1.5379" gradientUnits="userSpaceOnUse" id="color-8"><stop offset="0" stop-color="#c7c7c7"></stop><stop offset="1" stop-color="#9d9d9d"></stop></radialGradient><radialGradient cx="296.14492" cy="169.29468" r="6.97898" gradientUnits="userSpaceOnUse" id="color-9"><stop offset="0" stop-color="#797979"></stop><stop offset="1" stop-color="#696969"></stop></radialGradient><radialGradient cx="308.18311" cy="150.44334" r="29.1982" gradientUnits="userSpaceOnUse" id="color-10"><stop offset="0" stop-color="#36ebff"></stop><stop offset="1" stop-color="#00bac4"></stop></radialGradient><radialGradient cx="329.93099" cy="147.52474" r="33.65291" gradientUnits="userSpaceOnUse" id="color-11"><stop offset="0" stop-color="#2d2d2d"></stop><stop offset="1" stop-color="#000000"></stop></radialGradient><radialGradient cx="326.14576" cy="112.39323" r="2.01089" gradientUnits="userSpaceOnUse" id="color-12"><stop offset="0" stop-color="#808080"></stop><stop offset="1" stop-color="#888888"></stop></radialGradient></defs><g transform="translate(-217.37076,-61.41281)"><g data-paper-data="{&quot;isPaintingLayer&quot;:true}" fill-rule="nonzero" stroke-linejoin="miter" stroke-miterlimit="10" stroke-dasharray="" stroke-dashoffset="0" style="mix-blend-mode: normal"><path d="M337.14656,122.06922l0.82801,-7.68885c0,0 2.35391,0.65599 2.4722,4.69612c0.12862,4.39311 -3.30022,2.99273 -3.30022,2.99273z" fill="url(#color-1)" stroke="url(#color-2)" stroke-width="0" stroke-linecap="butt"></path><path d="M272.37255,164.73242c1.29623,-0.27036 11.64385,-0.16179 11.66467,-0.13624c0.11311,0.13879 -0.61817,4.56072 -0.62897,4.43225c-0.81964,0.39939 -7.95086,4.75805 -7.95086,4.75805c0,0 -36.48132,11.27566 -36.68992,11.14788c0,0 -2.50823,-7.71234 -1.46379,-8.09291c1.17553,-0.42834 11.04345,-2.74156 11.04345,-2.74156c0,0 22.20519,-8.94485 24.02542,-9.36746z" fill="#000000" stroke="none" stroke-width="NaN" stroke-linecap="butt"></path><path d="M288.69278,177.10169v-16.6786h16.6786v16.6786z" fill="#1e1e1e" stroke="none" stroke-width="0" stroke-linecap="butt"></path><path d="M330.0564,115.17625l-5.46546,-6.63662c0,0 2.22837,-0.7055 3.3619,-0.79441c1.07566,-0.08436 3.27473,0.27388 3.27473,0.27388l1.30129,8.84883z" fill="#dae8f0" stroke="#000000" stroke-width="0.25" stroke-linecap="butt"></path><path d="M325.43604,113.63526l-6.62412,-8.28015l2.48405,-2.36575l6.62412,9.46304z" fill="url(#color-3)" stroke="none" stroke-width="0" stroke-linecap="butt"></path><g fill="#3e3e3e" stroke="#000000" stroke-width="0.25" stroke-linecap="butt"><path d="M291.63362,160.25604l2.3279,-24.12456l6.85016,-3.05217l-3.6292,27.89834z"></path><path d="M297.35212,160.89948l3.2388,-28.02846l5.93926,0.07095l-3.6292,28.67911z"></path><path d="M303.07783,161.55012l3.62919,-28.80923l5.2886,0.46133l-3.36894,29.06951z"></path><path d="M308.66621,162.19358l3.36894,-29.0695l8.28158,0.33122c0,0 -2.83188,27.94394 -4.80037,29.0695c-1.64704,0.94176 -6.85016,-0.33122 -6.85016,-0.33122z"></path></g><path d="M337.26484,129.72242l-5.11019,-9.7825l5.11019,1.0292c0,0 1.25259,3.16984 2.52948,3.82718c2.87554,1.48032 6.57869,3.1518 6.57869,3.1518z" fill="#dae8f0" stroke="#000000" stroke-width="0.25" stroke-linecap="butt"></path><path d="M338.44773,116.2376l-8.63503,-6.8607l0.47315,-4.14007c0,0 2.26184,1.2944 3.38994,2.40821c1.72535,1.70351 5.9548,6.81824 5.9548,6.81824z" fill="#dae8f0" stroke="#000000" stroke-width="0.25" stroke-linecap="butt"></path><path d="M329.8127,114.58157v-5.32295l1.65603,-0.94631l6.979,7.80701l-0.77296,5.41648c0,0 -2.87099,0.29479 -3.96738,-0.67499c-1.43307,-1.26758 -3.89468,-6.27922 -3.89468,-6.27922z" fill="#dae8f0" stroke="#000000" stroke-width="0.25" stroke-linecap="butt"></path><path d="M269.01271,150.1302c0,0 -1.29984,-4.36092 -1.84378,-5.32293c-0.89351,-1.58026 -4.07062,-4.7938 -4.07062,-4.7938h5.67783l18.03976,-2.65942c0,0 -9.48343,12.30745 -10.7614,13.22027c-0.79859,0.57043 -1.58167,0.99236 -2.3245,1.20486c-2.92041,0.83546 -4.71729,-1.649 -4.71729,-1.649z" fill="#232323" stroke="none" stroke-width="0" stroke-linecap="butt"></path><path d="M286.32702,155.10014l-10.29105,-8.88344l1.53548,-7.51546l7.49364,-0.53795c0,0 10.75014,3.73758 10.78885,4.0502c0.02696,0.21767 -2.69419,1.69733 -2.69419,1.69733l-8.76325,-2.99093l-5.39074,0.40852l0.46055,4.78184l7.80699,6.97898z" fill="url(#color-4)" stroke="none" stroke-width="0" stroke-linecap="butt"></path><path d="M307.7528,158.39224c0,0 -0.59557,3.79262 -1.38118,4.44277c-0.78578,0.65031 -3.00786,1.57184 -3.00786,1.57184" fill="none" stroke="#000000" stroke-width="1" stroke-linecap="round"></path><path d="M307.94698,169.93888c0,0 -0.78702,1.08053 -1.45034,1.36835c-0.81639,0.35424 -2.31558,1.96282 -2.31558,1.96282" fill="none" stroke="#ca7600" stroke-width="1" stroke-linecap="round"></path><path d="M305.16958,170.31229c0,0 0.63508,-1.34742 1.40262,-1.79779c0.62363,-0.36594 1.2064,-1.08452 1.2064,-1.08452" fill="none" stroke="#ca7600" stroke-width="1" stroke-linecap="round"></path><path d="M304.90164,167.33508c0,0 0.99941,-0.54862 1.68653,-0.83767c0.65011,-0.27349 2.33132,-0.85256 2.33132,-0.85256" fill="none" stroke="#ca7600" stroke-width="1" stroke-linecap="round"></path><path d="M303.39642,171.5682l-0.11833,-2.59965l1.65432,-0.0753l0.11833,2.59965z" fill="url(#color-5)" stroke="none" stroke-width="0" stroke-linecap="butt"></path><path d="M302.84061,166.13614l-1.22785,-2.29446l1.4601,-0.78136l1.22785,2.29446z" fill="url(#color-6)" stroke="none" stroke-width="0" stroke-linecap="butt"></path><path d="M303.23686,168.51504l-0.11833,-2.59965l1.65432,-0.0753l0.11833,2.59965z" fill="url(#color-7)" stroke="none" stroke-width="0" stroke-linecap="butt"></path><path d="M302.20581,173.53382l1.22785,-2.29446l1.4601,0.78136l-1.22785,2.29446z" data-paper-data="{&quot;index&quot;:null}" fill="url(#color-8)" stroke="none" stroke-width="0" stroke-linecap="butt"></path><path d="M316.53142,161.50408c0,0 -0.11679,-1.38374 0.04371,-2.172c0.54616,-2.68229 4.52536,-17.20226 4.52536,-17.20226c0,0 2.79239,0.57099 3.4632,1.0422c0.91201,0.64065 1.39645,2.28225 1.39645,2.28225l-2.34317,17.36443c0,0 -0.76456,1.13549 -1.58707,1.23728c-0.99538,0.1232 -5.49846,-2.55189 -5.49846,-2.55189z" fill="#161616" stroke="none" stroke-width="0" stroke-linecap="butt"></path><path d="M307.91536,164.73195l-1.30046,-4.49741l1.35465,-1.51719c0,0 0.83735,-1.01364 1.31128,-0.72199c0.29522,0.18167 0.87076,1.4368 0.73022,1.69056c-0.0855,0.15437 -0.69801,0.57672 -0.75531,1.1008c-0.14266,1.305 0.39356,3.34922 0.39356,3.34922z" fill="#111111" stroke="none" stroke-width="0" stroke-linecap="butt"></path><path d="M289.16594,169.29468c0,-3.85439 3.1246,-6.97898 6.97898,-6.97898c3.85439,0 6.97898,3.1246 6.97898,6.97898c0,3.85439 -3.12461,6.979 -6.97898,6.979c-3.85439,0 -6.97898,-3.12461 -6.97898,-6.97898z" fill="url(#color-9)" stroke="#404040" stroke-width="2" stroke-linecap="butt"></path><path d="M325.36204,144.57251v-1.8926c0,0 3.44031,-4.53303 5.52181,-6.76934c1.27155,-1.36612 3.41682,-3.83019 5.50645,-5.61879c2.15213,-1.84212 4.23089,-2.98931 4.23089,-2.98931c0,0 18.78802,0.63161 20.18001,1.62811c0.24765,0.17729 11.26966,5.06699 14.63331,7.45508c1.02069,0.72466 -3.02457,0.3164 -3.27945,0.37349c-1.05221,0.23568 -10.5943,-3.27079 -12.01896,-3.44328c-1.84663,-0.22359 -14.86327,-0.64624 -14.86327,-0.64624c0,0 -3.56,-0.08989 -5.17152,0.41897c-1.70775,0.53925 -4.80306,2.73061 -4.80306,2.73061z" fill="#dae8f0" stroke="#000000" stroke-width="0.25" stroke-linecap="butt"></path><path d="M276.03597,135.22777c0,0 -39.56948,-9.97734 -37.97043,-12.06538c0.71287,-0.93085 27.09815,3.64328 31.58971,3.64722c5.97414,0.00524 10.30905,0.21752 18.46044,0.05309c1.67338,-0.03376 21.97676,-3.71348 22.5314,-3.09701c0.5248,0.58331 -21.59945,11.58038 -21.59945,11.58038z" fill="#cdd0d1" stroke="none" stroke-width="0" stroke-linecap="butt"></path><path d="M240.53773,126.82933c0,0 7.12583,2.1393 14.40682,5.37642c8.73174,3.88211 21.671,10.92364 21.671,10.92364l-0.59143,3.21745c0,0 -17.63602,-7.81368 -22.61734,-10.80246c-2.1558,-1.29347 -14.14854,-7.56748 -14.14854,-7.56748z" fill="#dae8f0" stroke="#000000" stroke-width="0.2" stroke-linecap="butt"></path><path d="M241.73247,127.18419l1.8926,-1.30117c0,0 8.31161,2.8141 12.4604,3.99947c5.78522,1.65292 19.00418,4.99041 19.00418,4.99041c0,0 13.99483,0.0642 14.04693,0.71209c0.01127,0.14002 6.78185,2.95338 6.25493,3.45579c-0.20603,0.19645 -4.03205,1.84602 -4.03205,1.84602l-6.14721,-2.51447c0,0 -6.87024,0.34302 -7.22639,0.48426c-0.20785,0.28885 -1.48023,4.53904 -1.48023,4.53904l-2.95373,-0.47914z" fill="#dae8f0" stroke="#000000" stroke-width="0.2" stroke-linecap="butt"></path><path d="M295.67176,138.89469l-6.74241,-3.31206l20.58211,-11.23736c0,0 2.15856,-1.42831 4.80993,-1.48325c5.29524,-0.10973 12.7209,0.76142 12.7209,0.76142c0,0 -17.34575,9.77235 -18.53249,10.00196c-0.71872,0.13906 -4.1016,-1.1172 -5.46443,-0.55774c-3.95635,1.62411 -7.37358,5.82704 -7.37358,5.82704z" fill="#dae8f0" stroke="#000000" stroke-width="0.2" stroke-linecap="butt"></path><path d="M307.7528,172.42633c0,0 -0.60767,-7.56493 -0.10837,-8.56135c0.14699,-0.29334 1.93707,-0.10828 3.35493,-0.05033c2.08388,0.08517 3.96014,-0.00385 3.96014,-0.00385l-3.84719,8.7239z" fill="#3a3a3a" stroke="none" stroke-width="0" stroke-linecap="butt"></path><path d="M239.83985,128.24877c0,0 -18.41356,-3.69818 -21.24622,-4.43394c-1.01051,-0.26247 -1.11019,-1.12559 -1.11019,-1.12559l20.22725,0.70972c0,0 6.14935,2.20374 6.38755,2.60234c0.14664,0.24537 -4.25837,2.24747 -4.25837,2.24747z" fill="#dae8f0" stroke="#000000" stroke-width="0.2" stroke-linecap="butt"></path><path d="M293.30547,177.32616c0,0 6.85068,-0.49157 10.88408,-2.75913c2.02284,-1.13723 4.18727,-2.88245 5.73574,-4.38707c2.05384,-1.99568 3.30686,-3.91581 4.01196,-4.96032c0.50132,-0.74266 0.11153,-2.27723 0.11153,-2.27723c0,0 0.82585,-4.73385 1.4472,-4.68604c0.56411,0.04342 2.75557,4.13695 2.75557,4.13695l0.24978,6.42821c0,0 -3.85695,3.89094 -6.12789,5.73375c-1.59031,1.2905 -8.04849,4.68554 -9.73382,5.24284c-2.16222,0.71501 -8.24625,-0.91041 -8.24625,-0.91041z" fill="#505050" stroke="none" stroke-width="0" stroke-linecap="butt"></path><path d="M286.44531,170.12271c-0.95337,-0.37228 -3.60505,-1.00734 -3.60505,-1.00734c0,0 1.09214,-8.67856 1.23928,-9.63857c0.09263,-0.60439 6.1001,-13.16898 8.65162,-15.53042c2.94878,-2.7291 28.81184,-17.82322 28.81184,-17.82322c0,0 7.42513,-5.039 8.25811,-4.87404c0.6091,0.12063 3.7249,6.76932 3.7249,6.76932c0,0 -4.16444,2.65167 -6.02771,4.40957c-0.50076,1.20004 -11.3329,22.98445 -11.34981,22.99502c-16.60443,5.8582 -4.51741,-3.94163 -4.51741,-3.94163c0,0 7.28067,-12.85073 7.81614,-16.49595c0.32438,-2.20825 1.12153,-1.37366 -1.0037,-0.33961c-5.84213,2.84255 -17.50893,8.13591 -17.96102,8.43611c-0.78654,0.52227 0.04108,2.76411 2.62298,4.14237c1.23791,0.66082 3.62871,2.63064 5.65022,3.02517c1.57066,0.30655 2.11491,-0.00103 3.03332,0.34988c1.69048,0.6459 1.36055,0.82261 1.36055,0.82261c0,0 3.13245,2.09061 2.72303,2.57872c-0.04565,0.05443 0.9885,0.64381 0.37501,1.2305c-2.26865,2.16951 -9.94725,5.22292 -10.62511,5.45992c-1.51189,0.52863 -7.85943,1.28425 -8.55829,1.50396c-0.05647,-0.01314 -9.7573,1.63655 -9.7573,1.63655l-0.19051,-5.20959c0,0 0.74585,-4.75587 2.4298,-4.46546c0.66375,0.11447 3.03545,4.3628 4.0651,4.56798c3.34776,0.66709 7.49127,-0.22013 10.86831,-1.64962c0.94448,-0.3998 1.2322,-0.90786 1.5106,-1.10874c0.64858,-0.46799 0.19914,-0.31616 0.38222,-0.74724c0.33483,-0.78836 -2.47247,-4.3632 -4.68255,-5.4218c-1.65647,-0.79342 -3.21583,-1.64581 -4.18749,-2.07309c-1.41317,-0.62144 -1.5168,0.54287 -1.85422,0.82302c-0.30489,0.25315 -1.77978,7.29147 -2.89429,9.24405c-2.01578,3.53163 -5.07594,2.05927 -5.24403,2.51369c-0.05948,0.16082 -0.34494,0.09375 -0.04634,1.88058c0.12794,0.76563 2.45605,-0.14982 2.73842,0.81245c0.14414,0.49122 -0.73328,0.82558 -0.90804,1.62075c-0.32936,1.49853 -0.15544,3.63755 0.0486,4.54469c0.49889,2.21797 1.67068,6.06499 1.84677,6.41525c0.45686,0.90867 3.5061,1.54492 3.5061,1.54492c0,0 1.6979,0.62667 1.68603,1.1366c-0.01504,0.64589 -0.98437,1.6209 -1.27994,1.32792c-0.33708,-0.33413 -5.11897,-1.17144 -5.97683,-1.95145c-0.64741,-0.86468 -2.49058,-7.44011 -2.67936,-7.51384z" fill="url(#color-10)" stroke="none" stroke-width="0" stroke-linecap="butt"></path><path d="M344.4804,154.56288l-19.75408,-40.92761l3.54864,-2.72063l19.28094,37.97043z" fill="url(#color-11)" stroke="#000000" stroke-width="0.25" stroke-linecap="butt"></path><path d="M315.85472,102.81192c0,-1.66588 1.35046,-3.01634 3.01634,-3.01634c1.66588,0 3.01634,1.35046 3.01634,3.01634c0,1.66588 -1.35046,3.01634 -3.01634,3.01634c-1.66588,0 -3.01634,-1.35046 -3.01634,-3.01634z" fill="#010101" stroke="#3a3a3a" stroke-width="0.1" stroke-linecap="butt"></path><path d="M324.70358,113.57948c0,0 -0.65367,-0.71081 -0.37255,-1.10273c0.28112,-0.39192 2.18557,-1.78816 2.86479,-1.86722c0.51698,-0.06017 0.89554,0.52389 0.89554,0.52389z" fill="url(#color-12)" stroke="none" stroke-width="0" stroke-linecap="butt"></path><path d="M253.90594,128.25271c0,0 -0.53414,-0.11266 -1.05629,-0.50002c-0.3474,-0.25771 -0.64304,-0.43539 -0.57549,-0.88822c0.15117,-0.38857 0.10663,-0.59792 1.8709,-0.50267c1.78885,0.09658 1.7657,0.46023 1.75249,0.57968c-0.00261,0.02368 -0.00092,0.20222 -0.1258,0.20763c-0.43348,0.0188 -1.51359,-0.20842 -1.90534,-0.13645c-0.14276,0.02623 -0.36404,0.16125 -0.28895,0.32646c0.10729,0.23605 0.62771,0.38793 0.62771,0.38793c0,0 0.66449,0.07356 0.65024,-0.01638c-0.00526,-0.03321 -0.45618,-0.10534 -0.45618,-0.10534l-0.02596,-0.43448c0,0 1.0956,0.14695 1.36672,0.12018c0.22898,-0.0226 0.24964,-0.38334 0.24964,-0.38334l1.17367,-0.0254c0,0 0.0796,0.92688 0.25157,0.99655c0.05318,0.02154 0.52253,0.13395 0.68556,-0.08188c0.28477,-0.37701 0.13925,-1.21334 0.13424,-1.08473c-0.0017,0.04366 1.70357,-0.02602 1.70357,-0.02602l0.034,0.26265l4.05961,-0.05725c0,0 -0.10654,0.18945 0.02942,0.21306c0.10642,0.01848 0.87782,0.00303 1.32617,0.09272c0.29637,0.05929 0.29147,0.47308 0.21645,0.50372c-0.14419,0.0589 -1.3457,-0.01744 -2.19949,-0.09316c-0.05212,-0.00463 1.92749,0.16923 1.90789,0.52029c-0.00333,0.05949 -0.90525,0.72067 -1.2254,0.76291c-0.14048,0.01854 -1.3391,0.06112 -1.73528,-0.18944c-0.24951,-0.15779 -0.32534,-0.4607 -0.31457,-0.5133c0.03521,-0.17184 1.985,0.06558 1.985,0.06558c0,0 -1.8145,-0.11803 -1.85176,-0.23512c-0.13125,-0.41241 0.17239,-0.45431 0.17239,-0.45431l-0.40253,-0.01729l-0.9898,1.12717l-0.75735,-0.05891c0,0 0.11414,-1.10519 -0.0369,-1.06621c-0.72281,0.18657 -0.72773,0.48791 -0.78614,0.5752c-0.29694,0.44367 -1.80449,0.63134 -2.71279,0.33348c-0.57373,-0.18815 -0.74193,-0.86243 -0.74193,-0.86243l-0.12974,0.76526z" fill="#ffffff" stroke="#ed2c30" stroke-width="0.2" stroke-linecap="butt"></path><path d="M261.60197,63.44994c0,0 9.35598,-2.6166 17.93787,-1.72803c7.4448,0.77085 14.1259,4.94396 15.84974,6.30361c0.20447,0.16128 1.54655,9.09822 -3.25368,12.46464c-4.80023,3.36642 -7.39077,0.72443 -15.05268,0.37371c-7.02187,-0.32142 -15.69796,-4.19079 -15.77825,-4.86749c-0.47319,-3.98821 0.29698,-12.54646 0.29698,-12.54646z" fill="#afafaf" stroke="#000000" stroke-width="0.25" stroke-linecap="butt"></path><path d="M313.44313,99.93641l1.77173,-3.57466l6.35485,0.73645l2.49999,3.16209l-0.59648,3.80805c0,0 -1.86246,-3.27719 -3.16584,-3.85951c-1.20754,-0.53951 -3.3678,-0.57996 -4.98486,-0.40394c-1.11745,0.12163 -1.8794,0.13152 -1.8794,0.13152z" fill="#383838" stroke="#000000" stroke-width="0.25" stroke-linecap="butt"></path><path d="M289.68799,71.4766l10.61713,15.95219l15.08258,8.94663l-1.83635,3.15656c0,0 -11.03912,-3.45079 -16.72887,-7.10218c-5.64361,-3.62178 -12.5552,-14.71804 -12.5552,-14.71804z" fill="#d89856" stroke="#000000" stroke-width="0.25" stroke-linecap="butt"></path><path d="M286.32668,81.9131c0,0 -3.08575,-3.34698 -3.389,-7.54723c-0.16603,-2.2996 1.71045,-3.35601 2.90863,-4.10272c0.99033,-0.61717 2.69092,-0.69079 4.24128,-0.55678c3.42615,0.29614 5.23544,7.87106 5.23544,7.87106z" fill="#afafaf" stroke="#000000" stroke-width="0.25" stroke-linecap="butt"></path><path d="M263.35589,89.8163c-5.31722,14.13281 -11.01308,29.35588 -11.88897,31.927c-0.2461,0.72243 -4.76125,-5.76089 -4.76125,-5.76089l6.5193,-28.19655c0,0 11.29461,-1.06251 10.13093,2.03046z" fill="#d89856" stroke="#000000" stroke-width="0.25" stroke-linecap="butt"></path><path d="M244.65704,123.16007l1.71862,-9.61074l16.38409,7.62789l-0.90454,5.05827z" fill="#636363" stroke="#000000" stroke-width="0.25" stroke-linecap="butt"></path><path d="M250.90364,71.53556c2.86988,-8.08191 10.40956,-8.46991 10.40956,-8.46991c0,0 -0.46898,8.87867 2.09438,12.08194c3.48676,4.35719 0.09582,13.87016 0.19975,14.32312c-0.02966,4.85121 -10.30551,0.79905 -10.30551,0.79905c0,0 -4.77876,-12.03022 -2.39818,-18.7342z" fill="#333333" stroke="#000000" stroke-width="0.25" stroke-linecap="butt"></path></g></g></svg>