<svg version="1.1" xmlns="http://www.w3.org/2000/svg" xmlns:xlink="http://www.w3.org/1999/xlink" width="104.6456" height="86.36044" viewBox="0,0,104.6456,86.36044"><defs><radialGradient cx="245.10774" cy="144.21927" r="15.70955" gradientUnits="userSpaceOnUse" id="color-1"><stop offset="0" stop-color="#25175c"></stop><stop offset="1" stop-color="#1f1a69"></stop></radialGradient><radialGradient cx="278.68832" cy="162.79539" r="42.31605" gradientUnits="userSpaceOnUse" id="color-2"><stop offset="0" stop-color="#25175c"></stop><stop offset="1" stop-color="#1f1a69"></stop></radialGradient><radialGradient cx="281.25074" cy="158.06149" r="36.41166" gradientUnits="userSpaceOnUse" id="color-3"><stop offset="0" stop-color="#25175c"></stop><stop offset="1" stop-color="#1f1a69"></stop></radialGradient><radialGradient cx="319.32265" cy="138.06249" r="6.58346" gradientUnits="userSpaceOnUse" id="color-4"><stop offset="0" stop-color="#25175c"></stop><stop offset="1" stop-color="#1f1a69"></stop></radialGradient><radialGradient cx="325.2761" cy="145.25717" r="15.41851" gradientUnits="userSpaceOnUse" id="color-5"><stop offset="0" stop-color="#8d8d8d"></stop><stop offset="1" stop-color="#bcbcbc"></stop></radialGradient></defs><g transform="translate(-229.27319,-100.56587)"><g data-paper-data="{&quot;isPaintingLayer&quot;:true}" fill-rule="nonzero" stroke-linecap="butt" stroke-linejoin="miter" stroke-miterlimit="10" stroke-dasharray="" stroke-dashoffset="0" style="mix-blend-mode: normal"><path d="M236.29716,139.73689c0,0 0.81419,-4.37995 2.89556,-4.92245c0.83737,-0.21826 7.63721,1.60014 17.5424,2.34841c5.82443,0.44 36.65382,-0.55198 37.64,-0.24805c1.73966,0.53614 2.89626,2.00092 1.99161,2.16214c-7.53471,1.34273 -29.90452,3.52103 -32.13486,4.55627c-2.45747,1.14067 -3.90155,4.35603 -3.90155,4.35603z" fill="#0e0e0e" stroke="none" stroke-width="0"></path><path d="M266.41096,157.2363c0,0 -5.15175,-2.11496 -5.53544,-3.75631c-0.46808,-2.00236 2.92944,-7.3916 2.92944,-7.3916l22.15103,-2.46123c0,0 5.76414,-1.35944 6.16654,-0.02621c0.51183,1.69579 0.7835,3.90387 -0.20238,5.4016c-3.15134,4.78743 -12.47917,7.65463 -12.47917,7.65463z" fill="#242424" stroke="#000000" stroke-width="0.25"></path><path d="M229.4424,138.46139c1.33777,-2.31608 31.37489,9.49311 31.37489,9.49311l-1.16064,2.32368c0,0 -31.59874,-9.01349 -30.21425,-11.81679z" fill="url(#color-1)" stroke="#000000" stroke-width="0.25"></path><path d="M295.64403,181.9781l21.17887,-43.18862l4.18144,1.99481c0,0 -20.61752,45.27047 -24.36399,45.93941c-3.93797,0.70313 -55.87651,-3.6025 -55.87651,-3.6025c0,0 -5.43688,1.79079 -4.21181,-4.46682c1.00971,-5.15762 7.16094,-2.01634 8.41347,-2.07867c2.31248,-0.11509 2.65873,4.36316 4.81251,4.42643c16.41099,0.4821 45.86602,0.97595 45.86602,0.97595z" fill="url(#color-2)" stroke="#000000" stroke-width="0.25"></path><path d="M263.94977,146.25188l-16.48659,32.41736c0,0 -0.83591,-0.99575 -1.22139,-1.3677c-0.28861,-0.27848 -0.88617,-0.66591 -0.88617,-0.66591c0,0 16.4678,-32.48227 17.70322,-33.69884c2.51804,-1.26473 53.30056,-5.80591 53.30056,-5.80591l1.303,3.61945z" fill="url(#color-3)" stroke="#000000" stroke-width="0.25"></path><path d="M319.20616,144.52006l-4.81357,-11.02334l3.17379,-2.0177l6.68632,13.16692z" fill="url(#color-4)" stroke="#000000" stroke-width="0.25"></path><path d="M331.32875,160.67568l-14.52507,-29.44369l2.87762,-1.39333l14.06727,29.90149z" fill="url(#color-5)" stroke="#000000" stroke-width="0.25"></path><path d="M316.06982,128.43484l-2.68088,-8.26484l3.15702,-1.34981l2.56419,9.03553c0,0 1.06678,2.00815 0.6704,2.79578c-0.83924,1.66765 -3.69946,2.32722 -5.25276,2.87082c-0.7144,0.25001 -1.67153,-1.23493 -1.20876,-3.20538c0.36616,-1.55911 2.75078,-1.88211 2.75078,-1.88211z" fill="#232323" stroke="#000000" stroke-width="0.25"></path><path d="M283.59145,175.73477c-0.24771,-0.20896 12.97879,-25.90607 13.43876,-26.15801c0.22505,-0.12327 8.74793,1.54486 9.01247,1.63966c0.31513,0.11293 3.7824,1.37946 3.89566,1.52424c0.24962,0.31909 -14.01048,28.73074 -14.01048,28.73074c0,0 -11.92476,-5.38937 -12.3364,-5.73662z" fill="#1c1c1c" stroke="#000000" stroke-width="0.25"></path><path d="M291.90614,158.68426c-0.40581,-0.62615 0.89772,-3.15395 1.58963,-3.01398c0.22316,0.04514 16.97736,6.43999 16.97736,6.43999l-1.38545,3.66737c0,0 -17.03523,-6.86763 -17.18154,-7.09338z" fill="#141414" stroke="#000000" stroke-width="0.25"></path><g fill="#ffffff" stroke="none" stroke-width="0"><path d="M293.07605,177.64592l2.69509,-1.99705l0.40543,3.38749l-0.55625,-0.25877l-0.25765,-2.09716l-1.64876,1.21652z"></path><path d="M295.30761,176.89831l0.35017,3.33604l-3.12342,-1.37246l0.50556,-0.34754l1.93707,0.84393l-0.20974,-2.03822z"></path><path d="M294.44858,176.43148l-1.65102,1.21346l1.92622,0.86843l0.08203,0.60798l-3.11456,-1.39245l2.7069,-1.98103z" data-paper-data="{&quot;index&quot;:null}"></path></g><path d="M286.59735,168.73012c-0.40581,-0.62615 0.89772,-3.15394 1.58964,-3.01397c0.22316,0.04514 16.97736,6.43998 16.97736,6.43998l-1.38545,3.66737c0,0 -17.03523,-6.86763 -17.18155,-7.09338z" fill="#141414" stroke="#000000" stroke-width="0.25"></path><path d="M310.87718,158.31016c1.05796,-1.11538 5.25022,-2.91322 5.08197,-2.58229c-0.99784,1.96265 -13.51277,25.94982 -13.51277,25.94982c0,0 -0.81849,-5.24681 -0.47208,-6.14284c0.3102,-0.80235 8.7741,-17.08892 8.90287,-17.22468z" fill="#1e1e1e" stroke="#000000" stroke-width="0.25"></path><path d="M311.97456,117.89525c0,-1.27692 1.03515,-2.31208 2.31208,-2.31208c1.27692,0 2.31208,1.03515 2.31208,2.31208c0,1.27692 -1.03515,2.31208 -2.31208,2.31208c-1.27692,0 -2.31208,-1.03515 -2.31208,-2.31208z" fill="#070707" stroke="#000000" stroke-width="0.25"></path><path d="M307.72775,117.80028l0.15946,-3.98645l6.10251,-1.91985l3.57241,1.86726l1.00877,3.72013c0,0 -3.03728,-2.23241 -4.46483,-2.23241c-1.32258,0 -3.31144,0.84427 -4.71605,1.6646c-0.97063,0.56688 -1.66228,0.88672 -1.66228,0.88672z" fill="#383838" stroke="#000000" stroke-width="0.25"></path><path d="M250.25238,136.19946c0,0 0.75117,-13.94128 2.88961,-18.1562c0.16033,-0.31602 3.38612,-5.08834 7.91542,-9.4559c5.567,-5.3682 13.35077,-7.88296 13.35077,-7.88296l11.61723,8.46948c0,0 1.37743,2.92868 -0.63624,4.54716c-0.25353,0.20377 -0.51675,0.40776 -0.78809,0.6088c-5.82542,4.31593 -15.38989,11.70273 -13.06887,18.36223c1.0044,2.88187 -21.27983,3.5074 -21.27983,3.5074z" fill="#afafaf" stroke="#000000" stroke-width="0.25"></path><path d="M277.76066,105.59282l16.48625,9.42945l13.86442,-1.20262l-0.24097,3.83826l-14.19386,2.38223l-21.25103,-6.12488z" fill="#d89856" stroke="#000000" stroke-width="0.25"></path><path d="M280.01304,116.97632c0,0 -7.82725,-1.26421 -9.26232,-5.22333c-0.78569,-2.16758 0.7324,-3.69486 1.68209,-4.73952c0.78495,-0.86343 2.40129,-1.39715 3.92959,-1.6902c3.37739,-0.64761 8.00341,3.78457 8.00341,3.78457z" fill="#afafaf" stroke="#000000" stroke-width="0.25"></path><path d="M286.96601,146.02953c-2.61972,14.87099 -5.41052,30.88336 -5.79724,33.57191c-0.10866,0.75542 -5.74199,-4.78403 -5.74199,-4.78403l1.20762,-28.91519c0,0 10.90494,-3.12718 10.33161,0.12733z" fill="#d89856" stroke="#000000" stroke-width="0.25"></path><path d="M273.73976,182.35543l1.39996,-9.66231l16.6273,7.08208l-0.73682,5.08542z" fill="#636363" stroke="#000000" stroke-width="0.25"></path><path d="M250.45559,136.33677c0,0 19.11826,-10.00745 21.43928,-3.34795c1.0044,2.88187 12.61483,4.333 15.27957,11.31031c2.66475,6.97731 -9.06948,4.95004 -9.06948,4.95004z" fill="#333333" stroke="#000000" stroke-width="0.25"></path></g></g></svg>