<svg version="1.1" xmlns="http://www.w3.org/2000/svg" xmlns:xlink="http://www.w3.org/1999/xlink" width="31.27357" height="31.27357" viewBox="0,0,31.27357,31.27357"><g transform="translate(-224.36321,-164.36321)"><g data-paper-data="{&quot;isPaintingLayer&quot;:true}" fill-rule="nonzero" stroke="#000000" stroke-linecap="butt" stroke-linejoin="miter" stroke-miterlimit="10" stroke-dasharray="" stroke-dashoffset="0" style="mix-blend-mode: normal"><g><g stroke-width="0.5"><path d="M240.4209,190.96887l-1.34326,-9.32642l2.12375,-0.34013l0.59368,9.51158z" data-paper-data="{&quot;index&quot;:null}" fill="#252525"></path><path d="M246.84558,188.85264l-6.60857,-6.71665l1.50917,-1.53247l6.11451,7.30998z" data-paper-data="{&quot;index&quot;:null}" fill="#252525"></path><path d="M239.5791,169.03114l1.34326,9.32642l-2.12375,0.34013l-0.59368,-9.51158z" data-paper-data="{&quot;index&quot;:null}" fill="#252525"></path><path d="M233.15809,171.21633l6.60857,6.71665l-1.50917,1.53247l-6.1145,-7.30998z" data-paper-data="{&quot;index&quot;:null}" fill="#252525"></path><path d="M229.02423,179.83934l9.38448,-0.84739l0.22717,2.1388l-9.52967,0.08908z" data-paper-data="{&quot;index&quot;:null}" fill="#252525"></path><path d="M230.79721,186.36709l7.05726,-6.24354l1.45037,1.58822l-7.62358,5.71874z" data-paper-data="{&quot;index&quot;:null}" fill="#252525"></path><path d="M250.97577,180.16066l-9.38448,0.8474l-0.22717,-2.1388l9.52969,-0.08907z" data-paper-data="{&quot;index&quot;:null}" fill="#252525"></path><path d="M249.13373,173.63292l-7.05726,6.24354l-1.45038,-1.58822l7.62358,-5.71874z" data-paper-data="{&quot;index&quot;:null}" fill="#252525"></path><path d="M236.89236,180c0,-1.71631 1.39134,-3.10764 3.10764,-3.10764c1.71631,0 3.10764,1.39134 3.10764,3.10764c0,1.71631 -1.39134,3.10764 -3.10764,3.10764c-1.71631,0 -3.10764,-1.39134 -3.10764,-3.10764z" fill="#1d1d1d"></path></g><path d="M226.86322,180c0,-7.25525 5.88155,-13.13679 13.13679,-13.13679c7.25525,0 13.13679,5.88155 13.13679,13.13679c0,7.25525 -5.88155,13.13679 -13.13679,13.13679c-7.25525,0 -13.13679,-5.88155 -13.13679,-13.13679z" fill="none" stroke-width="5"></path></g></g></g></svg>