<svg version="1.1" xmlns="http://www.w3.org/2000/svg" xmlns:xlink="http://www.w3.org/1999/xlink" width="150.91138" height="56.3338" viewBox="0,0,150.91138,56.3338"><defs><linearGradient x1="297.22295" y1="145.99298" x2="299.75678" y2="145.99298" gradientUnits="userSpaceOnUse" id="color-1"><stop offset="0" stop-color="#bdbdbd" stop-opacity="0"></stop><stop offset="1" stop-color="#bdbdbd"></stop></linearGradient><radialGradient cx="214.37356" cy="174.89504" r="9.4315" gradientUnits="userSpaceOnUse" id="color-2"><stop offset="0" stop-color="#c50021"></stop><stop offset="1" stop-color="#ac001d"></stop></radialGradient><radialGradient cx="350.45539" cy="173.53494" r="4.50459" gradientUnits="userSpaceOnUse" id="color-3"><stop offset="0" stop-color="#c50021"></stop><stop offset="1" stop-color="#ac001d"></stop></radialGradient><radialGradient cx="352.42615" cy="163.1985" r="3.21756" gradientUnits="userSpaceOnUse" id="color-4"><stop offset="0" stop-color="#c4c4c4"></stop><stop offset="1" stop-color="#c4c4c4" stop-opacity="0"></stop></radialGradient></defs><g transform="translate(-206.48855,-126.03059)"><g data-paper-data="{&quot;isPaintingLayer&quot;:true}" fill-rule="nonzero" stroke="#000000" stroke-width="0.25" stroke-linecap="butt" stroke-linejoin="miter" stroke-miterlimit="10" stroke-dasharray="" stroke-dashoffset="0" style="mix-blend-mode: normal"><path d="M282.74783,140.93328c1.70347,15.00358 3.56645,31.15021 3.95776,33.8381c0.10995,0.75523 -6.86264,-2.96 -6.86264,-2.96l-7.03898,-28.07133c0,0 9.57107,-6.09029 9.94387,-2.80676z" fill="#d89856"></path><path d="M257.75262,165.72057c0,0 -4.79284,-9.40632 -5.9073,-17.94464c-0.61136,-4.68396 0.27081,-9.60975 0.94816,-11.73329c2.35015,-7.36789 3.84214,-7.95051 3.99465,-8.13133c2.8058,-3.32644 15.33575,-0.91917 15.29834,-0.83937c-0.0994,3.38443 -1.25389,9.10976 -0.93349,14.79581c0.29254,5.19163 3.61455,9.87722 3.66165,10.66115c2.25242,2.05927 -17.06202,13.19169 -17.06202,13.19169z" fill="#afafaf"></path><path d="M257.68004,166.28086c0,0 3.50773,-8.83689 9.93792,-11.73319c2.78264,-1.25335 3.20959,-12.94632 9.9262,-16.21292c6.71663,-3.2666 5.72662,8.60024 5.72662,8.60024c0,0 -7.01856,24.06184 -14.89519,24.10419c-6.02121,0.03237 -10.69556,-4.75831 -10.69556,-4.75831z" fill="#333333"></path><path d="M270.08296,129.07346l9.27435,15.19098l7.16711,0.70713l-0.42495,3.06017l-9.7545,3.48863l-14.4586,-16.92032z" fill="#d89856"></path><path d="M267.02625,140.25986c0,0 -6.68532,-4.26268 -6.43385,-8.46637c0.13766,-2.30146 2.13674,-3.10205 3.42267,-3.68481c1.06286,-0.48165 2.75835,-0.33109 4.27767,0.00552c3.3575,0.74392 5.84821,6.64649 5.84821,6.64649z" fill="#afafaf"></path><path d="M277.67335,175.83765l0.33961,-9.75729l17.29955,5.22959l-0.17874,5.13541z" fill="#636363"></path><path d="M288.35452,150.61488c0,0 -2.94708,4.75195 -3.56913,4.23901c-0.64051,-0.83271 1.55941,-3.94809 3.62446,-6.97196c2.08222,-3.04898 3.98823,-5.95487 4.6623,-5.61741c1.57567,0.55408 -2.37149,4.87807 -2.37149,4.87807l10.93303,8.8215l-1.36077,1.97076z" fill="#232222"></path><g><path d="M300.40666,157.81511c0,0 -0.11089,-0.37705 0.06302,-0.77743c0.20587,-0.47394 0.86646,-1.08007 0.63522,-1.39222c-1.47811,-1.99532 -7.09291,-12.83967 -6.90068,-13.5083c0.21918,-0.76237 0.82977,-0.81545 0.82977,-0.81545c0,0 2.94788,-1.46411 3.05528,-1.28341c0.04124,0.06939 0.41062,0.3307 0.20137,0.56784c-0.30793,0.34896 -2.83493,1.59237 -2.72784,1.74854c0.25891,0.37759 3.67107,6.01181 4.94478,8.07826c1.54526,2.507 4.82599,7.17102 4.82599,7.17102z" fill="#232222"></path><path d="M305.24676,158.16946l-9.85381,-16.0007l2.95614,-1.68922l11.87149,17.87762z" fill="url(#color-1)"></path></g><path d="M246.82073,149.90861c0,0 -0.97087,-5.58526 -0.63258,-6.26391c0.19452,-0.39025 3.12831,-0.73135 3.35193,-0.23147c0.29765,0.66535 1.43205,1.97762 1.50591,3.686c0.09049,2.093 4.71354,10.41089 4.71354,10.41089c0,0 -6.19705,-3.91679 -7.72788,-5.30814c-0.2881,-0.26185 -0.17048,-0.88608 -0.42638,-1.46108c-0.17325,-0.3893 -0.78455,-0.83228 -0.78455,-0.83228z" fill="#202225"></path><path d="M231.12503,151.17553l6.40497,-3.51922c0,0 7.33462,2.86453 9.5453,3.81859c3.34174,1.44218 7.51155,2.72525 7.74206,2.89802c0.68455,0.51306 0.66064,3.1372 0.66064,3.1372c0,0 -10.42791,1.24899 -17.97357,0.18056c-2.89628,-0.4101 -5.06785,-1.70175 -6.50567,-2.73809c-1.17736,-0.8486 0.12627,-3.77706 0.12627,-3.77706z" fill="#232222"></path><path d="M206.77205,177.00657c-0.31104,-0.21613 -0.23038,-4.30262 0.84558,-4.6423c0.68102,-0.21501 16.18743,-0.00305 16.18743,-0.00305v5.06766c0,0 -15.94018,0.33705 -17.03301,-0.4223z" fill="url(#color-2)"></path><path d="M210.99511,177.56964v-5.27882h4.50459v5.27882z" fill="#232222"></path><path d="M345.95079,176.22966l-1.76966,-10.8593c0,0 2.70618,2.72016 7.53542,4.3421c2.29355,0.7703 2.21426,-0.95783 2.6933,-0.20414c0.22456,0.63008 2.96261,5.54231 2.77288,6.43231c-0.25567,1.19934 -11.23194,0.28903 -11.23194,0.28903z" fill="url(#color-3)"></path><path d="M347.23782,176.55142l-1.36746,-6.3547l5.71119,-0.24133l1.68922,6.11338z" fill="#232222"></path><path d="M346.27255,181.21689l-0.56308,-5.22855c0,0 11.43023,-0.4914 11.56547,-0.05653c0.17785,0.57187 -0.56843,2.55951 -0.86028,3.5001c-0.10435,0.33632 0.04496,1.13075 -0.38163,1.31702c-0.83047,0.36262 -3.48623,0.46795 -3.48623,0.46795z" fill="#a6001c"></path><path d="M207.86681,167.93436c0,0 -0.04307,-1.2015 0.47834,-1.7343c1.67853,-1.71516 5.96211,-5.00271 8.83424,-6.96321c4.06828,-2.77698 14.06507,-8.10423 14.06507,-8.10423c0,0 -1.79142,2.73494 0.82815,4.48032c0.17711,0.11801 4.16974,1.82188 5.74869,1.85204c0.90425,0.01728 91.64002,-0.40412 111.06387,1.33055c0.45103,0.04028 4.94737,8.5281 5.05029,8.77029c1.04566,2.46089 -0.09904,2.35499 -0.0722,2.39352c0.16517,0.2372 -8.46862,0.17972 -8.83307,0.06712c-0.7153,-0.22099 -7.86541,-4.22388 -15.50331,-4.63157c-33.55081,-1.79086 -89.61147,-1.71959 -89.61147,-1.71959l-14.06036,3.46472z" fill="#d10f2f"></path><path d="M258.1916,179.12547c0,0 -3.95694,-16.18192 -2.81537,-17.05312c1.29096,-0.98521 60.365,-0.73774 61.45557,0.64352c0.72773,0.92171 -5.9525,16.89224 -5.9525,16.89224c0,0 -24.60113,-0.22535 -34.26497,-0.31387c-7.086,-0.06491 -18.42273,-0.16876 -18.42273,-0.16876z" fill="#d00021"></path><path d="M209.20411,180.97557c0,0 -2.80991,-1.45994 -2.54077,-3.99675c0.02224,-0.20962 16.21545,0.2161 16.21545,0.2161l-0.24132,4.50459z" fill="#d00021"></path><path d="M207.76224,172.19531c-0.24313,-0.72691 0.15484,-4.33133 0.15484,-4.33133l16.97268,-0.72396l-1.60878,5.38943c0,0 -14.97715,0.1305 -15.51874,-0.20915z" fill="#d00021"></path><path d="M222.7179,182.18216c0,0 -1.03211,-5.49211 -0.09284,-11.43245c0.95554,-6.04324 6.12578,-8.19473 6.12578,-8.19473l26.62538,-0.56307c0,0 -0.32096,1.82289 0.07081,4.25186c0.5134,3.18308 2.74456,13.20345 2.74456,13.20345c0,0 -3.23168,0.97089 -3.30898,0.10601c-0.50913,-5.6964 -3.55954,-15.36815 -14.21658,-14.45289c-12.48396,-0.01732 -14.92014,10.37272 -15.04904,16.70141c-0.01334,0.65537 -2.89909,0.3804 -2.89909,0.3804z" fill="#d10f2f"></path><path d="M310.87929,179.52767l5.79162,-16.73136c0,0 22.37526,-1.37385 26.70582,1.60878c2.28026,1.57051 3.05669,16.89224 3.05669,16.89224c0,0 -2.10357,0.75334 -2.2287,-0.42372c-1.09931,-10.34081 -6.42213,-14.92602 -14.33137,-15.33505c-14.01858,-0.72498 -14.24691,14.66558 -16.17856,14.39032c-1.43319,-0.20423 -2.81552,-0.40121 -2.81552,-0.40121z" fill="#d10f2f"></path><path d="M353.83383,167.38134l-3.45888,-8.36568c0,0 1.24949,0.07783 1.75968,0.20193c0.1211,0.02945 1.07647,2.26676 1.7922,4.27509c0.62726,1.76005 0.71139,3.56691 0.71139,3.56691z" fill="url(#color-4)"></path><path d="M354.3215,168.38684l-5.48998,-9.60243c0,0 1.53687,-0.03231 1.69664,0.29647c0.5037,1.03655 4.22569,7.89827 4.22569,7.89827c0,0 0.22009,0.50064 0.16747,0.83789c-0.07355,0.47136 -0.59983,0.56979 -0.59983,0.56979z" fill="#434343"></path><path d="M286.19331,148.06755l-0.12372,-3.06484c0,0 1.23538,-1.99226 1.93542,-2.27603c0.80473,-0.3262 2.6228,0.42831 2.6228,0.42831l3.45821,0.98136l0.71904,1.61828l-0.37995,1.55394l-0.72231,1.30021c0,0 -1.9391,-0.00157 -2.15759,0.01601c-1.01356,0.08159 -5.35193,-0.55725 -5.35193,-0.55725z" fill="#383838"></path><path d="M254.90417,178.98333l59.53333,0.26667c0,0 0.7226,1.84441 -0.23858,1.83964c-0.96567,-0.00479 -57.96447,-0.41405 -58.66898,-0.48984c-1.04076,-0.11195 -0.62578,-1.61647 -0.62578,-1.61647z" fill="#232222"></path></g></g></svg>