<svg version="1.1" xmlns="http://www.w3.org/2000/svg" xmlns:xlink="http://www.w3.org/1999/xlink" width="23.64608" height="23.64608" viewBox="0,0,23.64608,23.64608"><defs><radialGradient cx="240.15133" cy="177.19616" r="2.11823" gradientUnits="userSpaceOnUse" id="color-1"><stop offset="0" stop-color="#181818"></stop><stop offset="1" stop-color="#141414"></stop></radialGradient><radialGradient cx="237.49385" cy="178.97141" r="2.11824" gradientUnits="userSpaceOnUse" id="color-2"><stop offset="0" stop-color="#181818"></stop><stop offset="1" stop-color="#141414"></stop></radialGradient><radialGradient cx="238.11194" cy="181.93367" r="2.11823" gradientUnits="userSpaceOnUse" id="color-3"><stop offset="0" stop-color="#181818"></stop><stop offset="1" stop-color="#141414"></stop></radialGradient><radialGradient cx="241.46104" cy="182.3159" r="2.11823" gradientUnits="userSpaceOnUse" id="color-4"><stop offset="0" stop-color="#181818"></stop><stop offset="1" stop-color="#141414"></stop></radialGradient><radialGradient cx="242.61126" cy="179.15911" r="2.11824" gradientUnits="userSpaceOnUse" id="color-5"><stop offset="0" stop-color="#181818"></stop><stop offset="1" stop-color="#141414"></stop></radialGradient><linearGradient x1="240.05255" y1="174.4734" x2="240.05255" y2="185.5472" gradientUnits="userSpaceOnUse" id="color-6"><stop offset="0" stop-color="#1e1e1e"></stop><stop offset="1" stop-color="#0e0e0e"></stop></linearGradient><linearGradient x1="240.05255" y1="173.20649" x2="240.05255" y2="186.81412" gradientUnits="userSpaceOnUse" id="color-7"><stop offset="0" stop-color="#888888"></stop><stop offset="1" stop-color="#868686"></stop></linearGradient></defs><g transform="translate(-228.17696,-168.17696)"><g data-paper-data="{&quot;isPaintingLayer&quot;:true}" fill-rule="nonzero" stroke-linecap="butt" stroke-linejoin="miter" stroke-miterlimit="10" stroke-dasharray="" stroke-dashoffset="0" style="mix-blend-mode: normal"><g><path d="M234.0379,180.0103c0,-3.32181 2.69285,-6.01466 6.01466,-6.01466c3.32181,0 6.01466,2.69285 6.01466,6.01466c0,3.32181 -2.69285,6.01466 -6.01466,6.01466c-3.32181,0 -6.01466,-2.69285 -6.01466,-6.01466z" fill="#888888" stroke="none" stroke-width="3"></path><path d="M239.48101,178.96583l-1.44791,-3.40526c0,0 1.35522,-0.40195 2.03648,-0.41531c0.68617,-0.01345 2.06592,0.33487 2.06592,0.33487l-1.6356,3.4857z" fill="url(#color-1)" stroke="none" stroke-width="0"></path><path d="M239.01476,180.09741l-3.67058,0.46806c0,0 -0.01855,-1.41345 0.15372,-2.07271c0.17351,-0.664 0.88368,-1.89717 0.88368,-1.89717l2.91007,2.52127z" fill="url(#color-2)" stroke="none" stroke-width="0"></path><path d="M239.72478,180.94382l-0.93774,3.57951c0,0 -1.31795,-0.51108 -1.86504,-0.91726c-0.55103,-0.40911 -1.42942,-1.52871 -1.42942,-1.52871l3.42619,-1.75685z" fill="url(#color-3)" stroke="none" stroke-width="0"></path><path d="M240.94672,180.49476l3.18998,1.87516c0,0 -0.84998,1.12948 -1.38956,1.54561c-0.54345,0.41913 -1.85961,0.9602 -1.85961,0.9602l-0.7597,-3.77467z" fill="url(#color-4)" stroke="none" stroke-width="0"></path><path d="M240.81347,179.30455l2.91007,-2.52127c0,0 0.71016,1.23317 0.88367,1.89718c0.17227,0.65926 0.15372,2.07271 0.15372,2.07271l-3.67058,-0.46806z" data-paper-data="{&quot;index&quot;:null}" fill="url(#color-5)" stroke="none" stroke-width="0"></path><path d="M234.51565,180.0103c0,-3.05794 2.47896,-5.5369 5.5369,-5.5369c3.05794,0 5.5369,2.47896 5.5369,5.5369c0,3.05794 -2.47896,5.5369 -5.5369,5.5369c-3.05794,0 -5.5369,-2.47896 -5.5369,-5.5369z" fill="none" stroke="url(#color-6)" stroke-width="3.5"></path><path d="M233.24874,180.0103c0,-3.75764 3.04617,-6.80382 6.80381,-6.80382c3.75764,0 6.80382,3.04618 6.80382,6.80382c0,3.75764 -3.04618,6.80381 -6.80382,6.80381c-3.75764,0 -6.80381,-3.04617 -6.80381,-6.80381z" fill="none" stroke="url(#color-7)" stroke-width="3"></path><path d="M230.92697,180c0,-5.0109 4.06214,-9.07304 9.07304,-9.07304c5.0109,0 9.07304,4.06214 9.07304,9.07304c0,5.0109 -4.06214,9.07304 -9.07304,9.07304c-5.0109,0 -9.07304,-4.06214 -9.07304,-9.07304z" fill="none" stroke="#000000" stroke-width="5.5"></path><path d="M238.84962,180.0103c0,-0.66436 0.53857,-1.20293 1.20293,-1.20293c0.66436,0 1.20293,0.53857 1.20293,1.20293c0,0.66436 -0.53857,1.20293 -1.20293,1.20293c-0.66436,0 -1.20293,-0.53857 -1.20293,-1.20293z" fill="#161616" stroke="none" stroke-width="0"></path></g></g></g></svg>