<svg version="1.1" xmlns="http://www.w3.org/2000/svg" xmlns:xlink="http://www.w3.org/1999/xlink" width="29.50953" height="33.98523" viewBox="0,0,29.50953,33.98523"><g transform="translate(-233.7621,-159.79566)"><g data-paper-data="{&quot;isPaintingLayer&quot;:true}" fill-rule="nonzero" stroke="#000000" stroke-width="0.25" stroke-linecap="butt" stroke-linejoin="miter" stroke-miterlimit="10" stroke-dasharray="" stroke-dashoffset="0" style="mix-blend-mode: normal"><path d="M233.8871,177.56245c0.00935,-3.75562 0.62373,-2.66034 1.01915,-3.56246c1.08428,-2.47367 2.8125,-2.375 2.8125,-2.375l7.3125,0.1875l8.5,19.0625c0,0 -0.19639,3.15083 -2.89287,2.40789c-3.43697,-0.94696 -4.75239,1.83393 -12.41963,-0.78289c0,0 -4.34205,-10.75948 -4.33165,-14.93754z" fill="#d89856"></path><path d="M257.70316,180.92488v-2.52h2.12c0,0 0.82401,-0.09853 0.88191,0.46633c0.04696,0.45812 -0.63353,0.73134 -0.56448,0.99326c0.08785,0.33324 0.12257,0.15202 0.12257,0.34042c0,0.18968 -0.19634,0.59131 -0.60748,0.73918c-0.36626,0.13173 -0.95251,0.02081 -0.95251,0.02081z" fill="#e4887d"></path><path d="M257.06316,175.28488l3.12,0.4l1.24,1c0,0 -0.61262,0.59976 -0.65148,0.71118c-0.04689,0.13448 0.38462,1.45275 -0.10669,1.45038c-0.16595,-0.00081 -0.59244,0.52042 -1.08863,0.28779c-0.06554,-0.03194 0.02378,0.78437 -0.65794,1.3745c-0.17797,0.15407 -0.26328,0.353 -0.10354,0.45316c0.33605,0.2107 0.67189,-0.11932 0.7767,0.45505c0.36748,2.01369 -0.55333,2.54018 -1.32936,2.98288c-0.08416,0.04801 0.01036,0.68564 -0.13537,1.2612c-0.13612,0.53761 -0.78735,1.34107 -1.00912,1.55925c-0.02987,0.02938 -0.08842,1.43106 -0.48814,1.86192c-0.16283,0.17552 -0.42959,1.33085 -3.27675,1.67153c-1.25289,0.14991 -2.59939,-0.66827 -2.63526,-0.73148c-2.95054,-5.20066 5.25523,-6.09043 5.12009,-6.20287c-0.64391,-0.53573 -0.3505,-1.80365 -0.39889,-1.87138c-0.29865,-0.418 1.62437,-6.6631 1.62437,-6.6631z" fill="#d89856"></path><path d="M259.94316,171.40488c0,0.37555 -0.32235,0.68 -0.72,0.68c-0.39765,0 -0.72,-0.30445 -0.72,-0.68c0,-0.37555 0.32236,-0.68 0.72,-0.68c0.39765,0 0.72,0.30444 0.72,0.68z" fill="#d9d9d9"></path><path d="M259.82316,171.52599c0,0.26449 -0.15222,0.47889 -0.34,0.47889c-0.18777,0 -0.34,-0.2144 -0.34,-0.47889c0,-0.26449 0.15223,-0.47889 0.34,-0.47889c0.18777,0 0.34,0.2144 0.34,0.47889z" fill="#d90000"></path><path d="M256.66316,173.12488v-4.48h4.96c0,0 0.28314,1.9166 -0.31416,2.52379c-0.1648,0.16753 -1.25266,-0.32241 -1.69277,-0.2122c-0.59461,0.14891 -2.07308,1.04841 -2.07308,1.04841z" fill="#382717"></path><path d="M257.49989,170.69423c0.16675,0.05849 -0.10766,0.47863 0.05304,0.53968c0.4647,0.17656 0.87989,0.17651 1.25769,0.39364c0.88112,0.50641 1.73056,0.88321 1.78119,1.74695c0.04105,0.70021 -0.03302,0.75221 -0.31365,1.59155c-0.27478,0.82184 1.09328,1.23728 0.09347,3.60352c-0.03631,0.08594 -0.07687,0.17838 -0.12152,0.27677c-0.05638,0.12425 -0.11929,0.25796 -0.1884,0.39996c-1.43595,2.95058 -5.54868,9.4807 -9.45258,9.078c-1.43851,-0.14839 -5.14265,-2.93153 -6.24933,-5.74021c-0.38227,-0.97018 -1.79259,-3.83257 -1.31906,-5.06767c0.35703,-0.93122 -5.67353,-4.45997 -5.76839,-5.84132c-0.14222,-2.07076 1.19442,-3.21815 1.47785,-3.36642c0.64281,-0.33625 0.91656,-1.21924 1.54874,-1.81123c0.46241,-0.43302 0.45734,-0.6718 0.97475,-1.2015c0.44365,-0.45419 0.76219,-1.02872 1.34896,-1.48639c8.90943,-6.94923 16.89606,-2.8684 17.8151,-0.84959c0.01256,0.02758 1.24321,1.27136 1.40952,1.96668c0.02565,0.10727 0.52305,0.63821 0.80256,1.38831c0.32838,0.88124 0.44729,2.00413 0.4968,2.19819c0.05556,0.21772 0.1407,1.05387 -0.24812,1.0621c-0.03234,0.00069 -0.01358,1.04916 -0.25007,1.50762c-0.015,0.02908 -0.42851,0.05125 -0.61116,0.27597c-0.04501,0.05537 -0.1308,1.37542 0.16111,2.40173c0.22208,0.78079 0.8144,1.22306 0.9242,1.79288c0.05786,0.30026 0.00585,0.52488 -0.01358,0.62497c-0.10019,0.51632 -0.50892,0.73893 -0.95581,0.83055c-0.38576,0.07908 -0.66035,-0.05945 -0.70695,-0.07095c-0.49617,-0.12246 -1.19761,-1.00679 -1.24726,-2.092c-0.02309,-0.50472 0.40501,-0.99558 0.36983,-1.48006c-0.03306,-0.45532 -0.63329,-0.72391 -0.59748,-1.07407c0.02443,-0.2388 -0.08822,-0.42591 -0.00774,-0.60073c0.09318,-0.20239 0.37716,-0.37471 0.34372,-0.37399c-0.59986,0.01298 0.0937,-0.07953 1.11302,-0.63781c0.10944,-0.05994 0.03883,-0.72297 -0.21997,-0.90533c-0.34736,-0.24475 -1.21499,0.00297 -1.42675,0.08011c-0.91159,0.63802 -2.30806,0.82808 -2.27374,0.84012z" fill="#d89856"></path></g></g></svg>