<svg version="1.1" xmlns="http://www.w3.org/2000/svg" xmlns:xlink="http://www.w3.org/1999/xlink" width="84.25879" height="107.92609" viewBox="0,0,84.25879,107.92609"><g transform="translate(-230.88959,-80.55865)"><g data-paper-data="{&quot;isPaintingLayer&quot;:true}" fill-rule="nonzero" stroke-linejoin="miter" stroke-miterlimit="10" stroke-dasharray="" stroke-dashoffset="0" style="mix-blend-mode: normal"><g stroke-linecap="butt"><g fill="#383838" stroke="#000000" stroke-width="0.25"><path d="M303.65594,179.5753c0,-1.92693 1.56208,-3.48903 3.48903,-3.48903c1.92694,0 3.48903,1.56209 3.48903,3.48903c0,1.92693 -1.5621,3.48903 -3.48903,3.48903c-1.92694,0 -3.48903,-1.56209 -3.48903,-3.48903z"></path><g><path d="M306.63343,176.14224v-2.4162h1.04485v2.4162z"></path><path d="M303.93343,178.38384l-2.2078,-0.98168l0.42451,-0.95472l2.2078,0.98166z"></path></g><g><path d="M304.52044,181.63821l-2.10573,1.18487l-0.51239,-0.91057l2.10573,-1.18489z"></path><path d="M307.79805,182.89202l0.22716,2.40549l-1.04019,0.09824l-0.22716,-2.4055z"></path></g><g data-paper-data="{&quot;index&quot;:null}"><path d="M309.84155,177.34816l2.11235,-1.17303l0.50726,0.91344l-2.11236,1.17303z"></path><path d="M310.32849,180.87571l1.93007,1.45358l-0.62857,0.83463l-1.93007,-1.45357z"></path></g></g><path d="M301.06579,179.68938c0,-3.25004 2.63468,-5.88471 5.88471,-5.88471c3.25003,0 5.88471,2.63467 5.88471,5.88471c0,3.25005 -2.63468,5.88471 -5.88471,5.88471c-3.25003,0 -5.88471,-2.63468 -5.88471,-5.88471z" fill="none" stroke="#363636" stroke-width="0.75"></path><path d="M299.89551,179.61795c0,-3.93583 3.19062,-7.12643 7.12644,-7.12643c3.93581,0 7.12644,3.1906 7.12644,7.12643c0,3.93583 -3.19063,7.12644 -7.12644,7.12644c-3.93581,0 -7.12644,-3.19061 -7.12644,-7.12644z" fill="none" stroke="#000000" stroke-width="2"></path></g><g stroke-linecap="butt"><path d="M231.51528,180c0,-4.68598 3.79874,-8.48474 8.48474,-8.48474c4.68598,0 8.48474,3.79874 8.48474,8.48474c0,4.68598 -3.79874,8.48474 -8.48474,8.48474c-4.68598,0 -8.48474,-3.79874 -8.48474,-8.48474z" fill="#000000" stroke="none" stroke-width="0"></path><path d="M233.80331,180c0,-3.42235 2.77436,-6.19671 6.1967,-6.19671c3.42235,0 6.1967,2.77437 6.1967,6.19671c0,3.42235 -2.77436,6.19671 -6.1967,6.19671c-3.42235,0 -6.1967,-2.77437 -6.1967,-6.19671z" fill="#545454" stroke="#eba773" stroke-width="0.5"></path></g><path d="M300.37838,97.24249c0,0 -0.1732,10.67978 -1.21265,12.42448c-0.80358,1.34879 -2.51039,1.13303 -2.51039,1.13303" fill="none" stroke="#e88527" stroke-width="0.5" stroke-linecap="round"></path><path d="M231.89944,172.19417c0,0 2.9745,-2.859 8.10914,-3.2222c3.92808,0.2381 4.81558,1.16834 6.76371,2.58389c2.0806,1.51179 3.16536,3.52595 3.47574,3.71138c0.33005,0.19718 2.85885,0.70546 2.85885,0.70546c0,0 -2.39388,1.56526 -3.48897,1.13285c-0.48354,-0.19092 -3.48092,-5.27674 -8.00365,-6.08668c-1.33625,-0.23929 -3.47838,-0.35545 -5.32501,0.40803c-2.20723,0.91257 -4.04434,2.76976 -4.28761,2.92104c-0.36003,0.22388 -0.76319,-0.04652 -0.86204,-0.02378c-0.21426,0.04932 0.97645,-1.415 0.97645,-1.415z" fill="#4d4d4d" stroke="#000000" stroke-width="0.5" stroke-linecap="butt"></path><path d="M239.56959,181.50838c0,0 -1.30709,-0.31438 -1.20121,-1.53488c0.10189,-1.17437 1.20121,-1.26794 1.20121,-1.26794l8.36892,-0.19773c0,0 1.60061,-1.81449 1.85894,-1.82004c0.43466,-0.00935 42.59269,1.8956 42.59269,1.8956c0,0 -2.57495,3.04147 -3.2688,3.17798c-0.55321,0.10885 -38.36517,-0.30241 -38.36517,-0.30241z" fill="#4d4d4d" stroke="#000000" stroke-width="0.5" stroke-linecap="butt"></path><path d="M249.62533,176.63551l2.21501,-1.00024c0,0 1.52702,-0.29592 9.40348,-0.25956c5.89549,0.02722 26.24977,0.23429 33.76658,2.09513c0.98014,0.24263 -2.52207,1.02681 -2.52207,1.02681z" fill="#676767" stroke="#000000" stroke-width="0.27" stroke-linecap="butt"></path><path d="M287.0888,176.49201l15.10626,-15.8671c0,0 -10.46893,-63.89839 -10.01756,-63.46803c0.02776,0.02647 5.50281,-1.60462 6.18581,-0.91902c0.17997,0.18065 1.30201,1.81395 0.80713,2.23933c-0.53503,0.45987 -4.37209,1.44585 -4.28804,1.97101c0.07716,0.48211 10.98825,62.67331 10.98825,62.67331l3.02289,17.83559c0,0 -0.38431,0.75278 -1.59619,0.76541c-1.28451,0.01337 -1.54785,-1.0663 -1.54785,-1.0663c0,0 -1.5716,-10.31197 -2.21962,-12.61182c-0.21891,-0.77693 -0.87387,-1.84642 -0.94178,-1.79159c-0.78605,0.6346 -10.27829,10.62843 -10.27829,10.62843z" fill="#4d4d4d" stroke="#000000" stroke-width="0.5" stroke-linecap="butt"></path><path d="M296.7256,96.71564c0,-1.14447 0.92779,-2.07226 2.07226,-2.07226c1.14447,0 2.07226,0.92779 2.07226,2.07226c0,1.14447 -0.92779,2.07226 -2.07226,2.07226c-1.14447,0 -2.07226,-0.92779 -2.07226,-2.07226z" fill="#1b1b1b" stroke="none" stroke-width="0" stroke-linecap="butt"></path><path d="M241.01895,112.71549c0,0 -0.55891,-9.69891 2.14129,-17.89324c2.34243,-7.1086 7.84565,-12.74478 9.54198,-14.1386c0.20121,-0.16532 9.21864,0.43144 11.48267,5.83969c2.26403,5.40827 -0.8701,7.37503 -2.84843,14.78544c-1.81306,6.79138 -1.72574,16.54292 -1.93097,19.1652c-0.23813,3.04259 -18.38655,-7.75847 -18.38655,-7.75847z" fill="#afafaf" stroke="#000000" stroke-width="0.25" stroke-linecap="butt"></path><path d="M292.6972,99.65924l-1.36123,-3.75023l4.92189,-4.08676l4.01337,0.37625l2.34175,3.06157c0,0 -3.65626,-0.91676 -4.97761,-0.37645c-0.73321,0.29982 -1.57302,0.97042 -2.34135,1.73747c-0.51449,0.51364 -0.99692,1.07051 -1.39382,1.58826c-0.68387,0.89208 -1.203,1.4499 -1.203,1.4499z" fill="#383838" stroke="#000000" stroke-width="0.25" stroke-linecap="butt"></path><path d="M262.05517,84.26953l16.29341,9.75889l13.22255,1.65293l1.41181,3.91913l-15.30549,-0.56667l-21.12363,-6.55074z" fill="#d89856" stroke="#000000" stroke-width="0.25" stroke-linecap="butt"></path><path d="M264.20952,96.00082c0,0 -7.80026,-1.42126 -9.15547,-5.40843c-0.74197,-2.18294 0.80651,-3.6794 1.77701,-4.70476c0.80214,-0.84748 2.4289,-1.3486 3.96276,-1.61087c3.38973,-0.5796 7.92573,3.94465 7.92573,3.94465z" fill="#afafaf" stroke="#000000" stroke-width="0.25" stroke-linecap="butt"></path><path d="M260.27088,137.08739c-0.27094,15.09753 -0.53305,31.34918 -0.4962,34.06516c0.01036,0.76313 -6.41719,-3.83106 -6.41719,-3.83106l-3.31189,-28.75027c0,0 10.28461,-4.7879 10.2253,-1.48382z" fill="#d89856" stroke="#000000" stroke-width="0.25" stroke-linecap="butt"></path><path d="M252.7306,175.12399l0.40132,-9.75495l17.26612,5.33892l-0.21121,5.13417z" fill="#636363" stroke="#000000" stroke-width="0.25" stroke-linecap="butt"></path><path d="M241.02198,112.36692c0,0 20.28955,2.88421 19.30707,9.86784c-0.42516,3.02213 0.91884,10.49576 0.30334,17.03291c-0.01959,3.98225 -7.13993,3.06185 -9.25646,1.62425c-4.22397,-2.86901 -5.60337,-13.94609 -8.9249,-18.93171c-2.37288,-3.56169 -1.42907,-9.59326 -1.42907,-9.59326z" fill="#333333" stroke="#000000" stroke-width="0.25" stroke-linecap="butt"></path></g></g></svg>