<svg version="1.1" xmlns="http://www.w3.org/2000/svg" xmlns:xlink="http://www.w3.org/1999/xlink" width="107.82676" height="110.27377" viewBox="0,0,107.82676,110.27377"><defs><radialGradient cx="258.9519" cy="172.89184" r="21.7801" gradientUnits="userSpaceOnUse" id="color-1"><stop offset="0" stop-color="#5000a0"/><stop offset="1" stop-color="#431363"/></radialGradient><radialGradient cx="252.78577" cy="177.55758" r="8.5" gradientUnits="userSpaceOnUse" id="color-2"><stop offset="0" stop-color="#5000a0"/><stop offset="1" stop-color="#431363"/></radialGradient><radialGradient cx="283.93281" cy="151.70395" r="43.69191" gradientUnits="userSpaceOnUse" id="color-3"><stop offset="0" stop-color="#5000a0"/><stop offset="1" stop-color="#431363"/></radialGradient><radialGradient cx="287.27887" cy="178.4161" r="3.94445" gradientUnits="userSpaceOnUse" id="color-4"><stop offset="0" stop-color="#3900a1"/><stop offset="1" stop-color="#301363"/></radialGradient><radialGradient cx="285.60752" cy="149.33479" r="9.73248" gradientUnits="userSpaceOnUse" id="color-5"><stop offset="0" stop-color="#5000a0"/><stop offset="1" stop-color="#431363"/></radialGradient><radialGradient cx="301.66178" cy="145.6866" r="22.63269" gradientUnits="userSpaceOnUse" id="color-6"><stop offset="0" stop-color="#5000a0"/><stop offset="1" stop-color="#431363"/></radialGradient><radialGradient cx="322.50061" cy="119.86854" r="5.44051" gradientUnits="userSpaceOnUse" id="color-7"><stop offset="0" stop-color="#383838"/><stop offset="1" stop-color="#0b0b0b"/></radialGradient><radialGradient cx="325.41739" cy="125.16782" r="2.44425" gradientUnits="userSpaceOnUse" id="color-8"><stop offset="0" stop-color="#0a0a0a"/><stop offset="1" stop-color="#464646"/></radialGradient><radialGradient cx="329.20056" cy="133.47304" r="2.44425" gradientUnits="userSpaceOnUse" id="color-9"><stop offset="0" stop-color="#0a0a0a"/><stop offset="1" stop-color="#464646"/></radialGradient></defs><g transform="translate(-233.1036,-72.8063)"><g data-paper-data="{&quot;isPaintingLayer&quot;:true}" fill-rule="nonzero" stroke-linecap="butt" stroke-linejoin="miter" stroke-miterlimit="10" stroke-dasharray="" stroke-dashoffset="0" style="mix-blend-mode: normal"><g stroke="#000000" stroke-width="0.25"><path d="M235.57095,182.95507l-2.34352,-3.04992c0,0 -0.12241,-0.88739 0.13619,-0.98735c0.59659,-0.23061 23.72497,-14.20692 28.32934,-16.18676c2.87885,-0.82648 16.18936,7.3664 16.18936,7.3664l-4.10564,0.71821l-10.53225,-4.59453l-18.36116,9.41205c0,0 -0.55867,3.43005 -1.05893,4.1293c-0.27781,0.05552 -1.14389,1.43983 -2.64167,2.02451c-2.35263,0.91837 -5.6117,1.16809 -5.6117,1.16809z" fill="url(#color-1)"/><path d="M243.71434,179.77187l1,-2.71428c0,0 15.7873,-4.77509 23.26316,-6.1249c1.45749,-0.26316 3.88709,-2.12819 5.86518,-2.21313c1.71624,-0.07369 3.591,1.12355 6.28865,1.05092c2.98775,-0.08044 5.44015,0.42996 5.44015,0.42996l0.85714,3.57143c0,0 -5.87632,-1.47356 -10.43237,-0.88667c-7.73217,0.99601 -32.28191,6.88667 -32.28191,6.88667z" fill="url(#color-2)"/></g><path d="M302.07249,168.51244l6.88912,-18.31497c0,0 4.00796,-1.02038 4.87279,0.33605c0.72653,1.13953 -6.88912,18.31497 -6.88912,18.31497c0,0 -2.13792,1.12146 -2.6936,1.08313c-0.89795,-0.06193 -2.17919,-1.41919 -2.17919,-1.41919z" fill="#000000" stroke="none" stroke-width="0"/><path d="M312.42196,133.37142c0,0 -19.36863,12.12466 -26.49213,11.03294c-5.61554,-0.86062 -19.70144,-5.69472 -22.60994,-6.81445c-6.59802,-2.54013 -18.50756,-5.8149 -18.50756,-5.8149c0,0 13.48699,3.09997 27.31683,3.938c11.14115,0.67511 22.71297,-0.00518 25.08375,-1.05163c2.22597,-0.38941 20.10324,-4.39186 20.10324,-4.39186c0,0 6.45344,-3.99289 6.9504,-3.38205c1.30101,1.59917 3.35818,7.8348 3.35818,7.8348l-13.50859,9.33386l-13.17835,34.39684l-17.66814,0.24257c0,0 -0.00628,-4.64247 -1.0579,-8.49368c-0.24106,-1.16658 -4.53924,-6.96151 -5.02666,-8.68836c-0.41042,-1.45404 -0.31166,-5.08944 -0.31166,-5.08944z" fill="url(#color-3)" stroke="#000000" stroke-width="0.5"/><path d="M283.33442,178.86054v-0.88888l16.77778,-0.22223l12.86923,-33.66813c0,0 13.63007,-9.9874 13.81579,-9.94209c0.06007,0.01466 0.6294,1.13017 0.6294,1.13017l-13.2648,9.09994l-13.27185,34.38011z" fill="url(#color-4)" stroke="#000000" stroke-width="0.5"/><path d="M256.33837,134.06148c-1.05066,-2.09631 4.10933,-0.2865 10.70577,0.21578c4.24377,0.32314 14.064,0.88725 19.49533,0.58151c6.32466,-0.35602 14.82353,-1.25616 22.49332,-2.90999c5.90097,-1.27242 9.38269,-2.35229 9.38269,-2.35229c0,0 -3.95091,3.55288 -10.21665,6.74088c-8.31851,4.23245 -20.03116,7.72854 -21.38616,7.28754c-13.05154,-2.40176 -29.94753,-8.51241 -30.4743,-9.56343z" fill="#101010" stroke="#000000" stroke-width="0.25"/><path d="M302.00523,152.46896l8.36689,-6.82352l-9.39228,22.60005c0,0 -1.41554,-2.90835 -2.52041,-4.01322c-1.07687,-1.07687 -3.24764,-1.67574 -3.24764,-1.67574z" fill="#2a2a2a" stroke="#000000" stroke-width="0.5"/><path d="M275.87505,142.0473l2.30102,-0.01515c0,0 4.33809,1.56448 8.49624,2.33119c1.8256,0.33662 2.95535,-0.5045 3.8771,-0.23719c1.58162,0.45867 3.64776,2.17336 3.64776,2.17336l-3.8898,2.28504c0,0 -5.66928,5.26501 -7.98988,5.3371c-1.13923,0.03539 -2.05332,-0.25334 -1.92997,-1.17058c0.02645,-0.19673 7.42074,-5.90074 7.25292,-6.00106c-2.82957,-1.69159 -11.45552,-3.92802 -11.45552,-3.92802z" fill="url(#color-5)" stroke="#000000" stroke-width="0.5"/><path d="M277.93845,161.87686c-0.36867,-0.92944 -0.19512,-5.4596 -0.19512,-5.4596l41.55333,-27.28467l3.99977,6.39328c0,0 -13.91808,10.5464 -14.80653,11.07013c-1.10784,0.65304 -6.28198,5.07895 -6.51175,5.2328c-0.9005,0.6029 -7.46927,10.52511 -7.46927,10.52511c0,0 -4.86615,1.72371 -6.95963,5.337c-1.49164,2.57455 0.49568,6.24667 0.00283,7.02827c-0.77064,1.2221 -3.78716,4.33214 -4.61522,4.08006c-0.38564,-0.1174 -2.97997,-2.48798 -2.96198,-2.66168c0.1117,-1.07853 3.12199,-5.61335 3.12199,-5.61335c0,0 -4.78876,-7.71541 -5.15843,-8.64736z" fill="url(#color-6)" stroke="#000000" stroke-width="0.25"/><path d="M287.49072,170.07598c0,-3.59374 2.9133,-6.50706 6.50705,-6.50706c3.59374,0 6.50705,2.91331 6.50705,6.50706c0,3.59374 -2.9133,6.50705 -6.50705,6.50705c-3.59374,0 -6.50705,-2.9133 -6.50705,-6.50705z" fill="#2a2a2a" stroke="#000000" stroke-width="0.5"/><path d="M338.49799,159.1786l-15.52982,-33.86622l4.11634,-1.68395l13.84585,31.43384z" fill="#191919" stroke="none" stroke-width="0"/><path d="M324.06962,125.139l-5.14209,-9.29663l2.93004,-1.3779l4.24287,9.61543z" fill="url(#color-7)" stroke="#000000" stroke-width="0.25"/><path d="M322.22818,113.50981c0.18783,1.30178 -0.74818,2.51409 -2.09063,2.7078c-1.34246,0.1937 -2.58299,-0.70457 -2.77083,-2.00635c-0.18783,-1.30178 0.74818,-2.51409 2.09063,-2.7078c1.34246,-0.1937 2.58301,0.70457 2.77083,2.00635z" fill="#000000" stroke="none" stroke-width="0"/><path d="M323.82111,127.44677c-0.30065,-0.10188 -1.00581,-1.44199 -0.92684,-1.77767c0.00757,-0.41325 3.83688,-2.09941 4.38541,-1.9422c0.40906,0.11722 0.99415,1.49365 0.94023,1.70782c-0.08937,0.35503 -4.04975,2.13032 -4.3988,2.01204z" fill="url(#color-8)" stroke="#000000" stroke-width="0.25"/><path d="M327.6042,135.75199c-0.30066,-0.10188 -1.00581,-1.442 -0.92684,-1.77767c0.00757,-0.41325 3.83688,-2.09941 4.38541,-1.9422c0.40906,0.11723 0.99415,1.49365 0.94023,1.70783c-0.08937,0.35503 -4.04975,2.13032 -4.39879,2.01204z" fill="url(#color-9)" stroke="#000000" stroke-width="0.25"/><path d="M270.39258,137.83352c0,0 -0.41092,-0.08667 -0.81262,-0.38467c-0.26726,-0.19826 -0.4947,-0.33495 -0.44273,-0.68332c0.1163,-0.29893 0.08203,-0.45999 1.43931,-0.38671c1.37619,0.0743 1.35838,0.35406 1.34822,0.44596c-0.00201,0.01822 -0.00071,0.15557 -0.09678,0.15973c-0.33348,0.01446 -1.16443,-0.16034 -1.46581,-0.10497c-0.10983,0.02018 -0.28006,0.12405 -0.22229,0.25115c0.08254,0.1816 0.48291,0.29844 0.48291,0.29844c0,0 0.5112,0.05659 0.50024,-0.0126c-0.00405,-0.02555 -0.35095,-0.08104 -0.35095,-0.08104l-0.01997,-0.33425c0,0 0.84286,0.11305 1.05144,0.09246c0.17616,-0.01739 0.19205,-0.29491 0.19205,-0.29491l0.90292,-0.01954c0,0 0.06124,0.71306 0.19354,0.76666c0.04091,0.01657 0.40199,0.10305 0.52741,-0.06299c0.21908,-0.29004 0.10713,-0.93344 0.10327,-0.8345c-0.00131,0.03359 1.31058,-0.02002 1.31058,-0.02002l0.02616,0.20206l3.12312,-0.04404c0,0 -0.08196,0.14575 0.02263,0.16391c0.08187,0.01422 0.67532,0.00233 1.02024,0.07133c0.228,0.04561 0.22423,0.36395 0.16652,0.38752c-0.11093,0.04531 -1.03527,-0.01342 -1.6921,-0.07167c-0.0401,-0.00356 1.48285,0.13019 1.46777,0.40027c-0.00256,0.04577 -0.69642,0.55442 -0.94272,0.58692c-0.10807,0.01426 -1.03019,0.04702 -1.33498,-0.14574c-0.19195,-0.12139 -0.25029,-0.35442 -0.242,-0.39489c0.02709,-0.1322 1.52709,0.05045 1.52709,0.05045c0,0 -1.39592,-0.0908 -1.42459,-0.18088c-0.10097,-0.31727 0.13262,-0.34951 0.13262,-0.34951l-0.30967,-0.0133l-0.76147,0.86715l-0.58264,-0.04532c0,0 0.08781,-0.85024 -0.02839,-0.82025c-0.55607,0.14353 -0.55985,0.37536 -0.60479,0.44251c-0.22844,0.34132 -1.38822,0.4857 -2.08699,0.25655c-0.44138,-0.14475 -0.57078,-0.66348 -0.57078,-0.66348l-0.09981,0.58873z" fill="#ffffff" stroke="#ed2c30" stroke-width="0.2"/><g fill="#490981" stroke="#000000" stroke-width="0.1"><g><path d="M279.3506,135.5061l-0.13634,-0.97029c0,0 0.32708,-0.17475 1.13145,-0.14448c0.72732,0.02737 0.98891,0.1959 0.98891,0.1959l-0.05609,1.02445z"/><path d="M286.49568,135.42314l-0.13634,-0.97029c0,0 0.32708,-0.17475 1.13145,-0.14448c0.72732,0.02737 0.98891,0.1959 0.98891,0.1959l-0.05609,1.02445z"/></g><g><path d="M265.8791,134.79745l-0.06134,-0.9779c0,0 0.33954,-0.14909 1.1392,-0.05706c0.72306,0.08321 0.97092,0.27135 0.97092,0.27135l-0.13469,1.01711z"/><path d="M273.00942,135.26406l-0.06134,-0.9779c0,0 0.33954,-0.14909 1.1392,-0.05706c0.72306,0.08321 0.97092,0.27135 0.97092,0.27135l-0.13469,1.01711z"/></g><g data-paper-data="{&quot;index&quot;:null}"><path d="M298.59814,134.60846l-0.16657,-1.01237c0,0 0.24183,-0.19583 0.96192,-0.30171c0.79637,-0.1171 1.14044,0.02125 1.14044,0.02125l-0.03059,0.97934z"/><path d="M291.486,135.29881l-0.16657,-1.01237c0,0 0.24183,-0.19583 0.96192,-0.30171c0.79637,-0.1171 1.14044,0.02125 1.14044,0.02125l-0.03059,0.97934z"/></g></g><path d="M261.7774,74.84343c0,0 9.35598,-2.6166 17.93787,-1.72803c7.4448,0.77085 14.1259,4.94396 15.84974,6.30361c0.20447,0.16128 1.54655,9.09822 -3.25368,12.46464c-4.80023,3.36642 -7.39077,0.72443 -15.05268,0.37371c-7.02187,-0.32142 -15.69796,-4.19079 -15.77825,-4.86749c-0.47319,-3.98821 0.29698,-12.54646 0.29698,-12.54646z" fill="#afafaf" stroke="#000000" stroke-width="0.25"/><path d="M289.86343,82.87009l10.61713,15.95219l15.08258,8.94663l-1.83635,3.15656c0,0 -11.03912,-3.45079 -16.72887,-7.10218c-5.64361,-3.62178 -12.5552,-14.71804 -12.5552,-14.71804z" fill="#d89856" stroke="#000000" stroke-width="0.25"/><path d="M286.50212,93.30659c0,0 -3.08575,-3.34698 -3.389,-7.54723c-0.16603,-2.2996 1.71045,-3.35601 2.90863,-4.10272c0.99033,-0.61717 2.69092,-0.69079 4.24128,-0.55678c3.42615,0.29614 5.23544,7.87106 5.23544,7.87106z" fill="#afafaf" stroke="#000000" stroke-width="0.25"/><path d="M264.26435,100.25282c-6.77569,13.49442 -14.0427,28.03316 -15.18443,30.49777c-0.3208,0.6925 -4.12823,-6.23018 -4.12823,-6.23018l9.45184,-27.35342c0,0 11.3437,0.13259 9.86084,3.08584z" fill="#d89856" stroke="#000000" stroke-width="0.25"/><path d="M243.36979,131.49014l1.59987,-9.63123l16.47699,7.42509l-0.84204,5.06905z" fill="#636363" stroke="#000000" stroke-width="0.25"/><path d="M251.07907,82.92904c2.86988,-8.08191 10.40956,-8.46991 10.40956,-8.46991c0,0 -0.46898,8.87867 2.09438,12.08194c3.48676,4.35719 0.09582,13.87016 0.19975,14.32312c-0.02966,4.85121 -10.30551,0.79905 -10.30551,0.79905c0,0 -4.77876,-12.03022 -2.39818,-18.7342z" fill="#333333" stroke="#000000" stroke-width="0.25"/><path d="M313.61858,111.32989l1.77173,-3.57466l6.35485,0.73645l2.49999,3.16209l-0.59648,3.80805c0,0 -1.86246,-3.27719 -3.16584,-3.85951c-1.20754,-0.53951 -3.3678,-0.57996 -4.98486,-0.40394c-1.11745,0.12163 -1.8794,0.13152 -1.8794,0.13152z" fill="#383838" stroke="#000000" stroke-width="0.25"/></g></g></svg>