<svg version="1.1" xmlns="http://www.w3.org/2000/svg" xmlns:xlink="http://www.w3.org/1999/xlink" width="102.34554" height="104.58499" viewBox="0,0,102.34554,104.58499"><defs><linearGradient x1="266.3245" y1="180.41037" x2="266.0523" y2="180.24486" gradientUnits="userSpaceOnUse" id="color-1"><stop offset="0" stop-color="#717171"></stop><stop offset="1" stop-color="#9e9e9e"></stop></linearGradient><linearGradient x1="266.91544" y1="180.7209" x2="266.6321" y2="180.57527" gradientUnits="userSpaceOnUse" id="color-2"><stop offset="0" stop-color="#717171"></stop><stop offset="1" stop-color="#9e9e9e"></stop></linearGradient><linearGradient x1="265.55646" y1="179.89457" x2="265.81613" y2="180.07912" gradientUnits="userSpaceOnUse" id="color-3"><stop offset="0" stop-color="#717171"></stop><stop offset="1" stop-color="#9e9e9e"></stop></linearGradient><linearGradient x1="268.0557" y1="181.18214" x2="267.75405" y2="181.07969" gradientUnits="userSpaceOnUse" id="color-4"><stop offset="0" stop-color="#717171"></stop><stop offset="1" stop-color="#9e9e9e"></stop></linearGradient><linearGradient x1="268.69998" y1="181.3569" x2="268.39178" y2="181.27629" gradientUnits="userSpaceOnUse" id="color-5"><stop offset="0" stop-color="#717171"></stop><stop offset="1" stop-color="#9e9e9e"></stop></linearGradient><linearGradient x1="267.19397" y1="180.84546" x2="267.48752" y2="180.96921" gradientUnits="userSpaceOnUse" id="color-6"><stop offset="0" stop-color="#717171"></stop><stop offset="1" stop-color="#9e9e9e"></stop></linearGradient><linearGradient x1="269.91099" y1="181.5287" x2="269.59334" y2="181.50452" gradientUnits="userSpaceOnUse" id="color-7"><stop offset="0" stop-color="#717171"></stop><stop offset="1" stop-color="#9e9e9e"></stop></linearGradient><linearGradient x1="270.57849" y1="181.53772" x2="270.25993" y2="181.5363" gradientUnits="userSpaceOnUse" id="color-8"><stop offset="0" stop-color="#717171"></stop><stop offset="1" stop-color="#9e9e9e"></stop></linearGradient><linearGradient x1="268.9926" y1="181.41697" x2="269.30771" y2="181.4638" gradientUnits="userSpaceOnUse" id="color-9"><stop offset="0" stop-color="#717171"></stop><stop offset="1" stop-color="#9e9e9e"></stop></linearGradient><linearGradient x1="271.80396" y1="181.43213" x2="271.48864" y2="181.47752" gradientUnits="userSpaceOnUse" id="color-10"><stop offset="0" stop-color="#717171"></stop><stop offset="1" stop-color="#9e9e9e"></stop></linearGradient><linearGradient x1="272.45749" y1="181.29595" x2="272.14622" y2="181.36376" gradientUnits="userSpaceOnUse" id="color-11"><stop offset="0" stop-color="#717171"></stop><stop offset="1" stop-color="#9e9e9e"></stop></linearGradient><linearGradient x1="270.88323" y1="181.52253" x2="271.20098" y2="181.49981" gradientUnits="userSpaceOnUse" id="color-12"><stop offset="0" stop-color="#717171"></stop><stop offset="1" stop-color="#9e9e9e"></stop></linearGradient><linearGradient x1="273.65761" y1="180.96694" x2="273.36208" y2="181.08588" gradientUnits="userSpaceOnUse" id="color-13"><stop offset="0" stop-color="#717171"></stop><stop offset="1" stop-color="#9e9e9e"></stop></linearGradient><linearGradient x1="274.26013" y1="180.67952" x2="273.97386" y2="180.81928" gradientUnits="userSpaceOnUse" id="color-14"><stop offset="0" stop-color="#717171"></stop><stop offset="1" stop-color="#9e9e9e"></stop></linearGradient><linearGradient x1="272.78466" y1="181.27332" x2="273.08794" y2="181.17582" gradientUnits="userSpaceOnUse" id="color-15"><stop offset="0" stop-color="#717171"></stop><stop offset="1" stop-color="#9e9e9e"></stop></linearGradient><linearGradient x1="275.31223" y1="180.04233" x2="275.04958" y2="180.22261" gradientUnits="userSpaceOnUse" id="color-16"><stop offset="0" stop-color="#717171"></stop><stop offset="1" stop-color="#9e9e9e"></stop></linearGradient><linearGradient x1="275.83794" y1="179.6309" x2="275.58886" y2="179.82951" gradientUnits="userSpaceOnUse" id="color-17"><stop offset="0" stop-color="#717171"></stop><stop offset="1" stop-color="#9e9e9e"></stop></linearGradient><linearGradient x1="274.52666" y1="180.531" x2="274.80152" y2="180.36995" gradientUnits="userSpaceOnUse" id="color-18"><stop offset="0" stop-color="#717171"></stop><stop offset="1" stop-color="#9e9e9e"></stop></linearGradient><linearGradient x1="266.12163" y1="166.50511" x2="265.8537" y2="166.67746" gradientUnits="userSpaceOnUse" id="color-19"><stop offset="0" stop-color="#717171"></stop><stop offset="1" stop-color="#9e9e9e"></stop></linearGradient><linearGradient x1="266.70452" y1="166.17973" x2="266.42496" y2="166.33248" gradientUnits="userSpaceOnUse" id="color-20"><stop offset="0" stop-color="#717171"></stop><stop offset="1" stop-color="#9e9e9e"></stop></linearGradient><linearGradient x1="265.36689" y1="167.04018" x2="265.62181" y2="166.84912" gradientUnits="userSpaceOnUse" id="color-21"><stop offset="0" stop-color="#717171"></stop><stop offset="1" stop-color="#9e9e9e"></stop></linearGradient><linearGradient x1="267.83275" y1="165.68979" x2="267.53379" y2="165.79983" gradientUnits="userSpaceOnUse" id="color-22"><stop offset="0" stop-color="#717171"></stop><stop offset="1" stop-color="#9e9e9e"></stop></linearGradient><linearGradient x1="268.4724" y1="165.49878" x2="268.16634" y2="165.58716" gradientUnits="userSpaceOnUse" id="color-23"><stop offset="0" stop-color="#717171"></stop><stop offset="1" stop-color="#9e9e9e"></stop></linearGradient><linearGradient x1="266.97981" y1="166.04816" x2="267.27014" y2="165.91702" gradientUnits="userSpaceOnUse" id="color-24"><stop offset="0" stop-color="#717171"></stop><stop offset="1" stop-color="#9e9e9e"></stop></linearGradient><linearGradient x1="269.67867" y1="165.29639" x2="269.36174" y2="165.3286" gradientUnits="userSpaceOnUse" id="color-25"><stop offset="0" stop-color="#717171"></stop><stop offset="1" stop-color="#9e9e9e"></stop></linearGradient><linearGradient x1="270.34574" y1="165.27049" x2="270.02731" y2="165.27996" gradientUnits="userSpaceOnUse" id="color-26"><stop offset="0" stop-color="#717171"></stop><stop offset="1" stop-color="#9e9e9e"></stop></linearGradient><linearGradient x1="268.7634" y1="165.43132" x2="269.07723" y2="165.37653" gradientUnits="userSpaceOnUse" id="color-27"><stop offset="0" stop-color="#717171"></stop><stop offset="1" stop-color="#9e9e9e"></stop></linearGradient><linearGradient x1="271.57349" y1="165.34503" x2="271.25712" y2="165.30764" gradientUnits="userSpaceOnUse" id="color-28"><stop offset="0" stop-color="#717171"></stop><stop offset="1" stop-color="#9e9e9e"></stop></linearGradient><linearGradient x1="272.23025" y1="165.46464" x2="271.91736" y2="165.40472" gradientUnits="userSpaceOnUse" id="color-29"><stop offset="0" stop-color="#717171"></stop><stop offset="1" stop-color="#9e9e9e"></stop></linearGradient><linearGradient x1="270.65076" y1="165.27796" x2="270.96898" y2="165.29264" gradientUnits="userSpaceOnUse" id="color-30"><stop offset="0" stop-color="#717171"></stop><stop offset="1" stop-color="#9e9e9e"></stop></linearGradient><linearGradient x1="273.43831" y1="165.76317" x2="273.13986" y2="165.65175" gradientUnits="userSpaceOnUse" id="color-31"><stop offset="0" stop-color="#717171"></stop><stop offset="1" stop-color="#9e9e9e"></stop></linearGradient><linearGradient x1="274.04791" y1="166.03526" x2="273.75819" y2="165.90279" gradientUnits="userSpaceOnUse" id="color-32"><stop offset="0" stop-color="#717171"></stop><stop offset="1" stop-color="#9e9e9e"></stop></linearGradient><linearGradient x1="272.55788" y1="165.47898" x2="272.86353" y2="165.56878" gradientUnits="userSpaceOnUse" id="color-33"><stop offset="0" stop-color="#717171"></stop><stop offset="1" stop-color="#9e9e9e"></stop></linearGradient><linearGradient x1="275.1158" y1="166.64563" x2="274.84867" y2="166.47205" gradientUnits="userSpaceOnUse" id="color-34"><stop offset="0" stop-color="#717171"></stop><stop offset="1" stop-color="#9e9e9e"></stop></linearGradient><linearGradient x1="275.65174" y1="167.04362" x2="275.39772" y2="166.85138" gradientUnits="userSpaceOnUse" id="color-35"><stop offset="0" stop-color="#717171"></stop><stop offset="1" stop-color="#9e9e9e"></stop></linearGradient><linearGradient x1="274.31811" y1="166.17699" x2="274.59695" y2="166.33103" gradientUnits="userSpaceOnUse" id="color-36"><stop offset="0" stop-color="#717171"></stop><stop offset="1" stop-color="#9e9e9e"></stop></linearGradient><linearGradient x1="262.88629" y1="173.39261" x2="278.17849" y2="173.39261" gradientUnits="userSpaceOnUse" id="color-37"><stop offset="0" stop-color="#717171"></stop><stop offset="1" stop-color="#9e9e9e"></stop></linearGradient><linearGradient x1="268.59066" y1="173.24469" x2="272.37854" y2="173.24469" gradientUnits="userSpaceOnUse" id="color-38"><stop offset="0" stop-color="#303030"></stop><stop offset="1" stop-color="#3d3d3d"></stop></linearGradient></defs><g transform="translate(-238.91656,-84.08759)"><g data-paper-data="{&quot;isPaintingLayer&quot;:true}" fill-rule="nonzero" stroke-linecap="butt" stroke-linejoin="miter" stroke-miterlimit="10" stroke-dasharray="" stroke-dashoffset="0" style="mix-blend-mode: normal"><g stroke-width="0"><g data-paper-data="{&quot;index&quot;:null}" stroke="none"><g><path d="M266.70021,179.79246l-0.75143,1.2358l-0.2722,-0.16551l0.75142,-1.2358z" fill="url(#color-1)"></path><path d="M267.24602,180.07771l-0.66116,1.28636l-0.28334,-0.14562l0.66117,-1.28636z" fill="url(#color-2)"></path><path d="M266.23506,179.48965l-0.83785,1.17892l-0.25967,-0.18455l0.83785,-1.17892z" data-paper-data="{&quot;index&quot;:null}" fill="url(#color-3)"></path></g><g><path d="M268.28824,180.49738l-0.46508,1.3695l-0.30165,-0.10243l0.46508,-1.36951z" fill="url(#color-4)"></path><path d="M268.88297,180.65727l-0.36599,1.39925l-0.3082,-0.08061l0.36599,-1.39926z" fill="url(#color-5)"></path><path d="M267.76842,180.30283l-0.56179,1.33275l-0.29356,-0.12374l0.56179,-1.33276z" data-paper-data="{&quot;index&quot;:null}" fill="url(#color-6)"></path></g><g><g><path d="M269.96589,180.80762l-0.1098,1.44216l-0.31765,-0.02419l0.1098,-1.44215z" fill="url(#color-7)"></path><path d="M270.5817,180.81456l-0.00643,1.44631l-0.31856,-0.00141l0.00642,-1.44631z" fill="url(#color-8)"></path><path d="M269.41402,180.74849l-0.21262,1.43062l-0.31511,-0.04684l0.21262,-1.43061z" data-paper-data="{&quot;index&quot;:null}" fill="url(#color-9)"></path></g><g><path d="M271.70094,180.71634l0.20605,1.43157l-0.31532,0.04538l-0.20605,-1.43157z" fill="url(#color-10)"></path><path d="M272.30356,180.58936l0.30786,1.41318l-0.31127,0.06781l-0.30786,-1.41318z" fill="url(#color-11)"></path><path d="M271.1494,180.77849l0.10318,1.44264l-0.31776,0.02272l-0.10318,-1.44263z" data-paper-data="{&quot;index&quot;:null}" fill="url(#color-12)"></path></g></g><g><g><path d="M273.38762,180.29607l0.53999,1.34174l-0.29553,0.11893l-0.53998,-1.34174z" fill="url(#color-13)"></path><path d="M273.94286,180.02966l0.63452,1.29971l-0.28627,0.13976l-0.63452,-1.29971z" fill="url(#color-14)"></path><path d="M272.8666,180.48736l0.44268,1.37691l-0.30329,0.09751l-0.44268,-1.37691z" data-paper-data="{&quot;index&quot;:null}" fill="url(#color-15)"></path></g><g><path d="M274.90298,179.44611l0.8185,1.19243l-0.26264,0.18029l-0.81851,-1.19243z" fill="url(#color-16)"></path><path d="M275.38711,179.06547l0.90166,1.13087l-0.24909,0.1986l-0.90166,-1.13086z" fill="url(#color-17)"></path><path d="M274.43593,179.746l0.73117,1.24789l-0.27486,0.16106l-0.73118,-1.24789z" data-paper-data="{&quot;index&quot;:null}" fill="url(#color-18)"></path></g></g></g><g stroke="none"><g><path d="M266.24494,167.28566l-0.78246,-1.2164l0.26792,-0.17235l0.78246,1.2164z" fill="url(#color-19)"></path><path d="M266.77171,166.96709l-0.6935,-1.26922l0.27956,-0.15275l0.6935,1.26922z" fill="url(#color-20)"></path><path d="M265.8006,167.61885l-0.86741,-1.15734l0.25492,-0.19106l0.86741,1.15734z" data-paper-data="{&quot;index&quot;:null}" fill="url(#color-21)"></path></g><g><path d="M267.78358,166.47849l-0.49959,-1.3573l0.29896,-0.11004l0.49959,1.35729z" fill="url(#color-22)"></path><path d="M268.36697,166.28193l-0.40127,-1.38954l0.30606,-0.08838l0.40128,1.38954z" fill="url(#color-23)"></path><path d="M267.27748,166.70722l-0.59534,-1.31812l0.29033,-0.13113l0.59534,1.31812z" data-paper-data="{&quot;index&quot;:null}" fill="url(#color-24)"></path></g><g><g><path d="M269.43486,166.04806l-0.14625,-1.43891l0.31694,-0.03222l0.14625,1.43892z" fill="url(#color-25)"></path><path d="M270.04881,166.00281l-0.04302,-1.44568l0.31843,-0.00948l0.04302,1.44569z" fill="url(#color-26)"></path><path d="M268.88777,166.14371l-0.24874,-1.42478l0.31383,-0.05479l0.24874,1.42478z" data-paper-data="{&quot;index&quot;:null}" fill="url(#color-27)"></path></g><g><path d="M271.17224,166.02581l0.16976,-1.43633l0.31637,0.03739l-0.16976,1.43633z" fill="url(#color-28)"></path><path d="M271.78136,166.11499l0.272,-1.42052l0.31288,0.05992l-0.272,1.42051z" fill="url(#color-29)"></path><path d="M270.61744,166.00035l0.06664,-1.44478l0.31823,0.01467l-0.06665,1.44479z" data-paper-data="{&quot;index&quot;:null}" fill="url(#color-30)"></path></g></g><g><g><path d="M272.88693,166.32924l0.50586,-1.35497l0.29845,0.11142l-0.50586,1.35497z" fill="url(#color-31)"></path><path d="M273.45747,166.56047l0.60143,-1.31534l0.28972,0.13247l-0.60143,1.31534z" fill="url(#color-32)"></path><path d="M272.35402,166.17282l0.40771,-1.38768l0.30566,0.0898l-0.40771,1.38768z" data-paper-data="{&quot;index&quot;:null}" fill="url(#color-33)"></path></g><g><path d="M274.45463,167.07842l0.78808,-1.21276l0.26712,0.17359l-0.78808,1.21276z" fill="url(#color-34)"></path><path d="M274.96132,167.42804l0.87277,-1.15332l0.25403,0.19224l-0.87276,1.15332z" fill="url(#color-35)"></path><path d="M273.96843,166.80999l0.69937,-1.266l0.27884,0.15404l-0.69937,1.26599z" data-paper-data="{&quot;index&quot;:null}" fill="url(#color-36)"></path></g></g></g><path d="M262.88629,173.39261c0,-4.22282 3.42328,-7.6461 7.6461,-7.6461c4.22283,0 7.6461,3.42327 7.6461,7.6461c0,4.22283 -3.42327,7.6461 -7.6461,7.6461c-4.22282,0 -7.6461,-3.42327 -7.6461,-7.6461z" fill="url(#color-37)" stroke-opacity="0.99194" stroke="#000000"></path><path d="M268.59066,173.24469c0,-1.046 0.84794,-1.89393 1.89394,-1.89393c1.046,0 1.89394,0.84794 1.89394,1.89393c0,1.046 -0.84794,1.89394 -1.89394,1.89394c-1.046,0 -1.89394,-0.84794 -1.89394,-1.89394z" fill="url(#color-38)" stroke="none"></path></g><path d="M312.74066,146.83398v-7.9531l15.08345,-0.54849l13.43799,6.30763c0,0 -10.60413,-0.54849 -15.3577,-0.54849c-4.75358,0 -13.16374,2.74245 -13.16374,2.74245z" fill="#000000" stroke="none" stroke-width="0"></path><path d="M245.6805,179.47885l-6.76394,-0.78891l40.77365,-26.49368l4.02149,2.98286z" fill="#000000" stroke="none" stroke-width="0"></path><path d="M306.43303,144.36579l-10.4213,-6.85612l13.16374,-3.01669l4.38791,7.67885z" fill="#3b3b3b" stroke="none" stroke-width="0"></path><path d="M288.94359,146.09703l-2.54956,-4.85631c0,0 3.05435,-3.66723 4.8075,-4.58763c1.88019,-0.9871 10.50712,1.31931 10.50712,1.31931l-1.83835,2.38811z" fill="#1e1e1e" stroke="#000000" stroke-width="0"></path><path d="M239.25211,182.26619l-0.0088,-3.60714l46.06388,-0.61582l0.0088,2.78441z" fill="#000000" stroke="none" stroke-width="0"></path><path d="M311.08953,115.56443c0,1.36314 -1.42584,0.82273 -3.52299,0.82273c-2.09716,0 -3.24874,0.26617 -3.24874,-1.09697c0,-1.36314 0.60311,-0.82274 2.70025,-0.82274c2.09716,0 4.07147,-0.26617 4.07147,1.09698z" fill="#7e7e7e" stroke="none" stroke-width="0"></path><path d="M284.49347,181.38881l-3.29094,-29.34418c0,0 15.11857,-8.87085 20.02171,-10.69057c3.04461,-1.12995 6.58002,0.81777 6.58002,0.81777c0,0 4.83118,-0.55351 4.93897,3.29086c0.15137,5.39891 -6.58444,35.37763 -6.58444,35.37763z" fill="#888888" stroke="none" stroke-width="NaN"></path><path d="M282.02526,154.51284c0,0 -15.9568,-4.36592 -19.73465,-5.95659c-4.00797,-1.68757 -6.04436,-6.11017 -6.04436,-6.11017l40.03972,-2.4682z" fill="#545454" stroke="none" stroke-width="0"></path><path d="M322.06498,160.27197l-12.8895,-26.05323l4.9364,-1.91971c0,0 6.18194,13.18317 9.64322,20.56445c4.03717,8.6094 2.42355,5.76303 2.42355,5.76303z" fill="#232323" stroke="none" stroke-width="0"></path><path d="M309.99256,135.31005l-9.05007,-16.45468l5.75914,-3.29094l7.67885,17.8259z" fill="#232323" stroke="none" stroke-width="0"></path><path d="M306.70728,115.5701c0,1.969 -1.71897,3.56518 -3.83943,3.56518c-2.12046,0 -3.83943,-1.59618 -3.83943,-3.56518c0,-1.969 1.71897,-3.56519 3.83943,-3.56519c2.12046,0 3.83943,1.59619 3.83943,3.56519z" fill="#0d0d0d" stroke="none" stroke-width="0"></path><path d="M262.00541,147.93097l-19.74561,-6.03339l14.80921,0.5485l21.66532,10.96979z" fill="#000000" stroke="none" stroke-width="0"></path><path d="M282.57376,153.6901l14.26072,-14.26072c0,0 3.77661,-1.87763 6.3983,-0.88593c5.69008,2.15235 11.15335,4.72536 11.15335,4.72536c0,0 -4.4533,9.61594 -9.78912,14.13487c-1.49746,1.26821 -3.47599,-2.39839 -5.29872,-4.28619c-1.39466,-1.44443 -6.10273,-1.16533 -6.46287,-0.92043c-0.86257,0.58655 7.90954,-6.36799 9.80828,-8.96523c1.27475,-1.74369 -0.32433,-1.33425 -0.32433,-1.33425c0,0 -13.36811,11.77362 -16.07029,12.88344c-2.37461,0.97529 -3.67533,-1.09092 -3.67533,-1.09092z" fill="#141414" stroke="none" stroke-width="0"></path><path d="M296.48393,115.479l-0.25682,-3.98136l5.86923,-2.54531l3.74754,1.48483l1.39093,3.59476c0,0 -3.25337,-1.90376 -4.67315,-1.755c-1.31538,0.13782 -3.20544,1.18474 -4.51692,2.14697c-0.90627,0.66494 -1.56083,1.05511 -1.56083,1.05511z" fill="#383838" stroke="#000000" stroke-width="0.25"></path><path d="M255.66485,108.4296c5.567,-5.3682 5.64623,-5.18637 5.64623,-5.18637l5.53679,1.31818c0,0 4.37606,3.91635 2.36239,5.53483c-0.25353,0.20377 2.95029,6.18617 2.67895,6.38721c-3.89928,5.85684 0.78965,12.85841 3.11067,19.51791c1.0044,2.88187 -18.58324,4.66308 -18.58324,4.66308c0,0 -5.28108,-27.86728 -0.75178,-32.23484z" fill="#afafaf" stroke="#000000" stroke-width="0.25"></path><path d="M265.40788,106.46071l17.37909,7.66017l13.31474,-2.77184l0.43027,4.81966l-13.78942,3.00217l-21.77358,-3.87708z" fill="#d89856" stroke="#000000" stroke-width="0.25"></path><path d="M269.00226,117.83369c0,0 -7.91637,-0.44169 -9.75619,-4.22972c-1.00728,-2.07391 0.34339,-3.75106 1.17905,-4.889c0.6907,-0.94052 2.24263,-1.63977 3.73207,-2.09048c3.29152,-0.99602 8.35421,2.92997 8.35421,2.92997c0,0 -1.8223,2.00209 -2.43336,3.4438c-0.5528,1.30424 -1.07578,4.83543 -1.07578,4.83543z" fill="#afafaf" stroke="#000000" stroke-width="0.25"></path><path d="M280.16279,183.43942l2.83727,-9.34184l15.373,9.50231l-1.4933,4.91675z" fill="#636363" stroke="#000000" stroke-width="0.25"></path><path d="M290.41614,144.40685c-0.14486,15.09928 -0.27125,31.35254 -0.21171,34.06811c0.01673,0.76301 -6.44896,-3.77734 -6.44896,-3.77734l-3.55187,-28.72161c0,0 10.24426,-4.87362 10.21255,-1.56915z" fill="#d89856" stroke="#000000" stroke-width="0.25"></path><path d="M275.8625,94.35508c0,0.69346 2.21825,1.68677 2.18147,2.33587c-0.04218,0.74414 -2.4075,0.96797 -2.62375,1.62176c-1.09203,3.30153 -2.07685,5.84704 -6.46662,5.84704c-6.01734,0 -10.25752,-14.90733 -10.25752,-14.90733l10.25752,-5.02093c0,0 6.90891,4.62056 6.90891,10.12359z" fill="#d89856" stroke="#000000" stroke-width="0.25"></path><path d="M254.69373,141.43488c0,0 18.34781,-13.85972 20.66882,-7.20022c2.54531,0.5705 11.84438,0.09551 14.50912,7.07281c2.66475,6.97731 -5.60244,6.10572 -5.60244,6.10572z" fill="#333333" stroke="#000000" stroke-width="0.25"></path></g></g></svg>