<svg version="1.1" xmlns="http://www.w3.org/2000/svg" xmlns:xlink="http://www.w3.org/1999/xlink" width="47.46766" height="47.46766" viewBox="0,0,47.46766,47.46766"><g transform="translate(-216.26617,-156.26617)"><g data-paper-data="{&quot;isPaintingLayer&quot;:true}" fill-rule="nonzero" stroke="#000000" stroke-linecap="butt" stroke-linejoin="miter" stroke-miterlimit="10" stroke-dasharray="" stroke-dashoffset="0" style="mix-blend-mode: normal"><path d="M222.26617,180c0,-9.79413 7.9397,-17.73383 17.73383,-17.73383c9.79413,0 17.73383,7.9397 17.73383,17.73383c0,9.79413 -7.9397,17.73383 -17.73383,17.73383c-9.79412,0 -17.73383,-7.9397 -17.73383,-17.73383z" fill="#6b6b6b" stroke-width="12"></path><g fill="#7d7d7d" stroke-width="0.1"><path d="M231.31649,176.93437c0,-1.32316 1.07264,-2.39578 2.39578,-2.39578c1.32316,0 2.3958,1.07264 2.3958,2.39578c0,1.32316 -1.07264,2.3958 -2.3958,2.3958c-1.32316,0 -2.39578,-1.07264 -2.39578,-2.3958z"></path><path d="M237.63267,173.44958c0,-1.32316 1.07264,-2.3958 2.3958,-2.3958c1.32316,0 2.3958,1.07264 2.3958,2.3958c0,1.32316 -1.07264,2.3958 -2.3958,2.3958c-1.32316,0 -2.3958,-1.07264 -2.3958,-2.3958z"></path><path d="M244.16666,176.49877c0,-1.32316 1.07264,-2.39578 2.3958,-2.39578c1.32316,0 2.3958,1.07264 2.3958,2.39578c0,1.32316 -1.07264,2.3958 -2.3958,2.3958c-1.32316,0 -2.3958,-1.07264 -2.3958,-2.3958z"></path></g><g data-paper-data="{&quot;index&quot;:null}" fill="#7d7d7d" stroke-width="0.1"><path d="M233.43755,180.66985c1.32316,0 2.3958,1.07264 2.3958,2.3958c0,1.32316 -1.07264,2.3958 -2.3958,2.3958c-1.32316,0 -2.3958,-1.07264 -2.3958,-2.3958c0,-1.32316 1.07264,-2.3958 2.3958,-2.3958z"></path><path d="M239.75373,184.15465c1.32316,0 2.3958,1.07264 2.3958,2.3958c0,1.32316 -1.07264,2.3958 -2.3958,2.3958c-1.32316,0 -2.3958,-1.07264 -2.3958,-2.3958c0,-1.32316 1.07264,-2.3958 2.3958,-2.3958z"></path><path d="M246.28771,181.10545c1.32316,0 2.3958,1.07264 2.3958,2.3958c0,1.32316 -1.07264,2.39578 -2.3958,2.39578c-1.32316,0 -2.3958,-1.07264 -2.3958,-2.39578c0,-1.32316 1.07264,-2.3958 2.3958,-2.3958z"></path></g><g fill="#7d7d7d" stroke-width="0.1"><path d="M231.31649,176.93437c0,-1.32316 1.07264,-2.39578 2.3958,-2.39578c1.32317,0 2.3958,1.07264 2.3958,2.39578c0,1.32316 -1.07264,2.3958 -2.3958,2.3958c-1.32317,0 -2.3958,-1.07264 -2.3958,-2.3958z"></path><path d="M237.63267,173.44958c0,-1.32316 1.07264,-2.3958 2.3958,-2.3958c1.32316,0 2.3958,1.07264 2.3958,2.3958c0,1.32316 -1.07264,2.3958 -2.3958,2.3958c-1.32317,0 -2.3958,-1.07264 -2.3958,-2.3958z"></path><path d="M244.16667,176.49877c0,-1.32316 1.07264,-2.39578 2.3958,-2.39578c1.32316,0 2.3958,1.07264 2.3958,2.39578c0,1.32316 -1.07262,2.3958 -2.3958,2.3958c-1.32317,0 -2.3958,-1.07264 -2.3958,-2.3958z"></path></g><g data-paper-data="{&quot;index&quot;:null}" fill="#7d7d7d" stroke-width="0.1"><path d="M233.43754,180.66986c1.32317,0 2.3958,1.07264 2.3958,2.3958c0,1.32316 -1.07264,2.3958 -2.3958,2.3958c-1.32317,0 -2.3958,-1.07262 -2.3958,-2.3958c0,-1.32316 1.07262,-2.3958 2.3958,-2.3958z"></path><path d="M239.75373,184.15465c1.32317,0 2.3958,1.07264 2.3958,2.3958c0,1.32316 -1.07264,2.3958 -2.3958,2.3958c-1.32317,0 -2.3958,-1.07264 -2.3958,-2.3958c0,-1.32316 1.07264,-2.3958 2.3958,-2.3958z"></path><path d="M246.28771,181.10546c1.32317,0 2.3958,1.07264 2.3958,2.3958c0,1.32316 -1.07264,2.3958 -2.3958,2.3958c-1.32317,0 -2.3958,-1.07264 -2.3958,-2.3958c0,-1.32316 1.07264,-2.3958 2.3958,-2.3958z"></path></g><g fill="#7d7d7d" stroke-width="0.1"><path d="M231.31649,176.93437c0,-1.32316 1.07264,-2.39578 2.3958,-2.39578c1.32317,0 2.3958,1.07264 2.3958,2.39578c0,1.32316 -1.07264,2.3958 -2.3958,2.3958c-1.32317,0 -2.3958,-1.07264 -2.3958,-2.3958z"></path><path d="M237.63267,173.44958c0,-1.32316 1.07264,-2.3958 2.3958,-2.3958c1.32316,0 2.3958,1.07264 2.3958,2.3958c0,1.32316 -1.07264,2.3958 -2.3958,2.3958c-1.32317,0 -2.3958,-1.07264 -2.3958,-2.3958z"></path><path d="M244.16667,176.49877c0,-1.32316 1.07264,-2.39578 2.3958,-2.39578c1.32316,0 2.3958,1.07264 2.3958,2.39578c0,1.32316 -1.07262,2.3958 -2.3958,2.3958c-1.32317,0 -2.3958,-1.07264 -2.3958,-2.3958z"></path></g><g data-paper-data="{&quot;index&quot;:null}" fill="#7d7d7d" stroke-width="0.1"><path d="M233.43754,180.66986c1.32317,0 2.3958,1.07264 2.3958,2.3958c0,1.32316 -1.07264,2.3958 -2.3958,2.3958c-1.32317,0 -2.3958,-1.07262 -2.3958,-2.3958c0,-1.32316 1.07262,-2.3958 2.3958,-2.3958z"></path><path d="M239.75373,184.15465c1.32317,0 2.3958,1.07264 2.3958,2.3958c0,1.32316 -1.07264,2.3958 -2.3958,2.3958c-1.32317,0 -2.3958,-1.07264 -2.3958,-2.3958c0,-1.32316 1.07264,-2.3958 2.3958,-2.3958z"></path><path d="M246.28771,181.10546c1.32317,0 2.3958,1.07264 2.3958,2.3958c0,1.32316 -1.07264,2.3958 -2.3958,2.3958c-1.32317,0 -2.3958,-1.07264 -2.3958,-2.3958c0,-1.32316 1.07264,-2.3958 2.3958,-2.3958z"></path></g></g></g></svg>