<svg version="1.1" xmlns="http://www.w3.org/2000/svg" xmlns:xlink="http://www.w3.org/1999/xlink" width="91.2721" height="107.14539" viewBox="0,0,91.2721,107.14539"><defs><linearGradient x1="323.46991" y1="151.81918" x2="326.99282" y2="151.81918" gradientUnits="userSpaceOnUse" id="color-1"><stop offset="0" stop-color="#2b2b2b"></stop><stop offset="1" stop-color="#515151"></stop></linearGradient></defs><g transform="translate(-237.63431,-82.19429)"><g data-paper-data="{&quot;isPaintingLayer&quot;:true}" fill-rule="nonzero" stroke-linejoin="miter" stroke-miterlimit="10" stroke-dasharray="" stroke-dashoffset="0" style="mix-blend-mode: normal"><path d="M326.38497,151.15525l-1.95428,-5.07415l2.61549,-1.01416l1.7985,4.51423z" fill="url(#color-1)" stroke="#000000" stroke-width="0.1" stroke-linecap="butt"></path><path d="M324.44608,146.24432l-2.18887,-3.18741c0,0 -0.85997,-0.00853 -1.30869,-1.01346c-0.10985,-0.66185 -0.34266,-1.19345 -0.07288,-1.5387c0.7788,-0.99669 3.00591,-0.83199 3.00591,-0.83199l0.6177,1.16937c0,0 0.86011,-0.16765 1.40028,0.11543c0.41982,0.22 0.5407,0.88134 0.59304,1.01933c0.23318,0.79675 0.61149,2.16228 0.71976,2.91113c-0.21882,0.55559 -2.76623,1.35631 -2.76623,1.35631z" fill="#1a1a1a" stroke="#000000" stroke-width="0.25" stroke-linecap="butt"></path><path d="M270.27869,159.53716l-0.32869,-2.87599c0,0 15.34567,-8.91164 23.29851,-12.97553c6.93757,-3.54509 20.64666,-9.98917 24.79587,-11.86901c0.7704,-0.34904 1.29057,-0.38204 1.29057,-0.38204c0,0 -5.07502,5.52923 -6.46897,5.914c-3.7087,1.02372 -39.45616,20.244 -39.7113,20.79167c-0.20039,0.43014 -2.87599,1.39691 -2.87599,1.39691z" fill="#d7d9d6" stroke="#000000" stroke-width="0.25" stroke-linecap="butt"></path><path d="M271.71257,163.68329l-4.37227,-14.78607l2.46911,0.029l4.19432,14.07428z" fill="#1a1a1a" stroke="#000000" stroke-width="0.25" stroke-linecap="butt"></path><path d="M319.09969,132.03423l-2.63067,-4.66862l2.62742,-1.54542l2.27478,6.21084z" fill="#1a1a1a" stroke="#000000" stroke-width="0.25" stroke-linecap="butt"></path><path d="M240.61205,182.76128l-0.11439,-0.30405c0,0 -1.48771,-0.15022 -1.17516,-0.42432c0.33858,-0.29694 0.64174,0.05451 1.07815,-0.42562c0.11985,-0.13186 -0.00437,-0.65798 -0.52404,-0.9295c-0.48643,-0.25416 -1.06804,-0.25879 -1.06804,-0.25879c0,0 -0.63476,0.36848 -1.02877,-0.42597c-0.14219,-0.28669 0.47151,-1.02435 1.34907,-1.86753c5.83868,-5.60994 31.1023,-21.61088 31.1023,-21.61088c0,0 1.08806,3.02614 0.71598,3.24459c-0.49975,0.29341 -30.38552,18.94215 -30.45412,19.63569c-0.00474,0.0479 0.14581,1.09474 0.77323,1.31689c2.00609,0.71032 30.1377,5.27557 31.39196,5.20562c1.64927,-0.09198 4.3049,-1.45002 4.57375,-1.43367c0.1909,0.01161 28.62416,-35.81303 35.24614,-45.3243c0.92625,-1.33039 0.68926,-1.65455 0.66426,-1.81042c-0.05078,-0.31662 3.40222,-4.32257 5.63579,-5.72815c0.32716,-0.20588 1.03264,0.25471 1.48865,0.37955c0.43913,0.12022 1.10976,-0.21743 1.10976,-0.21743c0,0 2.97247,7.14351 2.97123,7.33127c-0.00385,0.58361 -2.57358,1.57364 -2.57358,1.57364c0,0 -0.84796,0.05784 -1.27283,0.08914c-0.47282,0.03484 -1.31006,0.23601 -1.31006,0.23601c0,0 -3.34369,1.97149 -3.33676,1.98035c0.41766,0.53438 -24.5563,32.91523 -32.32908,41.49456c-0.53693,0.59264 -1.4923,0.20876 -2.64691,0.6239c-1.20046,0.43163 -2.59088,1.65069 -2.59088,1.65069c0,0 -3.95399,2.46031 -4.47433,2.45211c-0.41522,-0.00655 -33.20129,-6.45338 -33.20129,-6.45338z" fill="#d7d9d6" stroke="#000000" stroke-width="0.25" stroke-linecap="butt"></path><path d="M238.46267,180c0,-0.84904 0.68829,-1.53733 1.53733,-1.53733c0.84904,0 1.53733,0.68829 1.53733,1.53733c0,0.84904 -0.68829,1.53733 -1.53733,1.53733c-0.84904,0 -1.53733,-0.68829 -1.53733,-1.53733z" fill="#212121" stroke="none" stroke-width="0" stroke-linecap="butt"></path><path d="M277.19701,184.36482l-9.57512,-33.34312l3.29824,-0.78182l9.41077,30.46712z" fill="#d7d9d6" stroke="#000000" stroke-width="0.25" stroke-linecap="butt"></path><g data-paper-data="{&quot;index&quot;:null}" fill="#404040" stroke="#000000" stroke-width="0.25" stroke-linecap="butt"><path d="M276.43195,164.72492c0,0 -4.73197,1.93453 -4.99118,1.78363c-0.2602,-0.15148 -0.79727,-1.56394 -0.62183,-2.12679c0.12902,-0.4139 4.7309,-1.93767 4.7309,-1.93767z"></path><path d="M277.79427,168.97813c0,0 -4.73197,1.93453 -4.99118,1.78363c-0.2602,-0.15148 -0.79727,-1.56395 -0.62184,-2.1268c0.12902,-0.4139 4.7309,-1.93767 4.7309,-1.93767z"></path><path d="M278.90896,172.53059c0,0 -4.73197,1.93453 -4.99118,1.78363c-0.2602,-0.15148 -0.79727,-1.56395 -0.62184,-2.1268c0.12902,-0.4139 4.7309,-1.93767 4.7309,-1.93767z"></path><path d="M280.27128,176.7838c0,0 -4.73197,1.93453 -4.99118,1.78363c-0.2602,-0.15148 -0.79727,-1.56395 -0.62184,-2.1268c0.12902,-0.4139 4.7309,-1.93767 4.7309,-1.93767z"></path></g><path d="M267.27207,151.34328c-0.46962,-0.00624 -0.76841,-0.90861 -0.36865,-1.17614c0.39976,-0.26753 3.59932,-1.30345 3.99891,-1.2534c0.46823,0.05865 0.36865,1.17615 0.36865,1.17615c0,0 -3.77069,1.25642 -3.99892,1.25339z" fill="#242424" stroke="#000000" stroke-width="0.25" stroke-linecap="butt"></path><path d="M274.13759,145.95728c-0.30359,0.01735 -1.12745,1.79814 -1.87364,2.05864c-0.57945,0.20228 -6.22056,1.02311 -7.41761,0.73343c-0.92016,-0.22267 -1.89794,-1.83678 -1.89794,-1.83678" fill="none" stroke="#000000" stroke-width="1" stroke-linecap="round"></path><path d="M257.52654,144.69259c0.2156,-0.46054 1.13296,-0.6602 1.13296,-0.6602c0,0 4.43635,0.28681 7.06458,0.30628c3.66982,0.0272 12.59334,-0.24377 12.59334,-0.24377c0,0 1.71656,0.20242 1.51891,1.42469c0.30258,0.71495 -2.35504,0.26281 -5.60847,0.44301c-3.18673,0.17652 -5.72955,1.8038 -5.72955,1.8038c0,0 -2.19548,0.49531 -3.50491,0.39736c-0.90219,-0.06749 -1.74278,-0.49519 -2.32223,-0.53345c-0.09444,-0.00624 -1.95046,-0.31295 -2.59435,-0.7173c-0.64086,-0.40245 -0.75201,-0.90242 -1.12235,-0.96074c-1.24708,-0.1964 -1.83028,-0.71273 -1.42795,-1.25967z" fill="#444444" stroke="#000000" stroke-width="0.25" stroke-linecap="butt"></path><path d="M314.05622,125.1903c0,-1.42503 1.15521,-2.58024 2.58025,-2.58024c1.42504,0 2.58024,1.15521 2.58024,2.58024c0,1.42503 -1.15521,2.58025 -2.58024,2.58025c-1.42504,0 -2.58025,-1.15521 -2.58025,-2.58025z" fill="#070707" stroke="#000000" stroke-width="0" stroke-linecap="butt"></path><g fill="#404040" stroke="#000000" stroke-width="0.25" stroke-linecap="butt"><path d="M276.57108,158.48025c0,0 -2.40552,-4.20865 -2.22494,-4.60278c0.24557,-0.53598 1.58896,-1.22795 1.88376,-1.16679c0.29369,0.06094 2.52152,4.6621 2.52152,4.6621z"></path><path d="M280.42661,156.22626c0,0 -2.40553,-4.20864 -2.22494,-4.60278c0.24557,-0.53599 1.58896,-1.22795 1.88376,-1.16679c0.29368,0.06093 2.52152,4.66211 2.52152,4.66211z"></path><path d="M283.62967,154.32814c0,0 -2.40553,-4.20864 -2.22494,-4.60278c0.24557,-0.53599 1.58896,-1.22795 1.88376,-1.16679c0.29368,0.06093 2.52152,4.66211 2.52152,4.66211z"></path><path d="M287.4852,152.07414c0,0 -2.40553,-4.20864 -2.22494,-4.60278c0.24557,-0.53599 1.58896,-1.22795 1.88376,-1.16679c0.29368,0.06093 2.52152,4.66211 2.52152,4.66211z"></path></g><g fill="#404040" stroke="#000000" stroke-width="0.25" stroke-linecap="butt"><path d="M290.96895,150.35574c0,0 -2.22506,-4.30678 -2.02795,-4.69291c0.26805,-0.5251 1.63955,-1.15953 1.9315,-1.08594c0.29084,0.07332 2.32174,4.76474 2.32174,4.76474z"></path><path d="M294.91651,148.2671c0,0 -2.22506,-4.30678 -2.02795,-4.69291c0.26805,-0.5251 1.63956,-1.15953 1.9315,-1.08594c0.29084,0.07332 2.32174,4.76474 2.32174,4.76474z"></path><path d="M298.19711,146.5064c0,0 -2.22506,-4.30678 -2.02795,-4.69291c0.26805,-0.5251 1.63956,-1.15953 1.9315,-1.08594c0.29084,0.07332 2.32174,4.76474 2.32174,4.76474z"></path><path d="M302.14468,144.41776c0,0 -2.22506,-4.30678 -2.02795,-4.69291c0.26805,-0.5251 1.63956,-1.15953 1.9315,-1.08594c0.29084,0.07332 2.32174,4.76474 2.32174,4.76474z"></path></g><path d="M307.41102,144.59304c0,0 4.70312,3.56193 4.68925,4.08938c-0.01885,0.71727 -1.19204,2.13357 -1.55126,2.20593c-0.35785,0.07208 -5.04957,-4.01411 -5.04957,-4.01411z" fill="#404040" stroke="#000000" stroke-width="0.25" stroke-linecap="butt"></path><path d="M301.49327,152.61262c0,0 4.70312,3.56193 4.68925,4.08938c-0.01885,0.71727 -1.19205,2.13357 -1.55126,2.20593c-0.35785,0.07208 -5.04957,-4.01411 -5.04957,-4.01411z" fill="#404040" stroke="#000000" stroke-width="0.25" stroke-linecap="butt"></path><path d="M296.08169,159.77789c0,0 4.70312,3.56193 4.68925,4.08938c-0.01884,0.71728 -1.19205,2.13357 -1.55126,2.20592c-0.35785,0.07208 -5.04957,-4.01411 -5.04957,-4.01411z" fill="#404040" stroke="#000000" stroke-width="0.25" stroke-linecap="butt"></path><path d="M289.80804,167.56025c0,0 4.7031,3.56193 4.68925,4.08938c-0.01884,0.71728 -1.19205,2.13358 -1.55126,2.20593c-0.35785,0.07208 -5.04957,-4.01411 -5.04957,-4.01411z" fill="#404040" stroke="#000000" stroke-width="0.25" stroke-linecap="butt"></path><path d="M280.78076,178.70546c-1.15484,0.07736 -7.08726,-19.92585 -6.66642,-20.6053c0.63076,-1.01833 37.09615,-19.89221 37.57437,-19.84775c0.88473,0.08225 -0.90906,2.72717 -0.90906,2.72717c0,0 -28.7283,37.64077 -29.99888,37.72588z" fill="#404040" stroke="#000000" stroke-width="0.25" stroke-linecap="butt"></path><path d="M267.98579,84.71268c0,0 9.26606,-2.91909 17.87228,-2.30972c7.46591,0.52865 14.27902,4.48256 16.04611,5.7855c0.2096,0.15455 1.84123,9.04319 -2.84713,12.56374c-4.68836,3.52055 -7.36334,0.96409 -15.0326,0.86241c-7.0286,-0.09319 -15.82579,-3.67873 -15.92802,-4.35246c-0.60247,-3.97074 -0.11067,-12.54949 -0.11067,-12.54949z" fill="#afafaf" stroke="#000000" stroke-width="0.25" stroke-linecap="butt"></path><path d="M312.02343,120.03317l6.38062,-0.46285l3.04635,2.6398l0.12491,3.85245c0,0 -2.44152,-2.87188 -3.83069,-3.20065c-1.28703,-0.3046 -3.41686,0.05895 -4.97263,0.53376c-1.0751,0.3281 -1.95567,-0.05536 -1.95567,-0.05536z" fill="#383838" stroke="#000000" stroke-width="0.25" stroke-linecap="butt"></path><path d="M296.77133,93.89005l6.71087,18.73569l8.48519,7.32598l-0.78148,3.67647c0,0 -8.45032,-3.60081 -13.98408,-6.93073c-0.20464,-0.17547 -6.65887,-17.37888 -6.65887,-17.37888z" fill="#d89856" stroke="#000000" stroke-width="0.25" stroke-linecap="butt"></path><path d="M290.9328,103.22823c0,0 -2.59498,-3.74034 -2.31642,-7.9423c0.15251,-2.30053 2.15668,-3.08823 3.44634,-3.66267c1.06594,-0.47479 2.76044,-0.31331 4.27754,0.0331c3.35263,0.76554 4.10063,8.51753 4.10063,8.51753z" fill="#afafaf" stroke="#000000" stroke-width="0.25" stroke-linecap="butt"></path><path d="M272.51398,105.87343c-3.50785,14.68687 -7.255,30.50279 -7.80244,33.16328c-0.15382,0.74753 -5.4444,-5.12015 -5.4444,-5.12015l2.94151,-28.79052c0,0 11.07303,-2.4668 10.30533,0.74742z" fill="#d89856" stroke="#000000" stroke-width="0.25" stroke-linecap="butt"></path><path d="M258.56584,143.77844l0.17218,-9.76168l17.38671,4.93206l-0.09062,5.13772z" fill="#636363" stroke="#000000" stroke-width="0.25" stroke-linecap="butt"></path><path d="M256.82333,90.6651c4.58519,-7.24772 12.02416,-6.22739 12.02416,-6.22739c0,0 -2.41977,8.82314 -0.6278,12.51375c2.43749,5.02008 4.32228,7.73125 4.32353,8.19598c0.01999,7.46882 -10.55869,2.16151 -10.55869,2.16151c0,0 -8.96464,-10.63183 -5.1612,-16.64385z" fill="#333333" stroke="#000000" stroke-width="0.25" stroke-linecap="butt"></path></g></g></svg>