<svg version="1.1" xmlns="http://www.w3.org/2000/svg" xmlns:xlink="http://www.w3.org/1999/xlink" width="66.46964" height="66.46964" viewBox="0,0,66.46964,66.46964"><defs><radialGradient cx="230.35254" cy="175.42105" r="11.85327" gradientUnits="userSpaceOnUse" id="color-1"><stop offset="0" stop-color="#000000"></stop><stop offset="1" stop-color="#2d2d2d"></stop></radialGradient><radialGradient cx="228.40057" cy="177.64477" r="11.85329" gradientUnits="userSpaceOnUse" id="color-2"><stop offset="0" stop-color="#000000"></stop><stop offset="1" stop-color="#2d2d2d"></stop></radialGradient><radialGradient cx="229.01154" cy="175.37755" r="11.85329" gradientUnits="userSpaceOnUse" id="color-3"><stop offset="0" stop-color="#000000"></stop><stop offset="1" stop-color="#2d2d2d"></stop></radialGradient><radialGradient cx="229.29255" cy="178.32305" r="11.85331" gradientUnits="userSpaceOnUse" id="color-4"><stop offset="0" stop-color="#000000"></stop><stop offset="1" stop-color="#2d2d2d"></stop></radialGradient><radialGradient cx="230.96914" cy="184.72543" r="11.85327" gradientUnits="userSpaceOnUse" id="color-5"><stop offset="0" stop-color="#000000"></stop><stop offset="1" stop-color="#2d2d2d"></stop></radialGradient><radialGradient cx="229.01468" cy="182.50392" r="11.85329" gradientUnits="userSpaceOnUse" id="color-6"><stop offset="0" stop-color="#000000"></stop><stop offset="1" stop-color="#2d2d2d"></stop></radialGradient><radialGradient cx="229.62819" cy="184.77044" r="11.85329" gradientUnits="userSpaceOnUse" id="color-7"><stop offset="0" stop-color="#000000"></stop><stop offset="1" stop-color="#2d2d2d"></stop></radialGradient><radialGradient cx="229.90589" cy="181.82464" r="11.85331" gradientUnits="userSpaceOnUse" id="color-8"><stop offset="0" stop-color="#000000"></stop><stop offset="1" stop-color="#2d2d2d"></stop></radialGradient><radialGradient cx="244.36695" cy="170.81448" r="11.85327" gradientUnits="userSpaceOnUse" id="color-9"><stop offset="0" stop-color="#000000"></stop><stop offset="1" stop-color="#2d2d2d"></stop></radialGradient><radialGradient cx="242.14433" cy="168.86126" r="11.85329" gradientUnits="userSpaceOnUse" id="color-10"><stop offset="0" stop-color="#000000"></stop><stop offset="1" stop-color="#2d2d2d"></stop></radialGradient><radialGradient cx="244.41121" cy="169.47349" r="11.85329" gradientUnits="userSpaceOnUse" id="color-11"><stop offset="0" stop-color="#000000"></stop><stop offset="1" stop-color="#2d2d2d"></stop></radialGradient><radialGradient cx="241.46555" cy="169.75286" r="11.85331" gradientUnits="userSpaceOnUse" id="color-12"><stop offset="0" stop-color="#000000"></stop><stop offset="1" stop-color="#2d2d2d"></stop></radialGradient><radialGradient cx="235.06223" cy="171.42585" r="11.85327" gradientUnits="userSpaceOnUse" id="color-13"><stop offset="0" stop-color="#000000"></stop><stop offset="1" stop-color="#2d2d2d"></stop></radialGradient><radialGradient cx="237.28484" cy="169.47263" r="11.85329" gradientUnits="userSpaceOnUse" id="color-14"><stop offset="0" stop-color="#000000"></stop><stop offset="1" stop-color="#2d2d2d"></stop></radialGradient><radialGradient cx="235.01797" cy="170.08485" r="11.85329" gradientUnits="userSpaceOnUse" id="color-15"><stop offset="0" stop-color="#000000"></stop><stop offset="1" stop-color="#2d2d2d"></stop></radialGradient><radialGradient cx="237.96362" cy="170.36421" r="11.85331" gradientUnits="userSpaceOnUse" id="color-16"><stop offset="0" stop-color="#000000"></stop><stop offset="1" stop-color="#2d2d2d"></stop></radialGradient><radialGradient cx="235.2071" cy="188.97529" r="11.85327" gradientUnits="userSpaceOnUse" id="color-17"><stop offset="0" stop-color="#000000"></stop><stop offset="1" stop-color="#2d2d2d"></stop></radialGradient><radialGradient cx="237.42972" cy="190.92848" r="11.85329" gradientUnits="userSpaceOnUse" id="color-18"><stop offset="0" stop-color="#000000"></stop><stop offset="1" stop-color="#2d2d2d"></stop></radialGradient><radialGradient cx="235.16284" cy="190.31627" r="11.85329" gradientUnits="userSpaceOnUse" id="color-19"><stop offset="0" stop-color="#000000"></stop><stop offset="1" stop-color="#2d2d2d"></stop></radialGradient><radialGradient cx="238.1085" cy="190.03691" r="11.85331" gradientUnits="userSpaceOnUse" id="color-20"><stop offset="0" stop-color="#000000"></stop><stop offset="1" stop-color="#2d2d2d"></stop></radialGradient><radialGradient cx="244.51181" cy="188.36392" r="11.85327" gradientUnits="userSpaceOnUse" id="color-21"><stop offset="0" stop-color="#000000"></stop><stop offset="1" stop-color="#2d2d2d"></stop></radialGradient><radialGradient cx="242.28921" cy="190.31713" r="11.85329" gradientUnits="userSpaceOnUse" id="color-22"><stop offset="0" stop-color="#000000"></stop><stop offset="1" stop-color="#2d2d2d"></stop></radialGradient><radialGradient cx="244.55608" cy="189.7049" r="11.85329" gradientUnits="userSpaceOnUse" id="color-23"><stop offset="0" stop-color="#000000"></stop><stop offset="1" stop-color="#2d2d2d"></stop></radialGradient><radialGradient cx="241.61043" cy="189.42555" r="11.85331" gradientUnits="userSpaceOnUse" id="color-24"><stop offset="0" stop-color="#000000"></stop><stop offset="1" stop-color="#2d2d2d"></stop></radialGradient><radialGradient cx="249.22151" cy="184.36871" r="11.85327" gradientUnits="userSpaceOnUse" id="color-25"><stop offset="0" stop-color="#000000"></stop><stop offset="1" stop-color="#2d2d2d"></stop></radialGradient><radialGradient cx="251.17348" cy="182.14499" r="11.8533" gradientUnits="userSpaceOnUse" id="color-26"><stop offset="0" stop-color="#000000"></stop><stop offset="1" stop-color="#2d2d2d"></stop></radialGradient><radialGradient cx="250.56251" cy="184.41223" r="11.85329" gradientUnits="userSpaceOnUse" id="color-27"><stop offset="0" stop-color="#000000"></stop><stop offset="1" stop-color="#2d2d2d"></stop></radialGradient><radialGradient cx="250.2815" cy="181.46672" r="11.85331" gradientUnits="userSpaceOnUse" id="color-28"><stop offset="0" stop-color="#000000"></stop><stop offset="1" stop-color="#2d2d2d"></stop></radialGradient><radialGradient cx="248.60491" cy="175.06433" r="11.85327" gradientUnits="userSpaceOnUse" id="color-29"><stop offset="0" stop-color="#000000"></stop><stop offset="1" stop-color="#2d2d2d"></stop></radialGradient><radialGradient cx="250.55937" cy="177.28586" r="11.8533" gradientUnits="userSpaceOnUse" id="color-30"><stop offset="0" stop-color="#000000"></stop><stop offset="1" stop-color="#2d2d2d"></stop></radialGradient><radialGradient cx="249.94587" cy="175.01933" r="11.85329" gradientUnits="userSpaceOnUse" id="color-31"><stop offset="0" stop-color="#000000"></stop><stop offset="1" stop-color="#2d2d2d"></stop></radialGradient><radialGradient cx="249.66816" cy="177.96512" r="11.85331" gradientUnits="userSpaceOnUse" id="color-32"><stop offset="0" stop-color="#000000"></stop><stop offset="1" stop-color="#2d2d2d"></stop></radialGradient><radialGradient cx="239.66839" cy="179.63349" r="3.51538" gradientUnits="userSpaceOnUse" id="color-33"><stop offset="0" stop-color="#2a2a2a"></stop><stop offset="1" stop-color="#191919"></stop></radialGradient></defs><g transform="translate(-206.76518,-146.76518)"><g data-paper-data="{&quot;isPaintingLayer&quot;:true}" fill-rule="nonzero" stroke-linejoin="miter" stroke-miterlimit="10" stroke-dasharray="" stroke-dashoffset="0" style="mix-blend-mode: normal"><g><g fill="none" stroke-width="0.35" stroke-linecap="round"><g><g><path d="M220.6745,161.98376l17.0714,23.37096" stroke="url(#color-1)"></path><path d="M216.27704,166.36443l21.32013,19.57259" stroke="url(#color-2)"></path><path d="M212.59383,173.21318l28.71834,3.59053" stroke="url(#color-3)"></path><path d="M241.63413,177.31119l-28.86517,2.10653" stroke="url(#color-4)"></path></g><g data-paper-data="{&quot;index&quot;:null}"><path d="M238.35135,174.78346l-17.04514,23.39012" stroke="url(#color-5)"></path><path d="M238.20195,174.20131l-21.29812,19.59654" stroke="url(#color-6)"></path><path d="M241.9272,183.33047l-28.71428,3.6228" stroke="url(#color-7)"></path><path d="M213.38108,180.74853l28.86751,2.0741" stroke="url(#color-8)"></path></g></g><g><g><path d="M257.80966,161.14398l-23.38054,17.05827" stroke="url(#color-9)"></path><path d="M233.84691,178.05319l19.58458,-21.30912" stroke="url(#color-10)"></path><path d="M246.58481,153.05702l-3.60667,28.71631" stroke="url(#color-11)"></path><path d="M242.47049,182.095l-2.09031,-28.86635" stroke="url(#color-12)"></path></g><g data-paper-data="{&quot;index&quot;:null}"><path d="M245.00004,178.81363l-23.38053,-17.05827" stroke="url(#color-13)"></path><path d="M245.58226,178.66456l-19.58458,-21.30913" stroke="url(#color-14)"></path><path d="M232.84437,153.66837l3.60668,28.71631" stroke="url(#color-15)"></path><path d="M236.9587,182.70634l2.09031,-28.86635" stroke="url(#color-16)"></path></g></g><g data-paper-data="{&quot;index&quot;:null}"><g><path d="M245.14492,181.58751l-23.38053,17.05826" stroke="url(#color-17)"></path><path d="M245.72714,181.73656l-19.58458,21.30913" stroke="url(#color-18)"></path><path d="M236.59592,178.01643l-3.60668,28.71631" stroke="url(#color-19)"></path><path d="M237.10358,177.69477l2.09031,28.86635" stroke="url(#color-20)"></path></g><g data-paper-data="{&quot;index&quot;:null}"><path d="M257.95454,198.03441l-23.38053,-17.05827" stroke="url(#color-21)"></path><path d="M253.57636,202.43432l-19.58458,-21.30912" stroke="url(#color-22)"></path><path d="M246.72969,206.12136l-3.60668,-28.71631" stroke="url(#color-23)"></path><path d="M240.52504,205.94974l2.09031,-28.86635" stroke="url(#color-24)"></path></g></g><g data-paper-data="{&quot;index&quot;:null}"><g><path d="M258.89954,197.80596l-17.0714,-23.37094" stroke="url(#color-25)"></path><path d="M241.97687,173.85273l21.32014,19.5726" stroke="url(#color-26)"></path><path d="M238.26187,182.98606l28.71834,3.59053" stroke="url(#color-27)"></path><path d="M237.93992,182.47858l28.86518,-2.10654" stroke="url(#color-28)"></path></g><g data-paper-data="{&quot;index&quot;:null}"><path d="M258.26784,161.61617l-17.04513,23.39012" stroke="url(#color-29)"></path><path d="M241.37211,185.58844l21.29813,-19.59654" stroke="url(#color-30)"></path><path d="M237.64684,176.45931l28.71428,-3.62281" stroke="url(#color-31)"></path><path d="M266.19297,179.04124l-28.86751,-2.0741" stroke="url(#color-32)"></path></g></g></g><path d="M236.153,179.63349c0,-1.94149 1.57389,-3.51538 3.51538,-3.51538c1.94149,0 3.51538,1.57389 3.51538,3.51538c0,1.94149 -1.57389,3.51538 -3.51538,3.51538c-1.94149,0 -3.51538,-1.57389 -3.51538,-3.51538z" fill="url(#color-33)" stroke="#000000" stroke-width="0.25" stroke-linecap="butt"></path><path d="M210.26518,180c0,-16.42208 13.31273,-29.73482 29.73482,-29.73482c16.42208,0 29.73482,13.31273 29.73482,29.73482c0,16.42208 -13.31273,29.73482 -29.73482,29.73482c-16.42208,0 -29.73482,-13.31273 -29.73482,-29.73482z" fill="none" stroke="#000000" stroke-width="7" stroke-linecap="butt"></path></g><g fill="#e3b600" stroke="none" stroke-width="0" stroke-linecap="butt"><path d="M231.66228,153.96262l0.15133,-2.27596c0,0 0.37421,-0.18714 0.55139,-0.2294c0.18262,-0.04356 0.52847,-0.02817 0.52847,-0.02817c0,0 0.20646,0.86171 0.30815,0.86334c0.06166,0.00098 0.24811,-0.96198 0.41207,-1.01848c0.09526,-0.03283 0.86081,-0.2356 0.92667,-0.10681c0.071,0.13888 0.38121,2.1651 0.38121,2.1651c0,0 -0.73246,0.14506 -0.8695,0.06912c-0.10857,-0.06017 -0.03816,-1.14679 -0.06375,-1.14497c-0.12593,0.00898 -0.1135,0.3592 -0.27303,0.76432c-0.09924,0.25203 -0.14171,0.63805 -0.56051,0.63078c-0.12704,-0.00221 -0.22166,-0.14605 -0.3356,-0.47195c-0.05812,-0.16621 -0.17642,-0.60265 -0.17642,-0.60265l-0.07265,-0.02596l-0.06423,1.23274z"></path><path d="M235.13357,153.22515l0.96479,-2.3912l1.05558,-0.07235l0.74445,2.19458c0,0 -0.91321,0.09975 -0.95848,0.03826c-0.06302,-0.08558 -0.1967,-0.76114 -0.1967,-0.76114c0,0 -0.10531,-0.67906 -0.11375,-0.68152c-0.056,-0.01627 -0.19847,0.66292 -0.19847,0.66292c0,0 0.72755,-0.02456 0.60328,0.07223c-0.03624,0.02822 0.02577,0.51792 -0.14476,0.50882c-0.0564,-0.00301 -0.64905,-0.01179 -0.64905,-0.01179c0,0 -0.08177,0.3795 -0.15112,0.39525c-0.20085,0.04562 -0.95577,0.04592 -0.95577,0.04592z"></path><path d="M239.87329,152.87573l-1.34849,-2.23355l1.02454,-0.03368l1.34903,2.26324z"></path><path d="M238.0838,152.90279l1.91514,-2.26929l1.17543,0.01027l-1.98586,2.22634z" data-paper-data="{&quot;index&quot;:null}"></path><path d="M242.9071,153.01046l-1.20049,-2.31646l1.02457,0.03297l1.19909,2.34614z"></path><path d="M241.11963,152.92115l2.05858,-2.14003l1.17227,0.08665l-2.12633,2.09257z" data-paper-data="{&quot;index&quot;:null}"></path><path d="M244.12965,153.089l0.70846,-2.1284l0.97213,0.14774l-0.7225,2.17323z"></path><path d="M246.9434,151.95841l0.05304,0.23701c0,0 0.53552,0.0364 0.71878,0.47489c0.02931,0.07012 0.00077,0.37161 -0.16832,0.56846c-0.1251,0.14563 -0.45652,0.25651 -0.45652,0.25651l-0.77533,0.01623c0,0 -0.36699,-0.04913 -0.52081,-0.11844c-0.15273,-0.06883 -0.39882,-0.29596 -0.39882,-0.29596l0.49378,-0.47752l0.46903,0.27558c0,0 0.39456,-0.07608 0.38591,-0.08424c-0.02944,-0.02778 -0.72335,-0.43726 -0.76011,-0.481c-0.05186,-0.06168 -0.06569,-0.36753 -0.06569,-0.36753c0,0 0.10782,-0.38293 0.56451,-0.55815c0.23728,-0.09103 0.54256,-0.08032 0.70411,-0.06434c0.43542,0.04308 0.91096,0.17394 0.95487,0.34391c0.05649,0.21867 -0.58509,0.50105 -0.58509,0.50105c0,0 -0.18621,-0.15469 -0.30787,-0.19874c-0.11183,-0.04049 -0.30545,-0.02771 -0.30545,-0.02771z"></path></g></g></g></svg>