<svg version="1.1" xmlns="http://www.w3.org/2000/svg" xmlns:xlink="http://www.w3.org/1999/xlink" width="563.3755" height="417.04271" viewBox="0,0,563.3755,417.04271"><defs><linearGradient x1="239.68368" y1="3.68878" x2="239.68368" y2="185.63655" gradientUnits="userSpaceOnUse" id="color-1"><stop offset="0" stop-color="#000000" stop-opacity="0.78226"></stop><stop offset="1" stop-color="#000000"></stop></linearGradient><radialGradient cx="186.90893" cy="70.47751" r="2.82433" gradientUnits="userSpaceOnUse" id="color-2"><stop offset="0" stop-color="#ff2785"></stop><stop offset="1" stop-color="#ff2785" stop-opacity="0"></stop></radialGradient><radialGradient cx="186.93594" cy="53.99103" r="2.82433" gradientUnits="userSpaceOnUse" id="color-3"><stop offset="0" stop-color="#ff2785"></stop><stop offset="1" stop-color="#ff2785" stop-opacity="0"></stop></radialGradient><linearGradient x1="241.11737" y1="-0.09668" x2="241.11737" y2="217.82995" gradientUnits="userSpaceOnUse" id="color-4"><stop offset="0" stop-color="#730000"></stop><stop offset="1" stop-color="#730000" stop-opacity="0"></stop></linearGradient></defs><g transform="translate(46.37544,4.92667)"><g data-paper-data="{&quot;isPaintingLayer&quot;:true}" fill-rule="nonzero" stroke-linejoin="miter" stroke-miterlimit="10" stroke-dasharray="" stroke-dashoffset="0" style="mix-blend-mode: normal"><path d="M-12.92004,185.63655v-181.94777h505.20745v181.94777z" fill="url(#color-1)" stroke="none" stroke-width="0" stroke-linecap="butt"></path><path d="M-23.53563,-3.92667c1.04096,0 1.88483,0.28129 1.88483,0.62828c0,0.34699 -0.84387,0.62828 -1.88483,0.62828c-1.04096,0 -1.88483,-0.28129 -1.88483,-0.62828c0,-0.34699 0.84387,-0.62828 1.88483,-0.62828z" fill="#ffffff" stroke="#8a8a8a" stroke-width="2" stroke-linecap="butt"></path><path d="M139.91699,161.12832c0,0 -0.22975,-78.51899 1.41752,-78.51899c1.60301,0 12.95652,3.55873 12.95652,3.55873l0.23354,8.38589l2.16633,0.1155l0.47251,66.45888z" fill="#000000" stroke="#000000" stroke-width="0.25" stroke-linecap="butt"></path><path d="M393.07751,153.0271v-55.60832h16.86994v55.60832z" fill="#000000" stroke="none" stroke-width="0" stroke-linecap="butt"></path><path d="M377.4572,158.65041v-77.09226h19.84553v77.09226z" fill="#000000" stroke="none" stroke-width="0" stroke-linecap="butt"></path><path d="M359.33762,149.27823v-63.10607h14.37069v63.10607z" fill="#000000" stroke="none" stroke-width="0" stroke-linecap="butt"></path><path d="M171.26905,161.14967v-71.22863h21.24363v71.22863z" fill="#000000" stroke="none" stroke-width="0" stroke-linecap="butt"></path><g stroke="none" stroke-width="0" stroke-linecap="butt"><path d="M186.49729,73.92629v-5.08445h0.57771v5.08445z" fill="#8e6b6b"></path><g><path d="M186.66061,90.24947v-11.89526h0.5777v11.89526z" fill="#8e6b6b"></path><path d="M186.71467,64.03325v-5.08446h0.57771v5.08446z" fill="#8e6b6b"></path><path d="M186.45454,78.37109v-4.625h0.875v4.625z" fill="#5e2323"></path><path d="M186.57954,68.62109v-4.625h0.875v4.625z" fill="#5e2323"></path><path d="M186.57954,58.99609v-4.625h0.875v4.625z" fill="#5e2323"></path><path d="M184.08461,70.47751c0,-1.55983 1.26449,-2.82432 2.82432,-2.82432c1.55983,0 2.82433,1.26449 2.82433,2.82432c0,1.55983 -1.2645,2.82433 -2.82433,2.82433c-1.55983,0 -2.82432,-1.26449 -2.82432,-2.82433z" fill="url(#color-2)"></path><path d="M184.11162,53.99103c0,-1.55983 1.26449,-2.82433 2.82432,-2.82433c1.55983,0 2.82433,1.2645 2.82433,2.82433c0,1.55983 -1.2645,2.82433 -2.82433,2.82433c-1.55983,0 -2.82432,-1.2645 -2.82432,-2.82433z" fill="url(#color-3)"></path></g></g><path d="M185.63973,116.16316v-35.61432h9.37219v35.61432z" fill="#000000" stroke="none" stroke-width="0" stroke-linecap="butt"></path><path d="M56.30352,151.77748v-84.97451h59.35719v84.97451z" fill="#000000" stroke="none" stroke-width="0" stroke-linecap="butt"></path><path d="M338.09401,168.0226v-89.3482h25.79123v89.3482z" fill="#000000" stroke="none" stroke-width="0" stroke-linecap="butt"></path><path d="M284.3601,160.52485v-98.72038h52.48426v98.72039z" fill="#000000" stroke="none" stroke-width="0" stroke-linecap="butt"></path><path d="M-13.16019,217.82995v-217.92663h508.55512v217.92663z" fill="url(#color-4)" stroke="none" stroke-width="0" stroke-linecap="butt"></path><path d="M199.38562,163.64891v-101.18288h30.17735v101.18288z" fill="#000000" stroke="none" stroke-width="0" stroke-linecap="butt"></path><path d="M240.62324,161.77448v-92.47225h31.14351v92.47226z" fill="#000000" stroke="none" stroke-width="0" stroke-linecap="butt"></path><path d="M144.4021,178.01962v-106.39569h16.15438v106.3957z" fill="#000000" stroke="none" stroke-width="0" stroke-linecap="butt"></path><path d="M163.14647,165.52335v-29.36619h15.62031v29.36619z" fill="#000000" stroke="none" stroke-width="0" stroke-linecap="butt"></path><path d="M233.75031,121.78647v-53.10907h35.61432v53.10907z" fill="#000000" stroke="none" stroke-width="0" stroke-linecap="butt"></path><path d="M20.68918,152.40229v-75.60232h33.11507v75.60232z" fill="#000000" stroke="none" stroke-width="0" stroke-linecap="butt"></path><path d="M373.70799,186.74956v-79.33804h21.24363v79.33805z" fill="#000000" stroke="none" stroke-width="0" stroke-linecap="butt"></path><path d="M230.0014,161.14966v-111.64805h59.35719v111.64806z" fill="#000000" stroke="none" stroke-width="0" stroke-linecap="butt"></path><path d="M400.57526,187.37371v-134.31662h40.61281v134.31662z" fill="#000000" stroke="none" stroke-width="0" stroke-linecap="butt"></path><path d="M66.9253,155.52635v-101.84444h21.24363v101.84445z" fill="#000000" stroke="none" stroke-width="0" stroke-linecap="butt"></path><path d="M95.66672,156.15117v-81.22563h16.94277v81.22564z" fill="#000000" stroke="none" stroke-width="0" stroke-linecap="butt"></path><path d="M121.90884,157.40079v-114.96552h16.94277v114.96552z" fill="#000000" stroke="none" stroke-width="0" stroke-linecap="butt"></path><path d="M308.09509,179.87893v-98.46732h50.59962v98.46732z" fill="#000000" stroke="none" stroke-width="0" stroke-linecap="butt"></path><path d="M170.01941,146.77898v-44.98651h31.24062v44.98651z" fill="#000000" stroke="none" stroke-width="0" stroke-linecap="butt"></path><path d="M-46.37544,409.61604c0,-1.38071 1.11929,-2.5 2.5,-2.5c1.38071,0 2.5,1.11929 2.5,2.5c0,1.38071 -1.11929,2.5 -2.5,2.5c-1.38071,0 -2.5,-1.11929 -2.5,-2.5z" fill="#30afca" stroke="none" stroke-width="0.5" stroke-linecap="butt"></path><path d="M512.00006,403.00001c0,-1.38071 1.11929,-2.5 2.5,-2.5c1.38071,0 2.5,1.11929 2.5,2.5c0,1.38071 -1.11929,2.5 -2.5,2.5c-1.38071,0 -2.5,-1.11929 -2.5,-2.5z" fill="#30afca" stroke="none" stroke-width="0.5" stroke-linecap="butt"></path><path d="M281.90972,161.03025v-106.5" fill="none" stroke="#000000" stroke-width="0.5" stroke-linecap="round"></path><path d="M110.15979,84.78025v76" fill="none" stroke="#000000" stroke-width="0.5" stroke-linecap="round"></path><path d="M469.61862,168.12856v-73.72788h29.36619v73.72788z" fill="#000000" stroke="#000000" stroke-width="0.25" stroke-linecap="butt"></path><path d="M-21.48404,186.87294v-73.72788h26.24213v73.72788z" fill="#000000" stroke="#000000" stroke-width="0.25" stroke-linecap="butt"></path><path d="M10.18587,160.03272v-63.69735h44.96284v63.69735z" fill="#000000" stroke="#000000" stroke-width="0.25" stroke-linecap="butt"></path><path d="M111.97675,173.14688v-63.69735h44.96284v63.69735z" fill="#000000" stroke="#000000" stroke-width="0.25" stroke-linecap="butt"></path><path d="M428.59008,189.38346v-64.94633h31.84868v64.94633z" fill="#000000" stroke="#000000" stroke-width="0.25" stroke-linecap="butt"></path></g></g></svg>