<svg version="1.1" xmlns="http://www.w3.org/2000/svg" xmlns:xlink="http://www.w3.org/1999/xlink" width="115.82008" height="87.375" viewBox="0,0,115.82008,87.375"><defs><radialGradient cx="250.0767" cy="175.49829" r="6.2803" gradientUnits="userSpaceOnUse" id="color-1"><stop offset="0" stop-color="#252525"></stop><stop offset="1" stop-color="#2d2d2d"></stop></radialGradient><radialGradient cx="249.80907" cy="173.95359" r="6.28029" gradientUnits="userSpaceOnUse" id="color-2"><stop offset="0" stop-color="#252525"></stop><stop offset="1" stop-color="#2d2d2d"></stop></radialGradient><radialGradient cx="250.54077" cy="174.95978" r="6.2803" gradientUnits="userSpaceOnUse" id="color-3"><stop offset="0" stop-color="#252525"></stop><stop offset="1" stop-color="#2d2d2d"></stop></radialGradient><radialGradient cx="249.23263" cy="174.09579" r="6.28029" gradientUnits="userSpaceOnUse" id="color-4"><stop offset="0" stop-color="#252525"></stop><stop offset="1" stop-color="#2d2d2d"></stop></radialGradient><radialGradient cx="250.95509" cy="183.16158" r="6.2803" gradientUnits="userSpaceOnUse" id="color-5"><stop offset="0" stop-color="#252525"></stop><stop offset="1" stop-color="#2d2d2d"></stop></radialGradient><radialGradient cx="251.72763" cy="181.79743" r="6.2803" gradientUnits="userSpaceOnUse" id="color-6"><stop offset="0" stop-color="#252525"></stop><stop offset="1" stop-color="#2d2d2d"></stop></radialGradient><radialGradient cx="251.6554" cy="183.03944" r="6.2803" gradientUnits="userSpaceOnUse" id="color-7"><stop offset="0" stop-color="#252525"></stop><stop offset="1" stop-color="#2d2d2d"></stop></radialGradient><radialGradient cx="251.19172" cy="181.54188" r="6.28029" gradientUnits="userSpaceOnUse" id="color-8"><stop offset="0" stop-color="#252525"></stop><stop offset="1" stop-color="#2d2d2d"></stop></radialGradient><radialGradient cx="246.06465" cy="189.46127" r="6.2803" gradientUnits="userSpaceOnUse" id="color-9"><stop offset="0" stop-color="#252525"></stop><stop offset="1" stop-color="#2d2d2d"></stop></radialGradient><radialGradient cx="247.5793" cy="189.05688" r="6.2803" gradientUnits="userSpaceOnUse" id="color-10"><stop offset="0" stop-color="#252525"></stop><stop offset="1" stop-color="#2d2d2d"></stop></radialGradient><radialGradient cx="246.64241" cy="189.87543" r="6.28031" gradientUnits="userSpaceOnUse" id="color-11"><stop offset="0" stop-color="#252525"></stop><stop offset="1" stop-color="#2d2d2d"></stop></radialGradient><radialGradient cx="247.38623" cy="188.49543" r="6.28029" gradientUnits="userSpaceOnUse" id="color-12"><stop offset="0" stop-color="#252525"></stop><stop offset="1" stop-color="#2d2d2d"></stop></radialGradient><radialGradient cx="238.67374" cy="190.93943" r="6.2803" gradientUnits="userSpaceOnUse" id="color-13"><stop offset="0" stop-color="#252525"></stop><stop offset="1" stop-color="#2d2d2d"></stop></radialGradient><radialGradient cx="240.1561" cy="191.44961" r="6.2803" gradientUnits="userSpaceOnUse" id="color-14"><stop offset="0" stop-color="#252525"></stop><stop offset="1" stop-color="#2d2d2d"></stop></radialGradient><radialGradient cx="238.92183" cy="191.60562" r="6.2803" gradientUnits="userSpaceOnUse" id="color-15"><stop offset="0" stop-color="#252525"></stop><stop offset="1" stop-color="#2d2d2d"></stop></radialGradient><radialGradient cx="240.30941" cy="190.87603" r="6.2803" gradientUnits="userSpaceOnUse" id="color-16"><stop offset="0" stop-color="#252525"></stop><stop offset="1" stop-color="#2d2d2d"></stop></radialGradient><radialGradient cx="231.76232" cy="187.34166" r="6.2803" gradientUnits="userSpaceOnUse" id="color-17"><stop offset="0" stop-color="#252525"></stop><stop offset="1" stop-color="#2d2d2d"></stop></radialGradient><radialGradient cx="232.60386" cy="188.66436" r="6.2803" gradientUnits="userSpaceOnUse" id="color-18"><stop offset="0" stop-color="#252525"></stop><stop offset="1" stop-color="#2d2d2d"></stop></radialGradient><radialGradient cx="231.54127" cy="188.01731" r="6.2803" gradientUnits="userSpaceOnUse" id="color-19"><stop offset="0" stop-color="#252525"></stop><stop offset="1" stop-color="#2d2d2d"></stop></radialGradient><radialGradient cx="233.08117" cy="188.31126" r="6.2803" gradientUnits="userSpaceOnUse" id="color-20"><stop offset="0" stop-color="#252525"></stop><stop offset="1" stop-color="#2d2d2d"></stop></radialGradient><radialGradient cx="229.11515" cy="180.76764" r="6.2803" gradientUnits="userSpaceOnUse" id="color-21"><stop offset="0" stop-color="#252525"></stop><stop offset="1" stop-color="#2d2d2d"></stop></radialGradient><radialGradient cx="228.86678" cy="182.31556" r="6.2803" gradientUnits="userSpaceOnUse" id="color-22"><stop offset="0" stop-color="#252525"></stop><stop offset="1" stop-color="#2d2d2d"></stop></radialGradient><radialGradient cx="228.50138" cy="181.12633" r="6.2803" gradientUnits="userSpaceOnUse" id="color-23"><stop offset="0" stop-color="#252525"></stop><stop offset="1" stop-color="#2d2d2d"></stop></radialGradient><radialGradient cx="229.45814" cy="182.36821" r="6.2803" gradientUnits="userSpaceOnUse" id="color-24"><stop offset="0" stop-color="#252525"></stop><stop offset="1" stop-color="#2d2d2d"></stop></radialGradient><radialGradient cx="230.86822" cy="173.25294" r="6.28029" gradientUnits="userSpaceOnUse" id="color-25"><stop offset="0" stop-color="#252525"></stop><stop offset="1" stop-color="#2d2d2d"></stop></radialGradient><radialGradient cx="229.70841" cy="174.30773" r="6.2803" gradientUnits="userSpaceOnUse" id="color-26"><stop offset="0" stop-color="#252525"></stop><stop offset="1" stop-color="#2d2d2d"></stop></radialGradient><radialGradient cx="230.16476" cy="173.15034" r="6.2803" gradientUnits="userSpaceOnUse" id="color-27"><stop offset="0" stop-color="#252525"></stop><stop offset="1" stop-color="#2d2d2d"></stop></radialGradient><radialGradient cx="230.13774" cy="174.71782" r="6.2803" gradientUnits="userSpaceOnUse" id="color-28"><stop offset="0" stop-color="#252525"></stop><stop offset="1" stop-color="#2d2d2d"></stop></radialGradient><radialGradient cx="237.5282" cy="169.10371" r="6.28029" gradientUnits="userSpaceOnUse" id="color-29"><stop offset="0" stop-color="#252525"></stop><stop offset="1" stop-color="#2d2d2d"></stop></radialGradient><radialGradient cx="235.96091" cy="169.06772" r="6.2803" gradientUnits="userSpaceOnUse" id="color-30"><stop offset="0" stop-color="#252525"></stop><stop offset="1" stop-color="#2d2d2d"></stop></radialGradient><radialGradient cx="237.08954" cy="168.5443" r="6.2803" gradientUnits="userSpaceOnUse" id="color-31"><stop offset="0" stop-color="#252525"></stop><stop offset="1" stop-color="#2d2d2d"></stop></radialGradient><radialGradient cx="235.989" cy="169.66075" r="6.2803" gradientUnits="userSpaceOnUse" id="color-32"><stop offset="0" stop-color="#252525"></stop><stop offset="1" stop-color="#2d2d2d"></stop></radialGradient><radialGradient cx="245.14377" cy="170.29516" r="6.28029" gradientUnits="userSpaceOnUse" id="color-33"><stop offset="0" stop-color="#252525"></stop><stop offset="1" stop-color="#2d2d2d"></stop></radialGradient><radialGradient cx="243.88777" cy="169.35696" r="6.2803" gradientUnits="userSpaceOnUse" id="color-34"><stop offset="0" stop-color="#252525"></stop><stop offset="1" stop-color="#2d2d2d"></stop></radialGradient><radialGradient cx="245.11079" cy="169.58503" r="6.2803" gradientUnits="userSpaceOnUse" id="color-35"><stop offset="0" stop-color="#252525"></stop><stop offset="1" stop-color="#2d2d2d"></stop></radialGradient><radialGradient cx="243.56674" cy="169.8564" r="6.28031" gradientUnits="userSpaceOnUse" id="color-36"><stop offset="0" stop-color="#252525"></stop><stop offset="1" stop-color="#2d2d2d"></stop></radialGradient><radialGradient cx="240" cy="180" r="20.70059" gradientUnits="userSpaceOnUse" id="color-37"><stop offset="0" stop-color="#000000"></stop><stop offset="1" stop-color="#383838"></stop></radialGradient><radialGradient cx="240.19606" cy="180.0842" r="5.25524" gradientUnits="userSpaceOnUse" id="color-38"><stop offset="0" stop-color="#ababab"></stop><stop offset="1" stop-color="#636363"></stop></radialGradient></defs><g transform="translate(-191.95828,-134.24464)"><g data-paper-data="{&quot;isPaintingLayer&quot;:true}" fill-rule="nonzero" stroke-linejoin="miter" stroke-miterlimit="10" stroke-dasharray="" stroke-dashoffset="0" style="mix-blend-mode: normal"><g fill="none" stroke-width="0.5" stroke-linecap="round"><g><path d="M243.52072,175.24251l15.31684,0.73499" stroke="url(#color-1)"></path><path d="M258.49399,172.7068l-15.16391,2.28067" stroke="url(#color-2)"></path><path d="M256.89505,168.90953l-11.03446,10.64831" stroke="url(#color-3)"></path><path d="M254.27814,166.91767l-8.73394,12.60413" stroke="url(#color-4)"></path></g><g><path d="M246.04779,178.80673l11.37783,10.28059" stroke="url(#color-5)"></path><path d="M246.06212,178.4886l13.17178,7.85176" stroke="url(#color-6)"></path><path d="M260.4053,182.3902l-15.2845,1.23706" stroke="url(#color-7)"></path><path d="M244.899,183.39878l14.74576,-4.20815" stroke="url(#color-8)"></path></g><g><path d="M246.36907,198.22995l-0.63466,-15.32133" stroke="url(#color-9)"></path><path d="M249.59607,197.5959l-3.62463,-14.89994" stroke="url(#color-10)"></path><path d="M253.23552,195.66451l-11.59043,-10.04031" stroke="url(#color-11)"></path><path d="M241.65275,185.30586l13.33318,7.57445" stroke="url(#color-12)"></path></g><g><path d="M242.05822,185.3188l-8.02766,13.06532" stroke="url(#color-13)"></path><path d="M242.3736,185.27473l-5.31182,14.38509" stroke="url(#color-14)"></path><path d="M237.14947,185.28858l4.01004,14.80087" stroke="url(#color-15)"></path><path d="M237.33356,185.02875l6.8326,13.72814" stroke="url(#color-16)"></path></g><g><path d="M223.49192,190.27132l14.41978,-5.2169" stroke="url(#color-17)"></path><path d="M238.18582,185.21643l-13.11795,7.94139" stroke="url(#color-18)"></path><path d="M234.09118,181.97211l-6.086,14.07503" stroke="url(#color-19)"></path><path d="M231.18712,196.87835l3.20993,-14.99475" stroke="url(#color-20)"></path></g><g><path d="M220.98443,177.47009l14.24853,5.66794" stroke="url(#color-21)"></path><path d="M235.33046,183.44116l-15.08296,-2.76598" stroke="url(#color-22)"></path><path d="M220.52704,184.78588l13.89381,-6.48907" stroke="url(#color-23)"></path><path d="M222.35551,187.51943l12.35289,-9.08583" stroke="url(#color-24)"></path></g><g><path d="M226.57104,165.60331l7.59961,13.31885" stroke="url(#color-25)"></path><path d="M223.99557,167.64846l10.06218,11.57146" stroke="url(#color-26)"></path><path d="M221.64951,171.03545l14.90675,3.5965" stroke="url(#color-27)"></path><path d="M221.37313,174.31254l15.32251,0.60572" stroke="url(#color-28)"></path></g><g><path d="M236.01004,175.48661l3.68172,-14.88593" stroke="url(#color-29)"></path><path d="M236.41631,160.30557l-0.69336,15.31878" stroke="url(#color-30)"></path><path d="M240.69627,174.02498l-8.31466,-12.88457" stroke="url(#color-31)"></path><path d="M240.59974,174.32843l-10.67825,-11.00549" stroke="url(#color-32)"></path></g><g><path d="M251.83727,164.62247l-11.63176,9.99239" stroke="url(#color-33)"></path><path d="M239.89173,174.5606l9.44818,-12.07799" stroke="url(#color-34)"></path><path d="M245.56875,160.82304l-0.69784,15.31858" stroke="url(#color-35)"></path><path d="M242.29888,161.1745l2.31743,15.15835" stroke="url(#color-36)"></path></g></g><path d="M219.29939,180c0,-11.43262 9.26797,-20.70059 20.7006,-20.70059c11.43262,0 20.70059,9.26797 20.70059,20.70059c0,11.43262 -9.26797,20.7006 -20.70059,20.7006c-11.43262,0 -20.7006,-9.26797 -20.7006,-20.7006z" fill="none" stroke="url(#color-37)" stroke-width="8" stroke-linecap="butt"></path><path d="M215.68681,180c0,-13.4278 10.88539,-24.31319 24.31319,-24.31319c13.4278,0 24.31319,10.88539 24.31319,24.31319c0,13.4278 -10.88539,24.31319 -24.31319,24.31319c-13.4278,0 -24.31319,-10.88539 -24.31319,-24.31319z" fill="none" stroke="#000000" stroke-width="8" stroke-linecap="butt"></path><path d="M234.94082,180.0842c0,-2.90239 2.35285,-5.25524 5.25524,-5.25524c2.90238,0 5.25524,2.35285 5.25524,5.25524c0,2.90239 -2.35285,5.25524 -5.25524,5.25524c-2.90238,0 -5.25524,-2.35286 -5.25524,-5.25524z" fill="none" stroke="url(#color-38)" stroke-width="4.5" stroke-linecap="butt"></path><path d="M221.74332,146.11964v-11.875h45.375v11.875z" fill="none" stroke="none" stroke-width="NaN" stroke-linecap="butt"></path><path d="M218.99333,221.61964v-11.875h45.375v11.875z" fill="none" stroke="none" stroke-width="NaN" stroke-linecap="butt"></path><path d="M206.15336,201.53391l-11.85926,0.6113l-2.33582,-45.31484l11.85926,-0.6113z" fill-opacity="0" fill="#000000" stroke="none" stroke-width="NaN" stroke-linecap="butt"></path><path d="M307.77836,203.28391l-11.85926,0.6113l-2.33582,-45.31484l11.85926,-0.6113z" fill="none" stroke="none" stroke-width="NaN" stroke-linecap="butt"></path></g></g></svg>