<svg version="1.1" xmlns="http://www.w3.org/2000/svg" xmlns:xlink="http://www.w3.org/1999/xlink" width="20.08236" height="20.08236" viewBox="0,0,20.08236,20.08236"><defs><radialGradient cx="242.47165" cy="182.68766" r="2.28261" gradientUnits="userSpaceOnUse" id="color-1"><stop offset="0" stop-color="#292929"></stop><stop offset="1" stop-color="#0e0e0e"></stop></radialGradient><radialGradient cx="243.41949" cy="180.97551" r="2.28261" gradientUnits="userSpaceOnUse" id="color-2"><stop offset="0" stop-color="#292929"></stop><stop offset="1" stop-color="#0e0e0e"></stop></radialGradient><radialGradient cx="237.71697" cy="182.73114" r="2.28261" gradientUnits="userSpaceOnUse" id="color-3"><stop offset="0" stop-color="#292929"></stop><stop offset="1" stop-color="#0e0e0e"></stop></radialGradient><radialGradient cx="236.76913" cy="181.01899" r="2.28261" gradientUnits="userSpaceOnUse" id="color-4"><stop offset="0" stop-color="#292929"></stop><stop offset="1" stop-color="#0e0e0e"></stop></radialGradient><radialGradient cx="241.06188" cy="176.77989" r="2.28261" gradientUnits="userSpaceOnUse" id="color-5"><stop offset="0" stop-color="#292929"></stop><stop offset="1" stop-color="#0e0e0e"></stop></radialGradient><radialGradient cx="239.10536" cy="176.82337" r="2.28261" gradientUnits="userSpaceOnUse" id="color-6"><stop offset="0" stop-color="#292929"></stop><stop offset="1" stop-color="#0e0e0e"></stop></radialGradient><radialGradient cx="239.99999" cy="180" r="5.7647" gradientUnits="userSpaceOnUse" id="color-7"><stop offset="0" stop-color="#ffffff"></stop><stop offset="1" stop-color="#3e3e3e"></stop></radialGradient><radialGradient cx="240.08695" cy="180.08696" r="1.30562" gradientUnits="userSpaceOnUse" id="color-8"><stop offset="0" stop-color="#ffffff"></stop><stop offset="1" stop-color="#0e0e0e"></stop></radialGradient></defs><g transform="translate(-229.95882,-169.95882)"><g data-paper-data="{&quot;isPaintingLayer&quot;:true}" fill-rule="nonzero" stroke-linejoin="miter" stroke-miterlimit="10" stroke-dasharray="" stroke-dashoffset="0" style="mix-blend-mode: normal"><g fill="none" stroke-width="0.5" stroke-linecap="round"><path d="M240.53725,181.55993l4.03775,2.052" data-paper-data="{&quot;index&quot;:null}" stroke="url(#color-1)"></path><path d="M245.26007,182.35051l-3.77498,-2.50274" data-paper-data="{&quot;index&quot;:null}" stroke="url(#color-2)"></path><path d="M235.61362,183.65541l4.03775,-2.052" data-paper-data="{&quot;index&quot;:null}" stroke="url(#color-3)"></path><path d="M238.70353,179.89125l-3.77498,2.50274" data-paper-data="{&quot;index&quot;:null}" stroke="url(#color-4)"></path><path d="M240.80101,174.49728l0.26087,4.52174" data-paper-data="{&quot;index&quot;:null}" stroke="url(#color-5)"></path><path d="M239.10536,179.0625l0.26087,-4.52174" stroke="url(#color-6)"></path></g><path d="M231.95882,180c0,-4.44102 3.60016,-8.04118 8.04118,-8.04118c4.44102,0 8.04118,3.60016 8.04118,8.04118c0,4.44102 -3.60016,8.04118 -8.04118,8.04118c-4.44102,0 -8.04118,-3.60016 -8.04118,-8.04118z" fill="none" stroke="#0e0d0c" stroke-width="4" stroke-linecap="butt"></path><path d="M234.23529,180c0,-3.18376 2.58094,-5.7647 5.7647,-5.7647c3.18376,0 5.7647,2.58094 5.7647,5.7647c0,3.18376 -2.58094,5.7647 -5.7647,5.7647c-3.18376,0 -5.7647,-2.58094 -5.7647,-5.7647z" fill="none" stroke="url(#color-7)" stroke-width="1" stroke-linecap="butt"></path><path d="M238.78132,180.08696c0,-0.72108 0.58455,-1.30563 1.30563,-1.30563c0.72108,0 1.30562,0.58455 1.30562,1.30563c0,0.72108 -0.58454,1.30562 -1.30562,1.30562c-0.72108,0 -1.30563,-0.58454 -1.30563,-1.30562z" fill="#424242" stroke="url(#color-8)" stroke-width="1" stroke-linecap="butt"></path></g></g></svg>