<svg version="1.1" xmlns="http://www.w3.org/2000/svg" xmlns:xlink="http://www.w3.org/1999/xlink" width="564" height="255.83555" viewBox="0,0,564,255.83555"><g transform="translate(46.99999,-149.66445)"><g data-paper-data="{&quot;isPaintingLayer&quot;:true}" fill-rule="nonzero" stroke="none" stroke-linecap="butt" stroke-linejoin="miter" stroke-miterlimit="10" stroke-dasharray="" stroke-dashoffset="0" style="mix-blend-mode: normal"><path d="M-17.23304,187.42911v-37.76466h511.37061v37.76466z" fill="#756f5d" stroke-width="0"></path><path d="M-15.11908,209.57373v-1.32572h509v1.32572z" fill="#909090" stroke-width="0"></path><path d="M-46.99999,399c0,-1.38071 1.11929,-2.5 2.5,-2.5c1.38071,0 2.5,1.11929 2.5,2.5c0,1.38071 -1.11929,2.5 -2.5,2.5c-1.38071,0 -2.5,-1.11929 -2.5,-2.5z" fill="#30afca" stroke-width="0.5"></path><path d="M512.00001,403c0,-1.38071 1.11929,-2.5 2.5,-2.5c1.38071,0 2.5,1.11929 2.5,2.5c0,1.38071 -1.11929,2.5 -2.5,2.5c-1.38071,0 -2.5,-1.11929 -2.5,-2.5z" fill="#30afca" stroke-width="0.5"></path><path d="M-5.51752,302.31788v-1.23819h9.90548v1.23819z" fill="#909090" stroke-width="0"></path><path d="M-17.59546,364.76181v-178.18205h512.09546v178.18205z" fill="#444444" stroke-width="0"></path><path d="M-1.55284,270.50596v-16.7155h63.82708v16.7155z" fill="#b6b6b6" stroke-width="0"></path><path d="M-17.55283,200.16757v-7.42911h511.37061v7.42911z" fill="#b6b6b6" stroke-width="0"></path><path d="M113.44716,270.50596v-16.7155h63.82708v16.7155z" fill="#b6b6b6" stroke-width="0"></path><path d="M239.44716,269.50596v-16.7155h63.82708v16.7155z" fill="#b6b6b6" stroke-width="0"></path><path d="M365.44716,268.50596v-16.7155h63.82708v16.7155z" fill="#b6b6b6" stroke-width="0"></path><path d="M-17.796,377.84719v-29.71645h512.6088v29.71645z" fill="#252535" stroke-width="0"></path></g></g></svg>