<svg version="1.1" xmlns="http://www.w3.org/2000/svg" xmlns:xlink="http://www.w3.org/1999/xlink" width="123.19282" height="107.72035" viewBox="0,0,123.19282,107.72035"><defs><linearGradient x1="317.43399" y1="118.93562" x2="317.43399" y2="175.70712" gradientUnits="userSpaceOnUse" id="color-1"><stop offset="0" stop-color="#000000"></stop><stop offset="1" stop-color="#171717"></stop></linearGradient><linearGradient x1="305.43133" y1="126.25483" x2="305.43133" y2="184.63845" gradientUnits="userSpaceOnUse" id="color-2"><stop offset="0" stop-color="#000000"></stop><stop offset="1" stop-color="#171717"></stop></linearGradient></defs><g transform="translate(-237.23072,-77.1681)"><g data-paper-data="{&quot;isPaintingLayer&quot;:true}" fill-rule="nonzero" stroke-linecap="butt" stroke-linejoin="miter" stroke-miterlimit="10" stroke-dasharray="" stroke-dashoffset="0" style="mix-blend-mode: normal"><path d="M297.78736,179.27871v-16.55004l24.28538,1.88886l-9.08453,13.13209c0,0 -4.01219,2.34621 -6.18352,2.56463c-2.75524,0.27715 -9.01733,-1.03555 -9.01733,-1.03555z" fill="#121212" stroke="none" stroke-width="0"></path><path d="M320.7711,161.78814l3.5143,-26.18521l4.78586,1.27723c0,0 0.88662,0.67754 0.77961,1.8191c-0.28568,3.04758 -3.48065,22.89686 -3.48065,22.89686l-1.08309,1.3645z" fill="#313131" stroke="none" stroke-width="0"></path><path d="M331.86334,113.76343l-6.54559,-5.1799l6.50333,-4.17808l3.31891,7.25289z" fill="#5c5c5c" stroke="none" stroke-width="0"></path><path d="M294.29463,175.27612c0,-4.1976 3.40283,-7.60043 7.60043,-7.60043c4.1976,0 7.60042,3.40283 7.60042,7.60043c0,4.1976 -3.40282,7.60043 -7.60042,7.60043c-4.1976,0 -7.60043,-3.40283 -7.60043,-7.60043z" fill="#202020" stroke="#000000" stroke-width="0.5"></path><path d="M297.29379,170.52977l3.55409,-42.04039c0,0 10.88866,-4.02735 15.24779,-4.64695c3.14295,-0.44673 8.47334,1.27531 8.47334,1.27531l-0.67355,38.96781z" fill="#111111" stroke="none" stroke-width="0"></path><path d="M305.44077,152.05622l-3.96515,4.60403l-28.18977,-26.6554l5.88552,-0.37924c0,0 29.25459,5.81055 30.56763,6.93171c0.97795,0.83504 -2.04095,3.00619 -2.04095,3.00619c0,0 -22.584,-6.72005 -22.99226,-5.36379c-1.01929,3.38616 20.73498,17.8565 20.73498,17.8565z" fill="#272727" stroke="#000000" stroke-width="0.5"></path><path d="M297.7301,183.90648c-0.12594,-0.50373 -2.66736,-1.87568 -1.91535,-2.0872c1.78019,-0.50072 6.55216,-0.27729 8.95935,-1.59472c1.14492,-0.6266 5.51076,-2.77037 6.53116,-3.88598c1.40404,-1.53505 8.54672,-11.27845 8.54672,-11.27845c0,0 4.5666,-2.24589 3.84738,-1.31579c-0.27202,0.35178 -1.09355,3.08769 -2.58281,5.79794c-1.75795,3.19922 -4.23398,6.46883 -4.76792,7.27266c-1.05632,1.59027 -2.80037,3.04524 -3.79145,3.95703c-2.32794,2.1417 -7.90528,3.02537 -7.90528,3.02537c0,0 -2.3941,0.40261 -4.344,0.48029c-1.39617,0.05561 -2.52076,-0.14303 -2.57779,-0.37116z" fill="#111111" stroke="none" stroke-width="0"></path><path d="M323.40499,163.40001c0,0 -1.87132,5.76536 -5.16893,5.84839c-0.04305,0.00108 -18.59884,0.33068 -20.07918,1.28539c-1.33449,0.86064 -4.79584,5.17333 -4.79584,5.17333c0,0 2.64488,-10.53067 2.30433,-10.40266c-1.08389,0.40743 20.42458,-0.41591 22.06318,-1.91788c2.16115,-1.98095 6.36677,-36.00652 6.36677,-36.00652l-0.81793,-1.09492l12.91831,-7.34952l5.31123,8.3491c0,0 -10.49775,5.37523 -11.06601,6.29344c-1.42874,2.23231 -7.03596,29.82184 -7.03596,29.82184z" fill="url(#color-1)" stroke="#000000" stroke-width="0.5"></path><path d="M301.12077,126.02904c3.58559,-2.27627 16.37993,-6.04333 16.37993,-6.04333l9.94585,3.66109c0,0 -0.99258,0.98782 -3.58736,1.97449c-1.40248,0.48468 -4.75666,-1.4116 -7.60577,-0.87221c-6.77883,1.28337 -14.30598,7.20781 -15.8907,7.24653c-0.95144,0.02159 -1.18714,-4.73167 0.75806,-5.96656z" fill="#5c5c5c" stroke="none" stroke-width="0"></path><path d="M240.51142,120.61713l12.12169,1.17901c0,0 1.8961,0.58329 2.33702,0.91069c0.42496,0.31554 0.26237,1.01942 0.26237,1.01942z" fill="#000000" stroke="none" stroke-width="0"></path><path d="M254.79545,123.5469c0,0 -1.02067,-1.89209 -0.54802,-2.09445c0.60869,-0.26059 16.56256,3.18442 24.38717,4.44052c7.60264,1.22047 17.4128,-1.7012 20.53046,-0.49384c1.66854,0.64617 -0.81433,7.87493 -0.81433,7.87493c0,0 -5.26975,-0.73334 -11.61886,-0.66504c-3.91475,0.04211 -9.26618,-0.70268 -12.01323,-1.31463c-7.63049,-1.69982 -19.9232,-7.7475 -19.9232,-7.7475z" fill="#000000" stroke="none" stroke-width="0"></path><path d="M337.81651,104.6359c0,0.9015 -0.68782,1.63231 -1.53629,1.63231c-0.84847,0 -3.26461,-1.11488 -3.26461,-2.01638c0,-0.9015 2.41614,-1.24823 3.26461,-1.24823c0.84847,0 1.53629,0.73081 1.53629,1.63231z" fill="#5c5c5c" stroke="none" stroke-width="0"></path><g fill="#272727" stroke="#000000"><path d="M238.45438,183.10706c0,0 -0.9583,-3.36953 -0.43144,-4.31571c0.22795,-0.40938 2.24508,1.07421 2.24508,1.07421l48.51181,-12.88981l0.22457,2.56097z" stroke-width="0.25"></path><path d="M237.62882,178.90053c0.22795,-0.40938 1.76126,-0.69985 1.76126,-0.69985c0,0 35.71311,-15.64292 37.74441,-15.94457c1.83448,-0.27242 12.20028,5.78414 12.20028,5.78414l-1.534,2.59506l-12.84217,-3.06005c0,0 -9.93169,2.78506 -10.22368,3.33001c-0.30304,0.56556 1.44608,1.93774 1.44608,1.93774c0,0 1.26104,2.30512 0.51419,2.58629c-3.28875,1.23816 -28.54498,7.96685 -28.54498,7.96685c0,0 -1.04826,-3.54944 -0.5214,-4.49562z" stroke-width="0.5"></path></g><path d="M298.34549,133.46844l7.39623,-1.91815c0,0 5.61433,0.22192 5.89073,0.74576c-0.0839,0.45951 -4.49412,3.12635 -4.49412,3.12635z" fill="#272727" stroke="#000000" stroke-width="0.5"></path><path d="M295.60284,175.55946c1.14971,1.97745 5.34051,8.34497 5.44555,8.67772c0.41046,1.30025 -4.49517,-0.97074 -4.87431,-1.02554c-0.82491,-0.11925 -9.4542,-13.14973 -9.4542,-13.14973l21.0127,-34.26818l15.50285,-9.5389l0.90735,1.19919c0,0 -0.17008,1.77559 -0.33337,2.30414c-3.10233,3.65449 -10.34486,9.81555 -10.34486,9.81555c0,0 -15.32108,26.7151 -17.68095,30.56109c-0.56554,0.92169 -0.70459,4.52368 -0.18075,5.42467z" fill="url(#color-2)" stroke="#000000" stroke-width="0.5"></path><path d="M359.45685,157.89044l-28.61112,-43.74729l5.12674,-3.4342l24.45107,38.13121z" fill="#313131" stroke="none" stroke-width="0"></path><path d="M248.24101,104.69934l7.81777,5.84829l-14.16852,11.21946l-4.1146,-3.07805z" fill="#636363" stroke="#000000" stroke-width="0.25"></path><path d="M281.6617,127.60806c-14.07972,-5.45625 -29.24591,-11.30187 -31.80828,-12.20305c-0.71996,-0.25321 5.80754,-4.70425 5.80754,-4.70425l28.13093,6.79688c0,0 4.51754,0.83293 4.20417,3.77832c-0.23339,2.19372 -5.01904,6.84183 -6.33437,6.33211z" fill="#d89856" stroke="#000000" stroke-width="0.25"></path><path d="M275.90189,96.039l7.30454,18.65691c0,0 9.82826,6.06649 2.74828,8.44507c-3.17908,1.06805 -7.05405,1.44934 -8.99743,0.58534c-0.95591,-0.42498 -0.04484,-1.40367 -2.24751,-2.64444c-3.29217,-1.85448 -6.24569,-7.83854 -8.54359,-10.99808c-6.96099,-9.57115 9.7357,-14.0448 9.7357,-14.0448z" fill="#333333" stroke="#000000" stroke-width="0.25"></path><path d="M334.27058,104.82794c0,3.12873 -2.60309,5.66507 -5.81416,5.66507c-3.21107,0 -5.81415,-2.53634 -5.81415,-5.66507c0,-3.12873 2.60308,-5.66507 5.81415,-5.66507c3.21107,0 5.81416,2.53634 5.81416,5.66507z" fill="#000000" stroke="none" stroke-width="0"></path><path d="M270.75778,96.9911c0,0 3.86003,-5.19173 9.47877,-10.56823c3.20461,-3.06644 6.99609,-7.01431 10.93259,-8.0284c10.8385,-2.79211 8.87824,-0.19632 10.10389,6.88814c0.78282,4.52479 -4.46375,7.04487 -10.0923,13.22714c-4.40376,4.83701 -6.62841,11.64834 -8.26973,14.34636c-1.61811,2.65983 -12.15322,-15.86499 -12.15322,-15.86499z" fill="#afafaf" stroke="#000000" stroke-width="0.25"></path><path d="M270.28963,96.5298l11.25538,16.57568c0,0 10.92781,3.73899 4.5505,7.62662c-2.86356,1.74565 -6.55784,2.97572 -8.64432,2.56361c-1.0263,-0.2027 -0.35462,-1.35888 -2.7774,-2.08097c-3.62115,-1.07925 -7.8267,-6.26052 -10.76732,-8.83263c-8.90798,-7.79166 6.38315,-15.85231 6.38315,-15.85231z" fill="#333333" stroke="#000000" stroke-width="0.25"></path><path d="M300.33291,86.78961l10.85136,12.84035l11.56854,-0.49542l-0.51492,3.87097c0,0 -9.79775,4.6701 -13.99217,2.32665c-5.0824,-2.83956 -13.57278,-13.67702 -13.57278,-13.67702z" fill="#d89856" stroke="#000000" stroke-width="0.25"></path><path d="M295.33335,93.49653c0,0 -6.40324,-4.67574 -5.8872,-8.85519c0.28253,-2.28821 2.32807,-2.96115 3.64819,-3.46167c1.09112,-0.41369 2.77375,-0.1565 4.2688,0.27525c3.30391,0.95414 5.4175,7.00201 5.4175,7.00201z" fill="#afafaf" stroke="#000000" stroke-width="0.25"></path><path d="M291.9646,127.92806c3.31059,14.73259 6.90296,30.58438 7.58169,33.21444c0.19071,0.73898 -7.14168,-2.20312 -7.14168,-2.20312l-10.02343,-27.14917c0,0 2.90998,-2.32773 5.53075,-3.708c1.95193,-1.02802 3.74341,-1.53046 4.05269,-0.15415z" fill="#d89856" stroke="#000000" stroke-width="0.25"></path><path d="M291.41414,168.59335l0.62665,-9.74307l17.13813,5.73652l-0.32982,5.12792z" fill="#636363" stroke="#000000" stroke-width="0.25"></path><path d="M322.53023,103.46698l-0.7511,-3.9183l5.50617,-3.25708l3.9034,1.00611l1.82818,3.39334c0,0 -3.46531,-1.48336 -4.85547,-1.15879c-1.28794,0.3007 -3.03275,1.57507 -4.21405,2.69328c-0.81633,0.77272 -1.41713,1.24144 -1.41713,1.24144z" fill="#383838" stroke="#000000" stroke-width="0.25"></path><path d="M269.19332,96.33729c0,0 18.02415,13.03889 16.4972,19.92399c-0.66079,2.97949 8.4525,10.31814 7.05084,17.65429c-1.40165,7.33615 -10.31734,-0.55768 -10.31734,-0.55768c0,0 -16.42611,-18.9808 -18.86318,-25.79992c-1.71076,-4.78686 5.63248,-11.22069 5.63248,-11.22069z" fill="#333333" stroke="#000000" stroke-width="0.25"></path></g></g></svg>