<svg version="1.1" xmlns="http://www.w3.org/2000/svg" xmlns:xlink="http://www.w3.org/1999/xlink" width="161.38272" height="132.22722" viewBox="0,0,161.38272,132.22722"><defs><linearGradient x1="319.46641" y1="103.28781" x2="319.8766" y2="123.02706" gradientUnits="userSpaceOnUse" id="color-1"><stop offset="0" stop-color="#151515"></stop><stop offset="1" stop-color="#1e1e1e"></stop></linearGradient><radialGradient cx="346.93201" cy="129.52963" r="26.78244" gradientUnits="userSpaceOnUse" id="color-2"><stop offset="0" stop-color="#a6801f"></stop><stop offset="1" stop-color="#a68a4e"></stop></radialGradient><linearGradient x1="352.97694" y1="166.7866" x2="361.09107" y2="166.61797" gradientUnits="userSpaceOnUse" id="color-3"><stop offset="0" stop-color="#a6a6a6"></stop><stop offset="1" stop-color="#a6a6a6"></stop></linearGradient><linearGradient x1="344.53149" y1="150.89971" x2="352.64563" y2="150.7311" gradientUnits="userSpaceOnUse" id="color-4"><stop offset="0" stop-color="#a6a6a6"></stop><stop offset="1" stop-color="#a6a6a6"></stop></linearGradient></defs><g transform="translate(-228.21652,-51.22471)"><g data-paper-data="{&quot;isPaintingLayer&quot;:true}" fill-rule="nonzero" stroke="#000000" stroke-linecap="butt" stroke-linejoin="miter" stroke-miterlimit="10" stroke-dasharray="" stroke-dashoffset="0" style="mix-blend-mode: normal"><path d="M312.15144,173.73059l-0.12336,-5.93622c0,0 5.04057,-0.10736 5.54689,-0.04293c0.57763,0.0735 1.86064,2.90871 1.86064,2.90871l-2.95779,2.98053c0,0 -1.28629,2.9327 -3.3177,4.31937c-1.65616,1.13052 -4.08733,0.76672 -4.42774,0.77379c-0.6744,0.01401 3.41904,-5.00326 3.41904,-5.00326z" fill="#292929" stroke-width="0.25"></path><path d="M336.88931,111.44847l-6.83534,-10.95332l3.1515,-2.24169l6.18815,11.3678z" fill="url(#color-1)" stroke-width="0.25"></path><path d="M348.31623,128.86443l-2.19009,-5.35914c0,0 14.15053,-0.4455 19.08094,-0.77582c3.71822,-0.24912 10.0128,0.37911 10.0128,0.37911c0,0 14.06267,4.7336 14.25437,5.73205c0.06403,0.33348 -8.94757,-0.43768 -8.94757,-0.43768c0,0 -5.34384,-1.97097 -7.30924,-1.90715c-1.17665,0.03821 -19.64623,2.99931 -20.30692,3.15275c-1.0983,0.25505 -4.5943,-0.78411 -4.5943,-0.78411z" fill="#a52020" stroke-width="0.25"></path><path d="M242.51869,182.15366c0,0 -6.46791,1.51317 -6.25476,-1.95583c0.21474,-3.49513 10.20131,-5.79607 10.20131,-5.79607c0,0 2.09834,-0.82222 27.45346,-10.86598c3.08655,-0.09789 13.88329,3.48418 13.88329,3.48418l0.3225,5.83142c0,0 -13.25917,1.4314 -13.71885,1.36171c-0.42844,-0.06496 -6.78536,3.95885 -7.60239,4.13678c-1.00813,0.21954 -24.28456,3.80381 -24.28456,3.80381z" fill="#1d1d1d" stroke-width="0.25"></path><path d="M298.34004,170.3743c-0.09527,-4.58432 3.54383,-8.37787 8.12815,-8.47314c4.58432,-0.09527 8.37788,3.54384 8.47314,8.12815c0.09526,4.58432 -3.54384,8.37788 -8.12815,8.47314c-4.58432,0.09527 -8.37787,-3.54384 -8.47314,-8.12815z" fill="#292929" stroke-width="0.25"></path><path d="M322.01594,167.92796c0,0 1.27427,-7.08335 1.69187,-10.41611c0.3933,-3.1388 0.74521,-9.03346 0.74521,-9.03346l4.17084,0.47852c0,0 -0.33051,5.43456 -0.80484,8.33922c-0.55993,3.42893 -2.34073,10.92374 -2.34073,10.92374z" fill="#1d1d1d" stroke-width="0.115"></path><path d="M294.087,161.51594l-0.7809,-18.20276c0,0 6.03836,-6.88578 10.14557,-7.73934c4.14426,-0.86126 19.44561,2.79615 19.44561,2.79615c0,0 2.14639,12.68537 2.11735,18.41956c-0.02508,4.94951 -2.2815,13.97918 -2.2815,13.97918l-8.49172,-10.82524l-13.67958,3.14906z" fill="#0e0e0e" stroke-width="0.25"></path><path d="M289.1178,177.05835c0,0 -1.50772,-4.74124 -1.57377,-7.91924c-0.04662,-2.24326 1.29903,-18.03667 1.89049,-18.82686c0.02005,-0.02679 -0.89265,-7.00654 -0.89265,-7.00654c0,0 1.46973,-1.90826 2.49994,-2.78934c0.54803,-0.4687 1.90252,-6.24276 1.90252,-6.24276l8.6827,0.8598l2.05334,1.51741c0,0 -3.3306,2.69174 -5.76982,5.16346c-2.31005,2.34082 -3.72769,4.46162 -4.00071,4.70309c-0.39608,0.35031 0.28993,1.26462 0.40749,1.1772c0.24464,-0.18194 14.71197,-10.40256 14.71197,-10.40256c0,0 2.63583,-0.04217 3.79967,0.22686c1.08927,0.2518 2.97447,1.33908 2.97447,1.33908c0,0 -7.72102,4.37825 -13.51977,7.74527c-2.62086,1.52179 -4.36811,2.64842 -5.16356,3.81594c-0.53455,0.7846 -2.16674,10.92297 -2.16674,10.92297l8.56934,-15.79403c0,0 4.70066,-2.67673 4.65358,-2.32194c-0.0135,0.10168 -6.43977,12.52026 -8.23765,17.06565c-0.36744,0.92895 0.53902,2.47112 0.53902,2.47112c0,0 14.25493,-9.20999 14.8436,-9.97386c0.37046,-0.48072 13.66952,-23.24585 13.66952,-23.24585l-15.72437,-4.16345l24.96341,-10.44043l4.79459,9.74602c0,0 -23.09644,27.66985 -25.29096,31.93447c-0.33335,0.28216 3.42862,8.8903 4.882,12.25551c0.52527,1.21623 -3.2826,3.00076 -3.52162,2.91106c-0.35817,-0.1344 -4.05769,-10.73522 -5.0849,-11.25767c-0.11024,-0.05607 -3.01736,-0.04496 -3.68364,1.13233c-0.27239,0.4813 0.02626,4.77218 -0.18417,4.90895c-0.31965,0.20776 -1.01511,1.57959 -1.96508,0.76575c-1.08477,-0.92932 -2.42514,-4.07842 -2.59129,-4.11334c-0.61834,-0.12993 -4.87932,2.36993 -4.90014,2.38076c-1.67196,0.85934 -3.27026,3.09747 -3.51361,3.7618c-2.05847,5.61932 -2.1065,8.07304 -2.1065,8.07304z" fill="#1d1d1d" stroke-width="0.25"></path><path d="M358.84825,156.07023l-23.65233,-45.52199l4.53476,-3.61311l21.49428,40.73613z" fill="url(#color-2)" stroke-width="0.25"></path><path d="M344.11197,127.5619c-0.60733,0.22714 -1.17895,-1.61091 -1.03163,-1.73769c0.30554,-0.26296 4.38951,-3.23369 4.80104,-3.34683c0.72548,-0.19944 1.31113,1.22913 1.12265,1.72243c-0.10627,0.27813 -4.14795,3.08381 -4.89206,3.36209z" fill="url(#color-3)" stroke-width="0.25"></path><path d="M335.66654,111.67501c-0.60733,0.22714 -1.17892,-1.61092 -1.03163,-1.73768c0.30552,-0.26296 4.3895,-3.23369 4.80104,-3.34683c0.72548,-0.19944 1.31113,1.22913 1.12264,1.72243c-0.10627,0.27813 -4.14794,3.0838 -4.89205,3.36207z" fill="url(#color-4)" stroke-width="0.25"></path><path d="M297.29073,134.41112l2.21585,-4.77694c0,0 17.36048,-4.43556 19.43786,-4.32002c1.2599,0.07007 9.23084,3.42231 9.23084,3.42231c0,0 10.05364,-3.92155 10.98529,-4.15765c1.05808,-0.26813 11.84953,-0.10577 12.28187,0.05047c0.37367,0.13503 -23.70426,26.80608 -23.70426,26.80608l-2.19399,0.10619c0,0 -21.65145,-14.40615 -21.87387,-14.46883c-0.8313,-0.23428 -6.37955,-2.66159 -6.37955,-2.66159z" fill="#a52020" stroke-width="0.25"></path><path d="M288.56032,135.69977l-2.97843,-2.85717l33.81747,-14.69411c0,0 12.82038,-0.63437 12.97301,-0.47711c0.4742,0.48857 -9.48884,4.49662 -10.40482,4.92088c-4.40887,2.04208 -14.98708,8.22703 -22.66166,11.1466c-1.55655,0.59215 -4.67298,1.54658 -5.95383,2.05057c-1.04873,0.41265 -2.18623,-0.64707 -2.18623,-0.64707z" fill="#a52020" stroke-width="0.25"></path><path d="M252.14095,122.06259c0,0 -24.26175,-6.5198 -23.79271,-6.65224c0.58417,-0.16495 21.70307,2.97134 21.70307,2.97134z" fill="#a52020" stroke-width="0.25"></path><path d="M279.13765,147.26986l-31.5536,-26.52177l4.79697,1.08402c0,0 8.13331,3.11518 11.42867,4.03779c5.28142,1.47864 10.20072,3.10119 10.66494,3.17334c1.14432,0.17786 14.33107,3.93367 14.33107,3.93367c0,0 2.41872,0.92888 3.2124,2.01183c0.91149,1.24369 1.95221,5.03503 1.95221,5.03503c0,0 -5.26978,3.41226 -5.22292,3.62241c0.07142,0.32027 0.26742,4.20826 -0.32819,4.63869c-2.41252,1.74354 -9.28157,-1.015 -9.28157,-1.015z" fill="#a52020" stroke-width="0.25"></path><path d="M251.13899,122.28473l-2.60107,-4.0729c0,0 41.29484,3.82408 41.95155,3.75845c21.24691,-2.12354 29.31235,-3.83016 29.31235,-3.83016c0,0 -23.38166,16.16768 -34.30543,14.59925c-10.71083,-1.53785 -34.3574,-10.45465 -34.3574,-10.45465z" fill="#292929" stroke-width="0.25"></path><path d="M291.25136,182.85214c-0.81027,-0.24462 -2.13492,-5.98108 -2.13492,-5.98108c0,0 2.20496,-4.37749 5.592,-4.18986c1.93669,0.10729 4.31265,2.6939 6.47854,3.43222c4.66294,1.58955 8.86988,1.91937 9.26829,1.94409c4.04527,-0.9789 11.01929,-10.65239 11.55573,-11.26436c0.05543,-0.10405 3.73895,1.38167 3.73895,1.38167c0,0 -5.27966,10.46429 -6.73345,13.10182c-1.66373,3.01841 -26.4012,1.90717 -27.76514,1.5755z" fill="#1d1d1d" stroke-width="0.25"></path><path d="M327.87693,99.0384c-0.03718,-1.78911 1.38304,-3.2696 3.17213,-3.30678c1.7891,-0.03718 3.2696,1.38304 3.30678,3.17213c0.03718,1.7891 -1.38305,3.2696 -3.17214,3.30678c-1.78911,0.03718 -3.26959,-1.38304 -3.30677,-3.17214z" fill="#151515" stroke-width="0.25"></path><path d="M288.37567,65.04465c0,0 6.65157,-7.08079 14.45473,-10.76169c6.76927,-3.19317 14.64576,-3.07989 16.82443,-2.80858c0.25842,0.03218 6.03177,6.98478 3.66649,12.34952c-2.36528,5.36474 -5.94921,4.44469 -12.68682,8.10972c-6.17478,3.35886 -15.60115,4.53791 -16.02005,4.00043c-2.46884,-3.16774 -6.23882,-10.8894 -6.23882,-10.8894z" fill="#afafaf" stroke-width="0.25"></path><path d="M319.05581,61.4755l6.13608,17.81103l4.65308,12.28011l-3.24519,1.92104c0,0 -2.84246,-4.04052 -5.94735,-8.08161c-2.99032,-3.89196 -8.10681,-18.84342 -8.10681,-18.84342z" fill="#d89856" stroke-width="0.25"></path><path d="M312.7255,70.48756c0,0 -2.39092,-3.87396 -1.8877,-8.05497c0.27551,-2.28906 2.31899,-2.96829 3.63757,-3.47282c1.08984,-0.41701 2.77325,-0.16501 4.26962,0.26215c3.30681,0.94401 3.63855,8.72494 3.63855,8.72494z" fill="#afafaf" stroke-width="0.25"></path><path d="M287.93487,90.19064c-9.51026,11.72877 -19.72423,24.37231 -21.36763,26.53498c-0.46175,0.60766 -2.69712,-6.97014 -2.69712,-6.97014l15.09438,-24.69224c0,0 11.05171,2.5606 8.97039,5.12742z" fill="#d89856" stroke-width="0.25"></path><path d="M262.26615,119.01327l1.00676,-9.71116l16.90097,6.40159l-0.52987,5.11113z" fill="#636363" stroke-width="0.25"></path><path d="M286.53769,93.47112c-1.27215,0.02072 -8.44045,-4.7518 -8.38743,-7.30985c0.10582,-5.10509 1.64909,-11.11584 4.02156,-16.61679c1.69488,-3.92983 7.61709,-5.41696 7.61709,-5.41696c0,0 6.86826,8.42407 6.70801,11.87943c-0.07713,1.66321 -8.68025,16.79501 -9.95923,17.46417z" fill="#333333" stroke-width="0.25"></path><path d="M329.47256,90.41418l5.28436,2.51274l1.82437,3.5945l-1.33868,3.61454c0,0 -1.17668,-3.58108 -2.33894,-4.40995c-1.0768,-0.76793 -3.18628,-1.23533 -4.80617,-1.38298c-1.11941,-0.10205 -1.79006,-0.78956 -1.79006,-0.78956z" fill="#383838" stroke-width="0.25"></path></g></g></svg>