<svg version="1.1" xmlns="http://www.w3.org/2000/svg" xmlns:xlink="http://www.w3.org/1999/xlink" width="36.12953" height="28.87539" viewBox="0,0,36.12953,28.87539"><defs><linearGradient x1="223.06937" y1="165.29651" x2="257.90004" y2="165.21911" gradientUnits="userSpaceOnUse" id="color-1"><stop offset="0" stop-color="#000000"></stop><stop offset="1" stop-color="#000000"></stop></linearGradient></defs><g transform="translate(-223.06983,-150.35341)"><g data-paper-data="{&quot;isPaintingLayer&quot;:true}" fill-rule="nonzero" stroke-linecap="butt" stroke-linejoin="miter" stroke-miterlimit="10" stroke-dasharray="" stroke-dashoffset="0" style="mix-blend-mode: normal"><path d="M249.28751,165.92505c0,0.9321 2.98161,2.26724 2.93218,3.13971c-0.0567,1.00022 -3.23599,1.30108 -3.52666,2.17986c-1.46783,4.43768 -2.79156,7.85918 -8.69197,7.85918c-8.08808,0 -13.78744,-20.03738 -13.78744,-20.03738l13.78744,-6.74878c0,0 9.28647,6.21063 9.28647,13.60741z" fill="#d89856" stroke="#000000" stroke-width="0.25"></path><g stroke="none" stroke-width="0"><path d="M223.06983,165.5017l2.6918,-9.19746c0,0 7.33126,-4.62858 11.57877,-4.55454c12.84811,0.22397 13.89138,6.90881 13.89138,6.90881c0,0 -8.50849,3.68586 -8.53104,6.05022c-0.00421,0.44103 0.04018,3.43881 1.59819,4.47542c1.4223,0.94631 4.26323,1.86837 6.08564,1.33425c1.642,-0.48124 2.10749,-2.37068 3.57698,-2.55021c1.29065,-0.15767 3.94893,1.94103 3.94893,1.94103l-1.18479,3.6447c0,0 0.6217,3.24822 0.7097,4.06227c0.11568,1.07008 -1.01547,0.83507 -1.0849,1.05589c-0.1424,0.45293 -9.0611,-1.50019 -13.69052,-2.22209c-1.28772,-0.2008 -1.89052,0.43717 -3.12895,0.67631c-1.32896,0.25662 -3.29839,0.12228 -4.84062,0.08291c-2.11777,-0.05406 -4.18081,-0.95233 -5.03446,-0.77428c-1.5909,0.33182 -3.7765,-3.76588 -3.7765,-3.76588l1.17518,-0.22994z" fill="url(#color-1)"></path><path d="M239.32979,159.43837l-1.51818,-5.11975l21.38775,-3.96521l-3.91063,3.17297l-6.14957,2.02141l-5.92792,4.1912z" fill="#0e0e0e"></path></g></g></g></svg>