<svg version="1.1" xmlns="http://www.w3.org/2000/svg" xmlns:xlink="http://www.w3.org/1999/xlink" width="26.97664" height="27.59697" viewBox="0,0,26.97664,27.59697"><g transform="translate(-224.79201,-152.76152)"><g data-paper-data="{&quot;isPaintingLayer&quot;:true}" fill-rule="nonzero" stroke="none" stroke-width="0" stroke-linecap="butt" stroke-linejoin="miter" stroke-miterlimit="10" stroke-dasharray="" stroke-dashoffset="0" style="mix-blend-mode: normal"><g><path d="M243.97131,174.56989c-0.24977,-0.18947 -0.19,-1.09361 -0.12195,-1.15691c0.3412,-0.3174 1.49187,0.03659 1.49187,0.03659c0,0 0.03922,0.94115 -0.13415,1.14472c-0.08519,0.10003 -0.45009,-0.05244 -0.60479,-0.03818c-0.15921,0.01467 -0.45177,0.14974 -0.63098,0.01379z" fill="#dadada"></path><g><path d="M242.6925,173.33847v-3.66667h4.53333v3.66667z" fill="#dadada"></path><path d="M226.81333,171.73847c0,0 -4.54798,-8.50726 0,-14.125c2.67601,-3.30545 8.60779,-5.40269 12.39286,-4.72471c4.18497,0.74961 7.23214,3.72471 7.23214,3.72471c0,0 2.86364,2.73106 2.13013,4.44674c-0.20341,0.47576 -1.41302,0.70457 -2.23423,0.95079c-0.73559,0.22055 -1.33398,0.53827 -1.86367,1.29223c-0.3071,0.43712 0.33707,1.83121 -0.60303,2.86694c-0.43762,0.48214 -1.00096,0.3597 -1.90418,0.65309c-0.66617,0.21639 -1.69964,0.87179 -2.06534,1.0678c-0.71304,0.38218 -2.67042,2.72143 -2.09355,3.89175c0.52419,1.06344 0.3922,2.28066 0.3922,2.28066c0,0 -3.04896,1.90612 -6.91973,1.09971c-2.68985,-0.56038 -4.4636,-3.42471 -4.4636,-3.42471z" fill="#dcdcdc"></path><path d="M238.6925,174.4718l-2,-4.86666l2.2,0.13333c0,0 -0.54396,1.16789 1.65279,1.16397c0.89532,-0.0016 1.91961,-1.57884 1.91961,-1.57884c0,0 0.679,0.37237 0.79574,0.60028c0.18803,0.3671 -0.77483,3.45115 0.87275,4.96412c1.07598,0.98807 2.90012,0.63693 4.39128,0.9754c0.42706,0.09694 2.27531,-0.35239 2.75493,0.08907c0.24268,0.22338 -0.8074,1.41878 -0.65015,1.51331c0.96657,0.58102 0.72656,1.88388 0.37079,2.54346c-0.17372,0.32208 -1.11772,0.4767 -2.1644,0.22152c-2.35878,-0.57507 -5.74334,-2.2923 -5.74334,-2.2923c0,0 -3.05307,-0.00419 -3.27249,-0.12259c-1.35035,-0.72866 -1.12751,-3.34408 -1.12751,-3.34408z" fill="#d8d8d8"></path><path d="M232.2925,169.73847c0,0 -1.25714,-0.44571 -1.27177,-1.03552c-0.0089,-0.3587 0.27177,-0.69782 0.27177,-0.69782c0,0 2.61547,0.53334 4.46667,0.53334c1.17426,0 3.44058,-0.19943 5.0787,-0.61976c0.79563,-0.20415 1.25503,-0.63273 1.79083,-0.66318c0.02571,-0.00146 -0.05056,-0.46802 -0.12181,-0.9857c-0.07655,-0.55613 -0.41398,-1.50459 -0.34631,-1.6655c0.12906,-0.30688 0.79612,-0.22197 0.75817,-0.48005c-0.03946,-0.26837 0.05108,-0.87664 0.107,-0.98729c0.43136,-0.85346 1.03732,-0.14184 1.23375,0.3323c0.21876,0.52805 0.36839,1.39682 0.4704,2.28027c0.05256,0.45518 0.43677,1.09008 1.38375,1.50894c1.01778,0.45017 0.54355,-0.53404 0.51555,-1.70786c-0.02756,-1.1546 0.08613,-1.89051 0.39771,-2.22475c0.08458,-0.09073 -0.36638,-1.41394 -0.36638,-1.41394l1.94641,-1.02548c0,0 -0.27283,2.02755 -0.0984,3.0138c0.11372,0.64294 0.52771,1.01053 0.57855,1.033c0.54954,0.24296 0.99096,0.30367 0.96437,0.42185c-0.19147,0.8512 -1.48052,4.91887 -1.48052,4.91887l1.75665,0.25772l0.04878,0.95469c0,0 1.54928,1.25865 0.95924,1.44352c-1.90313,0.59626 -7.94929,0.67861 -8.16394,0.30647c-0.1865,-0.32334 3.67735,-0.89619 3.41249,-1.20497c-0.45421,-0.52953 -1.64582,-1.19537 -1.64582,-1.19537l-2.24582,-1.16424z" fill="#cecece"></path><path d="M245.55424,174.63046c-0.24746,-0.24932 -0.28788,-1.08974 -0.21951,-1.18293c0.28255,-0.3851 1.58537,0 1.58537,0c0,0 0.08947,1.02874 -0.17073,1.2561c-0.07981,0.06974 -0.45035,-0.10661 -0.59766,-0.13606c-0.11621,-0.02324 -0.44612,0.21537 -0.59746,0.06289z" fill="#dadada"></path><path d="M246.95668,174.39875c-0.01202,-0.07187 -0.04762,-0.93487 -0.03659,-0.96341c0.09225,-0.2385 0.87721,-0.16526 0.87805,-0.03659c0.00052,0.07978 0.166,1.00296 0.09756,1.07317c-0.16678,0.1711 -0.89902,0.16596 -0.93902,-0.07317z" fill="#dadada"></path><path d="M247.94448,174.36216c-0.01202,-0.07187 -0.16958,-0.93488 -0.15854,-0.96341c0.58005,-0.36045 1.02355,-0.14087 1.02439,-0.01219c0.00052,0.07978 0.14161,0.97857 0.07317,1.04878c-0.16678,0.1711 -0.89902,0.16596 -0.93902,-0.07317z" fill="#dadada"></path><path d="M248.97802,174.37415c-0.01816,-0.07303 -0.2619,-0.93675 -0.25282,-0.96703c0.33657,-0.62505 0.90573,-0.22604 0.91693,-0.09361c0.00694,0.0821 0.22711,0.95836 0.16228,1.03615c-0.15798,0.18957 -0.76598,0.2675 -0.82638,0.02449z" fill="#dadada"></path><path d="M250.97321,174.10072c-0.01816,-0.07304 -0.35401,-1.05518 -0.34493,-1.08545c0.52079,-0.92768 0.8531,-0.42341 0.86429,-0.29098c0.00695,0.0821 0.33237,1.22152 0.26754,1.29931c-0.15797,0.18956 -0.72651,0.18855 -0.78691,0.07712z" fill="#dadada"></path><path d="M250.01268,174.17967c-0.01816,-0.07304 -0.47243,-0.85781 -0.46335,-0.88808c0.33658,-0.62505 1.12941,-0.26551 1.14061,-0.13309c0.00695,0.0821 0.24026,0.80047 0.17544,0.87826c-0.15797,0.18956 -0.7923,0.38592 -0.8527,0.14291z" fill="#dadada"></path></g></g></g></g></svg>