<svg version="1.1" xmlns="http://www.w3.org/2000/svg" xmlns:xlink="http://www.w3.org/1999/xlink" width="84.38486" height="98.55339" viewBox="0,0,84.38486,98.55339"><defs><radialGradient cx="294.05175" cy="104.16134" r="1" gradientUnits="userSpaceOnUse" id="color-1"><stop offset="0" stop-color="#1b1b1b"></stop><stop offset="1" stop-color="#2b2b2b"></stop></radialGradient><radialGradient cx="240" cy="180.00004" r="0.64706" gradientUnits="userSpaceOnUse" id="color-2"><stop offset="0" stop-color="#929292"></stop><stop offset="1" stop-color="#636363"></stop></radialGradient></defs><g transform="translate(-228.38427,-83.53151)"><g data-paper-data="{&quot;isPaintingLayer&quot;:true}" fill-rule="nonzero" stroke-linejoin="miter" stroke-miterlimit="10" stroke-dasharray="" stroke-dashoffset="0" style="mix-blend-mode: normal"><path d="M298.6259,165.84273c0,0 0.23007,-3.81928 1.08803,-8.00473c0.78542,-3.83158 1.68702,-4.51659 2.54644,-9.93546c0.3504,-2.20935 0.53219,-4.9487 0.53219,-4.9487" fill="none" stroke="#000000" stroke-width="0.4" stroke-linecap="round"></path><path d="M302.62589,160.12049c0,0 -0.51327,-4.85442 -0.38261,-7.22494c0.12856,-2.33257 1.16039,-6.88617 1.16039,-6.88617" fill="none" stroke="#000000" stroke-width="0.4" stroke-linecap="round"></path><path d="M302.95921,160.06492c0,0 -0.50502,-3.5395 -0.35713,-5.54913c0.16504,-2.24255 1.30158,-7.2842 1.30158,-7.2842" fill="none" stroke="#000000" stroke-width="0.4" stroke-linecap="round"></path><path d="M293.56298,105.30476l-0.37397,-1.90269c0,0 0.05837,-0.46098 0.31347,-0.52518c0.04691,-0.0118 0.9115,-0.61686 1.37836,-0.91037c1.10187,-0.69273 -0.24112,-0.9098 0.21464,-1.80674c0.4078,-0.80254 1.85633,-1.23833 1.9717,-1.17052c0.13684,0.00308 1.22367,0.11108 1.53701,1.13088c0.29585,0.96286 -0.17643,2.83962 -0.20022,2.88007c-0.25161,0.42778 -2.45725,-0.28426 -2.58855,-0.24131c-0.31311,0.10242 -0.92709,0.21554 -0.92709,0.21554l0.59137,1.85921z" fill="url(#color-1)" stroke="#000000" stroke-width="0.25" stroke-linecap="butt"></path><path d="M305.17888,153.30032c0,0 -11.78393,-47.43989 -11.80908,-47.89184c-0.01527,-0.27445 2.02647,-0.82536 2.5803,-0.49864c0.6173,0.36415 12.20039,47.89184 12.20039,47.89184c0,0 -1.60314,0.80258 -2.26458,0.93328c-0.37486,0.07407 -0.70703,-0.43463 -0.70703,-0.43463z" fill="#3f3f3f" stroke="#000000" stroke-width="0.25" stroke-linecap="butt"></path><path d="M290.65,170.83338v-0.26667c0,0 1.58065,-0.68678 1.70756,-0.71329c0.21005,-0.04388 2.15911,0.07996 2.15911,0.07996l0.83067,-0.71867l-1.19734,1.48533z" fill="#3e3e3e" stroke="#000000" stroke-width="0.25" stroke-linecap="butt"></path><path d="M257.98334,170.73338c0,0 -1.1301,0.12329 -1.73378,0.00219c-0.50393,-0.10109 -0.49956,-0.44323 -0.49956,-0.50219c0,-0.09139 2.14657,0.0301 2.14657,0.0301l0.08677,-0.36344h2.06667l1.93333,0.83334z" fill="#3e3e3e" stroke="#000000" stroke-width="0.25" stroke-linecap="butt"></path><path d="M249.90922,167.44392l-0.02601,-0.5423c0,0 2.54119,0.43182 3.42445,0.79679c0.87472,0.36144 2.71646,0.82442 2.71646,0.82442c0,0 0.31805,-0.02545 0.66137,0.07935c0.74459,0.22729 1.85494,0.69688 1.8378,0.7569c-0.01995,0.06983 -1.22233,-0.37357 -2.00226,-0.46349c-0.4503,-0.05192 -0.6709,0.23621 -0.6709,0.23621z" fill="#4a4a4a" stroke="#000000" stroke-width="0.25" stroke-linecap="butt"></path><path d="M238.29684,179.53275c-0.33083,-0.32301 0.19432,-0.71496 -0.09366,-1.11568c-0.32303,-0.44949 -1.36846,-1.30285 -1.36846,-1.30285l1.23039,-1.03291c0,0 1.17406,1.94507 1.24793,1.9778c0.14788,0.06552 0.75909,-0.19555 0.87378,0.24925c0.18723,0.72612 -0.56618,0.36834 -1.03158,0.665c-0.48564,0.30956 -0.11722,1.28306 -0.85839,0.5594z" fill="#2f2f2f" stroke="#000000" stroke-width="0.25" stroke-linecap="butt"></path><path d="M251.01218,173.86591c0,0 -0.089,-0.43433 -0.24301,-0.83453c-0.14077,-0.36583 -0.28254,-0.7317 -0.30945,-0.95493c-0.05004,-0.41511 0.03417,-3.96036 -0.02004,-3.9783c-0.23189,-0.07672 -2.61706,-0.67895 -2.74848,-0.76508c-0.25457,-0.16685 -0.04073,-0.74867 -0.04073,-0.74867l8.61702,2.61702c0,0 -0.34268,0.6241 -0.11901,0.99941c0.12477,0.20935 1.47512,0.55579 1.49639,0.61864c0.03782,0.1117 -0.03696,5.94005 -0.03696,5.94005l-3.27976,0.07699z" fill="#3e3e3e" stroke="#000000" stroke-width="0.25" stroke-linecap="butt"></path><path d="M241.53125,181.71879c0,0 -2.60594,1.01311 -3.26757,-1.11406c-0.80935,-2.60209 2.67934,-2.88594 2.67934,-2.88594c0,0 13.42519,-4.97006 13.82353,-5.05883c0.55393,-0.12344 2.36615,-0.04306 2.66759,0.69432c0.42956,1.0508 -0.29892,1.76405 -0.24878,2.12674c0.12791,0.92507 0.75765,2.00247 0.75765,2.00247c0,0 -5.03532,1.93107 -6.57977,2.46287c-0.58523,0.20152 -0.62628,-1.34982 -1.46092,-1.17084c-1.23653,0.26516 -8.37108,2.94326 -8.37108,2.94326z" fill="#5a5a5a" stroke="#000000" stroke-width="0.25" stroke-linecap="butt"></path><path d="M239.35294,180.00004c0,-0.35736 0.2897,-0.64706 0.64706,-0.64706c0.35736,0 0.64706,0.2897 0.64706,0.64706c0,0.35736 -0.2897,0.64706 -0.64706,0.64706c-0.35736,0 -0.64706,-0.2897 -0.64706,-0.64706z" fill="#2f2f2f" stroke="url(#color-2)" stroke-width="0.75" stroke-linecap="butt"></path><path d="M228.52565,177.27935c0,0 0.95705,-3.15415 1.7842,-4.3984c1.07402,-1.61562 3.00303,-2.92074 3.00303,-2.92074c0,0 0.13575,0.15109 0.28451,0.07669c0.68786,-0.34402 2.2177,-1.17157 2.4765,-1.23395c0.05465,-0.01317 0.26646,0.11416 0.32237,0.09653c1.23782,-0.3902 1.81024,-0.30098 1.81024,-0.30098c0,0 0.22815,1.93895 0.45523,2.66248c0.07634,0.24324 -0.95943,2.17122 -0.82602,3.18687c0.15022,1.14352 1.24313,2.57619 1.24313,2.57619c0,0 -0.201,0.23946 -0.37686,0.0623c-0.29118,-0.29334 -0.7518,-1.03468 -1.27867,-0.63001c-0.62542,0.48037 -0.03386,0.95546 0.24114,1.45042c0.11187,0.20136 -0.18733,0.40695 -0.19914,0.40497c-0.07904,-0.01325 -0.8678,-1.14525 -1.58638,-1.77128c-0.33181,-0.28907 -1.11133,-0.57411 -1.75406,-0.52437c-2.16908,0.16783 -5.59921,1.26329 -5.59921,1.26329z" fill="#2f2f2f" stroke="#000000" stroke-width="0.25" stroke-linecap="butt"></path><g fill="#fd8a17" stroke="none" stroke-width="0" stroke-linecap="butt"><path d="M251.2635,175.66653l-0.18205,-0.49713l0.44189,-0.16182l0.18205,0.49713z"></path><path d="M251.81707,175.98797l-0.18205,-0.49713l0.44189,-0.16182l0.18205,0.49713z"></path><path d="M252.40635,176.30941l-0.18205,-0.49713l0.44189,-0.16182l0.18205,0.49713z"></path><path d="M252.95992,176.63084l-0.18205,-0.49713l0.44189,-0.16182l0.18205,0.49713z"></path><path d="M253.53135,176.84513l-0.18205,-0.49713l0.44189,-0.16182l0.18205,0.49713z"></path><path d="M252.1385,175.30941l-0.18205,-0.49713l0.44189,-0.16182l0.18205,0.49713z"></path><path d="M252.69207,175.63084l-0.18205,-0.49713l0.44189,-0.16182l0.18205,0.49713z"></path><path d="M253.28135,175.95224l-0.18205,-0.49713l0.44189,-0.16182l0.18205,0.49713z"></path><path d="M253.83492,176.2737l-0.18205,-0.49713l0.44189,-0.16182l0.18205,0.49713z"></path><path d="M254.40635,176.48797l-0.18205,-0.49713l0.44189,-0.16182l0.18205,0.49713z"></path><path d="M252.97633,175.03912l-0.18204,-0.49713l0.44189,-0.16182l0.18205,0.49713z"></path><path d="M253.50288,175.3876l-0.18204,-0.49713l0.44189,-0.16182l0.18205,0.49713z"></path><path d="M254.09216,175.73605l-0.18205,-0.49713l0.44189,-0.16182l0.18205,0.49713z"></path><path d="M253.79486,174.81713l-0.18204,-0.49713l0.44189,-0.16182l0.18205,0.49713z"></path></g><path d="M237.1214,176.88577c0,-0.32315 0.26196,-0.5851 0.5851,-0.5851c0.32315,0 0.58511,0.26196 0.58511,0.5851c0,0.32315 -0.26196,0.5851 -0.58511,0.5851c-0.32315,0 -0.5851,-0.26196 -0.5851,-0.5851z" fill="#2f2f2f" stroke="#000000" stroke-width="0.25" stroke-linecap="butt"></path><path d="M257.75,176.70001l-0.1,-5.86666l36.73334,-0.03333l0.03333,6.06667z" fill="#5a5a5a" stroke="#000000" stroke-width="0.25" stroke-linecap="butt"></path><path d="M294.41667,176.80002l-0.03333,-5.26667c0,0 0.69865,0.03383 0.9031,-0.3167c0.22717,-0.38949 -0.61634,-0.49595 -0.49381,-0.75572c0.09136,-0.19369 9.53758,-12.52326 9.81839,-12.61678c0.27231,-0.09069 0.09591,-0.47569 0.09591,-0.47569l2.11898,-0.40373l1.35743,5.06862c0,0 -1.78793,0.63325 -1.95317,0.69402c-0.34572,0.12715 -0.82905,0.19031 -0.94694,0.30512c-0.29208,0.28444 -6.9448,9.1228 -8.18109,10.79374c-0.23028,0.31125 -1.4188,3.14046 -1.4188,3.14046z" fill="#3f3f3f" stroke="#000000" stroke-width="0.25" stroke-linecap="butt"></path><g data-paper-data="{&quot;index&quot;:null}" fill="#fd8a17" stroke="none" stroke-width="0" stroke-linecap="butt"><path d="M261.89229,173.42781l-0.00777,-0.52936l0.47053,-0.0069l0.00777,0.52935z"></path><path d="M261.49027,173.92594l-0.00777,-0.52936l0.47053,-0.0069l0.00777,0.52935z"></path><path d="M261.0549,174.43684l-0.00777,-0.52936l0.47054,-0.0069l0.00777,0.52935z"></path><path d="M260.65289,174.93497l-0.00777,-0.52936l0.47054,-0.0069l0.00777,0.52936z"></path><path d="M260.19587,175.33944l-0.00777,-0.52936l0.47053,-0.0069l0.00777,0.52936z"></path><path d="M260.94743,173.4072l-0.00777,-0.52936l0.47053,-0.0069l0.00778,0.52935z"></path><path d="M260.54542,173.90532l-0.00777,-0.52936l0.47054,-0.00691l0.00777,0.52936z"></path><path d="M260.11005,174.41624l-0.00777,-0.52936l0.47054,-0.0069l0.00777,0.52935z"></path><path d="M259.7279,174.90676l-0.00777,-0.52936l0.47054,-0.00691l0.00777,0.52936z"></path><path d="M259.23115,175.32645l-0.00777,-0.52936l0.47053,-0.00691l0.00777,0.52936z"></path><path d="M260.06835,173.4544l-0.00777,-0.52936l0.47053,-0.00691l0.00777,0.52936z"></path><path d="M259.70124,173.96811l-0.00777,-0.52936l0.47053,-0.0069l0.00778,0.52935z"></path><path d="M259.27553,174.50427l-0.00777,-0.52936l0.47053,-0.00691l0.00777,0.52936z"></path><path d="M259.22456,173.53981l-0.00777,-0.52936l0.47053,-0.00691l0.00777,0.52936z"></path></g><path d="M249.85,167.10002c0,0 -2.46867,-0.76544 -2.86214,-0.97373c-0.58587,-0.31014 -2.60452,-2.52627 -2.60452,-2.52627" fill="none" stroke="#000000" stroke-width="0.25" stroke-linecap="round"></path><path d="M300.81667,174.40004c0,0 -3.59388,-0.0396 -3.21031,-0.55582c0.49865,-0.6711 7.58942,-10.10806 8.07221,-10.38704c0.51025,-0.29485 6.05603,-2.02561 6.28943,-1.78314c0.51746,0.53758 0.33162,0.63213 0.47971,1.08245c0.18315,0.55695 0.24954,1.03252 0.15068,1.25331c-0.15332,0.3424 -6.04839,2.75691 -6.04839,2.75691z" fill="#3f3f3f" stroke="#000000" stroke-width="0.25" stroke-linecap="butt"></path><path d="M308.11994,162.20487l-1.25418,-5.27008l0.36245,-0.12553c0,0 -0.41549,-0.19531 -0.1657,-0.26311c0.10152,-0.02756 -1.13705,0.214 -1.13705,0.214c0,0 -0.9491,-2.5563 -0.36001,-3.05899c0.14671,-0.09189 0.66429,-0.55844 0.66429,-0.55844l1.50769,-0.49032c0,0 1.49241,-0.03553 1.61102,0.01706c0.33483,0.14847 0.94793,3.06794 0.94793,3.06794c0,0 -0.87444,0.23496 -0.84515,0.23424c0.23987,-0.00587 0.12571,0.22725 0.12571,0.22725l0.73644,-0.20371l1.35417,5.37008z" fill="#1b1b1b" stroke="#000000" stroke-width="0.25" stroke-linecap="butt"></path><path d="M293.30363,105.51816c-0.58324,-0.05652 -0.54046,-0.70425 -0.17692,-0.84258c0.18946,-0.0721 2.48126,-0.63568 2.48126,-0.63568l-0.13278,-0.67185c0,0 -2.11152,0.57866 -2.29832,0.62808c-0.07213,0.01909 -0.53544,-0.38613 -0.14893,-0.56294c0.41412,-0.18944 2.42392,-0.59934 2.66704,-0.74085c1.14805,-0.66824 2.53923,-0.55788 2.53923,-0.55788l1.09883,1.43178l-0.89899,1.29975c0,0 -2.02832,-0.11271 -2.26263,-0.16448c-0.49395,-0.10913 -2.45891,0.85627 -2.8678,0.81665z" fill="#1b1b1b" stroke="#000000" stroke-width="0.25" stroke-linecap="butt"></path><path d="M295.17319,100.17033c0,-0.76839 0.62291,-1.3913 1.39131,-1.3913c0.76839,0 1.3913,0.62291 1.3913,1.3913c0,0.76839 -0.62291,1.39131 -1.3913,1.39131c-0.76839,0 -1.39131,-0.62291 -1.39131,-1.39131z" fill="#050505" stroke="#000000" stroke-width="0.25" stroke-linecap="butt"></path><g data-paper-data="{&quot;index&quot;:null}" fill="#fd8a17" stroke="none" stroke-width="0" stroke-linecap="butt"><path d="M305.63489,146.05549l0.50884,-0.12509l0.1112,0.4523l-0.50884,0.1251z"></path><path d="M305.25855,146.56516l0.50884,-0.1251l0.11119,0.4523l-0.50883,0.12509z"></path><path d="M304.87833,147.10995l0.50883,-0.12509l0.1112,0.4523l-0.50883,0.12509z"></path><path d="M304.50199,147.61961l0.50884,-0.12509l0.11119,0.4523l-0.50883,0.12509z"></path><path d="M304.22911,148.15853l0.50884,-0.1251l0.11119,0.4523l-0.50884,0.12509z"></path><path d="M305.8912,146.95505l0.50884,-0.12508l0.11119,0.45229l-0.50884,0.12509z"></path><path d="M305.51486,147.46472l0.50884,-0.12509l0.11119,0.45229l-0.50884,0.1251z"></path><path d="M305.13464,148.00956l0.50883,-0.12509l0.1112,0.4523l-0.50883,0.12509z"></path><path d="M304.7606,148.49828l0.50884,-0.12509l0.1112,0.4523l-0.50885,0.12509z"></path><path d="M304.4831,149.07904l0.50884,-0.12509l0.1112,0.45229l-0.50884,0.1251z"></path><path d="M306.06608,147.80865l0.50884,-0.1251l0.1112,0.45229l-0.50884,0.1251z"></path><path d="M305.66607,148.28883l0.50884,-0.12509l0.1112,0.4523l-0.50884,0.12509z"></path><path d="M305.25927,148.83068l0.50883,-0.12509l0.1112,0.45229l-0.50884,0.1251z"></path><path d="M306.19558,148.63805l0.50883,-0.1251l0.1112,0.4523l-0.50884,0.12509z"></path></g><path d="M238.9892,112.35164c0,0 1.57898,-9.58582 6.00839,-16.98977c3.84252,-6.42294 10.4466,-10.71692 12.40702,-11.70535c0.23253,-0.11724 8.90031,2.44009 9.92481,8.2129c1.0245,5.77283 -2.4643,7.00538 -6.01767,13.80255c-3.25653,6.22937 -5.30717,15.76326 -6.08177,18.27691c-0.89875,2.91656 -16.24079,-11.59722 -16.24079,-11.59722z" fill="#afafaf" stroke="#000000" stroke-width="0.25" stroke-linecap="butt"></path><path d="M289.96689,101.78956l-0.19005,-3.9851l5.91108,-2.44658l3.72211,1.54745l1.33048,3.61757c0,0 -3.221,-1.95803 -4.64307,-1.83309c-0.7891,0.06933 -1.78978,0.46127 -2.75075,0.96649c-0.64348,0.33832 -1.26914,0.72741 -1.80152,1.10447c-0.9173,0.64965 -1.57829,1.02879 -1.57829,1.02879z" fill="#383838" stroke="#000000" stroke-width="0.25" stroke-linecap="butt"></path><path d="M260.06991,88.62545l16.37159,9.62716l13.36123,-0.46621l0.31138,4.03339l-14.30334,1.44345l-21.17578,-6.38016z" fill="#d89856" stroke="#000000" stroke-width="0.25" stroke-linecap="butt"></path><path d="M262.31881,100.33898c0,0 -7.81147,-1.3583 -9.19879,-5.33441c-0.75955,-2.17688 0.77681,-3.68579 1.73901,-4.71894c0.79528,-0.85392 2.41794,-1.36815 3.94964,-1.64278c3.38494,-0.60692 7.95729,3.8806 7.95729,3.8806z" fill="#afafaf" stroke="#000000" stroke-width="0.25" stroke-linecap="butt"></path><path d="M265.40253,131.01294c-5.7267,13.97189 -11.86364,29.02256 -12.81409,31.56708c-0.26705,0.71496 -4.5914,-5.89716 -4.5914,-5.89716l7.33802,-27.99464c0,0 11.32078,-0.73299 10.06748,2.32474z" fill="#d89856" stroke="#000000" stroke-width="0.25" stroke-linecap="butt"></path><path d="M244.58372,163.72709l3.91105,-8.9456l14.15531,11.23611l-2.05843,4.7082z" fill="#636363" stroke="#000000" stroke-width="0.25" stroke-linecap="butt"></path><path d="M238.95667,111.88521c0,0 15.67242,-0.16924 18.03427,6.47591c1.02208,2.87565 6.05029,4.97911 8.53075,11.05863c1.82602,3.53897 -4.91157,6.01913 -7.45315,5.72457c-5.07224,-0.58784 -11.42254,-9.76816 -16.67462,-12.64992c-3.75205,-2.05871 -2.43725,-10.60919 -2.43725,-10.60919z" fill="#333333" stroke="#000000" stroke-width="0.25" stroke-linecap="butt"></path></g></g></svg>