<svg version="1.1" xmlns="http://www.w3.org/2000/svg" xmlns:xlink="http://www.w3.org/1999/xlink" width="122.99777" height="103.11451" viewBox="0,0,122.99777,103.11451"><g transform="translate(-237.23072,-81.29764)"><g data-paper-data="{&quot;isPaintingLayer&quot;:true}" fill-rule="nonzero" stroke-linecap="butt" stroke-linejoin="miter" stroke-miterlimit="10" stroke-dasharray="" stroke-dashoffset="0" style="mix-blend-mode: normal"><path d="M299.44038,102.97492c14.31486,-4.80561 29.71409,-10.00642 32.26056,-10.95157c0.7155,-0.26556 -1.45828,7.33013 -1.45828,7.33013l-25.97666,12.75772c0,0 -7.95842,-8.0846 -4.82561,-9.1363z" fill="#d89856" stroke="#000000" stroke-width="0.25"/><path d="M339.81165,98.88533l-9.75592,0.37693l3.94673,-17.63651l5.13468,-0.19838z" fill="#636363" stroke="#000000" stroke-width="0.25"/><path d="M297.78737,179.08367v-16.55004l24.28538,1.88886l-9.08453,13.13209c0,0 -4.01219,2.34621 -6.18352,2.56463c-2.75524,0.27715 -9.01733,-1.03555 -9.01733,-1.03555z" fill="#121212" stroke="none" stroke-width="0"/><path d="M294.09959,175.08108c0,-4.1976 3.40283,-7.60043 7.60043,-7.60043c4.1976,0 7.60042,3.40283 7.60042,7.60043c0,4.1976 -3.40282,7.60043 -7.60042,7.60043c-4.1976,0 -7.60043,-3.40283 -7.60043,-7.60043z" fill="#202020" stroke="#000000" stroke-width="0.5"/><path d="M320.57605,161.5931l3.5143,-26.18521l4.78586,1.27723c0,0 0.88662,0.67754 0.77961,1.8191c-0.28568,3.04758 -3.48065,22.89686 -3.48065,22.89686l-1.08309,1.3645z" fill="#313131" stroke="none" stroke-width="0"/><path d="M331.66829,113.56839l-6.54559,-5.1799l6.50333,-4.17808l3.31891,7.25289z" fill="#5c5c5c" stroke="none" stroke-width="0"/><path d="M291.66237,133.24685l-2.04413,-2.46205l20.68609,3.10134l-1.66841,4.41601z" fill="#000000" stroke="none" stroke-width="0"/><path d="M297.09873,170.33473l3.55409,-42.04039c0,0 10.88866,-4.02735 15.24779,-4.64695c3.14295,-0.44673 8.47334,1.27531 8.47334,1.27531l-0.67355,38.96781z" fill="#111111" stroke="none" stroke-width="0"/><path d="M305.44077,151.86118l-3.96515,4.60403l-28.18977,-26.6554l5.88552,-0.37924c0,0 29.25459,5.81055 30.56763,6.93171c0.97795,0.83504 -2.04095,3.00619 -2.04095,3.00619c0,0 -22.584,-6.72005 -22.99226,-5.36379c-1.01929,3.38616 20.73498,17.8565 20.73498,17.8565z" fill="#272727" stroke="#000000" stroke-width="0.5"/><path d="M297.7301,183.71144c-0.12594,-0.50373 -2.66736,-1.87568 -1.91535,-2.0872c1.78019,-0.50072 6.55216,-0.27729 8.95935,-1.59472c1.14492,-0.6266 5.51076,-2.77037 6.53116,-3.88598c1.40404,-1.53505 8.54672,-11.27845 8.54672,-11.27845c0,0 4.5666,-2.24589 3.84738,-1.31579c-0.27202,0.35178 -1.09355,3.08769 -2.58281,5.79794c-1.75795,3.19922 -4.23398,6.46883 -4.76792,7.27266c-1.05632,1.59027 -2.80037,3.04524 -3.79145,3.95703c-2.32794,2.1417 -7.90528,3.02537 -7.90528,3.02537c0,0 -2.3941,0.40261 -4.344,0.48029c-1.39617,0.05561 -2.52076,-0.14303 -2.57779,-0.37116z" fill="#111111" stroke="none" stroke-width="0"/><path d="M300.92572,125.834c3.58559,-2.27627 16.37993,-6.04333 16.37993,-6.04333l9.94585,3.66109c0,0 -0.99258,0.98782 -3.58736,1.97449c-1.40248,0.48468 -4.75666,-1.4116 -7.60577,-0.87221c-6.77883,1.28337 -14.30598,7.20781 -15.8907,7.24653c-0.95144,0.02159 -1.18714,-4.73167 0.75806,-5.96656z" fill="#5c5c5c" stroke="none" stroke-width="0"/><path d="M240.51143,120.42209l12.12169,1.17901c0,0 1.8961,0.58329 2.33702,0.91069c0.42496,0.31554 0.26237,1.01942 0.26237,1.01942z" fill="#ff0000" stroke="none" stroke-width="0"/><path d="M254.79545,123.35186c0,0 -1.02067,-1.89209 -0.54802,-2.09445c0.60869,-0.26059 16.56256,3.18442 24.38717,4.44052c7.60264,1.22047 17.4128,-1.7012 20.53046,-0.49384c1.66854,0.64617 -0.81433,7.87493 -0.81433,7.87493c0,0 -5.26975,-0.73334 -11.61886,-0.66504c-3.91475,0.04211 -9.26618,-0.70268 -12.01323,-1.31463c-7.63049,-1.69982 -19.9232,-7.7475 -19.9232,-7.7475z" fill="#000000" stroke="none" stroke-width="0"/><path d="M337.62144,104.44086c0,0.9015 -0.68782,1.63231 -1.53629,1.63231c-0.84847,0 -3.26461,-1.11488 -3.26461,-2.01638c0,-0.9015 2.41614,-1.24823 3.26461,-1.24823c0.84847,0 1.53629,0.73081 1.53629,1.63231z" fill="#5c5c5c" stroke="none" stroke-width="0"/><path d="M334.07553,104.6329c0,3.12873 -2.60309,5.66507 -5.81416,5.66507c-3.21107,0 -5.81415,-2.53634 -5.81415,-5.66507c0,-3.12873 2.60308,-5.66507 5.81415,-5.66507c3.21107,0 5.81416,2.53634 5.81416,5.66507z" fill="#000000" stroke="none" stroke-width="0"/><g fill="#272727" stroke="#000000"><path d="M238.45437,182.91202c0,0 -0.9583,-3.36953 -0.43144,-4.31571c0.22795,-0.40938 2.24508,1.07421 2.24508,1.07421l48.51181,-12.88981l0.22457,2.56097z" stroke-width="0.25"/><path d="M237.62882,178.70549c0.22795,-0.40938 1.76126,-0.69985 1.76126,-0.69985c0,0 35.71311,-15.64292 37.74441,-15.94457c1.83448,-0.27242 12.20028,5.78414 12.20028,5.78414l-1.534,2.59506l-12.84217,-3.06005c0,0 -9.93169,2.78506 -10.22368,3.33001c-0.30304,0.56556 1.44608,1.93774 1.44608,1.93774c0,0 1.26104,2.30512 0.51419,2.58629c-3.28875,1.23816 -28.54498,7.96685 -28.54498,7.96685c0,0 -1.04826,-3.54944 -0.5214,-4.49562z" stroke-width="0.5"/></g><path d="M298.3455,133.2734l7.39623,-1.91815c0,0 5.61433,0.22192 5.89073,0.74576c-0.0839,0.45951 -4.49412,3.12635 -4.49412,3.12635z" fill="#272727" stroke="#000000" stroke-width="0.5"/><path d="M323.18486,162.99497c0,0 -1.87132,5.76536 -5.16893,5.84839c-0.03036,0.00076 -11.07318,0.36672 -17.70594,1.21015c-2.77374,0.35271 -4.77624,1.40777 -4.87961,1.56368c-0.46857,0.70673 -1.13803,2.35036 -1.06495,3.20479c0.15619,1.82599 0.94382,3.34652 1.62354,4.26802c1.43111,1.94016 4.28506,3.54961 4.54276,4.69738c0.25472,1.13451 -3.93478,-0.6248 -4.45707,-1.08928c-0.34024,-0.30258 -2.99633,-1.12595 -4.37881,-3.07788c-2.71379,-3.8316 -4.79997,-9.87188 -4.79997,-9.87188c0,0 18.53637,-32.9697 21.00873,-34.36942c0.58369,-0.33046 14.08533,-9.40263 15.15773,-9.46916c0.03202,-0.00199 0.26204,1.42827 0.26204,1.42827l-0.49156,3.93888c0,0 -9.43636,7.35452 -9.89189,7.83791c-1.50644,1.59858 -15.33531,26.36419 -15.35011,26.36976c-1.08389,0.40743 18.279,-1.00106 19.9176,-2.50303c2.16115,-1.98095 5.78161,-35.61642 5.78161,-35.61642l-0.23278,-1.48503l12.91831,-7.34952l5.31123,8.3491c0,0 -10.49775,5.37523 -11.06601,6.29344c-1.42874,2.23231 -7.03596,29.82184 -7.03596,29.82184z" fill="#ff0000" stroke="#000000" stroke-width="0.5"/><path d="M359.2618,157.50034l-28.61112,-43.74729l5.12674,-3.4342l24.45107,38.13121z" fill="#313131" stroke="none" stroke-width="0"/><path d="M322.49218,101.59924l0.15946,-3.98645l6.10251,-1.91985l3.57241,1.86726l1.00877,3.72013c0,0 -3.03728,-2.23241 -4.46483,-2.23241c-1.32258,0 -3.31144,0.84427 -4.71605,1.6646c-0.97063,0.56688 -1.66228,0.88672 -1.66228,0.88672z" fill="#383838" stroke="#000000" stroke-width="0.25"/><path d="M268.36333,119.99842c0,0 2.2571,-16.28384 2.88961,-18.1562c0.09336,-0.18402 3.61056,-9.49743 4.36628,-10.81316c0.16507,-0.28739 2.38193,-3.38834 2.62865,-3.61651c3.18891,-2.94911 13.05776,-0.56521 15.80309,0.17333c0.45571,0.1226 0.71515,0.19985 0.71515,0.19985c0,0 1.37743,2.92868 -0.63624,4.54716c-0.25353,0.20377 -0.51675,0.40776 -0.78809,0.6088c-0.471,1.30406 -6.01964,16.88983 -3.69862,23.54933c1.0044,2.88187 -21.27983,3.5074 -21.27983,3.5074z" fill="#afafaf" stroke="#000000" stroke-width="0.25"/><path d="M291.23249,87.67948l19.30899,7.48484l12.35969,2.29098l-0.37745,3.85335l-13.26798,-1.44368l-21.69068,-3.00523z" fill="#d89856" stroke="#000000" stroke-width="0.25"/><path d="M295.59419,98.43275c0,0 -7.92515,0.23677 -10.0821,-3.38008c-1.18091,-1.98019 0.02142,-3.76669 0.75673,-4.9719c0.60776,-0.99613 2.09422,-1.82551 3.53967,-2.40192c3.19431,-1.2738 8.57413,2.20497 8.57413,2.20497z" fill="#afafaf" stroke="#000000" stroke-width="0.25"/><path d="M268.52922,120.20169c0,0 10.79849,-7.80338 17.85084,-7.7808c3.05187,0.00978 8.27682,-10.45959 15.7431,-10.65566c2.51137,1.7845 2.80824,10.95895 2.80824,10.95895c0,0 -4.80444,4.52766 -11.25791,8.39415c-4.73923,2.83943 -10.29068,5.47648 -15.87187,4.92176c-5.07569,-0.50448 -9.2724,-5.8384 -9.2724,-5.8384z" fill="#333333" stroke="#000000" stroke-width="0.25"/></g></g></svg>