<svg version="1.1" xmlns="http://www.w3.org/2000/svg" xmlns:xlink="http://www.w3.org/1999/xlink" width="62" height="107.88888" viewBox="0,0,62,107.88888"><defs><radialGradient cx="249.92783" cy="175.56483" r="6.18751" gradientUnits="userSpaceOnUse" id="color-1"><stop offset="0" stop-color="#252525"></stop><stop offset="1" stop-color="#2d2d2d"></stop></radialGradient><radialGradient cx="249.66416" cy="174.04295" r="6.1875" gradientUnits="userSpaceOnUse" id="color-2"><stop offset="0" stop-color="#252525"></stop><stop offset="1" stop-color="#2d2d2d"></stop></radialGradient><radialGradient cx="250.38504" cy="175.03427" r="6.18751" gradientUnits="userSpaceOnUse" id="color-3"><stop offset="0" stop-color="#252525"></stop><stop offset="1" stop-color="#2d2d2d"></stop></radialGradient><radialGradient cx="249.09623" cy="174.18305" r="6.1875" gradientUnits="userSpaceOnUse" id="color-4"><stop offset="0" stop-color="#252525"></stop><stop offset="1" stop-color="#2d2d2d"></stop></radialGradient><radialGradient cx="250.79324" cy="183.11489" r="6.18751" gradientUnits="userSpaceOnUse" id="color-5"><stop offset="0" stop-color="#252525"></stop><stop offset="1" stop-color="#2d2d2d"></stop></radialGradient><radialGradient cx="251.55436" cy="181.7709" r="6.18751" gradientUnits="userSpaceOnUse" id="color-6"><stop offset="0" stop-color="#252525"></stop><stop offset="1" stop-color="#2d2d2d"></stop></radialGradient><radialGradient cx="251.4832" cy="182.99455" r="6.18751" gradientUnits="userSpaceOnUse" id="color-7"><stop offset="0" stop-color="#252525"></stop><stop offset="1" stop-color="#2d2d2d"></stop></radialGradient><radialGradient cx="251.02637" cy="181.51912" r="6.1875" gradientUnits="userSpaceOnUse" id="color-8"><stop offset="0" stop-color="#252525"></stop><stop offset="1" stop-color="#2d2d2d"></stop></radialGradient><radialGradient cx="245.97506" cy="189.3215" r="6.18751" gradientUnits="userSpaceOnUse" id="color-9"><stop offset="0" stop-color="#252525"></stop><stop offset="1" stop-color="#2d2d2d"></stop></radialGradient><radialGradient cx="247.46733" cy="188.92309" r="6.18751" gradientUnits="userSpaceOnUse" id="color-10"><stop offset="0" stop-color="#252525"></stop><stop offset="1" stop-color="#2d2d2d"></stop></radialGradient><radialGradient cx="246.54428" cy="189.72954" r="6.18751" gradientUnits="userSpaceOnUse" id="color-11"><stop offset="0" stop-color="#252525"></stop><stop offset="1" stop-color="#2d2d2d"></stop></radialGradient><radialGradient cx="247.27711" cy="188.36993" r="6.1875" gradientUnits="userSpaceOnUse" id="color-12"><stop offset="0" stop-color="#252525"></stop><stop offset="1" stop-color="#2d2d2d"></stop></radialGradient><radialGradient cx="238.69335" cy="190.77782" r="6.18751" gradientUnits="userSpaceOnUse" id="color-13"><stop offset="0" stop-color="#252525"></stop><stop offset="1" stop-color="#2d2d2d"></stop></radialGradient><radialGradient cx="240.15381" cy="191.28046" r="6.18751" gradientUnits="userSpaceOnUse" id="color-14"><stop offset="0" stop-color="#252525"></stop><stop offset="1" stop-color="#2d2d2d"></stop></radialGradient><radialGradient cx="238.93778" cy="191.43416" r="6.18751" gradientUnits="userSpaceOnUse" id="color-15"><stop offset="0" stop-color="#252525"></stop><stop offset="1" stop-color="#2d2d2d"></stop></radialGradient><radialGradient cx="240.30485" cy="190.71535" r="6.18751" gradientUnits="userSpaceOnUse" id="color-16"><stop offset="0" stop-color="#252525"></stop><stop offset="1" stop-color="#2d2d2d"></stop></radialGradient><radialGradient cx="231.88405" cy="187.23321" r="6.18751" gradientUnits="userSpaceOnUse" id="color-17"><stop offset="0" stop-color="#252525"></stop><stop offset="1" stop-color="#2d2d2d"></stop></radialGradient><radialGradient cx="232.71316" cy="188.53636" r="6.18751" gradientUnits="userSpaceOnUse" id="color-18"><stop offset="0" stop-color="#252525"></stop><stop offset="1" stop-color="#2d2d2d"></stop></radialGradient><radialGradient cx="231.66627" cy="187.89887" r="6.18751" gradientUnits="userSpaceOnUse" id="color-19"><stop offset="0" stop-color="#252525"></stop><stop offset="1" stop-color="#2d2d2d"></stop></radialGradient><radialGradient cx="233.18341" cy="188.18848" r="6.18751" gradientUnits="userSpaceOnUse" id="color-20"><stop offset="0" stop-color="#252525"></stop><stop offset="1" stop-color="#2d2d2d"></stop></radialGradient><radialGradient cx="229.27599" cy="180.75632" r="6.18751" gradientUnits="userSpaceOnUse" id="color-21"><stop offset="0" stop-color="#252525"></stop><stop offset="1" stop-color="#2d2d2d"></stop></radialGradient><radialGradient cx="229.03129" cy="182.28137" r="6.18751" gradientUnits="userSpaceOnUse" id="color-22"><stop offset="0" stop-color="#252525"></stop><stop offset="1" stop-color="#2d2d2d"></stop></radialGradient><radialGradient cx="228.67129" cy="181.10971" r="6.18751" gradientUnits="userSpaceOnUse" id="color-23"><stop offset="0" stop-color="#252525"></stop><stop offset="1" stop-color="#2d2d2d"></stop></radialGradient><radialGradient cx="229.61392" cy="182.33324" r="6.18751" gradientUnits="userSpaceOnUse" id="color-24"><stop offset="0" stop-color="#252525"></stop><stop offset="1" stop-color="#2d2d2d"></stop></radialGradient><radialGradient cx="231.00316" cy="173.35266" r="6.1875" gradientUnits="userSpaceOnUse" id="color-25"><stop offset="0" stop-color="#252525"></stop><stop offset="1" stop-color="#2d2d2d"></stop></radialGradient><radialGradient cx="229.86049" cy="174.39186" r="6.18751" gradientUnits="userSpaceOnUse" id="color-26"><stop offset="0" stop-color="#252525"></stop><stop offset="1" stop-color="#2d2d2d"></stop></radialGradient><radialGradient cx="230.3101" cy="173.25157" r="6.18751" gradientUnits="userSpaceOnUse" id="color-27"><stop offset="0" stop-color="#252525"></stop><stop offset="1" stop-color="#2d2d2d"></stop></radialGradient><radialGradient cx="230.28348" cy="174.79589" r="6.18751" gradientUnits="userSpaceOnUse" id="color-28"><stop offset="0" stop-color="#252525"></stop><stop offset="1" stop-color="#2d2d2d"></stop></radialGradient><radialGradient cx="237.56474" cy="169.26473" r="6.1875" gradientUnits="userSpaceOnUse" id="color-29"><stop offset="0" stop-color="#252525"></stop><stop offset="1" stop-color="#2d2d2d"></stop></radialGradient><radialGradient cx="236.0206" cy="169.22927" r="6.18751" gradientUnits="userSpaceOnUse" id="color-30"><stop offset="0" stop-color="#252525"></stop><stop offset="1" stop-color="#2d2d2d"></stop></radialGradient><radialGradient cx="237.13256" cy="168.71358" r="6.18751" gradientUnits="userSpaceOnUse" id="color-31"><stop offset="0" stop-color="#252525"></stop><stop offset="1" stop-color="#2d2d2d"></stop></radialGradient><radialGradient cx="236.04828" cy="169.81354" r="6.18751" gradientUnits="userSpaceOnUse" id="color-32"><stop offset="0" stop-color="#252525"></stop><stop offset="1" stop-color="#2d2d2d"></stop></radialGradient><radialGradient cx="245.06778" cy="170.43857" r="6.1875" gradientUnits="userSpaceOnUse" id="color-33"><stop offset="0" stop-color="#252525"></stop><stop offset="1" stop-color="#2d2d2d"></stop></radialGradient><radialGradient cx="243.83034" cy="169.51424" r="6.18751" gradientUnits="userSpaceOnUse" id="color-34"><stop offset="0" stop-color="#252525"></stop><stop offset="1" stop-color="#2d2d2d"></stop></radialGradient><radialGradient cx="245.03529" cy="169.73894" r="6.18751" gradientUnits="userSpaceOnUse" id="color-35"><stop offset="0" stop-color="#252525"></stop><stop offset="1" stop-color="#2d2d2d"></stop></radialGradient><radialGradient cx="243.51406" cy="170.0063" r="6.18751" gradientUnits="userSpaceOnUse" id="color-36"><stop offset="0" stop-color="#252525"></stop><stop offset="1" stop-color="#2d2d2d"></stop></radialGradient><radialGradient cx="240.00002" cy="180.00002" r="3.875" gradientUnits="userSpaceOnUse" id="color-37"><stop offset="0" stop-color="#ababab"></stop><stop offset="1" stop-color="#636363"></stop></radialGradient><radialGradient cx="240.00002" cy="180.00002" r="20.39474" gradientUnits="userSpaceOnUse" id="color-38"><stop offset="0" stop-color="#000000"></stop><stop offset="1" stop-color="#383838"></stop></radialGradient></defs><g transform="translate(-211.61111,-125.09942)"><g data-paper-data="{&quot;isPaintingLayer&quot;:true}" fill="none" fill-rule="nonzero" stroke-linejoin="miter" stroke-miterlimit="10" stroke-dasharray="" stroke-dashoffset="0" style="mix-blend-mode: normal"><g stroke-width="0.5" stroke-linecap="round"><g><path d="M258.55924,176.03696l-15.09053,-0.72413" stroke="url(#color-1)"></path><path d="M258.22074,172.81458l-14.93986,2.24697" stroke="url(#color-2)"></path><path d="M256.64543,169.07342l-10.87142,10.49098" stroke="url(#color-3)"></path><path d="M254.06719,167.11099l-8.60489,12.4179" stroke="url(#color-4)"></path></g><g><path d="M257.16817,188.95308l-11.20972,-10.1287" stroke="url(#color-5)"></path><path d="M245.97256,178.51096l12.97717,7.73574" stroke="url(#color-6)"></path><path d="M260.10382,182.35491l-15.05866,1.21878" stroke="url(#color-7)"></path><path d="M259.35452,179.20261l-14.52788,4.14597" stroke="url(#color-8)"></path></g><g><path d="M246.27498,197.96062l-0.62528,-15.09495" stroke="url(#color-9)"></path><path d="M249.4543,197.33594l-3.57108,-14.67979" stroke="url(#color-10)"></path><path d="M241.6208,185.54112l11.41918,9.89196" stroke="url(#color-11)"></path><path d="M254.76452,192.69002l-13.13618,-7.46253" stroke="url(#color-12)"></path></g><g><path d="M234.11878,198.11251l7.90904,-12.87228" stroke="url(#color-13)"></path><path d="M242.33855,185.19682l-5.23333,14.17254" stroke="url(#color-14)"></path><path d="M241.14239,199.79264l-3.95079,-14.58218" stroke="url(#color-15)"></path><path d="M244.10462,198.47977l-6.73165,-13.52529" stroke="url(#color-16)"></path></g><g><path d="M223.73585,190.11957l14.20672,-5.13981" stroke="url(#color-17)"></path><path d="M238.21264,185.13938l-12.92413,7.82405" stroke="url(#color-18)"></path><path d="M228.18242,195.81006l5.99608,-13.86706" stroke="url(#color-19)"></path><path d="M231.31735,196.62899l3.16251,-14.77319" stroke="url(#color-20)"></path></g><g><path d="M221.26541,177.50749l14.038,5.58419" stroke="url(#color-21)"></path><path d="M220.53937,180.66523l14.8601,2.72511" stroke="url(#color-22)"></path><path d="M220.81478,184.71518l13.68852,-6.39319" stroke="url(#color-23)"></path><path d="M222.61623,187.40835l12.17037,-8.95158" stroke="url(#color-24)"></path></g><g><path d="M226.76948,165.81605l7.48732,13.12206" stroke="url(#color-25)"></path><path d="M224.23206,167.83098l9.9135,11.40049" stroke="url(#color-26)"></path><path d="M236.60715,174.71129l-14.68649,-3.54335" stroke="url(#color-27)"></path><path d="M221.64837,174.3966l15.09611,0.59677" stroke="url(#color-28)"></path></g><g><path d="M239.69633,160.88733l-3.62732,14.66599" stroke="url(#color-29)"></path><path d="M236.46928,160.59658l-0.68312,15.09244" stroke="url(#color-30)"></path><path d="M232.49419,161.41909l8.1918,12.6942" stroke="url(#color-31)"></path><path d="M230.07042,163.56937l10.52048,10.84288" stroke="url(#color-32)"></path></g><g><path d="M251.66238,164.8497l-11.45989,9.84476" stroke="url(#color-33)"></path><path d="M249.20193,162.74146l-9.30858,11.89953" stroke="url(#color-34)"></path><path d="M245.48649,161.10641l-0.68753,15.09224" stroke="url(#color-35)"></path><path d="M242.26493,161.45268l2.28319,14.93438" stroke="url(#color-36)"></path></g></g><path d="M236.12502,180.00002c0,-2.1401 1.7349,-3.875 3.875,-3.875c2.1401,0 3.875,1.7349 3.875,3.875c0,2.1401 -1.7349,3.875 -3.875,3.875c-2.1401,0 -3.875,-1.7349 -3.875,-3.875z" stroke="url(#color-37)" stroke-width="4.5" stroke-linecap="butt"></path><path d="M219.60527,180.00002c0,-11.2637 9.13103,-20.39474 20.39474,-20.39474c11.2637,0 20.39474,9.13103 20.39474,20.39474c0,11.2637 -9.13103,20.39474 -20.39474,20.39474c-11.2637,0 -20.39474,-9.13103 -20.39474,-20.39474z" stroke="url(#color-38)" stroke-width="8" stroke-linecap="butt"></path><path d="M216.04607,180.00002c0,-13.2294 10.72455,-23.95395 23.95395,-23.95395c13.2294,0 23.95395,10.72455 23.95395,23.95395c0,13.2294 -10.72455,23.95395 -23.95395,23.95395c-13.2294,0 -23.95395,-10.72455 -23.95395,-23.95395z" stroke="#000000" stroke-width="8" stroke-linecap="butt"></path><path d="M211.61111,232.98831v-22.44444h59.22222v22.44444z" stroke="none" stroke-width="NaN" stroke-linecap="butt"></path><path d="M214.38889,147.54387v-22.44444h59.22222v22.44445z" stroke="none" stroke-width="NaN" stroke-linecap="butt"></path></g></g></svg>