<svg version="1.1" xmlns="http://www.w3.org/2000/svg" xmlns:xlink="http://www.w3.org/1999/xlink" width="49.50285" height="48.99606" viewBox="0,0,49.50285,48.99606"><defs><radialGradient cx="250.05138" cy="176.05288" r="6.88583" gradientUnits="userSpaceOnUse" id="color-1"><stop offset="0" stop-color="#7c7c7c"></stop><stop offset="1" stop-color="#828282"></stop></radialGradient><radialGradient cx="249.81121" cy="174.46784" r="6.81708" gradientUnits="userSpaceOnUse" id="color-2"><stop offset="0" stop-color="#7c7c7c"></stop><stop offset="1" stop-color="#828282"></stop></radialGradient><radialGradient cx="250.23002" cy="174.8154" r="4.96064" gradientUnits="userSpaceOnUse" id="color-3"><stop offset="0" stop-color="#7c7c7c"></stop><stop offset="1" stop-color="#828282"></stop></radialGradient><radialGradient cx="248.91133" cy="173.90374" r="5.6663" gradientUnits="userSpaceOnUse" id="color-4"><stop offset="0" stop-color="#7c7c7c"></stop><stop offset="1" stop-color="#828282"></stop></radialGradient><radialGradient cx="250.55269" cy="183.54884" r="5.115" gradientUnits="userSpaceOnUse" id="color-5"><stop offset="0" stop-color="#7c7c7c"></stop><stop offset="1" stop-color="#828282"></stop></radialGradient><radialGradient cx="251.37207" cy="182.1709" r="5.9215" gradientUnits="userSpaceOnUse" id="color-6"><stop offset="0" stop-color="#7c7c7c"></stop><stop offset="1" stop-color="#828282"></stop></radialGradient><radialGradient cx="251.4755" cy="182.7052" r="6.87129" gradientUnits="userSpaceOnUse" id="color-7"><stop offset="0" stop-color="#7c7c7c"></stop><stop offset="1" stop-color="#828282"></stop></radialGradient><radialGradient cx="251.03389" cy="181.16409" r="6.62908" gradientUnits="userSpaceOnUse" id="color-8"><stop offset="0" stop-color="#7c7c7c"></stop><stop offset="1" stop-color="#828282"></stop></radialGradient><radialGradient cx="245.44125" cy="189.50303" r="6.88784" gradientUnits="userSpaceOnUse" id="color-9"><stop offset="0" stop-color="#7c7c7c"></stop><stop offset="1" stop-color="#828282"></stop></radialGradient><radialGradient cx="246.99853" cy="189.12239" r="6.6984" gradientUnits="userSpaceOnUse" id="color-10"><stop offset="0" stop-color="#7c7c7c"></stop><stop offset="1" stop-color="#828282"></stop></radialGradient><radialGradient cx="246.68972" cy="189.57053" r="5.21058" gradientUnits="userSpaceOnUse" id="color-11"><stop offset="0" stop-color="#7c7c7c"></stop><stop offset="1" stop-color="#828282"></stop></radialGradient><radialGradient cx="247.48008" cy="188.17575" r="5.99405" gradientUnits="userSpaceOnUse" id="color-12"><stop offset="0" stop-color="#7c7c7c"></stop><stop offset="1" stop-color="#828282"></stop></radialGradient><radialGradient cx="238.24169" cy="190.65586" r="5.87363" gradientUnits="userSpaceOnUse" id="color-13"><stop offset="0" stop-color="#7c7c7c"></stop><stop offset="1" stop-color="#828282"></stop></radialGradient><radialGradient cx="239.74619" cy="191.20955" r="6.46694" gradientUnits="userSpaceOnUse" id="color-14"><stop offset="0" stop-color="#7c7c7c"></stop><stop offset="1" stop-color="#828282"></stop></radialGradient><radialGradient cx="239.2398" cy="191.40892" r="6.65386" gradientUnits="userSpaceOnUse" id="color-15"><stop offset="0" stop-color="#7c7c7c"></stop><stop offset="1" stop-color="#828282"></stop></radialGradient><radialGradient cx="240.67423" cy="190.69305" r="6.1716" gradientUnits="userSpaceOnUse" id="color-16"><stop offset="0" stop-color="#7c7c7c"></stop><stop offset="1" stop-color="#828282"></stop></radialGradient><radialGradient cx="231.63985" cy="186.88982" r="6.48253" gradientUnits="userSpaceOnUse" id="color-17"><stop offset="0" stop-color="#7c7c7c"></stop><stop offset="1" stop-color="#828282"></stop></radialGradient><radialGradient cx="232.47155" cy="188.26031" r="5.8973" gradientUnits="userSpaceOnUse" id="color-18"><stop offset="0" stop-color="#7c7c7c"></stop><stop offset="1" stop-color="#828282"></stop></radialGradient><radialGradient cx="231.95127" cy="188.10072" r="6.32755" gradientUnits="userSpaceOnUse" id="color-19"><stop offset="0" stop-color="#7c7c7c"></stop><stop offset="1" stop-color="#828282"></stop></radialGradient><radialGradient cx="233.51925" cy="188.4346" r="6.74102" gradientUnits="userSpaceOnUse" id="color-20"><stop offset="0" stop-color="#7c7c7c"></stop><stop offset="1" stop-color="#828282"></stop></radialGradient><radialGradient cx="229.30833" cy="180.27337" r="6.40555" gradientUnits="userSpaceOnUse" id="color-21"><stop offset="0" stop-color="#7c7c7c"></stop><stop offset="1" stop-color="#828282"></stop></radialGradient><radialGradient cx="229.02087" cy="181.85054" r="6.78068" gradientUnits="userSpaceOnUse" id="color-22"><stop offset="0" stop-color="#7c7c7c"></stop><stop offset="1" stop-color="#828282"></stop></radialGradient><radialGradient cx="228.73762" cy="181.38583" r="6.24608" gradientUnits="userSpaceOnUse" id="color-23"><stop offset="0" stop-color="#7c7c7c"></stop><stop offset="1" stop-color="#828282"></stop></radialGradient><radialGradient cx="229.68889" cy="182.67623" r="5.55335" gradientUnits="userSpaceOnUse" id="color-24"><stop offset="0" stop-color="#7c7c7c"></stop><stop offset="1" stop-color="#828282"></stop></radialGradient><radialGradient cx="231.34228" cy="173.04328" r="5.98761" gradientUnits="userSpaceOnUse" id="color-25"><stop offset="0" stop-color="#7c7c7c"></stop><stop offset="1" stop-color="#828282"></stop></radialGradient><radialGradient cx="230.13369" cy="174.09656" r="5.20205" gradientUnits="userSpaceOnUse" id="color-26"><stop offset="0" stop-color="#7c7c7c"></stop><stop offset="1" stop-color="#828282"></stop></radialGradient><radialGradient cx="230.20222" cy="173.55665" r="6.70146" gradientUnits="userSpaceOnUse" id="color-27"><stop offset="0" stop-color="#7c7c7c"></stop><stop offset="1" stop-color="#828282"></stop></radialGradient><radialGradient cx="230.14064" cy="175.1586" r="6.88837" gradientUnits="userSpaceOnUse" id="color-28"><stop offset="0" stop-color="#7c7c7c"></stop><stop offset="1" stop-color="#828282"></stop></radialGradient><radialGradient cx="238.06772" cy="169.24982" r="6.69211" gradientUnits="userSpaceOnUse" id="color-29"><stop offset="0" stop-color="#7c7c7c"></stop><stop offset="1" stop-color="#828282"></stop></radialGradient><radialGradient cx="236.46615" cy="169.17906" r="6.8867" gradientUnits="userSpaceOnUse" id="color-30"><stop offset="0" stop-color="#7c7c7c"></stop><stop offset="1" stop-color="#828282"></stop></radialGradient><radialGradient cx="236.88811" cy="168.83538" r="5.79237" gradientUnits="userSpaceOnUse" id="color-31"><stop offset="0" stop-color="#7c7c7c"></stop><stop offset="1" stop-color="#828282"></stop></radialGradient><radialGradient cx="235.73875" cy="169.95296" r="4.94762" gradientUnits="userSpaceOnUse" id="color-32"><stop offset="0" stop-color="#7c7c7c"></stop><stop offset="1" stop-color="#828282"></stop></radialGradient><radialGradient cx="245.41396" cy="170.66596" r="5.22916" gradientUnits="userSpaceOnUse" id="color-33"><stop offset="0" stop-color="#7c7c7c"></stop><stop offset="1" stop-color="#828282"></stop></radialGradient><radialGradient cx="244.15019" cy="169.67957" r="5.42976" gradientUnits="userSpaceOnUse" id="color-34"><stop offset="0" stop-color="#7c7c7c"></stop><stop offset="1" stop-color="#828282"></stop></radialGradient><radialGradient cx="244.69326" cy="169.64425" r="6.88661" gradientUnits="userSpaceOnUse" id="color-35"><stop offset="0" stop-color="#7c7c7c"></stop><stop offset="1" stop-color="#828282"></stop></radialGradient><radialGradient cx="243.1088" cy="169.88823" r="6.81457" gradientUnits="userSpaceOnUse" id="color-36"><stop offset="0" stop-color="#7c7c7c"></stop><stop offset="1" stop-color="#828282"></stop></radialGradient><radialGradient cx="240" cy="179.99999" r="3.50417" gradientUnits="userSpaceOnUse" id="color-37"><stop offset="0" stop-color="#a2a2a2"></stop><stop offset="1" stop-color="#898989"></stop></radialGradient><radialGradient cx="240.00001" cy="180" r="18.61228" gradientUnits="userSpaceOnUse" id="color-38"><stop offset="0" stop-color="#ffffff"></stop><stop offset="1" stop-color="#595959"></stop></radialGradient></defs><g transform="translate(-215.24858,-155.50197)"><g data-paper-data="{&quot;isPaintingLayer&quot;:true}" fill="none" fill-rule="nonzero" stroke-linejoin="miter" stroke-miterlimit="10" stroke-dasharray="" stroke-dashoffset="0" style="mix-blend-mode: normal"><g stroke-width="0.5" stroke-linecap="round"><g><path d="M243.16556,175.72246l13.77165,0.66084" stroke="url(#color-1)"></path><path d="M256.62829,173.44255l-13.63416,2.05059" stroke="url(#color-2)"></path><path d="M245.26937,179.60245l9.92129,-9.57408" stroke="url(#color-3)"></path><path d="M244.98491,179.57004l7.85285,-11.3326" stroke="url(#color-4)"></path></g><g><path d="M255.6677,188.17057l-10.23001,-9.24347" stroke="url(#color-5)"></path><path d="M245.45057,178.64108l11.84299,7.05965" stroke="url(#color-6)"></path><path d="M258.34678,182.14907l-13.74257,1.11226" stroke="url(#color-7)"></path><path d="M257.66297,179.27228l-13.25817,3.78363" stroke="url(#color-8)"></path></g><g><path d="M245.72656,196.39087l-0.57063,-13.77568" stroke="url(#color-9)"></path><path d="M245.36905,182.42399l3.25897,13.3968" stroke="url(#color-10)"></path><path d="M251.90031,194.08424l-10.42116,-9.02743" stroke="url(#color-11)"></path><path d="M253.47413,191.58091l-11.98811,-6.81032" stroke="url(#color-12)"></path></g><g><path d="M234.63279,196.52949l7.2178,-11.74727" stroke="url(#color-13)"></path><path d="M242.13417,184.74261l-4.77595,12.93389" stroke="url(#color-14)"></path><path d="M237.43705,184.75506l3.6055,13.30773" stroke="url(#color-15)"></path><path d="M237.60256,184.52144l6.14332,12.34321" stroke="url(#color-16)"></path></g><g><path d="M238.12239,184.54452l-12.96508,4.6906" stroke="url(#color-17)"></path><path d="M226.57426,191.83043l11.79459,-7.14024" stroke="url(#color-18)"></path><path d="M229.21525,194.42827l5.47204,-12.65511" stroke="url(#color-19)"></path><path d="M234.96231,181.69358l-2.88612,13.48205" stroke="url(#color-20)"></path></g><g><path d="M235.71388,182.82145l-12.81111,-5.09615" stroke="url(#color-21)"></path><path d="M235.80155,183.09401l-13.56137,-2.48694" stroke="url(#color-22)"></path><path d="M222.49153,184.30306l12.49217,-5.83444" stroke="url(#color-23)"></path><path d="M224.13553,186.76085l11.10671,-8.16923" stroke="url(#color-24)"></path></g><g><path d="M234.75874,179.03089l-6.83294,-11.97522" stroke="url(#color-25)"></path><path d="M234.65723,179.29861l-9.04709,-10.40411" stroke="url(#color-26)"></path><path d="M236.90368,175.17348l-13.40293,-3.23367" stroke="url(#color-27)"></path><path d="M237.02901,175.43091l-13.77674,-0.54461" stroke="url(#color-28)"></path></g><g><path d="M236.41257,175.94194l3.3103,-13.38422" stroke="url(#color-29)"></path><path d="M236.77785,162.29237l-0.62342,13.77339" stroke="url(#color-30)"></path><path d="M233.15018,163.043l7.47586,11.58476" stroke="url(#color-31)"></path><path d="M240.53925,174.90059l-9.60101,-9.89524" stroke="url(#color-32)"></path></g><g><path d="M240.1848,175.15813l10.45832,-8.98435" stroke="url(#color-33)"></path><path d="M248.3977,164.2498l-8.49503,10.85953" stroke="url(#color-34)"></path><path d="M244.37954,176.53085l0.62744,-13.77321" stroke="url(#color-35)"></path><path d="M242.06698,163.07366l2.08364,13.62915" stroke="url(#color-36)"></path></g></g><path d="M236.49583,179.99999c0,-1.93529 1.56887,-3.50417 3.50417,-3.50417c1.93529,0 3.50417,1.56888 3.50417,3.50417c0,1.93529 -1.56887,3.50417 -3.50417,3.50417c-1.93529,0 -3.50417,-1.56887 -3.50417,-3.50417z" stroke="url(#color-37)" stroke-width="5" stroke-linecap="butt"></path><path d="M221.38772,180c0,-10.27928 8.33299,-18.61228 18.61228,-18.61228c10.27927,0 18.61228,8.333 18.61228,18.61228c0,10.27928 -8.333,18.61228 -18.61228,18.61228c-10.27928,0 -18.61228,-8.333 -18.61228,-18.61228z" stroke="url(#color-38)" stroke-width="8" stroke-linecap="butt"></path><path d="M261.25142,180c0,11.59689 -9.51459,20.99803 -21.25143,20.99803c-11.73684,0 -21.25142,-9.40114 -21.25142,-20.99803c0,-11.59689 9.51459,-20.99803 21.25142,-20.99803c11.73684,0 21.25143,9.40114 21.25143,20.99803z" stroke="#141413" stroke-width="7" stroke-linecap="butt"></path></g></g></svg>