<svg version="1.1" xmlns="http://www.w3.org/2000/svg" xmlns:xlink="http://www.w3.org/1999/xlink" width="54.5" height="54.5" viewBox="0,0,54.5,54.5"><defs><radialGradient cx="249.92781" cy="175.56483" r="6.18751" gradientUnits="userSpaceOnUse" id="color-1"><stop offset="0" stop-color="#960000"></stop><stop offset="1" stop-color="#870000"></stop></radialGradient><radialGradient cx="249.66414" cy="174.04295" r="6.1875" gradientUnits="userSpaceOnUse" id="color-2"><stop offset="0" stop-color="#960000"></stop><stop offset="1" stop-color="#870000"></stop></radialGradient><radialGradient cx="250.38502" cy="175.03427" r="6.18751" gradientUnits="userSpaceOnUse" id="color-3"><stop offset="0" stop-color="#960000"></stop><stop offset="1" stop-color="#870000"></stop></radialGradient><radialGradient cx="249.09622" cy="174.18305" r="6.1875" gradientUnits="userSpaceOnUse" id="color-4"><stop offset="0" stop-color="#960000"></stop><stop offset="1" stop-color="#870000"></stop></radialGradient><radialGradient cx="250.79322" cy="183.11489" r="6.18751" gradientUnits="userSpaceOnUse" id="color-5"><stop offset="0" stop-color="#960000"></stop><stop offset="1" stop-color="#870000"></stop></radialGradient><radialGradient cx="251.55434" cy="181.7709" r="6.18751" gradientUnits="userSpaceOnUse" id="color-6"><stop offset="0" stop-color="#960000"></stop><stop offset="1" stop-color="#870000"></stop></radialGradient><radialGradient cx="251.48318" cy="182.99455" r="6.18751" gradientUnits="userSpaceOnUse" id="color-7"><stop offset="0" stop-color="#960000"></stop><stop offset="1" stop-color="#870000"></stop></radialGradient><radialGradient cx="251.02636" cy="181.51912" r="6.1875" gradientUnits="userSpaceOnUse" id="color-8"><stop offset="0" stop-color="#960000"></stop><stop offset="1" stop-color="#870000"></stop></radialGradient><radialGradient cx="245.97504" cy="189.3215" r="6.18751" gradientUnits="userSpaceOnUse" id="color-9"><stop offset="0" stop-color="#960000"></stop><stop offset="1" stop-color="#870000"></stop></radialGradient><radialGradient cx="247.46731" cy="188.92309" r="6.18751" gradientUnits="userSpaceOnUse" id="color-10"><stop offset="0" stop-color="#960000"></stop><stop offset="1" stop-color="#870000"></stop></radialGradient><radialGradient cx="246.54427" cy="189.72955" r="6.18751" gradientUnits="userSpaceOnUse" id="color-11"><stop offset="0" stop-color="#960000"></stop><stop offset="1" stop-color="#870000"></stop></radialGradient><radialGradient cx="247.2771" cy="188.36993" r="6.1875" gradientUnits="userSpaceOnUse" id="color-12"><stop offset="0" stop-color="#960000"></stop><stop offset="1" stop-color="#870000"></stop></radialGradient><radialGradient cx="238.69333" cy="190.77782" r="6.18751" gradientUnits="userSpaceOnUse" id="color-13"><stop offset="0" stop-color="#960000"></stop><stop offset="1" stop-color="#870000"></stop></radialGradient><radialGradient cx="240.1538" cy="191.28046" r="6.18751" gradientUnits="userSpaceOnUse" id="color-14"><stop offset="0" stop-color="#960000"></stop><stop offset="1" stop-color="#870000"></stop></radialGradient><radialGradient cx="238.93776" cy="191.43416" r="6.18751" gradientUnits="userSpaceOnUse" id="color-15"><stop offset="0" stop-color="#960000"></stop><stop offset="1" stop-color="#870000"></stop></radialGradient><radialGradient cx="240.30484" cy="190.71535" r="6.18751" gradientUnits="userSpaceOnUse" id="color-16"><stop offset="0" stop-color="#960000"></stop><stop offset="1" stop-color="#870000"></stop></radialGradient><radialGradient cx="231.88403" cy="187.23321" r="6.18751" gradientUnits="userSpaceOnUse" id="color-17"><stop offset="0" stop-color="#960000"></stop><stop offset="1" stop-color="#870000"></stop></radialGradient><radialGradient cx="232.71314" cy="188.53636" r="6.18751" gradientUnits="userSpaceOnUse" id="color-18"><stop offset="0" stop-color="#960000"></stop><stop offset="1" stop-color="#870000"></stop></radialGradient><radialGradient cx="231.66625" cy="187.89888" r="6.18751" gradientUnits="userSpaceOnUse" id="color-19"><stop offset="0" stop-color="#960000"></stop><stop offset="1" stop-color="#870000"></stop></radialGradient><radialGradient cx="233.18339" cy="188.18847" r="6.18751" gradientUnits="userSpaceOnUse" id="color-20"><stop offset="0" stop-color="#960000"></stop><stop offset="1" stop-color="#870000"></stop></radialGradient><radialGradient cx="229.27597" cy="180.75633" r="6.18751" gradientUnits="userSpaceOnUse" id="color-21"><stop offset="0" stop-color="#960000"></stop><stop offset="1" stop-color="#870000"></stop></radialGradient><radialGradient cx="229.03127" cy="182.28137" r="6.18751" gradientUnits="userSpaceOnUse" id="color-22"><stop offset="0" stop-color="#960000"></stop><stop offset="1" stop-color="#870000"></stop></radialGradient><radialGradient cx="228.67127" cy="181.10971" r="6.18751" gradientUnits="userSpaceOnUse" id="color-23"><stop offset="0" stop-color="#960000"></stop><stop offset="1" stop-color="#870000"></stop></radialGradient><radialGradient cx="229.6139" cy="182.33324" r="6.18751" gradientUnits="userSpaceOnUse" id="color-24"><stop offset="0" stop-color="#960000"></stop><stop offset="1" stop-color="#870000"></stop></radialGradient><radialGradient cx="231.00314" cy="173.35266" r="6.1875" gradientUnits="userSpaceOnUse" id="color-25"><stop offset="0" stop-color="#960000"></stop><stop offset="1" stop-color="#870000"></stop></radialGradient><radialGradient cx="229.86047" cy="174.39186" r="6.18751" gradientUnits="userSpaceOnUse" id="color-26"><stop offset="0" stop-color="#960000"></stop><stop offset="1" stop-color="#870000"></stop></radialGradient><radialGradient cx="230.31008" cy="173.25158" r="6.18751" gradientUnits="userSpaceOnUse" id="color-27"><stop offset="0" stop-color="#960000"></stop><stop offset="1" stop-color="#870000"></stop></radialGradient><radialGradient cx="230.28346" cy="174.79589" r="6.18751" gradientUnits="userSpaceOnUse" id="color-28"><stop offset="0" stop-color="#960000"></stop><stop offset="1" stop-color="#870000"></stop></radialGradient><radialGradient cx="237.56472" cy="169.26473" r="6.1875" gradientUnits="userSpaceOnUse" id="color-29"><stop offset="0" stop-color="#960000"></stop><stop offset="1" stop-color="#870000"></stop></radialGradient><radialGradient cx="236.02058" cy="169.22927" r="6.18751" gradientUnits="userSpaceOnUse" id="color-30"><stop offset="0" stop-color="#960000"></stop><stop offset="1" stop-color="#870000"></stop></radialGradient><radialGradient cx="237.13254" cy="168.71358" r="6.18751" gradientUnits="userSpaceOnUse" id="color-31"><stop offset="0" stop-color="#960000"></stop><stop offset="1" stop-color="#870000"></stop></radialGradient><radialGradient cx="236.04826" cy="169.81354" r="6.18751" gradientUnits="userSpaceOnUse" id="color-32"><stop offset="0" stop-color="#960000"></stop><stop offset="1" stop-color="#870000"></stop></radialGradient><radialGradient cx="245.06776" cy="170.43856" r="6.1875" gradientUnits="userSpaceOnUse" id="color-33"><stop offset="0" stop-color="#960000"></stop><stop offset="1" stop-color="#870000"></stop></radialGradient><radialGradient cx="243.83032" cy="169.51424" r="6.18751" gradientUnits="userSpaceOnUse" id="color-34"><stop offset="0" stop-color="#960000"></stop><stop offset="1" stop-color="#870000"></stop></radialGradient><radialGradient cx="245.03527" cy="169.73894" r="6.18751" gradientUnits="userSpaceOnUse" id="color-35"><stop offset="0" stop-color="#960000"></stop><stop offset="1" stop-color="#870000"></stop></radialGradient><radialGradient cx="243.51404" cy="170.0063" r="6.18751" gradientUnits="userSpaceOnUse" id="color-36"><stop offset="0" stop-color="#960000"></stop><stop offset="1" stop-color="#870000"></stop></radialGradient><radialGradient cx="240" cy="180" r="20.20724" gradientUnits="userSpaceOnUse" id="color-37"><stop offset="0" stop-color="#ff0000"></stop><stop offset="1" stop-color="#5c0000"></stop></radialGradient><radialGradient cx="240" cy="180" r="3.875" gradientUnits="userSpaceOnUse" id="color-38"><stop offset="0" stop-color="#7f0000"></stop><stop offset="1" stop-color="#930000"></stop></radialGradient></defs><g transform="translate(-212.75,-152.75)"><g data-paper-data="{&quot;isPaintingLayer&quot;:true}" fill="none" fill-rule="nonzero" stroke-linejoin="miter" stroke-miterlimit="10" stroke-dasharray="" stroke-dashoffset="0" style="mix-blend-mode: normal"><g stroke-width="0.5" stroke-linecap="round"><path d="M243.46869,175.31283l15.09053,0.72413" stroke="url(#color-1)"></path><path d="M243.28087,175.06155l14.93986,-2.24697" stroke="url(#color-2)"></path><path d="M245.77399,179.56439l10.87142,-10.49098" stroke="url(#color-3)"></path><path d="M245.46228,179.5289l8.60489,-12.4179" stroke="url(#color-4)"></path></g><g stroke-width="0.5" stroke-linecap="round"><path d="M257.16816,188.95308l-11.20972,-10.1287" stroke="url(#color-5)"></path><path d="M258.94971,186.2467l-12.97717,-7.73574" stroke="url(#color-6)"></path><path d="M260.10381,182.35492l-15.05866,1.21878" stroke="url(#color-7)"></path><path d="M244.82663,183.34859l14.52788,-4.14597" stroke="url(#color-8)"></path></g><g stroke-width="0.5" stroke-linecap="round"><path d="M245.64968,182.86567l0.62528,15.09495" stroke="url(#color-9)"></path><path d="M245.88321,182.65615l3.57108,14.67979" stroke="url(#color-10)"></path><path d="M253.03996,195.43308l-11.41918,-9.89196" stroke="url(#color-11)"></path><path d="M241.62832,185.22749l13.13618,7.46253" stroke="url(#color-12)"></path></g><g stroke-width="0.5" stroke-linecap="round"><path d="M234.11877,198.11252l7.90904,-12.87228" stroke="url(#color-13)"></path><path d="M237.1052,199.36936l5.23333,-14.17254" stroke="url(#color-14)"></path><path d="M237.19158,185.21046l3.95079,14.58218" stroke="url(#color-15)"></path><path d="M237.37295,184.95448l6.73165,13.52529" stroke="url(#color-16)"></path></g><g stroke-width="0.5" stroke-linecap="round"><path d="M237.94255,184.97976l-14.20672,5.13981" stroke="url(#color-17)"></path><path d="M225.2885,192.96344l12.92413,-7.82405" stroke="url(#color-18)"></path><path d="M234.17848,181.943l-5.99608,13.86706" stroke="url(#color-19)"></path><path d="M234.47984,181.8558l-3.16251,14.77319" stroke="url(#color-20)"></path></g><g stroke-width="0.5" stroke-linecap="round"><path d="M221.26539,177.50749l14.038,5.58419" stroke="url(#color-21)"></path><path d="M235.39946,183.39034l-14.8601,-2.72511" stroke="url(#color-22)"></path><path d="M220.81476,184.71518l13.68852,-6.39319" stroke="url(#color-23)"></path><path d="M222.61621,187.40835l12.17037,-8.95158" stroke="url(#color-24)"></path></g><g stroke-width="0.5" stroke-linecap="round"><path d="M234.25679,178.93811l-7.48732,-13.12206" stroke="url(#color-25)"></path><path d="M234.14555,179.23147l-9.9135,-11.40049" stroke="url(#color-26)"></path><path d="M236.60714,174.71129l-14.68649,-3.54335" stroke="url(#color-27)"></path><path d="M221.64835,174.3966l15.09611,0.59677" stroke="url(#color-28)"></path></g><g stroke-width="0.5" stroke-linecap="round"><path d="M239.69632,160.88733l-3.62732,14.66599" stroke="url(#color-29)"></path><path d="M236.46926,160.59659l-0.68312,15.09244" stroke="url(#color-30)"></path><path d="M232.49417,161.41909l8.1918,12.6942" stroke="url(#color-31)"></path><path d="M230.0704,163.56938l10.52048,10.84288" stroke="url(#color-32)"></path></g><g stroke-width="0.5" stroke-linecap="round"><path d="M251.66236,164.8497l-11.45989,9.84476" stroke="url(#color-33)"></path><path d="M249.20191,162.74146l-9.30858,11.89953" stroke="url(#color-34)"></path><path d="M244.79894,176.19865l0.68753,-15.09224" stroke="url(#color-35)"></path><path d="M242.26492,161.45269l2.28319,14.93438" stroke="url(#color-36)"></path></g><path d="M219.79276,180c0,-11.16015 9.04708,-20.20724 20.20724,-20.20724c11.16015,0 20.20724,9.04708 20.20724,20.20724c0,11.16015 -9.04708,20.20724 -20.20724,20.20724c-11.16015,0 -20.20724,-9.04708 -20.20724,-20.20724z" stroke="url(#color-37)" stroke-width="8" stroke-linecap="butt"></path><path d="M236.125,180c0,-2.1401 1.7349,-3.875 3.875,-3.875c2.1401,0 3.875,1.7349 3.875,3.875c0,2.1401 -1.7349,3.875 -3.875,3.875c-2.1401,0 -3.875,-1.7349 -3.875,-3.875z" stroke="url(#color-38)" stroke-width="4.5" stroke-linecap="butt"></path><path d="M216.5,180c0,-12.97869 10.52131,-23.5 23.5,-23.5c12.97869,0 23.5,10.52131 23.5,23.5c0,12.97869 -10.52131,23.5 -23.5,23.5c-12.97869,0 -23.5,-10.52131 -23.5,-23.5z" stroke="#000000" stroke-width="7.5" stroke-linecap="butt"></path></g></g></svg>