<svg version="1.1" xmlns="http://www.w3.org/2000/svg" xmlns:xlink="http://www.w3.org/1999/xlink" width="17.08049" height="30.51726" viewBox="0,0,17.08049,30.51726"><defs><linearGradient x1="346.9065" y1="159.52996" x2="349.76695" y2="158.0156" gradientUnits="userSpaceOnUse" id="color-1"><stop offset="0" stop-color="#b1b1b1"></stop><stop offset="1" stop-color="#939393"></stop></linearGradient></defs><g transform="translate(-343.53752,-149.61134)"><g data-paper-data="{&quot;isPaintingLayer&quot;:true}" fill-rule="nonzero" stroke="#000000" stroke-width="0.25" stroke-linecap="butt" stroke-linejoin="miter" stroke-miterlimit="10" stroke-dasharray="" stroke-dashoffset="0" style="mix-blend-mode: normal"><path d="M355.25569,179.04434l-11.55303,-23.75872l3.9393,-2.0953l12.21694,23.50976z" fill="url(#color-1)"></path><path d="M355.43103,179.96521c0,0 -3.06405,-5.89422 -3.33872,-6.58346c-0.32128,-0.80618 -6.11508,-17.2717 -6.11508,-17.2717c0,0 1.12451,-3.85461 1.59451,-5.01815c0.27127,-0.67157 0.50434,-1.47871 0.97373,-1.3398c0.27246,0.08063 1.34336,3.21176 1.50172,3.99421c0.21554,1.06495 8.50076,19.42077 8.82419,20.05727c0.46632,0.91769 0.99141,1.00058 1.38128,1.84702c0.42864,0.93058 0.15329,2.02315 0.15329,2.02315z" fill="#f71d1d"></path></g></g></svg>