<svg version="1.1" xmlns="http://www.w3.org/2000/svg" xmlns:xlink="http://www.w3.org/1999/xlink" width="41.15683" height="44.12827" viewBox="0,0,41.15683,44.12827"><g transform="translate(-208.76479,-177.23437)"><g data-paper-data="{&quot;isPaintingLayer&quot;:true}" fill-rule="nonzero" stroke="#000000" stroke-width="0.25" stroke-linecap="butt" stroke-linejoin="miter" stroke-miterlimit="10" stroke-dasharray="" stroke-dashoffset="0" style="mix-blend-mode: normal"><path d="M247.68526,206.81876c-15.00261,1.71195 -31.14819,3.58406 -33.83586,3.9769c-0.75517,0.11038 2.95611,-6.86431 2.95611,-6.86431l28.06735,-7.05484c0,0 6.0957,9.56764 2.81239,9.94229z" fill="#d89856"></path><path d="M208.89544,203.77973l9.75272,-0.45216l-3.81058,17.66642l-5.133,0.23799z" fill="#636363"></path><path d="M230.02199,177.36691c0,0 20.28955,2.88422 19.30708,9.86784c-0.42516,3.02212 0.91884,10.49576 0.30334,17.0329c-0.0196,3.98225 -7.13993,3.06184 -9.25646,1.62424c-4.22397,-2.86902 -5.60337,-13.94608 -8.92491,-18.9317c-2.37288,-3.56169 -1.42907,-9.59326 -1.42907,-9.59326z" fill="#333333"></path></g></g></svg>