<svg version="1.1" xmlns="http://www.w3.org/2000/svg" xmlns:xlink="http://www.w3.org/1999/xlink" width="187.5752" height="121.96339" viewBox="0,0,187.5752,121.96339"><defs><linearGradient x1="285.19158" y1="158.67953" x2="326.09729" y2="158.67953" gradientUnits="userSpaceOnUse" id="color-1"><stop offset="0" stop-color="#9b9b9b"></stop><stop offset="1" stop-color="#949494"></stop></linearGradient><linearGradient x1="340.09358" y1="101.56984" x2="348.10537" y2="96.79877" gradientUnits="userSpaceOnUse" id="color-2"><stop offset="0" stop-color="#323232"></stop><stop offset="1" stop-color="#3e3e3e"></stop></linearGradient><linearGradient x1="332.09847" y1="119.19335" x2="386.45567" y2="119.19335" gradientUnits="userSpaceOnUse" id="color-3"><stop offset="0" stop-color="#9e8f6a"></stop><stop offset="1" stop-color="#8d7245"></stop></linearGradient></defs><g transform="translate(-225.92135,-60.85422)"><g data-paper-data="{&quot;isPaintingLayer&quot;:true}" fill-rule="nonzero" stroke-linecap="butt" stroke-linejoin="miter" stroke-miterlimit="10" stroke-dasharray="" stroke-dashoffset="0" style="mix-blend-mode: normal"><path d="M297.4853,177.45305l-2.976,-16.07039c0,0 2.4504,-1.28087 3.99944,-2.54053c1.10484,-0.89845 6.42219,-2.28035 7.12295,-2.33891c6.53957,-0.54649 25.77999,3.29225 25.77999,3.29225l-2.3808,16.07039c0,0 -10.05844,3.74038 -15.45302,4.0118c-5.10459,0.25683 -16.09256,-2.42461 -16.09256,-2.42461z" fill="#797979" stroke="none" stroke-width="0"></path><path d="M318.31272,142.91347l-0.53651,-4.53159l3.26829,-0.18077l-0.01618,5.00791z" fill="#3f3f3f" stroke="none" stroke-width="0"></path><path d="M321.90341,142.39359l0.83633,-4.49658l3.63747,1.01372l-1.59155,4.74832z" fill="#3f3f3f" stroke="none" stroke-width="0"></path><path d="M313.12516,156.25253c0,0 -0.69681,-2.38448 -2.68264,-3.07555c-0.43034,-0.14976 -9.03798,1.80917 -9.03798,1.80917l-3.49511,-3.12929c0,0 -8.96909,-1.53903 -10.01278,-1.84485c-6.51216,-1.90819 0.74257,-3.39359 1.03149,-4.74052c0.10071,-0.46947 5.21962,2.32818 10.50978,2.3534c2.30018,0.01096 3.12056,-4.19185 5.30233,-3.78822c1.76304,0.32617 5.02744,1.48522 5.02744,1.48522l0.45489,3.92752c0,0 2.68822,-0.08445 3.02434,-0.18848c1.43335,-0.44364 2.49516,-4.94248 2.51078,-5.39082c0.11012,-3.16245 12.14945,-1.45937 12.3314,1.61862c0.20538,3.47445 -3.05994,16.12223 -3.05994,16.12223c0,0 -1.98546,13.45396 -3.16898,13.42931c-0.45572,-0.00949 -8.19356,1.38852 -13.12452,0.61647c-2.27197,-0.35573 -3.6355,-2.26611 -3.97493,-3.0318c-0.88438,-1.99499 -9.81688,-12.09266 -6.45622,-14.69864c1.16578,-0.90399 14.82066,-1.47374 14.82066,-1.47374z" fill="url(#color-1)" stroke="none" stroke-width="0"></path><path d="M318.80349,167.23547c0,4.65687 -3.77514,8.432 -8.432,8.432c-4.65686,0 -8.432,-3.77513 -8.432,-8.432c0,-4.65687 3.77513,-8.432 8.432,-8.432c4.65686,0 8.432,3.77513 8.432,8.432z" fill="#8c8c8c" stroke="none" stroke-width="0"></path><path d="M343.68801,100.78903l-6.99045,-7.3664l2.45659,-3.97747l8.57766,10.7392z" fill="url(#color-2)" stroke="none" stroke-width="0"></path><path d="M270.18903,144.08546l-1.79406,-4.18332l30.53666,-13.23945c0,0 -0.23311,10.35341 -1.28919,13.68167c-1.12229,3.53691 -6.01322,12.56046 -6.01322,12.56046z" fill="#0d0d0c" stroke="none" stroke-width="0"></path><path d="M232.90839,129.27315c0,0 -1.51386,-4.65531 -0.44221,-6.11286c1.00156,-1.36224 5.68401,-1.77069 5.68401,-1.77069l32.4301,24.88341c0,0 3.23548,1.36829 3.6676,3.22451c0.19462,0.83603 0.53129,1.77974 -0.4115,2.14496c-1.6179,0.62674 -5.12509,0.1333 -5.12509,0.1333z" fill="#2f2f2f" stroke="none" stroke-width="0"></path><path d="M235.21781,130.84578l4.92147,-8.3611l30.11558,23.20768l-2.34228,5.9803z" fill="#888888" stroke="none" stroke-width="0"></path><path d="M296.38431,179.04026c-3.45316,-0.81235 -4.3648,-20.03839 -4.3648,-20.03839c0,0 13.27226,-28.33969 18.4093,-31.13715c3.36304,-1.83141 29.41825,7.30849 28.85723,8.27293c-0.38793,0.66688 -2.01738,2.0477 -2.01738,2.0477l-23.6968,-6.13457l-17.46516,27.45354c0,0 0.72764,6.47171 2.09529,10.0003c1.73255,4.47007 4.25221,6.25692 4.97384,6.67965c7.64852,4.48046 18.88804,0.89791 22.33077,-0.37485c3.70442,-1.36951 5.7961,-11.64916 5.7961,-11.64916l1.67322,-19.61454c0,0 2.12489,-3.24313 4.80911,-7.60615c4.37362,-7.10902 10.95732,-17.78637 14.29849,-21.65698c1.2333,-1.42872 2.64703,3.45182 2.79653,3.4634c0.77002,0.05966 -17.18068,26.16566 -17.18068,26.16566c0,0 -5.24768,29.76995 -5.80811,30.35696c-2.24564,2.3522 -2.9035,4.13489 -6.14376,4.76362c-3.24026,0.62874 -19.94928,1.22259 -29.36318,-0.992z" fill="#9b9b9b" stroke="none" stroke-width="0"></path><path d="M330.11229,132.61468l14.87999,-29.56157l2.976,2.5792c0,0 5.10245,8.68958 4.44113,10.05946c-0.5547,1.14903 -9.65148,17.04062 -13.26229,20.59963c-0.57084,0.56266 -5.06684,-1.89111 -5.06684,-1.89111z" fill="#9b9b9b" stroke="none" stroke-width="0"></path><path d="M313.6451,140.94748c0,0 -5.26725,-0.84137 -7.09019,-2.63233c-1.93943,-1.90541 -3.02819,-14.82686 -3.02819,-14.82686c0,0 10.6084,-3.51865 19.44336,-7.26989c2.72756,-1.1581 3.85018,-3.23581 6.27131,-4.09409c2.98247,-1.05726 6.79843,-0.67952 8.09569,-1.0161c2.09393,-0.54328 2.89361,1.07128 2.89361,1.07128c0,0 0.47825,1.67458 -0.11827,5.13803c-0.89165,5.17707 -3.20513,13.12665 -5.23903,15.62039c-4.08293,5.00603 -16.66509,7.81117 -16.66509,7.81117z" fill="#181816" stroke="none" stroke-width="0"></path><path d="M345.0963,105.02633l-1.83826,-3.94753l3.61421,-2.37974l2.63186,2.36033z" fill="#323232" stroke="none" stroke-width="0"></path><path d="M284.67871,127.65468l-35.91038,-12.10239c0,0 58.18926,2.24358 59.32156,1.984c4.42371,-1.01411 17.62407,-4.55354 17.62407,-4.55354l4.00151,-0.20806c0,0 -1.40938,2.03528 -4.27995,3.9002c-4.22053,2.74194 -9.71789,6.60068 -14.06368,7.9527c-7.56881,2.35475 -26.69313,3.02709 -26.69313,3.02709z" fill="#15259f" stroke="none" stroke-width="0"></path><path d="M363.44347,126.66268c0,0 -4.90161,4.11312 -7.66012,7.84665c-3.65181,4.94261 -12.33254,19.21273 -12.33254,19.21273c0,0 -0.17449,-8.30218 -0.05367,-9.14784c0.12081,-0.84566 2.56398,-7.4506 7.36423,-13.3357c6.20255,-7.60429 15.06289,-14.69424 15.06289,-14.69424l21.42719,0.3968c0,0 9.41972,1.85973 11.83684,3.28802c0.3227,0.19068 4.06448,1.64426 7.57442,4.09842c4.09468,2.86301 6.82667,7.39654 6.83383,7.88661c0.01632,1.11557 -13.74591,-7.53546 -13.74591,-7.53546c0,0 -10.93722,-0.73451 -16.45339,-0.48659c-6.17996,0.27775 -19.85378,2.47058 -19.85378,2.47058z" fill="#1c3fbe" stroke="none" stroke-width="0"></path><path d="M308.2883,156.42266c0,0 -12.71958,1.21855 -20.63652,0.21844c-7.91693,-1.0001 -15.57914,-5.38647 -15.57914,-5.38647l0.07299,-2.77856c0,0 10.91524,3.81195 15.57981,4.31571c6.03438,0.65168 21.35647,0.05968 21.35647,0.05968c0,0 11.55408,-1.87229 16.26785,-1.90827c3.70378,-0.02827 6.319,0.14926 9.72252,1.70987c3.51118,1.60998 7.66512,4.63258 9.39019,11.14562c0.6436,2.42992 1.88156,9.48503 0.24219,12.32851c-1.93175,3.35062 -6.85668,2.31789 -6.85668,2.31789l-3.27657,-1.89591l-0.27335,-2.53885l1.76622,-1.12048c0,0 -4.06151,-8.76335 -8.32965,-11.48506c-4.79646,-3.05861 -19.44633,-4.98213 -19.44633,-4.98213z" fill="#2f2f2f" stroke="none" stroke-width="0"></path><path d="M373.60491,157.32773l-29.40404,-53.137l5.11316,-3.23309l25.43605,44.80421z" fill="url(#color-3)" stroke="none" stroke-width="0"></path><path d="M238.25315,182.80985c-3.14915,-2.43661 0.3968,-5.3568 0.3968,-5.3568c0,0 28.80661,-10.21171 38.798,-12.55401c6.30291,-1.4776 15.36516,-0.14358 15.36516,-0.14358l2.5792,7.7376c0,0 -7.64113,2.2924 -17.15436,4.0542c-16.7566,3.10322 -39.73862,6.45308 -39.98481,6.26259z" fill="#9a9a9a" stroke="none" stroke-width="0"></path><path d="M357.29307,115.55229l-8.3328,-15.27678c0,0 2.10596,-1.95211 1.85374,-2.99252c-0.27489,-1.13393 -0.86174,-3.35629 -0.86174,-3.35629c0,0 1.59704,0.89256 4.21252,4.86194c2.9625,4.49602 7.88988,14.77966 7.88988,14.77966c0,0 0.52869,1.95654 0.73227,3.77645c0.16896,1.51042 0.05224,2.92674 -0.21463,3.05232c-0.52965,0.24925 -5.27924,-4.84479 -5.27924,-4.84479z" fill="#1c3fbe" stroke="none" stroke-width="0"></path><path d="M329.51709,111.98109c-0.85606,-0.47676 0.65318,-2.89151 1.7856,-3.3728c1.13242,-0.48128 1.92801,-0.8076 4.3648,-0.1984c2.43679,0.6092 3.98901,2.87291 2.7776,3.38776c-0.66972,0.28463 -1.98383,-0.62019 -4.13962,-0.45631c-1.74368,0.13255 -3.71721,1.23629 -4.78837,0.63975z" fill="#0d0d0c" stroke="none" stroke-width="0"></path><path d="M332.79068,91.14911c0,-2.0271 1.64329,-3.6704 3.6704,-3.6704c2.0271,0 3.6704,1.64329 3.6704,3.6704c0,2.0271 -1.64329,3.6704 -3.6704,3.6704c-2.0271,0 -3.6704,-1.64329 -3.6704,-3.6704z" fill="#101010" stroke="none" stroke-width="0"></path><path d="M244.60194,125.67069c0,0 0.93722,-3.55368 -1.8223,-5.40274c-2.62747,-1.76057 2.81429,-5.11246 2.81429,-5.11246l12.69759,2.5792c0,0 20.00098,7.33828 25.81232,9.05767c1.07982,0.31949 17.39792,-0.01447 29.97145,-4.19564c8.04907,-2.67662 14.96039,-9.0636 14.96039,-9.0636c0,0 5.9663,2.17544 12.66157,4.13408c5.43241,1.58921 13.00963,3.0985 13.29194,4.07075c0.03551,0.12228 4.66306,3.2211 4.66306,3.2211c0,0 -4.02392,4.07746 -6.88244,7.46022c-3.84241,4.54711 -14.10629,17.37777 -14.10629,17.37777c0,0 -3.3712,-1.17345 -5.47395,-3.60729c-1.39854,-1.61875 -1.35088,-4.5695 -2.60033,-5.28304c-2.95351,-1.68671 -10.00214,-1.34776 -10.00214,-1.34776c0,0 0.75682,-2.63613 4.27741,-4.10349c4.19146,-1.74697 11.22374,-2.49984 10.62032,-4.36903c-1.23131,-3.8142 -2.49236,-3.19813 -4.65776,-3.64604c-2.31664,-0.47919 0.85043,-4.26822 0.07797,-4.54499c-1.07046,-0.38355 3.21942,-0.36193 5.59066,-0.81178c2.05406,-0.38968 2.17318,-1.28169 2.17318,-1.28169c0,0 -6.55063,-1.22268 -7.19148,-0.42543c-1.64984,2.05246 1.72862,7.51893 1.72862,7.51893l-28.67114,2.57291c0,0 -14.81665,0.72086 -16.94594,1.97478c-6.85685,4.03795 -16.11888,11.53941 -16.75785,11.94135c-0.53498,0.33653 -13.37757,-5.05257 -15.3306,-7.78367c-3.96932,-5.55067 -10.89856,-10.93012 -10.89856,-10.93012z" fill="#1c3fbe" stroke="none" stroke-width="0"></path><path d="M328.97884,93.657l-0.7393,-3.75667l4.20292,-4.82307l4.02177,-0.27216l3.01697,2.83763c0,0 -3.95885,-0.30692 -5.17646,0.43828c-1.12809,0.6904 -2.39547,2.2458 -3.16531,3.67872c-0.53197,0.99019 -0.95495,1.62404 -0.95495,1.62404z" data-paper-data="{&quot;index&quot;:null}" fill="#383838" stroke="#000000" stroke-width="0.25"></path><path d="M294.60737,81.6662l33.6594,8.02451l0.4094,4.02823l-16.94225,-2.22286l-22.25549,-2.69483z" data-paper-data="{&quot;index&quot;:null}" fill="#d89856" stroke="#000000" stroke-width="0.25"></path><path d="M296.58502,91.12163c0,0 -8.27274,-0.12365 -9.93378,-3.99341c-0.90941,-2.11865 0.51806,-3.73095 1.40592,-4.82864c0.73385,-0.90726 2.3167,-1.53332 3.82555,-1.91404c3.33441,-0.84133 9.07176,1.6037 9.07176,1.6037z" data-paper-data="{&quot;index&quot;:null}" fill="#afafaf" stroke="#000000" stroke-width="0.25"></path><path d="M242.56379,61.17313v-0.31891h1.43513v0.31891z" fill="#ffffff" stroke="none" stroke-width="0"></path><path d="M298.6531,168.44734l2.83727,-9.34184l15.373,9.50231l-1.4933,4.91675z" fill="#636363" stroke="#000000" stroke-width="0.25"></path><path d="M235.25913,86.60345c0,0 -0.38952,-0.65495 -0.86938,-1.67142c-0.69442,-1.47093 -1.87937,-3.09002 -2.97012,-3.83804c-1.17731,-0.80738 -5.14674,-0.70634 -5.14674,-0.70634l3.16017,-2.67724l4.00222,0.48052l3.94694,5.0347l-0.93328,3.71324z" data-paper-data="{&quot;index&quot;:null}" fill="#383838" stroke="#000000" stroke-width="0.25"></path><path d="M272.57144,76.61559l7.90697,-4.05107c0,0 12.0163,4.76412 12.02159,4.84136c0.17987,2.62707 0.67311,8.11999 0.19148,13.44596c-0.84444,9.33798 -2.46186,19.27469 1.90678,20.31563c2.96877,0.70739 -20.05202,3.29898 -20.05202,3.29898c0,0 -4.64259,-16.64263 -4.38036,-23.62992c0.02049,-0.5459 2.40556,-14.22094 2.40556,-14.22094z" fill="#afafaf" stroke="#000000" stroke-width="0.25"></path><path d="M275.99448,83.82116l-22.36536,1.53614l-17.03479,1.34056l0.61791,-4.00155l34.03051,-6.26679z" data-paper-data="{&quot;index&quot;:null}" fill="#d89856" stroke="#000000" stroke-width="0.25"></path><path d="M264.76423,76.40281c0,0 5.85652,-2.14397 9.14278,-1.13071c1.48705,0.45851 3.0353,1.16588 3.72107,2.11c0.8297,1.1423 2.17156,2.82651 1.15341,4.8951c-1.85964,3.77834 -10.12764,3.47247 -10.12764,3.47247z" data-paper-data="{&quot;index&quot;:null}" fill="#afafaf" stroke="#000000" stroke-width="0.25"></path><path d="M308.13599,128.82303c-0.14486,15.09928 -0.27125,31.35254 -0.21171,34.06811c0.01673,0.76301 -6.44896,-3.77734 -6.44896,-3.77734l-3.55187,-28.72161c0,0 10.24426,-4.87362 10.21255,-1.56915z" fill="#d89856" stroke="#000000" stroke-width="0.25"></path><path d="M273.8807,113.64523c0,0 19.61211,-9.11089 20.5362,-2.11931c0.39988,3.02557 12.61258,9.98134 13.80889,17.35375c1.19632,7.37242 -9.88409,3.01049 -9.88409,3.01049c0,0 -17.89836,-11.76595 -22.11649,-14.91216c-1.91039,-1.42492 -2.3445,-3.33277 -2.3445,-3.33277z" fill="#333333" stroke="#000000" stroke-width="0.25"></path></g></g></svg>