<svg version="1.1" xmlns="http://www.w3.org/2000/svg" xmlns:xlink="http://www.w3.org/1999/xlink" width="63.14197" height="107.88888" viewBox="0,0,63.14197,107.88888"><defs><radialGradient cx="249.84843" cy="175.25348" r="6.34351" gradientUnits="userSpaceOnUse" id="color-1"><stop offset="0" stop-color="#000000"></stop><stop offset="1" stop-color="#2d2d2d"></stop></radialGradient><radialGradient cx="249.57811" cy="173.69324" r="6.3435" gradientUnits="userSpaceOnUse" id="color-2"><stop offset="0" stop-color="#000000"></stop><stop offset="1" stop-color="#2d2d2d"></stop></radialGradient><radialGradient cx="250.31718" cy="174.70955" r="6.34351" gradientUnits="userSpaceOnUse" id="color-3"><stop offset="0" stop-color="#000000"></stop><stop offset="1" stop-color="#2d2d2d"></stop></radialGradient><radialGradient cx="248.99587" cy="173.83687" r="6.3435" gradientUnits="userSpaceOnUse" id="color-4"><stop offset="0" stop-color="#000000"></stop><stop offset="1" stop-color="#2d2d2d"></stop></radialGradient><radialGradient cx="250.73567" cy="182.9939" r="6.34351" gradientUnits="userSpaceOnUse" id="color-5"><stop offset="0" stop-color="#000000"></stop><stop offset="1" stop-color="#2d2d2d"></stop></radialGradient><radialGradient cx="251.51598" cy="181.61602" r="6.34351" gradientUnits="userSpaceOnUse" id="color-6"><stop offset="0" stop-color="#000000"></stop><stop offset="1" stop-color="#2d2d2d"></stop></radialGradient><radialGradient cx="251.44302" cy="182.87053" r="6.34351" gradientUnits="userSpaceOnUse" id="color-7"><stop offset="0" stop-color="#000000"></stop><stop offset="1" stop-color="#2d2d2d"></stop></radialGradient><radialGradient cx="250.97468" cy="181.3579" r="6.3435" gradientUnits="userSpaceOnUse" id="color-8"><stop offset="0" stop-color="#000000"></stop><stop offset="1" stop-color="#2d2d2d"></stop></radialGradient><radialGradient cx="245.796" cy="189.357" r="6.34351" gradientUnits="userSpaceOnUse" id="color-9"><stop offset="0" stop-color="#000000"></stop><stop offset="1" stop-color="#2d2d2d"></stop></radialGradient><radialGradient cx="247.3259" cy="188.94854" r="6.34351" gradientUnits="userSpaceOnUse" id="color-10"><stop offset="0" stop-color="#000000"></stop><stop offset="1" stop-color="#2d2d2d"></stop></radialGradient><radialGradient cx="246.37958" cy="189.77533" r="6.34352" gradientUnits="userSpaceOnUse" id="color-11"><stop offset="0" stop-color="#000000"></stop><stop offset="1" stop-color="#2d2d2d"></stop></radialGradient><radialGradient cx="247.13089" cy="188.38144" r="6.3435" gradientUnits="userSpaceOnUse" id="color-12"><stop offset="0" stop-color="#000000"></stop><stop offset="1" stop-color="#2d2d2d"></stop></radialGradient><radialGradient cx="238.33071" cy="190.85004" r="6.34351" gradientUnits="userSpaceOnUse" id="color-13"><stop offset="0" stop-color="#000000"></stop><stop offset="1" stop-color="#2d2d2d"></stop></radialGradient><radialGradient cx="239.82799" cy="191.36535" r="6.34351" gradientUnits="userSpaceOnUse" id="color-14"><stop offset="0" stop-color="#000000"></stop><stop offset="1" stop-color="#2d2d2d"></stop></radialGradient><radialGradient cx="238.58129" cy="191.52293" r="6.34351" gradientUnits="userSpaceOnUse" id="color-15"><stop offset="0" stop-color="#000000"></stop><stop offset="1" stop-color="#2d2d2d"></stop></radialGradient><radialGradient cx="239.98284" cy="190.786" r="6.34351" gradientUnits="userSpaceOnUse" id="color-16"><stop offset="0" stop-color="#000000"></stop><stop offset="1" stop-color="#2d2d2d"></stop></radialGradient><radialGradient cx="231.34972" cy="187.21605" r="6.34351" gradientUnits="userSpaceOnUse" id="color-17"><stop offset="0" stop-color="#000000"></stop><stop offset="1" stop-color="#2d2d2d"></stop></radialGradient><radialGradient cx="232.19973" cy="188.55207" r="6.34351" gradientUnits="userSpaceOnUse" id="color-18"><stop offset="0" stop-color="#000000"></stop><stop offset="1" stop-color="#2d2d2d"></stop></radialGradient><radialGradient cx="231.12645" cy="187.8985" r="6.34351" gradientUnits="userSpaceOnUse" id="color-19"><stop offset="0" stop-color="#000000"></stop><stop offset="1" stop-color="#2d2d2d"></stop></radialGradient><radialGradient cx="232.68185" cy="188.19541" r="6.34351" gradientUnits="userSpaceOnUse" id="color-20"><stop offset="0" stop-color="#000000"></stop><stop offset="1" stop-color="#2d2d2d"></stop></radialGradient><radialGradient cx="228.67591" cy="180.57587" r="6.34351" gradientUnits="userSpaceOnUse" id="color-21"><stop offset="0" stop-color="#000000"></stop><stop offset="1" stop-color="#2d2d2d"></stop></radialGradient><radialGradient cx="228.42504" cy="182.13937" r="6.34351" gradientUnits="userSpaceOnUse" id="color-22"><stop offset="0" stop-color="#000000"></stop><stop offset="1" stop-color="#2d2d2d"></stop></radialGradient><radialGradient cx="228.05596" cy="180.93817" r="6.34351" gradientUnits="userSpaceOnUse" id="color-23"><stop offset="0" stop-color="#000000"></stop><stop offset="1" stop-color="#2d2d2d"></stop></radialGradient><radialGradient cx="229.02235" cy="182.19255" r="6.34351" gradientUnits="userSpaceOnUse" id="color-24"><stop offset="0" stop-color="#000000"></stop><stop offset="1" stop-color="#2d2d2d"></stop></radialGradient><radialGradient cx="230.44663" cy="172.98553" r="6.3435" gradientUnits="userSpaceOnUse" id="color-25"><stop offset="0" stop-color="#000000"></stop><stop offset="1" stop-color="#2d2d2d"></stop></radialGradient><radialGradient cx="229.27514" cy="174.05094" r="6.34351" gradientUnits="userSpaceOnUse" id="color-26"><stop offset="0" stop-color="#000000"></stop><stop offset="1" stop-color="#2d2d2d"></stop></radialGradient><radialGradient cx="229.73609" cy="172.8819" r="6.34351" gradientUnits="userSpaceOnUse" id="color-27"><stop offset="0" stop-color="#000000"></stop><stop offset="1" stop-color="#2d2d2d"></stop></radialGradient><radialGradient cx="229.70879" cy="174.46516" r="6.34351" gradientUnits="userSpaceOnUse" id="color-28"><stop offset="0" stop-color="#000000"></stop><stop offset="1" stop-color="#2d2d2d"></stop></radialGradient><radialGradient cx="237.17364" cy="168.79454" r="6.3435" gradientUnits="userSpaceOnUse" id="color-29"><stop offset="0" stop-color="#000000"></stop><stop offset="1" stop-color="#2d2d2d"></stop></radialGradient><radialGradient cx="235.59057" cy="168.75819" r="6.34351" gradientUnits="userSpaceOnUse" id="color-30"><stop offset="0" stop-color="#000000"></stop><stop offset="1" stop-color="#2d2d2d"></stop></radialGradient><radialGradient cx="236.73056" cy="168.2295" r="6.34351" gradientUnits="userSpaceOnUse" id="color-31"><stop offset="0" stop-color="#000000"></stop><stop offset="1" stop-color="#2d2d2d"></stop></radialGradient><radialGradient cx="235.61894" cy="169.35719" r="6.34351" gradientUnits="userSpaceOnUse" id="color-32"><stop offset="0" stop-color="#000000"></stop><stop offset="1" stop-color="#2d2d2d"></stop></radialGradient><radialGradient cx="244.86586" cy="169.99798" r="6.3435" gradientUnits="userSpaceOnUse" id="color-33"><stop offset="0" stop-color="#000000"></stop><stop offset="1" stop-color="#2d2d2d"></stop></radialGradient><radialGradient cx="243.59721" cy="169.05034" r="6.34351" gradientUnits="userSpaceOnUse" id="color-34"><stop offset="0" stop-color="#000000"></stop><stop offset="1" stop-color="#2d2d2d"></stop></radialGradient><radialGradient cx="244.83254" cy="169.28071" r="6.34351" gradientUnits="userSpaceOnUse" id="color-35"><stop offset="0" stop-color="#000000"></stop><stop offset="1" stop-color="#2d2d2d"></stop></radialGradient><radialGradient cx="243.27295" cy="169.55481" r="6.34352" gradientUnits="userSpaceOnUse" id="color-36"><stop offset="0" stop-color="#000000"></stop><stop offset="1" stop-color="#2d2d2d"></stop></radialGradient><linearGradient x1="239.99998" y1="159.09106" x2="239.99998" y2="200.90895" gradientUnits="userSpaceOnUse" id="color-37"><stop offset="0" stop-color="#000515"></stop><stop offset="1" stop-color="#000002"></stop></linearGradient><radialGradient cx="240" cy="180" r="3.43204" gradientUnits="userSpaceOnUse" id="color-38"><stop offset="0" stop-color="#0036ab"></stop><stop offset="1" stop-color="#001541"></stop></radialGradient></defs><g transform="translate(-211.61111,-125.09943)"><g data-paper-data="{&quot;isPaintingLayer&quot;:true}" fill="none" fill-rule="nonzero" stroke-linejoin="miter" stroke-miterlimit="10" stroke-dasharray="" stroke-dashoffset="0" style="mix-blend-mode: normal"><path d="M211.61111,232.98832v-22.44444h59.22222v22.44444z" stroke="none" stroke-width="NaN" stroke-linecap="butt"></path><path d="M215.53086,147.54388v-22.44444h59.22222v22.44445z" stroke="none" stroke-width="NaN" stroke-linecap="butt"></path><g stroke-width="0.5" stroke-linecap="round"><g><path d="M243.22647,174.99513l15.471,0.74239" stroke="url(#color-1)"></path><path d="M258.35044,172.4339l-15.31653,2.30362" stroke="url(#color-2)"></path><path d="M256.73541,168.59841l-11.14552,10.75548" stroke="url(#color-3)"></path><path d="M254.09216,166.5865l-8.82185,12.73099" stroke="url(#color-4)"></path></g><g><path d="M245.77897,178.59522l11.49235,10.38406" stroke="url(#color-5)"></path><path d="M245.79345,178.27389l13.30435,7.93079" stroke="url(#color-6)"></path><path d="M260.28099,182.21476l-15.43834,1.24951" stroke="url(#color-7)"></path><path d="M244.61862,183.23349l14.89417,-4.2505" stroke="url(#color-8)"></path></g><g><path d="M246.10349,198.21393l-0.64105,-15.47554" stroke="url(#color-9)"></path><path d="M249.36297,197.5735l-3.66111,-15.04991" stroke="url(#color-10)"></path><path d="M253.03905,195.62267l-11.70709,-10.14136" stroke="url(#color-11)"></path><path d="M241.3397,185.15976l13.46738,7.65069" stroke="url(#color-12)"></path></g><g><path d="M241.74925,185.17283l-8.10846,13.19682" stroke="url(#color-13)"></path><path d="M242.0678,185.12832l-5.36528,14.52987" stroke="url(#color-14)"></path><path d="M236.79109,185.14231l4.0504,14.94984" stroke="url(#color-15)"></path><path d="M236.97704,184.87987l6.90137,13.86631" stroke="url(#color-16)"></path></g><g><path d="M222.99608,190.1752l14.56491,-5.26941" stroke="url(#color-17)"></path><path d="M237.83788,185.06943l-13.24998,8.02132" stroke="url(#color-18)"></path><path d="M233.70202,181.79246l-6.14725,14.21669" stroke="url(#color-19)"></path><path d="M230.76873,196.84873l3.24224,-15.14567" stroke="url(#color-20)"></path></g><g><path d="M220.46336,177.24513l14.39194,5.72499" stroke="url(#color-21)"></path><path d="M234.95378,183.2763l-15.23477,-2.79382" stroke="url(#color-22)"></path><path d="M220.00136,184.63455l14.03365,-6.55438" stroke="url(#color-23)"></path><path d="M221.84824,187.39561l12.47722,-9.17728" stroke="url(#color-24)"></path></g><g><path d="M226.10619,165.25891l7.6761,13.4529" stroke="url(#color-25)"></path><path d="M223.5048,167.32465l10.16345,11.68792" stroke="url(#color-26)"></path><path d="M221.13513,170.74573l15.05678,3.6327" stroke="url(#color-27)"></path><path d="M220.85597,174.0558l15.47673,0.61182" stroke="url(#color-28)"></path></g><g><path d="M235.6402,175.24169l3.71878,-15.03575" stroke="url(#color-29)"></path><path d="M236.05056,159.90785l-0.70034,15.47296" stroke="url(#color-30)"></path><path d="M240.37359,173.76534l-8.39835,-13.01425" stroke="url(#color-31)"></path><path d="M240.27609,174.07185l-10.78572,-11.11626" stroke="url(#color-32)"></path></g><g><path d="M251.62672,164.2682l-11.74883,10.09296" stroke="url(#color-33)"></path><path d="M239.56096,174.30636l9.54327,-12.19955" stroke="url(#color-34)"></path><path d="M245.29511,160.43053l-0.70486,15.47276" stroke="url(#color-35)"></path><path d="M241.99233,160.78553l2.34075,15.31092" stroke="url(#color-36)"></path></g></g><path d="M219.09104,180c0,-11.54769 9.36125,-20.90894 20.90895,-20.90894c11.54769,0 20.90894,9.36125 20.90894,20.90894c0,11.54769 -9.36125,20.90895 -20.90894,20.90895c-11.54769,0 -20.90895,-9.36125 -20.90895,-20.90895z" stroke="url(#color-37)" stroke-width="8" stroke-linecap="butt"></path><path d="M215.4421,180c0,-13.56295 10.99495,-24.5579 24.5579,-24.5579c13.56295,0 24.5579,10.99495 24.5579,24.5579c0,13.56295 -10.99495,24.5579 -24.5579,24.5579c-13.56295,0 -24.5579,-10.99495 -24.5579,-24.5579z" stroke="#151515" stroke-width="7.5" stroke-linecap="butt"></path><path d="M236.56796,180c0,-1.89546 1.53658,-3.43204 3.43204,-3.43204c1.89546,0 3.43204,1.53658 3.43204,3.43204c0,1.89546 -1.53658,3.43204 -3.43204,3.43204c-1.89546,0 -3.43204,-1.53658 -3.43204,-3.43204z" stroke="url(#color-38)" stroke-width="6.5" stroke-linecap="butt"></path></g></g></svg>