<svg version="1.1" xmlns="http://www.w3.org/2000/svg" xmlns:xlink="http://www.w3.org/1999/xlink" width="123.19282" height="97.98294" viewBox="0,0,123.19282,97.98294"><defs><linearGradient x1="317.43399" y1="118.93562" x2="317.43399" y2="175.70712" gradientUnits="userSpaceOnUse" id="color-1"><stop offset="0" stop-color="#000000"></stop><stop offset="1" stop-color="#171717"></stop></linearGradient><linearGradient x1="305.43133" y1="126.25483" x2="305.43133" y2="184.63845" gradientUnits="userSpaceOnUse" id="color-2"><stop offset="0" stop-color="#000000"></stop><stop offset="1" stop-color="#171717"></stop></linearGradient></defs><g transform="translate(-237.23072,-86.90551)"><g data-paper-data="{&quot;isPaintingLayer&quot;:true}" fill-rule="nonzero" stroke-linecap="butt" stroke-linejoin="miter" stroke-miterlimit="10" stroke-dasharray="" stroke-dashoffset="0" style="mix-blend-mode: normal"><path d="M297.78736,179.27871v-16.55004l24.28538,1.88886l-9.08453,13.13209c0,0 -4.01219,2.34621 -6.18352,2.56463c-2.75524,0.27715 -9.01733,-1.03555 -9.01733,-1.03555z" fill="#121212" stroke="none" stroke-width="0"></path><path d="M320.7711,161.78814l3.5143,-26.18521l4.78586,1.27723c0,0 0.88662,0.67754 0.77961,1.8191c-0.28568,3.04758 -3.48065,22.89686 -3.48065,22.89686l-1.08309,1.3645z" fill="#313131" stroke="none" stroke-width="0"></path><path d="M331.86334,113.76343l-6.54559,-5.1799l6.50333,-4.17808l3.31891,7.25289z" fill="#5c5c5c" stroke="none" stroke-width="0"></path><path d="M294.29463,175.27612c0,-4.1976 3.40283,-7.60043 7.60043,-7.60043c4.1976,0 7.60042,3.40283 7.60042,7.60043c0,4.1976 -3.40282,7.60043 -7.60042,7.60043c-4.1976,0 -7.60043,-3.40283 -7.60043,-7.60043z" fill="#202020" stroke="#000000" stroke-width="0.5"></path><path d="M297.29379,170.52977l3.55409,-42.04039c0,0 10.88866,-4.02735 15.24779,-4.64695c3.14295,-0.44673 8.47334,1.27531 8.47334,1.27531l-0.67355,38.96781z" fill="#111111" stroke="none" stroke-width="0"></path><path d="M305.44077,152.05622l-3.96515,4.60403l-28.18977,-26.6554l5.88552,-0.37924c0,0 29.25459,5.81055 30.56763,6.93171c0.97795,0.83504 -2.04095,3.00619 -2.04095,3.00619c0,0 -22.584,-6.72005 -22.99226,-5.36379c-1.01929,3.38616 20.73498,17.8565 20.73498,17.8565z" fill="#272727" stroke="#000000" stroke-width="0.5"></path><path d="M297.7301,183.90648c-0.12594,-0.50373 -2.66736,-1.87568 -1.91535,-2.0872c1.78019,-0.50072 6.55216,-0.27729 8.95935,-1.59472c1.14492,-0.6266 5.51076,-2.77037 6.53116,-3.88598c1.40404,-1.53505 8.54672,-11.27845 8.54672,-11.27845c0,0 4.5666,-2.24589 3.84738,-1.31579c-0.27202,0.35178 -1.09355,3.08769 -2.58281,5.79794c-1.75795,3.19922 -4.23398,6.46883 -4.76792,7.27266c-1.05632,1.59027 -2.80037,3.04524 -3.79145,3.95703c-2.32794,2.1417 -7.90528,3.02537 -7.90528,3.02537c0,0 -2.3941,0.40261 -4.344,0.48029c-1.39617,0.05561 -2.52076,-0.14303 -2.57779,-0.37116z" fill="#111111" stroke="none" stroke-width="0"></path><path d="M323.40499,163.40001c0,0 -1.87132,5.76536 -5.16893,5.84839c-0.04305,0.00108 -18.59884,0.33068 -20.07918,1.28539c-1.33449,0.86064 -4.79584,5.17333 -4.79584,5.17333c0,0 2.64488,-10.53067 2.30433,-10.40266c-1.08389,0.40743 20.42458,-0.41591 22.06318,-1.91788c2.16115,-1.98095 6.36677,-36.00652 6.36677,-36.00652l-0.81793,-1.09492l12.91831,-7.34952l5.31123,8.3491c0,0 -10.49775,5.37523 -11.06601,6.29344c-1.42874,2.23231 -7.03596,29.82184 -7.03596,29.82184z" fill="url(#color-1)" stroke="#000000" stroke-width="0.5"></path><path d="M301.12077,126.02904c3.58559,-2.27627 16.37993,-6.04333 16.37993,-6.04333l9.94585,3.66109c0,0 -0.99258,0.98782 -3.58736,1.97449c-1.40248,0.48468 -4.75666,-1.4116 -7.60577,-0.87221c-6.77883,1.28337 -14.30598,7.20781 -15.8907,7.24653c-0.95144,0.02159 -1.18714,-4.73167 0.75806,-5.96656z" fill="#5c5c5c" stroke="none" stroke-width="0"></path><path d="M240.51142,120.61713l12.12169,1.17901c0,0 1.8961,0.58329 2.33702,0.91069c0.42496,0.31554 0.26237,1.01942 0.26237,1.01942z" fill="#000000" stroke="none" stroke-width="0"></path><path d="M254.79545,123.5469c0,0 -1.02067,-1.89209 -0.54802,-2.09445c0.60869,-0.26059 16.56256,3.18442 24.38717,4.44052c7.60264,1.22047 17.4128,-1.7012 20.53046,-0.49384c1.66854,0.64617 -0.81433,7.87493 -0.81433,7.87493c0,0 -5.26975,-0.73334 -11.61886,-0.66504c-3.91475,0.04211 -9.26618,-0.70268 -12.01323,-1.31463c-7.63049,-1.69982 -19.9232,-7.7475 -19.9232,-7.7475z" fill="#000000" stroke="none" stroke-width="0"></path><path d="M337.81651,104.6359c0,0.9015 -0.68782,1.63231 -1.53629,1.63231c-0.84847,0 -3.26461,-1.11488 -3.26461,-2.01638c0,-0.9015 2.41614,-1.24823 3.26461,-1.24823c0.84847,0 1.53629,0.73081 1.53629,1.63231z" fill="#5c5c5c" stroke="none" stroke-width="0"></path><g fill="#272727" stroke="#000000"><path d="M238.45438,183.10706c0,0 -0.9583,-3.36953 -0.43144,-4.31571c0.22795,-0.40938 2.24508,1.07421 2.24508,1.07421l48.51181,-12.88981l0.22457,2.56097z" stroke-width="0.25"></path><path d="M237.62882,178.90053c0.22795,-0.40938 1.76126,-0.69985 1.76126,-0.69985c0,0 35.71311,-15.64292 37.74441,-15.94457c1.83448,-0.27242 12.20028,5.78414 12.20028,5.78414l-1.534,2.59506l-12.84217,-3.06005c0,0 -9.93169,2.78506 -10.22368,3.33001c-0.30304,0.56556 1.44608,1.93774 1.44608,1.93774c0,0 1.26104,2.30512 0.51419,2.58629c-3.28875,1.23816 -28.54498,7.96685 -28.54498,7.96685c0,0 -1.04826,-3.54944 -0.5214,-4.49562z" stroke-width="0.5"></path></g><path d="M298.34549,133.46844l7.39623,-1.91815c0,0 5.61433,0.22192 5.89073,0.74576c-0.0839,0.45951 -4.49412,3.12635 -4.49412,3.12635z" fill="#272727" stroke="#000000" stroke-width="0.5"></path><path d="M295.60284,175.55946c1.14971,1.97745 5.34051,8.34497 5.44555,8.67772c0.41046,1.30025 -4.49517,-0.97074 -4.87431,-1.02554c-0.82491,-0.11925 -9.4542,-13.14973 -9.4542,-13.14973l21.0127,-34.26818l15.50285,-9.5389l0.90735,1.19919c0,0 -0.17008,1.77559 -0.33337,2.30414c-3.10233,3.65449 -10.34486,9.81555 -10.34486,9.81555c0,0 -15.32108,26.7151 -17.68095,30.56109c-0.56554,0.92169 -0.70459,4.52368 -0.18075,5.42467z" fill="url(#color-2)" stroke="#000000" stroke-width="0.5"></path><path d="M334.27058,104.82794c0,3.12873 -2.60309,5.66507 -5.81416,5.66507c-3.21107,0 -5.81415,-2.53634 -5.81415,-5.66507c0,-3.12873 2.60308,-5.66507 5.81415,-5.66507c3.21107,0 5.81416,2.53634 5.81416,5.66507z" fill="#000000" stroke="none" stroke-width="0"></path><path d="M359.45685,157.89044l-28.61112,-43.74729l5.12674,-3.4342l24.45107,38.13121z" fill="#313131" stroke="none" stroke-width="0"></path><path d="M322.80707,107.3051l-2.52042,-3.09268l3.30131,-5.47976l3.91338,-0.96656l3.21942,2.1195c0,0 -3.75421,0.33858 -4.82389,1.28393c-0.99102,0.87584 -1.9222,2.82552 -2.43145,4.37036c-0.3519,1.06754 -0.65836,1.76522 -0.65836,1.76522z" fill="#383838" stroke="#000000" stroke-width="0.25"></path><path d="M292.40019,171.96443l2.83727,-9.34184l15.373,9.50231l-1.4933,4.91675z" fill="#636363" stroke="#000000" stroke-width="0.25"></path><path d="M264.78834,122.53831c0,0 0.75117,-13.94128 2.88961,-18.1562c0.16033,-0.31602 3.38612,-5.08834 7.91542,-9.4559c5.567,-5.3682 13.35077,-7.88296 13.35077,-7.88296l14.39701,9.79318c0,0 -1.40235,1.60498 -3.41602,3.22346c-0.25353,0.20377 -0.51675,0.40776 -0.78809,0.6088c-5.82542,4.31593 -15.38989,11.70273 -13.06887,18.36223c1.0044,2.88187 -21.27983,3.5074 -21.27983,3.5074z" fill="#afafaf" stroke="#000000" stroke-width="0.25"></path><path d="M292.31877,91.93167l16.48625,9.42945l11.77562,2.33671l2.26633,3.863l-14.61235,-1.18184l-21.25103,-6.12488z" fill="#d89856" stroke="#000000" stroke-width="0.25"></path><path d="M294.70847,103.77674c0,0 -7.82725,-1.26421 -9.26232,-5.22333c-0.78569,-2.16758 0.7324,-3.69486 1.68209,-4.73952c0.78495,-0.86343 2.40129,-1.39715 3.92959,-1.6902c3.37739,-0.64761 8.00341,3.78457 8.00341,3.78457z" fill="#afafaf" stroke="#000000" stroke-width="0.25"></path><path d="M301.67985,132.16139c-0.14486,15.09928 -0.27125,31.35254 -0.21171,34.06811c0.01673,0.76301 -6.44896,-3.77734 -6.44896,-3.77734l-3.55187,-28.72161c0,0 10.24426,-4.87362 10.21255,-1.56915z" fill="#d89856" stroke="#000000" stroke-width="0.25"></path><path d="M264.9478,122.69776c0,0 19.11826,-10.00745 21.43928,-3.34795c1.0044,2.88187 12.61483,4.333 15.27957,11.31031c2.66475,6.97731 -9.06948,4.95004 -9.06948,4.95004z" fill="#333333" stroke="#000000" stroke-width="0.25"></path></g></g></svg>