<svg version="1.1" xmlns="http://www.w3.org/2000/svg" xmlns:xlink="http://www.w3.org/1999/xlink" width="122.99776" height="111.14508" viewBox="0,0,122.99776,111.14508"><g transform="translate(-237.23073,-73.26706)"><g data-paper-data="{&quot;isPaintingLayer&quot;:true}" fill-rule="nonzero" stroke-linecap="butt" stroke-linejoin="miter" stroke-miterlimit="10" stroke-dasharray="" stroke-dashoffset="0" style="mix-blend-mode: normal"><path d="M274.51505,93.06837l8.33474,18.22002c0,0 10.88016,9.15105 3.94401,11.92118c-3.11449,1.24387 -7.69068,-1.80182 -9.67926,-2.55598c-0.97815,-0.37095 -0.12313,-1.39899 -2.39164,-2.51485c-3.39057,-1.66779 -6.67357,-7.47763 -9.14428,-10.50395c-7.48449,-9.1676 8.93641,-14.56642 8.93641,-14.56642z" fill="#333333" stroke="#000000" stroke-width="0.25"/><path d="M273.6566,93.09005c0,0 3.86003,-5.19173 9.47877,-10.56823c3.20461,-3.06644 6.99609,-7.01431 10.9326,-8.02839c10.83851,-2.79211 8.87824,-0.19632 10.10389,6.88814c0.78282,4.5248 -4.46375,7.04486 -10.0923,13.22714c-4.40376,4.83701 -6.62841,11.64833 -8.26973,14.34635c-1.61811,2.65983 -12.15322,-15.86498 -12.15322,-15.86498z" fill="#afafaf" stroke="#000000" stroke-width="0.25"/><path d="M301.76252,81.64499l11.97377,11.80066l11.91891,3.31104l0.58064,3.44233c0,0 -10.51744,1.14479 -14.90754,-0.80763c-5.3195,-2.36575 -14.75998,-12.38645 -14.75998,-12.38645z" fill="#d89856" stroke="#000000" stroke-width="0.25"/><path d="M297.39338,88.77865c0,0 -6.8018,-4.07425 -6.66786,-8.28331c0.07332,-2.30441 2.04923,-3.16054 3.31838,-3.779c1.04899,-0.51116 2.74804,-0.40803 4.27615,-0.11398c3.37697,0.64982 6.03163,6.48051 6.03163,6.48051z" fill="#afafaf" stroke="#000000" stroke-width="0.25"/><path d="M297.78734,179.08366v-16.55004l24.28538,1.88886l-9.08453,13.13209c0,0 -4.01219,2.34621 -6.18352,2.56463c-2.75524,0.27715 -9.01733,-1.03555 -9.01733,-1.03555z" fill="#121212" stroke="none" stroke-width="0"/><path d="M294.09959,175.08107c0,-4.1976 3.40283,-7.60043 7.60043,-7.60043c4.1976,0 7.60042,3.40283 7.60042,7.60043c0,4.1976 -3.40282,7.60043 -7.60042,7.60043c-4.1976,0 -7.60043,-3.40283 -7.60043,-7.60043z" fill="#202020" stroke="#000000" stroke-width="0.5"/><path d="M320.57605,161.59309l3.5143,-26.18521l4.78586,1.27723c0,0 0.88662,0.67754 0.77961,1.8191c-0.28568,3.04758 -3.48065,22.89686 -3.48065,22.89686l-1.08309,1.3645z" fill="#313131" stroke="none" stroke-width="0"/><path d="M331.66828,113.56838l-6.54559,-5.1799l6.50333,-4.17808l3.31891,7.25289z" fill="#5c5c5c" stroke="none" stroke-width="0"/><path d="M291.66234,133.24684l-2.04413,-2.46205l20.68609,3.10134l-1.66841,4.41601z" fill="#000000" stroke="none" stroke-width="0"/><path d="M297.09876,170.33472l3.55409,-42.04039c0,0 10.88866,-4.02735 15.24779,-4.64695c3.14295,-0.44673 8.47334,1.27531 8.47334,1.27531l-0.67355,38.96781z" fill="#111111" stroke="none" stroke-width="0"/><path d="M305.44079,151.86117l-3.96515,4.60403l-28.18977,-26.6554l5.88552,-0.37924c0,0 29.25459,5.81055 30.56763,6.93171c0.97795,0.83504 -2.04095,3.00619 -2.04095,3.00619c0,0 -22.584,-6.72005 -22.99226,-5.36379c-1.01929,3.38616 20.73498,17.8565 20.73498,17.8565z" fill="#272727" stroke="#000000" stroke-width="0.5"/><path d="M297.7301,183.71143c-0.12594,-0.50373 -2.66736,-1.87568 -1.91535,-2.0872c1.78019,-0.50072 6.55216,-0.27729 8.95935,-1.59472c1.14492,-0.6266 5.51076,-2.77037 6.53116,-3.88598c1.40404,-1.53505 8.54672,-11.27845 8.54672,-11.27845c0,0 4.5666,-2.24589 3.84738,-1.31579c-0.27202,0.35178 -1.09355,3.08769 -2.58281,5.79794c-1.75795,3.19922 -4.23398,6.46883 -4.76792,7.27266c-1.05632,1.59027 -2.80037,3.04524 -3.79145,3.95703c-2.32794,2.1417 -7.90528,3.02537 -7.90528,3.02537c0,0 -2.3941,0.40261 -4.344,0.48029c-1.39617,0.05561 -2.52076,-0.14303 -2.57779,-0.37116z" fill="#111111" stroke="none" stroke-width="0"/><path d="M300.92571,125.83399c3.58559,-2.27627 16.37993,-6.04333 16.37993,-6.04333l9.94585,3.66109c0,0 -0.99258,0.98782 -3.58736,1.97449c-1.40248,0.48468 -4.75666,-1.4116 -7.60577,-0.87221c-6.77883,1.28337 -14.30598,7.20781 -15.8907,7.24653c-0.95144,0.02159 -1.18714,-4.73167 0.75806,-5.96656z" fill="#5c5c5c" stroke="none" stroke-width="0"/><path d="M240.51143,120.42208l12.12169,1.17901c0,0 1.8961,0.58329 2.33702,0.91069c0.42496,0.31554 0.26237,1.01942 0.26237,1.01942z" fill="#ff0000" stroke="none" stroke-width="0"/><path d="M254.79545,123.35185c0,0 -1.02067,-1.89209 -0.54802,-2.09445c0.60869,-0.26059 16.56256,3.18442 24.38717,4.44052c7.60264,1.22047 17.4128,-1.7012 20.53046,-0.49384c1.66854,0.64617 -0.81433,7.87493 -0.81433,7.87493c0,0 -5.26975,-0.73334 -11.61886,-0.66504c-3.91475,0.04211 -9.26618,-0.70268 -12.01323,-1.31463c-7.63049,-1.69982 -19.9232,-7.7475 -19.9232,-7.7475z" fill="#000000" stroke="none" stroke-width="0"/><path d="M337.62145,104.44085c0,0.9015 -0.68782,1.63231 -1.53629,1.63231c-0.84847,0 -3.26461,-1.11488 -3.26461,-2.01638c0,-0.9015 2.41614,-1.24823 3.26461,-1.24823c0.84847,0 1.53629,0.73081 1.53629,1.63231z" fill="#5c5c5c" stroke="none" stroke-width="0"/><path d="M334.07552,104.63289c0,3.12873 -2.60309,5.66507 -5.81416,5.66507c-3.21107,0 -5.81415,-2.53634 -5.81415,-5.66507c0,-3.12873 2.60308,-5.66507 5.81415,-5.66507c3.21107,0 5.81416,2.53634 5.81416,5.66507z" fill="#000000" stroke="none" stroke-width="0"/><g fill="#272727" stroke="#000000"><path d="M238.45437,182.91201c0,0 -0.9583,-3.36953 -0.43144,-4.31571c0.22795,-0.40938 2.24508,1.07421 2.24508,1.07421l48.51181,-12.88981l0.22457,2.56097z" stroke-width="0.25"/><path d="M237.62883,178.70548c0.22795,-0.40938 1.76126,-0.69985 1.76126,-0.69985c0,0 35.71311,-15.64292 37.74441,-15.94457c1.83448,-0.27242 12.20028,5.78414 12.20028,5.78414l-1.534,2.59506l-12.84217,-3.06005c0,0 -9.93169,2.78506 -10.22368,3.33001c-0.30304,0.56556 1.44608,1.93774 1.44608,1.93774c0,0 1.26104,2.30512 0.51419,2.58629c-3.28875,1.23816 -28.54498,7.96685 -28.54498,7.96685c0,0 -1.04826,-3.54944 -0.5214,-4.49562z" stroke-width="0.5"/></g><path d="M298.34547,133.27339l7.39623,-1.91815c0,0 5.61433,0.22192 5.89073,0.74576c-0.0839,0.45951 -4.49412,3.12635 -4.49412,3.12635z" fill="#272727" stroke="#000000" stroke-width="0.5"/><path d="M323.18485,162.99497c0,0 -1.87132,5.76536 -5.16893,5.84839c-0.03035,0.00076 -11.07318,0.36672 -17.70594,1.21015c-2.77373,0.35271 -4.77624,1.40777 -4.87961,1.56368c-0.46857,0.70673 -1.13804,2.35036 -1.06495,3.20479c0.15619,1.826 0.94382,3.34652 1.62354,4.26802c1.43111,1.94016 4.28507,3.54962 4.54276,4.69738c0.25472,1.13451 -3.93478,-0.6248 -4.45707,-1.08928c-0.34024,-0.30257 -2.99633,-1.12596 -4.37881,-3.07789c-2.71379,-3.8316 -4.79996,-9.87187 -4.79996,-9.87187c0,0 18.53637,-32.9697 21.00873,-34.36942c0.58369,-0.33046 14.08533,-9.40263 15.15773,-9.46916c0.03202,-0.00199 0.26204,1.42827 0.26204,1.42827l-0.49156,3.93888c0,0 -9.43636,7.35452 -9.89189,7.83791c-1.50644,1.59858 -15.33531,26.36419 -15.35011,26.36976c-1.08389,0.40743 18.279,-1.00106 19.9176,-2.50303c2.16115,-1.98095 5.78161,-35.61642 5.78161,-35.61642l-0.23278,-1.48503l12.91831,-7.34952l5.31123,8.3491c0,0 -10.49775,5.37523 -11.06601,6.29344c-1.42874,2.23231 -7.03596,29.82184 -7.03596,29.82184z" fill="#ff0000" stroke="#000000" stroke-width="0.5"/><path d="M294.86339,124.02701c3.31059,14.73259 6.90296,30.58438 7.58169,33.21444c0.19071,0.73898 -7.14168,-2.20312 -7.14168,-2.20312l-10.02343,-27.14917c0,0 2.90998,-2.32773 5.53075,-3.708c1.95193,-1.02802 3.74341,-1.53046 4.05269,-0.15415z" fill="#d89856" stroke="#000000" stroke-width="0.25"/><path d="M294.31296,164.6923l0.62665,-9.74307l17.13813,5.73652l-0.32982,5.12792z" fill="#636363" stroke="#000000" stroke-width="0.25"/><path d="M283.34628,126.86404c-14.07972,-5.45625 -29.24591,-11.30187 -31.80828,-12.20305c-0.71996,-0.25321 5.80754,-4.70425 5.80754,-4.70425l28.13093,6.79688c0,0 4.51754,0.83293 4.20417,3.77832c-0.23339,2.19372 -5.01904,6.84183 -6.33437,6.33211z" fill="#d89856" stroke="#000000" stroke-width="0.25"/><path d="M251.4989,103.40141l7.19532,6.59904l-15.21713,9.74998l-3.787,-3.47318z" fill="#636363" stroke="#000000" stroke-width="0.25"/><path d="M273.54923,92.67909c0,0 16.56706,12.79605 15.04011,19.68115c-0.66079,2.97949 8.4525,10.31814 7.05084,17.65429c-1.40165,7.33615 -10.31734,-0.55768 -10.31734,-0.55768c0,0 -16.42611,-18.9808 -18.86318,-25.79992c-1.71076,-4.78686 7.08957,-10.97783 7.08957,-10.97783z" fill="#333333" stroke="#000000" stroke-width="0.25"/><path d="M324.33254,98.55709l-0.40826,-2.2959l9.58225,1.09311l2.21453,3.36818l-0.98743,4.02235c0,0 -1.67936,-3.59811 -2.92696,-4.29195c-1.15586,-0.64282 -3.13344,-0.98159 -4.75969,-0.94735c-1.12379,0.02367 -1.88371,-0.03297 -1.88371,-0.03297z" fill="#383838" stroke="#000000" stroke-width="0.25"/><path d="M359.2618,157.50033l-28.61112,-43.74729l5.12674,-3.4342l24.45107,38.13121z" fill="#313131" stroke="none" stroke-width="0"/></g></g></svg>