<svg version="1.1" xmlns="http://www.w3.org/2000/svg" xmlns:xlink="http://www.w3.org/1999/xlink" width="208.86225" height="140.79379" viewBox="0,0,208.86225,140.79379"><g transform="translate(-203.20101,-68.667)"><g data-paper-data="{&quot;isPaintingLayer&quot;:true}" fill-rule="nonzero" stroke-linecap="butt" stroke-linejoin="miter" stroke-miterlimit="10" stroke-dasharray="" stroke-dashoffset="0" style="mix-blend-mode: normal"><path d="M343.78945,107.50122v-9.59507l4.17177,0.41716v9.17788z" fill="#000000" stroke="none" stroke-width="0"></path><path d="M262.44006,130.44591l-4.58894,-10.01223c0,0 47.28462,-2.83631 50.98786,-4.04159c14.20427,-4.62301 22.85237,-10.97678 22.85237,-10.97678l-5.42329,25.03059z" fill="#313131" stroke="none" stroke-width="0"></path><path d="M348.98256,151.9089l-1.25155,-23.36188c0,0 19.59605,-4.42258 29.46891,-2.931c9.43658,1.42566 26.84989,10.85733 26.84989,10.85733c0,0 3.94974,3.671 5.01255,9.44679c1.49867,8.14451 -0.42361,5.98876 -0.42361,5.98876c0,0 -11.73651,-5.14436 -26.47688,-6.91722c-18.68551,-2.24735 -33.17935,6.91722 -33.17935,6.91722z" fill="#313131" stroke="none" stroke-width="0"></path><path d="M219.4709,142.12685c-5.14304,-4.04226 -1.66871,-20.02446 -1.66871,-20.02446l49.22683,11.26375l4.58894,15.85272c0,0 -44.2699,-0.9008 -52.14703,-7.092z" fill="#313131" stroke="none" stroke-width="0"></path><path d="M279.23901,176.9103v-39.63176h61.7421c0,0 6.50468,12.84548 6.50468,19.37581c0,6.677 -6.50468,20.25595 -6.50468,20.25595z" fill="#313131" stroke="none" stroke-width="0"></path><path d="M307.4951,160.4826c-0.13203,-9.87649 7.03842,-9.81794 13.24441,-10.52227c7.68875,-0.87262 16.37512,0.9272 16.37512,0.9272v17.93859c0,0 -10.63672,1.62183 -18.78776,-0.3561c-4.97166,-1.20642 -10.73607,-0.83067 -10.83177,-7.98745z" fill="#747474" stroke="none" stroke-width="0"></path><path d="M299.98594,180.0899v-5.84046c0,0 24.85572,0.72591 33.16481,-2.19767c5.21276,-1.83412 10.22154,-15.74095 10.22154,-15.74095l8.76068,0.83435c0,0 -2.17752,20.85382 -7.16451,22.48103c-8.80855,2.87415 -44.98255,0.46369 -44.98255,0.46369z" fill="#272727" stroke="none" stroke-width="0"></path><path d="M279.1271,153.80779v-11.68094l52.56422,-10.84659c0,0 16.26988,-0.03433 16.26988,1.25152c0,0.77508 2.27057,20.84031 -1.25919,22.51134c-2.37477,1.12426 -2.68352,-8.7469 -5.98413,-12.79284c-2.9382,-3.60168 -11.11243,-0.12344 -11.11243,-0.12344c0,0 -25.37704,17.5214 -34.20847,17.5214c-4.57889,0 -16.26988,-5.84046 -16.26988,-5.84046z" fill="#1f1f1f" stroke="none" stroke-width="0"></path><path d="M218.43023,180.07209c0,-11.67457 9.46413,-21.1387 21.1387,-21.1387c11.67457,0 21.1387,9.46413 21.1387,21.1387c0,11.67457 -9.46413,21.1387 -21.1387,21.1387c-11.67457,0 -21.1387,-9.46413 -21.1387,-21.1387z" fill="none" stroke="#000000" stroke-width="16.5"></path><path d="M277.45842,153.80779l-4.17175,-25.86495l17.93856,1.66871l10.84659,18.77294z" fill="#000000" stroke="none" stroke-width="0"></path><path d="M203.20102,115.17258c0,0 26.48921,-0.60403 35.02145,-0.47825c6.46835,0.09536 10.8873,3.16244 10.8873,3.16244l15.83335,0.65323c0,0 7.67611,7.5114 12.22363,15.19906c3.28367,5.55111 3.21973,20.12013 3.21973,20.12013l-9.83379,-0.05001c0,0 -1.6125,-7.89323 -3.42709,-12.7596c-1.5395,-4.6723 -8.44017,-9.06722 -8.44017,-9.06722l-34.20844,-6.67481l-20.44779,-6.49961l-0.82819,-3.60533z" fill="#ff0000" stroke="none" stroke-width="0"></path><path d="M300.78555,149.29551c0,0 -6.15132,-3.48575 -7.84819,-6.09087c-2.19742,-3.37362 -4.2272,-12.44804 -4.2272,-12.44804c0,0 29.83852,-3.16409 37.46096,-7.87925c4.31731,-2.67065 2.63468,-8.77796 2.63468,-8.77796c0,0 -1.22626,-9.54182 10.39998,-8.79323c18.10196,1.16559 18.06705,0.92893 27.13137,7.45095c3.88555,2.79573 -3.75947,-0.12877 9.8332,6.23326c7.16227,3.35227 16.01623,3.61733 21.21366,6.43955c3.76083,2.04211 12.5201,14.74074 12.6845,16.32837c0.12664,1.15789 -13.31552,-9.02265 -23.20426,-11.9167c-11.97696,-3.5052 -21.27358,0.17211 -27.58651,2.4213c-7.04372,2.50957 -7.00328,25.65017 -7.00328,25.65017c0,0 -7.0253,-0.66247 -8.96756,-0.66641c-1.01977,-0.00207 2.19496,-20.74777 -0.3549,-22.38456c-5.51346,-3.53911 -10.41435,-2.22379 -10.41435,-2.22379z" fill="#ff0000" stroke="none" stroke-width="0"></path><path d="M271.61793,178.00402c-3.09309,-2.37614 -0.83435,-25.86495 -0.83435,-25.86495h10.01223c0,0 -0.81077,15.76799 2.65393,19.58626c3.34495,3.68627 18.62205,2.52411 18.62205,2.52411l-1.66871,5.84046c0,0 -24.52778,1.18471 -28.78518,-2.08587z" fill="#141414" stroke="none" stroke-width="0"></path><path d="M337.11464,160.06544c0,5.52959 -4.6694,10.01223 -10.42939,10.01223c-5.76,0 -10.42939,-4.48261 -10.42939,-10.01223c0,-5.52959 4.6694,-10.01226 10.42939,-10.01226c5.76,0 10.42939,4.48264 10.42939,10.01226z" fill="#8d8d8d" stroke="none" stroke-width="0"></path><path d="M351.29862,95.61169c0,2.88001 -2.4281,5.21471 -5.42329,5.21471c-2.99519,0 -5.42329,-2.3347 -5.42329,-5.21471c0,-2.88001 2.4281,-5.21471 5.42329,-5.21471c2.99519,0 5.42329,2.3347 5.42329,5.21471z" fill="#000000" stroke="none" stroke-width="0"></path><path d="M360.69172,123.853l-2.54046,-6.16971c0,0 44.26334,-6.24007 52.62408,2.54046c3.38483,3.55479 -0.68195,20.12454 -3.26631,21.04962c-1.38165,0.49458 -6.08655,-3.87339 -6.08655,-3.87339c0,0 5.07088,-11.0164 -0.7359,-13.1037c-15.16504,-5.45126 -39.99484,-0.44329 -39.99484,-0.44329z" fill="#000000" stroke="none" stroke-width="0"></path><path d="M278.65548,72.06464c0,0 9.09555,-3.41349 17.72209,-3.26813c7.48353,0.12611 14.49956,3.70766 16.3342,4.91363c0.21762,0.14305 2.32521,8.931 -2.16691,12.69875c-4.49211,3.76774 -7.30079,1.35894 -14.96442,1.6701c-7.02343,0.28517 -16.00083,-2.82176 -16.13916,-3.48902c-0.81527,-3.93256 -0.78583,-12.52535 -0.78583,-12.52535z" fill="#afafaf" stroke="#000000" stroke-width="0.25"></path><path d="M266.30795,93.19581c-13.99576,5.66817 -29.04979,11.79682 -31.53401,12.89525c-0.698,0.30864 1.00933,-7.40531 1.00933,-7.40531l25.1518,-14.3155c0,0 8.43584,7.5851 5.37286,8.82558z" fill="#d89856" stroke="#000000" stroke-width="0.25"></path><path d="M229.20894,105.06041l6.33382,-7.42985l10.29531,14.85361l-3.33359,3.91044z" fill="#636363" stroke="#000000" stroke-width="0.25"></path><path d="M278.54321,71.41951c0,0 1.43671,10.64889 4.96093,12.74931c4.79373,2.85705 -13.60209,7.55857 -13.60209,7.55857c0,0 -2.91251,5.46346 -12.53433,-2.97106c-5.29819,-4.64441 21.17551,-17.33682 21.17551,-17.33682z" fill="#333333" stroke="#000000" stroke-width="0.25"></path><g stroke="#000000" stroke-width="0.25"><path d="M338.99445,92.66383l0.02126,-3.98958l6.03233,-2.13013l3.63495,1.74238l1.13706,3.68296c0,0 -3.1128,-2.12584 -4.53949,-2.07639c-1.32179,0.04581 -3.2802,0.95849 -4.65555,1.82699c-0.95042,0.60016 -1.63055,0.94378 -1.63055,0.94378z" fill="#383838"></path><path d="M305.1518,77.53299l16.54563,9.66633l17.47954,1.41128l-0.26298,3.64238c0,0 -11.43281,1.74955 -18.1482,0.96889c-6.66093,-0.77433 -17.74451,-7.70625 -17.74451,-7.70625z" fill="#d89856"></path><path d="M306.69248,88.15911c0,0 -4.24238,-1.65114 -6.36,-5.29117c-1.15937,-1.99288 0.06226,-3.76624 0.8106,-4.9634c0.61853,-0.98948 2.11389,-1.80269 3.56551,-2.36339c3.20794,-1.23909 8.16099,4.77092 8.16099,4.77092z" fill="#afafaf"></path></g></g></g></svg>