<svg version="1.1" xmlns="http://www.w3.org/2000/svg" xmlns:xlink="http://www.w3.org/1999/xlink" width="182.41719" height="115.18065" viewBox="0,0,182.41719,115.18065"><g transform="translate(-173.72563,-86.85781)"><g data-paper-data="{&quot;isPaintingLayer&quot;:true}" fill-rule="nonzero" stroke-linecap="butt" stroke-linejoin="miter" stroke-miterlimit="10" stroke-dasharray="" stroke-dashoffset="0" style="mix-blend-mode: normal"><path d="M267.81716,140.19003c-14.07972,-5.45625 -29.24591,-11.30187 -31.80828,-12.20305c-0.71996,-0.25321 5.80754,-4.70425 5.80754,-4.70425l28.13093,6.79688c0,0 4.51754,0.83293 4.20417,3.77832c-0.23339,2.19372 -5.01904,6.84183 -6.33437,6.33211z" fill="#d89856" stroke="#000000" stroke-width="0.25"></path><path d="M173.72564,151.58236v-0.54396h0.36264v0.54396z" fill="#000000" stroke="none" stroke-width="0"></path><g><path d="M335.57899,182.85525l-23.37416,-49.34839l2.40488,-1.12549l23.51996,49.78578z" fill="#232323" stroke="none" stroke-width="0"></path><path d="M278.36641,178.23525c0,4.47629 -3.59015,8.10505 -8.01883,8.10505c-4.42868,0 -8.01883,-3.62876 -8.01883,-8.10505c0,-4.47629 3.59015,-8.10506 8.01883,-8.10506c4.42868,0 8.01883,3.62876 8.01883,8.10506z" fill="#000000" stroke="none" stroke-width="0"></path><path d="M225.44409,180.46873c0,-8.0924 6.56019,-14.6526 14.65259,-14.6526c8.0924,0 14.65259,6.56019 14.65259,14.6526c0,8.0924 -6.56019,14.65259 -14.65259,14.65259c-8.0924,0 -14.65259,-6.56019 -14.65259,-14.65259z" fill="#252525" stroke="#000000" stroke-width="12.5"></path><path d="M320.58763,181.13586c0,-8.0924 6.56019,-14.65259 14.6526,-14.65259c8.0924,0 14.65259,6.56019 14.65259,14.65259c0,8.0924 -6.56019,14.6526 -14.65259,14.6526c-8.0924,0 -14.6526,-6.56019 -14.6526,-14.6526z" fill="#252525" stroke="#000000" stroke-width="12.5"></path><path d="M311.02648,131.46589l-8.62557,-15.2216l2.79063,-1.58136l8.62556,15.2216z" fill="#232323" stroke="none" stroke-width="0"></path><path d="M233.46095,177.59249v-4.08231h37.76142c0,0 2.27354,2.0086 2.24756,2.76218c-0.00514,0.149 2.00361,3.4399 -0.64303,3.62748c-0.27387,0.01941 -25.16657,8.14884 -25.16657,8.14884c0,0 -4.48311,-1.35986 -3.40046,-2.13318c0.85915,-0.61369 26.81671,-8.17719 26.81671,-8.17719c0,0 -0.12908,-1.75628 -1.89644,-1.76313c-1.23318,-0.00477 -22.76617,0.60649 -18.00595,0.30044c1.24416,-0.07999 0.93222,7.71356 0.93222,7.71356l-4.63805,0.82155c0,0 -0.52773,-7.44723 -2.48432,-8.10817c-5.66527,-1.91375 -11.52309,0.88995 -11.52309,0.88995z" fill="#000000" stroke="none" stroke-width="0"></path><path d="M282.03256,179.29722l10.3647,-33.87865l18.75222,6.26692l-11.96847,32.85807c0,0 -3.86269,3.58496 -6.27645,2.8465c-3.11942,-0.95434 -10.87201,-8.09283 -10.87201,-8.09283z" fill="#131313" stroke="none" stroke-width="0"></path><path d="M229.88092,178.11922l14.98118,-30.9509l3.40526,0.59225l-15.12699,30.07612l5.28714,0.19597l11.32325,9.17518l32.27608,-1.42142c0,0 -2.16258,-7.58079 0.91456,-8.21909c0.99184,-0.20574 1.88724,2.85319 3.50145,4.08866c2.17959,1.66821 5.06962,1.69218 5.62989,1.67815c3.61069,-0.09044 3.79132,2.71874 3.79132,2.71874c0,0 2.96412,-1.35241 4.22294,-3.93837c1.67212,-3.43503 6.77071,-21.12078 6.77071,-21.12078l6.2443,-10.34356l-2.08677,-9.72055c0,0 -1.82797,-1.08415 -3.24313,-0.08186c-1.49319,1.05756 0.88973,4.20669 -0.38784,4.29405c-2.0351,0.13915 -10.21472,-1.22435 -10.21472,-1.22435l-5.2464,1.84108l-0.04973,5.8614l-8.09175,22.48334c0,0 0.38125,4.63474 0.65613,8.58561c0.17129,2.46193 0.39047,4.92588 0.17741,5.0185c-0.17431,0.07577 -2.67598,-0.05865 -3.04431,-1.36616c-0.26249,-0.93183 0.05426,-5.36241 -1.06651,-5.61809c-1.77092,-0.40399 -5.16699,3.72374 -5.16699,3.72374l0.67578,-8.28619c0,0 5.29789,-1.10783 5.29515,-1.11473c-0.45779,-1.15607 8.04847,-29.78125 8.04847,-29.78125l6.86065,-6.10591c0,0 6.8903,0.50726 10.22649,-0.54294c1.67107,-0.52604 2.27015,-2.71686 2.49231,-2.85644c0.71375,-0.44842 2.21856,0.50152 2.21856,0.50152c0,0 0.72875,3.42311 2.91228,5.32024c1.48136,1.28705 5.38428,1.09642 5.50316,1.23552c1.43856,1.68329 4.56691,7.92757 4.56691,7.92757c0,0 -6.36136,1.02668 -8.17923,2.29915c-2.74241,1.91963 -7.11185,7.07756 -7.11185,7.07756c0,0 -5.85345,23.41959 -5.83344,23.54881c0.07609,0.49102 -6.7323,5.0694 -6.7323,5.0694c0,0 -58.66801,1.78744 -60.62383,1.1675c-1.58012,-0.50086 -1.90723,-1.47335 -1.90723,-1.47335l-3.94789,0.0406z" fill="#ffffff" stroke="none" stroke-width="0"></path><path d="M237.98066,148.10506c-3.20078,-1.01882 0,-3.86362 0,-3.86362h53.21589v3.86362c0,0 -51.57066,0.52368 -53.21589,0z" fill="#ffffff" stroke="none" stroke-width="0"></path><path d="M244.39573,155.57715l3.35334,-7.43564l22.89012,0.2916c0,0 -0.46656,3.0253 -1.40475,3.9938c-0.91431,0.94386 -3.26074,2.56706 -3.26074,2.56706z" fill="#131313" stroke="none" stroke-width="0"></path><path d="M238.41806,144.20499v-5.83188c0,0 2.05165,-2.47855 4.22811,-2.47855c1.68689,0 4.70465,1.00445 9.03091,1.20446c14.58842,0.67446 37.47833,0.3993 37.47833,0.3993c0,0 2.68748,0.82909 3.08646,3.28876c0.3727,2.29775 -1.0453,3.4179 -1.0453,3.4179z" fill="#4b4b4b" stroke="none" stroke-width="0"></path><path d="M262.91194,172.92699c0,0 9.06305,-0.0207 10.49738,1.31217c1.69885,1.57869 0.1458,12.10115 0.1458,12.10115c0,0 -1.15757,0.70085 -2.87288,0.22298c-1.72083,-0.4794 -4.00207,-2.14042 -5.65211,-3.95074c-2.85084,-3.12779 -2.11818,-9.68557 -2.11818,-9.68557z" fill="#e4e4e4" stroke="none" stroke-width="0"></path><path d="M305.77625,114.5353c0,1.57017 -1.59926,2.84304 -3.57203,2.84304c-1.97278,0 -3.57203,-1.27287 -3.57203,-2.84304c0,-1.57017 1.59925,-2.84304 3.57203,-2.84304c1.97278,0 3.57203,1.27286 3.57203,2.84304z" fill="#000000" stroke="none" stroke-width="0"></path><path d="M309.56697,130.86456c0,-1.65069 1.33814,-2.98884 2.98883,-2.98884c1.65069,0 2.98884,1.33815 2.98884,2.98884c0,1.65069 -1.33815,2.98883 -2.98884,2.98883c-1.65069,0 -2.98883,-1.33814 -2.98883,-2.98883z" fill="#232323" stroke="none" stroke-width="0"></path></g><path d="M256.44509,109.11176l11.25538,16.57568c0,0 10.92781,3.73899 4.55049,7.62661c-2.86356,1.74565 -6.55784,2.97572 -8.64432,2.56361c-1.0263,-0.2027 -0.35462,-1.35888 -2.7774,-2.08097c-3.62115,-1.07925 -7.8267,-6.26052 -10.76733,-8.83263c-8.90799,-7.79167 6.38316,-15.8523 6.38316,-15.8523z" fill="#333333" stroke="#000000" stroke-width="0.25"></path><path d="M234.39647,117.28131l7.81777,5.84829l-14.16852,11.21946l-4.1146,-3.07805z" fill="#636363" stroke="#000000" stroke-width="0.25"></path><path d="M255.73137,109.88052c0,0 3.18663,-5.63021 8.09549,-11.6618c2.79974,-3.44007 6.07254,-7.82752 9.85297,-9.32179c10.40876,-4.11424 8.78541,-1.29546 10.87988,5.58241c1.33773,4.39285 -3.55595,7.54389 -8.37466,14.37626c-3.77014,5.34564 -7.86159,11.69811 -9.15577,14.5788c-1.27588,2.83991 -11.2979,-13.55384 -11.2979,-13.55384z" fill="#afafaf" stroke="#000000" stroke-width="0.25"></path><path d="M283.60775,99.85412l2.28408,6.58446l10.48537,4.08251l0.88065,3.37805l-15.22601,1.26726l-6.33151,-12.56827z" fill="#d89856" stroke="#000000" stroke-width="0.25"></path><path d="M275.5731,103.4182c0,0 -3.87241,-6.91871 -1.66171,-10.50297c1.21033,-1.96235 3.35024,-1.72169 4.75886,-1.62659c1.16425,0.07862 2.58668,1.01355 3.76583,2.02904c2.6058,2.24411 2.00697,8.62262 2.00697,8.62262z" fill="#afafaf" stroke="#000000" stroke-width="0.25"></path><path d="M296.11172,114.33725l0.10158,-3.98834l6.074,-2.00823l3.59913,1.81521l1.06267,3.7051c0,0 -3.06937,-2.18809 -4.49676,-2.16736c-1.32243,0.01919 -3.29884,0.89224 -4.69138,1.73289c-0.96231,0.5809 -1.64923,0.91075 -1.64923,0.91075z" fill="#383838" stroke="#000000" stroke-width="0.25"></path><path d="M277.8031,180.98558l0.62665,-9.74307l17.13813,5.73652l-0.32982,5.12792z" fill="#636363" stroke="#000000" stroke-width="0.25"></path><path d="M278.12005,140.51003c3.31059,14.73259 6.90296,30.58438 7.58169,33.21444c0.19071,0.73898 -7.14168,-2.20312 -7.14168,-2.20312l-10.02343,-27.14917c0,0 2.90998,-2.32773 5.53075,-3.708c1.95193,-1.02802 3.74341,-1.53046 4.05269,-0.15415z" fill="#d89856" stroke="#000000" stroke-width="0.25"></path><path d="M255.83372,109.34194c0,0 13.70982,9.22604 12.18287,16.11114c-0.66079,2.97949 13.02925,12.64033 11.62759,19.97648c-1.40165,7.33615 -11.08017,0.51028 -11.08017,0.51028c0,0 -15.13371,-18.68832 -17.90297,-25.3009c-1.9466,-4.6482 5.17268,-11.297 5.17268,-11.297z" fill="#333333" stroke="#000000" stroke-width="0.25"></path></g></g></svg>