<svg version="1.1" xmlns="http://www.w3.org/2000/svg" xmlns:xlink="http://www.w3.org/1999/xlink" width="61.71019" height="94.67467" viewBox="0,0,61.71019,94.67467"><defs><radialGradient cx="251.23601" cy="174.98039" r="7.00283" gradientUnits="userSpaceOnUse" id="color-1"><stop offset="0" stop-color="#ffffff"></stop><stop offset="1" stop-color="#e0e0e0"></stop></radialGradient><radialGradient cx="250.93759" cy="173.25796" r="7.00282" gradientUnits="userSpaceOnUse" id="color-2"><stop offset="0" stop-color="#ffffff"></stop><stop offset="1" stop-color="#e0e0e0"></stop></radialGradient><radialGradient cx="251.75347" cy="174.37991" r="7.00283" gradientUnits="userSpaceOnUse" id="color-3"><stop offset="0" stop-color="#ffffff"></stop><stop offset="1" stop-color="#e0e0e0"></stop></radialGradient><radialGradient cx="250.29483" cy="173.41652" r="7.00282" gradientUnits="userSpaceOnUse" id="color-4"><stop offset="0" stop-color="#ffffff"></stop><stop offset="1" stop-color="#e0e0e0"></stop></radialGradient><radialGradient cx="252.21545" cy="183.52531" r="7.00283" gradientUnits="userSpaceOnUse" id="color-5"><stop offset="0" stop-color="#ffffff"></stop><stop offset="1" stop-color="#e0e0e0"></stop></radialGradient><radialGradient cx="253.07686" cy="182.00422" r="7.00283" gradientUnits="userSpaceOnUse" id="color-6"><stop offset="0" stop-color="#ffffff"></stop><stop offset="1" stop-color="#e0e0e0"></stop></radialGradient><radialGradient cx="252.99632" cy="183.38911" r="7.00283" gradientUnits="userSpaceOnUse" id="color-7"><stop offset="0" stop-color="#ffffff"></stop><stop offset="1" stop-color="#e0e0e0"></stop></radialGradient><radialGradient cx="252.4793" cy="181.71927" r="7.00282" gradientUnits="userSpaceOnUse" id="color-8"><stop offset="0" stop-color="#ffffff"></stop><stop offset="1" stop-color="#e0e0e0"></stop></radialGradient><radialGradient cx="246.76239" cy="190.54976" r="7.00283" gradientUnits="userSpaceOnUse" id="color-9"><stop offset="0" stop-color="#ffffff"></stop><stop offset="1" stop-color="#e0e0e0"></stop></radialGradient><radialGradient cx="248.45129" cy="190.09885" r="7.00283" gradientUnits="userSpaceOnUse" id="color-10"><stop offset="0" stop-color="#ffffff"></stop><stop offset="1" stop-color="#e0e0e0"></stop></radialGradient><radialGradient cx="247.40661" cy="191.01156" r="7.00283" gradientUnits="userSpaceOnUse" id="color-11"><stop offset="0" stop-color="#ffffff"></stop><stop offset="1" stop-color="#e0e0e0"></stop></radialGradient><radialGradient cx="248.23601" cy="189.4728" r="7.00282" gradientUnits="userSpaceOnUse" id="color-12"><stop offset="0" stop-color="#ffffff"></stop><stop offset="1" stop-color="#e0e0e0"></stop></radialGradient><radialGradient cx="238.52116" cy="192.19798" r="7.00283" gradientUnits="userSpaceOnUse" id="color-13"><stop offset="0" stop-color="#ffffff"></stop><stop offset="1" stop-color="#e0e0e0"></stop></radialGradient><radialGradient cx="240.17407" cy="192.76685" r="7.00284" gradientUnits="userSpaceOnUse" id="color-14"><stop offset="0" stop-color="#ffffff"></stop><stop offset="1" stop-color="#e0e0e0"></stop></radialGradient><radialGradient cx="238.7978" cy="192.9408" r="7.00283" gradientUnits="userSpaceOnUse" id="color-15"><stop offset="0" stop-color="#ffffff"></stop><stop offset="1" stop-color="#e0e0e0"></stop></radialGradient><radialGradient cx="240.34501" cy="192.12728" r="7.00283" gradientUnits="userSpaceOnUse" id="color-16"><stop offset="0" stop-color="#ffffff"></stop><stop offset="1" stop-color="#e0e0e0"></stop></radialGradient><radialGradient cx="230.81461" cy="188.1863" r="7.00283" gradientUnits="userSpaceOnUse" id="color-17"><stop offset="0" stop-color="#ffffff"></stop><stop offset="1" stop-color="#e0e0e0"></stop></radialGradient><radialGradient cx="231.75297" cy="189.66117" r="7.00283" gradientUnits="userSpaceOnUse" id="color-18"><stop offset="0" stop-color="#ffffff"></stop><stop offset="1" stop-color="#e0e0e0"></stop></radialGradient><radialGradient cx="230.56814" cy="188.93967" r="7.00283" gradientUnits="userSpaceOnUse" id="color-19"><stop offset="0" stop-color="#ffffff"></stop><stop offset="1" stop-color="#e0e0e0"></stop></radialGradient><radialGradient cx="232.28519" cy="189.26744" r="7.00284" gradientUnits="userSpaceOnUse" id="color-20"><stop offset="0" stop-color="#ffffff"></stop><stop offset="1" stop-color="#e0e0e0"></stop></radialGradient><radialGradient cx="227.86289" cy="180.85595" r="7.00283" gradientUnits="userSpaceOnUse" id="color-21"><stop offset="0" stop-color="#ffffff"></stop><stop offset="1" stop-color="#e0e0e0"></stop></radialGradient><radialGradient cx="227.58595" cy="182.58196" r="7.00283" gradientUnits="userSpaceOnUse" id="color-22"><stop offset="0" stop-color="#ffffff"></stop><stop offset="1" stop-color="#e0e0e0"></stop></radialGradient><radialGradient cx="227.17851" cy="181.25591" r="7.00283" gradientUnits="userSpaceOnUse" id="color-23"><stop offset="0" stop-color="#ffffff"></stop><stop offset="1" stop-color="#e0e0e0"></stop></radialGradient><radialGradient cx="228.24535" cy="182.64066" r="7.00283" gradientUnits="userSpaceOnUse" id="color-24"><stop offset="0" stop-color="#ffffff"></stop><stop offset="1" stop-color="#e0e0e0"></stop></radialGradient><radialGradient cx="229.81765" cy="172.47672" r="7.00282" gradientUnits="userSpaceOnUse" id="color-25"><stop offset="0" stop-color="#ffffff"></stop><stop offset="1" stop-color="#e0e0e0"></stop></radialGradient><radialGradient cx="228.52441" cy="173.65285" r="7.00283" gradientUnits="userSpaceOnUse" id="color-26"><stop offset="0" stop-color="#ffffff"></stop><stop offset="1" stop-color="#e0e0e0"></stop></radialGradient><radialGradient cx="229.03326" cy="172.3623" r="7.00283" gradientUnits="userSpaceOnUse" id="color-27"><stop offset="0" stop-color="#ffffff"></stop><stop offset="1" stop-color="#e0e0e0"></stop></radialGradient><radialGradient cx="229.00313" cy="174.11012" r="7.00283" gradientUnits="userSpaceOnUse" id="color-28"><stop offset="0" stop-color="#ffffff"></stop><stop offset="1" stop-color="#e0e0e0"></stop></radialGradient><radialGradient cx="237.24384" cy="167.85012" r="7.00282" gradientUnits="userSpaceOnUse" id="color-29"><stop offset="0" stop-color="#ffffff"></stop><stop offset="1" stop-color="#e0e0e0"></stop></radialGradient><radialGradient cx="235.49623" cy="167.80999" r="7.00283" gradientUnits="userSpaceOnUse" id="color-30"><stop offset="0" stop-color="#ffffff"></stop><stop offset="1" stop-color="#e0e0e0"></stop></radialGradient><radialGradient cx="236.75472" cy="167.22635" r="7.00283" gradientUnits="userSpaceOnUse" id="color-31"><stop offset="0" stop-color="#ffffff"></stop><stop offset="1" stop-color="#e0e0e0"></stop></radialGradient><radialGradient cx="235.52756" cy="168.47125" r="7.00283" gradientUnits="userSpaceOnUse" id="color-32"><stop offset="0" stop-color="#ffffff"></stop><stop offset="1" stop-color="#e0e0e0"></stop></radialGradient><radialGradient cx="245.73556" cy="169.17863" r="7.00282" gradientUnits="userSpaceOnUse" id="color-33"><stop offset="0" stop-color="#ffffff"></stop><stop offset="1" stop-color="#e0e0e0"></stop></radialGradient><radialGradient cx="244.33505" cy="168.13251" r="7.00283" gradientUnits="userSpaceOnUse" id="color-34"><stop offset="0" stop-color="#ffffff"></stop><stop offset="1" stop-color="#e0e0e0"></stop></radialGradient><radialGradient cx="245.69878" cy="168.38682" r="7.00283" gradientUnits="userSpaceOnUse" id="color-35"><stop offset="0" stop-color="#ffffff"></stop><stop offset="1" stop-color="#e0e0e0"></stop></radialGradient><radialGradient cx="243.9771" cy="168.68941" r="7.00283" gradientUnits="userSpaceOnUse" id="color-36"><stop offset="0" stop-color="#ffffff"></stop><stop offset="1" stop-color="#e0e0e0"></stop></radialGradient><radialGradient cx="240.00001" cy="179.99999" r="4.34571" gradientUnits="userSpaceOnUse" id="color-37"><stop offset="0" stop-color="#a2a2a2"></stop><stop offset="1" stop-color="#c3c3c3"></stop></radialGradient><radialGradient cx="240.00001" cy="179.99999" r="23.08214" gradientUnits="userSpaceOnUse" id="color-38"><stop offset="0" stop-color="#ffffff"></stop><stop offset="1" stop-color="#c4c4c4"></stop></radialGradient></defs><g transform="translate(-209.14491,-132.66266)"><g data-paper-data="{&quot;isPaintingLayer&quot;:true}" fill="none" fill-rule="nonzero" stroke-linejoin="miter" stroke-miterlimit="10" stroke-dasharray="" stroke-dashoffset="0" style="mix-blend-mode: normal"><g stroke-width="0.4" stroke-linecap="round"><g><path d="M261.00478,175.51472l-17.079,-0.81955" stroke="url(#color-1)"></path><path d="M243.7132,174.41079l16.90848,-2.54306" stroke="url(#color-2)"></path><path d="M246.53485,179.50698l12.30393,-11.87337" stroke="url(#color-3)"></path><path d="M246.18206,179.46678l9.73875,-14.0542" stroke="url(#color-4)"></path></g><g><path d="M259.4304,190.13279l-12.68681,-11.46335" stroke="url(#color-5)"></path><path d="M261.44672,187.0698l-14.68716,-8.75507" stroke="url(#color-6)"></path><path d="M262.75288,182.66519l-17.04294,1.37937" stroke="url(#color-7)"></path><path d="M261.90485,179.09751l-16.44221,4.69228" stroke="url(#color-8)"></path></g><g><path d="M246.39415,183.24325l0.70768,17.084" stroke="url(#color-9)"></path><path d="M246.65844,183.00612l4.04164,16.61413" stroke="url(#color-10)"></path><path d="M254.75824,197.46666l-12.92388,-11.19542" stroke="url(#color-11)"></path><path d="M241.8429,185.91629l14.86712,8.44586" stroke="url(#color-12)"></path></g><g><path d="M233.34381,200.49915l8.9512,-14.56845" stroke="url(#color-13)"></path><path d="M242.64669,185.88157l-5.92292,16.04005" stroke="url(#color-14)"></path><path d="M236.82153,185.89702l4.47139,16.50366" stroke="url(#color-15)"></path><path d="M244.64547,200.91481l-7.61867,-15.3075" stroke="url(#color-16)"></path></g><g><path d="M237.67146,185.63591l-16.07873,5.81708" stroke="url(#color-17)"></path><path d="M237.97711,185.81657l-14.62714,8.85502" stroke="url(#color-18)"></path><path d="M226.62522,197.89331l6.78617,-15.69432" stroke="url(#color-19)"></path><path d="M230.17324,198.82015l3.57923,-16.71985" stroke="url(#color-20)"></path></g><g><path d="M218.79676,177.17902l15.88777,6.32001" stroke="url(#color-21)"></path><path d="M234.79326,183.83706l-16.81821,-3.08419" stroke="url(#color-22)"></path><path d="M218.28675,185.33647l15.49225,-7.23562" stroke="url(#color-23)"></path><path d="M220.32557,188.38451l13.77405,-10.13112" stroke="url(#color-24)"></path></g><g><path d="M225.0261,163.947l8.47393,14.85115" stroke="url(#color-25)"></path><path d="M222.15433,166.22744l11.2198,12.90272" stroke="url(#color-26)"></path><path d="M219.53835,170.00411l16.62172,4.01026" stroke="url(#color-27)"></path><path d="M236.3155,174.33362l-17.08531,-0.67541" stroke="url(#color-28)"></path></g><g><path d="M239.65631,158.36884l-4.10529,16.59852" stroke="url(#color-29)"></path><path d="M236.00403,158.03977l-0.77313,17.08115" stroke="url(#color-30)"></path><path d="M240.77637,173.33758l-9.27123,-14.3669" stroke="url(#color-31)"></path><path d="M228.762,161.40428l11.90676,12.27164" stroke="url(#color-32)"></path></g><g><path d="M240.22917,173.99533l12.96995,-11.142" stroke="url(#color-33)"></path><path d="M250.41446,160.46729l-10.53517,13.46752" stroke="url(#color-34)"></path><path d="M246.20943,158.61678l-0.77812,17.08094" stroke="url(#color-35)"></path><path d="M242.56337,159.00868l2.58404,16.90228" stroke="url(#color-36)"></path></g></g><path d="M235.65429,179.99999c0,-2.40007 1.94565,-4.34571 4.34572,-4.34571c2.40007,0 4.34571,1.94564 4.34571,4.34571c0,2.40007 -1.94564,4.34572 -4.34571,4.34572c-2.40007,0 -4.34572,-1.94565 -4.34572,-4.34572z" stroke="url(#color-37)" stroke-width="7" stroke-linecap="butt"></path><path d="M216.91786,179.99999c0,-12.74791 10.33423,-23.08214 23.08214,-23.08214c12.74791,0 23.08214,10.33422 23.08214,23.08214c0,12.74791 -10.33422,23.08214 -23.08214,23.08214c-12.74791,0 -23.08214,-10.33422 -23.08214,-23.08214z" stroke="url(#color-38)" stroke-width="8" stroke-linecap="butt"></path><path d="M212.79688,227.33734v-19.69545h51.96869v19.69545z" stroke="none" stroke-width="NaN" stroke-linecap="butt"></path><path d="M215.23444,152.35812v-19.69545h51.96869v19.69546z" stroke="none" stroke-width="NaN" stroke-linecap="butt"></path><path d="M266.35509,180c0,14.38196 -11.79958,26.04084 -26.35509,26.04084c-14.55551,0 -26.35509,-11.65888 -26.35509,-26.04084c0,-14.38196 11.79959,-26.04084 26.35509,-26.04084c14.55551,0 26.35509,11.65888 26.35509,26.04084z" stroke="#141413" stroke-width="9" stroke-linecap="butt"></path></g></g></svg>