<svg version="1.1" xmlns="http://www.w3.org/2000/svg" xmlns:xlink="http://www.w3.org/1999/xlink" width="208.86225" height="136.22027" viewBox="0,0,208.86225,136.22027"><g transform="translate(-203.20099,-73.24052)"><g data-paper-data="{&quot;isPaintingLayer&quot;:true}" fill-rule="nonzero" stroke-linecap="butt" stroke-linejoin="miter" stroke-miterlimit="10" stroke-dasharray="" stroke-dashoffset="0" style="mix-blend-mode: normal"><path d="M292.84866,126.57274c-14.07972,-5.45625 -29.24591,-11.30187 -31.80828,-12.20305c-0.71996,-0.25321 5.80754,-4.70425 5.80754,-4.70425l28.13093,6.79688c0,0 4.51754,0.83293 4.20417,3.77832c-0.23339,2.19372 -5.01904,6.84183 -6.33437,6.33211z" fill="#d89856" stroke="#000000" stroke-width="0.25"></path><path d="M281.47659,95.49447l11.25538,16.57568c0,0 10.92781,3.73899 4.55049,7.62661c-2.86356,1.74565 -6.55784,2.97572 -8.64432,2.56361c-1.0263,-0.2027 -0.35462,-1.35888 -2.7774,-2.08097c-3.62115,-1.07925 -7.8267,-6.26052 -10.76733,-8.83263c-8.90799,-7.79167 6.38316,-15.8523 6.38316,-15.8523z" fill="#333333" stroke="#000000" stroke-width="0.25"></path><path d="M343.78943,107.50122v-9.59507l4.17177,0.41716v9.17788z" fill="#000000" stroke="none" stroke-width="0"></path><path d="M262.44004,130.44591l-4.58894,-10.01223c0,0 47.28462,-2.83631 50.98786,-4.04159c14.20427,-4.62301 22.85237,-10.97678 22.85237,-10.97678l-5.42329,25.03059z" fill="#313131" stroke="none" stroke-width="0"></path><path d="M348.98254,151.9089l-1.25155,-23.36188c0,0 19.59605,-4.42258 29.46891,-2.931c9.43658,1.42566 26.84989,10.85733 26.84989,10.85733c0,0 3.94974,3.671 5.01255,9.44679c1.49867,8.14451 -0.42361,5.98876 -0.42361,5.98876c0,0 -11.73651,-5.14436 -26.47688,-6.91722c-18.68551,-2.24735 -33.17935,6.91722 -33.17935,6.91722z" fill="#313131" stroke="none" stroke-width="0"></path><path d="M219.47088,142.12685c-5.14304,-4.04226 -1.66871,-20.02446 -1.66871,-20.02446l49.22683,11.26375l4.58894,15.85272c0,0 -44.2699,-0.9008 -52.14703,-7.092z" fill="#313131" stroke="none" stroke-width="0"></path><path d="M279.23899,177.20891v-39.63176h61.7421c0,0 6.50468,11.14972 6.50468,17.20758c0,7.01252 -6.50468,22.42418 -6.50468,22.42418z" fill="#313131" stroke="none" stroke-width="0"></path><path d="M307.49509,160.4826c-0.13203,-9.87649 7.03842,-9.81794 13.24441,-10.52227c7.68875,-0.87262 16.52442,0.9272 16.52442,0.9272l-0.1493,17.93859c0,0 -11.58438,1.39187 -18.78776,-0.3561c-4.97166,-1.20642 -10.73607,-0.83067 -10.83177,-7.98745z" fill="#747474" stroke="none" stroke-width="0"></path><path d="M299.98592,180.0899v-5.84046c0,0 24.85572,0.72591 33.16481,-2.19767c5.21276,-1.83412 10.22154,-15.74095 10.22154,-15.74095l8.76068,0.83435c0,0 -2.17752,20.85382 -7.16451,22.48103c-8.80855,2.87415 -44.98255,0.46369 -44.98255,0.46369z" fill="#272727" stroke="none" stroke-width="0"></path><path d="M279.12708,153.80779v-11.68094l52.56422,-10.84659c0,0 16.26988,-0.03433 16.26988,1.25152c0,0.77508 2.27057,20.84031 -1.25919,22.51134c-2.37477,1.12426 -2.68352,-8.7469 -5.98413,-12.79284c-2.9382,-3.60168 -11.11243,-0.12344 -11.11243,-0.12344c0,0 -25.37704,17.5214 -34.20847,17.5214c-4.57889,0 -16.26988,-5.84046 -16.26988,-5.84046z" fill="#1f1f1f" stroke="none" stroke-width="0"></path><path d="M218.43021,180.07209c0,-11.67457 9.46413,-21.1387 21.1387,-21.1387c11.67457,0 21.1387,9.46413 21.1387,21.1387c0,11.67457 -9.46413,21.1387 -21.1387,21.1387c-11.67457,0 -21.1387,-9.46413 -21.1387,-21.1387z" fill="none" stroke="#000000" stroke-width="16.5"></path><path d="M277.4584,153.80779l-4.17175,-25.86495l17.93856,1.66871l10.84659,18.77294z" fill="#000000" stroke="none" stroke-width="0"></path><path d="M203.201,115.17258c0,0 26.48921,-0.60403 35.02145,-0.47825c6.46835,0.09536 10.8873,3.16244 10.8873,3.16244l15.83335,0.65323c0,0 7.67611,7.5114 12.22363,15.19906c3.28367,5.55111 3.21973,20.12013 3.21973,20.12013l-9.83379,-0.05001c0,0 -1.6125,-7.89323 -3.42709,-12.7596c-1.5395,-4.6723 -8.44017,-9.06722 -8.44017,-9.06722l-34.20844,-6.67481l-20.44779,-6.49961l-0.82819,-3.60533z" fill="#ff0000" stroke="none" stroke-width="0"></path><path d="M300.78553,149.29551c0,0 -6.15132,-3.48575 -7.84819,-6.09087c-2.19742,-3.37362 -4.2272,-12.44804 -4.2272,-12.44804c0,0 29.83852,-3.16409 37.46096,-7.87925c4.31731,-2.67065 2.63468,-8.77796 2.63468,-8.77796c0,0 -1.22626,-9.54182 10.39998,-8.79323c18.10196,1.16559 18.06705,0.92893 27.13137,7.45095c3.88555,2.79573 -3.75947,-0.12877 9.8332,6.23326c7.16227,3.35227 16.01623,3.61733 21.21366,6.43955c3.76083,2.04211 12.5201,14.74074 12.6845,16.32837c0.12664,1.15789 -13.31552,-9.02265 -23.20426,-11.9167c-11.97696,-3.5052 -21.27358,0.17211 -27.58651,2.4213c-7.04372,2.50957 -7.00328,25.65017 -7.00328,25.65017c0,0 -7.0253,-0.66247 -8.96756,-0.66641c-1.01977,-0.00207 2.19496,-20.74777 -0.3549,-22.38456c-5.51346,-3.53911 -10.41435,-2.22379 -10.41435,-2.22379z" fill="#ff0000" stroke="none" stroke-width="0"></path><path d="M271.61791,178.00402c-3.09309,-2.37614 -0.83435,-25.86495 -0.83435,-25.86495h10.01223c0,0 -0.81077,15.76799 2.65393,19.58626c3.34495,3.68627 18.62205,2.52411 18.62205,2.52411l-1.66871,5.84046c0,0 -24.52778,1.18471 -28.78518,-2.08587z" fill="#141414" stroke="none" stroke-width="0"></path><path d="M337.11462,160.06544c0,5.52959 -4.6694,10.01223 -10.42939,10.01223c-5.76,0 -10.42939,-4.48261 -10.42939,-10.01223c0,-5.52959 4.6694,-10.01226 10.42939,-10.01226c5.76,0 10.42939,4.48264 10.42939,10.01226z" fill="#8d8d8d" stroke="none" stroke-width="0"></path><path d="M351.2986,95.61169c0,2.88001 -2.4281,5.21471 -5.42329,5.21471c-2.99519,0 -5.42329,-2.3347 -5.42329,-5.21471c0,-2.88001 2.4281,-5.21471 5.42329,-5.21471c2.99519,0 5.42329,2.3347 5.42329,5.21471z" fill="#000000" stroke="none" stroke-width="0"></path><path d="M360.6917,123.853l-2.54046,-6.16971c0,0 44.26334,-6.24007 52.62408,2.54046c3.38483,3.55479 -0.68195,20.12454 -3.26631,21.04962c-1.38165,0.49458 -6.08655,-3.87339 -6.08655,-3.87339c0,0 5.07088,-11.0164 -0.7359,-13.1037c-15.16504,-5.45126 -39.99484,-0.44329 -39.99484,-0.44329z" fill="#000000" stroke="none" stroke-width="0"></path><path d="M259.42797,103.66402l7.81777,5.84829l-14.16852,11.21946l-4.1146,-3.07805z" fill="#636363" stroke="#000000" stroke-width="0.25"></path><path d="M280.76287,96.26323c0,0 3.18663,-5.63021 8.09549,-11.6618c2.79974,-3.44007 6.07254,-7.82752 9.85297,-9.32179c10.40876,-4.11424 8.78541,-1.29546 10.87988,5.58241c1.33773,4.39285 -3.55595,7.54389 -8.37466,14.37626c-3.77014,5.34564 -7.86159,11.69811 -9.15577,14.5788c-1.27588,2.83991 -11.2979,-13.55384 -11.2979,-13.55384z" fill="#afafaf" stroke="#000000" stroke-width="0.25"></path><path d="M311.7898,81.18163l14.51064,8.48928l12.36721,0.27452l1.41031,3.1934c0,0 -9.9118,3.69908 -14.64747,2.88767c-5.73822,-0.98319 -17.35532,-8.37103 -17.35532,-8.37103z" fill="#d89856" stroke="#000000" stroke-width="0.25"></path><path d="M308.62847,89.39573c0,0 -7.59554,-2.27414 -8.50206,-6.3866c-0.49631,-2.25153 1.20798,-3.56779 2.28579,-4.4797c0.89084,-0.7537 2.56298,-1.07208 4.11645,-1.16331c3.43301,-0.20164 7.44154,4.79594 7.44154,4.79594z" fill="#afafaf" stroke="#000000" stroke-width="0.25"></path><path d="M339.04123,93.90544l-0.53851,-3.95312l5.67395,-2.95513l3.8434,1.21534l1.64237,3.48707c0,0 -3.3802,-1.66825 -4.78584,-1.41918c-1.30229,0.23075 -3.11335,1.40907 -4.35328,2.46189c-0.85685,0.72753 -1.48207,1.16314 -1.48207,1.16314z" fill="#383838" stroke="#000000" stroke-width="0.25"></path><path d="M302.83459,167.55803l0.62665,-9.74307l17.13813,5.73652l-0.32982,5.12792z" fill="#636363" stroke="#000000" stroke-width="0.25"></path><path d="M303.15156,126.89274c3.31059,14.73259 6.90296,30.58438 7.58169,33.21444c0.19071,0.73898 -7.14168,-2.20312 -7.14168,-2.20312l-10.02343,-27.14917c0,0 2.90998,-2.32773 5.53075,-3.708c1.95193,-1.02802 3.74341,-1.53046 4.05269,-0.15415z" fill="#d89856" stroke="#000000" stroke-width="0.25"></path><path d="M280.25496,95.57209c0,0 14.32008,9.37861 12.79313,16.26371c-0.66079,2.97949 12.26642,13.70829 10.86476,21.04444c-1.40165,7.33615 -10.31734,-0.55768 -10.31734,-0.55768c0,0 -15.13371,-18.68832 -17.90297,-25.3009c-1.9466,-4.6482 4.56242,-11.44957 4.56242,-11.44957z" fill="#333333" stroke="#000000" stroke-width="0.25"></path></g></g></svg>