<svg version="1.1" xmlns="http://www.w3.org/2000/svg" xmlns:xlink="http://www.w3.org/1999/xlink" width="25.95012" height="59.1069" viewBox="0,0,25.95012,59.1069"><g transform="translate(-222.74665,-177.09758)"><g data-paper-data="{&quot;isPaintingLayer&quot;:true}" fill-rule="nonzero" stroke="#000000" stroke-width="0.25" stroke-linecap="butt" stroke-linejoin="miter" stroke-miterlimit="10" stroke-dasharray="" stroke-dashoffset="0" style="mix-blend-mode: normal"><path d="M248.05138,197.36307c-7.59944,13.04828 -15.754,27.10842 -17.04638,29.4975c-0.36312,0.67127 -3.73396,-6.47417 -3.73396,-6.47417l11.12983,-26.71467c0,0 11.31365,0.83577 9.65051,3.69136z" fill="#d89856"></path><path d="M222.91858,226.89239l5.10774,-8.32053l12.4699,13.08146l-2.68827,4.37923z" fill="#636363"></path><path d="M229.422,178.16691c0,0 10.49449,-2.13468 16.38428,0.01496c1.71937,0.62753 3.24164,12.34864 2.62614,18.88578c-0.0196,3.98225 -8.53993,1.26184 -10.65646,-0.17576c-1.22397,-1.46902 -3.60337,-4.14608 -6.92491,-9.1317c-2.37288,-3.56169 -1.42907,-9.59326 -1.42907,-9.59326z" fill="#333333"></path></g></g></svg>