<svg version="1.1" xmlns="http://www.w3.org/2000/svg" xmlns:xlink="http://www.w3.org/1999/xlink" width="143.47438" height="94.10915" viewBox="0,0,143.47438,94.10915"><defs><radialGradient cx="287.42501" cy="162.29107" r="5.94444" gradientUnits="userSpaceOnUse" id="color-1"><stop offset="0" stop-color="#919191"></stop><stop offset="1" stop-color="#acacac"></stop></radialGradient><radialGradient cx="320.37735" cy="129.00767" r="5.23077" gradientUnits="userSpaceOnUse" id="color-2"><stop offset="0" stop-color="#101010"></stop><stop offset="1" stop-color="#101010"></stop></radialGradient><radialGradient cx="320.53612" cy="109.79107" r="6.77778" gradientUnits="userSpaceOnUse" id="color-3"><stop offset="0" stop-color="#2b2b2b"></stop><stop offset="1" stop-color="#1d1d1d"></stop></radialGradient><radialGradient cx="333.45428" cy="136.19995" r="19.80769" gradientUnits="userSpaceOnUse" id="color-4"><stop offset="0" stop-color="#a5963d"></stop><stop offset="1" stop-color="#867423"></stop></radialGradient><linearGradient x1="323.26406" y1="117.36998" x2="327.81566" y2="115.78772" gradientUnits="userSpaceOnUse" id="color-5"><stop offset="0" stop-color="#9e9e9e"></stop><stop offset="1" stop-color="#b2b2b2"></stop></linearGradient><linearGradient x1="330.7256" y1="134.98537" x2="335.2772" y2="133.40311" gradientUnits="userSpaceOnUse" id="color-6"><stop offset="0" stop-color="#9e9e9e"></stop><stop offset="1" stop-color="#b2b2b2"></stop></linearGradient><linearGradient x1="288.62388" y1="153.95" x2="300.05245" y2="153.95" gradientUnits="userSpaceOnUse" id="color-7"><stop offset="0" stop-color="#000000"></stop><stop offset="1" stop-color="#090909"></stop></linearGradient><radialGradient cx="255.86253" cy="176.33336" r="8.33333" gradientUnits="userSpaceOnUse" id="color-8"><stop offset="0" stop-color="#626262"></stop><stop offset="1" stop-color="#8e8e8e"></stop></radialGradient><radialGradient cx="285.19743" cy="156.87272" r="4.56818" gradientUnits="userSpaceOnUse" id="color-9"><stop offset="0" stop-color="#101010"></stop><stop offset="1" stop-color="#101010"></stop></radialGradient><radialGradient cx="291.74288" cy="148.03179" r="10.68182" gradientUnits="userSpaceOnUse" id="color-10"><stop offset="0" stop-color="#101010"></stop><stop offset="1" stop-color="#101010"></stop></radialGradient></defs><g transform="translate(-228.94015,-89.16738)"><g data-paper-data="{&quot;isPaintingLayer&quot;:true}" fill-rule="nonzero" stroke-linejoin="miter" stroke-miterlimit="10" stroke-dasharray="" stroke-dashoffset="0" style="mix-blend-mode: normal"><path d="M281.98056,168.23551v-11.88889h10.88889v11.88889z" fill="url(#color-1)" stroke="#000000" stroke-width="0.25" stroke-linecap="butt"></path><path d="M303.45428,129.62303c0,0 7.36788,-4.16091 8.23077,-4.15384c0.38659,0.00316 3.61539,0.46153 3.61539,0.46153l-2.76923,2.07693z" fill="#292929" stroke="#000000" stroke-width="0.25" stroke-linecap="butt"></path><path d="M315.14659,131.7769l-4.53847,-4.15385c0,0 9.93285,-3.43431 10.30644,-3.54188c0.00841,-0.00242 -0.61983,-1.05854 -0.084,-1.2506c0.94491,-0.3387 4.16288,-1.64836 4.16288,-1.64836l5.07622,10.9793z" fill="url(#color-2)" stroke="#000000" stroke-width="0.25" stroke-linecap="butt"></path><g stroke-linecap="butt"><path d="M250.76197,126.85383c0,0 -0.45421,-1.56472 2.68811,-1.49665c8.597,0.18623 42.42402,1.3337 46.52916,0.63595c6.71287,-1.01418 11.65221,-1.44276 11.06515,-0.63579c-0.26927,0.37014 -4.28499,3.4622 -8.35597,5.41731c-5.28341,2.53739 -11.61875,3.8484 -11.61875,3.8484z" fill="#0c0c0d" stroke="none" stroke-width="0"></path><g fill="#1f1f1f" stroke="#000000" stroke-width="0.1"><path d="M261.57235,126.49295l-0.12044,-0.97239c0,0 0.32988,-0.16938 1.13365,-0.12594c0.72677,0.03927 0.98557,0.21205 0.98557,0.21205l-0.07285,1.0234z"></path><path d="M268.71783,126.52691l-0.12045,-0.97239c0,0 0.32989,-0.16938 1.13365,-0.12593c0.72677,0.03927 0.98557,0.21205 0.98557,0.21205l-0.07286,1.0234z"></path></g><path d="M265.89994,128.57982c0,0 -0.41092,-0.08667 -0.81262,-0.38467c-0.26726,-0.19826 -0.4947,-0.33495 -0.44273,-0.68332c0.1163,-0.29893 0.08203,-0.45999 1.43931,-0.38671c1.37619,0.0743 1.35838,0.35406 1.34822,0.44596c-0.00201,0.01822 -0.00071,0.15557 -0.09678,0.15973c-0.33348,0.01446 -1.16443,-0.16034 -1.46581,-0.10497c-0.10983,0.02018 -0.28006,0.12405 -0.22229,0.25115c0.08254,0.1816 0.48291,0.29844 0.48291,0.29844c0,0 0.5112,0.05659 0.50024,-0.0126c-0.00405,-0.02555 -0.35095,-0.08104 -0.35095,-0.08104l-0.01997,-0.33425c0,0 0.84286,0.11305 1.05144,0.09246c0.17616,-0.01739 0.19205,-0.29491 0.19205,-0.29491l0.90292,-0.01954c0,0 0.06124,0.71306 0.19354,0.76666c0.04091,0.01657 0.40199,0.10305 0.52741,-0.06299c0.21908,-0.29004 0.10713,-0.93344 0.10327,-0.8345c-0.00131,0.03359 1.31058,-0.02002 1.31058,-0.02002l0.02616,0.20206l3.12312,-0.04404c0,0 -0.08196,0.14575 0.02263,0.16391c0.08187,0.01422 0.67532,0.00233 1.02024,0.07133c0.228,0.04561 0.22423,0.36395 0.16652,0.38752c-0.11093,0.04531 -1.03527,-0.01342 -1.6921,-0.07167c-0.0401,-0.00356 1.48285,0.13019 1.46777,0.40027c-0.00256,0.04577 -0.69642,0.55442 -0.94272,0.58692c-0.10807,0.01426 -1.03019,0.04702 -1.33498,-0.14574c-0.19195,-0.12139 -0.25029,-0.35442 -0.242,-0.39489c0.02709,-0.1322 1.52709,0.05045 1.52709,0.05045c0,0 -1.39592,-0.0908 -1.42459,-0.18088c-0.10097,-0.31727 0.13262,-0.34951 0.13262,-0.34951l-0.30967,-0.0133l-0.76147,0.86715l-0.58264,-0.04532c0,0 0.08781,-0.85024 -0.02839,-0.82025c-0.55607,0.14353 -0.55985,0.37536 -0.60479,0.44251c-0.22844,0.34132 -1.38822,0.4857 -2.08699,0.25655c-0.44138,-0.14475 -0.57078,-0.66348 -0.57078,-0.66348l-0.09981,0.58873z" fill="#ffffff" stroke="#ed2c30" stroke-width="0.2"></path><g fill="#1f1f1f" stroke="#000000" stroke-width="0.1"><path d="M275.01679,126.71517l-0.12045,-0.97239c0,0 0.32988,-0.16938 1.13365,-0.12594c0.72677,0.03927 0.98557,0.21206 0.98557,0.21206l-0.07285,1.02339z"></path><path d="M282.16228,126.74913l-0.12045,-0.97239c0,0 0.32988,-0.16938 1.13365,-0.12593c0.72677,0.03927 0.98557,0.21205 0.98557,0.21205l-0.07286,1.0234z"></path></g><g fill="#1f1f1f" stroke="#000000" stroke-width="0.1"><path d="M288.90568,126.71517l-0.12045,-0.97239c0,0 0.32988,-0.16938 1.13365,-0.12594c0.72677,0.03927 0.98557,0.21206 0.98557,0.21206l-0.07285,1.02339z"></path><path d="M296.05117,126.74913l-0.12045,-0.97239c0,0 0.32988,-0.16938 1.13365,-0.12593c0.72677,0.03927 0.98557,0.21205 0.98557,0.21205l-0.07286,1.0234z"></path></g></g><path d="M323.64723,116.01329l-6.66667,-14.33333l3,-1.88889l6.77778,15.22222z" fill="url(#color-3)" stroke="#000000" stroke-width="0.25" stroke-linecap="butt"></path><path d="M336.00856,134.83491l-8.78424,-20.7411c0,0 1.045,-0.42296 2.13889,1.47184c1.52003,2.63297 6.13112,12.85328 6.13112,12.85328z" fill="#e6e6e6" stroke="#000000" stroke-width="0.25" stroke-linecap="butt"></path><path d="M333.83196,129.97296c0,0 13.2133,1.19543 22.49818,3.83841c9.28487,2.64298 15.72349,8.97586 15.72349,8.97586c0,0 -8.17717,-1.20732 -11.01528,-2.08779c-1.47949,-0.45899 -5.00414,-2.69721 -5.71769,-2.82733c-0.62817,-0.18565 -13.28245,-1.12549 -16.37201,-0.86833c-0.70272,0.05849 -5.59634,2.10183 -7.577,3.65819c-5.36086,4.21243 -10.61187,11.17066 -10.69479,11.25399c-4.18015,4.20064 0.08594,-4.60688 5.11801,-12.13532c3.60565,-5.39438 8.03709,-9.80767 8.03709,-9.80767z" fill="#737373" stroke="#000000" stroke-width="0.25" stroke-linecap="butt"></path><g stroke="#000000" stroke-width="0.25" stroke-linecap="butt"><path d="M339.35986,156.47717l-15.8115,-37.61678l4.69263,-1.9376l17.00914,40.93433c0,0 -3.89698,1.63707 -4.31202,1.81731c-0.42104,0.18284 -1.57826,-3.19725 -1.57826,-3.19725z" fill="url(#color-4)"></path><path d="M323.31814,118.94113c-0.76138,-0.23992 -1.27287,-1.99501 -1.0731,-2.31478c0.2314,-0.25634 4.56572,-2.34783 5.1868,-2.07148c0.54886,0.24422 1.12483,1.64748 1.09742,2.12739c-0.37809,0.93358 -4.65673,2.43356 -5.21112,2.25887z" fill="url(#color-5)"></path><path d="M330.77968,136.5565c-0.76138,-0.23992 -1.27287,-1.99502 -1.0731,-2.31478c0.2314,-0.25634 4.56572,-2.34784 5.1868,-2.07148c0.54886,0.24422 1.12483,1.64748 1.09742,2.12739c-0.37809,0.93357 -4.65673,2.43357 -5.21112,2.25887z" fill="url(#color-6)"></path></g><path d="M284.55245,160.575l4.07143,-18.35715l28.82143,-6.57143c0,0 -6.17857,22.9915 -6.63301,23.99524c-0.39252,0.86697 -5.79527,9.72153 -6.04557,9.82619c-0.24516,0.10251 -2.98849,0.56735 -4.69519,0.16649c-0.52823,-0.12407 -11.58506,-3.79791 -13.4612,-5.00638c-2.01835,-1.30007 -2.05789,-4.05297 -2.05789,-4.05297z" fill="url(#color-7)" stroke="#000000" stroke-width="0.25" stroke-linecap="butt"></path><path d="M245.19586,180.72224l-0.04096,0.02008c0,0 -7.74224,2.30523 -7.75536,2.33383c-0.23952,0.52224 -1.79546,-1.83851 -1.83997,-1.88457c-0.1227,-0.12696 0.40109,-2.17383 0.39506,-2.19805c-0.03893,-0.15634 7.31094,-2.75819 7.31094,-2.75819c0,0 21.52143,-13.0695 23.4066,-13.87617c1.25719,-0.53796 12.41258,1.6964 12.41258,1.6964l1.55556,4.44445c0,0 -11.31006,2.48306 -12.4779,2.78977c-1.298,0.34089 -22.96654,9.43245 -22.96654,9.43245z" fill="url(#color-8)" stroke="#000000" stroke-width="0.25" stroke-linecap="butt"></path><g stroke="#000000" stroke-width="0.25" stroke-linecap="butt"><path d="M280.37388,155.50357l-3.92857,-4.39285l1.17857,-0.96428l4.32143,4.39285z" fill="#171717"></path><path d="M281.05245,156.75357c0,0 -0.40414,-0.53392 -0.53182,-0.66481c-0.05396,-0.05532 -0.00636,-0.62008 -0.03961,-0.72804c-0.02272,-0.07375 0.85715,-0.82143 0.85715,-0.82143h0.96429c0,0 0.63676,0.56688 0.63257,0.64197c-0.01014,0.18162 0.21017,0.76044 0.23906,0.96228c0.02045,0.14289 -0.44306,0.64576 -0.44306,0.64576c0,0 -0.32572,2.19657 -0.35528,2.28956c-0.02257,0.07101 0.10976,1.14447 0.19795,1.33692c0.22652,0.49426 0.6582,1.04548 0.92353,1.66262c0.16619,0.38655 0.76688,1.16962 0.9339,1.54239c0.5728,1.27841 0.65706,1.95876 0.66505,1.97538c0.01946,0.04049 8.66972,3.75427 8.94997,3.85388c0.24158,0.08587 2.22349,0.62366 2.06484,1.4697c-0.1644,0.87673 -3.81172,0.82416 -4.38708,0.89772c-0.2181,0.02788 -1.44433,-0.51519 -1.71792,-0.70077c-0.07887,-0.0535 -3.25002,4.69868 -4.48593,4.5694c-0.65261,-0.06826 -3.62335,-1.58055 -3.75752,-1.84424c-0.01986,-0.03902 -1.24362,-0.68006 -1.1059,-0.93602c0.15049,-0.27971 1.26238,-0.41572 1.60577,-0.72843c0.94636,-0.86178 1.47342,-1.88787 1.40293,-1.95172c-0.09754,-0.08836 -3.16868,-1.63342 -3.42612,-1.73156c-0.26575,-0.10131 -0.33174,-1.50169 -0.46259,-1.83059c-0.16399,-0.41218 -1.42759,-2.57824 -1.34305,-2.76821c0.06351,-0.14273 1.36777,0.1242 1.36777,0.1242z" fill="#070707"></path></g><g stroke="#000000" stroke-width="0.25" stroke-linecap="butt"><path d="M288.72015,141.62273c0,0 -3.79598,18.22465 -3.7118,19.08836c0.0809,0.83006 1.99759,3.5807 1.9142,3.55918c-0.00113,-0.00029 14.5198,6.86941 15.99331,6.64597c2.75442,-0.41767 7.73459,-9.82353 8.2513,-11.07954c0.60519,-1.4711 2.58371,-10.35228 2.58914,-10.25633c0.00196,0.03456 0.77706,1.7236 0.88455,2.04452c0.07257,0.21666 -0.61415,6.57868 -1.08514,8.1334c-0.18688,0.6169 -6.29494,11.0499 -8.32099,12.34164c-0.64101,0.40869 -2.69632,0.63303 -3.76146,0.33245c-2.38117,-0.67194 -15.00195,-6.37452 -15.21898,-6.51263c-0.51952,-0.33062 -2.12218,-3.03871 -2.49423,-3.71253c-0.73726,-1.33526 -0.47807,-3.67086 -0.37987,-4.73772c0.07695,-0.83592 3.65816,-15.98314 3.65816,-15.98314z" fill="url(#color-9)"></path><path d="M286.21081,153.41682l10.08385,-12.94771l2.84394,0.08675c0,0 -0.66351,0.79162 -0.90205,1.12544c-0.00969,0.01356 11.65609,-3.39375 11.65609,-3.39375l1.29399,0.04468c0,0 -14.90429,5.82107 -15.0457,5.98164c-0.26214,0.29764 -10.58617,13.18971 -10.58617,13.18971c0,0 -0.89526,-0.54184 -0.55073,-2.42453c0.26199,-1.43166 1.20679,-1.66222 1.20679,-1.66222z" fill="url(#color-10)"></path></g><path d="M250.64873,131.93441c0,0 -3.82872,-2.00815 -8.84776,-3.79643c-5.68364,-2.02508 -12.52269,-3.58483 -12.73582,-3.88805c-0.14485,-0.20607 0.47953,-0.80941 1.02837,-0.75058c0.09036,0.00969 7.48362,1.19133 14.34623,2.38018c5.70112,0.98764 10.96222,1.9315 10.96222,1.9315z" fill="#777876" stroke="#000000" stroke-width="0.25" stroke-linecap="butt"></path><path d="M250.73102,131.96785l4.71428,-4.17857l35.60715,6.96428l-1.09177,7.14345c0,0 -11.93141,-1.98271 -12.27637,-1.97217c-0.10944,0.04867 -1.48251,0.86933 -1.64565,1.41268c-0.03447,0.11479 1.93627,8.5759 1.77586,8.97429c-0.03647,0.09059 -1.13567,0.88258 -1.39613,0.96606c-0.25911,0.08306 -4.40165,-1.38144 -4.40165,-1.38144c0,0 -6.72011,-6.21966 -10.27112,-9.20274c-3.52015,-2.95717 -11.0146,-8.72583 -11.0146,-8.72583z" fill="#777876" stroke="#000000" stroke-width="0.25" stroke-linecap="butt"></path><path d="M289.94531,141.96785l1.14286,-7.14285c0,0 19.61268,-8.306 20.92034,-8.38983c0.22289,-0.01429 6.27963,1.11721 6.87201,1.66523c0.11879,0.1099 13.70436,4.69735 13.95137,4.81294c0.11629,0.05442 0.80874,0.65219 0.80978,0.65879c0.02009,0.12742 -0.00047,1.1475 -0.13834,1.27893c-0.0937,0.08932 -7.28809,4.89548 -10.04928,7.13169c-1.69707,1.37441 -6.51925,11.12785 -7.62914,11.1899c-1.00344,0.01413 -3.22436,-3.39032 -4.15677,-6.95026c-0.0875,-0.33408 1.21556,-5.98566 1.3142,-6.34381c0.2657,-0.96472 -0.04549,-1.52101 -0.18044,-1.57877c-0.48489,-0.20755 -22.85659,3.66805 -22.85659,3.66805z" fill="#777876" stroke="#000000" stroke-width="0.25" stroke-linecap="butt"></path><path d="M314.1596,151.575l0.85781,-0.38672l0.46346,0.43552c0,0 1.35813,-0.00083 1.40523,-0.02445" fill="none" stroke="#000000" stroke-width="0.1" stroke-linecap="round"></path><path d="M315.98056,102.01329c0,-1.53413 1.24365,-2.77778 2.77778,-2.77778c1.53413,0 2.77778,1.24365 2.77778,2.77778c0,1.53413 -1.24365,2.77778 -2.77778,2.77778c-1.53413,0 -2.77778,-1.24365 -2.77778,-2.77778z" fill="#000000" stroke="#000000" stroke-width="0.25" stroke-linecap="butt"></path><path d="M257.07942,124.80281c0,0 0.75117,-13.94128 2.88961,-18.1562c0.16033,-0.31602 3.38612,-5.08834 7.91542,-9.4559c5.567,-5.3682 13.35077,-7.88296 13.35077,-7.88296l6.43924,5.47325c0,0 0.1598,6.13223 -0.11154,6.33327c-0.27134,0.20104 -11.52469,13.52165 -9.20367,20.18115c1.0044,2.88187 -21.27983,3.5074 -21.27983,3.5074z" fill="#afafaf" stroke="#000000" stroke-width="0.25" stroke-linecap="butt"></path><path d="M283.55448,95.05621l17.54037,7.28329l10.69625,-3.2808l0.64531,3.58703l-11.27696,4.74353l-21.85219,-3.40624z" fill="#d89856" stroke="#000000" stroke-width="0.25" stroke-linecap="butt"></path><path d="M297.41335,129.81195c-0.14486,15.09928 -0.27125,31.35254 -0.21171,34.06811c0.01673,0.76301 -6.44896,-3.77734 -6.44896,-3.77734l-3.55187,-28.72161c0,0 10.24426,-4.87362 10.21255,-1.56915z" fill="#d89856" stroke="#000000" stroke-width="0.25" stroke-linecap="butt"></path><path d="M256.45818,124.89078c0,0 18.77605,-10.98658 22.57869,-5.04722c1.64557,2.57023 13.27589,1.28826 17.4866,7.45702c4.21072,6.16876 -7.67368,6.91903 -7.67368,6.91903z" fill="#333333" stroke="#000000" stroke-width="0.25" stroke-linecap="butt"></path><path d="M287.24836,167.69094l2.83727,-9.34184l15.373,9.50231l-1.4933,4.91675z" fill="#636363" stroke="#000000" stroke-width="0.25" stroke-linecap="butt"></path><path d="M284.45819,104.88727c0,0 -7.92406,-0.27073 -9.84521,-4.01816c-1.05181,-2.05168 0.26235,-3.7576 1.07326,-4.91331c0.67024,-0.95521 2.20671,-1.68779 3.68608,-2.17054c3.26926,-1.06683 8.4155,2.74898 8.4155,2.74898z" fill="#afafaf" stroke="#000000" stroke-width="0.25" stroke-linecap="butt"></path><path d="M312.14721,102.94204l-0.59078,-3.94565l5.63434,-3.02996l3.85915,1.16435l1.68836,3.46502c0,0 -3.40197,-1.62337 -4.80421,-1.35571c-1.29913,0.24797 -3.09443,1.45016 -4.32033,2.51929c-0.84713,0.73881 -1.46655,1.18265 -1.46655,1.18265z" fill="#383838" stroke="#000000" stroke-width="0.25" stroke-linecap="butt"></path></g></g></svg>