<svg version="1.1" xmlns="http://www.w3.org/2000/svg" xmlns:xlink="http://www.w3.org/1999/xlink" width="170.24726" height="105.37394" viewBox="0,0,170.24726,105.37394"><defs><linearGradient x1="267.22121" y1="145.90918" x2="270.25125" y2="144.34916" gradientUnits="userSpaceOnUse" id="color-1"><stop offset="0" stop-color="#ff8c0e"></stop><stop offset="1" stop-color="#ff9c02"></stop></linearGradient><linearGradient x1="270.36327" y1="167.25697" x2="283.339" y2="167.25697" gradientUnits="userSpaceOnUse" id="color-2"><stop offset="0" stop-color="#71777f"></stop><stop offset="1" stop-color="#6b6b6b"></stop></linearGradient><linearGradient x1="337.23339" y1="179.87693" x2="346.18813" y2="179.87693" gradientUnits="userSpaceOnUse" id="color-3"><stop offset="0" stop-color="#ff8c0e"></stop><stop offset="1" stop-color="#ffbb24"></stop></linearGradient><radialGradient cx="240" cy="180" r="4.47737" gradientUnits="userSpaceOnUse" id="color-4"><stop offset="0" stop-color="#ffa105"></stop><stop offset="1" stop-color="#ff8a0f"></stop></radialGradient><linearGradient x1="236.74587" y1="165.77025" x2="274.61269" y2="165.77025" gradientUnits="userSpaceOnUse" id="color-5"><stop offset="0" stop-color="#71777f"></stop><stop offset="1" stop-color="#6b6b6b"></stop></linearGradient><linearGradient x1="271.48621" y1="144.15414" x2="323.05139" y2="144.15414" gradientUnits="userSpaceOnUse" id="color-6"><stop offset="0" stop-color="#71777f"></stop><stop offset="1" stop-color="#6b6b6b"></stop></linearGradient><linearGradient x1="280.84817" y1="160.32521" x2="325.25068" y2="160.32521" gradientUnits="userSpaceOnUse" id="color-7"><stop offset="0" stop-color="#71777f"></stop><stop offset="1" stop-color="#6b6b6b"></stop></linearGradient><linearGradient x1="319.50102" y1="155.43354" x2="344.95774" y2="155.43354" gradientUnits="userSpaceOnUse" id="color-8"><stop offset="0" stop-color="#71777f"></stop><stop offset="1" stop-color="#6b6b6b"></stop></linearGradient><linearGradient x1="318.02772" y1="126.46908" x2="328.17717" y2="126.46908" gradientUnits="userSpaceOnUse" id="color-9"><stop offset="0" stop-color="#ff8910"></stop><stop offset="1" stop-color="#ff9d00"></stop></linearGradient><linearGradient x1="264.5417" y1="146.60634" x2="273.83045" y2="146.60634" gradientUnits="userSpaceOnUse" id="color-10"><stop offset="0" stop-color="#71777f"></stop><stop offset="1" stop-color="#6b6b6b"></stop></linearGradient><linearGradient x1="237.32279" y1="180" x2="242.67722" y2="180" gradientUnits="userSpaceOnUse" id="color-11"><stop offset="0" stop-color="#313438"></stop><stop offset="1" stop-color="#1f1f1f"></stop></linearGradient></defs><g transform="translate(-205.12542,-109.50064)"><g data-paper-data="{&quot;isPaintingLayer&quot;:true}" fill-rule="nonzero" stroke-linecap="butt" stroke-linejoin="miter" stroke-miterlimit="10" stroke-dasharray="" stroke-dashoffset="0" style="mix-blend-mode: normal"><path d="M270.0889,151.47912l-5.73538,-11.13987l3.03004,-1.56002l5.73538,11.13987z" fill="url(#color-1)" stroke="none" stroke-width="0"></path><path d="M283.339,180.27923l-4.01981,1.31762l-8.95589,-27.36214l4.01981,-1.31762z" fill="url(#color-2)" stroke="none" stroke-width="0"></path><path d="M208.37542,180c0,-17.46578 14.15881,-31.62458 31.62458,-31.62458c17.46578,0 31.62458,14.15881 31.62458,31.62458c0,17.46578 -14.1588,31.62458 -31.62458,31.62458c-17.46578,0 -31.62458,-14.1588 -31.62458,-31.62458z" fill="none" stroke="#000000" stroke-width="6.5"></path><path d="M346.18813,179.87692c0,2.38448 -2.00458,4.31746 -4.47737,4.31746c-2.47278,0 -4.47737,-1.933 -4.47737,-4.31746c0,-2.38448 2.00459,-4.31745 4.47737,-4.31745c2.47278,0 4.47737,1.93299 4.47737,4.31745z" fill="url(#color-3)" stroke="none" stroke-width="0"></path><path d="M244.47737,180c0,2.38448 -2.00459,4.31746 -4.47737,4.31746c-2.47278,0 -4.47737,-1.93299 -4.47737,-4.31746c0,-2.38448 2.00459,-4.31746 4.47737,-4.31746c2.47278,0 4.47737,1.93299 4.47737,4.31746z" fill="url(#color-4)" stroke="none" stroke-width="0"></path><path d="M374.42726,179.24364c0,17.22355 -14.21029,31.18599 -31.73958,31.18599c-17.52929,0 -31.73959,-13.96244 -31.73959,-31.18599c0,-17.22355 14.2103,-31.18598 31.73959,-31.18598c17.52929,0 31.73958,13.96244 31.73958,31.18598z" fill="none" stroke="none" stroke-width="0"></path><path d="M240.06969,182.8195c0,0 -3.34062,-0.37165 -3.15541,-3.11486c0.15882,-2.35219 2.5088,-3.65497 2.5088,-3.65497l32.36779,-24.81873l2.82185,3.9253c0,0 -31.3531,22.37742 -30.79989,23.32094c0.34656,0.59106 35.50183,1.10679 37.28201,0.81977c1.82763,-0.29467 3.51864,3.8907 3.42967,3.94973c-1.16686,0.77425 -44.45482,-0.42718 -44.45482,-0.42718z" fill="url(#color-5)" stroke="none" stroke-width="0"></path><path d="M273.08703,155.55942l-1.60082,-4.50241l49.96437,-18.30814l1.60082,4.50241z" fill="url(#color-6)" stroke="none" stroke-width="0"></path><path d="M284.67402,183.66417l-3.82589,-3.68076l41.0786,-43.49912l3.32392,4.18275z" fill="url(#color-7)" stroke="none" stroke-width="0"></path><path d="M372.12268,179.65947c0,16.50044 -13.6137,29.87668 -30.40704,29.87668c-16.79334,0 -30.40704,-13.37624 -30.40704,-29.87668c0,-16.50044 13.6137,-29.87668 30.40704,-29.87668c16.79334,0 30.40704,13.37624 30.40704,29.87668z" fill="none" stroke="#000000" stroke-width="6.5"></path><path d="M319.50102,129.81251l4.45971,-1.71616l16.98119,44.75925c0,0 3.16421,8.38248 1.71213,8.71979c-0.46788,0.10869 -3.66194,-1.98387 -3.66194,-1.98387z" fill="url(#color-8)" stroke="none" stroke-width="0"></path><path d="M319.62928,129.97125c0,0 -1.49877,-2.40716 -1.10038,-3.26223c0.44896,-0.96362 8.37926,-3.74213 8.37926,-3.74213l1.26902,4.1278z" fill="url(#color-9)" stroke="none" stroke-width="0"></path><path d="M322.34509,111.60279c0,1.06456 -2.01461,1.75298 -3.42295,1.75298c-1.40834,0 -2.55002,-0.863 -2.55002,-1.92757c0,-1.06456 1.14168,-1.92756 2.55002,-1.92756c1.40834,0 3.42295,1.03758 3.42295,2.10215z" fill="#000000" stroke="none" stroke-width="0"></path><path d="M323.93448,124.21873l-4.58771,-10.97142l2.63626,-2.01799l4.87648,12.00643z" fill="#000000" stroke="none" stroke-width="0"></path><path d="M269.88392,152.81165l-1.53325,-3.92317c0,0 2.97472,-1.98665 3.44532,-1.77158c0.34766,0.15889 2.03443,3.72269 2.03443,3.72269z" fill="url(#color-10)" stroke="none" stroke-width="0"></path><path d="M254.0902,141.40822c-0.69285,-0.86066 0.59581,-5.62492 1.65979,-6.07643c1.5144,-0.64265 5.60407,-0.19671 8.77172,-0.63415c4.06736,-0.56168 11.92319,-2.77977 13.61512,-2.45737c1.49659,0.28518 0.53302,3.30473 0.53302,3.30473c0,0 -3.038,0.61937 -6.24167,1.55083c-0.89226,0.25942 -1.61626,2.661 -3.0558,3.09653c-1.76322,0.53346 -3.21102,1.71088 -5.25666,2.05227c-4.6087,0.76914 -9.33499,0.02137 -10.02552,-0.83641z" fill="#383838" stroke="none" stroke-width="0"></path><path d="M237.32279,180c0,-1.47859 1.19863,-2.67721 2.67721,-2.67721c1.47859,0 2.67721,1.19863 2.67721,2.67721c0,1.47859 -1.19863,2.67721 -2.67721,2.67721c-1.47859,0 -2.67721,-1.19863 -2.67721,-2.67721z" fill="url(#color-11)" stroke="none" stroke-width="0"></path></g></g></svg>