<svg version="1.1" xmlns="http://www.w3.org/2000/svg" xmlns:xlink="http://www.w3.org/1999/xlink" width="62" height="107.88888" viewBox="0,0,62,107.88888"><defs><radialGradient cx="240" cy="180" r="3.875" gradientUnits="userSpaceOnUse" id="color-1"><stop offset="0" stop-color="#7f0000"></stop><stop offset="1" stop-color="#930000"></stop></radialGradient><radialGradient cx="249.92781" cy="175.56482" r="6.18751" gradientUnits="userSpaceOnUse" id="color-2"><stop offset="0" stop-color="#960000"></stop><stop offset="1" stop-color="#870000"></stop></radialGradient><radialGradient cx="249.66414" cy="174.04294" r="6.1875" gradientUnits="userSpaceOnUse" id="color-3"><stop offset="0" stop-color="#960000"></stop><stop offset="1" stop-color="#870000"></stop></radialGradient><radialGradient cx="250.38502" cy="175.03426" r="6.18751" gradientUnits="userSpaceOnUse" id="color-4"><stop offset="0" stop-color="#960000"></stop><stop offset="1" stop-color="#870000"></stop></radialGradient><radialGradient cx="249.09622" cy="174.18304" r="6.1875" gradientUnits="userSpaceOnUse" id="color-5"><stop offset="0" stop-color="#960000"></stop><stop offset="1" stop-color="#870000"></stop></radialGradient><radialGradient cx="250.79322" cy="183.11488" r="6.18751" gradientUnits="userSpaceOnUse" id="color-6"><stop offset="0" stop-color="#960000"></stop><stop offset="1" stop-color="#870000"></stop></radialGradient><radialGradient cx="251.55434" cy="181.77089" r="6.18751" gradientUnits="userSpaceOnUse" id="color-7"><stop offset="0" stop-color="#960000"></stop><stop offset="1" stop-color="#870000"></stop></radialGradient><radialGradient cx="251.48318" cy="182.99454" r="6.18751" gradientUnits="userSpaceOnUse" id="color-8"><stop offset="0" stop-color="#960000"></stop><stop offset="1" stop-color="#870000"></stop></radialGradient><radialGradient cx="251.02636" cy="181.51911" r="6.1875" gradientUnits="userSpaceOnUse" id="color-9"><stop offset="0" stop-color="#960000"></stop><stop offset="1" stop-color="#870000"></stop></radialGradient><radialGradient cx="245.97504" cy="189.32149" r="6.18751" gradientUnits="userSpaceOnUse" id="color-10"><stop offset="0" stop-color="#960000"></stop><stop offset="1" stop-color="#870000"></stop></radialGradient><radialGradient cx="247.46731" cy="188.92308" r="6.18751" gradientUnits="userSpaceOnUse" id="color-11"><stop offset="0" stop-color="#960000"></stop><stop offset="1" stop-color="#870000"></stop></radialGradient><radialGradient cx="246.54427" cy="189.72954" r="6.18751" gradientUnits="userSpaceOnUse" id="color-12"><stop offset="0" stop-color="#960000"></stop><stop offset="1" stop-color="#870000"></stop></radialGradient><radialGradient cx="247.2771" cy="188.36992" r="6.1875" gradientUnits="userSpaceOnUse" id="color-13"><stop offset="0" stop-color="#960000"></stop><stop offset="1" stop-color="#870000"></stop></radialGradient><radialGradient cx="238.69333" cy="190.77781" r="6.18751" gradientUnits="userSpaceOnUse" id="color-14"><stop offset="0" stop-color="#960000"></stop><stop offset="1" stop-color="#870000"></stop></radialGradient><radialGradient cx="240.1538" cy="191.28045" r="6.18751" gradientUnits="userSpaceOnUse" id="color-15"><stop offset="0" stop-color="#960000"></stop><stop offset="1" stop-color="#870000"></stop></radialGradient><radialGradient cx="238.93776" cy="191.43415" r="6.18751" gradientUnits="userSpaceOnUse" id="color-16"><stop offset="0" stop-color="#960000"></stop><stop offset="1" stop-color="#870000"></stop></radialGradient><radialGradient cx="240.30484" cy="190.71534" r="6.18751" gradientUnits="userSpaceOnUse" id="color-17"><stop offset="0" stop-color="#960000"></stop><stop offset="1" stop-color="#870000"></stop></radialGradient><radialGradient cx="231.88403" cy="187.2332" r="6.18751" gradientUnits="userSpaceOnUse" id="color-18"><stop offset="0" stop-color="#960000"></stop><stop offset="1" stop-color="#870000"></stop></radialGradient><radialGradient cx="232.71314" cy="188.53635" r="6.18751" gradientUnits="userSpaceOnUse" id="color-19"><stop offset="0" stop-color="#960000"></stop><stop offset="1" stop-color="#870000"></stop></radialGradient><radialGradient cx="231.66625" cy="187.89887" r="6.18751" gradientUnits="userSpaceOnUse" id="color-20"><stop offset="0" stop-color="#960000"></stop><stop offset="1" stop-color="#870000"></stop></radialGradient><radialGradient cx="233.18339" cy="188.18846" r="6.18751" gradientUnits="userSpaceOnUse" id="color-21"><stop offset="0" stop-color="#960000"></stop><stop offset="1" stop-color="#870000"></stop></radialGradient><radialGradient cx="229.27597" cy="180.75632" r="6.18751" gradientUnits="userSpaceOnUse" id="color-22"><stop offset="0" stop-color="#960000"></stop><stop offset="1" stop-color="#870000"></stop></radialGradient><radialGradient cx="229.03127" cy="182.28136" r="6.18751" gradientUnits="userSpaceOnUse" id="color-23"><stop offset="0" stop-color="#960000"></stop><stop offset="1" stop-color="#870000"></stop></radialGradient><radialGradient cx="228.67127" cy="181.1097" r="6.18751" gradientUnits="userSpaceOnUse" id="color-24"><stop offset="0" stop-color="#960000"></stop><stop offset="1" stop-color="#870000"></stop></radialGradient><radialGradient cx="229.6139" cy="182.33323" r="6.18751" gradientUnits="userSpaceOnUse" id="color-25"><stop offset="0" stop-color="#960000"></stop><stop offset="1" stop-color="#870000"></stop></radialGradient><radialGradient cx="231.00314" cy="173.35265" r="6.1875" gradientUnits="userSpaceOnUse" id="color-26"><stop offset="0" stop-color="#960000"></stop><stop offset="1" stop-color="#870000"></stop></radialGradient><radialGradient cx="229.86047" cy="174.39185" r="6.18751" gradientUnits="userSpaceOnUse" id="color-27"><stop offset="0" stop-color="#960000"></stop><stop offset="1" stop-color="#870000"></stop></radialGradient><radialGradient cx="230.31008" cy="173.25157" r="6.18751" gradientUnits="userSpaceOnUse" id="color-28"><stop offset="0" stop-color="#960000"></stop><stop offset="1" stop-color="#870000"></stop></radialGradient><radialGradient cx="230.28346" cy="174.79588" r="6.18751" gradientUnits="userSpaceOnUse" id="color-29"><stop offset="0" stop-color="#960000"></stop><stop offset="1" stop-color="#870000"></stop></radialGradient><radialGradient cx="237.56472" cy="169.26472" r="6.1875" gradientUnits="userSpaceOnUse" id="color-30"><stop offset="0" stop-color="#960000"></stop><stop offset="1" stop-color="#870000"></stop></radialGradient><radialGradient cx="236.02058" cy="169.22926" r="6.18751" gradientUnits="userSpaceOnUse" id="color-31"><stop offset="0" stop-color="#960000"></stop><stop offset="1" stop-color="#870000"></stop></radialGradient><radialGradient cx="237.13254" cy="168.71357" r="6.18751" gradientUnits="userSpaceOnUse" id="color-32"><stop offset="0" stop-color="#960000"></stop><stop offset="1" stop-color="#870000"></stop></radialGradient><radialGradient cx="236.04826" cy="169.81353" r="6.18751" gradientUnits="userSpaceOnUse" id="color-33"><stop offset="0" stop-color="#960000"></stop><stop offset="1" stop-color="#870000"></stop></radialGradient><radialGradient cx="245.06776" cy="170.43855" r="6.1875" gradientUnits="userSpaceOnUse" id="color-34"><stop offset="0" stop-color="#960000"></stop><stop offset="1" stop-color="#870000"></stop></radialGradient><radialGradient cx="243.83032" cy="169.51423" r="6.18751" gradientUnits="userSpaceOnUse" id="color-35"><stop offset="0" stop-color="#960000"></stop><stop offset="1" stop-color="#870000"></stop></radialGradient><radialGradient cx="245.03527" cy="169.73893" r="6.18751" gradientUnits="userSpaceOnUse" id="color-36"><stop offset="0" stop-color="#960000"></stop><stop offset="1" stop-color="#870000"></stop></radialGradient><radialGradient cx="243.51404" cy="170.00629" r="6.18751" gradientUnits="userSpaceOnUse" id="color-37"><stop offset="0" stop-color="#960000"></stop><stop offset="1" stop-color="#870000"></stop></radialGradient><radialGradient cx="240" cy="180.00001" r="20.39474" gradientUnits="userSpaceOnUse" id="color-38"><stop offset="0" stop-color="#ff0000"></stop><stop offset="1" stop-color="#5c0000"></stop></radialGradient></defs><g transform="translate(-211.61111,-125.09942)"><g data-paper-data="{&quot;isPaintingLayer&quot;:true}" fill="none" fill-rule="nonzero" stroke-linejoin="miter" stroke-miterlimit="10" stroke-dasharray="" stroke-dashoffset="0" style="mix-blend-mode: normal"><path d="M236.125,180c0,-2.1401 1.7349,-3.875 3.875,-3.875c2.1401,0 3.875,1.7349 3.875,3.875c0,2.1401 -1.7349,3.875 -3.875,3.875c-2.1401,0 -3.875,-1.7349 -3.875,-3.875z" stroke="url(#color-1)" stroke-width="4.5" stroke-linecap="butt"></path><g stroke-width="0.5" stroke-linecap="round"><path d="M258.55922,176.03695l-15.09053,-0.72413" stroke="url(#color-2)"></path><path d="M243.28087,175.06154l14.93986,-2.24697" stroke="url(#color-3)"></path><path d="M256.64541,169.0734l-10.87142,10.49098" stroke="url(#color-4)"></path><path d="M245.46228,179.52889l8.60489,-12.4179" stroke="url(#color-5)"></path></g><g stroke-width="0.5" stroke-linecap="round"><path d="M245.95844,178.82437l11.20972,10.1287" stroke="url(#color-6)"></path><path d="M245.97254,178.51095l12.97717,7.73574" stroke="url(#color-7)"></path><path d="M245.04515,183.57369l15.05866,-1.21878" stroke="url(#color-8)"></path><path d="M244.82663,183.34858l14.52788,-4.14597" stroke="url(#color-9)"></path></g><g stroke-width="0.5" stroke-linecap="round"><path d="M246.27496,197.96061l-0.62528,-15.09495" stroke="url(#color-10)"></path><path d="M245.88321,182.65614l3.57108,14.67979" stroke="url(#color-11)"></path><path d="M241.62078,185.54111l11.41918,9.89196" stroke="url(#color-12)"></path><path d="M254.7645,192.69001l-13.13618,-7.46253" stroke="url(#color-13)"></path></g><g stroke-width="0.5" stroke-linecap="round"><path d="M234.11877,198.11251l7.90904,-12.87228" stroke="url(#color-14)"></path><path d="M237.1052,199.36935l5.23333,-14.17254" stroke="url(#color-15)"></path><path d="M241.14237,199.79263l-3.95079,-14.58218" stroke="url(#color-16)"></path><path d="M244.1046,198.47976l-6.73165,-13.52529" stroke="url(#color-17)"></path></g><g stroke-width="0.5" stroke-linecap="round"><path d="M223.73583,190.11956l14.20672,-5.13981" stroke="url(#color-18)"></path><path d="M225.2885,192.96343l12.92413,-7.82405" stroke="url(#color-19)"></path><path d="M234.17848,181.94299l-5.99608,13.86706" stroke="url(#color-20)"></path><path d="M231.31733,196.62898l3.16251,-14.77319" stroke="url(#color-21)"></path></g><g stroke-width="0.5" stroke-linecap="round"><path d="M221.26539,177.50748l14.038,5.58419" stroke="url(#color-22)"></path><path d="M220.53936,180.66522l14.8601,2.72511" stroke="url(#color-23)"></path><path d="M220.81476,184.71517l13.68852,-6.39319" stroke="url(#color-24)"></path><path d="M222.61621,187.40834l12.17037,-8.95158" stroke="url(#color-25)"></path></g><g stroke-width="0.5" stroke-linecap="round"><path d="M234.25679,178.9381l-7.48732,-13.12206" stroke="url(#color-26)"></path><path d="M224.23205,167.83097l9.9135,11.40049" stroke="url(#color-27)"></path><path d="M221.92065,171.16793l14.68649,3.54335" stroke="url(#color-28)"></path><path d="M221.64835,174.39659l15.09611,0.59677" stroke="url(#color-29)"></path></g><g stroke-width="0.5" stroke-linecap="round"><path d="M236.069,175.55331l3.62732,-14.66599" stroke="url(#color-30)"></path><path d="M235.78614,175.68902l0.68312,-15.09244" stroke="url(#color-31)"></path><path d="M232.49417,161.41908l8.1918,12.6942" stroke="url(#color-32)"></path><path d="M240.59088,174.41225l-10.52048,-10.84288" stroke="url(#color-33)"></path></g><g stroke-width="0.5" stroke-linecap="round"><path d="M240.20247,174.69445l11.45989,-9.84476" stroke="url(#color-34)"></path><path d="M249.20191,162.74145l-9.30858,11.89953" stroke="url(#color-35)"></path><path d="M245.48647,161.1064l-0.68753,15.09224" stroke="url(#color-36)"></path><path d="M242.26492,161.45268l2.28319,14.93438" stroke="url(#color-37)"></path></g><path d="M219.60526,180.00001c0,-11.2637 9.13103,-20.39474 20.39474,-20.39474c11.2637,0 20.39474,9.13103 20.39474,20.39474c0,11.2637 -9.13103,20.39474 -20.39474,20.39474c-11.2637,0 -20.39474,-9.13103 -20.39474,-20.39474z" stroke="url(#color-38)" stroke-width="8" stroke-linecap="butt"></path><path d="M216.04605,180.00001c0,-13.2294 10.72455,-23.95395 23.95395,-23.95395c13.2294,0 23.95395,10.72455 23.95395,23.95395c0,13.2294 -10.72455,23.95395 -23.95395,23.95395c-13.2294,0 -23.95395,-10.72455 -23.95395,-23.95395z" stroke="#000000" stroke-width="8" stroke-linecap="butt"></path><path d="M211.61111,232.98831v-22.44444h59.22222v22.44444z" stroke="none" stroke-width="NaN" stroke-linecap="butt"></path><path d="M214.38889,147.54386v-22.44444h59.22222v22.44445z" stroke="none" stroke-width="NaN" stroke-linecap="butt"></path></g></g></svg>