<svg version="1.1" xmlns="http://www.w3.org/2000/svg" xmlns:xlink="http://www.w3.org/1999/xlink" width="69.06721" height="107.88888" viewBox="0,0,69.06721,107.88888"><defs><radialGradient cx="252.80427" cy="174.27978" r="7.98025" gradientUnits="userSpaceOnUse" id="color-1"><stop offset="0" stop-color="#2d2d2d"></stop><stop offset="1" stop-color="#000000"></stop></radialGradient><radialGradient cx="252.4642" cy="172.31695" r="7.98024" gradientUnits="userSpaceOnUse" id="color-2"><stop offset="0" stop-color="#2d2d2d"></stop><stop offset="1" stop-color="#000000"></stop></radialGradient><radialGradient cx="253.39395" cy="173.59549" r="7.98025" gradientUnits="userSpaceOnUse" id="color-3"><stop offset="0" stop-color="#2d2d2d"></stop><stop offset="1" stop-color="#000000"></stop></radialGradient><radialGradient cx="251.73172" cy="172.49764" r="7.98024" gradientUnits="userSpaceOnUse" id="color-4"><stop offset="0" stop-color="#2d2d2d"></stop><stop offset="1" stop-color="#000000"></stop></radialGradient><radialGradient cx="253.92042" cy="184.01736" r="7.98025" gradientUnits="userSpaceOnUse" id="color-5"><stop offset="0" stop-color="#2d2d2d"></stop><stop offset="1" stop-color="#000000"></stop></radialGradient><radialGradient cx="254.90206" cy="182.28397" r="7.98025" gradientUnits="userSpaceOnUse" id="color-6"><stop offset="0" stop-color="#2d2d2d"></stop><stop offset="1" stop-color="#000000"></stop></radialGradient><radialGradient cx="254.81028" cy="183.86215" r="7.98025" gradientUnits="userSpaceOnUse" id="color-7"><stop offset="0" stop-color="#2d2d2d"></stop><stop offset="1" stop-color="#000000"></stop></radialGradient><radialGradient cx="254.22109" cy="181.95924" r="7.98024" gradientUnits="userSpaceOnUse" id="color-8"><stop offset="0" stop-color="#2d2d2d"></stop><stop offset="1" stop-color="#000000"></stop></radialGradient><radialGradient cx="247.70624" cy="192.02225" r="7.98025" gradientUnits="userSpaceOnUse" id="color-9"><stop offset="0" stop-color="#2d2d2d"></stop><stop offset="1" stop-color="#000000"></stop></radialGradient><radialGradient cx="249.63087" cy="191.5084" r="7.98025" gradientUnits="userSpaceOnUse" id="color-10"><stop offset="0" stop-color="#2d2d2d"></stop><stop offset="1" stop-color="#000000"></stop></radialGradient><radialGradient cx="248.44038" cy="192.54851" r="7.98025" gradientUnits="userSpaceOnUse" id="color-11"><stop offset="0" stop-color="#2d2d2d"></stop><stop offset="1" stop-color="#000000"></stop></radialGradient><radialGradient cx="249.38554" cy="190.79497" r="7.98024" gradientUnits="userSpaceOnUse" id="color-12"><stop offset="0" stop-color="#2d2d2d"></stop><stop offset="1" stop-color="#000000"></stop></radialGradient><radialGradient cx="238.31475" cy="193.90052" r="7.98025" gradientUnits="userSpaceOnUse" id="color-13"><stop offset="0" stop-color="#2d2d2d"></stop><stop offset="1" stop-color="#000000"></stop></radialGradient><radialGradient cx="240.19836" cy="194.54879" r="7.98025" gradientUnits="userSpaceOnUse" id="color-14"><stop offset="0" stop-color="#2d2d2d"></stop><stop offset="1" stop-color="#000000"></stop></radialGradient><radialGradient cx="238.63" cy="194.74702" r="7.98025" gradientUnits="userSpaceOnUse" id="color-15"><stop offset="0" stop-color="#2d2d2d"></stop><stop offset="1" stop-color="#000000"></stop></radialGradient><radialGradient cx="240.39316" cy="193.81995" r="7.98025" gradientUnits="userSpaceOnUse" id="color-16"><stop offset="0" stop-color="#2d2d2d"></stop><stop offset="1" stop-color="#000000"></stop></radialGradient><radialGradient cx="229.53255" cy="189.32891" r="7.98025" gradientUnits="userSpaceOnUse" id="color-17"><stop offset="0" stop-color="#2d2d2d"></stop><stop offset="1" stop-color="#000000"></stop></radialGradient><radialGradient cx="230.60189" cy="191.00963" r="7.98025" gradientUnits="userSpaceOnUse" id="color-18"><stop offset="0" stop-color="#2d2d2d"></stop><stop offset="1" stop-color="#000000"></stop></radialGradient><radialGradient cx="229.25168" cy="190.18743" r="7.98025" gradientUnits="userSpaceOnUse" id="color-19"><stop offset="0" stop-color="#2d2d2d"></stop><stop offset="1" stop-color="#000000"></stop></radialGradient><radialGradient cx="231.20839" cy="190.56095" r="7.98025" gradientUnits="userSpaceOnUse" id="color-20"><stop offset="0" stop-color="#2d2d2d"></stop><stop offset="1" stop-color="#000000"></stop></radialGradient><radialGradient cx="226.16885" cy="180.97543" r="7.98025" gradientUnits="userSpaceOnUse" id="color-21"><stop offset="0" stop-color="#2d2d2d"></stop><stop offset="1" stop-color="#000000"></stop></radialGradient><radialGradient cx="225.85325" cy="182.94234" r="7.98025" gradientUnits="userSpaceOnUse" id="color-22"><stop offset="0" stop-color="#2d2d2d"></stop><stop offset="1" stop-color="#000000"></stop></radialGradient><radialGradient cx="225.38894" cy="181.43121" r="7.98025" gradientUnits="userSpaceOnUse" id="color-23"><stop offset="0" stop-color="#2d2d2d"></stop><stop offset="1" stop-color="#000000"></stop></radialGradient><radialGradient cx="226.60469" cy="183.00924" r="7.98025" gradientUnits="userSpaceOnUse" id="color-24"><stop offset="0" stop-color="#2d2d2d"></stop><stop offset="1" stop-color="#000000"></stop></radialGradient><radialGradient cx="228.39644" cy="171.42666" r="7.98024" gradientUnits="userSpaceOnUse" id="color-25"><stop offset="0" stop-color="#2d2d2d"></stop><stop offset="1" stop-color="#000000"></stop></radialGradient><radialGradient cx="226.9227" cy="172.76695" r="7.98025" gradientUnits="userSpaceOnUse" id="color-26"><stop offset="0" stop-color="#2d2d2d"></stop><stop offset="1" stop-color="#000000"></stop></radialGradient><radialGradient cx="227.50257" cy="171.29628" r="7.98025" gradientUnits="userSpaceOnUse" id="color-27"><stop offset="0" stop-color="#2d2d2d"></stop><stop offset="1" stop-color="#000000"></stop></radialGradient><radialGradient cx="227.46824" cy="173.28805" r="7.98025" gradientUnits="userSpaceOnUse" id="color-28"><stop offset="0" stop-color="#2d2d2d"></stop><stop offset="1" stop-color="#000000"></stop></radialGradient><radialGradient cx="236.85914" cy="166.15431" r="7.98024" gradientUnits="userSpaceOnUse" id="color-29"><stop offset="0" stop-color="#2d2d2d"></stop><stop offset="1" stop-color="#000000"></stop></radialGradient><radialGradient cx="234.86761" cy="166.10858" r="7.98025" gradientUnits="userSpaceOnUse" id="color-30"><stop offset="0" stop-color="#2d2d2d"></stop><stop offset="1" stop-color="#000000"></stop></radialGradient><radialGradient cx="236.30175" cy="165.44347" r="7.98025" gradientUnits="userSpaceOnUse" id="color-31"><stop offset="0" stop-color="#2d2d2d"></stop><stop offset="1" stop-color="#000000"></stop></radialGradient><radialGradient cx="234.90331" cy="166.86213" r="7.98025" gradientUnits="userSpaceOnUse" id="color-32"><stop offset="0" stop-color="#2d2d2d"></stop><stop offset="1" stop-color="#000000"></stop></radialGradient><radialGradient cx="246.53609" cy="167.66825" r="7.98024" gradientUnits="userSpaceOnUse" id="color-33"><stop offset="0" stop-color="#2d2d2d"></stop><stop offset="1" stop-color="#000000"></stop></radialGradient><radialGradient cx="244.94011" cy="166.47611" r="7.98025" gradientUnits="userSpaceOnUse" id="color-34"><stop offset="0" stop-color="#2d2d2d"></stop><stop offset="1" stop-color="#000000"></stop></radialGradient><radialGradient cx="246.49418" cy="166.76592" r="7.98025" gradientUnits="userSpaceOnUse" id="color-35"><stop offset="0" stop-color="#2d2d2d"></stop><stop offset="1" stop-color="#000000"></stop></radialGradient><radialGradient cx="244.5322" cy="167.11074" r="7.98025" gradientUnits="userSpaceOnUse" id="color-36"><stop offset="0" stop-color="#2d2d2d"></stop><stop offset="1" stop-color="#000000"></stop></radialGradient><radialGradient cx="240" cy="180" r="4.95227" gradientUnits="userSpaceOnUse" id="color-37"><stop offset="0" stop-color="#3e3e3e"></stop><stop offset="1" stop-color="#282828"></stop></radialGradient><radialGradient cx="240.00001" cy="180" r="26.30383" gradientUnits="userSpaceOnUse" id="color-38"><stop offset="0" stop-color="#ffffff"></stop><stop offset="1" stop-color="#020202"></stop></radialGradient></defs><g transform="translate(-205.46639,-125.09944)"><g data-paper-data="{&quot;isPaintingLayer&quot;:true}" fill="none" fill-rule="nonzero" stroke-linejoin="miter" stroke-miterlimit="10" stroke-dasharray="" stroke-dashoffset="0" style="mix-blend-mode: normal"><g stroke-width="0.5" stroke-linecap="round"><g><path d="M263.93651,174.8887l-19.4628,-0.93394" stroke="url(#color-1)"></path><path d="M244.23146,173.63068l19.26848,-2.898" stroke="url(#color-2)"></path><path d="M247.44694,179.43817l14.02126,-13.53059" stroke="url(#color-3)"></path><path d="M258.14295,163.37655l-11.09804,16.01581" stroke="url(#color-4)"></path></g><g><path d="M247.68481,178.48373l14.45758,13.06335" stroke="url(#color-5)"></path><path d="M264.44014,188.05657l-16.73712,-9.97706" stroke="url(#color-6)"></path><path d="M265.92861,183.03719l-19.4217,1.5719" stroke="url(#color-7)"></path><path d="M264.96221,178.97155l-18.73713,5.34721" stroke="url(#color-8)"></path></g><g><path d="M247.28661,183.69593l0.80645,19.4685" stroke="url(#color-9)"></path><path d="M252.19354,202.35876l-4.60575,-18.93305" stroke="url(#color-10)"></path><path d="M242.09039,187.14656l14.72773,12.75802" stroke="url(#color-11)"></path><path d="M242.10012,186.74206l16.9422,9.62469" stroke="url(#color-12)"></path></g><g><path d="M232.41477,203.36033l10.20057,-16.60184" stroke="url(#color-13)"></path><path d="M243.0161,186.7025l-6.74961,18.27884" stroke="url(#color-14)"></path><path d="M241.47337,205.52726l-5.09548,-18.80716" stroke="url(#color-15)"></path><path d="M245.29386,203.834l-8.68205,-17.44405" stroke="url(#color-16)"></path></g><g><path d="M237.34645,186.42255l-18.32292,6.629" stroke="url(#color-17)"></path><path d="M237.69476,186.62842l-16.66872,10.09096" stroke="url(#color-18)"></path><path d="M224.75843,200.39078l7.73336,-17.88485" stroke="url(#color-19)"></path><path d="M228.80166,201.44698l4.0788,-19.05352" stroke="url(#color-20)"></path></g><g><path d="M215.83731,176.78529l18.10531,7.20213" stroke="url(#color-21)"></path><path d="M234.06652,184.37262l-19.16561,-3.51467" stroke="url(#color-22)"></path><path d="M215.25612,186.08131l17.65458,-8.24553" stroke="url(#color-23)"></path><path d="M217.57951,189.55479l15.69656,-11.54518" stroke="url(#color-24)"></path></g><g><path d="M222.93611,161.70642l9.65667,16.92399" stroke="url(#color-25)"></path><path d="M219.66351,164.30515l12.7858,14.70362" stroke="url(#color-26)"></path><path d="M235.62411,173.17893l-18.9417,-4.56999" stroke="url(#color-27)"></path><path d="M235.80123,173.54274l-19.47,-0.76968" stroke="url(#color-28)"></path></g><g><path d="M239.60833,155.34968l-4.67829,18.91526" stroke="url(#color-29)"></path><path d="M235.44629,154.97468l-0.88104,19.46526" stroke="url(#color-30)"></path><path d="M230.31947,156.03551l10.56526,16.37217" stroke="url(#color-31)"></path><path d="M227.19345,158.8088l13.56864,13.98445" stroke="url(#color-32)"></path></g><g><path d="M255.04138,160.46009l-14.78023,12.69714" stroke="url(#color-33)"></path><path d="M239.86244,173.08827l12.00561,-15.34725" stroke="url(#color-34)"></path><path d="M247.07611,155.63223l-0.88673,19.46501" stroke="url(#color-35)"></path><path d="M242.92115,156.07883l2.94471,19.26141" stroke="url(#color-36)"></path></g></g><path d="M235.04773,180c0,-2.73506 2.21721,-4.95227 4.95227,-4.95227c2.73506,0 4.95227,2.21721 4.95227,4.95227c0,2.73506 -2.21721,4.95227 -4.95227,4.95227c-2.73506,0 -4.95227,-2.21721 -4.95227,-4.95227z" stroke="url(#color-37)" stroke-width="7" stroke-linecap="butt"></path><path d="M213.69617,180c0,-14.5272 11.77662,-26.30383 26.30383,-26.30383c14.5272,0 26.30383,11.77662 26.30383,26.30383c0,14.5272 -11.77662,26.30383 -26.30383,26.30383c-14.5272,0 -26.30383,-11.77662 -26.30383,-26.30383z" stroke="url(#color-38)" stroke-width="8" stroke-linecap="butt"></path><path d="M211.61112,232.98832v-22.44444h59.22222v22.44444z" stroke="none" stroke-width="NaN" stroke-linecap="butt"></path><path d="M214.3889,147.54388v-22.44444h59.22222v22.44445z" stroke="none" stroke-width="NaN" stroke-linecap="butt"></path><path d="M270.0336,180.00001c0,16.38932 -13.44651,29.67549 -30.03361,29.67549c-16.5871,0 -30.0336,-13.28617 -30.0336,-29.67549c0,-16.38932 13.44651,-29.67549 30.0336,-29.67549c16.5871,0 30.03361,13.28617 30.03361,29.67549z" stroke="#141413" stroke-width="9" stroke-linecap="butt"></path></g></g></svg>