<svg version="1.1" xmlns="http://www.w3.org/2000/svg" xmlns:xlink="http://www.w3.org/1999/xlink" width="46.1721" height="46.17211" viewBox="0,0,46.1721,46.17211"><g transform="translate(-314.75027,-154.85519)"><g data-paper-data="{&quot;isPaintingLayer&quot;:true}" fill-rule="nonzero" stroke-linecap="butt" stroke-linejoin="miter" stroke-miterlimit="10" stroke-dasharray="" stroke-dashoffset="0" style="mix-blend-mode: normal"><path d="M318.00027,177.94126c0,-10.95515 8.8809,-19.83606 19.83605,-19.83606c10.95515,0 19.83605,8.88091 19.83605,19.83606c0,10.95515 -8.8809,19.83605 -19.83605,19.83605c-10.95515,0 -19.83605,-8.8809 -19.83605,-19.83605z" fill="none" stroke="#000000" stroke-width="6.5"></path><path d="M330.24144,177.8519c0,-4.14519 3.36034,-7.50554 7.50554,-7.50554c4.14519,0 7.50553,3.36034 7.50553,7.50554c0,4.14519 -3.36034,7.50553 -7.50553,7.50553c-4.14519,0 -7.50554,-3.36034 -7.50554,-7.50553z" fill="#adadad" stroke="none" stroke-width="0"></path><path d="M334.08126,179.09996l-10.1452,-19.57558l3.63852,-1.99795l12.11093,21.89872z" fill="#b4b4b4" stroke="none" stroke-width="0"></path></g></g></svg>