<svg version="1.1" xmlns="http://www.w3.org/2000/svg" xmlns:xlink="http://www.w3.org/1999/xlink" width="107.28069" height="99.81664" viewBox="0,0,107.28069,99.81664"><defs><radialGradient cx="245.10777" cy="144.21927" r="15.70955" gradientUnits="userSpaceOnUse" id="color-1"><stop offset="0" stop-color="#25175c"></stop><stop offset="1" stop-color="#1f1a69"></stop></radialGradient><radialGradient cx="278.68835" cy="162.79539" r="42.31605" gradientUnits="userSpaceOnUse" id="color-2"><stop offset="0" stop-color="#25175c"></stop><stop offset="1" stop-color="#1f1a69"></stop></radialGradient><radialGradient cx="281.25076" cy="158.06149" r="36.41166" gradientUnits="userSpaceOnUse" id="color-3"><stop offset="0" stop-color="#25175c"></stop><stop offset="1" stop-color="#1f1a69"></stop></radialGradient><radialGradient cx="319.32267" cy="138.06249" r="6.58346" gradientUnits="userSpaceOnUse" id="color-4"><stop offset="0" stop-color="#25175c"></stop><stop offset="1" stop-color="#1f1a69"></stop></radialGradient><radialGradient cx="325.27612" cy="145.25717" r="15.41851" gradientUnits="userSpaceOnUse" id="color-5"><stop offset="0" stop-color="#8d8d8d"></stop><stop offset="1" stop-color="#bcbcbc"></stop></radialGradient></defs><g transform="translate(-226.63812,-87.10968)"><g data-paper-data="{&quot;isPaintingLayer&quot;:true}" fill-rule="nonzero" stroke-linecap="butt" stroke-linejoin="miter" stroke-miterlimit="10" stroke-dasharray="" stroke-dashoffset="0" style="mix-blend-mode: normal"><path d="M278.12262,137.64586c3.31059,14.73259 6.90296,30.58438 7.58169,33.21444c0.19071,0.73898 -7.14168,-2.20312 -7.14168,-2.20312l-10.02343,-27.14917c0,0 2.90998,-2.32773 5.53075,-3.708c1.95193,-1.02802 3.74341,-1.53046 4.05269,-0.15415z" fill="#d89856" stroke="#000000" stroke-width="0.25"></path><path d="M277.725,177.74558l0.62665,-9.74307l17.13813,5.73652l-0.32982,5.12792z" fill="#636363" stroke="#000000" stroke-width="0.25"></path><path d="M251.90229,117.55509c0,0 21.52415,1.53889 19.9972,8.42399c-0.66079,2.97949 8.4525,10.31814 7.05084,17.65429c-1.40165,7.33615 -10.31734,-0.55768 -10.31734,-0.55768z" fill="#333333" stroke="#000000" stroke-width="0.25"></path><path d="M236.29718,139.73689c0,0 0.81419,-4.37995 2.89556,-4.92245c0.83737,-0.21826 7.63721,1.60014 17.5424,2.34841c5.82443,0.44 36.65382,-0.55198 37.64,-0.24805c1.73966,0.53614 2.89626,2.00092 1.99161,2.16214c-7.53471,1.34273 -29.90452,3.52103 -32.13486,4.55627c-2.45747,1.14067 -3.90155,4.35603 -3.90155,4.35603z" fill="#0e0e0e" stroke="none" stroke-width="0"></path><path d="M266.41098,157.2363c0,0 -5.15175,-2.11496 -5.53544,-3.75631c-0.46808,-2.00236 2.92944,-7.3916 2.92944,-7.3916l22.15103,-2.46123c0,0 5.76414,-1.35944 6.16654,-0.02621c0.51183,1.69579 0.7835,3.90387 -0.20238,5.4016c-3.15134,4.78743 -12.47917,7.65463 -12.47917,7.65463z" fill="#242424" stroke="#000000" stroke-width="0.25"></path><path d="M229.44242,138.46139c1.33777,-2.31608 31.37489,9.49311 31.37489,9.49311l-1.16064,2.32368c0,0 -31.59874,-9.01349 -30.21425,-11.81679z" fill="url(#color-1)" stroke="#000000" stroke-width="0.25"></path><path d="M295.64405,181.9781l21.17887,-43.18862l4.18144,1.99481c0,0 -20.61752,45.27047 -24.36399,45.93941c-3.93797,0.70313 -55.87651,-3.6025 -55.87651,-3.6025c0,0 -5.43688,1.79079 -4.21181,-4.46682c1.00971,-5.15762 7.16094,-2.01634 8.41347,-2.07867c2.31248,-0.11509 2.65873,4.36316 4.81251,4.42643c16.41099,0.4821 45.86602,0.97595 45.86602,0.97595z" fill="url(#color-2)" stroke="#000000" stroke-width="0.25"></path><path d="M263.9498,146.25188l-16.48659,32.41736c0,0 -0.83591,-0.99575 -1.22139,-1.3677c-0.28861,-0.27848 -0.88617,-0.66591 -0.88617,-0.66591c0,0 16.4678,-32.48227 17.70322,-33.69884c2.51804,-1.26473 53.30056,-5.80591 53.30056,-5.80591l1.303,3.61945z" fill="url(#color-3)" stroke="#000000" stroke-width="0.25"></path><path d="M319.20618,144.52006l-4.81357,-11.02334l3.17379,-2.0177l6.68632,13.16692z" fill="url(#color-4)" stroke="#000000" stroke-width="0.25"></path><path d="M331.32876,160.67568l-14.52507,-29.44369l2.87762,-1.39333l14.06727,29.90149z" fill="url(#color-5)" stroke="#000000" stroke-width="0.25"></path><path d="M316.06984,128.43484l-2.68088,-8.26484l3.15702,-1.34981l2.56419,9.03553c0,0 1.06678,2.00815 0.6704,2.79578c-0.83924,1.66765 -3.69946,2.32722 -5.25276,2.87082c-0.7144,0.25001 -1.67153,-1.23493 -1.20876,-3.20538c0.36616,-1.55911 2.75078,-1.88211 2.75078,-1.88211z" fill="#232323" stroke="#000000" stroke-width="0.25"></path><path d="M283.59146,175.73477c-0.24771,-0.20896 12.97879,-25.90607 13.43876,-26.15801c0.22505,-0.12327 8.74793,1.54486 9.01247,1.63966c0.31513,0.11293 3.7824,1.37946 3.89566,1.52424c0.24962,0.31909 -14.01048,28.73074 -14.01048,28.73074c0,0 -11.92476,-5.38937 -12.3364,-5.73662z" fill="#1c1c1c" stroke="#000000" stroke-width="0.25"></path><path d="M291.90616,158.68426c-0.40581,-0.62615 0.89772,-3.15395 1.58963,-3.01398c0.22316,0.04514 16.97736,6.43999 16.97736,6.43999l-1.38545,3.66737c0,0 -17.03523,-6.86763 -17.18154,-7.09338z" fill="#141414" stroke="#000000" stroke-width="0.25"></path><g fill="#ffffff" stroke="none" stroke-width="0"><path d="M293.07606,177.64592l2.69509,-1.99705l0.40543,3.38749l-0.55625,-0.25877l-0.25765,-2.09716l-1.64876,1.21652z"></path><path d="M295.30763,176.89831l0.35017,3.33604l-3.12342,-1.37246l0.50556,-0.34754l1.93707,0.84393l-0.20974,-2.03822z"></path><path d="M294.44858,176.43148l-1.65102,1.21346l1.92622,0.86843l0.08203,0.60798l-3.11456,-1.39245l2.7069,-1.98103z" data-paper-data="{&quot;index&quot;:null}"></path></g><path d="M286.59736,168.73012c-0.40581,-0.62615 0.89772,-3.15394 1.58964,-3.01397c0.22316,0.04514 16.97736,6.43998 16.97736,6.43998l-1.38545,3.66737c0,0 -17.03523,-6.86763 -17.18155,-7.09338z" fill="#141414" stroke="#000000" stroke-width="0.25"></path><path d="M310.8772,158.31016c1.05796,-1.11538 5.25022,-2.91322 5.08197,-2.58229c-0.99784,1.96265 -13.51277,25.94982 -13.51277,25.94982c0,0 -0.81849,-5.24681 -0.47208,-6.14284c0.3102,-0.80235 8.7741,-17.08892 8.90287,-17.22468z" fill="#1e1e1e" stroke="#000000" stroke-width="0.25"></path><path d="M311.97456,117.89525c0,-1.27692 1.03515,-2.31208 2.31208,-2.31208c1.27692,0 2.31208,1.03515 2.31208,2.31208c0,1.27692 -1.03515,2.31208 -2.31208,2.31208c-1.27692,0 -2.31208,-1.03515 -2.31208,-2.31208z" fill="#070707" stroke="#000000" stroke-width="0.25"></path><path d="M257.15594,110.83809c0,0 3.0229,-5.71979 7.75573,-11.89046c2.69934,-3.51939 5.84424,-7.99942 9.57999,-9.60212c10.28574,-4.41276 8.7444,-1.54833 11.03638,5.26626c1.46388,4.35243 -3.33688,7.64332 -7.95649,14.61185c-3.61437,5.45216 -4.77398,12.52313 -5.98453,15.43994c-1.19344,2.87553 -14.43107,-13.82544 -14.43107,-13.82544z" fill="#afafaf" stroke="#000000" stroke-width="0.25"></path><path d="M273.19273,137.59212c-14.98663,-1.84669 -31.12196,-3.80517 -33.82692,-4.05224c-0.76003,-0.06942 4.4805,-5.98185 4.4805,-5.98185l28.93894,-0.29026c0,0 4.58405,-0.29734 5.00063,2.63523c0.31027,2.18417 -3.19311,7.86164 -4.59316,7.68913z" fill="#d89856" stroke="#000000" stroke-width="0.25"></path><path d="M256.92895,110.11205l13.65215,14.66477c0,0 11.37027,2.02827 5.66062,6.84321c-2.56376,2.16203 -6.02717,3.94125 -8.15209,3.85224c-1.04521,-0.04378 -0.55775,-1.28888 -3.06233,-1.63294c-3.7434,-0.51424 -8.6901,-4.99335 -11.98867,-7.08679c-9.99229,-6.34163 3.89032,-16.64049 3.89032,-16.64049z" fill="#333333" stroke="#000000" stroke-width="0.25"></path><path d="M284.96645,96.59087l12.96256,13.88102l12.44974,1.57012l-0.88864,3.30223l-13.58917,-0.24726l-18.49119,-12.13246z" fill="#d89856" stroke="#000000" stroke-width="0.25"></path><path d="M282.69602,106.7106c0,0 -7.3717,-2.91926 -7.92099,-7.09446c-0.30074,-2.28588 1.51049,-3.45062 2.66277,-4.2664c0.95238,-0.67425 2.64572,-0.84757 4.20128,-0.8048c3.43761,0.0945 7.00126,5.41846 7.00126,5.41846z" fill="#afafaf" stroke="#000000" stroke-width="0.25"></path><path d="M240.16924,122.64591l8.45258,4.84272l-8.70826,5.98873l-9.78634,4.36059l-3.31296,-3.92793z" fill="#636363" stroke="#000000" stroke-width="0.25"></path><path d="M307.56979,115.60544l1.49896,-3.69734l6.39216,0.25834l2.72985,2.96593l-0.30953,3.84203c0,0 -2.10273,-3.12847 -3.44606,-3.61151c-1.24456,-0.44753 -3.40178,-0.32604 -5.00111,-0.02939c-1.10519,0.205 -1.86426,0.27194 -1.86426,0.27194z" fill="#383838" stroke="#000000" stroke-width="0.25"></path></g></g></svg>