<svg version="1.1" xmlns="http://www.w3.org/2000/svg" xmlns:xlink="http://www.w3.org/1999/xlink" width="52.79042" height="51.56777" viewBox="0,0,52.79042,51.56777"><defs><linearGradient x1="335.23343" y1="176.74025" x2="338.29734" y2="176.74025" gradientUnits="userSpaceOnUse" id="color-1"><stop offset="0" stop-color="#dedcdf"></stop><stop offset="1" stop-color="#a7a7a7"></stop></linearGradient><linearGradient x1="334.59979" y1="179.9612" x2="337.66371" y2="179.9612" gradientUnits="userSpaceOnUse" id="color-2"><stop offset="0" stop-color="#dedcdf"></stop><stop offset="1" stop-color="#a7a7a7"></stop></linearGradient><linearGradient x1="341.39225" y1="172.83807" x2="344.94128" y2="171.10547" gradientUnits="userSpaceOnUse" id="color-3"><stop offset="0" stop-color="#858585"></stop><stop offset="1" stop-color="#adadad"></stop></linearGradient></defs><g transform="translate(-317.59886,-153.33769)"><g data-paper-data="{&quot;isPaintingLayer&quot;:true}" fill-rule="nonzero" stroke-linecap="butt" stroke-linejoin="miter" stroke-miterlimit="10" stroke-dasharray="" stroke-dashoffset="0" style="mix-blend-mode: normal"><path d="M326.0737,180.87267c0,-11.20187 9.08092,-20.28278 20.28279,-20.28278c11.20187,0 20.2828,9.08091 20.2828,20.28278c0,11.20188 -9.08092,20.28279 -20.2828,20.28279c-11.20187,0 -20.28279,-9.08092 -20.28279,-20.28279z" fill="none" stroke="#000000" stroke-width="7.5"></path><path d="M346.59954,158.04595c-0.1635,-0.25041 -8.60715,0.23385 -13.71729,3.68408c-0.8229,0.5556 -3.61911,2.81356 -5.81905,5.04611c-3.45657,3.50781 -6.4167,8.35223 -6.4167,8.35223c0,0 -2.1605,-3.41157 -2.9038,-3.31868c-1.70751,0.2134 12.35127,-12.38004 12.35127,-12.38004c0,0 7.63417,-4.87575 11.30834,-5.63169c1.56186,-0.32134 5.04582,-0.90595 8.35437,0.11465c3.30188,1.01853 8.82788,4.73193 8.82788,4.73193c0,0 -5.57925,-1.52308 -6.16838,-1.36734c-1.53852,0.40671 -2.91001,2.14858 -3.73782,2.17158c-0.16656,0.00463 -0.28901,8.47943 -0.28901,8.47943l1.77522,8.89672l-1.7903,-0.70041l-5.83639,-13.62691c0,0 4.35584,-4.0011 4.06165,-4.45166z" fill="#000000" stroke="none" stroke-width="0"></path><path d="M336.01831,180.94659c0,-5.6223 4.55778,-10.18008 10.18008,-10.18008c5.6223,0 10.18008,4.55778 10.18008,10.18008c0,5.6223 -4.55778,10.18007 -10.18008,10.18007c-5.6223,0 -10.18008,-4.55777 -10.18008,-10.18007z" fill="none" stroke="#868686" stroke-width="4"></path><path d="M333.45439,181.83029c0,0 1.11195,-2.59624 1.37385,-3.85664c0.26518,-1.27619 0.40519,-4.24789 0.40519,-4.24789l3.45925,0.49418c0,0 1.31569,2.9452 1.08465,4.36445c-0.23019,1.41403 -2.46834,4.13542 -2.46834,4.13542z" fill="#191919" stroke="none" stroke-width="0"></path><path d="M335.23343,176.74025c0,-0.84608 0.68588,-1.53195 1.53195,-1.53195c0.84607,0 1.53196,0.68588 1.53196,1.53195c0,0.84608 -0.68588,1.53195 -1.53196,1.53195c-0.84607,0 -1.53195,-0.68588 -1.53195,-1.53195z" fill="url(#color-1)" stroke="none" stroke-width="0"></path><path d="M334.59979,179.9612c0,-0.84608 0.68588,-1.53195 1.53196,-1.53195c0.84607,0 1.53195,0.68587 1.53195,1.53195c0,0.84608 -0.68588,1.53196 -1.53195,1.53196c-0.84607,0 -1.53196,-0.68588 -1.53196,-1.53196z" fill="url(#color-2)" stroke="none" stroke-width="0"></path><path d="M342.40987,174.81637l-4.26624,-8.63272l3.4502,-1.7326l3.8987,8.95602z" fill="url(#color-3)" stroke="none" stroke-width="0"></path><path d="M345.31468,179.35939c0,0 -0.28699,1.42353 -0.63821,1.59343c-0.48014,0.23227 -1.08033,-0.76192 -1.23145,-0.68727c-0.8395,0.41467 -1.76064,0.31681 -2.35415,0.80577c-1.05908,0.8725 -2.63262,3.15156 -2.63262,3.15156c0,0 -5.92941,-0.63888 -5.96782,-2.96855c-0.00344,-0.2084 0.94282,0.44112 2.13577,0.7329c1.0996,0.26895 2.45338,0.17448 2.45338,0.17448c0,0 2.40182,-2.50654 2.40005,-3.09301c-0.00397,-1.31489 -0.13387,-2.45745 -1.14073,-3.54351c-1.44675,-1.56056 -3.11984,-1.42996 -3.28263,-1.72298c-0.4228,-0.76104 7.19449,0.81306 7.19449,0.81306l3.16274,-1.77904l2.56973,5.63363z" fill="#353535" stroke="none" stroke-width="0"></path></g></g></svg>