<svg version="1.1" xmlns="http://www.w3.org/2000/svg" xmlns:xlink="http://www.w3.org/1999/xlink" width="169.69326" height="143.02775" viewBox="0,0,169.69326,143.02775"><defs><linearGradient x1="342.52293" y1="130.00588" x2="363.05379" y2="130.00588" gradientUnits="userSpaceOnUse" id="color-1"><stop offset="0" stop-color="#000000"></stop><stop offset="1" stop-color="#2d2d2d"></stop></linearGradient><linearGradient x1="329.25095" y1="108.91267" x2="334.40853" y2="106.6156" gradientUnits="userSpaceOnUse" id="color-2"><stop offset="0" stop-color="#4a4a4a"></stop><stop offset="1" stop-color="#313131"></stop></linearGradient><linearGradient x1="303.85648" y1="148.48361" x2="318.22808" y2="148.48361" gradientUnits="userSpaceOnUse" id="color-3"><stop offset="0" stop-color="#7f7f7f"></stop><stop offset="1" stop-color="#bbbbbb"></stop></linearGradient><linearGradient x1="302.14556" y1="144.12083" x2="305.39628" y2="144.12083" gradientUnits="userSpaceOnUse" id="color-4"><stop offset="0" stop-color="#bbbbbb"></stop><stop offset="1" stop-color="#7f7f7f"></stop></linearGradient><linearGradient x1="311.04229" y1="143.77866" x2="314.29294" y2="143.77866" gradientUnits="userSpaceOnUse" id="color-5"><stop offset="0" stop-color="#bbbbbb"></stop><stop offset="1" stop-color="#7f7f7f"></stop></linearGradient><linearGradient x1="306.765" y1="145.14738" x2="310.01572" y2="145.14738" gradientUnits="userSpaceOnUse" id="color-6"><stop offset="0" stop-color="#bbbbbb"></stop><stop offset="1" stop-color="#7f7f7f"></stop></linearGradient><linearGradient x1="328.83565" y1="134.28314" x2="351.76182" y2="134.28314" gradientUnits="userSpaceOnUse" id="color-7"><stop offset="0" stop-color="#000000"></stop><stop offset="1" stop-color="#313131"></stop></linearGradient><linearGradient x1="325.41384" y1="103.82905" x2="332.94185" y2="103.82905" gradientUnits="userSpaceOnUse" id="color-8"><stop offset="0" stop-color="#000000"></stop><stop offset="1" stop-color="#313131"></stop></linearGradient></defs><g transform="translate(-209.45998,-67.89594)"><g data-paper-data="{&quot;isPaintingLayer&quot;:true}" fill-rule="nonzero" stroke-linecap="butt" stroke-linejoin="miter" stroke-miterlimit="10" stroke-dasharray="" stroke-dashoffset="0" style="mix-blend-mode: normal"><path d="M294.14488,165.49729l0.62665,-9.74307l17.13813,5.73652l-0.32982,5.12792z" fill="#636363" stroke="#000000" stroke-width="0.25"></path><path d="M265.25118,180.8986c0,13.68291 -11.31403,24.77509 -25.2706,24.77509c-13.95657,0 -25.2706,-11.09219 -25.2706,-24.77509c0,-13.68291 11.31403,-24.77509 25.2706,-24.77509c13.95657,0 25.2706,11.09219 25.2706,24.77509z" fill="none" stroke="#000000" stroke-width="10.5"></path><path d="M288.28722,169.10005c0,0 -3.1499,-6.57469 -2.90921,-10.42587c0.26934,-4.30951 4.44902,-14.21116 4.44902,-14.21116c0,0 -1.93808,-12.50337 -0.82389,-13.18478c3.18618,-1.94858 21.52583,0.52408 21.52583,0.52408v40.89061z" fill="#464646" stroke="none" stroke-width="0"></path><path d="M295.64412,147.88484l2.90854,-13.00287l20.32458,-6.33035c0,0 3.08838,13.43466 3.76157,19.1261c0.56087,4.74188 0.00242,12.69672 0.00242,12.69672c0,0 -11.88572,12.13335 -14.27966,11.02585c-1.38812,-0.64217 -9.64299,-1.29216 -9.64299,-1.29216z" fill="#000000" stroke="none" stroke-width="0"></path><path d="M343.72057,132.99998l-16.11324,16.09426l-3.85028,-0.31966c0,0 5.38135,-10.00895 8.26151,-13.51458c3.02577,-3.68285 9.47781,-8.07709 9.47781,-8.07709l22.92612,0.17109c0,0 5.27364,2.75322 7.76578,4.43218c2.41573,1.62747 6.96497,5.49192 6.96497,5.49192l-3.99944,-0.30619l-11.24458,-5.51174z" fill="url(#color-1)" stroke="none" stroke-width="0"></path><path d="M332.89367,116.23937l-5.7456,-10.37614l5.15758,-1.6127l3.69253,11.23158z" fill="url(#color-2)" stroke="none" stroke-width="0"></path><path d="M299.6785,159.47431c0,4.11034 -3.4087,7.44243 -7.61353,7.44243c-4.20483,0 -7.61353,-3.33209 -7.61353,-7.44243c0,-4.11034 3.4087,-7.44243 7.61353,-7.44243c4.20483,0 7.61353,3.33209 7.61353,7.44243z" fill="#141414" stroke="none" stroke-width="0"></path><path d="M252.38902,126.66425c0,0 -23.00988,-5.52745 -22.79444,-6.22142c0.14127,-0.45503 24.4746,0.75191 24.4746,0.75191l36.10199,8.14242c0,0 10.75457,0.7242 18.42397,-2.37228c5.41593,-2.18665 8.26136,-6.62574 12.71387,-7.8184c4.45958,-1.19456 6.59179,1.47016 6.60478,1.7185c0.08127,1.55403 -36.2679,18.58208 -36.2679,18.58208l-2.16376,-6.57623l-24.60479,-3.71985l30.7668,17.87841l-0.1064,2.60874z" fill="#292929" stroke="none" stroke-width="0"></path><path d="M290.68253,129.74923c0,0 -14.60885,-3.38867 -21.0533,-4.92307c-5.31141,-1.26463 -15.56005,-3.63145 -15.56005,-3.63145c0,0 24.37917,2.35191 35.59131,2.25976c9.20565,-0.07567 28.56759,-2.94412 28.56759,-2.94412c0,0 -6.94014,5.81034 -11.46306,7.35689c-4.52292,1.54655 -16.0825,1.88199 -16.0825,1.88199z" fill="#6c778a" stroke="none" stroke-width="0"></path><path d="M238.40281,183.93066v-6.84362l41.91715,-17.62231c0,0 7.37237,4.1022 8.31846,6.09996c0.5889,1.24351 0.5332,5.10472 0.5332,5.10472l-10.90475,-5.2165z" fill="#292929" stroke="none" stroke-width="0"></path><path d="M300.26358,150.45119l-1.19763,-14.20051l15.39814,-3.25072l3.76399,24.80811z" fill="url(#color-3)" stroke="none" stroke-width="0"></path><path d="M302.14556,151.64882v-15.05596h3.25072v15.05596z" fill="url(#color-4)" stroke="none" stroke-width="0"></path><path d="M311.04229,154.55737v-21.5574h3.25072v21.5574z" fill="url(#color-5)" stroke="none" stroke-width="0"></path><path d="M306.765,154.04406v-17.79341h3.25072v17.79341z" fill="url(#color-6)" stroke="none" stroke-width="0"></path><path d="M288.01676,170.35474l0.17109,-4.67615l22.48175,4.44835l5.92441,-7.00159c0,0 -19.04182,-11.78453 -21.1234,-13.59764c-1.68775,-1.47009 -4.95256,-14.16257 -4.95256,-14.16257l42.18659,-19.03821c0,0 3.63729,8.65189 4.5489,10.33798c0.30878,0.57111 -0.74866,2.17339 -0.74866,2.17339l-35.40587,10.45455l1.01246,8.92886c0,0 23.31808,11.77429 22.77671,12.85702c-0.75767,1.51533 -12.33355,13.89543 -12.33355,13.89543z" fill="#292929" stroke="none" stroke-width="0"></path><path d="M350.22201,161.22985l-21.38631,-51.8404l4.79054,-2.05309l18.13559,45.16788z" fill="url(#color-7)" stroke="none" stroke-width="0"></path><path d="M341.60712,128.3805l-8.04124,-19.50431l2.19461,-0.16123c0,0 6.37726,5.26411 7.24489,8.52432c0.99647,3.74429 3.0501,9.94359 3.0501,9.94359z" fill="#292929" stroke="none" stroke-width="0"></path><path d="M332.94185,103.82905c0,2.03155 -1.68519,3.67844 -3.76399,3.67844c-2.0788,0 -3.76399,-1.6469 -3.76399,-3.67844c0,-2.03155 1.68519,-3.67845 3.76399,-3.67845c2.0788,0 3.76399,1.6469 3.76399,3.67845z" fill="url(#color-8)" stroke="none" stroke-width="0"></path><path d="M234.83332,68.21485v-0.31891h1.43513v0.31891z" fill="#ffffff" stroke="none" stroke-width="0"></path><path d="M325.01224,97.34678l7.61644,0.26811l1.59891,2.67877l-1.00611,3.23994c0,0 -0.16407,-2.25051 -1.52141,-2.69271c-1.25753,-0.40968 -3.41009,-0.223 -4.99972,0.12189c-1.09849,0.23834 -1.85519,0.3282 -1.85519,0.3282z" fill="#000000" stroke="#000000" stroke-width="0.25"></path><path d="M273.48852,93.89504c0,0 3.86003,-5.19173 9.47877,-10.56823c3.20461,-3.06644 6.99609,-7.01431 10.9326,-8.02839c10.83851,-2.79211 8.87824,-0.19632 10.10389,6.88814c0.78282,4.5248 -4.46375,7.04486 -10.0923,13.22714c-4.40376,4.83701 -6.62841,11.64833 -8.26973,14.34635c-1.61811,2.65983 -12.15322,-15.86498 -12.15322,-15.86498z" fill="#afafaf" stroke="#000000" stroke-width="0.25"></path><path d="M250.97175,101.60328l7.81777,5.84829l-14.16852,11.21946l-4.1146,-3.07805z" fill="#636363" stroke="#000000" stroke-width="0.25"></path><path d="M284.39244,124.512c-14.07972,-5.45625 -29.24591,-11.30187 -31.80828,-12.20305c-0.71996,-0.25321 5.80754,-4.70425 5.80754,-4.70425l28.13093,6.79688c0,0 4.51754,0.83293 4.20417,3.77832c-0.23339,2.19372 -5.01904,6.84183 -6.33437,6.33211z" fill="#d89856" stroke="#000000" stroke-width="0.25"></path><path d="M273.02037,93.43373l11.25538,16.57568c0,0 10.92781,3.73899 4.55049,7.62661c-2.86356,1.74565 -6.55784,2.97572 -8.64432,2.56361c-1.0263,-0.2027 -0.35462,-1.35888 -2.7774,-2.08097c-3.62115,-1.07925 -7.8267,-6.26052 -10.76733,-8.83263c-8.90799,-7.79167 6.38316,-15.8523 6.38316,-15.8523z" fill="#333333" stroke="#000000" stroke-width="0.25"></path><path d="M301.59444,82.44998l11.97377,11.80066l11.91891,3.31104l0.58064,3.44233c0,0 -10.51744,1.14479 -14.90754,-0.80763c-5.3195,-2.36575 -14.75998,-12.38645 -14.75998,-12.38645z" fill="#d89856" stroke="#000000" stroke-width="0.25"></path><path d="M297.22532,89.58364c0,0 -6.8018,-4.07425 -6.66786,-8.28331c0.07332,-2.30441 2.04923,-3.16054 3.31838,-3.779c1.04899,-0.51116 2.74804,-0.40803 4.27615,-0.11398c3.37697,0.64982 6.03163,6.48051 6.03163,6.48051z" fill="#afafaf" stroke="#000000" stroke-width="0.25"></path><path d="M272.42406,93.43624c0,0 18.02415,13.03889 16.4972,19.92399c-0.66079,2.97949 8.4525,10.31814 7.05084,17.65429c-1.40165,7.33615 -10.31734,-0.55768 -10.31734,-0.55768c0,0 -16.42611,-18.9808 -18.86318,-25.79992c-1.71076,-4.78686 5.63248,-11.22069 5.63248,-11.22069z" fill="#333333" stroke="#000000" stroke-width="0.25"></path><path d="M295.19534,125.02701c3.31059,14.73259 6.90296,30.58438 7.58169,33.21444c0.19071,0.73898 -7.14168,-2.20312 -7.14168,-2.20312l-10.02343,-27.14917c0,0 2.90998,-2.32773 5.53075,-3.708c1.95193,-1.02802 3.74341,-1.53046 4.05269,-0.15415z" fill="#d89856" stroke="#000000" stroke-width="0.25"></path><path d="M294.64488,165.6923l0.62665,-9.74307l17.13813,5.73652l-0.32982,5.12792z" fill="#636363" stroke="#000000" stroke-width="0.25"></path></g></g></svg>