<svg version="1.1" xmlns="http://www.w3.org/2000/svg" xmlns:xlink="http://www.w3.org/1999/xlink" width="123.44611" height="115.05402" viewBox="0,0,123.44611,115.05402"><defs><linearGradient x1="316.80366" y1="153.87913" x2="340.92079" y2="153.87913" gradientUnits="userSpaceOnUse" id="color-1"><stop offset="0" stop-color="#bababa"></stop><stop offset="1" stop-color="#828282"></stop></linearGradient></defs><g transform="translate(-210.30244,-94.25277)"><g data-paper-data="{&quot;isPaintingLayer&quot;:true}" fill-rule="nonzero" stroke-linecap="butt" stroke-linejoin="miter" stroke-miterlimit="10" stroke-dasharray="" stroke-dashoffset="0" style="mix-blend-mode: normal"><path d="M282.48465,146.76672c5.20235,14.1755 10.82991,29.42394 11.84561,31.94311c0.28538,0.70783 -7.36788,-1.25361 -7.36788,-1.25361l-13.4761,-25.61136c0,0 2.58182,-2.68712 5.00035,-4.39717c1.80131,-1.27363 3.51203,-2.00525 3.99804,-0.681z" fill="#d89856" stroke="#000000" stroke-width="0.25"></path><path d="M274.02231,152.89345c0,0 -1.85208,-2.6097 -7.81143,-6.16402c-4.65006,-2.77343 -8.72205,-7.24293 -9.6908,-7.87804c-5.25648,-3.44611 -3.6784,-7.31943 -3.6784,-7.31943c0,0 12.24774,-9.82313 17.24182,-4.7101c0.16303,0.16692 9.38468,16.11907 10.81347,18.17616c0,0 3.99863,4.00742 2.56428,5.39844c-1.42889,1.38572 -9.43894,2.49699 -9.43894,2.49699z" fill="#333333" stroke="#000000" stroke-width="0.25"></path><path d="M284.43495,184.02538l0.18588,-9.76144l17.37977,4.95648l-0.09784,5.13759z" fill="#636363" stroke="#000000" stroke-width="0.25"></path><path d="M232.33324,179.16842c0,-4.47769 3.62988,-8.10757 8.10756,-8.10757c4.47769,0 8.10756,3.62988 8.10756,8.10757c0,4.47769 -3.62988,8.10756 -8.10756,8.10756c-4.47769,0 -8.10756,-3.62988 -8.10756,-8.10756z" fill="#4c4c4c" stroke="none" stroke-width="0"></path><path d="M216.55244,179.16842c0,-13.19318 10.69519,-23.88837 23.88837,-23.88837c13.19318,0 23.88836,10.69519 23.88836,23.88837c0,13.19318 -10.69519,23.88837 -23.88836,23.88837c-13.19318,0 -23.88837,-10.69519 -23.88837,-23.88837z" fill="none" stroke="#000000" stroke-width="12.5"></path><path d="M229.44237,138.46138c1.33777,-2.31608 31.37489,9.49311 31.37489,9.49311l-1.16064,2.32368c0,0 -31.59874,-9.01349 -30.21425,-11.81679z" fill="#99aab5" stroke="none" stroke-width="0"></path><path d="M263.94974,146.25188l-16.93856,32.7402l-2.17213,-1.32337c0,0 15.43254,-31.55518 18.09725,-33.58849c3.04892,-2.32649 53.42307,-6.94934 53.42307,-6.94934l1.303,3.61945z" fill="#99aab5" stroke="none" stroke-width="0"></path><path d="M319.20615,144.52006l-4.65943,-10.56092l3.01965,-2.48012l6.68632,13.16692z" fill="#99aab5" stroke="none" stroke-width="0"></path><path d="M295.64403,181.97809l21.17887,-43.18862l4.18144,1.99481c0,0 -20.61752,45.27047 -24.36399,45.93941c-3.93797,0.70313 -55.87651,-3.6025 -55.87651,-3.6025c0,0 -5.43688,1.79079 -4.21181,-4.46682c1.00971,-5.15762 7.16094,-2.01634 8.41347,-2.07867c2.31248,-0.11509 2.65873,4.36316 4.81251,4.42643c16.41099,0.4821 45.86602,0.97595 45.86602,0.97595z" fill="#99aab5" stroke="none" stroke-width="0"></path><path d="M236.29714,139.73688c0,0 0.81419,-4.37995 2.89556,-4.92245c0.83737,-0.21826 7.63721,1.60014 17.5424,2.34841c5.82443,0.44 36.65382,-0.55198 37.64,-0.24805c1.73966,0.53614 2.89626,2.00092 1.99161,2.16214c-7.53471,1.34273 -29.98619,3.43935 -32.21653,4.4746c-2.45747,1.14067 -3.81988,4.4377 -3.81988,4.4377z" fill="#5d5d5d" stroke="none" stroke-width="0"></path><path d="M331.32873,160.67569l-14.52507,-29.44369l2.87762,-1.39333l14.06727,29.90149z" fill="url(#color-1)" stroke="none" stroke-width="0"></path><path d="M266.41096,157.54457c0,0 -5.15175,-2.11496 -5.53544,-3.75631c-0.46808,-2.00236 2.92944,-7.3916 2.92944,-7.3916l22.15103,-2.46123c0,0 5.76414,-1.35944 6.16654,-0.02621c0.51183,1.69579 0.7835,3.90387 -0.20238,5.4016c-3.15134,4.78743 -12.47917,7.65463 -12.47917,7.65463z" fill="#565656" stroke="none" stroke-width="0"></path><path d="M316.06982,128.58897l-1.44777,-19.97936l3.61944,-0.57912l0.86867,19.97936c0,0 1.06678,2.00815 0.6704,2.79578c-0.83924,1.66765 -3.69946,2.32722 -5.25276,2.87082c-0.7144,0.25001 -1.67153,-1.23493 -1.20876,-3.20538c0.36616,-1.55911 2.75078,-1.88211 2.75078,-1.88211z" fill="#232323" stroke="none" stroke-width="0"></path><path d="M318.8206,107.45138c0,1.67913 -1.45843,3.04035 -3.25751,3.04035c-1.79908,0 -3.2575,-1.36121 -3.2575,-3.04035c0,-1.67913 1.45843,-3.04034 3.2575,-3.04034c1.79908,0 3.25751,1.3612 3.25751,3.04034z" fill="#393939" stroke="none" stroke-width="0"></path><path d="M310.25875,112.00286l-2.58663,-3.03752l3.18218,-5.54979l3.89159,-1.05086l3.26445,2.04947c0,0 -3.74602,0.41959 -4.79503,1.38782c-0.97187,0.89704 -1.86073,2.86638 -2.33649,4.42186c-0.32876,1.07489 -0.62008,1.77903 -0.62008,1.77903z" fill="#d89856" stroke="#000000" stroke-width="0.25"></path><path d="M251.95808,129.88557c0,0 0.75117,-13.94128 2.88961,-18.1562c0.16033,-0.31602 3.38612,-5.08834 7.91542,-9.4559c5.567,-5.3682 13.35077,-7.88296 13.35077,-7.88296l14.39701,9.79318c0,0 -1.40235,1.60498 -3.41602,3.22346c-0.25353,0.20377 -0.51675,0.40776 -0.78809,0.6088c-5.82542,4.31593 -18.12544,11.89813 -15.80442,18.55763c1.0044,2.88187 -18.54428,3.312 -18.54428,3.312z" fill="#afafaf" stroke="#000000" stroke-width="0.25"></path><path d="M279.9863,100.33082l17.64647,7.02233l10.17076,1.1877l2.36404,3.36568l-12.39531,0.49488l-21.90031,-3.08175z" fill="#d89856" stroke="#000000" stroke-width="0.25"></path><path d="M282.52364,110.5874c0,0 -7.92742,-0.14145 -9.90943,-3.85705c-1.08513,-2.03426 0.20103,-3.76138 0.99298,-4.93016c0.65457,-0.96602 2.17889,-1.72356 3.65019,-2.23037c3.25142,-1.12001 8.45922,2.61136 8.45922,2.61136z" fill="#afafaf" stroke="#000000" stroke-width="0.25"></path><path d="M273.78916,153.51192c-4.09289,14.53471 -8.47007,30.18796 -9.12355,32.8244c-0.18361,0.74078 -5.23509,-5.33395 -5.23509,-5.33395l4.09149,-28.64972c0,0 3.66679,-0.66407 6.62864,-0.63216c2.20597,0.02377 4.02088,0.4336 3.63854,1.79142z" fill="#d89856" stroke="#000000" stroke-width="0.25"></path><path d="M263.62962,153.66939c0,0 -0.62798,-3.13791 -4.6219,-8.81203c-3.11644,-4.4275 -4.23229,-5.86963 -4.85818,-6.84435c-3.39614,-5.28891 -1.93991,-11.30942 -1.93991,-11.30942c0,0 15.96908,-5.15248 18.44636,1.55177c0.08087,0.21886 2.00225,18.54421 2.46886,21.00497c0,0 2.01873,5.28897 0.14205,5.97483c-1.86953,0.68324 -9.63727,-1.56577 -9.63727,-1.56577z" fill="#333333" stroke="#000000" stroke-width="0.25"></path><path d="M256.96228,188.97998l1.80215,-9.59544l16.31713,7.77014l-0.94851,5.05022z" fill="#636363" stroke="#000000" stroke-width="0.25"></path></g></g></svg>