<svg version="1.1" xmlns="http://www.w3.org/2000/svg" xmlns:xlink="http://www.w3.org/1999/xlink" width="62.49371" height="61.83202" viewBox="0,0,62.49371,61.83202"><defs><radialGradient cx="251.82936" cy="174.71531" r="7.37264" gradientUnits="userSpaceOnUse" id="color-1"><stop offset="0" stop-color="#ffffff"></stop><stop offset="1" stop-color="#e0e0e0"></stop></radialGradient><radialGradient cx="251.51518" cy="172.90192" r="7.37263" gradientUnits="userSpaceOnUse" id="color-2"><stop offset="0" stop-color="#ffffff"></stop><stop offset="1" stop-color="#e0e0e0"></stop></radialGradient><radialGradient cx="252.37415" cy="174.08312" r="7.37264" gradientUnits="userSpaceOnUse" id="color-3"><stop offset="0" stop-color="#ffffff"></stop><stop offset="1" stop-color="#e0e0e0"></stop></radialGradient><radialGradient cx="250.83848" cy="173.06885" r="7.37262" gradientUnits="userSpaceOnUse" id="color-4"><stop offset="0" stop-color="#ffffff"></stop><stop offset="1" stop-color="#e0e0e0"></stop></radialGradient><radialGradient cx="252.86054" cy="183.71147" r="7.37264" gradientUnits="userSpaceOnUse" id="color-5"><stop offset="0" stop-color="#ffffff"></stop><stop offset="1" stop-color="#e0e0e0"></stop></radialGradient><radialGradient cx="253.76742" cy="182.11005" r="7.37264" gradientUnits="userSpaceOnUse" id="color-6"><stop offset="0" stop-color="#ffffff"></stop><stop offset="1" stop-color="#e0e0e0"></stop></radialGradient><radialGradient cx="253.68263" cy="183.56808" r="7.37264" gradientUnits="userSpaceOnUse" id="color-7"><stop offset="0" stop-color="#ffffff"></stop><stop offset="1" stop-color="#e0e0e0"></stop></radialGradient><radialGradient cx="253.13832" cy="181.81006" r="7.37262" gradientUnits="userSpaceOnUse" id="color-8"><stop offset="0" stop-color="#ffffff"></stop><stop offset="1" stop-color="#e0e0e0"></stop></radialGradient><radialGradient cx="247.1195" cy="191.10687" r="7.37264" gradientUnits="userSpaceOnUse" id="color-9"><stop offset="0" stop-color="#ffffff"></stop><stop offset="1" stop-color="#e0e0e0"></stop></radialGradient><radialGradient cx="248.8976" cy="190.63215" r="7.37264" gradientUnits="userSpaceOnUse" id="color-10"><stop offset="0" stop-color="#ffffff"></stop><stop offset="1" stop-color="#e0e0e0"></stop></radialGradient><radialGradient cx="247.79774" cy="191.59306" r="7.37264" gradientUnits="userSpaceOnUse" id="color-11"><stop offset="0" stop-color="#ffffff"></stop><stop offset="1" stop-color="#e0e0e0"></stop></radialGradient><radialGradient cx="248.67094" cy="189.97304" r="7.37262" gradientUnits="userSpaceOnUse" id="color-12"><stop offset="0" stop-color="#ffffff"></stop><stop offset="1" stop-color="#e0e0e0"></stop></radialGradient><radialGradient cx="238.44307" cy="192.84213" r="7.37264" gradientUnits="userSpaceOnUse" id="color-13"><stop offset="0" stop-color="#ffffff"></stop><stop offset="1" stop-color="#e0e0e0"></stop></radialGradient><radialGradient cx="240.18326" cy="193.44104" r="7.37265" gradientUnits="userSpaceOnUse" id="color-14"><stop offset="0" stop-color="#ffffff"></stop><stop offset="1" stop-color="#e0e0e0"></stop></radialGradient><radialGradient cx="238.73431" cy="193.62418" r="7.37264" gradientUnits="userSpaceOnUse" id="color-15"><stop offset="0" stop-color="#ffffff"></stop><stop offset="1" stop-color="#e0e0e0"></stop></radialGradient><radialGradient cx="240.36323" cy="192.76769" r="7.37264" gradientUnits="userSpaceOnUse" id="color-16"><stop offset="0" stop-color="#ffffff"></stop><stop offset="1" stop-color="#e0e0e0"></stop></radialGradient><radialGradient cx="230.32955" cy="188.6186" r="7.37264" gradientUnits="userSpaceOnUse" id="color-17"><stop offset="0" stop-color="#ffffff"></stop><stop offset="1" stop-color="#e0e0e0"></stop></radialGradient><radialGradient cx="231.31746" cy="190.17135" r="7.37264" gradientUnits="userSpaceOnUse" id="color-18"><stop offset="0" stop-color="#ffffff"></stop><stop offset="1" stop-color="#e0e0e0"></stop></radialGradient><radialGradient cx="230.07006" cy="189.41175" r="7.37264" gradientUnits="userSpaceOnUse" id="color-19"><stop offset="0" stop-color="#ffffff"></stop><stop offset="1" stop-color="#e0e0e0"></stop></radialGradient><radialGradient cx="231.87778" cy="189.75683" r="7.37265" gradientUnits="userSpaceOnUse" id="color-20"><stop offset="0" stop-color="#ffffff"></stop><stop offset="1" stop-color="#e0e0e0"></stop></radialGradient><radialGradient cx="227.22195" cy="180.90115" r="7.37264" gradientUnits="userSpaceOnUse" id="color-21"><stop offset="0" stop-color="#ffffff"></stop><stop offset="1" stop-color="#e0e0e0"></stop></radialGradient><radialGradient cx="226.93039" cy="182.7183" r="7.37264" gradientUnits="userSpaceOnUse" id="color-22"><stop offset="0" stop-color="#ffffff"></stop><stop offset="1" stop-color="#e0e0e0"></stop></radialGradient><radialGradient cx="226.50143" cy="181.32223" r="7.37264" gradientUnits="userSpaceOnUse" id="color-23"><stop offset="0" stop-color="#ffffff"></stop><stop offset="1" stop-color="#e0e0e0"></stop></radialGradient><radialGradient cx="227.62461" cy="182.7801" r="7.37264" gradientUnits="userSpaceOnUse" id="color-24"><stop offset="0" stop-color="#ffffff"></stop><stop offset="1" stop-color="#e0e0e0"></stop></radialGradient><radialGradient cx="229.27994" cy="172.07942" r="7.37263" gradientUnits="userSpaceOnUse" id="color-25"><stop offset="0" stop-color="#ffffff"></stop><stop offset="1" stop-color="#e0e0e0"></stop></radialGradient><radialGradient cx="227.9184" cy="173.31766" r="7.37264" gradientUnits="userSpaceOnUse" id="color-26"><stop offset="0" stop-color="#ffffff"></stop><stop offset="1" stop-color="#e0e0e0"></stop></radialGradient><radialGradient cx="228.45413" cy="171.95896" r="7.37264" gradientUnits="userSpaceOnUse" id="color-27"><stop offset="0" stop-color="#ffffff"></stop><stop offset="1" stop-color="#e0e0e0"></stop></radialGradient><radialGradient cx="228.42241" cy="173.79908" r="7.37264" gradientUnits="userSpaceOnUse" id="color-28"><stop offset="0" stop-color="#ffffff"></stop><stop offset="1" stop-color="#e0e0e0"></stop></radialGradient><radialGradient cx="237.09829" cy="167.2085" r="7.37263" gradientUnits="userSpaceOnUse" id="color-29"><stop offset="0" stop-color="#ffffff"></stop><stop offset="1" stop-color="#e0e0e0"></stop></radialGradient><radialGradient cx="235.25839" cy="167.16625" r="7.37264" gradientUnits="userSpaceOnUse" id="color-30"><stop offset="0" stop-color="#ffffff"></stop><stop offset="1" stop-color="#e0e0e0"></stop></radialGradient><radialGradient cx="236.58334" cy="166.55179" r="7.37264" gradientUnits="userSpaceOnUse" id="color-31"><stop offset="0" stop-color="#ffffff"></stop><stop offset="1" stop-color="#e0e0e0"></stop></radialGradient><radialGradient cx="235.29139" cy="167.86243" r="7.37264" gradientUnits="userSpaceOnUse" id="color-32"><stop offset="0" stop-color="#ffffff"></stop><stop offset="1" stop-color="#e0e0e0"></stop></radialGradient><radialGradient cx="246.03845" cy="168.60717" r="7.37263" gradientUnits="userSpaceOnUse" id="color-33"><stop offset="0" stop-color="#ffffff"></stop><stop offset="1" stop-color="#e0e0e0"></stop></radialGradient><radialGradient cx="244.56398" cy="167.5058" r="7.37264" gradientUnits="userSpaceOnUse" id="color-34"><stop offset="0" stop-color="#ffffff"></stop><stop offset="1" stop-color="#e0e0e0"></stop></radialGradient><radialGradient cx="245.99973" cy="167.77354" r="7.37264" gradientUnits="userSpaceOnUse" id="color-35"><stop offset="0" stop-color="#ffffff"></stop><stop offset="1" stop-color="#e0e0e0"></stop></radialGradient><radialGradient cx="244.18712" cy="168.09211" r="7.37264" gradientUnits="userSpaceOnUse" id="color-36"><stop offset="0" stop-color="#ffffff"></stop><stop offset="1" stop-color="#e0e0e0"></stop></radialGradient><radialGradient cx="240.00001" cy="179.99998" r="4.5752" gradientUnits="userSpaceOnUse" id="color-37"><stop offset="0" stop-color="#a2a2a2"></stop><stop offset="1" stop-color="#c3c3c3"></stop></radialGradient><radialGradient cx="240.00001" cy="179.99998" r="24.30106" gradientUnits="userSpaceOnUse" id="color-38"><stop offset="0" stop-color="#ffffff"></stop><stop offset="1" stop-color="#c4c4c4"></stop></radialGradient></defs><g transform="translate(-208.75314,-149.08399)"><g data-paper-data="{&quot;isPaintingLayer&quot;:true}" fill="none" fill-rule="nonzero" stroke-linejoin="miter" stroke-miterlimit="10" stroke-dasharray="" stroke-dashoffset="0" style="mix-blend-mode: normal"><g stroke-width="0.4" stroke-linecap="round"><g><path d="M244.13309,174.41503l17.98091,0.86283" stroke="url(#color-1)"></path><path d="M261.71067,171.43827l-17.80139,2.67736" stroke="url(#color-2)"></path><path d="M246.87995,179.48094l12.95368,-12.50038" stroke="url(#color-3)"></path><path d="M246.50852,179.43862l10.25304,-14.79638" stroke="url(#color-4)"></path></g><g><path d="M247.0997,178.59917l13.35678,12.06871" stroke="url(#color-5)"></path><path d="M262.57928,187.44314l-15.46276,-9.21741" stroke="url(#color-6)"></path><path d="M246.01148,184.25814l17.94295,-1.45221" stroke="url(#color-7)"></path><path d="M263.0616,179.04985l-17.31049,4.94007" stroke="url(#color-8)"></path></g><g><path d="M246.73181,183.41452l0.74505,17.98618" stroke="url(#color-9)"></path><path d="M247.01006,183.16486l4.25508,17.49149" stroke="url(#color-10)"></path><path d="M241.93123,186.60241l13.60637,11.78663" stroke="url(#color-11)"></path><path d="M241.94022,186.22871l15.65223,8.89187" stroke="url(#color-12)"></path></g><g><path d="M232.99231,201.58166l9.4239,-15.33778" stroke="url(#color-13)"></path><path d="M242.78646,186.19216l-6.2357,16.88709" stroke="url(#color-14)"></path><path d="M236.65368,186.20843l4.70752,17.37518" stroke="url(#color-15)"></path><path d="M236.86979,185.90342l8.021,16.11586" stroke="url(#color-16)"></path></g><g><path d="M237.54849,185.93353l-16.92781,6.12427" stroke="url(#color-17)"></path><path d="M237.87028,186.12373l-15.39957,9.32264" stroke="url(#color-18)"></path><path d="M233.06346,182.31511l-7.14454,16.52311" stroke="url(#color-19)"></path><path d="M229.65431,199.814l3.76824,-17.60279" stroke="url(#color-20)"></path></g><g><path d="M217.67706,177.03004l16.72677,6.65376" stroke="url(#color-21)"></path><path d="M216.81195,180.79262l17.70635,3.24706" stroke="url(#color-22)"></path><path d="M217.14011,185.61827l16.31037,-7.61772" stroke="url(#color-23)"></path><path d="M233.78803,178.16115l-14.50144,10.66612" stroke="url(#color-24)"></path></g><g><path d="M224.23536,163.09927l8.92142,15.63541" stroke="url(#color-25)"></path><path d="M233.02423,179.08422l-11.8123,-13.58409" stroke="url(#color-26)"></path><path d="M218.45782,169.47624l17.49948,4.22204" stroke="url(#color-27)"></path><path d="M236.12093,174.03438l-17.98756,-0.71107" stroke="url(#color-28)"></path></g><g><path d="M239.63816,157.22653l-4.32209,17.47506" stroke="url(#color-29)"></path><path d="M235.79301,156.88009l-0.81396,17.98317" stroke="url(#color-30)"></path><path d="M240.81737,172.98575l-9.76083,-15.12559" stroke="url(#color-31)"></path><path d="M228.16855,160.42227l12.53553,12.91968" stroke="url(#color-32)"></path></g><g><path d="M240.24127,173.67823l13.65487,-11.73039" stroke="url(#color-33)"></path><path d="M239.87292,173.61451l11.09151,-14.17872" stroke="url(#color-34)"></path><path d="M245.71813,175.47052l0.81921,-17.98295" stroke="url(#color-35)"></path><path d="M242.69874,157.90016l2.7205,17.79486" stroke="url(#color-36)"></path></g></g><path d="M235.42481,179.99998c0,-2.52681 2.04839,-4.5752 4.57521,-4.5752c2.52681,0 4.5752,2.04838 4.5752,4.5752c0,2.52681 -2.04838,4.57521 -4.5752,4.57521c-2.52681,0 -4.57521,-2.04839 -4.57521,-4.57521z" stroke="url(#color-37)" stroke-width="7" stroke-linecap="butt"></path><path d="M215.69893,179.99998c0,-13.42111 10.87996,-24.30106 24.30106,-24.30106c13.42111,0 24.30107,10.87995 24.30107,24.30106c0,13.42111 -10.87996,24.30107 -24.30108,24.30107c-13.42111,0 -24.30106,-10.87996 -24.30106,-24.30107z" stroke="url(#color-38)" stroke-width="8" stroke-linecap="butt"></path><path d="M267.74686,180c0,15.14145 -12.4227,27.41601 -27.74686,27.41601c-15.32416,0 -27.74685,-12.27456 -27.74685,-27.41601c0,-15.14145 12.4227,-27.41601 27.74685,-27.41601c15.32416,0 27.74686,12.27456 27.74686,27.41601z" stroke="#141413" stroke-width="7" stroke-linecap="butt"></path></g></g></svg>