<svg version="1.1" xmlns="http://www.w3.org/2000/svg" xmlns:xlink="http://www.w3.org/1999/xlink" width="564" height="412.466" viewBox="0,0,564,412.466"><defs><linearGradient x1="239.37174" y1="-1.05529" x2="239.37174" y2="244.76528" gradientUnits="userSpaceOnUse" id="color-1"><stop offset="0" stop-color="#ffffff"/><stop offset="1" stop-color="#dce8f7"/></linearGradient><linearGradient x1="240.61912" y1="-6.966" x2="240.61912" y2="210.96063" gradientUnits="userSpaceOnUse" id="color-2"><stop offset="0" stop-color="#cacaca"/><stop offset="1" stop-color="#cacaca" stop-opacity="0"/></linearGradient></defs><g transform="translate(46.99999,6.966)"><g data-paper-data="{&quot;isPaintingLayer&quot;:true}" fill-rule="nonzero" stroke-linecap="butt" stroke-linejoin="miter" stroke-miterlimit="10" stroke-dasharray="" stroke-dashoffset="0" style="mix-blend-mode: normal"><path d="M-13.12826,244.76528v-245.82058h505v245.82058z" fill="url(#color-1)" stroke="none" stroke-width="0"/><path d="M-46.99998,399c0,-1.38071 1.11929,-2.5 2.5,-2.5c1.38071,0 2.5,1.11929 2.5,2.5c0,1.38071 -1.11929,2.5 -2.5,2.5c-1.38071,0 -2.5,-1.11929 -2.5,-2.5z" fill="#30afca" stroke="none" stroke-width="0.5"/><path d="M512.00001,403c0,-1.38071 1.11929,-2.5 2.5,-2.5c1.38071,0 2.5,1.11929 2.5,2.5c0,1.38071 -1.11929,2.5 -2.5,2.5c-1.38071,0 -2.5,-1.11929 -2.5,-2.5z" fill="#30afca" stroke="none" stroke-width="0.5"/><path d="M-23.53564,-3.92667c1.04096,0 1.88483,0.28129 1.88483,0.62828c0,0.34699 -0.84387,0.62828 -1.88483,0.62828c-1.04096,0 -1.88483,-0.28129 -1.88483,-0.62828c0,-0.34699 0.84387,-0.62828 1.88483,-0.62828z" fill="#ffffff" stroke="#8a8a8a" stroke-width="2"/><path d="M-11.65874,210.96063v-217.92663h504.55573v217.92663z" fill="url(#color-2)" stroke="none" stroke-width="0"/><path d="M-13.22821,360.47584v-166.11271h505.83194v166.11271z" fill="#b4d2f7" stroke="none" stroke-width="0"/></g></g></svg>