<svg version="1.1" xmlns="http://www.w3.org/2000/svg" xmlns:xlink="http://www.w3.org/1999/xlink" width="123.7437" height="112.03128" viewBox="0,0,123.7437,112.03128"><defs><radialGradient cx="263.45639" cy="183.95364" r="2.11728" gradientUnits="userSpaceOnUse" id="color-1"><stop offset="0" stop-color="#767676"></stop><stop offset="1" stop-color="#888888"></stop></radialGradient><radialGradient cx="265.19173" cy="186.96811" r="4.97433" gradientUnits="userSpaceOnUse" id="color-2"><stop offset="0" stop-color="#a59d98"></stop><stop offset="1" stop-color="#77716d"></stop></radialGradient></defs><g transform="translate(-220.49166,-76.1172)"><g data-paper-data="{&quot;isPaintingLayer&quot;:true}" fill-rule="nonzero" stroke="#000000" stroke-width="0.25" stroke-linecap="butt" stroke-linejoin="miter" stroke-miterlimit="10" stroke-dasharray="" stroke-dashoffset="0" style="mix-blend-mode: normal"><path d="M228.37637,154.98007c0.51353,-0.87516 0.93529,-1.81867 2.53891,-2.79779c1.60362,-0.97913 3.77324,-1.05624 3.77324,-1.05624l-6.53822,6.44423c0,0 -0.28745,-1.71503 0.22608,-2.59019z" fill="#e22f2f"></path><path d="M260.80607,172.16286l6.53433,1.41283l1.11848,4.17961c0,0 -3.03787,5.56502 -5.19896,5.53183c-1.04876,-0.01611 -4.01367,-2.21715 -4.64546,-4.86564c-1.09126,-4.57458 2.19161,-6.25863 2.19161,-6.25863z" fill="#171717"></path><path d="M237.97839,149.26547c0,0 -0.24346,-1.00798 0.12978,-2.30043c0.3672,-1.27154 1.77577,-2.28702 1.77577,-2.28702l3.2465,0.42346v3.45823z" fill="#1f1f1f"></path><path d="M233.17922,151.94736l0.56461,-1.7644l2.89362,-0.14115l-0.35288,1.97613c0,0 -8.329,5.54341 -8.89638,5.53052c-0.07302,-0.00166 -0.58755,-0.23654 -0.33721,-0.50792c0.33896,-0.36743 0.8944,-0.43164 1.62117,-1.04578c1.8809,-1.58944 4.50707,-4.04738 4.50707,-4.04738z" fill="#333333"></path><path d="M220.61666,176.01383l0.17614,-1.60364c0,0 0.68947,-0.51679 0.96625,-1.04525c1.17782,-2.24879 4.08025,-6.66717 4.08025,-6.66717c0,0 -0.27175,-1.46129 0.05462,-1.74794c0.05555,-0.04879 0.88167,-0.91458 1.35687,-0.91492c1.54114,-0.0011 4.09345,1.03961 4.09345,1.03961c0,0 -3.46156,3.99808 -5.32549,6.57185c-1.09267,1.50878 -0.92597,1.86189 -1.90194,2.99212c-0.87856,1.01743 -1.91026,1.4413 -2.1592,1.51648c-0.53269,0.16089 -1.34095,-0.14115 -1.34095,-0.14115z" fill="#333333"></path><path d="M256.25762,177.91938v-9.66893h13.55062v9.66893c0,0 3.24519,0.38993 4.71257,1.55452c1.49625,1.1875 4.18002,5.5031 4.18002,5.5031c0,0 -1.49122,0.13579 -3.39783,0.06471c-1.43819,-0.05362 -1.78983,-0.47968 -2.3185,-0.47827c-3.47664,0.00932 -13.19245,0.4427 -13.19245,0.4427l-1.64099,-1.11388z" fill="#000000"></path><path d="M260.35103,185.32988c0,0 -0.85409,-0.05265 -1.11363,-0.87198c-0.11928,-0.37654 0.74924,-1.0684 0.56176,-1.46019c-0.07055,-0.14745 -0.18307,-0.12313 -0.41883,-0.66173c-0.16309,-0.3726 -0.00154,-1.06349 0.03333,-1.18958c0.12347,-0.44635 2.98407,-0.26282 2.98407,-0.26282l7.83395,-0.70576c0,0 0.32523,-0.32156 0.74226,0.10551c0.40855,0.41838 0.91089,1.57798 0.73984,2.29408c-0.29845,1.24943 -3.54498,1.28978 -6.38315,1.65025c-2.60812,0.33126 -4.97961,1.10222 -4.97961,1.10222z" fill="url(#color-1)"></path><path d="M309.18973,129.50414c0,0 -5.81001,3.75365 -6.7365,3.34786c-0.49706,-0.2177 -3.03998,-5.72375 -3.41334,-6.95124c-0.39565,-1.30078 6.6668,-7.6778 6.65963,-7.78588c-0.03549,-0.53513 0.34724,-2.52144 0.44411,-2.66366c0.07241,-0.10632 0.5504,-0.05077 0.69558,-0.06516c0.18604,-0.01845 1.64476,1.97899 1.64476,1.97899c0,0 2.07711,0.37528 3.53371,0.68253c1.54897,0.32673 4.79428,1.2936 4.79428,1.2936c0,0 0.17479,0.39283 -0.06127,0.70818c-0.04158,0.05554 -1.41557,1.00343 -1.52665,1.25379c-0.17912,0.40372 -1.26437,6.16195 -1.66654,6.39491c-0.44693,0.25889 -1.77227,0.75934 -3.56426,0.81483c-0.94979,0.02941 -0.80351,0.99126 -0.80351,0.99126z" fill="#232323"></path><g fill="#333333"><path d="M312.80323,176.37507l3.91771,-7.7712c0,0 4.44238,-11.46957 10.59709,-11.75314c9.88069,-0.45524 17.32278,10.10317 16.76268,10.40442c-2.795,1.50322 -8.31859,-1.50192 -14.99117,0.41758c-5.64533,1.62399 -9.6744,6.64618 -11.00236,7.32371c-2.04149,1.04158 -5.28394,1.37863 -5.28394,1.37863z"></path><path d="M312.80323,176.37507l3.91771,-7.7712c0,0 5.0204,-7.74453 11.17511,-8.0281c7.63282,-0.26256 16.74476,6.37814 16.18465,6.67938c-2.795,1.50322 -8.31859,-1.50192 -14.99117,0.41758c-5.64533,1.62399 -9.6744,6.64618 -11.00236,7.32371c-2.04149,1.04158 -5.28394,1.37863 -5.28394,1.37863z"></path></g><path d="M300.65002,127.81032l-0.21173,-4.37572c0,0 5.19223,0.42531 6.84589,1.69383c1.40162,1.07519 -0.36867,2.83335 -1.27037,2.89362c-1.54061,0.10298 -5.36379,-0.21173 -5.36379,-0.21173z" fill="#262626"></path><path d="M323.65722,147.02433l-9.44105,-13.48721c0,0 0.79246,-0.10054 0.98389,-0.02041c0.10281,0.04303 2.17773,2.10713 2.29605,3.27876c0.07038,0.69691 5.97808,7.22758 8.62959,11.08732c0.51308,0.74688 3.73297,7.00381 3.82871,7.39587c0.1738,0.7117 -2.18681,0.48024 -2.18681,0.48024z" fill="#242424"></path><path d="M259.33438,187.40962l0.41208,-2.47244c0,0 1.13903,-0.1014 1.96442,-0.25964c1.31533,-0.25217 3.54671,-0.90198 6.34301,-1.59563c1.79278,-0.44471 3.67658,-0.48851 5.07845,-0.81245c1.18131,-0.27298 2.03748,-0.86435 2.03748,-0.86435l1.29509,1.35396c0,0 -6.15982,3.28225 -6.39809,3.30705c-1.02327,0.10649 -6.88764,1.662 -7.3285,1.69153c-0.18132,0.01215 -1.6043,-0.56551 -2.0516,-0.49685c-0.09129,0.01402 -0.569,0.51329 -1.00522,0.63395c-0.31795,0.08796 -0.34712,-0.48513 -0.34712,-0.48513z" fill="url(#color-2)"></path><path d="M267.46052,173.22805l13.74411,1.73407c0,0 21.90411,5.51894 25.81038,-0.4548c2.2915,-3.50433 11.12984,-13.36014 11.30798,-16.57475c0.39242,-7.08168 -10.27239,-24.39544 -10.27239,-24.39544c0,0 2.16383,-4.65546 2.25507,-4.6339c0.51897,0.12263 14.06996,16.49062 17.36641,26.73315c0.05007,0.15558 -3.61696,3.596 -7.03124,8.58149c-2.99113,4.36762 -5.52571,9.78206 -8.62453,13.68573c-2.13108,2.68458 -4.93521,4.58697 -6.70167,5.21576c-0.40193,0.14307 -6.53888,-0.56876 -11.79351,-0.2245c-7.20738,0.4722 -14.12457,2.1298 -15.04808,2.06632c-2.15146,-0.14789 -4.09042,-4.31332 -4.59893,-4.44479c-0.48038,-0.1242 -2.75449,-0.41537 -3.49219,-0.81854c-2.09094,-1.14275 -2.92141,-6.46978 -2.92141,-6.46978z" fill="#1e1e1e"></path><path d="M246.26573,175.63606c0,0 0.0614,-1.25635 0.97466,-1.55726c1.05547,-0.34776 9.26834,-1.20953 9.26834,-1.20953c0,0 0.55107,0.84985 0.60441,1.10008c0.02885,0.13536 -0.10788,2.55891 0.04638,3.48621c0.04994,0.30021 1.7801,3.14664 1.93311,3.59741c0.04868,0.14341 -0.67689,0.41496 -0.91759,0.75401c-0.03479,0.04901 0.27742,0.46437 0.24205,0.72001c-0.04661,0.33685 -0.43665,0.52641 -0.43665,0.52641c0,0 -3.38287,-4.42344 -4.77023,-5.14444c-2.1235,-1.10356 -6.94447,-2.2729 -6.94447,-2.2729z" fill="#262626"></path><g><path d="M260.74721,172.04513l6.53433,1.41283l1.11848,4.17961c0,0 -3.03787,5.56502 -5.19896,5.53183c-1.04876,-0.01611 -4.66122,-2.74696 -5.29301,-5.39545c-1.09126,-4.57458 2.83915,-5.72881 2.83915,-5.72881z" fill="#171717"></path><path d="M260.80607,172.04513l6.53433,1.41283l1.11848,4.17961c0,0 -3.03787,5.56502 -5.19896,5.53183c-1.04876,-0.01611 -4.01367,-2.21715 -4.64546,-4.86564c-1.09126,-4.57458 2.19161,-6.25863 2.19161,-6.25863z" fill="#171717"></path><path d="M258.68683,177.43153c0,-2.42213 1.96352,-4.38565 4.38565,-4.38565c2.42213,0 4.38565,1.96352 4.38565,4.38565c0,2.42213 -1.96352,4.38565 -4.38565,4.38565c-2.42213,0 -4.38565,-1.96352 -4.38565,-4.38565z" fill="#0e0e0e"></path></g><path d="M239.9596,144.52099c-0.45641,-0.29287 -2.88609,-4.90333 -0.56532,-6.23122c1.50537,-0.86133 9.31842,-0.71255 17.33161,0.32692c3.79626,0.49245 9.07938,2.53097 10.22356,2.69357c9.63823,1.3697 10.30066,-2.10085 15.92274,0.19618c10.37225,4.23781 4.7103,13.17091 2.73475,14.07236c-0.71633,0.32686 -2.41135,-0.97592 -2.41135,-0.97592c0,0 -11.12439,-5.68795 -22.93946,-7.71144c-7.79036,-1.3342 -17.98748,-0.86113 -18.24983,-1.02948z" fill="#2f2f2f"></path><path d="M266.16304,180.93416c0,0 0.57244,-0.93218 1.11426,-1.81402c0.4878,-0.79392 0.93962,-1.54702 1.11903,-1.54231c0.30919,0.00811 1.26084,3.39146 1.21708,3.43914c-0.33403,0.36393 -3.45038,-0.08281 -3.45038,-0.08281z" fill="#303030"></path><path d="M299.47375,125.74008c0,-1.01343 0.82155,-1.83498 1.83498,-1.83498c1.01343,0 1.83498,0.82155 1.83498,1.83498c0,1.01343 -0.82155,1.83498 -1.83498,1.83498c-1.01343,0 -1.83498,-0.82155 -1.83498,-1.83498z" fill="#090909"></path><path d="M304.81401,115.81237c0,0 0.06513,-1.93451 0.33241,-4.05214c0.19565,-1.55011 0.53236,-3.42766 0.86738,-3.57008c0.57947,-0.24634 2.5393,1.9555 2.9642,4.51687c0.20423,1.23111 -1.97613,2.89362 -1.97613,2.89362z" fill="#232323"></path><g><path d="M281.6542,170.20949l3.27547,-1.47717c0,0 4.07088,0.92125 7.90979,1.48798c2.81173,0.41509 7.34569,-0.04145 8.40118,-0.2836c1.9818,-0.45467 6.03926,-5.63589 6.03926,-5.63589c0,0 -0.08848,-1.12582 0.10565,-1.57701c0.05908,-0.13731 2.79966,-7.07747 2.50804,-10.85928c-0.6755,-8.76029 -7.26418,-18.64457 -7.26418,-18.64457c0,0 3.62891,1.39261 3.67497,1.48169c0.18614,0.36003 6.65594,9.20066 8.1296,17.19915c1.34741,7.31323 -5.8148,13.40965 -5.81977,13.42216c-0.26418,0.66515 -4.48352,7.02785 -7.24299,7.71243c-4.08956,1.01455 -19.71701,-2.82589 -19.71701,-2.82589z" fill="#831f1f"></path><path d="M278.50718,168.98922c0,0 -1.60561,-4.99538 -1.60561,-7.51431c0,-2.42263 1.60561,-7.32163 1.60561,-7.32163c0,0 2.56616,-0.16766 3.40492,-0.07316c0.50672,0.0571 1.15504,0.58695 1.15504,0.58695c0,0 -3.26087,4.1953 -2.70074,7.5962c0.92355,5.60747 4.55179,6.2956 4.61493,6.47372c0.11566,0.32635 -3.39135,1.60094 -3.39135,1.60094z" fill="#831f1f"></path><path d="M267.65319,173.42073c0,0 1.45253,-0.41174 2.154,-0.87939c0.71134,-0.47423 2.08484,-1.9465 2.08484,-1.9465c0,0 8.8002,-0.59468 9.8264,-0.32112c0.38453,0.1025 12.55507,2.65202 19.44365,1.39c3.99945,-0.73272 7.172,-6.20101 7.33571,-6.12232c0.06004,0.02886 6.13006,-9.73649 5.85539,-12.80173c-0.35445,-3.95562 -8.19099,-18.18306 -8.19099,-18.18306c0,0 -3.76292,-1.18053 -3.70075,-1.40381c0.06835,-0.24547 7.47365,-4.13744 7.66918,-4.20157c0.39979,-0.13114 -1.81053,4.25231 -1.66951,4.5909c1.52529,3.66201 11.18813,17.80672 11.52034,21.31552c0.29995,3.16816 -9.02792,16.82766 -9.04925,16.9448c-0.05555,0.30496 -6.10704,5.79702 -8.79719,6.13421c-3.64241,0.69963 -26.45371,-3.74522 -26.45371,-3.74522z" fill="#831f1f"></path><path d="M241.89905,145.86829c0,0 15.86174,0.10025 22.98851,1.68767c6.57239,1.46395 17.60157,6.72578 17.60157,6.72578c0,0 -4.91526,2.28741 -5.08174,7.52098c-0.1478,4.6464 4.11837,8.47099 4.11837,8.47099l-9.43595,0.35168c0,0 -2.41301,2.95068 -4.53479,2.7125c-9.96638,-1.11879 -34.56833,-6.53277 -40.26188,-9.13289c-0.31303,-0.14295 -0.91062,-0.65996 -1.4487,-1.11452c-0.62879,-0.53116 -1.32826,-0.95977 -1.62593,-1.38454c-1.1934,-1.70293 12.44497,-12.00412 16.38643,-14.9922c0.65378,-0.49564 1.29413,-0.84546 1.29413,-0.84546z" fill="#831f1f"></path><path d="M225.13637,161.53915c2.06828,-4.17512 19.15393,-15.75332 33.26845,-14.32213c14.11452,1.43119 22.09002,13.51624 11.11089,25.49724c-1.97802,2.15852 -31.16737,-6.1185 -41.13808,-9.66601c-1.30474,-0.46422 -1.85873,-0.26539 -2.56601,-0.6769c-0.38558,-0.22434 -0.71216,-0.75768 -0.67524,-0.8322z" fill="#721b1b"></path><path d="M225.90647,162.16407c1.73826,-1.49386 15.17768,-11.17454 29.57601,-9.76235c7.64863,0.75018 19.44977,7.26114 7.73293,18.88299c-1.91141,1.89592 -37.326,-9.08619 -37.30894,-9.12063z" fill="#621818"></path></g><g><path d="M232.0635,174.52835c0.43793,-0.47748 4.80379,-1.45462 6.00893,-1.33258c0.40351,0.04086 15.04099,3.95687 15.8218,4.71801c0.19744,0.19248 2.67064,2.44778 2.7206,2.55976c0.91826,2.0581 3.17203,4.1955 3.26642,4.63054c0.04268,0.19674 -0.32363,1.78855 -0.4329,2.29939c-0.05396,0.25223 -2.58009,0.9354 -8.30425,0.45016c-0.75686,-0.06416 -8.55362,-1.83574 -13.58743,-3.80805c-3.79559,-1.48716 -5.82163,-3.17389 -5.91283,-3.30411c-0.253,-0.36127 0.22587,-6.00182 0.41967,-6.21312z" fill="#1d1d1d"></path><path d="M233.11141,179.58219c0,0 -0.74254,-1.9685 -0.56002,-3.3613c0.08108,-0.61875 1.40927,-1.89324 1.63123,-1.89875c4.74244,-0.11771 15.00414,1.83001 18.15532,3.05583c0.28086,0.10926 0.63129,0.76385 1.34978,1.68155c0.27651,0.35318 2.27232,2.1739 2.09603,2.60294c-0.56067,1.36457 -6.02947,4.86308 -6.71745,4.8221c-2.47372,-0.14733 -15.95489,-6.90239 -15.95489,-6.90239z" fill="#191919"></path></g><path d="M263.40925,83.72617c0,0 8.16187,-5.26924 16.62209,-6.96127c7.33927,-1.46782 14.95634,0.54018 17.00543,1.32851c0.24305,0.09351 4.17084,8.23247 0.58248,12.86913c-3.58836,4.63666 -6.84496,2.88008 -14.26721,4.81348c-6.80222,1.77189 -16.23493,0.64464 -16.51196,0.02206c-1.63273,-3.66932 -3.43086,-12.07191 -3.43086,-12.07191z" fill="#afafaf"></path><path d="M292.94335,87.72315l3.7426,18.46286l2.99919,12.78503l-3.46947,1.47798c0,0 -2.28691,-4.37897 -4.8339,-8.793c-2.45301,-4.25113 -5.56059,-19.74524 -5.56059,-19.74524z" fill="#d89856"></path><path d="M266.75696,112.93381c-11.76444,9.4661 -24.40926,19.67849 -26.47077,21.44712c-0.57923,0.49695 -1.17075,-7.38151 -1.17075,-7.38151l19.95027,-20.96506c0,0 10.26591,4.82784 7.69127,6.89947z" fill="#d89856"></path><path d="M237.76616,136.3466l1.00676,-9.71116l16.90097,6.40159l-0.52987,5.11113z" fill="#636363"></path><path d="M267.04424,112.90503c-1.23084,0.32222 -9.32741,-2.61157 -9.88335,-5.10904c-1.10949,-4.98419 -1.0377,-11.18948 -0.03938,-17.09646c0.7132,-4.2199 6.11287,-7.07081 6.11287,-7.07081c0,0 8.67222,6.55214 9.33708,9.94671c0.32003,1.63395 -4.44373,18.37586 -5.52723,19.3296z" fill="#333333"></path><path d="M299.46738,117.77964l4.90838,3.18529l1.33625,3.80305l-1.80201,3.40731c0,0 -0.69594,-3.70464 -1.73922,-4.67904c-0.96656,-0.90276 -2.99634,-1.64328 -4.58278,-2.0025c-1.0963,-0.24825 -1.6708,-1.01792 -1.6708,-1.01792z" fill="#383838"></path><path d="M285.01002,95.59438c0,0 -1.86117,-4.15453 -0.81295,-8.23317c0.57389,-2.23301 2.6889,-2.63785 4.06234,-2.96475c1.13518,-0.27019 2.77089,0.20081 4.19816,0.82088c3.1541,1.37032 2.46059,9.12738 2.46059,9.12738z" fill="#afafaf"></path></g></g></svg>