<svg version="1.1" xmlns="http://www.w3.org/2000/svg" xmlns:xlink="http://www.w3.org/1999/xlink" width="70.18357" height="69.45402" viewBox="0,0,70.18357,69.45402"><defs><radialGradient cx="252.70054" cy="175.06095" r="7.98025" gradientUnits="userSpaceOnUse" id="color-1"><stop offset="0" stop-color="#2d2d2d"></stop><stop offset="1" stop-color="#000000"></stop></radialGradient><radialGradient cx="252.36047" cy="173.09812" r="7.98024" gradientUnits="userSpaceOnUse" id="color-2"><stop offset="0" stop-color="#2d2d2d"></stop><stop offset="1" stop-color="#000000"></stop></radialGradient><radialGradient cx="253.29022" cy="174.37666" r="7.98025" gradientUnits="userSpaceOnUse" id="color-3"><stop offset="0" stop-color="#2d2d2d"></stop><stop offset="1" stop-color="#000000"></stop></radialGradient><radialGradient cx="251.62799" cy="173.27881" r="7.98024" gradientUnits="userSpaceOnUse" id="color-4"><stop offset="0" stop-color="#2d2d2d"></stop><stop offset="1" stop-color="#000000"></stop></radialGradient><radialGradient cx="253.8167" cy="184.79853" r="7.98025" gradientUnits="userSpaceOnUse" id="color-5"><stop offset="0" stop-color="#2d2d2d"></stop><stop offset="1" stop-color="#000000"></stop></radialGradient><radialGradient cx="254.79834" cy="183.06514" r="7.98025" gradientUnits="userSpaceOnUse" id="color-6"><stop offset="0" stop-color="#2d2d2d"></stop><stop offset="1" stop-color="#000000"></stop></radialGradient><radialGradient cx="254.70656" cy="184.64332" r="7.98025" gradientUnits="userSpaceOnUse" id="color-7"><stop offset="0" stop-color="#2d2d2d"></stop><stop offset="1" stop-color="#000000"></stop></radialGradient><radialGradient cx="254.11737" cy="182.74041" r="7.98024" gradientUnits="userSpaceOnUse" id="color-8"><stop offset="0" stop-color="#2d2d2d"></stop><stop offset="1" stop-color="#000000"></stop></radialGradient><radialGradient cx="247.60251" cy="192.80342" r="7.98025" gradientUnits="userSpaceOnUse" id="color-9"><stop offset="0" stop-color="#2d2d2d"></stop><stop offset="1" stop-color="#000000"></stop></radialGradient><radialGradient cx="249.52714" cy="192.28957" r="7.98025" gradientUnits="userSpaceOnUse" id="color-10"><stop offset="0" stop-color="#2d2d2d"></stop><stop offset="1" stop-color="#000000"></stop></radialGradient><radialGradient cx="248.33665" cy="193.32968" r="7.98025" gradientUnits="userSpaceOnUse" id="color-11"><stop offset="0" stop-color="#2d2d2d"></stop><stop offset="1" stop-color="#000000"></stop></radialGradient><radialGradient cx="249.28181" cy="191.57614" r="7.98024" gradientUnits="userSpaceOnUse" id="color-12"><stop offset="0" stop-color="#2d2d2d"></stop><stop offset="1" stop-color="#000000"></stop></radialGradient><radialGradient cx="238.21102" cy="194.68169" r="7.98025" gradientUnits="userSpaceOnUse" id="color-13"><stop offset="0" stop-color="#2d2d2d"></stop><stop offset="1" stop-color="#000000"></stop></radialGradient><radialGradient cx="240.09463" cy="195.32996" r="7.98025" gradientUnits="userSpaceOnUse" id="color-14"><stop offset="0" stop-color="#2d2d2d"></stop><stop offset="1" stop-color="#000000"></stop></radialGradient><radialGradient cx="238.52627" cy="195.52819" r="7.98025" gradientUnits="userSpaceOnUse" id="color-15"><stop offset="0" stop-color="#2d2d2d"></stop><stop offset="1" stop-color="#000000"></stop></radialGradient><radialGradient cx="240.28943" cy="194.60112" r="7.98025" gradientUnits="userSpaceOnUse" id="color-16"><stop offset="0" stop-color="#2d2d2d"></stop><stop offset="1" stop-color="#000000"></stop></radialGradient><radialGradient cx="229.42882" cy="190.11008" r="7.98025" gradientUnits="userSpaceOnUse" id="color-17"><stop offset="0" stop-color="#2d2d2d"></stop><stop offset="1" stop-color="#000000"></stop></radialGradient><radialGradient cx="230.49816" cy="191.7908" r="7.98025" gradientUnits="userSpaceOnUse" id="color-18"><stop offset="0" stop-color="#2d2d2d"></stop><stop offset="1" stop-color="#000000"></stop></radialGradient><radialGradient cx="229.14795" cy="190.9686" r="7.98025" gradientUnits="userSpaceOnUse" id="color-19"><stop offset="0" stop-color="#2d2d2d"></stop><stop offset="1" stop-color="#000000"></stop></radialGradient><radialGradient cx="231.10466" cy="191.34212" r="7.98025" gradientUnits="userSpaceOnUse" id="color-20"><stop offset="0" stop-color="#2d2d2d"></stop><stop offset="1" stop-color="#000000"></stop></radialGradient><radialGradient cx="226.06512" cy="181.7566" r="7.98025" gradientUnits="userSpaceOnUse" id="color-21"><stop offset="0" stop-color="#2d2d2d"></stop><stop offset="1" stop-color="#000000"></stop></radialGradient><radialGradient cx="225.74952" cy="183.72351" r="7.98025" gradientUnits="userSpaceOnUse" id="color-22"><stop offset="0" stop-color="#2d2d2d"></stop><stop offset="1" stop-color="#000000"></stop></radialGradient><radialGradient cx="225.28521" cy="182.21238" r="7.98025" gradientUnits="userSpaceOnUse" id="color-23"><stop offset="0" stop-color="#2d2d2d"></stop><stop offset="1" stop-color="#000000"></stop></radialGradient><radialGradient cx="226.50096" cy="183.79041" r="7.98025" gradientUnits="userSpaceOnUse" id="color-24"><stop offset="0" stop-color="#2d2d2d"></stop><stop offset="1" stop-color="#000000"></stop></radialGradient><radialGradient cx="228.29271" cy="172.20783" r="7.98024" gradientUnits="userSpaceOnUse" id="color-25"><stop offset="0" stop-color="#2d2d2d"></stop><stop offset="1" stop-color="#000000"></stop></radialGradient><radialGradient cx="226.81897" cy="173.54812" r="7.98025" gradientUnits="userSpaceOnUse" id="color-26"><stop offset="0" stop-color="#2d2d2d"></stop><stop offset="1" stop-color="#000000"></stop></radialGradient><radialGradient cx="227.39884" cy="172.07745" r="7.98025" gradientUnits="userSpaceOnUse" id="color-27"><stop offset="0" stop-color="#2d2d2d"></stop><stop offset="1" stop-color="#000000"></stop></radialGradient><radialGradient cx="227.36451" cy="174.06922" r="7.98025" gradientUnits="userSpaceOnUse" id="color-28"><stop offset="0" stop-color="#2d2d2d"></stop><stop offset="1" stop-color="#000000"></stop></radialGradient><radialGradient cx="236.75541" cy="166.93548" r="7.98024" gradientUnits="userSpaceOnUse" id="color-29"><stop offset="0" stop-color="#2d2d2d"></stop><stop offset="1" stop-color="#000000"></stop></radialGradient><radialGradient cx="234.76388" cy="166.88975" r="7.98025" gradientUnits="userSpaceOnUse" id="color-30"><stop offset="0" stop-color="#2d2d2d"></stop><stop offset="1" stop-color="#000000"></stop></radialGradient><radialGradient cx="236.19802" cy="166.22464" r="7.98025" gradientUnits="userSpaceOnUse" id="color-31"><stop offset="0" stop-color="#2d2d2d"></stop><stop offset="1" stop-color="#000000"></stop></radialGradient><radialGradient cx="234.79958" cy="167.6433" r="7.98025" gradientUnits="userSpaceOnUse" id="color-32"><stop offset="0" stop-color="#2d2d2d"></stop><stop offset="1" stop-color="#000000"></stop></radialGradient><radialGradient cx="246.43236" cy="168.44942" r="7.98024" gradientUnits="userSpaceOnUse" id="color-33"><stop offset="0" stop-color="#2d2d2d"></stop><stop offset="1" stop-color="#000000"></stop></radialGradient><radialGradient cx="244.83638" cy="167.25728" r="7.98025" gradientUnits="userSpaceOnUse" id="color-34"><stop offset="0" stop-color="#2d2d2d"></stop><stop offset="1" stop-color="#000000"></stop></radialGradient><radialGradient cx="246.39045" cy="167.54709" r="7.98025" gradientUnits="userSpaceOnUse" id="color-35"><stop offset="0" stop-color="#2d2d2d"></stop><stop offset="1" stop-color="#000000"></stop></radialGradient><radialGradient cx="244.42847" cy="167.89191" r="7.98025" gradientUnits="userSpaceOnUse" id="color-36"><stop offset="0" stop-color="#2d2d2d"></stop><stop offset="1" stop-color="#000000"></stop></radialGradient><radialGradient cx="240.14292" cy="180.55947" r="5.19938" gradientUnits="userSpaceOnUse" id="color-37"><stop offset="0" stop-color="#3e3e3e"></stop><stop offset="1" stop-color="#282828"></stop></radialGradient><radialGradient cx="240.14294" cy="180.55947" r="27.61633" gradientUnits="userSpaceOnUse" id="color-38"><stop offset="0" stop-color="#ffffff"></stop><stop offset="1" stop-color="#020202"></stop></radialGradient></defs><g transform="translate(-204.90822,-145.27299)"><g data-paper-data="{&quot;isPaintingLayer&quot;:true}" fill="none" fill-rule="nonzero" stroke-linejoin="miter" stroke-miterlimit="10" stroke-dasharray="" stroke-dashoffset="0" style="mix-blend-mode: normal"><g stroke-width="0.5" stroke-linecap="round"><g><path d="M263.83279,175.66987l-19.4628,-0.93394" stroke="url(#color-1)"></path><path d="M244.12773,174.41185l19.26848,-2.898" stroke="url(#color-2)"></path><path d="M261.36448,166.68875l-14.02126,13.53059" stroke="url(#color-3)"></path><path d="M246.94118,180.17353l11.09804,-16.01581" stroke="url(#color-4)"></path></g><g><path d="M247.58108,179.2649l14.45758,13.06335" stroke="url(#color-5)"></path><path d="M247.59929,178.86068l16.73712,9.97706" stroke="url(#color-6)"></path><path d="M265.82489,183.81836l-19.4217,1.5719" stroke="url(#color-7)"></path><path d="M264.85849,179.75272l-18.73713,5.34721" stroke="url(#color-8)"></path></g><g><path d="M247.98933,203.9456l-0.80645,-19.4685" stroke="url(#color-9)"></path><path d="M247.48406,184.20688l4.60575,18.93305" stroke="url(#color-10)"></path><path d="M256.7144,200.68575l-14.72773,-12.75802" stroke="url(#color-11)"></path><path d="M258.9386,197.14792l-16.9422,-9.62469" stroke="url(#color-12)"></path></g><g><path d="M232.31104,204.1415l10.20057,-16.60184" stroke="url(#color-13)"></path><path d="M236.16276,205.76251l6.74961,-18.27884" stroke="url(#color-14)"></path><path d="M236.27416,187.50127l5.09548,18.80716" stroke="url(#color-15)"></path><path d="M236.50808,187.17112l8.68205,17.44405" stroke="url(#color-16)"></path></g><g><path d="M218.9198,193.83272l18.32292,-6.629" stroke="url(#color-17)"></path><path d="M237.59103,187.40959l-16.66872,10.09096" stroke="url(#color-18)"></path><path d="M224.6547,201.17195l7.73336,-17.88485" stroke="url(#color-19)"></path><path d="M228.69793,202.22815l4.0788,-19.05352" stroke="url(#color-20)"></path></g><g><path d="M215.73358,177.56646l18.10531,7.20213" stroke="url(#color-21)"></path><path d="M233.96279,185.15379l-19.16561,-3.51467" stroke="url(#color-22)"></path><path d="M215.15239,186.86248l17.65458,-8.24553" stroke="url(#color-23)"></path><path d="M217.47578,190.33596l15.69656,-11.54518" stroke="url(#color-24)"></path></g><g><path d="M222.83238,162.48759l9.65667,16.92399" stroke="url(#color-25)"></path><path d="M232.34558,179.78993l-12.7858,-14.70362" stroke="url(#color-26)"></path><path d="M216.57868,169.39011l18.9417,4.56999" stroke="url(#color-27)"></path><path d="M235.6975,174.32391l-19.47,-0.76968" stroke="url(#color-28)"></path></g><g><path d="M234.82631,175.04611l4.67829,-18.91526" stroke="url(#color-29)"></path><path d="M234.46152,175.22111l0.88104,-19.46526" stroke="url(#color-30)"></path><path d="M240.781,173.18885l-10.56526,-16.37217" stroke="url(#color-31)"></path><path d="M240.65836,173.57442l-13.56864,-13.98445" stroke="url(#color-32)"></path></g><g><path d="M240.15742,173.9384l14.78023,-12.69714" stroke="url(#color-33)"></path><path d="M251.76432,158.52219l-12.00561,15.34725" stroke="url(#color-34)"></path><path d="M246.97238,156.4134l-0.88673,19.46501" stroke="url(#color-35)"></path><path d="M242.81742,156.86l2.94471,19.26141" stroke="url(#color-36)"></path></g></g><path d="M234.94355,180.55947c0,-2.87153 2.32784,-5.19937 5.19937,-5.19937c2.87153,0 5.19938,2.32784 5.19938,5.19937c0,2.87153 -2.32784,5.19938 -5.19938,5.19938c-2.87153,0 -5.19937,-2.32784 -5.19937,-5.19938z" stroke="url(#color-37)" stroke-width="7" stroke-linecap="butt"></path><path d="M270.59178,180c0,16.69392 -13.6964,30.22701 -30.59178,30.22701c-16.89538,0 -30.59179,-13.5331 -30.59179,-30.22701c0,-16.69392 13.69641,-30.22701 30.59179,-30.22701c16.89538,0 30.59178,13.5331 30.59178,30.22701z" stroke="#000000" stroke-width="9" stroke-linecap="butt"></path><path d="M212.5266,180.55947c0,-15.25207 12.36424,-27.61633 27.61633,-27.61633c15.25207,0 27.61633,12.36424 27.61633,27.61633c0,15.25207 -12.36424,27.61633 -27.61633,27.61633c-15.25207,0 -27.61633,-12.36425 -27.61633,-27.61633z" stroke="url(#color-38)" stroke-width="8" stroke-linecap="butt"></path></g></g></svg>