<svg version="1.1" xmlns="http://www.w3.org/2000/svg" xmlns:xlink="http://www.w3.org/1999/xlink" width="168.62593" height="113.25769" viewBox="0,0,168.62593,113.25769"><defs><linearGradient x1="236.74599" y1="165.77024" x2="274.61271" y2="165.77024" gradientUnits="userSpaceOnUse" id="color-1"><stop offset="0" stop-color="#888888"></stop><stop offset="1" stop-color="#6b6b6b"></stop></linearGradient><linearGradient x1="271.38599" y1="144.45486" x2="322.9512" y2="144.45486" gradientUnits="userSpaceOnUse" id="color-2"><stop offset="0" stop-color="#888888"></stop><stop offset="1" stop-color="#6b6b6b"></stop></linearGradient><linearGradient x1="280.84823" y1="160.32522" x2="325.25068" y2="160.32522" gradientUnits="userSpaceOnUse" id="color-3"><stop offset="0" stop-color="#888888"></stop><stop offset="1" stop-color="#6b6b6b"></stop></linearGradient><linearGradient x1="270.46353" y1="167.25698" x2="283.43926" y2="167.25698" gradientUnits="userSpaceOnUse" id="color-4"><stop offset="0" stop-color="#888888"></stop><stop offset="1" stop-color="#6b6b6b"></stop></linearGradient><linearGradient x1="239.54569" y1="181.59099" x2="284.81183" y2="181.59099" gradientUnits="userSpaceOnUse" id="color-5"><stop offset="0" stop-color="#888888"></stop><stop offset="1" stop-color="#6b6b6b"></stop></linearGradient><linearGradient x1="319.50104" y1="155.43354" x2="344.95786" y2="155.43354" gradientUnits="userSpaceOnUse" id="color-6"><stop offset="0" stop-color="#888888"></stop><stop offset="1" stop-color="#6b6b6b"></stop></linearGradient><linearGradient x1="318.02784" y1="126.46909" x2="328.17729" y2="126.46909" gradientUnits="userSpaceOnUse" id="color-7"><stop offset="0" stop-color="#ffc02a"></stop><stop offset="1" stop-color="#ff9d00"></stop></linearGradient><linearGradient x1="265.4439" y1="146.2054" x2="274.73258" y2="146.2054" gradientUnits="userSpaceOnUse" id="color-8"><stop offset="0" stop-color="#888888"></stop><stop offset="1" stop-color="#6b6b6b"></stop></linearGradient></defs><g transform="translate(-206.74686,-99.52847)"><g data-paper-data="{&quot;isPaintingLayer&quot;:true}" fill-rule="nonzero" stroke-linecap="butt" stroke-linejoin="miter" stroke-miterlimit="10" stroke-dasharray="" stroke-dashoffset="0" style="mix-blend-mode: normal"><path d="M272.41888,195.29772l2.49175,-9.43988l15.7121,8.93044l-1.31145,4.96835z" fill="#636363" stroke="#000000" stroke-width="0.25"></path><path d="M280.43318,155.17273c0.41061,15.09439 0.88212,31.3413 1.0415,34.05284c0.04478,0.76188 -6.58353,-3.53758 -6.58353,-3.53758l-4.60588,-28.57153c0,0 3.30388,-1.72358 6.14144,-2.57315c2.11341,-0.63276 3.96812,-0.78069 4.00648,0.62942z" fill="#d89856" stroke="#000000" stroke-width="0.25"></path><path d="M255.79469,133.78887c0,0 14.59228,-3.21967 18.8698,1.05594c0.95091,0.95048 1.1801,3.3779 0.86483,4.62118c-0.69879,2.75569 5.06646,15.35236 4.95541,15.85157c-1.62179,7.29064 -9.8499,4.26086 -9.8499,4.26086z" fill="#333333" stroke="#000000" stroke-width="0.25"></path><path d="M346.18825,179.87693c0,2.38448 -2.00458,4.31746 -4.47737,4.31746c-2.47278,0 -4.47737,-1.933 -4.47737,-4.31746c0,-2.38448 2.00459,-4.31745 4.47737,-4.31745c2.47278,0 4.47737,1.93299 4.47737,4.31745z" fill="#707070" stroke="none" stroke-width="0"></path><path d="M270.81093,179.6215c0,16.50044 -13.6137,29.87668 -30.40703,29.87668c-16.79334,0 -30.40704,-13.37624 -30.40704,-29.87668c0,-16.50044 13.6137,-29.87668 30.40704,-29.87668c16.79335,0 30.40703,13.37624 30.40703,29.87668z" fill="none" stroke="#000000" stroke-width="6.5"></path><path d="M244.23688,179.83896c0,2.38448 -2.00459,4.31746 -4.47737,4.31746c-2.47278,0 -4.47737,-1.93299 -4.47737,-4.31746c0,-2.38448 2.00459,-4.31746 4.47737,-4.31746c2.47278,0 4.47737,1.93299 4.47737,4.31746z" fill="#888888" stroke="none" stroke-width="0"></path><path d="M374.42738,179.24365c0,17.22355 -14.21029,31.18599 -31.73958,31.18599c-17.52929,0 -31.73959,-13.96244 -31.73959,-31.18599c0,-17.22355 14.2103,-31.18598 31.73959,-31.18598c17.52929,0 31.73958,13.96244 31.73958,31.18598z" fill="none" stroke="none" stroke-width="0"></path><path d="M239.56784,180.3096l-2.82184,-3.9253l35.045,-25.15338l2.82185,3.9253z" fill="url(#color-1)" stroke="none" stroke-width="0"></path><path d="M272.98681,155.86014l-1.60082,-4.50241l49.96437,-18.30814l1.60082,4.50241z" fill="url(#color-2)" stroke="none" stroke-width="0"></path><path d="M284.67404,183.66418l-3.82589,-3.68076l40.57662,-42.99714l3.8259,3.68077z" fill="url(#color-3)" stroke="none" stroke-width="0"></path><path d="M283.43926,180.27924l-4.01981,1.31762l-8.95589,-27.36214l4.01981,-1.31762z" fill="url(#color-4)" stroke="none" stroke-width="0"></path><path d="M372.1228,179.65948c0,16.50044 -13.6137,29.87668 -30.40704,29.87668c-16.79334,0 -30.40704,-13.37624 -30.40704,-29.87668c0,-16.50044 13.6137,-29.87668 30.40704,-29.87668c16.79334,0 30.40704,13.37624 30.40704,29.87668z" fill="none" stroke="#000000" stroke-width="6.5"></path><path d="M239.63973,184.37127l-0.09404,-4.83356l45.17221,-0.72701l0.09403,4.83355z" fill="url(#color-5)" stroke="none" stroke-width="0"></path><path d="M319.50104,129.8125l4.45971,-1.71616l20.99701,52.95822l-4.4597,1.71615z" fill="url(#color-6)" stroke="none" stroke-width="0"></path><path d="M319.82975,129.97125l-1.80204,-3.06175l8.88044,-3.94261l1.26902,4.1278z" fill="url(#color-7)" stroke="none" stroke-width="0"></path><path d="M322.34515,111.6028c0,1.06456 -2.01461,1.75298 -3.42295,1.75298c-1.40834,0 -2.55002,-0.863 -2.55002,-1.92757c0,-1.06456 1.14168,-1.92756 2.55002,-1.92756c1.40834,0 3.42295,1.03758 3.42295,2.10215z" fill="#000000" stroke="none" stroke-width="0"></path><path d="M323.93455,124.21874l-4.08573,-11.30607l3.13824,-1.51601l3.87253,11.8391z" fill="#000000" stroke="none" stroke-width="0"></path><path d="M270.78617,152.41071l-5.34225,-10.43857l3.9465,-1.97205l5.34225,10.43856z" fill="url(#color-8)" stroke="none" stroke-width="0"></path><path d="M254.25765,141.40823l1.49246,-6.07643c0,0 5.60407,-0.19671 8.77172,-0.63415c4.06736,-0.56168 13.61512,-2.45737 13.61512,-2.45737l0.53302,3.30473c0,0 -3.038,0.61937 -6.24167,1.55083c-0.89226,0.25942 -1.61626,2.661 -3.0558,3.09653c-1.76322,0.53346 -3.21102,1.71088 -5.25666,2.05227c-4.6087,0.76914 -9.85819,-0.83641 -9.85819,-0.83641z" fill="#383838" stroke="none" stroke-width="0"></path><path d="M272.41833,166.15305l4.77846,-8.5139l12.97191,12.58383l-2.51498,4.48099z" fill="#636363" stroke="#000000" stroke-width="0.25"></path><path d="M312.68003,112.82129l0.15946,-3.98645l6.10251,-1.91985l3.57241,1.86726l1.00877,3.72013c0,0 -3.03728,-2.23241 -4.46483,-2.23241c-1.32258,0 -3.31144,0.84427 -4.71605,1.6646c-0.97063,0.56688 -1.66228,0.88672 -1.66228,0.88672z" fill="#d89856" stroke="#000000" stroke-width="0.25"></path><path d="M255.866,135.16127c0,0 0.75117,-13.94128 2.88961,-18.1562c0.16033,-0.31602 3.38612,-5.08834 7.91542,-9.4559c5.567,-5.3682 13.35077,-7.88296 13.35077,-7.88296l14.39701,9.79318c0,0 -1.40235,1.60498 -3.41602,3.22346c-0.25353,0.20377 -0.51675,0.40776 -0.78809,0.6088c-5.82542,4.31593 -15.38989,11.70273 -13.06887,18.36223c1.0044,2.88187 -21.27983,3.5074 -21.27983,3.5074z" fill="#afafaf" stroke="#000000" stroke-width="0.25"></path><path d="M283.89423,105.60651l17.64647,7.02233l11.92933,-3.89261l0.60547,3.36568l-12.39531,5.57519l-21.90031,-3.08175z" fill="#d89856" stroke="#000000" stroke-width="0.25"></path><path d="M286.43156,115.86309c0,0 -7.92742,-0.14145 -9.90943,-3.85705c-1.08513,-2.03426 0.20103,-3.76138 0.99298,-4.93016c0.65457,-0.96602 2.17889,-1.72356 3.65019,-2.23037c3.25142,-1.12001 8.45922,2.61136 8.45922,2.61136z" fill="#afafaf" stroke="#000000" stroke-width="0.25"></path><path d="M290.67121,130.50664c-3.38616,14.71541 -7.00227,30.5618 -7.52767,33.22672c-0.14763,0.74878 -5.48658,-5.07492 -5.48658,-5.07492l2.7031,-28.81388c0,0 3.63044,-0.84038 6.59037,-0.95155c2.20454,-0.0828 4.03713,0.23891 3.7208,1.61362z" fill="#d89856" stroke="#000000" stroke-width="0.25"></path><path d="M277.9792,128.02383c2.85073,1.08963 4.58571,-2.7204 10.02231,-0.82395c5.4366,1.89645 2.17554,7.4488 2.17554,7.4488c0,0 -19.74096,6.94267 -26.5847,7.27002c-6.27824,0.3003 -7.353,-6.941 -7.353,-6.941c0,0 15.15228,-9.4718 21.73985,-6.95387z" fill="#333333" stroke="#000000" stroke-width="0.25"></path></g></g></svg>