<svg version="1.1" xmlns="http://www.w3.org/2000/svg" xmlns:xlink="http://www.w3.org/1999/xlink" width="18.94071" height="9.92378" viewBox="0,0,18.94071,9.92378"><g transform="translate(-238.45663,-178.29054)"><g data-paper-data="{&quot;isPaintingLayer&quot;:true}" fill-rule="nonzero" stroke="#000000" stroke-width="0.25" stroke-linecap="butt" stroke-linejoin="miter" stroke-miterlimit="10" stroke-dasharray="" stroke-dashoffset="0" style="mix-blend-mode: normal"><path d="M244.09799,183.85869l1.3,-3.26667c0,0 1.08132,0.04672 1.53495,0.22874c0.59762,0.2398 9.23172,3.53793 9.23172,3.53793c0,0 1.3845,0.60437 1.05777,2.11291c-0.42746,1.97367 -2.05777,1.58709 -2.05777,1.58709c0,0 -5.94451,-2.17673 -7.98519,-2.9512c-1.27719,-0.48471 -3.08148,-1.2488 -3.08148,-1.2488z" fill="#737373"></path><path d="M238.62882,182.887c0,0 0.47686,-1.02066 0.46935,-1.42831c-0.01091,-0.59178 -0.41321,-1.4127 -0.10102,-1.72094c0.12228,-0.14809 0.64686,-1.29212 1.13103,-1.32221c0.98926,-0.06146 2.23313,1.14114 2.49669,1.27461c0.32914,0.16666 0.79487,0.31313 1.27319,0.46833c0.70725,0.22949 1.6691,0.47189 1.6691,0.47189c0,0 -1.09704,2.3772 -1.2984,3.14547c-0.02382,0.09086 -0.30301,0.07854 -0.46218,0.22547c-0.21307,0.19667 -0.31667,0.54672 -0.31667,0.54672z" fill="#5a5a5a"></path></g></g></svg>