<svg version="1.1" xmlns="http://www.w3.org/2000/svg" xmlns:xlink="http://www.w3.org/1999/xlink" width="167.96795" height="149.52807" viewBox="0,0,167.96795,149.52807"><defs><radialGradient cx="240" cy="180.00004" r="5" gradientUnits="userSpaceOnUse" id="color-1"><stop offset="0" stop-color="#444444"></stop><stop offset="1" stop-color="#888888"></stop></radialGradient><radialGradient cx="299.86941" cy="153.49372" r="17.66768" gradientUnits="userSpaceOnUse" id="color-2"><stop offset="0" stop-color="#000000"></stop><stop offset="1" stop-color="#313131"></stop></radialGradient><radialGradient cx="318.96766" cy="132.94635" r="11.09389" gradientUnits="userSpaceOnUse" id="color-3"><stop offset="0" stop-color="#000000"></stop><stop offset="1" stop-color="#313131"></stop></radialGradient><radialGradient cx="324.4356" cy="147.23154" r="19.35244" gradientUnits="userSpaceOnUse" id="color-4"><stop offset="0" stop-color="#000000"></stop><stop offset="1" stop-color="#313131"></stop></radialGradient><radialGradient cx="308.64814" cy="167.70466" r="15.76582" gradientUnits="userSpaceOnUse" id="color-5"><stop offset="0" stop-color="#000000"></stop><stop offset="1" stop-color="#313131"></stop></radialGradient><radialGradient cx="331.85248" cy="128.22717" r="9.96113" gradientUnits="userSpaceOnUse" id="color-6"><stop offset="0" stop-color="#000000"></stop><stop offset="1" stop-color="#313131"></stop></radialGradient><radialGradient cx="289.51548" cy="143.17528" r="16.07746" gradientUnits="userSpaceOnUse" id="color-7"><stop offset="0" stop-color="#000000"></stop><stop offset="1" stop-color="#313131"></stop></radialGradient><radialGradient cx="294.44264" cy="134.56374" r="16.10742" gradientUnits="userSpaceOnUse" id="color-8"><stop offset="0" stop-color="#000000"></stop><stop offset="1" stop-color="#313131"></stop></radialGradient><radialGradient cx="248.29225" cy="121.17378" r="7.82408" gradientUnits="userSpaceOnUse" id="color-9"><stop offset="0" stop-color="#000000"></stop><stop offset="1" stop-color="#313131"></stop></radialGradient><radialGradient cx="293.50586" cy="177.2579" r="7.20136" gradientUnits="userSpaceOnUse" id="color-10"><stop offset="0" stop-color="#000000"></stop><stop offset="1" stop-color="#313131"></stop></radialGradient><radialGradient cx="264.03898" cy="174.3821" r="26.36619" gradientUnits="userSpaceOnUse" id="color-11"><stop offset="0" stop-color="#000000"></stop><stop offset="1" stop-color="#313131"></stop></radialGradient><radialGradient cx="264.81419" cy="173.08329" r="26.36619" gradientUnits="userSpaceOnUse" id="color-12"><stop offset="0" stop-color="#000000"></stop><stop offset="1" stop-color="#313131"></stop></radialGradient></defs><g transform="translate(-197.8371,-58.19808)"><g data-paper-data="{&quot;isPaintingLayer&quot;:true}" fill-rule="nonzero" stroke-linecap="butt" stroke-linejoin="miter" stroke-miterlimit="10" stroke-dasharray="" stroke-dashoffset="0" style="mix-blend-mode: normal"><path d="M243.33333,180.00004c0,1.79493 -1.49238,3.25 -3.33333,3.25c-1.84095,0 -3.33333,-1.45507 -3.33333,-3.25c0,-1.79493 1.49238,-3.25 3.33333,-3.25c1.84095,0 3.33333,1.45507 3.33333,3.25z" fill="none" stroke="url(#color-1)" stroke-width="10"></path><path d="M263.31579,180.57615c0,12.23311 -10.43883,22.15 -23.31579,22.15c-12.87696,0 -23.31579,-9.91689 -23.31579,-22.15c0,-12.23311 10.43883,-22.15 23.31579,-22.15c12.87696,0 23.31579,9.91689 23.31579,22.15z" fill="none" stroke="#000000" stroke-width="10"></path><path d="M297.0555,170.56203l3.55409,-42.04039l23.72112,-3.37164l-0.67355,38.96781z" fill="#111111" stroke="none" stroke-width="0"></path><path d="M296.78741,183.75889c-0.42405,-1.69619 -3.56961,-13.12623 -3.56961,-13.12623l26.501,0.5761c0,0 -4.37996,5.88848 -6.84507,8.15639c-2.32794,2.1417 -7.36561,5.09412 -7.36561,5.09412c0,0 -8.58403,-0.15364 -8.72071,-0.70038z" fill="#111111" stroke="none" stroke-width="0"></path><path d="M294.05944,171.16141l-7.65231,-0.7074l21.19259,-34.62796l5.73196,3.77998z" fill="url(#color-2)" stroke="none" stroke-width="0"></path><path d="M311.70752,141.28184l-3.83375,-5.43402l19.31422,-11.23697l2.87357,4.08977z" data-paper-data="{&quot;index&quot;:null}" fill="url(#color-3)" stroke="none" stroke-width="0"></path><path d="M307.04442,176.48976c0,3.65903 -3.13818,6.62525 -7.00932,6.62525c-3.87115,0 -7.00933,-2.96622 -7.00933,-6.62525c0,-3.65903 3.13818,-6.62525 7.00933,-6.62525c3.87115,0 7.00932,2.96622 7.00932,6.62525z" fill="#464646" stroke="none" stroke-width="0"></path><path d="M324.51586,164.43872l-6.03621,2.14527l5.10753,-38.70489l6.80437,0.92732z" fill="url(#color-4)" stroke="none" stroke-width="0"></path><path d="M300.51518,131.45725l1.34426,-5.18498c0,0 9.62615,-3.14782 14.0786,-3.83812c3.64056,-0.56443 11.27019,1.72571 11.27019,1.72571c0,0 -1.89204,2.33701 -4.48682,3.23373c-1.40248,0.48468 -4.11154,-1.45811 -6.96065,-0.91872c-6.77883,1.28337 -15.24557,4.98237 -15.24557,4.98237z" fill="#5c5c5c" stroke="none" stroke-width="0"></path><path d="M292.88232,170.66426l0.6249,-8.77467l30.90674,1.89531l-6.19394,9.73484z" fill="url(#color-5)" stroke="none" stroke-width="0"></path><path d="M329.14077,137.45009l-7.24942,-9.75706l12.67284,-8.68874l7.24942,9.75706z" data-paper-data="{&quot;index&quot;:null}" fill="url(#color-6)" stroke="none" stroke-width="0"></path><path d="M305.59294,152.08859l-3.96515,4.60403l-28.18977,-26.6554l5.88552,-0.37924z" fill="url(#color-7)" stroke="none" stroke-width="0"></path><path d="M310.55006,134.78006l-0.58559,3.74449l-31.62925,-4.1771l0.58559,-3.7445z" fill="url(#color-8)" stroke="none" stroke-width="0"></path><path d="M240.46817,120.20985c0,0 6.16547,-0.49441 8.97626,-0.70659c2.30373,-0.1739 6.6719,-0.47466 6.6719,-0.47466l-0.92708,4.29037z" fill="url(#color-9)" stroke="none" stroke-width="0"></path><path d="M361.25596,160.58413l-30.64854,-46.60377l5.12674,-3.4342l30.07089,46.60377z" fill="#313131" stroke="none" stroke-width="0"></path><path d="M254.75219,123.22957l0.80425,-4.4082l46.30091,7.43281l-0.22814,7.28874c0,0 -8.2007,-2.10112 -14.54981,-2.03282c-3.91475,0.04211 -9.65697,0.07891 -12.40402,-0.53304c-7.63049,-1.69982 -19.9232,-7.7475 -19.9232,-7.7475z" fill="#000000" stroke="none" stroke-width="0"></path><path d="M286.3045,170.24858l9.21774,-0.19204c0,0 -0.77917,3.51139 -0.01197,5.6425c0.92971,2.58254 5.19695,8.76022 5.19695,8.76022c0,0 -2.82305,-0.06321 -4.82359,-1.13585c-1.20501,-0.6461 -1.4998,-2.02552 -2.42769,-2.94104c-0.2159,-0.21302 -2.75287,-4.14085 -2.99709,-4.47199c-2.38445,-3.23308 -4.15435,-5.6618 -4.15435,-5.6618z" fill="url(#color-10)" stroke="none" stroke-width="0"></path><path d="M337.57819,104.66819c0,0.9015 -0.68782,1.63231 -1.53629,1.63231c-0.84847,0 -3.26461,-1.11488 -3.26461,-2.01638c0,-0.9015 2.41614,-1.24823 3.26461,-1.24823c0.84847,0 1.53629,0.73081 1.53629,1.63231z" fill="#5c5c5c" stroke="none" stroke-width="0"></path><path d="M331.62503,113.79573l-6.54559,-5.1799l6.50333,-4.17808l3.31891,7.25289z" fill="#5c5c5c" stroke="none" stroke-width="0"></path><path d="M334.22766,104.86023c0,3.12873 -2.60309,5.66507 -5.81416,5.66507c-3.21107,0 -5.81415,-2.53634 -5.81415,-5.66507c0,-3.12873 2.60308,-5.66507 5.81415,-5.66507c3.21107,0 5.81416,2.53634 5.81416,5.66507z" fill="#000000" stroke="none" stroke-width="0"></path><g stroke="none" stroke-width="0"><path d="M237.96138,183.13939c0,0 -0.59852,-3.18964 -0.07166,-4.13582c0.22795,-0.40938 0.6819,-0.87975 0.6819,-0.87975l51.83355,-12.49902l-0.99432,5.20349z" fill="url(#color-11)"></path><path d="M238.73658,183.33849c0,0 -0.59852,-3.18964 -0.07166,-4.13582c0.22795,-0.40938 0.68191,-0.87975 0.68191,-0.87975l37.56452,-15.49484l14.26903,2.99582l-0.99432,5.20349l-15.27071,-3.32989c0,0 -8.66855,2.79989 -10.31362,3.33001c-0.25841,0.08327 0.81229,1.47569 -0.98554,2.41539c-6.96201,3.63894 -24.8796,9.8956 -24.8796,9.8956z" fill="url(#color-12)"></path></g><text transform="translate(198.0871,79.94808) scale(0.5,0.5)" font-size="40" xml:space="preserve" fill="#747474" fill-rule="nonzero" stroke="none" stroke-width="1" stroke-linecap="butt" stroke-linejoin="miter" stroke-miterlimit="10" stroke-dasharray="" stroke-dashoffset="0" font-family="Sans Serif" font-weight="normal" text-anchor="start" style="mix-blend-mode: normal"><tspan x="0" dy="0">OG ERIDEPRO</tspan></text></g></g></svg>