<svg version="1.1" xmlns="http://www.w3.org/2000/svg" xmlns:xlink="http://www.w3.org/1999/xlink" width="139.90992" height="92.67095" viewBox="0,0,139.90992,92.67095"><defs><linearGradient x1="324.39108" y1="129.03313" x2="353.40404" y2="129.03313" gradientUnits="userSpaceOnUse" id="color-1"><stop offset="0" stop-color="#888888"></stop><stop offset="1" stop-color="#888888" stop-opacity="0"></stop></linearGradient><linearGradient x1="332.17537" y1="152.51603" x2="335.25763" y2="151.11637" gradientUnits="userSpaceOnUse" id="color-2"><stop offset="0" stop-color="#858228"></stop><stop offset="1" stop-color="#ae9600"></stop></linearGradient><linearGradient x1="268.81815" y1="190.14228" x2="284.17109" y2="190.14228" gradientUnits="userSpaceOnUse" id="color-3"><stop offset="0" stop-color="#c9c9c9"></stop><stop offset="1" stop-color="#cccccc"></stop></linearGradient></defs><g transform="translate(-214.70698,-112.37901)"><g data-paper-data="{&quot;isPaintingLayer&quot;:true}" fill-rule="nonzero" stroke-linejoin="miter" stroke-miterlimit="10" stroke-dasharray="" stroke-dashoffset="0" style="mix-blend-mode: normal"><path d="M253.69397,155.53998c0.20481,-0.60842 4.02846,-8.35747 4.74411,-9.09289c1.21738,-1.25099 0.98836,0.49418 0.98836,0.49418l-4.34877,9.48823c0,0 -1.58851,-0.28111 -1.3837,-0.88952z" fill="#000000" stroke="none" stroke-width="0" stroke-linecap="butt"></path><path d="M277.26895,142.09384v-3.57409c0,0 5.09737,-11.36141 22.39594,-10.61673c18.96723,0.8165 19.15597,8.31031 19.15597,8.31031l-11.26822,6.05667z" fill="#000000" stroke="none" stroke-width="0" stroke-linecap="butt"></path><path d="M336.91364,141.50531l5.33713,-3.75576l-1.28486,-3.45925h4.4476v7.31384z" fill="#464646" stroke="none" stroke-width="0" stroke-linecap="butt"></path><path d="M286.21092,166.60959c0,-4.25767 3.45152,-7.70919 7.70918,-7.70919c4.25766,0 7.70919,3.45153 7.70919,7.70919c0,4.25767 -3.45153,7.70918 -7.70919,7.70918c-4.25766,0 -7.70918,-3.45152 -7.70918,-7.70918z" fill="#9966ff" stroke="none" stroke-width="0" stroke-linecap="butt"></path><path d="M324.39108,119.55241l5.95618,-4.49412c0,0 6.15452,5.07993 11.48694,11.19884c6.13898,7.04441 11.56984,15.33873 11.56984,16.74286c0,0.2767 -4.91316,-6.71209 -11.08281,-11.79c-7.88238,-6.48758 -17.93015,-11.65757 -17.93015,-11.65757z" fill="url(#color-1)" stroke="none" stroke-width="0.5" stroke-linecap="butt"></path><path d="M219.70698,179.62632c0,-11.27967 9.14398,-20.42364 20.42365,-20.42364c11.27966,0 20.42364,9.14397 20.42364,20.42364c0,11.27967 -9.14398,20.42365 -20.42364,20.42365c-11.27967,0 -20.42365,-9.14398 -20.42365,-20.42365z" fill="none" stroke="#000000" stroke-width="10" stroke-linecap="butt"></path><path d="M254.44708,164.72216c0,0 -2.69297,-3.77775 -4.10101,-5.4527c-1.57335,-1.87161 -5.78784,-5.15376 -5.78784,-5.15376c0,0 6.49206,-0.44346 9.21959,0.67028c2.90343,1.18556 8.99114,5.84577 8.99114,5.84577l-2.67993,3.38517z" fill="#292929" stroke="none" stroke-width="0" stroke-linecap="butt"></path><path d="M275.46335,187.14893v-3.38517h15.79746v3.38517z" fill="#3c3c3c" stroke="none" stroke-width="0" stroke-linecap="butt"></path><path d="M280.96425,175.58293l3.52622,-20.16998l20.45207,-1.55154c0,0 26.23507,-6.8141 26.23507,-3.52622c0,4.10071 -26.23507,26.23507 -26.23507,26.23507z" fill="#464646" stroke="none" stroke-width="0" stroke-linecap="butt"></path><path d="M287.1704,166.27371c0,-3.73916 3.03119,-6.77034 6.77035,-6.77034c3.73916,0 6.77034,3.03118 6.77034,6.77034c0,3.73916 -3.03118,6.77034 -6.77034,6.77034c-3.73916,0 -6.77035,-3.03118 -6.77035,-6.77034z" fill="#313131" stroke="none" stroke-width="0" stroke-linecap="butt"></path><path d="M240.78846,183.73348c0,0 -3.4794,1.69187 -4.49063,-2.61972c-0.91034,-3.88135 2.65955,-5.9723 2.65955,-5.9723l21.40961,-14.08527c0,0 2.28374,-0.58909 3.00366,-0.27914c1.20088,0.51703 17.0969,5.15285 17.0969,5.15285l0.50249,8.6279l-18.7698,-0.82173c0,0 -5.36421,2.71528 -7.13409,4.06c-4.87616,3.70481 -14.27768,5.93741 -14.27768,5.93741z" fill="#1d1d1d" stroke="none" stroke-width="0" stroke-linecap="butt"></path><path d="M325.67672,138.205l-0.42314,-1.69258l-0.70525,-1.83364c0,0 1.57789,-2.0093 2.0343,-1.59092c0.62068,0.56895 2.90241,6.10449 2.90241,6.10449z" fill="#1e1e1e" stroke="none" stroke-width="0" stroke-linecap="butt"></path><path d="M302.02463,127.56948l0.29651,3.65692l-10.67426,9.09289" fill="none" stroke="#000000" stroke-width="0.5" stroke-linecap="round"></path><path d="M290.95503,166.60959c0,-1.58298 1.28325,-2.86624 2.86623,-2.86624c1.58298,0 2.86624,1.28326 2.86624,2.86624c0,1.58298 -1.28325,2.86623 -2.86624,2.86623c-1.58298,0 -2.86623,-1.28325 -2.86623,-2.86623z" fill="#353535" stroke="none" stroke-width="0" stroke-linecap="butt"></path><path d="M338.42377,166.21384l-13.03319,-28.58161c0,0 2.71871,0.20328 3.62038,0.67094c0.66107,0.34287 1.2955,1.87875 1.2955,1.87875l11.19955,24.5056z" fill="url(#color-2)" stroke="none" stroke-width="0" stroke-linecap="butt"></path><path d="M233.74582,136.40697l-11.26822,-10.00055l3.23961,-0.28171c0,0 5.04625,-0.83494 8.16399,-0.97069c5.10504,-0.22227 11.97795,0.52784 11.97795,0.82984c0,0.4318 1.98621,2.53177 2.29213,3.85908c0.3272,1.41963 -0.17934,2.90186 -0.17934,2.90186c0,0 7.33982,3.695 9.14798,4.65282c0.76157,0.40342 3.73271,2.426 4.00086,3.52624c0.04922,0.20199 14.45302,3.14184 21.53302,6.33795c2.9563,1.33456 9.45492,3.8817 9.30154,4.92615c-0.06316,0.43009 -11.52227,5.1257 -11.52227,5.1257c0,0 -7.43798,-3.75937 -7.60887,-3.55384c-0.32963,0.39644 -13.72283,-5.10016 -13.72283,-5.10016l-3.53045,-1.94862l-17.65794,-10.25706z" fill="#5a5a5a" stroke="none" stroke-width="0" stroke-linecap="butt"></path><path d="M246.42257,139.92828c0,0 -6.15817,-6.86201 -9.42089,-9.17829c-2.82439,-2.0051 -10.29848,-4.34357 -10.29848,-4.34357l12.39504,-0.14086c0,0 4.96129,0.97583 5.77496,2.53535c0.24398,0.46762 12.48467,13.9211 12.48467,13.9211z" fill="#ffffff" stroke="none" stroke-width="0" stroke-linecap="butt"></path><path d="M275.38472,144.59463l2.1663,-2.83526c0,0 10.33694,-1.6741 15.49253,-1.6008c4.71089,0.06698 14.22739,2.02336 14.22739,2.02336l-16.61964,10.14257c0,0 -7.75396,-3.11447 -10.19899,-4.36214c-6.18,-3.15358 -5.0676,-3.36773 -5.0676,-3.36773z" fill="#3f3f3f" stroke="none" stroke-width="0" stroke-linecap="butt"></path><path d="M279.38211,174.85976l0.42255,-15.91636c0,0 0.61735,-2.03385 1.70338,-2.63067c1.73939,-0.95589 37.79762,-20.80395 37.79762,-20.80395l-3.27033,6.36283c0,0 -17.43769,8.87398 -19.28465,10.5324c-1.34459,1.20734 0.28918,3.9313 0.28918,3.9313l-9.06574,3.73493l-1.54938,14.78954c0,0 -4.15515,2.53535 -5.21155,2.53535c-0.35213,0 -1.83108,-2.53535 -1.83108,-2.53535z" fill="#3d3d3d" stroke="none" stroke-width="0" stroke-linecap="butt"></path><path d="M326.29607,135.51571c0.59141,1.25855 -0.04657,2.8039 -1.42499,3.45163c-1.37842,0.64773 -4.0604,0.6625 -4.65182,-0.59605c-0.59141,-1.25855 1.13173,-3.31381 2.51013,-3.96155c1.37842,-0.64773 2.97526,-0.15258 3.56667,1.10597z" fill="#000000" stroke="none" stroke-width="0" stroke-linecap="butt"></path><path d="M261.07125,141.19596l-1.26767,-1.54937l17.60659,0.70426c0,0 0.19781,3.13358 -0.71996,3.94465c-1.07587,0.95077 -5.19586,1.2669 -5.19586,1.2669z" fill="#111111" stroke="none" stroke-width="0" stroke-linecap="butt"></path><path d="M324.6209,123.39315l-0.24255,-3.81357c0,0 12.01331,6.32349 16.78248,10.13177c4.45741,3.55934 11.80678,12.16266 11.80678,12.16266c0,0 2.09911,2.9569 0.93859,4.28162c-0.22266,0.25417 -4.29945,-1.91942 -8.26744,-5.6114c-1.15785,-1.07731 -1.51135,-2.90425 -2.57953,-4.20046c-1.56336,-1.8971 -3.85219,-3.30168 -5.79628,-4.86569c-6.48701,-5.21881 -12.64205,-8.08491 -12.64205,-8.08491z" fill="#000000" stroke="none" stroke-width="0" stroke-linecap="butt"></path><path d="M254.16498,180.51964c0,0 1.24578,-2.23547 1.66408,-3.44386c0.42779,-1.23584 0.87481,-3.89068 0.87481,-3.89068l4.38693,0.09884c0,0 0.00851,2.93498 -0.71399,4.48319c-0.54021,1.15758 -3.53188,3.8809 -3.53188,3.8809z" fill="#b9b9b9" stroke="none" stroke-width="0" stroke-linecap="butt"></path><path d="M256.56281,181.78907c0,0 2.81865,-2.88326 3.68992,-4.42079c0.67867,-1.19765 0.82364,-4.18319 0.82364,-4.18319l17.20796,7.89874c0,0 0.35764,3.13101 -0.54129,4.61301c-0.83612,1.37847 -5.66487,3.28571 -5.66487,3.28571z" fill="#3c3c3c" stroke="none" stroke-width="0" stroke-linecap="butt"></path><path d="M264.45171,192.6072l4.36644,-4.78898c0,0 4.81285,0.4851 8.84661,-2.01566c2.14697,-1.33104 3.97228,-6.4355 4.95695,-6.4355c0.81752,0 9.35772,-0.74212 10.54676,0.64964c0.09766,1.28892 2.51036,2.52272 5.09461,2.93691c3.66897,0.58805 8.18563,0.22674 11.2326,2.07178c1.1972,0.72494 1.81046,2.33877 2.23954,3.54833c-0.37558,2.05917 -4.87196,1.94172 -4.87196,1.94172l-16.9172,-1.00699l-5.77496,2.95791z" fill="url(#color-3)" stroke="none" stroke-width="0" stroke-linecap="butt"></path><path d="M256.84015,139.1708c0,0 5.25117,-9.94128 7.38961,-14.1562c0.07826,-0.15424 5.37739,-5.47032 12.65942,-8.48376c7.63779,-3.16066 19.10677,-4.02177 19.10677,-4.02177l3.33945,4.89849c0,0 2.45812,5.02591 0.18678,7.22695c-5.82542,4.31593 -23.72322,4.3694 -21.4022,11.0289c1.0044,2.88187 -21.27983,3.5074 -21.27983,3.5074z" fill="#afafaf" stroke="#000000" stroke-width="0.25" stroke-linecap="butt"></path><path d="M297.18821,117.93713l9.67997,16.34042l12.10918,-0.5092l-0.45369,4.5039l-14.62929,0.08708l-15.4551,-15.81962z" fill="#d89856" stroke="#000000" stroke-width="0.25" stroke-linecap="butt"></path><path d="M293.66861,128.97466c0,0 -6.18218,-4.96435 -5.47511,-9.11575c0.3871,-2.27285 2.46136,-2.85133 3.80304,-3.2908c1.10893,-0.36322 2.77802,-0.02921 4.2517,0.47062c3.25671,1.10458 5.09083,7.24299 5.09083,7.24299z" fill="#afafaf" stroke="#000000" stroke-width="0.25" stroke-linecap="butt"></path><path d="M318.58123,138.37151l-1.13083,-4.40913l5.80051,-2.82211l3.91506,0.95976l1.86828,3.37143c0,0 -3.48264,-1.44218 -4.86886,-1.10115c-1.28428,0.31595 -3.01386,1.61091 -4.18184,2.74304c-0.80711,0.78234 -1.40231,1.25815 -1.40231,1.25815z" fill="#383838" stroke="#000000" stroke-width="0.25" stroke-linecap="butt"></path><path d="M297.01174,175.40219c-0.25162,-1.849 2.07892,-4.68548 2.07892,-4.68548c0,0 2.58173,-0.2228 3.90345,0.20162c1.52066,0.4883 4.75641,2.00121 5.00416,2.76119c0.41627,1.27692 -1.17238,3.62734 -1.17238,3.62734c0,0 -1.83767,2.4236 -3.02826,3.53558c-0.84017,0.78471 -3.03632,-0.61711 -4.03786,-1.27602c0,0 -2.59707,-3.05494 -2.74802,-4.16423z" fill="#2e2e2e" stroke="none" stroke-width="0" stroke-linecap="butt"></path><path d="M321.1522,151.2121c0,0 -21.10395,16.23383 -20.98198,14.15411c0.08475,-1.44511 4.39053,-7.24619 3.46401,-8.43548c-1.13013,-1.45063 -6.64048,1.11158 -8.46019,0.51856c-1.14425,-0.37289 0.78881,-3.86687 1.12268,-4.52572c0.76127,-1.50224 19.34055,-11.17238 19.34055,-11.17238l31.3387,-1.20147l7.3406,5.99851z" fill="#000000" stroke="#000000" stroke-width="0.25" stroke-linecap="butt"></path><path d="M282.19916,179.5079l-0.42256,-2.39449c0,0 3.56899,-2.53536 5.0707,-2.53536c1.20032,0 4.36644,0.14086 4.36644,0.14086c0,0 3.70153,-7.06904 8.98882,-9.13193c0.31356,-0.12234 11.64332,-2.31287 11.55712,-0.86958c-0.00176,0.02955 18.10882,-13.43651 18.10882,-13.43651c0,0 8.03215,-3.78184 9.34474,-4.3969c3.40872,-1.59731 15.04512,-0.39397 15.04512,-0.39397l-33.28157,26.9991l1.33913,18.54995l-10.43737,0.79233c0,0 1.16038,-2.29202 -0.35179,-5.10514c-0.82166,-1.52856 -2.56687,-2.51414 -2.56687,-2.51414c0,0 -3.42606,-1.41447 -5.18115,-1.97184c-1.71805,-0.54561 -5.24066,-1.33787 -5.24066,-1.33787c0,0 -2.19497,-0.36876 -3.40951,-0.75337c-1.52932,-0.48428 -5.04165,-1.92283 -5.04165,-1.92283z" fill="#000000" stroke="#000000" stroke-width="0.25" stroke-linecap="butt"></path><path d="M293.53625,148.72724c-0.14486,15.09928 -0.27125,31.35254 -0.21171,34.06811c0.01673,0.76301 -6.44896,-3.77734 -6.44896,-3.77734l-3.55187,-28.72161c0,0 10.24426,-4.87362 10.21255,-1.56915z" fill="#d89856" stroke="#000000" stroke-width="0.25" stroke-linecap="butt"></path><path d="M257.04341,139.1708c0,0 19.11826,-10.00745 21.43928,-3.34795c1.0044,2.88187 12.61483,4.333 15.27957,11.31031c2.66475,6.97731 -9.06948,4.95004 -9.06948,4.95004z" fill="#333333" stroke="#000000" stroke-width="0.25" stroke-linecap="butt"></path><path d="M283.37128,185.69677l2.83727,-9.34184l15.373,9.50231l-1.4933,4.91675z" fill="#636363" stroke="#000000" stroke-width="0.25" stroke-linecap="butt"></path><path d="M265.55426,151.09238l-6.32549,-7.90686" fill="none" stroke="#000000" stroke-width="0.5" stroke-linecap="round"></path><path d="M240.64765,127.66831l1.3837,-0.19767c0,0 2.25626,2.99375 3.80072,5.03041c1.44722,1.90842 4.60031,5.84152 4.60031,5.84152c0,0 -3.41554,-2.41937 -4.9081,-4.0825c-1.87756,-2.09214 -4.87664,-6.59176 -4.87664,-6.59176z" fill="#000000" stroke="none" stroke-width="0" stroke-linecap="butt"></path></g></g></svg>