<svg version="1.1" xmlns="http://www.w3.org/2000/svg" xmlns:xlink="http://www.w3.org/1999/xlink" width="76.7735" height="89.16861" viewBox="0,0,76.7735,89.16861"><defs><radialGradient cx="312.53846" cy="162.41569" r="4.04102" gradientUnits="userSpaceOnUse" id="color-1"><stop offset="0" stop-color="#9d9da0"></stop><stop offset="1" stop-color="#aeaeae"></stop></radialGradient><radialGradient cx="299.04178" cy="118.01764" r="3.61602" gradientUnits="userSpaceOnUse" id="color-2"><stop offset="0" stop-color="#333333"></stop><stop offset="1" stop-color="#272727"></stop></radialGradient><radialGradient cx="296.88888" cy="129.76447" r="4.41028" gradientUnits="userSpaceOnUse" id="color-3"><stop offset="0" stop-color="#828282"></stop><stop offset="1" stop-color="#6a6b6b"></stop></radialGradient><radialGradient cx="298.77006" cy="134.61369" r="1.02419" gradientUnits="userSpaceOnUse" id="color-4"><stop offset="0" stop-color="#333333"></stop><stop offset="1" stop-color="#272727"></stop></radialGradient></defs><g transform="translate(-237.86173,-93.74877)"><g data-paper-data="{&quot;isPaintingLayer&quot;:true}" fill-rule="nonzero" stroke="#000000" stroke-width="0.25" stroke-linecap="butt" stroke-linejoin="miter" stroke-miterlimit="10" stroke-dasharray="" stroke-dashoffset="0" style="mix-blend-mode: normal"><path d="M312.12721,164.92035l-2.46983,-5.6873l2.73496,-0.49249l2.07966,5.35287z" fill="url(#color-1)"></path><g><path d="M253.77478,161.81262l4.9257,-10.60258l36.9652,15.8117l-4.36832,10.21242z" fill="#393939"></path><path d="M251.28222,153.40889c0,0 2.10332,-2.70766 3.13524,-3.43607c0.80771,-0.57015 2.38284,-0.07543 2.38284,-0.07543c0,0 -0.4316,1.77308 -0.86451,1.95875c-0.43334,0.18585 -0.64233,-1.04147 -1.43112,-0.70895c-0.54558,0.22999 -1.8558,2.43113 -1.9029,2.53191c-0.30154,0.64523 -1.63236,2.70468 -1.54131,3.96982c0.08346,1.1597 1.58425,1.54514 1.45683,1.82331c-0.38598,0.84265 -0.90064,1.51705 -0.90064,1.51705c0,0 -2.24821,-1.45284 -2.33517,-2.6798c-0.07962,-1.12351 2.00074,-4.9006 2.00074,-4.9006z" fill="#4a4a4a"></path><path d="M251.42237,160.73443l5.23985,-10.91034c0,0 0.99385,0.41818 1.39253,0.67363c0.38007,0.24353 0.94639,0.82502 0.94639,0.82502l-4.73821,10.68738c0,0 -0.7602,-0.37565 -1.40621,-0.29577c-0.813,0.10052 -1.57531,1.13129 -1.8788,0.74264c-0.45653,-0.58463 0.44444,-1.72257 0.44444,-1.72257z" fill="#191919"></path></g><path d="M299.60722,152.12691c0,0 -0.43809,-3.61081 -1.22313,-5.85379c-0.73663,-2.10464 -2.6228,-5.18237 -2.6228,-5.18237l4.57053,-0.39017l3.40003,6.68858z" fill="#2c2c2c"></path><path d="M300.58799,121.64205l-4.59237,-6.14403l2.0434,-1.1884l3.96532,6.22764c0,0 1.26155,1.41748 0.42457,2.1428c-0.76391,0.66201 -1.84091,-1.03802 -1.84091,-1.03802z" fill="url(#color-2)"></path><path d="M297.39648,134.29376c0,0 -4.51362,-10.13036 -4.41572,-10.65909c0.17723,-0.95712 1.812,-1.36756 1.812,-1.36756c0,0 6.21643,-3.67464 6.54754,-3.44036c0.09973,0.07056 2.40936,1.80193 2.24633,3.27472c-0.02925,0.26428 -0.40156,0.8883 -1.41658,1.34629c-0.83612,0.37727 -1.54546,-0.25316 -1.77133,-0.18128c-2.22977,0.70957 -4.00132,2.42614 -4.00149,2.44553c-0.0017,0.19518 3.14568,7.75763 3.14568,7.75763z" fill="url(#color-3)"></path><path d="M241.35277,178.02676l-2.38281,-2.09018c0,0 0.95137,-0.07001 1.29592,-0.16722c0.25379,-0.0716 19.73298,-21.25014 19.99902,-21.50526c0.47392,-2.32766 2.57495,1.56492 2.57495,1.56492z" fill="#2c2c2c"></path><path d="M275.04003,179.50526l-21.63031,-38.20374c0,0 0.52863,-0.40284 0.83698,-0.45516c0.35015,-0.05941 1.04866,-0.15068 1.6361,0.01479c0.37334,0.10516 0.77658,0.48844 0.77658,0.48844l20.79424,37.57669c0,0 -0.8558,-0.00393 -1.24404,0.01881c-0.49945,0.02925 -1.16955,0.56017 -1.16955,0.56017z" fill="#2c2c2c"></path><path d="M242.64868,182.41614c0,0 -2.24383,0.31672 -2.07392,-1.37008c0.01124,-0.11158 -0.15108,-0.65331 -0.37338,-0.85195c-0.46697,-0.41724 -1.85692,0.0772 -1.43516,-1.12168c0.11652,-0.33123 -1.90718,-2.0017 0.14341,-3.21742c0.49964,-0.29623 2.32801,2.09066 2.38682,2.0634c0.23488,-0.1089 -0.32182,1.37544 0.05722,1.57333c0.48004,0.2506 1.12781,0.24899 1.12781,0.24899l43.09956,-0.45983c0,0 2.81546,-0.89293 4.61333,-4.56794c2.98573,-6.1031 11.62359,-28.62177 11.62359,-28.62177c0,0 0.95756,-0.20377 1.70168,0.68605c0.97705,1.16837 0.17848,2.37054 0.17848,2.37054c0,0 -10.96518,26.50215 -12.37019,28.50921c-2.08289,2.9754 -5.53787,3.7977 -5.53787,3.7977z" fill="#2c2c2c"></path><path d="M274.67026,180.744c0,-1.13129 0.91709,-2.04838 2.04838,-2.04838c1.13129,0 2.04837,0.91709 2.04837,2.04838c0,1.13129 -0.91709,2.04838 -2.04837,2.04838c-1.13129,0 -2.04838,-0.91709 -2.04838,-2.04838z" fill="#1d1d1d"></path><path d="M244.36263,141.99203c0,0 -2.32147,0.0944 -2.29023,-1.11848c0.03325,-1.29159 2.08122,-1.26432 2.08122,-1.26432h56.93656v2.00658z" fill="#2c2c2c"></path><path d="M304.28057,154.22982c0,0 -2.1527,-7.04722 -3.32462,-10.1751c-1.02357,-2.73194 -3.32227,-7.5656 -3.32227,-7.5656c0,0 -0.0332,-0.60797 1.58984,-1.32192c1.28986,-0.56739 1.81153,-0.27113 1.81153,-0.27113l6.7723,17.69889c0,0 -0.64296,0.79597 -1.50232,1.19805c-0.97897,0.45805 -2.02446,0.4368 -2.02446,0.4368z" fill="#2c2c2c"></path><path d="M297.41715,136.51415c0,0 -0.47545,-1.7917 -0.42319,-2.34891c0.00197,-0.02097 2.3763,-1.16705 2.58557,-1.11759c0.32736,0.07738 1.51009,1.72186 1.51009,1.72186z" fill="url(#color-4)"></path><path d="M295.19584,114.27622c0,-0.9235 0.74865,-1.67215 1.67215,-1.67215c0.9235,0 1.67214,0.74865 1.67214,1.67215c0,0.9235 -0.74864,1.67215 -1.67214,1.67215c-0.9235,0 -1.67215,-0.74865 -1.67215,-1.67215z" fill="#000000"></path><path d="M245.86755,139.54234c0,0 -1.53565,-1.13461 -1.8713,-1.71259c-0.58752,-1.01171 -2.33435,-5.93549 -2.69845,-6.73501c-0.35739,-0.7848 0.14134,-1.23375 0.22218,-1.35116c0.2507,-0.36414 4.82328,0.22635 5.46394,0.43462c1.52511,0.4958 5.69763,2.1154 5.69763,2.1154c0,0 11.61017,-0.58439 20.81547,-0.32196c7.22162,0.20588 11.91475,0.85787 12.52659,3.4782c0.10639,0.45565 0.86404,2.03829 0.33156,2.80776c-0.20208,0.29202 -0.8193,0.18094 -1.3984,0.24748c-0.60765,0.06983 -1.00611,1.10414 -1.00611,1.10414z" fill="#37373a"></path><path d="M305.23677,156.42384l-0.94755,-2.50822c0,0 3.03576,-1.19696 3.45577,-1.05903c0.5245,0.17225 2.50822,2.34101 2.50822,2.34101c0,0 0.72568,-0.05879 1.1571,0.34863c0.78449,0.74084 1.49592,2.25185 1.47406,2.99926c-0.02979,1.01885 -2.50498,1.01298 -2.90414,1.16309c-0.55402,0.20836 -2.29524,-3.4391 -2.67062,-3.35124c-0.52994,0.12402 -2.07284,0.0665 -2.07284,0.0665z" fill="#171717"></path><path d="M239.08222,179.97722c0,-0.51947 0.42112,-0.94058 0.94059,-0.94058c0.51947,0 0.94058,0.42111 0.94058,0.94058c0,0.51947 -0.42111,0.94059 -0.94058,0.94059c-0.51947,0 -0.94059,-0.42112 -0.94059,-0.94059z" fill="#787878"></path><path d="M242.38482,129.36904c0,0 -2.41087,-5.0848 -0.46394,-12.5112c2.34409,-8.94132 7.31483,-16.26261 13.12808,-19.84075c5.24329,-3.22732 11.49166,-3.14311 11.49166,-3.14311l11.61723,8.46948c0,0 1.37743,2.92868 -0.63624,4.54716c-0.25353,0.20377 -0.51675,0.40776 -0.78809,0.6088c-1.12487,0.83339 -2.63556,2.24607 -3.29386,5.26402c-0.91159,4.17914 -1.10621,10.38783 -4.60668,12.99524c-3.76327,2.80317 -6.42055,-3.4899 -5.16833,0.10297c1.0044,2.88187 -21.27983,3.5074 -21.27983,3.5074z" fill="#afafaf"></path><path d="M273.29166,103.25724l7.10977,13.44878l9.50683,0.44217l2.55393,2.8248c0,0 -12.13161,3.81588 -15.03686,3.74869c-6.01004,-0.13901 -13.33571,-16.85204 -13.33571,-16.85204z" fill="#d89856"></path><path d="M266.29756,114.37015c0,0 -3.74153,-6.1856 -2.58217,-10.23405c0.63474,-2.21649 2.76003,-2.56332 4.1419,-2.85256c1.14215,-0.23905 2.76437,0.27651 4.17415,0.93539c3.11546,1.45606 5.40619,7.18754 5.40619,7.18754z" fill="#afafaf"></path><path d="M280.08092,135.20566c-0.14486,15.09928 -0.27125,31.35254 -0.21171,34.06811c0.01673,0.76301 -6.44896,-3.77734 -6.44896,-3.77734l-3.55187,-28.72161c0,0 10.24426,-4.87362 10.21255,-1.56915z" fill="#d89856"></path><path d="M270.73037,174.6915l2.83727,-9.34184l15.373,9.50231l-1.4933,4.91675z" fill="#636363"></path><path d="M242.11058,129.53922c0,0 20.64384,-8.5667 21.81659,-3.83974c1.37298,2.7256 12.07346,0.35878 15.62858,6.92725c3.55512,6.56847 -8.34351,6.09461 -8.34351,6.09461z" fill="#333333"></path><path d="M292.43763,120.16448l-2.83339,-2.80876l2.70321,-5.7982l3.7892,-1.37505l3.42554,1.76711c0,0 -3.69734,0.73375 -4.66103,1.78694c-0.89283,0.97574 -1.61257,3.01298 -1.95557,4.60302c-0.23702,1.09877 -0.46797,1.82496 -0.46797,1.82496z" fill="#383838"></path></g></g></svg>