<svg version="1.1" xmlns="http://www.w3.org/2000/svg" xmlns:xlink="http://www.w3.org/1999/xlink" width="34.78906" height="36.22428" viewBox="0,0,34.78906,36.22428"><g transform="translate(-222.09045,-143.90031)"><g data-paper-data="{&quot;isPaintingLayer&quot;:true}" fill-rule="nonzero" stroke-linecap="butt" stroke-linejoin="miter" stroke-miterlimit="10" stroke-dasharray="" stroke-dashoffset="0" style="mix-blend-mode: normal"><path d="M249.28751,165.92505c0,0.9321 2.98161,2.26724 2.93218,3.13971c-0.0567,1.00022 -3.23599,1.30108 -3.52666,2.17986c-1.46783,4.43768 -2.79156,7.85918 -8.69197,7.85918c-8.08808,0 -13.78744,-20.03738 -13.78744,-20.03738l13.78744,-6.74878c0,0 9.28647,6.21063 9.28647,13.60741z" fill="#d89856" stroke="#000000" stroke-width="0.25"></path><path d="M241.92418,155.62399c0,0 -2.84659,-1.00591 -3.43742,-0.92928c-1.12052,0.14532 -2.61724,1.21855 -2.61724,1.21855l-1.43746,-1.14203c0,0 2.48774,-1.15321 2.51522,-2.80107c0.01004,-0.60265 0.68885,-2.07574 -0.52372,-3.55489c-0.28898,-0.35251 -1.17435,-1.29348 -1.82745,-1.50341c-0.85888,-0.27606 -1.53333,0.2023 -2.08917,-0.1415c-0.96089,-0.59433 -0.6374,-1.57773 -0.6374,-1.57773l2.74377,-1.29233c0,0 2.89431,1.55294 4.75809,3.86026c1.47134,1.82149 1.38072,4.87605 1.79691,5.30819c0.94339,0.97955 3.41681,1.33518 3.41681,1.33518z" data-paper-data="{&quot;index&quot;:null}" fill="#389500" stroke="none" stroke-width="0"></path><path d="M232.07311,154.89582c0,0 -5.45696,7.01432 -5.45428,10.92559c0.00286,4.17953 7.16813,13.32294 7.16813,13.32294c0,0 -11.62507,-2.69573 -11.69608,-13.67848c-0.07527,-11.64012 9.98223,-10.57004 9.98223,-10.57004z" fill="#c16530" stroke="none" stroke-width="0"></path><path d="M235.50377,155.02114c0,0 -2.0444,6.99971 -2.04172,10.91098c0.00286,4.17953 4.45522,13.24705 4.45522,13.24705c0,0 -10.84834,2.01281 -12.69367,-13.69171c-0.11955,-12.8074 10.28019,-10.46631 10.28019,-10.46631z" fill="#de7538" stroke="none" stroke-width="0"></path><path d="M256.52038,161.01242c2.36307,10.23135 -7.70893,16.04624 -7.70893,16.04624c0,0 4.93714,-10.28205 3.87645,-14.32475c-0.9926,-3.78322 -8.0547,-9.1782 -8.0547,-9.1782c0,0 7.99011,-5.28887 11.88718,7.45671z" data-paper-data="{&quot;index&quot;:null}" fill="#c16530" stroke="none" stroke-width="0"></path><path d="M253.95225,162.05596c2.16186,16.37492 -8.79215,16.47089 -8.79215,16.47089c0,0 1.99866,-9.90195 0.93797,-13.94465c-0.9926,-3.78322 -4.75074,-10.03239 -4.75074,-10.03239c0,0 9.23136,-5.59169 12.60492,7.50614z" data-paper-data="{&quot;index&quot;:null}" fill="#de7538" stroke="none" stroke-width="0"></path><path d="M247.94753,165.43325c0.89465,6.91655 -1.74356,14.09673 -6.07124,14.65651c-4.32767,0.55978 -8.706,-5.71282 -9.60065,-12.62936c-0.89465,-6.91654 1.88836,-12.97731 6.21603,-13.53709c4.32767,-0.55978 8.56121,4.59339 9.45586,11.50994z" fill="#ff8641" stroke="none" stroke-width="0"></path><path d="M249.04436,171.62364l-8.6,-6.2c0,0 12.24952,-4.09795 16,0c1.06252,1.16096 -2.6,7.2 -2.6,7.2z" fill="#000000" stroke="none" stroke-width="0"></path><path d="M245.43613,169.41684l3.35194,-2.40093l-0.17144,4.44376z" fill="#ff8641" stroke="none" stroke-width="0"></path><path d="M248.04783,163.40649c0,0 2.82134,-0.2548 3.78405,-0.19188c0.79899,0.05223 1.99316,0.54336 1.99316,0.54336l-2.64939,3.77771z" data-paper-data="{&quot;index&quot;:null}" fill="#de7538" stroke="none" stroke-width="0"></path><path d="M253.64783,164.00649c0,0 2.23069,-0.33771 2.97722,0.95148c0.74653,1.28919 -1.8494,2.77771 -1.8494,2.77771z" data-paper-data="{&quot;index&quot;:null}" fill="#c16530" stroke="none" stroke-width="0"></path><path d="M249.50963,171.91266l3.03023,-3.7752l0.96556,4.54098z" fill="#de7538" stroke="none" stroke-width="0"></path><path d="M247.24436,158.62364c0,0 4.50232,-2.67326 6.2,-1.4c1.1363,0.85223 1.8,4.8 1.8,4.8z" fill="#000000" stroke="none" stroke-width="0"></path></g></g></svg>