<svg version="1.1" xmlns="http://www.w3.org/2000/svg" xmlns:xlink="http://www.w3.org/1999/xlink" width="51.65274" height="51.65274" viewBox="0,0,51.65274,51.65274"><defs><radialGradient cx="248.25908" cy="176.01947" r="5.31981" gradientUnits="userSpaceOnUse" id="color-1"><stop offset="0" stop-color="#2d2d2d"></stop><stop offset="1" stop-color="#000000"></stop></radialGradient><radialGradient cx="248.03238" cy="174.711" r="5.3198" gradientUnits="userSpaceOnUse" id="color-2"><stop offset="0" stop-color="#2d2d2d"></stop><stop offset="1" stop-color="#000000"></stop></radialGradient><radialGradient cx="248.65217" cy="175.5633" r="5.31981" gradientUnits="userSpaceOnUse" id="color-3"><stop offset="0" stop-color="#2d2d2d"></stop><stop offset="1" stop-color="#000000"></stop></radialGradient><radialGradient cx="247.5441" cy="174.83145" r="5.31979" gradientUnits="userSpaceOnUse" id="color-4"><stop offset="0" stop-color="#2d2d2d"></stop><stop offset="1" stop-color="#000000"></stop></radialGradient><radialGradient cx="249.00313" cy="182.51075" r="5.31981" gradientUnits="userSpaceOnUse" id="color-5"><stop offset="0" stop-color="#2d2d2d"></stop><stop offset="1" stop-color="#000000"></stop></radialGradient><radialGradient cx="249.65751" cy="181.35523" r="5.31981" gradientUnits="userSpaceOnUse" id="color-6"><stop offset="0" stop-color="#2d2d2d"></stop><stop offset="1" stop-color="#000000"></stop></radialGradient><radialGradient cx="249.59633" cy="182.40728" r="5.31981" gradientUnits="userSpaceOnUse" id="color-7"><stop offset="0" stop-color="#2d2d2d"></stop><stop offset="1" stop-color="#000000"></stop></radialGradient><radialGradient cx="249.20356" cy="181.13876" r="5.3198" gradientUnits="userSpaceOnUse" id="color-8"><stop offset="0" stop-color="#2d2d2d"></stop><stop offset="1" stop-color="#000000"></stop></radialGradient><radialGradient cx="244.86062" cy="187.84697" r="5.31981" gradientUnits="userSpaceOnUse" id="color-9"><stop offset="0" stop-color="#2d2d2d"></stop><stop offset="1" stop-color="#000000"></stop></radialGradient><radialGradient cx="246.14362" cy="187.50443" r="5.31981" gradientUnits="userSpaceOnUse" id="color-10"><stop offset="0" stop-color="#2d2d2d"></stop><stop offset="1" stop-color="#000000"></stop></radialGradient><radialGradient cx="245.35002" cy="188.19779" r="5.31981" gradientUnits="userSpaceOnUse" id="color-11"><stop offset="0" stop-color="#2d2d2d"></stop><stop offset="1" stop-color="#000000"></stop></radialGradient><radialGradient cx="245.98008" cy="187.02884" r="5.31979" gradientUnits="userSpaceOnUse" id="color-12"><stop offset="0" stop-color="#2d2d2d"></stop><stop offset="1" stop-color="#000000"></stop></radialGradient><radialGradient cx="238.60005" cy="189.09907" r="5.31981" gradientUnits="userSpaceOnUse" id="color-13"><stop offset="0" stop-color="#2d2d2d"></stop><stop offset="1" stop-color="#000000"></stop></radialGradient><radialGradient cx="239.85571" cy="189.53122" r="5.3198" gradientUnits="userSpaceOnUse" id="color-14"><stop offset="0" stop-color="#2d2d2d"></stop><stop offset="1" stop-color="#000000"></stop></radialGradient><radialGradient cx="238.81021" cy="189.66336" r="5.31981" gradientUnits="userSpaceOnUse" id="color-15"><stop offset="0" stop-color="#2d2d2d"></stop><stop offset="1" stop-color="#000000"></stop></radialGradient><radialGradient cx="239.98556" cy="189.04536" r="5.31981" gradientUnits="userSpaceOnUse" id="color-16"><stop offset="0" stop-color="#2d2d2d"></stop><stop offset="1" stop-color="#000000"></stop></radialGradient><radialGradient cx="232.74565" cy="186.05154" r="5.31981" gradientUnits="userSpaceOnUse" id="color-17"><stop offset="0" stop-color="#2d2d2d"></stop><stop offset="1" stop-color="#000000"></stop></radialGradient><radialGradient cx="233.4585" cy="187.17194" r="5.3198" gradientUnits="userSpaceOnUse" id="color-18"><stop offset="0" stop-color="#2d2d2d"></stop><stop offset="1" stop-color="#000000"></stop></radialGradient><radialGradient cx="232.55842" cy="186.62384" r="5.31981" gradientUnits="userSpaceOnUse" id="color-19"><stop offset="0" stop-color="#2d2d2d"></stop><stop offset="1" stop-color="#000000"></stop></radialGradient><radialGradient cx="233.8628" cy="186.87284" r="5.31981" gradientUnits="userSpaceOnUse" id="color-20"><stop offset="0" stop-color="#2d2d2d"></stop><stop offset="1" stop-color="#000000"></stop></radialGradient><radialGradient cx="230.50334" cy="180.48293" r="5.31981" gradientUnits="userSpaceOnUse" id="color-21"><stop offset="0" stop-color="#2d2d2d"></stop><stop offset="1" stop-color="#000000"></stop></radialGradient><radialGradient cx="230.29295" cy="181.79411" r="5.31981" gradientUnits="userSpaceOnUse" id="color-22"><stop offset="0" stop-color="#2d2d2d"></stop><stop offset="1" stop-color="#000000"></stop></radialGradient><radialGradient cx="229.98343" cy="180.78676" r="5.31981" gradientUnits="userSpaceOnUse" id="color-23"><stop offset="0" stop-color="#2d2d2d"></stop><stop offset="1" stop-color="#000000"></stop></radialGradient><radialGradient cx="230.79388" cy="181.83871" r="5.31981" gradientUnits="userSpaceOnUse" id="color-24"><stop offset="0" stop-color="#2d2d2d"></stop><stop offset="1" stop-color="#000000"></stop></radialGradient><radialGradient cx="231.9883" cy="174.11752" r="5.31979" gradientUnits="userSpaceOnUse" id="color-25"><stop offset="0" stop-color="#2d2d2d"></stop><stop offset="1" stop-color="#000000"></stop></radialGradient><radialGradient cx="231.00587" cy="175.01098" r="5.31981" gradientUnits="userSpaceOnUse" id="color-26"><stop offset="0" stop-color="#2d2d2d"></stop><stop offset="1" stop-color="#000000"></stop></radialGradient><radialGradient cx="231.39243" cy="174.0306" r="5.31981" gradientUnits="userSpaceOnUse" id="color-27"><stop offset="0" stop-color="#2d2d2d"></stop><stop offset="1" stop-color="#000000"></stop></radialGradient><radialGradient cx="231.36954" cy="175.35836" r="5.3198" gradientUnits="userSpaceOnUse" id="color-28"><stop offset="0" stop-color="#2d2d2d"></stop><stop offset="1" stop-color="#000000"></stop></radialGradient><radialGradient cx="237.62972" cy="170.60286" r="5.3198" gradientUnits="userSpaceOnUse" id="color-29"><stop offset="0" stop-color="#2d2d2d"></stop><stop offset="1" stop-color="#000000"></stop></radialGradient><radialGradient cx="236.30211" cy="170.57237" r="5.31981" gradientUnits="userSpaceOnUse" id="color-30"><stop offset="0" stop-color="#2d2d2d"></stop><stop offset="1" stop-color="#000000"></stop></radialGradient><radialGradient cx="237.25815" cy="170.12899" r="5.31981" gradientUnits="userSpaceOnUse" id="color-31"><stop offset="0" stop-color="#2d2d2d"></stop><stop offset="1" stop-color="#000000"></stop></radialGradient><radialGradient cx="236.32592" cy="171.07471" r="5.31981" gradientUnits="userSpaceOnUse" id="color-32"><stop offset="0" stop-color="#2d2d2d"></stop><stop offset="1" stop-color="#000000"></stop></radialGradient><radialGradient cx="244.08057" cy="171.61207" r="5.3198" gradientUnits="userSpaceOnUse" id="color-33"><stop offset="0" stop-color="#2d2d2d"></stop><stop offset="1" stop-color="#000000"></stop></radialGradient><radialGradient cx="243.01666" cy="170.81737" r="5.31981" gradientUnits="userSpaceOnUse" id="color-34"><stop offset="0" stop-color="#2d2d2d"></stop><stop offset="1" stop-color="#000000"></stop></radialGradient><radialGradient cx="244.05264" cy="171.01057" r="5.31981" gradientUnits="userSpaceOnUse" id="color-35"><stop offset="0" stop-color="#2d2d2d"></stop><stop offset="1" stop-color="#000000"></stop></radialGradient><radialGradient cx="242.74474" cy="171.24043" r="5.31981" gradientUnits="userSpaceOnUse" id="color-36"><stop offset="0" stop-color="#2d2d2d"></stop><stop offset="1" stop-color="#000000"></stop></radialGradient><radialGradient cx="239.99996" cy="179.99999" r="5.5" gradientUnits="userSpaceOnUse" id="color-37"><stop offset="0" stop-color="#3a3a3a"></stop><stop offset="1" stop-color="#1f1f1f"></stop></radialGradient><radialGradient cx="239.99998" cy="180" r="18.04614" gradientUnits="userSpaceOnUse" id="color-38"><stop offset="0" stop-color="#ffffff"></stop><stop offset="1" stop-color="#111111"></stop></radialGradient></defs><g transform="translate(-214.17363,-154.17363)"><g data-paper-data="{&quot;isPaintingLayer&quot;:true}" fill-rule="nonzero" stroke-linejoin="miter" stroke-miterlimit="10" stroke-dasharray="" stroke-dashoffset="0" style="mix-blend-mode: normal"><g fill="none" stroke-width="0.5" stroke-linecap="round"><g><path d="M255.68006,176.42538l-12.97432,-0.62259" stroke="url(#color-1)"></path><path d="M242.54426,175.58676l12.84478,-1.93187" stroke="url(#color-2)"></path><path d="M254.03464,170.43837l-9.34687,9.01979" stroke="url(#color-3)"></path><path d="M244.41977,179.42762l7.39819,-10.67648" stroke="url(#color-4)"></path></g><g><path d="M254.48406,187.53022l-9.63773,-8.70831" stroke="url(#color-5)"></path><path d="M256.01579,185.20337l-11.15732,-6.65092" stroke="url(#color-6)"></path><path d="M257.00804,181.85734l-12.94692,1.04786" stroke="url(#color-7)"></path><path d="M243.87326,182.71166l12.49057,-3.56456" stroke="url(#color-8)"></path></g><g><path d="M244.58089,182.29648l0.5376,12.97811" stroke="url(#color-9)"></path><path d="M244.78166,182.11633l3.07029,12.62118" stroke="url(#color-10)"></path><path d="M241.11698,184.59674l9.81781,8.50477" stroke="url(#color-11)"></path><path d="M241.12346,184.32709l11.29403,6.41602" stroke="url(#color-12)"></path></g><g><path d="M234.667,195.40518l6.79992,-11.06714" stroke="url(#color-13)"></path><path d="M237.23464,196.48578l4.49943,-12.18507" stroke="url(#color-14)"></path><path d="M237.30891,184.31245l3.39676,12.53726" stroke="url(#color-15)"></path><path d="M243.25248,195.72094l-5.78764,-11.62857" stroke="url(#color-16)"></path></g><g><path d="M225.74012,188.53313l12.21445,-4.41903" stroke="url(#color-17)"></path><path d="M238.18676,184.25133l-11.11172,6.72685" stroke="url(#color-18)"></path><path d="M234.71834,181.50319l-5.15523,11.92243" stroke="url(#color-19)"></path><path d="M232.25842,194.1297l2.71902,-12.70148" stroke="url(#color-20)"></path></g><g><path d="M223.61611,177.68969l12.06938,4.80109" stroke="url(#color-21)"></path><path d="M222.99189,180.40461l12.77621,2.34296" stroke="url(#color-22)"></path><path d="M223.22868,183.88661l11.76891,-5.49665" stroke="url(#color-23)"></path><path d="M224.7775,186.20211l10.46366,-7.69627" stroke="url(#color-24)"></path></g><g><path d="M234.78567,178.91969l-6.43734,-11.28189" stroke="url(#color-25)"></path><path d="M226.16674,169.37016l8.52329,9.80175" stroke="url(#color-26)"></path><path d="M224.17947,172.23917l12.62694,3.04646" stroke="url(#color-27)"></path><path d="M236.92449,175.52814l-12.97911,-0.51308" stroke="url(#color-28)"></path></g><g><path d="M239.46238,163.40026l-3.11864,12.60932" stroke="url(#color-29)"></path><path d="M236.68787,163.15028l-0.58732,12.97596" stroke="url(#color-30)"></path><path d="M240.31326,174.77149l-7.04304,-10.91404" stroke="url(#color-31)"></path><path d="M240.23151,175.02851l-9.04515,-9.32233" stroke="url(#color-32)"></path></g><g><path d="M239.89756,175.27115l9.85281,-8.46418" stroke="url(#color-33)"></path><path d="M247.63497,164.99437l-8.0032,10.23081" stroke="url(#color-34)"></path><path d="M243.84945,176.5644l0.59112,-12.97579" stroke="url(#color-35)"></path><path d="M243.63379,176.72639l-1.96301,-12.84007" stroke="url(#color-36)"></path></g></g><path d="M234.49996,179.99999c0,-3.03757 2.46243,-5.5 5.5,-5.5c3.03757,0 5.5,2.46243 5.5,5.5c0,3.03757 -2.46243,5.5 -5.5,5.5c-3.03757,0 -5.5,-2.46243 -5.5,-5.5z" fill="url(#color-37)" stroke="#000000" stroke-width="0.5" stroke-linecap="butt"></path><path d="M221.95382,180c0,-9.96661 8.07953,-18.04615 18.04615,-18.04615c9.96661,0 18.04615,8.07953 18.04615,18.04616c0,9.96661 -8.07953,18.04615 -18.04615,18.04615c-9.96661,0 -18.04615,-8.07953 -18.04615,-18.04615z" fill="none" stroke="url(#color-38)" stroke-width="4.5" stroke-linecap="butt"></path><path d="M262.57637,180c0,12.46859 -10.10778,22.57637 -22.57637,22.57637c-12.46859,0 -22.57637,-10.10778 -22.57637,-22.57637c0,-12.46859 10.10778,-22.57637 22.57637,-22.57637c12.46859,0 22.57637,10.10779 22.57637,22.57637z" fill="none" stroke="#000000" stroke-width="6.5" stroke-linecap="butt"></path></g></g></svg>