<svg version="1.1" xmlns="http://www.w3.org/2000/svg" xmlns:xlink="http://www.w3.org/1999/xlink" width="176.3339" height="144.90853" viewBox="0,0,176.3339,144.90853"><defs><linearGradient x1="285.19163" y1="158.67953" x2="326.09731" y2="158.67953" gradientUnits="userSpaceOnUse" id="color-1"><stop offset="0" stop-color="#9b9b9b"></stop><stop offset="1" stop-color="#949494"></stop></linearGradient><linearGradient x1="340.76415" y1="101.34636" x2="348.77588" y2="96.57529" gradientUnits="userSpaceOnUse" id="color-2"><stop offset="0" stop-color="#323232"></stop><stop offset="1" stop-color="#3e3e3e"></stop></linearGradient><linearGradient x1="332.76896" y1="118.96987" x2="387.12627" y2="118.96987" gradientUnits="userSpaceOnUse" id="color-3"><stop offset="0" stop-color="#9e8f6a"></stop><stop offset="1" stop-color="#8d7245"></stop></linearGradient></defs><g transform="translate(-237.62001,-75.61425)"><g data-paper-data="{&quot;isPaintingLayer&quot;:true}" fill-rule="nonzero" stroke-linecap="butt" stroke-linejoin="miter" stroke-miterlimit="10" stroke-dasharray="" stroke-dashoffset="0" style="mix-blend-mode: normal"><path d="M296.56649,163.2954v-36.0709h38.53358l-1.46895,35.41804c0,0 0.35391,3.9656 -2.12599,4.00928c-6.12031,0.10781 -34.93863,-3.35641 -34.93863,-3.35641z" fill="#2f2f2f" stroke="none" stroke-width="0"></path><path d="M244.325,136.59393c0,0 -5.78176,-3.1683 -4.55441,-6.51092c1.09045,-2.96978 8.68724,-2.53128 8.68724,-2.53128l30.86927,11.21597l-2.85342,10.10838z" fill="#8a8a8a" stroke="none" stroke-width="0"></path><path d="M318.98321,142.68999l-0.53651,-4.53159l3.26829,-0.18077l-0.01618,5.00791z" fill="#3f3f3f" stroke="none" stroke-width="0"></path><path d="M322.57392,142.17011l0.83633,-4.49658l3.63747,1.01372l-1.59155,4.74832z" fill="#3f3f3f" stroke="none" stroke-width="0"></path><path d="M298.44361,177.22957l-2.976,-16.07039c0,0 2.4504,-1.28087 3.99944,-2.54053c1.10484,-0.89845 6.42219,-2.28035 7.12295,-2.33891c6.53957,-0.54649 25.77999,3.29225 25.77999,3.29225l-2.3808,16.07039c0,0 -10.05844,3.74038 -15.45302,4.0118c-5.10459,0.25683 -16.09256,-2.42461 -16.09256,-2.42461z" fill="#797979" stroke="none" stroke-width="0"></path><path d="M313.12521,156.25253c0,0 -0.69681,-2.38448 -2.68264,-3.07555c-0.43034,-0.14976 -9.03798,1.80917 -9.03798,1.80917l-3.49511,-3.12929c0,0 -8.96909,-1.53903 -10.01278,-1.84485c-6.51216,-1.90819 0.74257,-3.39359 1.03149,-4.74052c0.10071,-0.46947 5.21962,2.32818 10.50978,2.3534c2.30018,0.01096 3.12056,-4.19185 5.30233,-3.78822c1.76304,0.32617 5.02744,1.48522 5.02744,1.48522l0.45489,3.92752c0,0 3.54116,-0.08446 3.87728,-0.18849c1.43335,-0.44364 -0.49013,-6.8616 -0.47451,-7.30994c0.11012,-3.16245 16.84063,-0.60642 17.02258,2.47157c0.06952,1.17596 -1.05604,2.05668 -1.16502,4.68221c-0.08893,2.14243 0.80371,5.93859 0.80371,5.93859l-0.35305,6.78083c0,0 -1.34575,13.6672 -2.52927,13.64255c-0.45572,-0.00949 -13.73768,0.96205 -18.66864,0.19c-2.27197,-0.35573 -3.6355,-2.26611 -3.97493,-3.0318c-0.88438,-1.99499 -9.81688,-12.09266 -6.45622,-14.69864c1.16578,-0.90399 14.82066,-1.47374 14.82066,-1.47374z" fill="url(#color-1)" stroke="none" stroke-width="0"></path><path d="M313.7068,142.09682l1.23584,-6.56628l16.54685,3.06514l-0.80937,5.92657c0,0 -6.04012,-2.5803 -9.40116,-2.94771c-3.7114,-0.40571 -7.57216,0.52228 -7.57216,0.52228z" fill="#3f3f3f" stroke="none" stroke-width="0"></path><path d="M274.06602,146.42246l3.25027,-3.56071l36.24038,11.66565l-1.11792,3.77395z" fill="#8a8a8a" stroke="none" stroke-width="0"></path><path d="M319.474,167.01199c0,4.65687 -3.77514,8.432 -8.432,8.432c-4.65686,0 -8.432,-3.77513 -8.432,-8.432c0,-4.65687 3.77513,-8.432 8.432,-8.432c4.65686,0 8.432,3.77513 8.432,8.432z" fill="#76716c" stroke="none" stroke-width="0"></path><path d="M323.04506,153.84862c0,0 10.45091,2.66596 7.55077,-1.47262c-2.5594,-3.65233 -6.79431,-1.17953 -6.65308,-3.33364c0.05789,-0.8829 2.10667,-2.70898 3.80003,-2.8726c3.3453,-0.32323 4.1544,0.20882 6.44557,3.2366c1.32025,1.74472 1.27839,6.82189 -1.1774,9.45808c-2.78249,2.9869 -8.97228,1.31288 -8.97228,1.31288z" fill="#8a8a8a" stroke="none" stroke-width="0"></path><path d="M309.59081,155.91243c0.48688,-3.78727 4.87776,-2.30839 9.39025,-2.06635c4.8975,0.26269 7.1662,-0.04977 7.24211,2.9193c0.08607,3.36596 -2.55944,3.40224 -7.57082,2.76472c-4.74469,-0.6036 -9.31643,-1.08313 -9.06155,-3.61767z" fill="#a0a0a0" stroke="none" stroke-width="0"></path><text transform="translate(303.90009,165.45472) scale(0.09802,0.09802)" font-size="40" xml:space="preserve" fill="#626262" fill-rule="nonzero" stroke="none" stroke-width="1" stroke-linecap="butt" stroke-linejoin="miter" stroke-miterlimit="10" stroke-dasharray="" stroke-dashoffset="0" font-family="Sans Serif" font-weight="normal" text-anchor="start" style="mix-blend-mode: normal"><tspan x="0" dy="0">Factory</tspan></text><path d="M344.35853,100.56555l-6.99045,-7.3664l2.45659,-3.97747l8.57766,10.7392z" fill="url(#color-2)" stroke="none" stroke-width="0"></path><path d="M270.85954,143.86198l-1.79406,-4.18332l30.53666,-13.23945c0,0 -0.23311,10.35341 -1.28919,13.68167c-1.12229,3.53691 -6.01322,12.56046 -6.01322,12.56046z" fill="#0d0d0c" stroke="none" stroke-width="0"></path><path d="M297.05476,178.81678c-3.45316,-0.81235 -8.20304,-22.59722 -8.20304,-22.59722c0,0 7.62604,-24.04999 20.54165,-29.6445c10.5217,-4.55756 31.12414,8.37467 30.56312,9.33911c-0.38793,0.66688 -2.01738,2.0477 -2.01738,2.0477l-23.6968,-6.13457l-17.46516,27.45354c0,0 0.72764,6.47171 2.09529,10.0003c1.73255,4.47007 4.25221,6.25692 4.97384,6.67965c7.64852,4.48046 18.88804,0.89791 22.33077,-0.37485c3.70442,-1.36951 5.7961,-11.64916 5.7961,-11.64916l1.67322,-19.61454c0,0 2.12489,-3.24313 4.80911,-7.60615c4.37362,-7.10902 10.95732,-17.78637 14.29849,-21.65698c1.2333,-1.42872 2.64703,3.45182 2.79653,3.4634c0.77002,0.05966 -17.18068,26.16566 -17.18068,26.16566c0,0 -5.24768,29.76995 -5.80811,30.35696c-2.24564,2.3522 -2.9035,4.13489 -6.14376,4.76362c-3.24026,0.62874 -19.94928,1.22259 -29.36318,-0.992z" fill="#9b9b9b" stroke="none" stroke-width="0"></path><path d="M330.78274,132.3912l14.87999,-29.56157l2.976,2.5792c0,0 5.10245,8.68958 4.44113,10.05946c-0.5547,1.14903 -9.65148,17.04062 -13.26229,20.59963c-0.57084,0.56266 -5.06684,-1.89111 -5.06684,-1.89111z" fill="#9b9b9b" stroke="none" stroke-width="0"></path><path d="M314.31559,140.724c0,0 -5.26725,-0.84137 -7.09019,-2.63233c-1.93943,-1.90541 -3.02819,-14.82686 -3.02819,-14.82686c0,0 10.6084,-3.51865 19.44336,-7.26989c2.72756,-1.1581 3.85018,-3.23581 6.27131,-4.09409c2.98247,-1.05726 6.79843,-0.67952 8.09569,-1.0161c2.09393,-0.54328 2.89361,1.07128 2.89361,1.07128c0,0 0.47825,1.67458 -0.11827,5.13803c-0.89165,5.17707 -3.20513,13.12665 -5.23903,15.62039c-4.08293,5.00603 -16.66509,7.81117 -16.66509,7.81117z" fill="#181816" stroke="none" stroke-width="0"></path><path d="M345.7669,104.80285l-1.83826,-3.94753l3.61421,-2.37974l2.63186,2.36033z" fill="#323232" stroke="none" stroke-width="0"></path><path d="M285.34923,127.64444l-39.70959,-12.32587c0,0 61.98847,2.46706 63.12077,2.20748c4.42371,-1.01411 17.62407,-4.55354 17.62407,-4.55354l4.00151,-0.20806c0,0 -1.40938,2.03528 -4.27995,3.9002c-4.22053,2.74194 -9.71789,6.60068 -14.06368,7.9527c-7.56881,2.35475 -26.69313,3.02709 -26.69313,3.02709z" fill="#050e06" stroke="none" stroke-width="0"></path><path d="M364.11407,126.4392c0,0 -4.90161,4.11312 -7.66012,7.84665c-3.65181,4.94261 -12.33254,19.21273 -12.33254,19.21273c0,0 -0.17449,-8.30218 -0.05367,-9.14784c0.12081,-0.84566 2.56398,-7.4506 7.36423,-13.3357c6.20255,-7.60429 15.06289,-14.69424 15.06289,-14.69424l21.42719,0.3968c0,0 9.41972,1.85973 11.83684,3.28802c0.3227,0.19068 4.06448,1.64426 7.57442,4.09842c4.09468,2.86301 6.61343,6.97007 6.62059,7.46014c0.01632,1.11557 -13.53267,-7.10899 -13.53267,-7.10899c0,0 -10.93722,-0.73451 -16.45339,-0.48659c-6.17996,0.27775 -19.85378,2.47058 -19.85378,2.47058z" fill="#1dbf2b" stroke="none" stroke-width="0"></path><path d="M374.27543,157.10425l-29.40404,-53.137l5.11316,-3.23309l25.43605,44.80421z" fill="url(#color-3)" stroke="none" stroke-width="0"></path><path d="M238.92367,182.58637c-3.14915,-2.43661 0.3968,-5.3568 0.3968,-5.3568c0,0 28.80661,-10.21171 38.798,-12.55401c6.30291,-1.4776 15.36516,-0.14358 15.36516,-0.14358l2.5792,7.7376c0,0 -7.64113,2.2924 -17.15436,4.0542c-16.7566,3.10322 -39.73862,6.45308 -39.98481,6.26259z" fill="#9a9a9a" stroke="none" stroke-width="0"></path><path d="M357.96365,115.32881l-8.3328,-15.27678c0,0 2.10596,-1.95211 1.85374,-2.99252c-0.27489,-1.13393 -0.86174,-3.35629 -0.86174,-3.35629c0,0 1.59704,0.89256 4.21252,4.86194c2.9625,4.49602 7.88988,14.77966 7.88988,14.77966c0,0 0.52869,1.95654 0.73227,3.77645c0.16896,1.51042 0.05224,2.92674 -0.21463,3.05232c-0.52965,0.24925 -5.27924,-4.84479 -5.27924,-4.84479z" fill="#e0e0e0" stroke="none" stroke-width="0"></path><path d="M333.46117,90.92563c0,-2.0271 1.64329,-3.6704 3.6704,-3.6704c2.0271,0 3.6704,1.64329 3.6704,3.6704c0,2.0271 -1.64329,3.6704 -3.6704,3.6704c-2.0271,0 -3.6704,-1.64329 -3.6704,-3.6704z" fill="#101010" stroke="none" stroke-width="0"></path><path d="M245.27245,125.44721c0,0 0.93722,-3.55368 -1.8223,-5.40274c-2.62747,-1.76057 2.81429,-5.11246 2.81429,-5.11246l12.69759,2.5792c0,0 20.00098,7.33828 25.81232,9.05767c1.07982,0.31949 17.39792,-0.01447 29.97145,-4.19564c8.04907,-2.67662 14.96039,-9.0636 14.96039,-9.0636c0,0 5.9663,2.17544 12.66157,4.13408c5.43241,1.58921 13.00963,3.0985 13.29194,4.07075c0.03551,0.12228 4.66306,3.2211 4.66306,3.2211c0,0 -4.02392,4.07746 -6.88244,7.46022c-3.84241,4.54711 -14.10629,17.37777 -14.10629,17.37777c0,0 -3.3712,-1.17345 -5.47395,-3.60729c-1.39854,-1.61875 -1.13764,-4.14303 -2.60033,-5.28304c-4.44616,-2.96613 -10.00214,-1.34776 -10.00214,-1.34776c0,0 0.75682,-2.63613 4.27741,-4.10349c4.19146,-1.74697 11.22374,-2.49984 10.62032,-4.36903c-1.23131,-3.8142 -2.49236,-3.19813 -4.65776,-3.64604c-2.31664,-0.47919 0.85043,-4.26822 0.07797,-4.54499c-1.07046,-0.38355 3.21942,-0.36193 5.59066,-0.81178c2.05406,-0.38968 2.17318,-1.28169 2.17318,-1.28169c0,0 -6.55063,-1.22268 -7.19148,-0.42543c-1.64984,2.05246 1.72862,7.51893 1.72862,7.51893l-28.67114,2.57291c0,0 -14.81665,0.72086 -16.94594,1.97478c-6.85685,4.03795 -16.11888,11.53941 -16.75785,11.94135c-0.53498,0.33653 -13.37757,-5.05257 -15.3306,-7.78367c-3.96932,-5.55067 -10.89856,-10.93012 -10.89856,-10.93012z" fill="#1dbf2b" stroke="none" stroke-width="0"></path><text transform="translate(305.53932,170.5171) scale(0.08433,0.08433)" font-size="40" xml:space="preserve" fill="#626262" fill-rule="nonzero" stroke="none" stroke-width="1" stroke-linecap="butt" stroke-linejoin="miter" stroke-miterlimit="10" stroke-dasharray="" stroke-dashoffset="0" font-family="Sans Serif" font-weight="normal" text-anchor="start" style="mix-blend-mode: normal"><tspan x="0" dy="0">Racing</tspan></text><path d="M245.15487,125.5428c0,0 0.93722,-3.55368 -1.8223,-5.40274c-2.62747,-1.76057 4.94665,-3.19334 4.94665,-3.19334l10.56524,0.66008c0,0 20.00098,7.33828 25.81232,9.05767c1.07982,0.31949 5.61439,4.39684 3.4851,5.65076c-6.85685,4.03795 -16.11888,11.53941 -16.75785,11.94135c-0.53498,0.33653 -13.37757,-5.05257 -15.3306,-7.78367c-3.96932,-5.55067 -10.89856,-10.93012 -10.89856,-10.93012z" fill="#cacaca" stroke="none" stroke-width="0"></path><path d="M387.20856,220.52278v-0.85295h0.42648v0.85295z" fill="#a0a0a0" stroke="none" stroke-width="0"></path><path d="M249.4174,130.534c0,0.64772 -0.52508,1.17279 -1.17279,1.17279c-0.64772,0 -1.17279,-0.52508 -1.17279,-1.17279c0,-0.64772 0.52508,-1.17279 1.17279,-1.17279c0.64772,0 1.17279,0.52508 1.17279,1.17279z" fill="#656565" stroke="none" stroke-width="0"></path><path d="M246.05798,134.75998c0,0.56222 -0.45577,1.01799 -1.01799,1.01799c-0.56222,0 -1.01799,-0.45577 -1.01799,-1.01799c0,-0.56222 0.45577,-1.01799 1.01799,-1.01799c0.56222,0 1.01799,0.45577 1.01799,1.01799z" fill="#656565" stroke="none" stroke-width="0"></path><path d="M276.43492,78.51869c0,0 10.30047,8.95408 12.01603,10.44539c0.46753,0.40642 0.8924,0.77576 0.8924,0.77576c0,0 2.75397,3.60692 1.72669,4.69767c-0.61697,0.65509 -3.11077,-0.36538 -3.11077,-0.36538l-17.69691,-9.138z" fill="#d89856" stroke="#000000" stroke-width="0.25"></path><path d="M264.21297,80.68671c-0.17774,-5.48313 8.8312,-4.93202 8.8312,-4.93202c0,0 7.82059,1.64453 6.72096,3.9823c-0.13845,0.29433 1.41934,3.0493 1.26369,3.34899c1.34691,5.15701 5.58319,22.00914 10.59025,26.97557c2.16677,2.14921 -19.40314,5.66709 -19.40314,5.66709c0,0 -7.74508,-27.08662 -8.00296,-35.04194z" fill="#afafaf" stroke="#000000" stroke-width="0.25"></path><path d="M304.7485,131.48482c3.04224,14.79033 6.34587,30.70481 6.97668,33.34677c0.17724,0.74233 -7.10046,-2.33258 -7.10046,-2.33258l-9.52827,-27.32689c0,0 8.98627,-6.92416 9.65206,-3.6873z" fill="#d89856" stroke="#000000" stroke-width="0.25"></path><path d="M271.76559,115.62219c0,0 19.99254,-10.93815 20.45471,-3.90093c0.19999,3.04532 12.1051,13.92648 12.81386,21.36162c0.70877,7.43515 -10.06072,2.35379 -10.06072,2.35379z" fill="#333333" stroke="#000000" stroke-width="0.25"></path><path d="M300.91238,168.74306l3.46038,-9.1294l14.69768,10.51671l-1.82125,4.80494z" fill="#636363" stroke="#000000" stroke-width="0.25"></path><path d="M274.62296,77.86535c0,0 11.43781,9.94276 13.34279,11.59873c0.51915,0.45129 0.99094,0.86141 0.99094,0.86141c0,0 -2.78243,-2.03308 -1.26702,-2.61017c1.51541,-0.57709 2.52948,-1.33879 2.68594,0.39488c0.15646,1.73368 1.63913,6.22047 0.49842,7.43166c-0.6851,0.72743 -3.45425,-0.40573 -3.45425,-0.40573l-19.65093,-10.14698z" fill="#d89856" stroke="#000000" stroke-width="0.25"></path><path d="M274.75874,89.44968c0,0 -7.43107,-2.76464 -8.06747,-6.92746c-0.34843,-2.2791 1.43808,-3.48142 2.57307,-4.32109c0.9381,-0.69399 2.62744,-0.90265 4.18354,-0.89239c3.43885,0.02267 7.11292,5.27104 7.11292,5.27104z" fill="#afafaf" stroke="#000000" stroke-width="0.25"></path><path d="M283.70975,86.90726c-0.53998,-1.23721 -3.09362,-0.56276 -3.09362,-0.56276l4.75323,-2.24895l5.71651,2.87193l-0.7127,3.12997l-1.86671,3.3723c0,0 -4.64943,-1.86767 -5.67393,-2.8618c-0.5003,-0.48547 1.47907,-2.32169 0.87721,-3.70068z" data-paper-data="{&quot;index&quot;:null}" fill="#383838" stroke="#000000" stroke-width="0.25"></path></g></g></svg>