<svg version="1.1" xmlns="http://www.w3.org/2000/svg" xmlns:xlink="http://www.w3.org/1999/xlink" width="563.37551" height="413.20937" viewBox="0,0,563.37551,413.20937"><defs><linearGradient x1="236.24925" y1="-0.27401" x2="236.24925" y2="335.71089" gradientUnits="userSpaceOnUse" id="color-1"><stop offset="0" stop-color="#e873ff"></stop><stop offset="1" stop-color="#e873ff" stop-opacity="0"></stop></linearGradient><linearGradient x1="237.94404" y1="-1.09333" x2="237.94404" y2="254.78424" gradientUnits="userSpaceOnUse" id="color-2"><stop offset="0" stop-color="#001a32"></stop><stop offset="1" stop-color="#001a32" stop-opacity="0"></stop></linearGradient><radialGradient cx="272.60652" cy="52.58456" r="17.45403" gradientUnits="userSpaceOnUse" id="color-3"><stop offset="0" stop-color="#ff0000" stop-opacity="0"></stop><stop offset="1" stop-color="#ff0000"></stop></radialGradient><radialGradient cx="272.60652" cy="52.58456" r="17.45403" gradientUnits="userSpaceOnUse" id="color-4"><stop offset="0" stop-color="#ff0000" stop-opacity="0"></stop><stop offset="1" stop-color="#ff0000"></stop></radialGradient><radialGradient cx="272.60652" cy="52.58456" r="17.45403" gradientUnits="userSpaceOnUse" id="color-5"><stop offset="0" stop-color="#ff0000" stop-opacity="0"></stop><stop offset="1" stop-color="#ff0000"></stop></radialGradient><radialGradient cx="272.60652" cy="52.58456" r="17.45403" gradientUnits="userSpaceOnUse" id="color-6"><stop offset="0" stop-color="#ff0000" stop-opacity="0"></stop><stop offset="1" stop-color="#ff0000"></stop></radialGradient><radialGradient cx="272.60652" cy="52.58456" r="17.45403" gradientUnits="userSpaceOnUse" id="color-7"><stop offset="0" stop-color="#ff0000" stop-opacity="0"></stop><stop offset="1" stop-color="#ff0000"></stop></radialGradient><radialGradient cx="42.76343" cy="119.56027" r="24.90941" gradientUnits="userSpaceOnUse" id="color-8"><stop offset="0" stop-color="#ff00fa"></stop><stop offset="1" stop-color="#ff00fa" stop-opacity="0"></stop></radialGradient><radialGradient cx="224.07895" cy="65.91277" r="2.82433" gradientUnits="userSpaceOnUse" id="color-9"><stop offset="0" stop-color="#ff2785"></stop><stop offset="1" stop-color="#ff2785" stop-opacity="0"></stop></radialGradient><radialGradient cx="224.10597" cy="49.42629" r="2.82433" gradientUnits="userSpaceOnUse" id="color-10"><stop offset="0" stop-color="#ff2785"></stop><stop offset="1" stop-color="#ff2785" stop-opacity="0"></stop></radialGradient><radialGradient cx="327.22175" cy="107.55792" r="26.82926" gradientUnits="userSpaceOnUse" id="color-11"><stop offset="0" stop-color="#84beff"></stop><stop offset="1" stop-color="#84beff" stop-opacity="0"></stop></radialGradient><radialGradient cx="448.16675" cy="20.66829" r="15.33333" gradientUnits="userSpaceOnUse" id="color-12"><stop offset="0" stop-color="#eafffc"></stop><stop offset="1" stop-color="#eafffc" stop-opacity="0"></stop></radialGradient><radialGradient cx="423.83342" cy="42.66829" r="9.83333" gradientUnits="userSpaceOnUse" id="color-13"><stop offset="0" stop-color="#eafffc"></stop><stop offset="1" stop-color="#eafffc" stop-opacity="0"></stop></radialGradient><radialGradient cx="448.66675" cy="20.58496" r="15.16667" gradientUnits="userSpaceOnUse" id="color-14"><stop offset="0" stop-color="#eafffc"></stop><stop offset="1" stop-color="#eafffc" stop-opacity="0"></stop></radialGradient><linearGradient x1="167.55999" y1="47.95351" x2="167.55999" y2="159.30057" gradientUnits="userSpaceOnUse" id="color-15"><stop offset="0" stop-color="#e0dcc3"></stop><stop offset="1" stop-color="#e0dcc3" stop-opacity="0"></stop></linearGradient></defs><g transform="translate(46.37545,1.09333)"><g data-paper-data="{&quot;isPaintingLayer&quot;:true}" fill-rule="nonzero" stroke-linejoin="miter" stroke-miterlimit="10" stroke-dasharray="" stroke-dashoffset="0" style="mix-blend-mode: normal"><path d="M185.63972,116.16316v-35.61432h9.37219v35.61432z" fill="#000000" stroke="none" stroke-width="0" stroke-linecap="butt"></path><path d="M171.26904,161.77448v-71.22863h21.24363v71.22863z" fill="#000000" stroke="none" stroke-width="0" stroke-linecap="butt"></path><path d="M393.7023,153.0271v-55.60832h16.86994v55.60832z" fill="#000000" stroke="none" stroke-width="0" stroke-linecap="butt"></path><path d="M373.08349,153.65192v-54.35869h21.24363v54.3587z" fill="#000000" stroke="none" stroke-width="0" stroke-linecap="butt"></path><path d="M326.22255,86.79697v-29.36619h15.62031v29.36619z" fill="#000000" stroke="none" stroke-width="0" stroke-linecap="butt"></path><path d="M284.3601,160.52485v-98.72038h52.48426v98.72039z" fill="#000000" stroke="none" stroke-width="0" stroke-linecap="butt"></path><path d="M56.30352,152.4023v-84.97451h59.35719v84.97451z" fill="#000000" stroke="none" stroke-width="0" stroke-linecap="butt"></path><path d="M121.90884,157.40079v-114.96552h16.94277v114.96552z" fill="#000000" stroke="none" stroke-width="0" stroke-linecap="butt"></path><path d="M-14.45628,335.71089v-335.98489h501.41108v335.98489z" fill="url(#color-1)" stroke="none" stroke-width="0" stroke-linecap="butt"></path><path d="M-13.30259,254.78424v-255.87757h502.49325v255.87757z" fill="url(#color-2)" stroke="none" stroke-width="0" stroke-linecap="butt"></path><path d="M233.75029,121.78647v-53.10907h35.61432v53.10907z" fill="#000000" stroke="none" stroke-width="0" stroke-linecap="butt"></path><path d="M134.40509,134.90754v-63.10607h14.37069v63.10607z" fill="#000000" stroke="none" stroke-width="0" stroke-linecap="butt"></path><path d="M20.68918,152.40229v-75.60232h33.11507v75.60232z" fill="#000000" stroke="none" stroke-width="0" stroke-linecap="butt"></path><path d="M377.45718,158.65041v-77.09226h19.84553v77.09226z" fill="#000000" stroke="none" stroke-width="0" stroke-linecap="butt"></path><path d="M240.62323,161.77448v-120.58882h40.61282v120.58882z" fill="#000000" stroke="none" stroke-width="0" stroke-linecap="butt"></path><path d="M338.09399,168.0226v-121.21364h34.98951v121.21364z" fill="#000000" stroke="none" stroke-width="0" stroke-linecap="butt"></path><path d="M400.57524,153.0271v-99.97001h40.61281v99.97001z" fill="#000000" stroke="none" stroke-width="0" stroke-linecap="butt"></path><path d="M66.9253,155.52635v-101.84444h21.24363v101.84445z" fill="#000000" stroke="none" stroke-width="0" stroke-linecap="butt"></path><path d="M95.66672,156.15117v-81.22563h16.94277v81.22564z" fill="#000000" stroke="none" stroke-width="0" stroke-linecap="butt"></path><path d="M144.40209,178.01961v-144.50925h21.94127v144.50926z" fill="#000000" stroke="none" stroke-width="0" stroke-linecap="butt"></path><path d="M199.3856,163.64891v-101.18288h30.17735v101.18288z" fill="#000000" stroke="none" stroke-width="0" stroke-linecap="butt"></path><path d="M293.10749,151.15267v-44.98651h31.24062v44.98651z" fill="#000000" stroke="none" stroke-width="0" stroke-linecap="butt"></path><path d="M170.64422,147.40379v-44.98651h31.24062v44.98651z" fill="#000000" stroke="none" stroke-width="0" stroke-linecap="butt"></path><path d="M433.66675,38.91829v-16.16667h28.83333v16.16667z" fill="#8ca29f" stroke="#000000" stroke-width="0.25" stroke-linecap="butt"></path><path d="M131.79361,166.75163c0,0 -0.21312,-72.83333 1.31487,-72.83333c1.48694,0 12.01832,3.30104 12.01832,3.30104l0.21663,7.77866l2.00946,0.10713l0.43829,61.64651z" fill="#736b5f" stroke="#000000" stroke-width="0.25" stroke-linecap="butt"></path><path d="M319.54122,161.84802v-68.79167h11.375v68.79167z" fill="#3d4d5f" stroke="#000000" stroke-width="0.25" stroke-linecap="butt"></path><path d="M181.88909,160.53627v-32.125h25.125v32.125z" fill="#7b7160" stroke="#000000" stroke-width="0.25" stroke-linecap="butt"></path><path d="M4.22394,158.37444v-62.63158h43.52632v62.63158z" fill="#adb6d2" stroke="#000000" stroke-width="0.25" stroke-linecap="butt"></path><path d="M-46.37544,409.61604c0,-1.38071 1.11929,-2.5 2.5,-2.5c1.38071,0 2.5,1.11929 2.5,2.5c0,1.38071 -1.11929,2.5 -2.5,2.5c-1.38071,0 -2.5,-1.11929 -2.5,-2.5z" fill="#30afca" stroke="none" stroke-width="0.5" stroke-linecap="butt"></path><path d="M223.83064,85.68473v-11.89526h0.5777v11.89526z" fill="#8e6b6b" stroke="none" stroke-width="0" stroke-linecap="butt"></path><path d="M512.00006,403.00001c0,-1.38071 1.11929,-2.5 2.5,-2.5c1.38071,0 2.5,1.11929 2.5,2.5c0,1.38071 -1.11929,2.5 -2.5,2.5c-1.38071,0 -2.5,-1.11929 -2.5,-2.5z" fill="#30afca" stroke="none" stroke-width="0.5" stroke-linecap="butt"></path><path d="M281.90972,161.03025v-106.5" fill="none" stroke="#000000" stroke-width="0.5" stroke-linecap="round"></path><path d="M98.15978,157.88467v-70.25l12.25,-3l23.74048,1.24997l-1.27842,73.48379l-22.46206,1.26624z" fill="#232323" stroke="#000000" stroke-width="0.25" stroke-linecap="butt"></path><path d="M110.15978,84.78025v76" fill="none" stroke="#000000" stroke-width="0.5" stroke-linecap="round"></path><path d="M154.02086,161.53025v-117.5h28v117.5z" fill="#130c1f" stroke="#000000" stroke-width="0.5" stroke-linecap="butt"></path><path d="M255.15253,57.13296l0.08637,-1.88542l24.25644,-7.21138c0,0 7.6175,1.62682 9.53175,2.41983c1.03938,0.43059 1.03349,1.95705 1.03349,1.95705l-10.97687,-1.67325z" fill="url(#color-3)" stroke="none" stroke-width="0" stroke-linecap="butt"></path><path d="M255.15253,57.13296l0.08637,-1.88542l24.25644,-7.21138c0,0 7.6175,1.62682 9.53175,2.41983c1.03938,0.43059 1.03349,1.95705 1.03349,1.95705l-10.97687,-1.67325z" fill="url(#color-4)" stroke="none" stroke-width="0" stroke-linecap="butt"></path><path d="M255.15253,57.13296l0.08637,-1.88542l24.25644,-7.21138c0,0 7.6175,1.62682 9.53175,2.41983c1.03938,0.43059 1.03349,1.95705 1.03349,1.95705l-10.97687,-1.67325z" fill="url(#color-5)" stroke="none" stroke-width="0" stroke-linecap="butt"></path><path d="M255.15253,57.13296l0.08637,-1.88542l24.25644,-7.21138c0,0 7.6175,1.62682 9.53175,2.41983c1.03938,0.43059 1.03349,1.95705 1.03349,1.95705l-10.97687,-1.67325z" fill="url(#color-6)" stroke="none" stroke-width="0" stroke-linecap="butt"></path><g stroke="#000000" stroke-width="0.25" stroke-linecap="butt"><path d="M259.78622,60.37128v-2.33259l19.23863,-5.0768c0,0 6.15163,0.3945 6.15094,0.47683c-0.00154,0.18333 -0.00745,1.50474 -0.00745,1.50474l-5.66325,0.28242z" fill="#3a3a3a"></path><path d="M252.40978,162.03025l-0.75,-99.5l30.75,-8l13.79182,1.74448l-1.86815,105.28028l-13.17367,0.22524z" fill="#232323"></path><g fill="#979797"><path d="M251.40978,65.78024v-3.06395l30.31295,-8.40458l14.4474,1.78504l0.13185,3.94718l-14.67367,-1.48804z"></path><path d="M251.40978,72.7731v-3.06395l30.31295,-8.40458l14.4474,1.78504l0.13185,3.94718l-14.67367,-1.48804z"></path><path d="M251.40978,80.42153v-3.06395l30.31295,-8.40457l14.4474,1.78504l0.13185,3.94719l-14.67367,-1.48804z"></path><path d="M251.40978,87.41438v-3.06395l30.31295,-8.40457l14.4474,1.78504l0.13185,3.94719l-14.67367,-1.48804z"></path><path d="M251.40978,95.49986v-3.06395l30.31295,-8.40458l14.4474,1.78504l0.13185,3.94718l-14.67367,-1.48804z"></path><path d="M251.40978,102.49271v-3.06395l30.31295,-8.40457l14.4474,1.78504l0.13185,3.94719l-14.67367,-1.48804z"></path><path d="M251.40978,110.14114v-3.06395l30.31295,-8.40457l14.4474,1.78504l0.13185,3.94719l-14.67367,-1.48804z"></path><path d="M251.40978,117.13399v-3.06395l30.31295,-8.40458l14.4474,1.78504l0.13185,3.94718l-14.67367,-1.48804z"></path></g><path d="M250.97272,125.00095v-3.06395l30.31295,-8.40458l14.4474,1.78504l0.13185,3.94719l-14.67367,-1.48804z" fill="#979797"></path><path d="M250.97272,131.9938v-3.06395l30.31295,-8.40457l14.4474,1.78504l0.13185,3.94719l-14.67367,-1.48804z" fill="#979797"></path><path d="M250.97272,139.64223v-3.06395l30.31295,-8.40457l14.4474,1.78504l0.13185,3.94718l-14.67367,-1.48804z" fill="#979797"></path><path d="M250.97272,146.63508v-3.06395l30.31295,-8.40457l14.4474,1.78504l0.13185,3.94718l-14.67367,-1.48804z" fill="#979797"></path><path d="M250.97272,154.72054v-3.06395l30.31295,-8.40458l14.4474,1.78504l0.13185,3.94718l-14.67367,-1.48804z" fill="#979797"></path><path d="M255.15253,57.13296l0.08637,-1.88542l24.25644,-7.21138c0,0 7.6175,1.62682 9.53175,2.41983c1.03938,0.43059 1.03349,1.95705 1.03349,1.95705l-10.97687,-1.67325z" fill="url(#color-7)"></path><path d="M256.52459,56.78993l0.08116,-1.77168l22.79296,-6.77629c0,0 7.15791,1.52866 8.95667,2.27384c0.97667,0.4046 0.97114,1.83897 0.97114,1.83897l-10.31459,-1.5723z" fill-opacity="0.53226" fill="#ff0000"></path><path d="M256.76752,58.1073l-1.71514,-0.96048l24.62936,-6.92915c0,0 11.06158,1.80134 10.53115,2.19656c-0.21523,0.16037 -1.68223,1.80213 -1.68223,1.80213l-9.53498,-1.04866l-18.88264,5.00417z" fill="#ababab"></path></g><g fill="#171717" stroke="none" stroke-width="0" stroke-linecap="butt"><g><g><path d="M111.16344,93.69701v-2.29739l3.02837,0.10443l-0.10442,2.08853z"></path><path d="M115.02722,93.64012v-2.13895l2.81952,0.09723l-0.09722,1.94449z"></path><path d="M118.4733,93.64011v-2.04611l2.69714,0.093l-0.093,1.8601z"></path><path d="M121.91448,93.64012v-1.905l2.51113,0.08659l-0.08658,1.73181z"></path><path d="M125.18696,93.58322v-1.79186l2.36199,0.08145l-0.08145,1.62896z"></path><path d="M128.20048,93.58322v-1.66828l2.19909,0.07583l-0.07583,1.51662z"></path><path d="M130.98836,93.52633v-1.4976l1.9741,0.06807l-0.06806,1.36145z"></path></g><g><path d="M111.16344,96.65557v-2.29738l3.02837,0.10442l-0.10442,2.08854z"></path><path d="M115.02722,96.59868v-2.13895l2.81952,0.09722l-0.09722,1.9445z"></path><path d="M118.4733,96.59868v-2.04611l2.69714,0.09301l-0.093,1.8601z"></path><path d="M121.91448,96.59868v-1.905l2.51113,0.08659l-0.08658,1.73181z"></path><path d="M125.18696,96.54178v-1.79186l2.36199,0.08145l-0.08145,1.62896z"></path><path d="M128.20048,96.54179v-1.66828l2.19909,0.07583l-0.07583,1.51662z"></path><path d="M130.98836,96.48489v-1.4976l1.9741,0.06808l-0.06806,1.36145z"></path></g><g><path d="M111.10654,99.50034v-2.29739l3.02837,0.10443l-0.10443,2.08853z"></path><path d="M114.97033,99.44345v-2.13895l2.81951,0.09722l-0.09722,1.9445z"></path><path d="M118.41641,99.44345v-2.04611l2.69714,0.09301l-0.093,1.8601z"></path><path d="M121.85759,99.44345v-1.905l2.51113,0.08659l-0.08658,1.73182z"></path><path d="M125.13007,99.38655v-1.79186l2.36199,0.08145l-0.08145,1.62896z"></path><path d="M128.14362,99.38656v-1.66828l2.1991,0.07583l-0.07583,1.51662z"></path><path d="M130.9315,99.32966v-1.4976l1.9741,0.06808l-0.06806,1.36145z"></path></g><g><path d="M111.10654,102.45891v-2.29738l3.02837,0.10442l-0.10443,2.08854z"></path><path d="M114.97033,102.40202v-2.13895l2.81951,0.09723l-0.09722,1.9445z"></path><path d="M118.41641,102.40201v-2.04611l2.69714,0.093l-0.093,1.8601z"></path><path d="M121.85759,102.40202v-1.905l2.51113,0.08659l-0.08658,1.73181z"></path><path d="M125.13007,102.34512v-1.79186l2.36199,0.08145l-0.08145,1.62896z"></path><path d="M128.14362,102.34512v-1.66829l2.1991,0.07583l-0.07583,1.51662z"></path><path d="M130.9315,102.28823v-1.4976l1.9741,0.06807l-0.06806,1.36145z"></path></g><g><path d="M110.99275,105.70194v-2.29739l3.02837,0.10443l-0.10443,2.08853z"></path><path d="M114.85654,105.64505v-2.13895l2.81951,0.09722l-0.09722,1.9445z"></path><path d="M118.30262,105.64505v-2.04611l2.69714,0.09301l-0.09301,1.8601z"></path><path d="M121.7438,105.64505v-1.905l2.51113,0.08659l-0.08658,1.73182z"></path><path d="M125.01628,105.58815v-1.79186l2.36199,0.08145l-0.08144,1.62896z"></path><path d="M128.02982,105.58816v-1.66828l2.19909,0.07583l-0.07582,1.51662z"></path><path d="M130.81769,105.53126v-1.4976l1.9741,0.06808l-0.06806,1.36145z"></path></g><g><path d="M110.99275,108.66051v-2.29738l3.02837,0.10442l-0.10443,2.08854z"></path><path d="M114.85654,108.60362v-2.13895l2.81951,0.09723l-0.09722,1.9445z"></path><path d="M118.30262,108.60361v-2.04611l2.69714,0.09301l-0.09301,1.8601z"></path><path d="M121.7438,108.60362v-1.905l2.51113,0.08659l-0.08658,1.73181z"></path><path d="M125.01628,108.54672v-1.79186l2.36199,0.08145l-0.08144,1.62896z"></path><path d="M128.02982,108.54672v-1.66829l2.19909,0.07583l-0.07582,1.51662z"></path><path d="M130.81769,108.48983v-1.4976l1.9741,0.06807l-0.06806,1.36145z"></path></g><g><path d="M110.93586,111.50528v-2.29738l3.02837,0.10442l-0.10442,2.08854z"></path><path d="M114.79964,111.44839v-2.13895l2.81951,0.09722l-0.09722,1.9445z"></path><path d="M118.24572,111.44838v-2.04611l2.69714,0.09301l-0.09301,1.8601z"></path><path d="M121.6869,111.44839v-1.905l2.51113,0.08659l-0.08658,1.73181z"></path><path d="M124.95938,111.39149v-1.79186l2.36199,0.08145l-0.08145,1.62896z"></path><path d="M127.97296,111.39149v-1.66828l2.19909,0.07583l-0.07582,1.51662z"></path><path d="M130.76083,111.3346v-1.4976l1.9741,0.06808l-0.06806,1.36145z"></path></g><g><path d="M110.93586,114.46384v-2.29739l3.02837,0.10443l-0.10442,2.08853z"></path><path d="M114.79964,114.40695v-2.13895l2.81951,0.09723l-0.09722,1.94449z"></path><path d="M118.24572,114.40695v-2.04611l2.69714,0.093l-0.09301,1.8601z"></path><path d="M121.6869,114.40695v-1.905l2.51113,0.08659l-0.08658,1.73181z"></path><path d="M124.95938,114.35005v-1.79186l2.36199,0.08145l-0.08145,1.62896z"></path><path d="M127.97296,114.35006v-1.66828l2.19909,0.07583l-0.07582,1.51662z"></path><path d="M130.76083,114.29316v-1.4976l1.9741,0.06807l-0.06806,1.36145z"></path></g></g><g><g><path d="M110.93586,117.4793v-2.29739l3.02837,0.10443l-0.10442,2.08853z"></path><path d="M114.79964,117.42241v-2.13895l2.81951,0.09722l-0.09722,1.9445z"></path><path d="M118.24572,117.4224v-2.04611l2.69714,0.09301l-0.09301,1.8601z"></path><path d="M121.6869,117.42241v-1.905l2.51113,0.08659l-0.08658,1.73182z"></path><path d="M124.95938,117.36551v-1.79186l2.36199,0.08145l-0.08145,1.62896z"></path><path d="M127.97296,117.36551v-1.66828l2.19909,0.07583l-0.07582,1.51662z"></path><path d="M130.76083,117.30862v-1.4976l1.9741,0.06808l-0.06806,1.36145z"></path></g><g><path d="M110.93586,120.43786v-2.29738l3.02837,0.10442l-0.10442,2.08854z"></path><path d="M114.79964,120.38097v-2.13895l2.81951,0.09723l-0.09722,1.9445z"></path><path d="M118.24572,120.38097v-2.04611l2.69714,0.09301l-0.09301,1.8601z"></path><path d="M121.6869,120.38097v-1.905l2.51113,0.08659l-0.08658,1.73181z"></path><path d="M124.95938,120.32407v-1.79186l2.36199,0.08145l-0.08145,1.62896z"></path><path d="M127.97296,120.32408v-1.66829l2.19909,0.07583l-0.07582,1.51662z"></path><path d="M130.76083,120.26718v-1.4976l1.9741,0.06807l-0.06806,1.36145z"></path></g><g><path d="M110.87896,123.28263v-2.29738l3.02837,0.10442l-0.10442,2.08854z"></path><path d="M114.74275,123.22574v-2.13895l2.81952,0.09722l-0.09722,1.9445z"></path><path d="M118.18883,123.22574v-2.04611l2.69714,0.09301l-0.093,1.8601z"></path><path d="M121.63001,123.22574v-1.905l2.51113,0.08659l-0.08658,1.73181z"></path><path d="M124.90249,123.16884v-1.79186l2.36199,0.08145l-0.08145,1.62896z"></path><path d="M127.91606,123.16885v-1.66828l2.19909,0.07583l-0.07583,1.51662z"></path><path d="M130.70389,123.11195v-1.4976l1.9741,0.06808l-0.06806,1.36145z"></path></g><g><path d="M110.87896,126.2412v-2.29739l3.02837,0.10443l-0.10442,2.08853z"></path><path d="M114.74275,126.18431v-2.13895l2.81952,0.09723l-0.09722,1.94449z"></path><path d="M118.18883,126.1843v-2.04611l2.69714,0.093l-0.093,1.8601z"></path><path d="M121.63001,126.18431v-1.905l2.51113,0.08659l-0.08658,1.73181z"></path><path d="M124.90249,126.12741v-1.79186l2.36199,0.08145l-0.08145,1.62896z"></path><path d="M127.91606,126.12741v-1.66828l2.19909,0.07583l-0.07583,1.51662z"></path><path d="M130.70389,126.07052v-1.4976l1.9741,0.06807l-0.06806,1.36145z"></path></g><g><path d="M110.76517,129.48423v-2.29738l3.02837,0.10442l-0.10443,2.08854z"></path><path d="M114.62896,129.42734v-2.13895l2.81951,0.09722l-0.09722,1.94449z"></path><path d="M118.07504,129.42734v-2.04611l2.69714,0.09301l-0.09301,1.8601z"></path><path d="M121.51622,129.42734v-1.905l2.51113,0.08659l-0.08658,1.73181z"></path><path d="M124.7887,129.37043v-1.79186l2.36199,0.08145l-0.08145,1.62896z"></path><path d="M127.80227,129.37043v-1.66828l2.19909,0.07583l-0.07583,1.51662z"></path><path d="M130.59008,129.31355v-1.4976l1.9741,0.06808l-0.06807,1.36145z"></path></g><g><path d="M110.76517,132.44278v-2.29738l3.02837,0.10442l-0.10443,2.08854z"></path><path d="M114.62896,132.38591v-2.13895l2.81951,0.09722l-0.09722,1.9445z"></path><path d="M118.07504,132.3859v-2.04611l2.69714,0.09301l-0.09301,1.8601z"></path><path d="M121.51622,132.38591v-1.905l2.51113,0.08659l-0.08658,1.73181z"></path><path d="M124.7887,132.32901v-1.79186l2.36199,0.08145l-0.08145,1.62896z"></path><path d="M127.80227,132.32901v-1.66828l2.19909,0.07583l-0.07583,1.51662z"></path><path d="M130.59008,132.27212v-1.4976l1.9741,0.06807l-0.06807,1.36145z"></path></g><g><path d="M110.70828,135.28757v-2.29738l3.02837,0.10442l-0.10443,2.08854z"></path><path d="M114.57206,135.23066v-2.13895l2.81951,0.09723l-0.09722,1.94449z"></path><path d="M118.01814,135.23066v-2.04611l2.69714,0.09301l-0.09301,1.8601z"></path><path d="M121.45932,135.23066v-1.905l2.51113,0.08659l-0.08658,1.73182z"></path><path d="M124.7318,135.17378v-1.79186l2.36199,0.08145l-0.08144,1.62896z"></path><path d="M127.74538,135.17378v-1.66828l2.19909,0.07583l-0.07583,1.51662z"></path><path d="M130.53322,135.11689v-1.4976l1.9741,0.06808l-0.06807,1.36145z"></path></g><g><path d="M110.70828,138.24613v-2.29738l3.02837,0.10442l-0.10443,2.08854z"></path><path d="M114.57206,138.18924v-2.13895l2.81951,0.09723l-0.09722,1.9445z"></path><path d="M118.01814,138.18924v-2.04611l2.69714,0.09301l-0.09301,1.8601z"></path><path d="M121.45932,138.18924v-1.905l2.51113,0.08659l-0.08658,1.73181z"></path><path d="M124.7318,138.13234v-1.79186l2.36199,0.08145l-0.08144,1.62896z"></path><path d="M127.74538,138.13234v-1.66829l2.19909,0.07583l-0.07583,1.51662z"></path><path d="M130.53322,138.07545v-1.4976l1.9741,0.06807l-0.06807,1.36145z"></path></g></g><g><g><path d="M110.76517,140.92022v-2.29739l3.02837,0.10443l-0.10443,2.08853z"></path><path d="M114.62896,140.86333v-2.13895l2.81951,0.09722l-0.09722,1.9445z"></path><path d="M118.07504,140.86332v-2.04611l2.69714,0.093l-0.09301,1.8601z"></path><path d="M121.51622,140.86333v-1.905l2.51113,0.08659l-0.08658,1.73182z"></path><path d="M124.7887,140.80641v-1.79186l2.36199,0.08145l-0.08145,1.62896z"></path><path d="M127.80227,140.80642v-1.66828l2.19909,0.07583l-0.07583,1.51662z"></path><path d="M130.59008,140.74954v-1.4976l1.9741,0.06807l-0.06807,1.36145z"></path></g><g><path d="M110.76517,143.87877v-2.29738l3.02837,0.10442l-0.10443,2.08854z"></path><path d="M114.62896,143.82189v-2.13895l2.81951,0.09723l-0.09722,1.94449z"></path><path d="M118.07504,143.82189v-2.04611l2.69714,0.09301l-0.09301,1.8601z"></path><path d="M121.51622,143.82189v-1.905l2.51113,0.08659l-0.08658,1.73182z"></path><path d="M124.7887,143.76499v-1.79186l2.36199,0.08145l-0.08145,1.62896z"></path><path d="M127.80227,143.765v-1.66828l2.19909,0.07583l-0.07583,1.51662z"></path><path d="M130.59008,143.70809v-1.4976l1.9741,0.06807l-0.06807,1.36145z"></path></g><g><path d="M110.70828,146.72355v-2.29739l3.02837,0.10442l-0.10443,2.08854z"></path><path d="M114.57206,146.66666v-2.13895l2.81951,0.09722l-0.09722,1.9445z"></path><path d="M118.01814,146.66664v-2.04611l2.69714,0.09301l-0.09301,1.8601z"></path><path d="M121.45932,146.66666v-1.905l2.51113,0.08659l-0.08658,1.73181z"></path><path d="M124.7318,146.60976v-1.79186l2.36199,0.08145l-0.08144,1.62896z"></path><path d="M127.74538,146.60977v-1.66828l2.19909,0.07583l-0.07583,1.51662z"></path><path d="M130.53322,146.55287v-1.4976l1.9741,0.06807l-0.06807,1.36145z"></path></g><g><path d="M110.70828,149.68212v-2.29739l3.02837,0.10443l-0.10443,2.08853z"></path><path d="M114.57206,149.62523v-2.13895l2.81951,0.09723l-0.09722,1.94449z"></path><path d="M118.01814,149.62522v-2.04611l2.69714,0.093l-0.09301,1.8601z"></path><path d="M121.45932,149.62523v-1.905l2.51113,0.08659l-0.08658,1.73182z"></path><path d="M124.7318,149.56832v-1.79186l2.36199,0.08145l-0.08144,1.62896z"></path><path d="M127.74538,149.56832v-1.66828l2.19909,0.07583l-0.07583,1.51662z"></path><path d="M130.53322,149.51144v-1.4976l1.9741,0.06807l-0.06807,1.36145z"></path></g><g><path d="M110.59449,152.92514v-2.29738l3.02837,0.10442l-0.10442,2.08854z"></path><path d="M114.45827,152.86826v-2.13895l2.81952,0.09723l-0.09722,1.94449z"></path><path d="M117.90435,152.86826v-2.04611l2.69714,0.09301l-0.093,1.8601z"></path><path d="M121.34553,152.86826v-1.905l2.51113,0.08659l-0.08658,1.73182z"></path><path d="M124.61801,152.81136v-1.79186l2.36199,0.08145l-0.08145,1.62896z"></path><path d="M127.63159,152.81137v-1.66828l2.1991,0.07583l-0.07583,1.51662z"></path><path d="M130.41941,152.75447v-1.4976l1.9741,0.06808l-0.06806,1.36145z"></path></g><g><path d="M110.59449,155.88372v-2.29738l3.02837,0.10442l-0.10442,2.08854z"></path><path d="M114.45827,155.82683v-2.13895l2.81952,0.09723l-0.09722,1.94449z"></path><path d="M117.90435,155.82682v-2.04611l2.69714,0.09301l-0.093,1.8601z"></path><path d="M121.34553,155.82683v-1.905l2.51113,0.08659l-0.08658,1.73181z"></path><path d="M124.61801,155.76993v-1.79186l2.36199,0.08145l-0.08145,1.62896z"></path><path d="M127.63159,155.76993v-1.66829l2.1991,0.07583l-0.07583,1.51662z"></path><path d="M130.41941,155.71302v-1.4976l1.9741,0.06807l-0.06806,1.36145z"></path></g><g><path d="M110.53759,158.72849v-2.29738l3.02837,0.10442l-0.10443,2.08854z"></path><path d="M114.40138,158.6716v-2.13895l2.81952,0.09723l-0.09722,1.94449z"></path><path d="M117.84746,158.67159v-2.04611l2.69714,0.09301l-0.093,1.8601z"></path><path d="M121.28864,158.6716v-1.905l2.51113,0.08659l-0.08658,1.73182z"></path><path d="M124.56112,158.6147v-1.79186l2.36199,0.08145l-0.08145,1.62896z"></path><path d="M127.57469,158.6147v-1.66828l2.1991,0.07583l-0.07583,1.51662z"></path><path d="M130.36255,158.55781v-1.4976l1.9741,0.06807l-0.06806,1.36145z"></path></g><g><path d="M110.53759,161.68705v-2.29738l3.02837,0.10442l-0.10443,2.08854z"></path><path d="M114.40138,161.63016v-2.13895l2.81952,0.09723l-0.09722,1.94449z"></path><path d="M117.84746,161.63016v-2.04611l2.69714,0.09301l-0.093,1.8601z"></path><path d="M121.28864,161.63016v-1.905l2.51113,0.08659l-0.08658,1.73182z"></path><path d="M124.56112,161.57325v-1.79186l2.36199,0.08145l-0.08145,1.62896z"></path><path d="M127.57469,161.57325v-1.66828l2.1991,0.07583l-0.07583,1.51662z"></path><path d="M130.36255,161.51637v-1.4976l1.9741,0.06808l-0.06806,1.36145z"></path></g></g></g><path d="M145.90974,161.78025v-87l0.24407,-5.36586l2.54388,-3.37496l0.37559,-5.15272l1.9413,-2.15352l0.06613,-4.03855l0.85482,-4.50947l1.97422,-5.40492l-0.5,117z" fill="#130c1f" stroke="#000000" stroke-width="0.5" stroke-linecap="butt"></path><path d="M50.53975,153.42707l-0.05263,-58.10526c0,0 13.0625,-0.50926 19.27992,0.88792c0.42621,0.09578 2.36971,1.12176 2.8403,1.1352c5.85288,0.16715 16.14293,0.3453 16.14293,0.3453l-0.05263,55.73684z" fill="#adb6d2" stroke="#000000" stroke-width="0.25" stroke-linecap="butt"></path><g fill="#9e9e70" stroke="#000000" stroke-width="0.25" stroke-linecap="butt"><g><g><g><path d="M154.27803,51.50897v-2.33334h2.33334v2.33334z"></path><path d="M157.61139,51.50897v-2.33334h2.33334v2.33334z"></path><path d="M161.16691,51.50897v-2.33334h2.33334v2.33334z"></path><path d="M164.61139,51.50897v-2.33334h2.33334v2.33334z"></path><path d="M167.94472,51.50897v-2.33334h2.33334v2.33334z"></path><path d="M171.27806,51.62008v-2.33333h2.33334v2.33333z"></path><path d="M174.50028,51.62008v-2.33333h2.33334v2.33333z"></path><path d="M178.05583,51.62008v-2.33333h2.33334v2.33333z"></path><path d="M154.38915,54.95341v-2.33333h2.33334v2.33333z"></path><path d="M157.7225,54.95341v-2.33333h2.33334v2.33333z"></path><path d="M161.27803,54.95341v-2.33333h2.33334v2.33333z"></path><path d="M164.7225,54.95341v-2.33333h2.33334v2.33333z"></path><path d="M168.05583,54.95341v-2.33333h2.33334v2.33333z"></path><path d="M171.61139,54.95341v-2.33333h2.33334v2.33333z"></path><path d="M174.61139,55.06452v-2.33333h2.33334v2.33333z"></path><path d="M178.16694,55.06452v-2.33333h2.33334v2.33333z"></path></g><g><path d="M154.50027,58.62008v-2.33333h2.33333v2.33333z"></path><path d="M157.83355,58.62008v-2.33333h2.33334v2.33333z"></path><path d="M161.38915,58.62008v-2.33333h2.33334v2.33333z"></path><path d="M164.83355,58.62008v-2.33333h2.33334v2.33333z"></path><path d="M168.16694,58.62008v-2.33333h2.33334v2.33333z"></path><path d="M171.50028,58.73119v-2.33334h2.33334v2.33334z"></path><path d="M174.7225,58.73119v-2.33334h2.33334v2.33334z"></path><path d="M178.27805,58.73119v-2.33334h2.33334v2.33334z"></path><path d="M154.61138,62.06452v-2.33333h2.33333v2.33333z"></path><path d="M157.94466,62.06452v-2.33333h2.33334v2.33333z"></path><path d="M161.50027,62.06452v-2.33333h2.33333v2.33333z"></path><path d="M164.94466,62.06452v-2.33333h2.33334v2.33333z"></path><path d="M168.27805,62.06452v-2.33333h2.33334v2.33333z"></path><path d="M171.83361,62.06452v-2.33333h2.33334v2.33333z"></path><path d="M174.83361,62.17563v-2.33333h2.33334v2.33333z"></path><path d="M178.38916,62.17563v-2.33333h2.33334v2.33333z"></path></g></g><g><g><path d="M154.61139,65.62008v-2.33334h2.33334v2.33334z"></path><path d="M157.94466,65.62008v-2.33334h2.33334v2.33334z"></path><path d="M161.50027,65.62008v-2.33334h2.33334v2.33334z"></path><path d="M164.94466,65.62008v-2.33334h2.33334v2.33334z"></path><path d="M168.27806,65.62008v-2.33334h2.33334v2.33334z"></path><path d="M171.61139,65.73119v-2.33334h2.33333v2.33334z"></path><path d="M174.83361,65.73119v-2.33334h2.33334v2.33334z"></path><path d="M178.38917,65.73119v-2.33334h2.33334v2.33334z"></path><path d="M154.7225,69.06452v-2.33333h2.33334v2.33333z"></path><path d="M158.05578,69.06452v-2.33333h2.33334v2.33333z"></path><path d="M161.61139,69.06452v-2.33333h2.33334v2.33333z"></path><path d="M165.05578,69.06452v-2.33333h2.33334v2.33333z"></path><path d="M168.38917,69.06452v-2.33333h2.33334v2.33333z"></path><path d="M171.94472,69.06452v-2.33333h2.33334v2.33333z"></path><path d="M174.94472,69.17563v-2.33334h2.33334v2.33334z"></path><path d="M178.50028,69.17563v-2.33334h2.33334v2.33334z"></path></g><g><path d="M154.83355,72.73119v-2.33334h2.33334v2.33334z"></path><path d="M158.16691,72.73119v-2.33334h2.33334v2.33334z"></path><path d="M161.7225,72.73119v-2.33334h2.33334v2.33334z"></path><path d="M165.16691,72.73119v-2.33334h2.33334v2.33334z"></path><path d="M168.50028,72.73119v-2.33334h2.33334v2.33334z"></path><path d="M171.83361,72.84229v-2.33334h2.33334v2.33334z"></path><path d="M175.05583,72.84229v-2.33334h2.33334v2.33334z"></path><path d="M178.61139,72.84229v-2.33334h2.33334v2.33334z"></path><path d="M154.94466,76.17563v-2.33334h2.33334v2.33334z"></path><path d="M158.27803,76.17563v-2.33334h2.33334v2.33334z"></path><path d="M161.83355,76.17563v-2.33334h2.33334v2.33334z"></path><path d="M165.27803,76.17563v-2.33334h2.33334v2.33334z"></path><path d="M168.61139,76.17563v-2.33334h2.33334v2.33334z"></path><path d="M172.16694,76.17563v-2.33334h2.33334v2.33334z"></path><path d="M175.16694,76.28673v-2.33334h2.33334v2.33334z"></path><path d="M178.7225,76.28673v-2.33334h2.33334v2.33334z"></path></g></g></g><g><g><path d="M154.83355,79.73119v-2.33334h2.33334v2.33334z"></path><path d="M158.16691,79.73119v-2.33334h2.33334v2.33334z"></path><path d="M161.7225,79.73119v-2.33334h2.33334v2.33334z"></path><path d="M165.16691,79.73119v-2.33334h2.33334v2.33334z"></path><path d="M168.50028,79.73119v-2.33334h2.33334v2.33334z"></path><path d="M171.83361,79.84229v-2.33334h2.33334v2.33334z"></path><path d="M175.05583,79.84229v-2.33334h2.33334v2.33334z"></path><path d="M178.61139,79.84229v-2.33334h2.33334v2.33334z"></path><path d="M154.94466,83.17563v-2.33334h2.33334v2.33334z"></path><path d="M158.27803,83.17563v-2.33334h2.33334v2.33334z"></path><path d="M161.83355,83.17563v-2.33334h2.33334v2.33334z"></path><path d="M165.27803,83.17563v-2.33334h2.33334v2.33334z"></path><path d="M168.61139,83.17563v-2.33334h2.33334v2.33334z"></path><path d="M172.16694,83.17563v-2.33334h2.33334v2.33334z"></path><path d="M175.16694,83.28673v-2.33334h2.33334v2.33334z"></path><path d="M178.7225,83.28673v-2.33334h2.33334v2.33334z"></path></g><g><path d="M155.05578,86.8423v-2.33334h2.33333v2.33334z"></path><path d="M158.38915,86.8423v-2.33334h2.33334v2.33334z"></path><path d="M161.94466,86.8423v-2.33334h2.33334v2.33334z"></path><path d="M165.38915,86.8423v-2.33334h2.33334v2.33334z"></path><path d="M168.7225,86.8423v-2.33334h2.33334v2.33334z"></path><path d="M172.05583,86.95341v-2.33333h2.33334v2.33333z"></path><path d="M175.27805,86.95341v-2.33333h2.33334v2.33333z"></path><path d="M178.83361,86.95341v-2.33333h2.33334v2.33333z"></path><path d="M155.16691,90.28674v-2.33334h2.33334v2.33334z"></path><path d="M158.50027,90.28674v-2.33334h2.33333v2.33334z"></path><path d="M162.05578,90.28674v-2.33334h2.33333v2.33334z"></path><path d="M165.50027,90.28674v-2.33334h2.33333v2.33334z"></path><path d="M168.83361,90.28674v-2.33334h2.33334v2.33334z"></path><path d="M172.38916,90.28674v-2.33334h2.33334v2.33334z"></path><path d="M175.38916,90.39785v-2.33333h2.33334v2.33333z"></path><path d="M178.94472,90.39785v-2.33333h2.33334v2.33333z"></path></g></g><g><g><path d="M155.16691,93.8423v-2.33334h2.33334v2.33334z"></path><path d="M158.50027,93.8423v-2.33334h2.33334v2.33334z"></path><path d="M162.05578,93.8423v-2.33334h2.33334v2.33334z"></path><path d="M165.50027,93.8423v-2.33334h2.33334v2.33334z"></path><path d="M168.83361,93.8423v-2.33334h2.33334v2.33334z"></path><path d="M172.16695,93.95341v-2.33333h2.33333v2.33333z"></path><path d="M175.38917,93.95341v-2.33333h2.33334v2.33333z"></path><path d="M178.94472,93.95341v-2.33333h2.33334v2.33333z"></path><path d="M155.27803,97.28674v-2.33334h2.33334v2.33334z"></path><path d="M158.61139,97.28674v-2.33334h2.33334v2.33334z"></path><path d="M162.16691,97.28674v-2.33334h2.33334v2.33334z"></path><path d="M165.61139,97.28674v-2.33334h2.33334v2.33334z"></path><path d="M168.94472,97.28674v-2.33334h2.33334v2.33334z"></path><path d="M172.50028,97.28674v-2.33334h2.33334v2.33334z"></path><path d="M175.50028,97.39785v-2.33333h2.33334v2.33333z"></path><path d="M179.05583,97.39785v-2.33333h2.33334v2.33333z"></path></g><g><path d="M155.38915,100.95341v-2.33333h2.33334v2.33333z"></path><path d="M158.7225,100.95341v-2.33333h2.33334v2.33333z"></path><path d="M162.27803,100.95341v-2.33333h2.33334v2.33333z"></path><path d="M165.7225,100.95341v-2.33333h2.33334v2.33333z"></path><path d="M169.05583,100.95341v-2.33333h2.33334v2.33333z"></path><path d="M172.38917,101.06452v-2.33334h2.33334v2.33334z"></path><path d="M175.61139,101.06452v-2.33334h2.33334v2.33334z"></path><path d="M179.16694,101.06452v-2.33334h2.33334v2.33334z"></path><path d="M155.50027,104.39785v-2.33333h2.33333v2.33333z"></path><path d="M158.83355,104.39785v-2.33333h2.33334v2.33333z"></path><path d="M162.38915,104.39785v-2.33333h2.33334v2.33333z"></path><path d="M165.83355,104.39785v-2.33333h2.33334v2.33333z"></path><path d="M169.16694,104.39785v-2.33333h2.33334v2.33333z"></path><path d="M172.7225,104.39785v-2.33333h2.33334v2.33333z"></path><path d="M175.7225,104.50896v-2.33333h2.33334v2.33333z"></path><path d="M179.27805,104.50896v-2.33333h2.33334v2.33333z"></path></g></g></g><g fill="#9e9e70" stroke="#000000" stroke-width="0.25" stroke-linecap="butt"><g><g><path d="M155.05578,107.62008v-2.33334h2.33334v2.33334z"></path><path d="M158.38915,107.62008v-2.33334h2.33334v2.33334z"></path><path d="M161.94466,107.62008v-2.33334h2.33334v2.33334z"></path><path d="M165.38915,107.62008v-2.33334h2.33334v2.33334z"></path><path d="M168.7225,107.62008v-2.33334h2.33334v2.33334z"></path><path d="M172.05583,107.73119v-2.33334h2.33334v2.33334z"></path><path d="M175.27805,107.73119v-2.33334h2.33334v2.33334z"></path><path d="M178.83361,107.73119v-2.33334h2.33334v2.33334z"></path><path d="M155.16691,111.06452v-2.33334h2.33334v2.33334z"></path><path d="M158.50027,111.06452v-2.33334h2.33334v2.33334z"></path><path d="M162.05578,111.06452v-2.33334h2.33334v2.33334z"></path><path d="M165.50027,111.06452v-2.33334h2.33334v2.33334z"></path><path d="M168.83361,111.06452v-2.33334h2.33334v2.33334z"></path><path d="M172.38916,111.06452v-2.33334h2.33334v2.33334z"></path><path d="M175.38916,111.17563v-2.33334h2.33334v2.33334z"></path><path d="M178.94472,111.17563v-2.33334h2.33334v2.33334z"></path></g><g><path d="M155.27803,114.73119v-2.33334h2.33333v2.33334z"></path><path d="M158.61138,114.73119v-2.33334h2.33334v2.33334z"></path><path d="M162.16691,114.73119v-2.33334h2.33334v2.33334z"></path><path d="M165.61138,114.73119v-2.33334h2.33334v2.33334z"></path><path d="M168.94472,114.73119v-2.33334h2.33334v2.33334z"></path><path d="M172.27805,114.8423v-2.33333h2.33334v2.33333z"></path><path d="M175.50027,114.8423v-2.33333h2.33334v2.33333z"></path><path d="M179.05583,114.8423v-2.33333h2.33334v2.33333z"></path><path d="M155.38915,118.17563v-2.33334h2.33333v2.33334z"></path><path d="M158.72243,118.17563v-2.33334h2.33334v2.33334z"></path><path d="M162.27803,118.17563v-2.33334h2.33333v2.33334z"></path><path d="M165.72243,118.17563v-2.33334h2.33334v2.33334z"></path><path d="M169.05583,118.17563v-2.33334h2.33334v2.33334z"></path><path d="M172.61138,118.17563v-2.33334h2.33334v2.33334z"></path><path d="M175.61138,118.28674v-2.33333h2.33334v2.33333z"></path><path d="M179.16694,118.28674v-2.33333h2.33334v2.33333z"></path></g></g><g><g><path d="M155.38915,121.73119v-2.33334h2.33334v2.33334z"></path><path d="M158.7225,121.73119v-2.33334h2.33334v2.33334z"></path><path d="M162.27803,121.73119v-2.33334h2.33334v2.33334z"></path><path d="M165.7225,121.73119v-2.33334h2.33334v2.33334z"></path><path d="M169.05583,121.73119v-2.33334h2.33334v2.33334z"></path><path d="M172.38917,121.8423v-2.33333h2.33333v2.33333z"></path><path d="M175.61139,121.8423v-2.33333h2.33334v2.33333z"></path><path d="M179.16694,121.8423v-2.33333h2.33334v2.33333z"></path><path d="M155.50027,125.17563v-2.33334h2.33334v2.33334z"></path><path d="M158.83355,125.17563v-2.33334h2.33334v2.33334z"></path><path d="M162.38915,125.17563v-2.33334h2.33334v2.33334z"></path><path d="M165.83355,125.17563v-2.33334h2.33334v2.33334z"></path><path d="M169.16694,125.17563v-2.33334h2.33334v2.33334z"></path><path d="M172.7225,125.17563v-2.33334h2.33334v2.33334z"></path><path d="M175.7225,125.28674v-2.33333h2.33334v2.33333z"></path><path d="M179.27805,125.28674v-2.33333h2.33334v2.33333z"></path></g><g><path d="M155.61138,128.8423v-2.33333h2.33334v2.33333z"></path><path d="M158.94466,128.8423v-2.33333h2.33334v2.33333z"></path><path d="M162.50027,128.8423v-2.33333h2.33334v2.33333z"></path><path d="M165.94466,128.8423v-2.33333h2.33334v2.33333z"></path><path d="M169.27805,128.8423v-2.33333h2.33334v2.33333z"></path><path d="M172.61139,128.95341v-2.33333h2.33334v2.33333z"></path><path d="M175.83361,128.95341v-2.33333h2.33334v2.33333z"></path><path d="M179.38916,128.95341v-2.33333h2.33334v2.33333z"></path><path d="M155.72243,132.28674v-2.33334h2.33334v2.33334z"></path><path d="M159.05578,132.28674v-2.33334h2.33334v2.33334z"></path><path d="M162.61138,132.28674v-2.33334h2.33334v2.33334z"></path><path d="M166.05578,132.28674v-2.33334h2.33334v2.33334z"></path><path d="M169.38916,132.28674v-2.33334h2.33334v2.33334z"></path><path d="M172.94472,132.28674v-2.33334h2.33334v2.33334z"></path><path d="M175.94472,132.39784v-2.33334h2.33334v2.33334z"></path><path d="M179.50027,132.39784v-2.33334h2.33334v2.33334z"></path></g></g></g><g fill="#9e9e70" stroke="#000000" stroke-width="0.25" stroke-linecap="butt"><g><path d="M155.61138,135.8423v-2.33334h2.33334v2.33334z"></path><path d="M158.94466,135.8423v-2.33334h2.33334v2.33334z"></path><path d="M162.50027,135.8423v-2.33334h2.33334v2.33334z"></path><path d="M165.94466,135.8423v-2.33334h2.33334v2.33334z"></path><path d="M169.27805,135.8423v-2.33334h2.33334v2.33334z"></path><path d="M172.61139,135.95341v-2.33334h2.33334v2.33334z"></path><path d="M175.83361,135.95341v-2.33334h2.33334v2.33334z"></path><path d="M179.38916,135.95341v-2.33334h2.33334v2.33334z"></path><path d="M155.72243,139.28674v-2.33334h2.33334v2.33334z"></path><path d="M159.05578,139.28674v-2.33334h2.33334v2.33334z"></path><path d="M162.61138,139.28674v-2.33334h2.33334v2.33334z"></path><path d="M166.05578,139.28674v-2.33334h2.33334v2.33334z"></path><path d="M169.38916,139.28674v-2.33334h2.33334v2.33334z"></path><path d="M172.94472,139.28674v-2.33334h2.33334v2.33334z"></path><path d="M175.94472,139.39784v-2.33334h2.33334v2.33334z"></path><path d="M179.50027,139.39784v-2.33334h2.33334v2.33334z"></path></g><g><path d="M155.83354,142.95341v-2.33334h2.33333v2.33334z"></path><path d="M159.16691,142.95341v-2.33334h2.33334v2.33334z"></path><path d="M162.72243,142.95341v-2.33334h2.33334v2.33334z"></path><path d="M166.16691,142.95341v-2.33334h2.33334v2.33334z"></path><path d="M169.50027,142.95341v-2.33334h2.33334v2.33334z"></path><path d="M172.83361,143.06452v-2.33334h2.33334v2.33334z"></path><path d="M176.05583,143.06452v-2.33334h2.33334v2.33334z"></path><path d="M179.61138,143.06452v-2.33334h2.33334v2.33334z"></path><path d="M155.94466,146.39784v-2.33334h2.33334v2.33334z"></path><path d="M159.27803,146.39784v-2.33334h2.33333v2.33334z"></path><path d="M162.83354,146.39784v-2.33334h2.33333v2.33334z"></path><path d="M166.27803,146.39784v-2.33334h2.33333v2.33334z"></path><path d="M169.61138,146.39784v-2.33334h2.33334v2.33334z"></path><path d="M173.16694,146.39784v-2.33334h2.33334v2.33334z"></path><path d="M176.16694,146.50895v-2.33334h2.33334v2.33334z"></path><path d="M179.72249,146.50895v-2.33334h2.33334v2.33334z"></path></g></g><g fill="#9e9e70" stroke="#000000" stroke-width="0.25" stroke-linecap="butt"><g><path d="M155.94466,149.39784v-2.33334h2.33334v2.33334z"></path><path d="M159.27803,149.39784v-2.33334h2.33334v2.33334z"></path><path d="M162.83355,149.39784v-2.33334h2.33334v2.33334z"></path><path d="M166.27803,149.39784v-2.33334h2.33334v2.33334z"></path><path d="M169.61139,149.39784v-2.33334h2.33334v2.33334z"></path><path d="M172.94472,149.50895v-2.33334h2.33333v2.33334z"></path><path d="M176.16694,149.50895v-2.33334h2.33334v2.33334z"></path><path d="M179.7225,149.50895v-2.33334h2.33334v2.33334z"></path><path d="M156.05578,152.8423v-2.33334h2.33334v2.33334z"></path><path d="M159.38915,152.8423v-2.33334h2.33334v2.33334z"></path><path d="M162.94466,152.8423v-2.33334h2.33334v2.33334z"></path><path d="M166.38915,152.8423v-2.33334h2.33334v2.33334z"></path><path d="M169.7225,152.8423v-2.33334h2.33334v2.33334z"></path><path d="M173.27805,152.8423v-2.33334h2.33334v2.33334z"></path><path d="M176.27805,152.95341v-2.33334h2.33334v2.33334z"></path><path d="M179.83361,152.95341v-2.33334h2.33334v2.33334z"></path></g><g><path d="M156.16691,156.50895v-2.33334h2.33334v2.33334z"></path><path d="M159.50027,156.50895v-2.33334h2.33334v2.33334z"></path><path d="M163.05578,156.50895v-2.33334h2.33334v2.33334z"></path><path d="M166.50027,156.50895v-2.33334h2.33334v2.33334z"></path><path d="M169.83361,156.50895v-2.33334h2.33334v2.33334z"></path><path d="M173.16694,156.62007v-2.33334h2.33334v2.33334z"></path><path d="M176.38916,156.62007v-2.33334h2.33334v2.33334z"></path><path d="M179.94472,156.62007v-2.33334h2.33334v2.33334z"></path><path d="M156.27803,159.95341v-2.33334h2.33333v2.33334z"></path><path d="M159.61138,159.95341v-2.33334h2.33334v2.33334z"></path><path d="M163.16691,159.95341v-2.33334h2.33334v2.33334z"></path><path d="M166.61138,159.95341v-2.33334h2.33334v2.33334z"></path><path d="M169.94472,159.95341v-2.33334h2.33334v2.33334z"></path><path d="M173.50027,159.95341v-2.33334h2.33334v2.33334z"></path><path d="M176.50027,160.06452v-2.33334h2.33334v2.33334z"></path><path d="M180.05583,160.06452v-2.33334h2.33334v2.33334z"></path></g></g><path d="M223.88469,59.46851v-5.08446h0.57771v5.08446z" fill="#8e6b6b" stroke="none" stroke-width="0" stroke-linecap="butt"></path><path d="M47.9608,106.01479l-0.10526,-3.3158l6.89473,3.26316l-0.26315,2.1579z" fill="#ddf5ff" stroke="none" stroke-width="0" stroke-linecap="butt"></path><path d="M37.69765,164.48848l-0.21052,-61.89474l10.68421,0.05263l-0.26316,61.84211z" fill="#b73fff" stroke="#000000" stroke-width="0.25" stroke-linecap="butt"></path><path d="M39.34678,119.86567c0,-1.7489 1.41776,-3.16667 3.16667,-3.16667c1.7489,0 3.16667,1.41776 3.16667,3.16667c0,1.7489 -1.41776,3.16667 -3.16667,3.16667c-1.7489,0 -3.16667,-1.41776 -3.16667,-3.16667z" fill="#edceff" stroke="none" stroke-width="0" stroke-linecap="butt"></path><path d="M17.85396,119.56027c0,-13.75709 11.15233,-24.90941 24.90942,-24.90941c13.75709,0 24.90942,11.15232 24.90942,24.90941c0,13.75709 -11.15233,24.90941 -24.90942,24.90941c-13.75709,0 -24.90941,-11.15232 -24.90941,-24.90941z" fill="url(#color-8)" stroke="none" stroke-width="0" stroke-linecap="butt"></path><path d="M21.45789,103.47678v-1.44444l16.16374,-0.90058l10.29042,0.56977l7.0237,2.94381l-0.251,1.38458l-6.73055,-3.21169l-10.39689,-0.24202z" fill-opacity="0.67742" fill="#ff00fa" stroke="none" stroke-width="0" stroke-linecap="butt"></path><path d="M48.01344,106.06742l-0.15789,-3.21053l6.78947,3.05263l-0.26316,2.15789z" fill-opacity="0.6371" fill="#9ae3ff" stroke="none" stroke-width="0" stroke-linecap="butt"></path><path d="M21.80292,164.33058v-60.73684l15.68421,-1.05263l0.15789,61.78947z" fill="#7d7d7d" stroke="none" stroke-width="0" stroke-linecap="butt"></path><path d="M21.80292,164.48847l-0.15789,-61.05263l16.10526,-0.68421l0.10526,61.78947z" fill-opacity="0.25806" fill="#b73fff" stroke="#000000" stroke-width="0.25" stroke-linecap="butt"></path><path d="M47.90817,159.69023l0.10527,-53.63158l6.47369,2l-0.21053,51.78948z" fill="#828282" stroke="#000000" stroke-width="0.25" stroke-linecap="butt"></path><path d="M4.22394,95.79549v-6.84211l9,2.10527c0,0 9.62388,0.57421 13.88401,1.37299c1.3404,0.25132 7.24936,2.23409 7.71081,2.32771c0.70488,0.14302 11.27446,-0.09051 12.5472,0.34564c0.23786,0.08151 0.38565,0.64405 0.38565,0.64405l-9.2645,0.04645z" fill="#adb6d2" stroke="#000000" stroke-width="0.25" stroke-linecap="butt"></path><path d="M206.99956,160.18135v-69.25l1.91522,-0.15669c0,0 0.28117,-3.46831 0.83478,-3.46831c2.53584,0 18.81218,-2.53578 19.87566,-2.59573c1.85745,-0.10471 20.99934,1.72073 20.99934,1.72073l0.375,73.75z" fill="#979797" stroke="#000000" stroke-width="0.25" stroke-linecap="butt"></path><path d="M320.04122,123.01469v-26.625h10.375v26.625z" fill="#6a86a6" stroke="none" stroke-width="0" stroke-linecap="butt"></path><path d="M223.62456,73.80635v-4.625h0.875v4.625z" fill="#5e2323" stroke="none" stroke-width="0" stroke-linecap="butt"></path><path d="M223.74956,64.05635v-4.625h0.875v4.625z" fill="#5e2323" stroke="none" stroke-width="0" stroke-linecap="butt"></path><path d="M223.74956,54.43135v-4.625h0.875v4.625z" fill="#5e2323" stroke="none" stroke-width="0" stroke-linecap="butt"></path><path d="M223.88469,69.14418v-5.08445h0.57771v5.08445z" fill="#8e6b6b" stroke="none" stroke-width="0" stroke-linecap="butt"></path><path d="M221.25463,65.91277c0,-1.55983 1.26449,-2.82432 2.82432,-2.82432c1.55983,0 2.82433,1.26449 2.82433,2.82432c0,1.55983 -1.2645,2.82433 -2.82433,2.82433c-1.55983,0 -2.82432,-1.26449 -2.82432,-2.82433z" fill="url(#color-9)" stroke="none" stroke-width="0" stroke-linecap="butt"></path><path d="M221.28165,49.42629c0,-1.55983 1.26449,-2.82433 2.82432,-2.82433c1.55983,0 2.82433,1.2645 2.82433,2.82433c0,1.55983 -1.2645,2.82433 -2.82433,2.82433c-1.55983,0 -2.82432,-1.2645 -2.82432,-2.82433z" fill="url(#color-10)" stroke="none" stroke-width="0" stroke-linecap="butt"></path><path d="M182.26409,135.28627v-3.125h24.625v3.125z" fill="#2c2923" stroke="none" stroke-width="0" stroke-linecap="butt"></path><path d="M182.26409,142.28627v-3.125h24.625v3.125z" fill="#2c2923" stroke="none" stroke-width="0" stroke-linecap="butt"></path><path d="M182.26409,148.28627v-3.125h24.625v3.125z" fill="#2c2923" stroke="none" stroke-width="0" stroke-linecap="butt"></path><path d="M182.26409,155.28627v-3.125h24.625v3.125z" fill="#2c2923" stroke="none" stroke-width="0" stroke-linecap="butt"></path><path d="M334.96647,166.28734v-38.375h30.625v38.375z" fill="#677e87" stroke="#000000" stroke-width="0.25" stroke-linecap="butt"></path><g fill="#000000" stroke="none" stroke-width="0" stroke-linecap="butt"><path d="M337.13909,134.20996v-2.5h3.25v2.5z"></path><path d="M342.06171,134.23972v-2.5h3.25v2.5z"></path><path d="M347.09147,134.3052v-2.5h3.25v2.5z"></path><path d="M352.01409,134.33496v-2.5h3.25v2.5z"></path><path d="M356.37718,134.3052v-2.5h3.25v2.5z"></path><path d="M361.2998,134.33496v-2.5h3.25v2.5z"></path></g><g fill="#000000" stroke="none" stroke-width="0" stroke-linecap="butt"><path d="M337.09147,138.5433v-2.5h3.25v2.5z"></path><path d="M342.01409,138.57306v-2.5h3.25v2.5z"></path><path d="M347.04385,138.63853v-2.5h3.25v2.5z"></path><path d="M351.96647,138.6683v-2.5h3.25v2.5z"></path><path d="M356.32956,138.63853v-2.5h3.25v2.5z"></path><path d="M361.25218,138.6683v-2.5h3.25v2.5z"></path></g><g fill="#000000" stroke="none" stroke-width="0" stroke-linecap="butt"><path d="M336.94861,142.63853v-2.5h3.25v2.5z"></path><path d="M341.87123,142.66829v-2.5h3.25v2.5z"></path><path d="M346.90099,142.73377v-2.5h3.25v2.5z"></path><path d="M351.82361,142.76353v-2.5h3.25v2.5z"></path><path d="M356.18671,142.73377v-2.5h3.25v2.5z"></path><path d="M361.10933,142.76353v-2.5h3.25v2.5z"></path></g><g fill="#000000" stroke="none" stroke-width="0" stroke-linecap="butt"><path d="M336.90099,146.97187v-2.5h3.25v2.5z"></path><path d="M341.82361,147.00162v-2.5h3.25v2.5z"></path><path d="M346.85337,147.06711v-2.5h3.25v2.5z"></path><path d="M351.77599,147.09687v-2.5h3.25v2.5z"></path><path d="M356.13909,147.06711v-2.5h3.25v2.5z"></path><path d="M361.06171,147.09687v-2.5h3.25v2.5z"></path></g><g fill="#000000" stroke="none" stroke-width="0" stroke-linecap="butt"><path d="M336.90099,151.01949v-2.5h3.25v2.5z"></path><path d="M341.82361,151.04925v-2.5h3.25v2.5z"></path><path d="M346.85337,151.11473v-2.5h3.25v2.5z"></path><path d="M351.77599,151.14449v-2.5h3.25v2.5z"></path><path d="M356.13909,151.11473v-2.5h3.25v2.5z"></path><path d="M361.06171,151.14449v-2.5h3.25v2.5z"></path></g><g fill="#000000" stroke="none" stroke-width="0" stroke-linecap="butt"><path d="M336.85337,155.35282v-2.5h3.25v2.5z"></path><path d="M341.77599,155.38258v-2.5h3.25v2.5z"></path><path d="M346.80575,155.44806v-2.5h3.25v2.5z"></path><path d="M351.72837,155.47782v-2.5h3.25v2.5z"></path><path d="M356.09147,155.44806v-2.5h3.25v2.5z"></path><path d="M361.01409,155.47782v-2.5h3.25v2.5z"></path></g><g fill="#000000" stroke="none" stroke-width="0" stroke-linecap="butt"><path d="M336.71052,159.44806v-2.5h3.25v2.5z"></path><path d="M341.63314,159.47782v-2.5h3.25v2.5z"></path><path d="M346.6629,159.5433v-2.5h3.25v2.5z"></path><path d="M351.58552,159.57306v-2.5h3.25v2.5z"></path><path d="M355.94861,159.5433v-2.5h3.25v2.5z"></path><path d="M360.87123,159.57306v-2.5h3.25v2.5z"></path></g><g fill="#000000" stroke="none" stroke-width="0" stroke-linecap="butt"><path d="M336.6629,163.78139v-2.5h3.25v2.5z"></path><path d="M341.58552,163.81115v-2.5h3.25v2.5z"></path><path d="M346.61528,163.87663v-2.5h3.25v2.5z"></path><path d="M351.5379,163.90639v-2.5h3.25v2.5z"></path><path d="M355.90099,163.87663v-2.5h3.25v2.5z"></path><path d="M360.82361,163.90639v-2.5h3.25v2.5z"></path></g><path d="M378.30575,152.22782v-18.85714h18.85715v18.85714z" fill="#816a59" stroke="#000000" stroke-width="0.25" stroke-linecap="butt"></path><path d="M379.78194,152.22782v-18.85714h2.33334v18.85714z" fill="#000000" stroke="none" stroke-width="0" stroke-linecap="butt"></path><path d="M383.44861,152.27543v-18.90476h2.33333v18.90476z" fill="#000000" stroke="none" stroke-width="0" stroke-linecap="butt"></path><path d="M387.16289,152.22782v-18.85714h2.33333v18.85714z" fill="#000000" stroke="none" stroke-width="0" stroke-linecap="butt"></path><path d="M390.78194,152.22782v-18.85714h2.33334v18.85714z" fill="#000000" stroke="none" stroke-width="0" stroke-linecap="butt"></path><path d="M394.06766,152.22782v-18.85714h2.33333v18.85714z" fill="#000000" stroke="none" stroke-width="0" stroke-linecap="butt"></path><path d="M300.39252,107.55792c0,-14.8174 12.01188,-26.82926 26.82927,-26.82926c14.81739,0 26.82926,12.01186 26.82926,26.82926c0,14.8174 -12.01188,26.82927 -26.82926,26.82927c-14.81739,0 -26.82927,-12.01186 -26.82927,-26.82927z" fill="url(#color-11)" stroke="none" stroke-width="0" stroke-linecap="butt"></path><path d="M417.16675,147.08496l-1.16667,-103.5l33.66667,-14.5l18.29549,1.1135l0.20451,65.05317l3.7772,-0.06059l-0.39194,60.47651z" fill="#8ca29f" stroke="#000000" stroke-width="0.25" stroke-linecap="butt"></path><path d="M416.33342,43.41829l-1.66667,-4l15.5,-5.33333l0.16667,3.16667z" fill="#eafffc" stroke="#000000" stroke-width="0.05" stroke-linecap="butt"></path><path d="M432.83342,23.25163v-5.16667h30.66667v5.16667z" fill="url(#color-12)" stroke="#000000" stroke-width="0.05" stroke-linecap="butt"></path><path d="M416.66675,43.41829l-2.66667,-4.16667l16.83333,-5.5l-0.16667,3.5z" fill="url(#color-13)" stroke="none" stroke-width="0" stroke-linecap="butt"></path><path d="M433.50009,23.25163v-5.33333h30.33333v5.33333z" fill="url(#color-14)" stroke="none" stroke-width="0" stroke-linecap="butt"></path><path d="M153.81516,159.30057v-111.34706h27.48967v111.34706z" fill="url(#color-15)" stroke="none" stroke-width="0" stroke-linecap="butt"></path><path d="M469.61863,168.12856v-73.72788h29.36619v73.72788z" fill="#000000" stroke="#000000" stroke-width="0.25" stroke-linecap="butt"></path><path d="M-21.48404,186.87294v-73.72788h26.24213v73.72788z" fill="#000000" stroke="#000000" stroke-width="0.25" stroke-linecap="butt"></path></g></g></svg>