<svg version="1.1" xmlns="http://www.w3.org/2000/svg" xmlns:xlink="http://www.w3.org/1999/xlink" width="168.62582" height="140.22941" viewBox="0,0,168.62582,140.22941"><defs><radialGradient cx="255.67931" cy="165.77026" r="18.93342" gradientUnits="userSpaceOnUse" id="color-1"><stop offset="0" stop-color="#e0e0e0"></stop><stop offset="1" stop-color="#dcdcdc"></stop></radialGradient><radialGradient cx="297.16857" cy="144.45486" r="25.7826" gradientUnits="userSpaceOnUse" id="color-2"><stop offset="0" stop-color="#e0e0e0"></stop><stop offset="1" stop-color="#dcdcdc"></stop></radialGradient><radialGradient cx="303.0494" cy="160.32522" r="23.33895" gradientUnits="userSpaceOnUse" id="color-3"><stop offset="0" stop-color="#e0e0e0"></stop><stop offset="1" stop-color="#dcdcdc"></stop></radialGradient><radialGradient cx="276.9514" cy="167.25697" r="14.33988" gradientUnits="userSpaceOnUse" id="color-4"><stop offset="0" stop-color="#e0e0e0"></stop><stop offset="1" stop-color="#dcdcdc"></stop></radialGradient><radialGradient cx="262.17868" cy="181.59098" r="22.63312" gradientUnits="userSpaceOnUse" id="color-5"><stop offset="0" stop-color="#e0e0e0"></stop><stop offset="1" stop-color="#dcdcdc"></stop></radialGradient><radialGradient cx="332.22937" cy="155.43354" r="27.33719" gradientUnits="userSpaceOnUse" id="color-6"><stop offset="0" stop-color="#e0e0e0"></stop><stop offset="1" stop-color="#dcdcdc"></stop></radialGradient><linearGradient x1="317.80035" y1="126.46908" x2="327.94982" y2="126.46908" gradientUnits="userSpaceOnUse" id="color-7"><stop offset="0" stop-color="#000000"></stop><stop offset="1" stop-color="#2f2f2f"></stop></linearGradient><radialGradient cx="270.0882" cy="146.20539" r="6.20531" gradientUnits="userSpaceOnUse" id="color-8"><stop offset="0" stop-color="#e0e0e0"></stop><stop offset="1" stop-color="#dcdcdc"></stop></radialGradient></defs><g transform="translate(-206.74686,-72.55674)"><g data-paper-data="{&quot;isPaintingLayer&quot;:true}" fill-rule="nonzero" stroke-linecap="butt" stroke-linejoin="miter" stroke-miterlimit="10" stroke-dasharray="" stroke-dashoffset="0" style="mix-blend-mode: normal"><path d="M260.08835,75.07513c0,0 9.26606,-2.91909 17.87228,-2.30972c7.46591,0.52865 14.27902,4.48256 16.04611,5.7855c0.2096,0.15455 1.84123,9.04319 -2.84713,12.56374c-4.68836,3.52055 -7.36334,0.96409 -15.0326,0.86241c-7.0286,-0.09319 -15.82579,-3.67873 -15.92802,-4.35246c-0.60247,-3.97074 -0.11067,-12.54949 -0.11067,-12.54949z" fill="#afafaf" stroke="#000000" stroke-width="0.25"></path><path d="M313.08723,109.85861l1.65469,-3.63032l6.37542,0.52966l2.60137,3.07923l-0.47248,3.82541c0,0 -1.96792,-3.21497 -3.28952,-3.75465c-1.22443,-0.50001 -3.38486,-0.47027 -4.99535,-0.24182c-1.11291,0.15786 -1.87414,0.19249 -1.87414,0.19249z" fill="#383838" stroke="#000000" stroke-width="0.25"></path><path d="M288.42026,82.18536l11.12963,15.59894l15.36519,8.45205l-1.73285,3.21454c0,0 -11.14537,-3.09043 -16.95072,-6.5551c-5.75826,-3.43657 -13.0266,-14.3025 -13.0266,-14.3025z" fill="#d89856" stroke="#000000" stroke-width="0.25"></path><path d="M285.39968,92.72552c0,0 -3.19282,-3.24499 -3.63233,-7.43318c-0.24063,-2.29299 1.60055,-3.40979 2.77384,-4.19502c0.96976,-0.64901 2.66706,-0.77782 4.22096,-0.69424c3.43396,0.18471 5.48833,7.69686 5.48833,7.69686z" fill="#afafaf" stroke="#000000" stroke-width="0.25"></path><path d="M264.61654,96.23588c-3.50785,14.68687 -7.255,30.50279 -7.80244,33.16328c-0.15382,0.74753 -5.4444,-5.12015 -5.4444,-5.12015l2.94151,-28.79052c0,0 11.07303,-2.4668 10.30533,0.74742z" fill="#d89856" stroke="#000000" stroke-width="0.25"></path><path d="M250.6684,134.14089l0.17218,-9.76168l17.38671,4.93206l-0.09062,5.13772z" fill="#636363" stroke="#000000" stroke-width="0.25"></path><path d="M248.92589,81.02755c4.58519,-7.24772 12.02416,-5.95968 12.02416,-5.95968c0,0 -2.41977,8.55543 -0.6278,12.24604c2.43749,5.02008 4.32228,7.73125 4.32353,8.19598c0.01999,7.46882 -10.55869,2.16151 -10.55869,2.16151c0,0 -8.96464,-10.63183 -5.1612,-16.64385z" fill="#333333" stroke="#000000" stroke-width="0.25"></path><path d="M346.18814,179.87692c0,2.38448 -2.00458,4.31746 -4.47737,4.31746c-2.47278,0 -4.47737,-1.933 -4.47737,-4.31746c0,-2.38448 2.00459,-4.31745 4.47737,-4.31745c2.47278,0 4.47737,1.93299 4.47737,4.31745z" fill="#000000" stroke="none" stroke-width="0"></path><path d="M270.81093,179.62149c0,16.50044 -13.6137,29.87668 -30.40703,29.87668c-16.79334,0 -30.40704,-13.37624 -30.40704,-29.87668c0,-16.50044 13.6137,-29.87668 30.40704,-29.87668c16.79335,0 30.40703,13.37624 30.40703,29.87668z" fill="none" stroke="#000000" stroke-width="6.5"></path><path d="M244.23677,179.83895c0,2.38448 -2.00459,4.31746 -4.47737,4.31746c-2.47278,0 -4.47737,-1.93299 -4.47737,-4.31746c0,-2.38448 2.00459,-4.31746 4.47737,-4.31746c2.47278,0 4.47737,1.93299 4.47737,4.31746z" fill="#000000" stroke="none" stroke-width="0"></path><path d="M240.24982,180.53697c0,0 -0.59441,4.72778 -1.36241,4.17447c-0.30143,-0.21717 -2.2289,-1.58857 -2.89711,-3.44565c-0.57737,-1.60461 0.07349,-3.74467 0.07349,-3.74467l35.72709,-26.29021l2.82185,3.9253z" fill="url(#color-1)" stroke="none" stroke-width="0"></path><path d="M272.9868,155.86013l-1.60082,-4.50241l49.96437,-18.30814l1.60082,4.50241z" fill="url(#color-2)" stroke="none" stroke-width="0"></path><path d="M284.67403,183.66417l-3.82589,-3.68076l40.57662,-42.99714l3.8259,3.68077z" fill="url(#color-3)" stroke="none" stroke-width="0"></path><path d="M283.43925,180.27923l-4.01981,1.31762l-8.95589,-27.36214l4.01981,-1.31762z" fill="url(#color-4)" stroke="none" stroke-width="0"></path><path d="M372.12269,179.65947c0,16.50044 -13.6137,29.87668 -30.40704,29.87668c-16.79334,0 -30.40704,-13.37624 -30.40704,-29.87668c0,-16.50044 13.6137,-29.87668 30.40704,-29.87668c16.79334,0 30.40704,13.37624 30.40704,29.87668z" fill="none" stroke="#000000" stroke-width="6.5"></path><path d="M237.8207,184.37126l1.72488,-4.83356c0,0 1.84972,-0.02977 3.78888,-0.06098c6.40873,-0.10315 41.38333,-0.66603 41.38333,-0.66603l0.09403,4.83355z" fill="url(#color-5)" stroke="none" stroke-width="0"></path><path d="M319.50103,129.81251l4.45971,-1.71616c0,0 20.32811,51.88758 20.99701,52.95822c1.24899,1.99913 -2.86752,3.56176 -4.4597,1.71615c-1.33243,-1.54451 -20.99702,-52.95821 -20.99702,-52.95821z" fill="url(#color-6)" stroke="none" stroke-width="0"></path><path d="M319.60239,129.97125l-1.80204,-3.06175l8.88044,-3.94261l1.26902,4.1278z" fill="url(#color-7)" stroke="none" stroke-width="0"></path><path d="M322.3451,111.60279c0,1.06456 -2.01461,1.75298 -3.42295,1.75298c-1.40834,0 -2.55002,-0.863 -2.55002,-1.92757c0,-1.06456 1.14168,-1.92756 2.55002,-1.92756c1.40834,0 3.42295,1.03758 3.42295,2.10215z" fill="#000000" stroke="none" stroke-width="0"></path><path d="M323.93449,124.21873l-4.08573,-11.30607l3.13824,-1.51601l3.87253,11.8391z" fill="#000000" stroke="none" stroke-width="0"></path><path d="M270.78606,152.4107l-5.34225,-10.43857l3.9465,-1.97205l5.34225,10.43856z" fill="url(#color-8)" stroke="none" stroke-width="0"></path><path d="M254.25754,141.40822l1.49246,-6.07643c0,0 5.60407,-0.19671 8.77172,-0.63415c4.06736,-0.56168 13.61512,-2.45737 13.61512,-2.45737l0.53302,3.30473c0,0 -3.038,0.61937 -6.24167,1.55083c-0.89226,0.25942 -1.61626,2.661 -3.0558,3.09653c-1.76322,0.53346 -3.21102,1.71088 -5.25666,2.05227c-4.6087,0.76914 -9.85819,-0.83641 -9.85819,-0.83641z" fill="#383838" stroke="none" stroke-width="0"></path></g></g></svg>