<svg version="1.1" xmlns="http://www.w3.org/2000/svg" xmlns:xlink="http://www.w3.org/1999/xlink" width="153.67957" height="87.06464" viewBox="0,0,153.67957,87.06464"><defs><linearGradient x1="303.14758" y1="134.31111" x2="313.45544" y2="135.1911" gradientUnits="userSpaceOnUse" id="color-1"><stop offset="0" stop-color="#7f5000"></stop><stop offset="1" stop-color="#735a33"></stop></linearGradient><radialGradient cx="306.90883" cy="136.90162" r="2.33313" gradientUnits="userSpaceOnUse" id="color-2"><stop offset="0" stop-color="#5e4528"></stop><stop offset="1" stop-color="#7b6338"></stop></radialGradient><radialGradient cx="295.57179" cy="156.49085" r="7.34418" gradientUnits="userSpaceOnUse" id="color-3"><stop offset="0" stop-color="#5e4528"></stop><stop offset="1" stop-color="#7b6338"></stop></radialGradient><radialGradient cx="295.63469" cy="156.42794" r="5.47593" gradientUnits="userSpaceOnUse" id="color-4"><stop offset="0" stop-color="#7b5a35"></stop><stop offset="1" stop-color="#b59152"></stop></radialGradient><radialGradient cx="329.15467" cy="154.64941" r="1.29246" gradientUnits="userSpaceOnUse" id="color-5"><stop offset="0" stop-color="#adadad"></stop><stop offset="1" stop-color="#a5a5a5"></stop></radialGradient><linearGradient x1="313.83598" y1="167.19147" x2="313.83598" y2="169.52443" gradientUnits="userSpaceOnUse" id="color-6"><stop offset="0" stop-color="#7d7d7d"></stop><stop offset="1" stop-color="#b3b3b3"></stop></linearGradient><linearGradient x1="307.86942" y1="109.3985" x2="307.86942" y2="132.21778" gradientUnits="userSpaceOnUse" id="color-7"><stop offset="0" stop-color="#0f0f0f"></stop><stop offset="1" stop-color="#000000"></stop></linearGradient><linearGradient x1="241.89964" y1="122.36019" x2="241.89964" y2="151.58313" gradientUnits="userSpaceOnUse" id="color-8"><stop offset="0" stop-color="#828282"></stop><stop offset="1" stop-color="#989898"></stop></linearGradient><linearGradient x1="242.28106" y1="122.36019" x2="242.28106" y2="151.58313" gradientUnits="userSpaceOnUse" id="color-9"><stop offset="0" stop-color="#828282"></stop><stop offset="1" stop-color="#989898"></stop></linearGradient><linearGradient x1="275.46454" y1="142.91413" x2="275.46454" y2="146.53761" gradientUnits="userSpaceOnUse" id="color-10"><stop offset="0" stop-color="#828282"></stop><stop offset="1" stop-color="#989898"></stop></linearGradient><linearGradient x1="315.97842" y1="107.6948" x2="315.97842" y2="109.58232" gradientUnits="userSpaceOnUse" id="color-11"><stop offset="0" stop-color="#0f0f0f"></stop><stop offset="1" stop-color="#000000"></stop></linearGradient></defs><g transform="translate(-222.28144,-83.12829)"><g data-paper-data="{&quot;isPaintingLayer&quot;:true}" fill-rule="nonzero" stroke-linejoin="miter" stroke-miterlimit="10" stroke-dasharray="" stroke-dashoffset="0" style="mix-blend-mode: normal"><path d="M363.88547,149.75858l-0.15162,-1.51624l10.6137,-0.15162l0.6065,1.36462z" fill="#7d7d7d" stroke="#000000" stroke-width="0.1" stroke-linecap="butt"></path><path d="M327.31779,111.04856l-5.99559,-8.89542l1.92016,-1.8026c0,0 7.02477,10.98046 7.48725,11.77733c0.32065,0.5525 -0.27686,0.44899 -0.27686,0.44899z" fill="#1f1f1f" stroke="none" stroke-width="0" stroke-linecap="butt"></path><path d="M271.8104,168.47302l-2.01336,-24.52254c0,0 16.80131,-1.21848 23.4802,-0.09114c6.48617,1.0948 16.03193,6.76039 16.03193,6.76039c0,0 1.90082,0.06234 1.91394,0.99283c0.02024,1.43622 -2.48618,5.62479 -1.64371,9.60548c0.34328,1.62198 1.11774,3.30707 1.04056,4.64454c-0.08852,1.53383 -1.05911,2.61046 -1.05911,2.61046z" fill="#080808" stroke="none" stroke-width="0" stroke-linecap="butt"></path><path d="M283.26138,144.69024c0,0 -14.85446,-1.17182 -13.01432,-3.3563c3.7932,-4.50303 20.31273,-15.89643 20.31273,-15.89643h38.12795l2.26503,21.01442c0,0 0.97381,4.27716 -1.15332,3.58756c-4.59136,-1.48852 -14.88188,-8.62096 -18.98024,-8.62096c-4.69128,0 -27.55782,3.27171 -27.55782,3.27171z" fill="#2b2b2b" stroke="none" stroke-width="0" stroke-linecap="butt"></path><g stroke-linecap="butt"><path d="M314.65041,143.62043c-1.05908,0.61077 -4.36742,0.0578 -4.36742,0.0578c0,0 -0.16742,-3.31378 0.63328,-3.59678c0.31559,-0.11155 2.92994,-0.07991 2.92994,-0.07991l7.06545,-7.4101l2.06794,1.2063c0,0 -6.60007,8.82551 -8.32918,9.82269z" fill="#1f1f1f" stroke="none" stroke-width="0"></path><path d="M329.41317,155.74084v-2.2977h2.24026l1.6084,1.83817z" fill="#1f1f1f" stroke="none" stroke-width="0"></path><path d="M313.27178,157.40667l-2.41259,-1.37862c0,0 1.55093,-2.3359 2.79186,-2.8672c1.24916,-0.53483 3.46939,-0.34959 3.46939,-0.34959l0.4021,2.18282c0,0 -1.63055,0.13163 -2.34704,0.42209c-0.70005,0.2838 -1.90372,1.99048 -1.90372,1.99048z" fill="#1f1f1f" stroke="none" stroke-width="0"></path><path d="M300.05996,163.03605c0,0 -11.33517,-2.75734 -11.43798,-4.98925c-0.03231,-0.70162 -1.88634,-1.33452 -2.92386,-2.52723c-1.5419,-1.77251 -2.4607,-4.08713 -2.4607,-4.08713c0,0 0.15952,-3.87163 1.37047,-4.59521c3.3286,-1.98893 25.33222,4.59542 25.33222,4.59542c0,0 -0.23015,3.90234 0.13212,4.06047c0.46251,0.20188 3.14358,0.27973 3.57977,2.41033c0.30026,1.46666 -0.42144,2.8112 -1.64511,3.34925c-0.76238,0.33522 -1.9305,0.11137 -2.52257,0.16164c-1.08215,0.09188 -1.84232,0.73732 -3.88746,1.20301c-2.19974,0.50087 -5.53687,0.41872 -5.53687,0.41872z" fill="#969696" stroke="#000000" stroke-width="0.25"></path><path d="M305.44515,137.83419l-2.55436,-0.51501c0,0 1.46066,-1.5404 2.45831,-2.36168c1.27561,-1.05011 4.40946,-3.94555 4.40946,-3.94555c0,0 2.69461,2.35158 3.35116,3.1494c0.52392,0.63664 0.5323,1.89631 0.5323,1.89631l-0.48129,2.5722z" fill="url(#color-1)" stroke="#000000" stroke-width="0.25"></path><path d="M304.50221,137.66335l-1.75152,-0.18082c0,0 1.00158,-1.22857 1.68565,-1.79172c0.87468,-0.72006 2.89284,-2.52027 2.89284,-2.52027c0,0 1.32655,0.50526 2.22569,1.97105c0.56743,0.92503 0.19881,3.02098 0.19881,3.02098z" fill="url(#color-2)" stroke="#000000" stroke-width="0.25"></path><path d="M288.39921,156.49085c0,-3.9613 3.21126,-7.17259 7.17258,-7.17259c3.96131,0 7.17258,3.21128 7.17258,7.17259c0,3.9613 -3.21128,7.17258 -7.17258,7.17258c-3.96131,0 -7.17258,-3.21126 -7.17258,-7.17258z" fill="url(#color-3)" stroke="#000000" stroke-width="0.5"></path><path d="M290.28674,156.42794c0,-2.95361 2.39437,-5.34799 5.34798,-5.34799c2.95361,0 5.34799,2.39437 5.34799,5.34799c0,2.95361 -2.39437,5.34798 -5.34799,5.34798c-2.95361,0 -5.34798,-2.39437 -5.34798,-5.34798z" fill="url(#color-4)" stroke="#000000" stroke-width="0.25"></path><path d="M300.9659,148.97967c0,0 1.22533,-8.77144 1.25079,-9.66835c0.01955,-0.68886 0.47117,-1.78027 0.47117,-1.78027l10.48627,1.16607l-3.20144,12.64781c0,0 -1.79517,1.67569 -4.16721,1.30027c-3.55263,-0.56227 -4.83959,-3.66553 -4.83959,-3.66553z" fill="#969696" stroke="#000000" stroke-width="0.25"></path><path d="M317.12043,156.14294c-0.71873,-0.24536 -0.81318,-3.53086 0,-3.79121c0.49108,-0.15723 7.77755,-0.2807 9.07594,0c1.04114,0.22509 0.52811,3.69965 0,3.79121c-1.01008,0.17511 -8.58848,0.16641 -9.07594,0z" fill="#1f1f1f" stroke="none" stroke-width="0"></path><path d="M326.48358,155.74084v-2.2977h2.24026v2.2977z" fill="#1f1f1f" stroke="none" stroke-width="0"></path><path d="M328.72385,156.02804c-0.09684,-0.3228 -0.27614,-2.16633 0,-2.81469c0.23273,-0.54645 1.0914,0.4021 1.0914,0.4021l-0.11487,2.18282c0,0 -0.87968,0.55257 -0.97653,0.22977z" fill="url(#color-5)" stroke="none" stroke-width="0"></path></g><path d="M286.75705,170.19098c0,0 -3.79397,0.10179 -5.09155,-1.16362c-1.65815,-1.61703 -3.02393,-15.53533 -3.02393,-15.53533c0,0 -0.39871,-2.93343 -0.18321,-4.38835c0.21319,-1.43938 1.46936,-4.29508 1.46936,-4.29508c0,0 1.42882,-3.24698 2.54404,-4.54833c2.11583,-2.46896 4.71502,-3.96084 4.71502,-3.96084l28.9139,-7.16146l2.07348,1.94735l-29.09126,6.73663c0,0 -4.11844,3.85487 -5.54851,6.49546c-1.32212,2.44127 -2.7335,8.79709 -2.7335,8.79709l3.53988,13.82701c0,0 27.95794,-0.43418 28.74331,-0.63372c1.99299,-0.94034 5.32287,-3.03144 8.78302,-5.09083c5.10584,-3.03887 10.29919,-6.10686 10.29919,-6.10686c0,0 3.3283,1.72308 3.23004,2.18007c-0.22455,1.04442 -16.69343,7.90968 -16.70944,8.29028c-0.01236,0.29368 9.71398,0.34163 10.23936,-0.45506c0.04722,-0.07162 12.69377,-23.00997 12.69377,-23.00997l4.0401,-2.44484c0,0 -7.96875,13.69122 -6.2213,13.75015c4.00077,0.13495 19.33333,-3.79725 19.33333,-3.79725l-8.54725,-14.67884l2.58851,-0.54456c0,0 4.99592,9.12021 8.01821,13.69331c0.42565,0.64406 2.30512,-0.29609 3.01193,0.00926c0.94768,0.4094 0.69065,1.95366 0.6226,2.01225c-0.77307,0.66563 -25.54327,6.33561 -26.40102,6.64808c-0.5904,0.21508 -3.61741,6.52514 -3.57893,6.47541c2.77171,-0.55531 41.00991,-15.47878 39.82041,-13.17167c-2.77016,5.37282 -41.53181,15.92786 -41.51715,15.938c0.21473,0.14841 33.87119,-0.14637 33.87119,-0.14637c0,0 2.31755,-4.03612 4.17826,-8.38299c2.13859,-4.99605 3.69426,-10.2925 3.72549,-9.98025c0.00614,0.06151 -0.35705,-5.15407 -0.02062,-5.24428c1.34922,-0.36184 1.20031,4.74836 1.29316,5.25868c0.40303,2.2153 -0.18132,7.6933 -1.67292,12.15957c-2.28847,6.85229 -5.58701,9.77201 -5.58701,9.77201z" fill="url(#color-6)" stroke="none" stroke-width="0" stroke-linecap="butt"></path><path d="M270.8791,162.9786c0,0 -1.00333,-4.91506 -1.64664,-9.64517c-0.60799,-4.47041 -0.86373,-8.76335 -0.67566,-8.9973c0.28679,-0.35674 1.34578,1.00757 1.34578,1.00757c0,0 1.30319,4.58059 1.92036,7.17444c0.29859,1.25494 0.57039,2.86397 1.24187,5.40473c0.89104,3.3715 1.37574,6.20458 1.37574,6.20458l2.01251,1.72926c0,0 6.87331,0.42813 7.28261,0.60819c0.28472,0.12526 4.78191,-0.32552 6.83399,0.47268c1.75463,0.68249 1.14639,2.61647 0.96637,2.85284c-0.21828,0.2866 -3.89988,0.28015 -7.41779,0.03953c-4.55765,-0.31173 -9.81126,-1.81194 -9.81126,-1.81194c0,0 -2.3262,-1.38015 -2.62255,-1.47574c-0.08138,-0.02625 -0.80533,-3.56366 -0.80533,-3.56366z" fill="#2a2a2a" stroke="#000000" stroke-width="0.5" stroke-linecap="butt"></path><path d="M360.70135,129.76265l-26.38263,-14.70755l10.31045,-0.90976c0,0 8.58611,4.75296 12.24091,7.42971c2.53066,1.85345 6.98235,5.59859 8.76971,7.63819c0.69647,0.79475 0.06516,2.06565 0.06516,2.06565z" fill="#292929" stroke="#717171" stroke-width="0.25" stroke-linecap="butt"></path><path d="M319.50059,116.02793c0,0 -2.11191,-5.149 -1.72069,-5.37715c0.6441,-0.37563 6.5401,0.8391 13.14776,3.14757c7.23472,2.52754 14.70009,5.63488 17.38219,7.11099c2.8275,1.55614 6.61234,3.12944 9.4317,5.13898c1.98032,1.4115 3.91591,4.713 3.91591,4.713c0,0 -30.79945,5.92812 -38.53228,3.3242c-0.53997,-0.18182 -1.72703,-0.59166 -3.23943,-1.29108c-2.21314,-1.02347 -4.87745,-2.54428 -5.20658,-3.86628c-1.33985,-5.38163 4.82143,-12.90024 4.82143,-12.90024z" fill="#151515" stroke="#717171" stroke-width="0.5" stroke-linecap="butt"></path><path d="M322.80954,139.68999c-0.21064,-0.8013 0.62917,-5.97524 0.62917,-5.97524c0,0 6.80004,-12.15851 12.24802,-12.40074c4.69776,-0.20888 16.27818,5.49282 22.52907,9.18592c2.67043,1.57773 4.44775,3.08297 4.44775,3.08297c0,0 -8.94377,1.19766 -13.20324,1.90721c-2.70224,1.00062 -13.55338,19.73292 -14.11929,20.80861c-0.218,0.41441 -5.45065,-2.33784 -5.45065,-2.33784c0,0 -0.03165,-9.23893 -0.2207,-9.23948c-0.7623,-0.00221 -1.76075,-0.30554 -1.91202,-0.28245c-0.39365,0.06007 -4.77726,-4.09903 -4.94811,-4.74897z" fill="#1c1c1c" stroke="#717171" stroke-width="0.25" stroke-linecap="butt"></path><path d="M261.65379,127.67468l-27.55782,-10.31845c0,0 1.6429,-0.99788 3.52428,-0.78964c13.7309,1.51984 30.83295,4.55222 35.1086,4.56571c16.98215,0.05354 29.1921,-8.9353 29.1921,-8.9353c0,0 -13.23005,14.77755 -22.62843,16.36216c-11.72597,1.97705 -17.6387,-0.88448 -17.6387,-0.88448z" fill="#222222" stroke="#000000" stroke-width="0.5" stroke-linecap="butt"></path><path d="M262.03131,134.5956l-0.12584,-7.67593c0,0 5.22186,0.76883 7.46358,1.15716c2.9093,0.50398 14.05417,-0.52799 14.05417,-0.52799l-6.41758,7.04675z" fill="#151515" stroke="#717171" stroke-width="0.5" stroke-linecap="butt"></path><path d="M285.18493,126.41634c0,0 6.93956,-5.313 11.46849,-9.03881c2.55206,-2.09951 3.79355,-4.50607 5.76549,-6.11218c1.26925,-1.03377 8.55236,-1.86282 13.72116,-1.86684c2.80301,-0.00218 4.68075,1.20792 5.17222,1.67577c0.07697,0.07327 -3.66561,-0.86328 -3.86751,-0.35604c-0.22883,0.57492 9.16302,8.27454 9.27853,8.5355c-0.22387,0.2889 3.92516,2.02136 3.82897,3.49308c-0.13013,1.99094 -4.58241,3.92252 -5.82671,5.07439c-0.75458,0.69853 -3.18297,-2.1698 -4.30993,-1.64469c-2.04072,0.95088 -4.07962,2.68644 -7.04861,3.87678c-3.17234,1.27186 -7.26393,1.97474 -8.94221,2.16235c-0.79771,0.08917 0.84329,-1.86984 0.46379,-1.84366c-1.09376,0.07545 -19.70367,-3.95564 -19.70367,-3.95564z" fill="url(#color-7)" stroke="#717171" stroke-width="0.25" stroke-linecap="butt"></path><g stroke="#000000" stroke-width="0.5" stroke-linecap="butt"><path d="M225.02182,138.97411c0,0 -3.35313,-3.47492 -2.27772,-6.16028c1.00816,-2.51745 4.94766,-3.94734 4.94766,-3.94734l31.84853,9.7262c0,0 5.25783,2.24073 7.1866,4.46396c0.68267,0.78689 -0.05261,1.953 -0.19659,2.63539c-0.55005,2.60666 -10.42278,2.81757 -10.42278,2.81757c0,0 -9.61982,-2.36075 -14.65935,-3.89719c-5.36549,-1.63582 -16.42634,-5.6383 -16.42634,-5.6383z" fill="url(#color-8)"></path><path d="M225.21253,138.97411c0,0 -0.49247,-3.28422 0.58293,-5.96957c1.00816,-2.51745 2.84985,-3.75662 2.84985,-3.75662l31.2764,9.34477l-3.43278,9.91691c0,0 -9.61982,-2.36075 -14.65935,-3.89719c-5.36549,-1.63582 -16.61705,-5.6383 -16.61705,-5.6383z" fill="url(#color-9)"></path><path d="M265.8337,146.53761v-3.62348l18.68955,-0.19071c0,0 4.19058,-0.04251 7.39447,-0.61974c0.46009,-0.08289 1.47717,-1.03465 3.72065,-1.01689c2.77462,0.02195 22.07962,5.49425 22.07962,5.49425c0,0 -5.44027,-4.78128 -5.39944,-4.32309c0.01156,0.12982 0.47364,-2.27495 0.47364,-2.27495c0,0 8.56026,5.87511 8.59176,7.98424c0.03253,2.17686 -3.30293,2.68956 -3.30293,2.68956l-6.03548,0.13182c0,0 -18.71357,-5.76984 -19.6626,-5.82896c-0.96484,-0.06009 -5.38045,1.19654 -5.38045,1.19654z" fill="url(#color-10)"></path><path d="M304.44054,146.24493l-4.86158,-1.48219c0,0 -0.11393,-1.14776 0.34017,-1.11577c0.45411,0.03199 4.86158,1.48219 4.86158,1.48219z" fill="#000000"></path><path d="M311.60605,148.41125l-4.86158,-1.48219c0,0 -0.11393,-1.14776 0.34017,-1.11577c0.45411,0.03199 4.86158,1.48219 4.86158,1.48219z" fill="#000000"></path></g><path d="M262.78631,134.46977c0,0 -0.04403,-4.39809 0.63888,-4.76522c1.75536,-0.94374 3.63951,2.24853 3.63951,2.24853c0,0 1.8726,-0.17331 6.04642,-0.31167c1.01775,-0.03374 12.22252,-5.66367 13.20237,-5.84534c1.09811,-0.2036 18.93947,4.28378 18.93947,4.28378c0,0 0.12025,1.61013 -0.52606,1.77939c-0.40319,0.10559 -11.57933,2.59782 -20.92447,5.47973c-3.7639,1.16073 -10.60427,3.86059 -11.118,4.21552c-1.00527,0.69451 -2.85137,4.1146 -2.85137,4.1146c0,0 -4.94611,-5.49633 -5.85315,-6.91462c-1.2733,-1.99099 -1.19359,-4.28467 -1.19359,-4.28467z" fill="#151515" stroke="#717171" stroke-width="0.5" stroke-linecap="butt"></path><path d="M235.2285,123.27046l-6.75425,-3.57579c0,0 1.04323,-0.36937 0.41109,-1.23672c-0.81293,-1.11541 -3.32708,-2.80755 -3.09446,-2.98926c0.53296,-0.41632 10.09236,1.64729 15.37754,3.45881c3.35232,1.14903 12.61072,3.13425 18.75206,7.12573c5.54378,3.60311 9.03237,9.84297 9.49233,11.33323c1.10894,3.593 0.9268,8.33541 0.22317,8.61645c-0.43274,0.17284 -1.992,0.73842 -3.31787,-2.28036c-1.02278,-2.32871 -3.18546,-5.69621 -4.9632,-9.42774c-0.95199,-1.48228 -4.59136,-4.35397 -9.74142,-6.37843c-7.19849,-2.82972 -16.38499,-4.64593 -16.38499,-4.64593z" fill="#151515" stroke="#717171" stroke-width="0.5" stroke-linecap="butt"></path><path d="M323.81621,135.22477l-0.37751,-1.76168c0,0 6.19091,-14.25574 11.82848,-14.72268c4.55936,-0.37764 10.21356,2.27639 14.60032,4.53862c3.08845,1.59269 10.05138,6.02111 12.02632,7.5705c1.29621,1.01691 0.93117,2.86523 0.93117,2.86523c0,0 -19.55774,-12.15411 -26.42413,-12.01991c-2.42796,0.04745 -4.23328,2.35046 -6.39718,5.17435c-3.04609,3.97513 -6.18748,8.35558 -6.18748,8.35558z" fill="#151515" stroke="#717171" stroke-width="0.5" stroke-linecap="butt"></path><path d="M312.61178,109.42558c-0.92807,-0.14171 -0.03092,-1.1016 -0.03092,-1.1016c0,0 2.24309,-0.92296 3.2873,-0.99012c0.53319,-0.0343 1.34872,-0.09606 1.95493,0.07238c0.52586,0.14612 0.8845,0.52369 0.8845,0.52369c0,0 0.67073,0.46225 0.58642,0.98788c-0.09761,0.60855 -1.09585,0.74288 -1.09585,0.74288c0,0 -1.69939,-0.1468 -2.79155,-0.18597c-1.48959,-0.05343 -2.5238,-0.00777 -2.79482,-0.04915z" fill="url(#color-11)" stroke="#717171" stroke-width="0.25" stroke-linecap="butt"></path><path d="M314.97392,107.60012c0,0 -0.55878,-3.69934 3.29642,-3.97626c8.97774,-0.64489 8.45965,7.7382 8.45965,7.7382" fill="none" stroke="#000000" stroke-width="0.5" stroke-linecap="round"></path><path d="M316.18872,101.0167c0,-1.73139 1.40357,-3.13495 3.13495,-3.13495c1.73139,0 3.13496,1.40357 3.13496,3.13495c0,1.73139 -1.40357,3.13495 -3.13496,3.13495c-1.73139,0 -3.13495,-1.40357 -3.13495,-3.13495z" fill="#3a3a3a" stroke="none" stroke-width="0" stroke-linecap="butt"></path><path d="M327.16105,112.34173l0.19593,-1.29317h2.74308c0,0 0.67673,1.08647 0.94136,1.56699c0.2254,0.40929 0.43018,1.17609 0.43018,1.17609z" fill="#000000" stroke="none" stroke-width="0" stroke-linecap="butt"></path><path d="M313.64819,104.19787l-2.016,-3.44279l4.10306,-4.90831l4.01535,-0.35463l2.85607,2.5884c0,0 -3.76169,-0.24149 -4.96377,0.52852c-1.11369,0.7134 -2.33298,2.4971 -3.07327,3.94551c-0.51154,1.00091 -0.92144,1.6433 -0.92144,1.6433z" fill="#383838" stroke="#000000" stroke-width="0.25" stroke-linecap="butt"></path><path d="M256.53649,118.76321c0,0 0.75117,-13.94128 2.88961,-18.1562c0.16033,-0.31602 3.38612,-5.08834 7.91542,-9.4559c5.567,-5.3682 13.35077,-7.88296 13.35077,-7.88296l6.00612,4.89849c0,0 6.98854,6.49967 4.97487,8.11815c-0.25353,0.20377 -0.51675,0.40776 -0.78809,0.6088c-5.82542,4.31593 -15.38989,11.70273 -13.06887,18.36223c1.0044,2.88187 -21.27983,3.5074 -21.27983,3.5074z" fill="#afafaf" stroke="#000000" stroke-width="0.25" stroke-linecap="butt"></path><path d="M285.68852,89.606l15.73902,11.20614l10.37513,-0.41081l1.99458,3.63798l-14.91964,1.88389l-18.93132,-8.2702z" fill="#d89856" stroke="#000000" stroke-width="0.25" stroke-linecap="butt"></path><path d="M287.51187,101.04676c0,0 -7.75474,-1.65167 -8.99127,-5.67723c-0.67699,-2.20395 0.91513,-3.65389 1.91557,-4.65006c0.82689,-0.82335 2.46776,-1.27608 4.00874,-1.49281c3.40541,-0.47895 7.80542,4.17767 7.80542,4.17767z" fill="#afafaf" stroke="#000000" stroke-width="0.25" stroke-linecap="butt"></path><path d="M293.23259,128.31965c-0.14486,15.09928 -0.27125,31.35254 -0.21171,34.06811c0.01673,0.76301 -6.44896,-3.77734 -6.44896,-3.77734l-3.55187,-28.72161c0,0 10.24426,-4.87362 10.21255,-1.56915z" fill="#d89856" stroke="#000000" stroke-width="0.25" stroke-linecap="butt"></path><path d="M256.73973,118.76321c0,0 19.11826,-10.00745 21.43928,-3.34795c1.0044,2.88187 12.61483,4.333 15.27957,11.31031c2.66475,6.97731 -9.06948,4.95004 -9.06948,4.95004z" fill="#333333" stroke="#000000" stroke-width="0.25" stroke-linecap="butt"></path><path d="M284.46204,166.37365l1.00132,-9.71172l16.90454,6.39214l-0.52701,5.11142z" fill="#636363" stroke="#000000" stroke-width="0.25" stroke-linecap="butt"></path></g></g></svg>