<svg version="1.1" xmlns="http://www.w3.org/2000/svg" xmlns:xlink="http://www.w3.org/1999/xlink" width="169.69326" height="148.78407" viewBox="0,0,169.69326,148.78407"><defs><linearGradient x1="342.52293" y1="130.00588" x2="363.05379" y2="130.00588" gradientUnits="userSpaceOnUse" id="color-1"><stop offset="0" stop-color="#000000"></stop><stop offset="1" stop-color="#2d2d2d"></stop></linearGradient><linearGradient x1="329.25095" y1="108.91267" x2="334.40853" y2="106.6156" gradientUnits="userSpaceOnUse" id="color-2"><stop offset="0" stop-color="#4a4a4a"></stop><stop offset="1" stop-color="#313131"></stop></linearGradient><linearGradient x1="303.85648" y1="148.48361" x2="318.22808" y2="148.48361" gradientUnits="userSpaceOnUse" id="color-3"><stop offset="0" stop-color="#7f7f7f"></stop><stop offset="1" stop-color="#bbbbbb"></stop></linearGradient><linearGradient x1="302.14556" y1="144.12083" x2="305.39628" y2="144.12083" gradientUnits="userSpaceOnUse" id="color-4"><stop offset="0" stop-color="#bbbbbb"></stop><stop offset="1" stop-color="#7f7f7f"></stop></linearGradient><linearGradient x1="311.04229" y1="143.77866" x2="314.29294" y2="143.77866" gradientUnits="userSpaceOnUse" id="color-5"><stop offset="0" stop-color="#bbbbbb"></stop><stop offset="1" stop-color="#7f7f7f"></stop></linearGradient><linearGradient x1="306.765" y1="145.14738" x2="310.01572" y2="145.14738" gradientUnits="userSpaceOnUse" id="color-6"><stop offset="0" stop-color="#bbbbbb"></stop><stop offset="1" stop-color="#7f7f7f"></stop></linearGradient><linearGradient x1="328.83565" y1="134.28314" x2="351.76182" y2="134.28314" gradientUnits="userSpaceOnUse" id="color-7"><stop offset="0" stop-color="#000000"></stop><stop offset="1" stop-color="#313131"></stop></linearGradient><linearGradient x1="325.41384" y1="103.82905" x2="332.94185" y2="103.82905" gradientUnits="userSpaceOnUse" id="color-8"><stop offset="0" stop-color="#000000"></stop><stop offset="1" stop-color="#313131"></stop></linearGradient></defs><g transform="translate(-209.45998,-62.13962)"><g data-paper-data="{&quot;isPaintingLayer&quot;:true}" fill-rule="nonzero" stroke-linecap="butt" stroke-linejoin="miter" stroke-miterlimit="10" stroke-dasharray="" stroke-dashoffset="0" style="mix-blend-mode: normal"><path d="M294.14488,165.49729l0.62665,-9.74307l17.13813,5.73652l-0.32982,5.12792z" fill="#636363" stroke="#000000" stroke-width="0.25"></path><path d="M265.25118,180.8986c0,13.68291 -11.31403,24.77509 -25.2706,24.77509c-13.95657,0 -25.2706,-11.09219 -25.2706,-24.77509c0,-13.68291 11.31403,-24.77509 25.2706,-24.77509c13.95657,0 25.2706,11.09219 25.2706,24.77509z" fill="none" stroke="#000000" stroke-width="10.5"></path><path d="M288.28722,169.10005c0,0 -3.1499,-6.57469 -2.90921,-10.42587c0.26934,-4.30951 4.44902,-14.21116 4.44902,-14.21116c0,0 -1.93808,-12.50337 -0.82389,-13.18478c3.18618,-1.94858 21.52583,0.52408 21.52583,0.52408v40.89061z" fill="#464646" stroke="none" stroke-width="0"></path><path d="M295.64412,147.88484l2.90854,-13.00287l20.32458,-6.33035c0,0 3.08838,13.43466 3.76157,19.1261c0.56087,4.74188 0.00242,12.69672 0.00242,12.69672c0,0 -11.88572,12.13335 -14.27966,11.02585c-1.38812,-0.64217 -9.64299,-1.29216 -9.64299,-1.29216z" fill="#000000" stroke="none" stroke-width="0"></path><path d="M343.72057,132.99998l-16.11324,16.09426l-3.85028,-0.31966c0,0 5.38135,-10.00895 8.26151,-13.51458c3.02577,-3.68285 9.47781,-8.07709 9.47781,-8.07709l22.92612,0.17109c0,0 5.27364,2.75322 7.76578,4.43218c2.41573,1.62747 6.96497,5.49192 6.96497,5.49192l-3.99944,-0.30619l-11.24458,-5.51174z" fill="url(#color-1)" stroke="none" stroke-width="0"></path><path d="M332.89367,116.23937l-5.7456,-10.37614l5.15758,-1.6127l3.69253,11.23158z" fill="url(#color-2)" stroke="none" stroke-width="0"></path><path d="M299.6785,159.47431c0,4.11034 -3.4087,7.44243 -7.61353,7.44243c-4.20483,0 -7.61353,-3.33209 -7.61353,-7.44243c0,-4.11034 3.4087,-7.44243 7.61353,-7.44243c4.20483,0 7.61353,3.33209 7.61353,7.44243z" fill="#141414" stroke="none" stroke-width="0"></path><path d="M252.38902,126.66425c0,0 -23.00988,-5.52745 -22.79444,-6.22142c0.14127,-0.45503 24.4746,0.75191 24.4746,0.75191l36.10199,8.14242c0,0 10.75457,0.7242 18.42397,-2.37228c5.41593,-2.18665 8.26136,-6.62574 12.71387,-7.8184c4.45958,-1.19456 6.59179,1.47016 6.60478,1.7185c0.08127,1.55403 -36.2679,18.58208 -36.2679,18.58208l-2.16376,-6.57623l-24.60479,-3.71985l30.7668,17.87841l-0.1064,2.60874z" fill="#292929" stroke="none" stroke-width="0"></path><path d="M290.68253,129.74923c0,0 -14.60885,-3.38867 -21.0533,-4.92307c-5.31141,-1.26463 -15.56005,-3.63145 -15.56005,-3.63145c0,0 24.37917,2.35191 35.59131,2.25976c9.20565,-0.07567 28.56759,-2.94412 28.56759,-2.94412c0,0 -6.94014,5.81034 -11.46306,7.35689c-4.52292,1.54655 -16.0825,1.88199 -16.0825,1.88199z" fill="#6c778a" stroke="none" stroke-width="0"></path><path d="M238.40281,183.93066v-6.84362l41.91715,-17.62231c0,0 7.37237,4.1022 8.31846,6.09996c0.5889,1.24351 0.5332,5.10472 0.5332,5.10472l-10.90475,-5.2165z" fill="#292929" stroke="none" stroke-width="0"></path><path d="M300.26358,150.45119l-1.19763,-14.20051l15.39814,-3.25072l3.76399,24.80811z" fill="url(#color-3)" stroke="none" stroke-width="0"></path><path d="M302.14556,151.64882v-15.05596h3.25072v15.05596z" fill="url(#color-4)" stroke="none" stroke-width="0"></path><path d="M311.04229,154.55737v-21.5574h3.25072v21.5574z" fill="url(#color-5)" stroke="none" stroke-width="0"></path><path d="M306.765,154.04406v-17.79341h3.25072v17.79341z" fill="url(#color-6)" stroke="none" stroke-width="0"></path><path d="M288.01676,170.35474l0.17109,-4.67615l22.48175,4.44835l5.92441,-7.00159c0,0 -19.04182,-11.78453 -21.1234,-13.59764c-1.68775,-1.47009 -4.95256,-14.16257 -4.95256,-14.16257l42.18659,-19.03821c0,0 3.63729,8.65189 4.5489,10.33798c0.30878,0.57111 -0.74866,2.17339 -0.74866,2.17339l-35.40587,10.45455l1.01246,8.92886c0,0 23.31808,11.77429 22.77671,12.85702c-0.75767,1.51533 -12.33355,13.89543 -12.33355,13.89543z" fill="#292929" stroke="none" stroke-width="0"></path><path d="M350.22201,161.22985l-21.38631,-51.8404l4.79054,-2.05309l18.13559,45.16788z" fill="url(#color-7)" stroke="none" stroke-width="0"></path><path d="M341.60712,128.3805l-8.04124,-19.50431l2.19461,-0.16123c0,0 6.37726,5.26411 7.24489,8.52432c0.99647,3.74429 3.0501,9.94359 3.0501,9.94359z" fill="#292929" stroke="none" stroke-width="0"></path><path d="M234.83332,67.40985v-0.31891h1.43513v0.31891z" fill="#ffffff" stroke="none" stroke-width="0"></path><path d="M271.77739,64.17675c0,0 9.35598,-2.6166 17.93787,-1.72803c7.4448,0.77085 14.1259,4.94396 15.84974,6.30361c0.20447,0.16128 1.54655,9.09822 -3.25368,12.46464c-4.80023,3.36642 -7.39077,0.72443 -15.05268,0.37371c-7.02187,-0.32142 -15.69796,-4.19079 -15.77825,-4.86749c-0.47319,-3.98821 0.29698,-12.54646 0.29698,-12.54646z" fill="#afafaf" stroke="#000000" stroke-width="0.25"></path><path d="M323.61856,100.66322l1.77173,-3.57466l6.35485,0.73645l2.49999,3.16209l-0.59648,3.80805c0,0 -1.86246,-3.27719 -3.16584,-3.85951c-1.20754,-0.53951 -3.3678,-0.57996 -4.98486,-0.40394c-1.11745,0.12163 -1.8794,0.13152 -1.8794,0.13152z" fill="#383838" stroke="#000000" stroke-width="0.25"></path><path d="M299.86342,72.20341l10.61713,15.95219l15.08258,8.94663l-1.83635,3.15656c0,0 -11.03912,-3.45079 -16.72887,-7.10218c-5.64361,-3.62178 -12.5552,-14.71804 -12.5552,-14.71804z" fill="#d89856" stroke="#000000" stroke-width="0.25"></path><path d="M296.50211,82.63991c0,0 -3.08575,-3.34698 -3.389,-7.54723c-0.16603,-2.2996 1.71045,-3.35601 2.90863,-4.10272c0.99033,-0.61717 2.69092,-0.69079 4.24128,-0.55678c3.42615,0.29614 5.23544,7.87106 5.23544,7.87106z" fill="#afafaf" stroke="#000000" stroke-width="0.25"></path><path d="M279.67949,84.31109c-4.28938,14.47793 -8.87818,30.07047 -9.56732,32.69782c-0.19363,0.73822 -5.16237,-5.40438 -5.16237,-5.40438l4.47918,-28.59167c0,0 11.18925,-1.87024 10.25051,1.29825z" fill="#d89856" stroke="#000000" stroke-width="0.25"></path><path d="M262.94829,120.74994l1.31512,-9.67422l16.6888,6.93591l-0.69217,5.09168z" fill="#636363" stroke="#000000" stroke-width="0.25"></path><path d="M261.07906,72.26237c2.86988,-8.08191 10.40956,-8.46991 10.40956,-8.46991c0,0 -0.46898,8.87867 2.09438,12.08194c3.48676,4.35719 5.92417,6.58472 6.0281,7.03768c1.67028,7.27969 -9.81981,4.44177 -9.81981,4.44177c0,0 -11.09281,-8.3875 -8.71223,-15.09148z" fill="#333333" stroke="#000000" stroke-width="0.25"></path><path d="M332.94185,103.82905c0,2.03155 -1.68519,3.67844 -3.76399,3.67844c-2.0788,0 -3.76399,-1.6469 -3.76399,-3.67844c0,-2.03155 1.68519,-3.67845 3.76399,-3.67845c2.0788,0 3.76399,1.6469 3.76399,3.67845z" fill="url(#color-8)" stroke="none" stroke-width="0"></path></g></g></svg>