<svg version="1.1" xmlns="http://www.w3.org/2000/svg" xmlns:xlink="http://www.w3.org/1999/xlink" width="43.33456" height="29.69267" viewBox="0,0,43.33456,29.69267"><g transform="translate(-211.26623,-177.23437)"><g data-paper-data="{&quot;isPaintingLayer&quot;:true}" fill-rule="nonzero" stroke="#000000" stroke-width="0.25" stroke-linecap="butt" stroke-linejoin="miter" stroke-miterlimit="10" stroke-dasharray="" stroke-dashoffset="0" style="mix-blend-mode: normal"><path d="M219.81309,195.11533c-0.72457,-0.23971 5.71857,-4.812 5.71857,-4.812l28.25307,6.26982c0,0 1.16229,11.28478 -1.94082,10.14849c0,0 -2.48611,-0.03468 -5.84024,-1.25739c-8.68486,-3.16596 -24.33027,-9.73349 -26.19058,-10.34893z" fill="#d89856"></path><path d="M218.52809,186.62335l8.92142,3.96589l-11.3228,14.08606l-4.69548,-2.0873z" fill="#636363"></path><path d="M230.02199,177.36691c0,0 20.28955,2.88422 19.30708,9.86784c-0.42516,3.02212 5.71884,7.69576 5.10334,14.2329c-0.01724,3.50184 -8.60113,2.59767 -8.85646,2.42424c-4.22397,-2.86902 -10.80337,-11.94608 -14.12491,-16.9317c-2.37288,-3.56169 -1.42907,-9.59326 -1.42907,-9.59326z" fill="#333333"></path></g></g></svg>