<svg version="1.1" xmlns="http://www.w3.org/2000/svg" xmlns:xlink="http://www.w3.org/1999/xlink" width="168.62582" height="113.25769" viewBox="0,0,168.62582,113.25769"><defs><linearGradient x1="265.4439" y1="146.2054" x2="274.73258" y2="146.2054" gradientUnits="userSpaceOnUse" id="color-1"><stop offset="0" stop-color="#888888"></stop><stop offset="1" stop-color="#6b6b6b"></stop></linearGradient><radialGradient cx="255.67931" cy="165.77026" r="18.93342" gradientUnits="userSpaceOnUse" id="color-2"><stop offset="0" stop-color="#e0e0e0"></stop><stop offset="1" stop-color="#dcdcdc"></stop></radialGradient><radialGradient cx="297.16857" cy="144.45486" r="25.7826" gradientUnits="userSpaceOnUse" id="color-3"><stop offset="0" stop-color="#e0e0e0"></stop><stop offset="1" stop-color="#dcdcdc"></stop></radialGradient><radialGradient cx="303.0494" cy="160.32522" r="23.33895" gradientUnits="userSpaceOnUse" id="color-4"><stop offset="0" stop-color="#e0e0e0"></stop><stop offset="1" stop-color="#dcdcdc"></stop></radialGradient><radialGradient cx="276.9514" cy="167.25697" r="14.33988" gradientUnits="userSpaceOnUse" id="color-5"><stop offset="0" stop-color="#e0e0e0"></stop><stop offset="1" stop-color="#dcdcdc"></stop></radialGradient><radialGradient cx="262.17868" cy="181.59098" r="22.63312" gradientUnits="userSpaceOnUse" id="color-6"><stop offset="0" stop-color="#e0e0e0"></stop><stop offset="1" stop-color="#dcdcdc"></stop></radialGradient><radialGradient cx="332.22937" cy="155.43354" r="27.33719" gradientUnits="userSpaceOnUse" id="color-7"><stop offset="0" stop-color="#e0e0e0"></stop><stop offset="1" stop-color="#dcdcdc"></stop></radialGradient><linearGradient x1="317.80035" y1="126.46908" x2="327.94982" y2="126.46908" gradientUnits="userSpaceOnUse" id="color-8"><stop offset="0" stop-color="#000000"></stop><stop offset="1" stop-color="#2f2f2f"></stop></linearGradient><radialGradient cx="270.0882" cy="146.20539" r="6.20531" gradientUnits="userSpaceOnUse" id="color-9"><stop offset="0" stop-color="#e0e0e0"></stop><stop offset="1" stop-color="#dcdcdc"></stop></radialGradient></defs><g transform="translate(-206.74686,-99.52846)"><g data-paper-data="{&quot;isPaintingLayer&quot;:true}" fill-rule="nonzero" stroke-linecap="butt" stroke-linejoin="miter" stroke-miterlimit="10" stroke-dasharray="" stroke-dashoffset="0" style="mix-blend-mode: normal"><path d="M272.41834,166.15305l4.77846,-8.5139l12.97191,12.58383l-2.51498,4.48099z" fill="#636363" stroke="#000000" stroke-width="0.25"></path><path d="M290.67124,130.50663c-3.38616,14.71541 -7.00227,30.5618 -7.52767,33.22672c-0.14763,0.74878 -5.48658,-5.07492 -5.48658,-5.07492l2.7031,-28.81388c0,0 3.63044,-0.84038 6.59037,-0.95155c2.20454,-0.0828 4.03713,0.23891 3.7208,1.61362z" fill="#d89856" stroke="#000000" stroke-width="0.25"></path><path d="M277.9792,128.02382c2.85073,1.08963 4.58571,-2.7204 10.02231,-0.82395c5.4366,1.89645 2.17554,7.4488 2.17554,7.4488c0,0 -19.74096,6.94267 -26.5847,7.27002c-6.27824,0.3003 -7.353,-6.941 -7.353,-6.941c0,0 15.15228,-9.4718 21.73985,-6.95387z" fill="#333333" stroke="#000000" stroke-width="0.25"></path><path d="M270.78618,152.41071l-5.34225,-10.43857l3.9465,-1.97205l5.34225,10.43856z" fill="url(#color-1)" stroke="none" stroke-width="0"></path><path d="M312.68003,112.82129l0.15946,-3.98645l6.10251,-1.91985l3.57241,1.86726l1.00877,3.72013c0,0 -3.03728,-2.23241 -4.46483,-2.23241c-1.32258,0 -3.31144,0.84427 -4.71605,1.6646c-0.97063,0.56688 -1.66228,0.88672 -1.66228,0.88672z" fill="#d89856" stroke="#000000" stroke-width="0.25"></path><path d="M255.86601,135.16126c0,0 0.75117,-13.94128 2.88961,-18.1562c0.16033,-0.31602 3.38612,-5.08834 7.91542,-9.4559c5.567,-5.3682 13.35077,-7.88296 13.35077,-7.88296l14.39701,9.79318c0,0 -1.40235,1.60498 -3.41602,3.22346c-0.25353,0.20377 -0.51675,0.40776 -0.78809,0.6088c-5.82542,4.31593 -15.38989,11.70273 -13.06887,18.36223c1.0044,2.88187 -21.27983,3.5074 -21.27983,3.5074z" fill="#afafaf" stroke="#000000" stroke-width="0.25"></path><path d="M283.89423,105.60651l17.64647,7.02233l11.92933,-3.89261l0.60547,3.36568l-12.39531,5.57519l-21.90031,-3.08175z" fill="#d89856" stroke="#000000" stroke-width="0.25"></path><path d="M286.43156,115.86309c0,0 -7.92742,-0.14145 -9.90943,-3.85705c-1.08513,-2.03426 0.20103,-3.76138 0.99298,-4.93016c0.65457,-0.96602 2.17889,-1.72356 3.65019,-2.23037c3.25142,-1.12001 8.45922,2.61136 8.45922,2.61136z" fill="#afafaf" stroke="#000000" stroke-width="0.25"></path><path d="M346.18814,179.87692c0,2.38448 -2.00458,4.31746 -4.47737,4.31746c-2.47278,0 -4.47737,-1.933 -4.47737,-4.31746c0,-2.38448 2.00459,-4.31745 4.47737,-4.31745c2.47278,0 4.47737,1.93299 4.47737,4.31745z" fill="#000000" stroke="none" stroke-width="0"></path><path d="M270.81093,179.62149c0,16.50044 -13.6137,29.87668 -30.40703,29.87668c-16.79334,0 -30.40704,-13.37624 -30.40704,-29.87668c0,-16.50044 13.6137,-29.87668 30.40704,-29.87668c16.79335,0 30.40703,13.37624 30.40703,29.87668z" fill="none" stroke="#000000" stroke-width="6.5"></path><path d="M244.23677,179.83895c0,2.38448 -2.00459,4.31746 -4.47737,4.31746c-2.47278,0 -4.47737,-1.93299 -4.47737,-4.31746c0,-2.38448 2.00459,-4.31746 4.47737,-4.31746c2.47278,0 4.47737,1.93299 4.47737,4.31746z" fill="#000000" stroke="none" stroke-width="0"></path><path d="M240.24982,180.53697c0,0 -0.59441,4.72778 -1.36241,4.17447c-0.30143,-0.21717 -2.2289,-1.58857 -2.89711,-3.44565c-0.57737,-1.60461 0.07349,-3.74467 0.07349,-3.74467l35.72709,-26.29021l2.82185,3.9253z" fill="url(#color-2)" stroke="none" stroke-width="0"></path><path d="M272.9868,155.86013l-1.60082,-4.50241l49.96437,-18.30814l1.60082,4.50241z" fill="url(#color-3)" stroke="none" stroke-width="0"></path><path d="M284.67403,183.66417l-3.82589,-3.68076l40.57662,-42.99714l3.8259,3.68077z" fill="url(#color-4)" stroke="none" stroke-width="0"></path><path d="M283.43925,180.27923l-4.01981,1.31762l-8.95589,-27.36214l4.01981,-1.31762z" fill="url(#color-5)" stroke="none" stroke-width="0"></path><path d="M372.12269,179.65947c0,16.50044 -13.6137,29.87668 -30.40704,29.87668c-16.79334,0 -30.40704,-13.37624 -30.40704,-29.87668c0,-16.50044 13.6137,-29.87668 30.40704,-29.87668c16.79334,0 30.40704,13.37624 30.40704,29.87668z" fill="none" stroke="#000000" stroke-width="6.5"></path><path d="M237.8207,184.37126l1.72488,-4.83356c0,0 1.84972,-0.02977 3.78888,-0.06098c6.40873,-0.10315 41.38333,-0.66603 41.38333,-0.66603l0.09403,4.83355z" fill="url(#color-6)" stroke="none" stroke-width="0"></path><path d="M319.50103,129.81251l4.45971,-1.71616c0,0 20.32811,51.88758 20.99701,52.95822c1.24899,1.99913 -2.86752,3.56176 -4.4597,1.71615c-1.33243,-1.54451 -20.99702,-52.95821 -20.99702,-52.95821z" fill="url(#color-7)" stroke="none" stroke-width="0"></path><path d="M319.60239,129.97125l-1.80204,-3.06175l8.88044,-3.94261l1.26902,4.1278z" fill="url(#color-8)" stroke="none" stroke-width="0"></path><path d="M322.3451,111.60279c0,1.06456 -2.01461,1.75298 -3.42295,1.75298c-1.40834,0 -2.55002,-0.863 -2.55002,-1.92757c0,-1.06456 1.14168,-1.92756 2.55002,-1.92756c1.40834,0 3.42295,1.03758 3.42295,2.10215z" fill="#000000" stroke="none" stroke-width="0"></path><path d="M323.93449,124.21873l-4.08573,-11.30607l3.13824,-1.51601l3.87253,11.8391z" fill="#000000" stroke="none" stroke-width="0"></path><path d="M270.78606,152.4107l-5.34225,-10.43857l3.9465,-1.97205l5.34225,10.43856z" fill="url(#color-9)" stroke="none" stroke-width="0"></path><path d="M254.25754,141.40822l1.49246,-6.07643c0,0 5.60407,-0.19671 8.77172,-0.63415c4.06736,-0.56168 13.61512,-2.45737 13.61512,-2.45737l0.53302,3.30473c0,0 -3.038,0.61937 -6.24167,1.55083c-0.89226,0.25942 -1.61626,2.661 -3.0558,3.09653c-1.76322,0.53346 -3.21102,1.71088 -5.25666,2.05227c-4.6087,0.76914 -9.85819,-0.83641 -9.85819,-0.83641z" fill="#383838" stroke="none" stroke-width="0"></path><path d="M272.41889,195.52508l2.49175,-9.43988l15.7121,8.93044l-1.31145,4.96835z" fill="#636363" stroke="#000000" stroke-width="0.25"></path><path d="M280.43318,155.40009c0.41061,15.09439 0.88212,31.3413 1.0415,34.05284c0.04478,0.76188 -6.58353,-3.53758 -6.58353,-3.53758l-4.60588,-28.57153c0,0 3.30388,-1.72358 6.14144,-2.57315c2.11341,-0.63276 3.96812,-0.78069 4.00648,0.62942z" fill="#d89856" stroke="#000000" stroke-width="0.25"></path><path d="M255.7947,134.01622c0,0 16.15321,-6.11855 20.43073,-1.84294c0.95091,0.95048 -0.38083,6.27678 -0.6961,7.52006c-0.69879,2.75569 5.06646,15.35236 4.95541,15.85157c-1.62179,7.29064 -9.8499,4.26086 -9.8499,4.26086z" fill="#333333" stroke="#000000" stroke-width="0.25"></path></g></g></svg>