<svg version="1.1" xmlns="http://www.w3.org/2000/svg" xmlns:xlink="http://www.w3.org/1999/xlink" width="123.99792" height="119.5544" viewBox="0,0,123.99792,119.5544"><g transform="translate(-217.26418,-84.08758)"><g data-paper-data="{&quot;isPaintingLayer&quot;:true}" fill-rule="nonzero" stroke-linecap="butt" stroke-linejoin="miter" stroke-miterlimit="10" stroke-dasharray="" stroke-dashoffset="0" style="mix-blend-mode: normal"><path d="M312.74066,146.83398v-7.9531l15.08345,-0.54849l13.43799,6.30763c0,0 -10.60413,-0.54849 -15.3577,-0.54849c-4.75358,0 -13.16374,2.74245 -13.16374,2.74245z" fill="#000000" stroke="none" stroke-width="0"></path><path d="M245.6805,179.47885l-6.76394,-0.78891l40.77365,-26.49368l4.02149,2.98286z" fill="#000000" stroke="none" stroke-width="0"></path><path d="M306.43303,144.36579l-10.4213,-6.85612l13.16374,-3.01669l4.38791,7.67885z" fill="#3b3b3b" stroke="none" stroke-width="0"></path><path d="M288.94359,146.09703l-2.54956,-4.85631c0,0 3.05435,-3.66723 4.8075,-4.58763c1.88019,-0.9871 10.50712,1.31931 10.50712,1.31931l-1.83835,2.38811z" fill="#1e1e1e" stroke="#000000" stroke-width="0"></path><path d="M259.26296,180.15369c0,10.07273 -8.22649,18.23829 -18.37439,18.23829c-10.1479,0 -18.37439,-8.16556 -18.37439,-18.23829c0,-10.07273 8.2265,-18.23829 18.37439,-18.23829c10.1479,0 18.37439,8.16556 18.37439,18.23829z" fill="none" stroke="#000000" stroke-width="10.5"></path><path d="M239.25211,182.26619l-0.0088,-3.60714l46.06388,-0.61582l0.0088,2.78441z" fill="#000000" stroke="none" stroke-width="0"></path><path d="M311.08953,115.56443c0,1.36314 -1.42584,0.82273 -3.52299,0.82273c-2.09716,0 -3.24874,0.26617 -3.24874,-1.09697c0,-1.36314 0.60311,-0.82274 2.70025,-0.82274c2.09716,0 4.07147,-0.26617 4.07147,1.09698z" fill="#7e7e7e" stroke="none" stroke-width="0"></path><path d="M284.49347,181.38881l-3.29094,-29.34418c0,0 15.11857,-8.87085 20.02171,-10.69057c3.04461,-1.12995 6.58002,0.81777 6.58002,0.81777c0,0 4.83118,-0.55351 4.93897,3.29086c0.15137,5.39891 -6.58444,35.37763 -6.58444,35.37763z" fill="#888888" stroke="none" stroke-width="NaN"></path><path d="M282.02526,154.51284c0,0 -15.9568,-4.36592 -19.73465,-5.95659c-4.00797,-1.68757 -6.04436,-6.11017 -6.04436,-6.11017l40.03972,-2.4682z" fill="#545454" stroke="none" stroke-width="0"></path><path d="M322.06498,160.27197l-12.8895,-26.05323l4.9364,-1.91971c0,0 6.18194,13.18317 9.64322,20.56445c4.03717,8.6094 2.42355,5.76303 2.42355,5.76303z" fill="#232323" stroke="none" stroke-width="0"></path><path d="M309.99256,135.31005l-9.05007,-16.45468l5.75914,-3.29094l7.67885,17.8259z" fill="#232323" stroke="none" stroke-width="0"></path><path d="M306.70728,115.5701c0,1.969 -1.71897,3.56518 -3.83943,3.56518c-2.12046,0 -3.83943,-1.59618 -3.83943,-3.56518c0,-1.969 1.71897,-3.56519 3.83943,-3.56519c2.12046,0 3.83943,1.59619 3.83943,3.56519z" fill="#0d0d0d" stroke="none" stroke-width="0"></path><path d="M262.00541,147.93097l-19.74561,-6.03339l14.80921,0.5485l21.66532,10.96979z" fill="#000000" stroke="none" stroke-width="0"></path><path d="M282.57376,153.6901l14.26072,-14.26072c0,0 3.77661,-1.87763 6.3983,-0.88593c5.69008,2.15235 11.15335,4.72536 11.15335,4.72536c0,0 -4.4533,9.61594 -9.78912,14.13487c-1.49746,1.26821 -3.47599,-2.39839 -5.29872,-4.28619c-1.39466,-1.44443 -6.10273,-1.16533 -6.46287,-0.92043c-0.86257,0.58655 7.90954,-6.36799 9.80828,-8.96523c1.27475,-1.74369 -0.32433,-1.33425 -0.32433,-1.33425c0,0 -13.36811,11.77362 -16.07029,12.88344c-2.37461,0.97529 -3.67533,-1.09092 -3.67533,-1.09092z" fill="#141414" stroke="none" stroke-width="0"></path><path d="M279.9523,172.76493c0,3.71898 -3.28085,6.73382 -7.32797,6.73382c-4.04713,0 -7.32798,-3.01483 -7.32798,-6.73382c0,-3.71898 3.28085,-6.73382 7.32798,-6.73382c4.04713,0 7.32797,3.01483 7.32797,6.73382z" fill="#717171" stroke="#000000" stroke-width="2"></path><path d="M296.48393,115.479l-0.25682,-3.98136l5.86923,-2.54531l3.74754,1.48483l1.39093,3.59476c0,0 -3.25337,-1.90376 -4.67315,-1.755c-1.31538,0.13782 -3.20544,1.18474 -4.51692,2.14697c-0.90627,0.66494 -1.56083,1.05511 -1.56083,1.05511z" fill="#383838" stroke="#000000" stroke-width="0.25"></path><path d="M255.66485,108.4296c5.567,-5.3682 5.64623,-5.18637 5.64623,-5.18637l5.53679,1.31818c0,0 4.37606,3.91635 2.36239,5.53483c-0.25353,0.20377 2.95029,6.18617 2.67895,6.38721c-3.89928,5.85684 0.78965,12.85841 3.11067,19.51791c1.0044,2.88187 -18.58324,4.66308 -18.58324,4.66308c0,0 -5.28108,-27.86728 -0.75178,-32.23484z" fill="#afafaf" stroke="#000000" stroke-width="0.25"></path><path d="M265.40788,106.46071l17.37909,7.66017l13.31474,-2.77184l0.43027,4.81966l-13.78942,3.00217l-21.77358,-3.87708z" fill="#d89856" stroke="#000000" stroke-width="0.25"></path><path d="M269.00226,117.83369c0,0 -7.91637,-0.44169 -9.75619,-4.22972c-1.00728,-2.07391 0.34339,-3.75106 1.17905,-4.889c0.6907,-0.94052 2.24263,-1.63977 3.73207,-2.09048c3.29152,-0.99602 8.35421,2.92997 8.35421,2.92997c0,0 -1.8223,2.00209 -2.43336,3.4438c-0.5528,1.30424 -1.07578,4.83543 -1.07578,4.83543z" fill="#afafaf" stroke="#000000" stroke-width="0.25"></path><path d="M280.16279,183.43942l2.83727,-9.34184l15.373,9.50231l-1.4933,4.91675z" fill="#636363" stroke="#000000" stroke-width="0.25"></path><path d="M290.41614,144.40685c-0.14486,15.09928 -0.27125,31.35254 -0.21171,34.06811c0.01673,0.76301 -6.44896,-3.77734 -6.44896,-3.77734l-3.55187,-28.72161c0,0 10.24426,-4.87362 10.21255,-1.56915z" fill="#d89856" stroke="#000000" stroke-width="0.25"></path><path d="M275.8625,94.35508c0,0.69346 2.21825,1.68677 2.18147,2.33587c-0.04218,0.74414 -2.4075,0.96797 -2.62375,1.62176c-1.09203,3.30153 -2.07685,5.84704 -6.46662,5.84704c-6.01734,0 -10.25752,-14.90733 -10.25752,-14.90733l10.25752,-5.02093c0,0 6.90891,4.62056 6.90891,10.12359z" fill="#d89856" stroke="#000000" stroke-width="0.25"></path><path d="M254.69373,141.43488c0,0 18.34781,-13.85972 20.66882,-7.20022c2.54531,0.5705 11.84438,0.09551 14.50912,7.07281c2.66475,6.97731 -5.60244,6.10572 -5.60244,6.10572z" fill="#333333" stroke="#000000" stroke-width="0.25"></path></g></g></svg>