<svg version="1.1" xmlns="http://www.w3.org/2000/svg" xmlns:xlink="http://www.w3.org/1999/xlink" width="29.67688" height="31.78886" viewBox="0,0,29.67688,31.78886"><g transform="translate(-222.66842,-147.43994)"><g data-paper-data="{&quot;isPaintingLayer&quot;:true}" fill-rule="nonzero" stroke-linecap="butt" stroke-linejoin="miter" stroke-miterlimit="10" stroke-dasharray="" stroke-dashoffset="0" style="mix-blend-mode: normal"><path d="M249.28751,165.92505c0,0.9321 2.98161,2.26724 2.93218,3.13971c-0.0567,1.00022 -3.23599,1.30108 -3.52666,2.17986c-1.46783,4.43768 -2.79156,7.85918 -8.69197,7.85918c-8.08808,0 -13.78744,-20.03738 -13.78744,-20.03738l13.78744,-6.74878c0,0 9.28647,6.21063 9.28647,13.60741z" fill="#d89856" stroke="#000000" stroke-width="0.25"></path><g stroke="none" stroke-width="0"><path d="M242.00246,179.14052l-3.4968,-9.90074l3.72522,-2.21363c0,0 4.07189,6.61833 3.33013,11.0674c-0.2517,1.50968 -3.55855,1.04696 -3.55855,1.04696z" fill="#0b0b0b"></path><path d="M237.0584,170.2789l-11.59199,-3.29455l5.74948,-2.29963c0,0 4.33739,2.98641 6.33986,1.42975c2.00247,-1.55666 1.21517,-5.88307 1.21517,-5.88307l3.88658,-1.36801c0,0 0.93929,9.26776 1.07716,10.75492c0.14601,1.57508 -1.89873,1.89283 -3.36047,2.29416c-0.66069,0.1814 -3.3158,-1.63356 -3.3158,-1.63356z" fill="#393939"></path><path d="M224.23889,168.64711c-1.62637,0.50739 0.23877,-1.08384 0.10691,-2.05712c-0.06033,-0.44529 -2.56621,-8.81665 -1.33995,-10.85395c4.68897,-7.79018 16.92568,-8.44478 17.39668,-8.27424c1.59732,0.57838 5.55837,4.8753 7.03668,6.80807c1.44608,1.89064 2.66726,-0.39363 2.5709,1.09598c-0.09873,1.52627 -3.10488,1.25618 -4.55745,3.09571c-1.58374,2.00563 -3.82156,3.69402 -3.82156,3.69402c0,0 -13.93362,5.41252 -17.39221,6.49152z" fill="#292929"></path></g></g></g></svg>