<svg version="1.1" xmlns="http://www.w3.org/2000/svg" xmlns:xlink="http://www.w3.org/1999/xlink" width="49.0483" height="35.36908" viewBox="0,0,49.0483,35.36908"><g transform="translate(-200.30272,-176.51625)"><g data-paper-data="{&quot;isPaintingLayer&quot;:true}" fill-rule="nonzero" stroke="#000000" stroke-width="0.25" stroke-linecap="butt" stroke-linejoin="miter" stroke-miterlimit="10" stroke-dasharray="" stroke-dashoffset="0" style="mix-blend-mode: normal"><path d="M213.1563,195.97884l6.71828,7.08414l-15.8592,8.66653l-3.53594,-3.72848z" fill="#e3e3e3"></path><path d="M229.422,178.16692c0,0 10.49449,-2.13468 16.38428,0.01496c1.71937,0.62753 3.24164,12.34864 2.62614,18.88578c-0.0196,3.98225 -8.53993,1.26184 -10.65646,-0.17576c-1.22397,-1.46902 -3.60337,-4.14608 -6.92491,-9.1317c-2.37288,-3.56169 -1.42907,-9.59326 -1.42907,-9.59326z" fill="#333333"></path><path d="M246.53288,178.68345c1.82918,1.33851 3.10845,16.66306 2.56841,19.5234c-0.17658,0.93529 -0.41023,5.95573 -3.49786,7.17033c-4.70473,1.85073 -29.91613,3.49933 -34.47639,2.50424c-1.07751,-0.23512 1.46,-6.29255 3.22636,-7.62069c13.16848,-3.81528 22.53758,-3.54298 22.53758,-3.54298c0,0 -7.16419,-9.03468 -7.97577,-12.17339c-0.87078,-3.36767 -0.61208,-6.80408 -0.61208,-6.80408c0,0 8.45203,-1.42554 13.83287,-1.02952c2.29758,0.1691 3.90814,1.61506 4.39687,1.97269z" fill="#2a2d33"></path></g></g></svg>