<svg version="1.1" xmlns="http://www.w3.org/2000/svg" xmlns:xlink="http://www.w3.org/1999/xlink" width="38.0401" height="56.08315" viewBox="0,0,38.0401,56.08315"><g transform="translate(-228.88723,-177.91736)"><g data-paper-data="{&quot;isPaintingLayer&quot;:true}" fill-rule="nonzero" stroke="#000000" stroke-width="0.25" stroke-linecap="butt" stroke-linejoin="miter" stroke-miterlimit="10" stroke-dasharray="" stroke-dashoffset="0" style="mix-blend-mode: normal"><path d="M259.74223,195.96212c-2.41823,14.90508 -4.99208,30.95374 -5.34237,33.6473c-0.09842,0.75682 -5.8062,-4.70589 -5.8062,-4.70589l0.81621,-28.92888c0,0 10.86163,-3.27445 10.33239,-0.01251z" fill="#d89856"></path><path d="M249.84676,233.84848l-2.41399,-9.46006l18.07199,0.16131l1.27054,4.97898z" fill="#636363"></path><path d="M229.05924,178.04748c0,0 20.43591,1.53562 19.9176,8.56894c-0.2243,3.04363 11.21119,2.21198 11.02951,8.77552c0.24389,3.97482 -6.52173,6.92748 -8.72873,5.63306c-4.40452,-2.58329 -16.51372,-8.74483 -20.15781,-13.49979c-2.60331,-3.39691 -2.06059,-9.4777 -2.06059,-9.4777z" fill="#333333"></path></g></g></svg>