<svg version="1.1" xmlns="http://www.w3.org/2000/svg" xmlns:xlink="http://www.w3.org/1999/xlink" width="123.44611" height="121.88883" viewBox="0,0,123.44611,121.88883"><defs><linearGradient x1="316.80366" y1="153.87913" x2="340.92079" y2="153.87913" gradientUnits="userSpaceOnUse" id="color-1"><stop offset="0" stop-color="#bababa"></stop><stop offset="1" stop-color="#828282"></stop></linearGradient></defs><g transform="translate(-210.30244,-87.41796)"><g data-paper-data="{&quot;isPaintingLayer&quot;:true}" fill-rule="nonzero" stroke-linecap="butt" stroke-linejoin="miter" stroke-miterlimit="10" stroke-dasharray="" stroke-dashoffset="0" style="mix-blend-mode: normal"><path d="M279.4205,177.28316l0.62665,-9.74307l17.13813,5.73652l-0.32982,5.12792z" fill="#636363" stroke="#000000" stroke-width="0.25"></path><path d="M253.13537,116.32198c0,0 21.52415,1.53889 19.9972,8.42399c-0.66079,2.97949 8.4525,10.31814 7.05084,17.65429c-1.40165,7.33615 -10.31734,-0.55768 -10.31734,-0.55768z" fill="#333333" stroke="#000000" stroke-width="0.25"></path><path d="M279.3557,136.41275c3.31059,14.73259 6.90296,30.58438 7.58169,33.21444c0.19071,0.73898 -7.14168,-2.20312 -7.14168,-2.20312l-10.02343,-27.14917c0,0 2.90998,-2.32773 5.53075,-3.708c1.95193,-1.02802 3.74341,-1.53046 4.05269,-0.15415z" fill="#d89856" stroke="#000000" stroke-width="0.25"></path><path d="M232.33324,179.16842c0,-4.47769 3.62988,-8.10757 8.10756,-8.10757c4.47769,0 8.10756,3.62988 8.10756,8.10757c0,4.47769 -3.62988,8.10756 -8.10756,8.10756c-4.47769,0 -8.10756,-3.62988 -8.10756,-8.10756z" fill="#4c4c4c" stroke="none" stroke-width="0"></path><path d="M216.55244,179.16842c0,-13.19318 10.69519,-23.88837 23.88837,-23.88837c13.19318,0 23.88836,10.69519 23.88836,23.88837c0,13.19318 -10.69519,23.88837 -23.88836,23.88837c-13.19318,0 -23.88837,-10.69519 -23.88837,-23.88837z" fill="none" stroke="#000000" stroke-width="12.5"></path><path d="M229.44237,138.46138c1.33777,-2.31608 31.37489,9.49311 31.37489,9.49311l-1.16064,2.32368c0,0 -31.59874,-9.01349 -30.21425,-11.81679z" fill="#99aab5" stroke="none" stroke-width="0"></path><path d="M263.94974,146.25188l-16.93856,32.7402l-2.17213,-1.32337c0,0 15.43254,-31.55518 18.09725,-33.58849c3.04892,-2.32649 53.42307,-6.94934 53.42307,-6.94934l1.303,3.61945z" fill="#99aab5" stroke="none" stroke-width="0"></path><path d="M319.20615,144.52006l-4.65943,-10.56092l3.01965,-2.48012l6.68632,13.16692z" fill="#99aab5" stroke="none" stroke-width="0"></path><path d="M295.64403,181.97809l21.17887,-43.18862l4.18144,1.99481c0,0 -20.61752,45.27047 -24.36399,45.93941c-3.93797,0.70313 -55.87651,-3.6025 -55.87651,-3.6025c0,0 -5.43688,1.79079 -4.21181,-4.46682c1.00971,-5.15762 7.16094,-2.01634 8.41347,-2.07867c2.31248,-0.11509 2.65873,4.36316 4.81251,4.42643c16.41099,0.4821 45.86602,0.97595 45.86602,0.97595z" fill="#99aab5" stroke="none" stroke-width="0"></path><path d="M236.29714,139.73688c0,0 0.81419,-4.37995 2.89556,-4.92245c0.83737,-0.21826 7.63721,1.60014 17.5424,2.34841c5.82443,0.44 36.65382,-0.55198 37.64,-0.24805c1.73966,0.53614 2.89626,2.00092 1.99161,2.16214c-7.53471,1.34273 -29.98619,3.43935 -32.21653,4.4746c-2.45747,1.14067 -3.81988,4.4377 -3.81988,4.4377z" fill="#5d5d5d" stroke="none" stroke-width="0"></path><path d="M331.32873,160.67569l-14.52507,-29.44369l2.87762,-1.39333l14.06727,29.90149z" fill="url(#color-1)" stroke="none" stroke-width="0"></path><path d="M266.41096,157.54457c0,0 -5.15175,-2.11496 -5.53544,-3.75631c-0.46808,-2.00236 2.92944,-7.3916 2.92944,-7.3916l22.15103,-2.46123c0,0 5.76414,-1.35944 6.16654,-0.02621c0.51183,1.69579 0.7835,3.90387 -0.20238,5.4016c-3.15134,4.78743 -12.47917,7.65463 -12.47917,7.65463z" fill="#565656" stroke="none" stroke-width="0"></path><path d="M316.06982,128.58897l-1.44777,-19.97936l3.61944,-0.57912l0.86867,19.97936c0,0 1.06678,2.00815 0.6704,2.79578c-0.83924,1.66765 -3.69946,2.32722 -5.25276,2.87082c-0.7144,0.25001 -1.67153,-1.23493 -1.20876,-3.20538c0.36616,-1.55911 2.75078,-1.88211 2.75078,-1.88211z" fill="#232323" stroke="none" stroke-width="0"></path><path d="M318.8206,107.45138c0,1.67913 -1.45843,3.04035 -3.25751,3.04035c-1.79908,0 -3.2575,-1.36121 -3.2575,-3.04035c0,-1.67913 1.45843,-3.04034 3.2575,-3.04034c1.79908,0 3.25751,1.3612 3.25751,3.04034z" fill="#393939" stroke="none" stroke-width="0"></path><path d="M255.30628,111.14637c0,0 3.0229,-5.71979 7.75573,-11.89046c2.69934,-3.51939 5.84424,-7.99942 9.57999,-9.60212c10.28574,-4.41276 8.7444,-1.54833 11.03638,5.26626c1.46388,4.35243 -3.33688,7.64332 -7.95649,14.61185c-3.61437,5.45216 -4.77398,12.52313 -5.98453,15.43994c-1.19344,2.87553 -14.43107,-13.82544 -14.43107,-13.82544z" fill="#afafaf" stroke="#000000" stroke-width="0.25"></path><path d="M233.12907,123.86205l9.01077,3.75846l-10.99393,14.34422l-4.7425,-1.97814z" fill="#636363" stroke="#000000" stroke-width="0.25"></path><path d="M271.34306,137.9004c-14.98663,-1.84669 -31.12196,-3.80517 -33.82692,-4.05224c-0.76003,-0.06942 4.4805,-5.98185 4.4805,-5.98185l28.93894,-0.29026c0,0 4.58405,-0.29734 5.00063,2.63523c0.31027,2.18417 -3.19311,7.86164 -4.59316,7.68913z" fill="#d89856" stroke="#000000" stroke-width="0.25"></path><path d="M255.07929,110.42033l13.65215,14.66477c0,0 11.37027,2.02827 5.66062,6.84321c-2.56376,2.16203 -6.02717,3.94125 -8.15209,3.85224c-1.04521,-0.04378 -0.55775,-1.28888 -3.06233,-1.63294c-3.7434,-0.51424 -8.6901,-4.99335 -11.98867,-7.08679c-9.99229,-6.34163 3.89032,-16.64049 3.89032,-16.64049z" fill="#333333" stroke="#000000" stroke-width="0.25"></path><path d="M308.66075,106.10502l0.74739,-3.91901l6.31936,-0.99604l3.2569,2.37515l0.44739,3.82842c0,0 -2.67365,-2.65713 -4.08549,-2.86829c-1.30803,-0.19564 -3.3999,0.34515 -4.9104,0.94868c-1.04381,0.41707 -1.77516,0.63108 -1.77516,0.63108z" fill="#d89856" stroke="#000000" stroke-width="0.25"></path><path d="M281.25883,94.71158l16.41359,9.55536l12.3739,-2.08519l0.10095,3.41822l-13.08364,3.68033l-21.20353,-6.28737z" fill="#d89856" stroke="#000000" stroke-width="0.25"></path><path d="M282.0018,105.05623c0,0 -7.90029,-0.67045 -9.62977,-4.5101c-0.94688,-2.10217 0.45173,-3.73956 1.31995,-4.85286c0.7176,-0.92015 2.28911,-1.57423 3.79096,-1.98167c3.31895,-0.90041 8.26598,3.17035 8.26598,3.17035z" fill="#afafaf" stroke="#000000" stroke-width="0.25"></path></g></g></svg>