<svg version="1.1" xmlns="http://www.w3.org/2000/svg" xmlns:xlink="http://www.w3.org/1999/xlink" width="70.11089" height="109.76346" viewBox="0,0,70.11089,109.76346"><defs><radialGradient cx="253.26476" cy="174.07407" r="8.26725" gradientUnits="userSpaceOnUse" id="color-1"><stop offset="0" stop-color="#2d2d2d"></stop><stop offset="1" stop-color="#000000"></stop></radialGradient><radialGradient cx="252.91246" cy="172.04065" r="8.26724" gradientUnits="userSpaceOnUse" id="color-2"><stop offset="0" stop-color="#2d2d2d"></stop><stop offset="1" stop-color="#000000"></stop></radialGradient><radialGradient cx="253.87565" cy="173.36517" r="8.26725" gradientUnits="userSpaceOnUse" id="color-3"><stop offset="0" stop-color="#2d2d2d"></stop><stop offset="1" stop-color="#000000"></stop></radialGradient><radialGradient cx="252.15364" cy="172.22784" r="8.26724" gradientUnits="userSpaceOnUse" id="color-4"><stop offset="0" stop-color="#2d2d2d"></stop><stop offset="1" stop-color="#000000"></stop></radialGradient><radialGradient cx="254.42105" cy="184.16184" r="8.26725" gradientUnits="userSpaceOnUse" id="color-5"><stop offset="0" stop-color="#2d2d2d"></stop><stop offset="1" stop-color="#000000"></stop></radialGradient><radialGradient cx="255.43799" cy="182.36612" r="8.26725" gradientUnits="userSpaceOnUse" id="color-6"><stop offset="0" stop-color="#2d2d2d"></stop><stop offset="1" stop-color="#000000"></stop></radialGradient><radialGradient cx="255.34291" cy="184.00105" r="8.26725" gradientUnits="userSpaceOnUse" id="color-7"><stop offset="0" stop-color="#2d2d2d"></stop><stop offset="1" stop-color="#000000"></stop></radialGradient><radialGradient cx="254.73253" cy="182.02971" r="8.26724" gradientUnits="userSpaceOnUse" id="color-8"><stop offset="0" stop-color="#2d2d2d"></stop><stop offset="1" stop-color="#000000"></stop></radialGradient><radialGradient cx="247.98339" cy="192.45462" r="8.26725" gradientUnits="userSpaceOnUse" id="color-9"><stop offset="0" stop-color="#2d2d2d"></stop><stop offset="1" stop-color="#000000"></stop></radialGradient><radialGradient cx="249.97723" cy="191.92229" r="8.26725" gradientUnits="userSpaceOnUse" id="color-10"><stop offset="0" stop-color="#2d2d2d"></stop><stop offset="1" stop-color="#000000"></stop></radialGradient><radialGradient cx="248.74393" cy="192.9998" r="8.26725" gradientUnits="userSpaceOnUse" id="color-11"><stop offset="0" stop-color="#2d2d2d"></stop><stop offset="1" stop-color="#000000"></stop></radialGradient><radialGradient cx="249.72308" cy="191.1832" r="8.26724" gradientUnits="userSpaceOnUse" id="color-12"><stop offset="0" stop-color="#2d2d2d"></stop><stop offset="1" stop-color="#000000"></stop></radialGradient><radialGradient cx="238.25415" cy="194.40044" r="8.26725" gradientUnits="userSpaceOnUse" id="color-13"><stop offset="0" stop-color="#2d2d2d"></stop><stop offset="1" stop-color="#000000"></stop></radialGradient><radialGradient cx="240.2055" cy="195.07202" r="8.26725" gradientUnits="userSpaceOnUse" id="color-14"><stop offset="0" stop-color="#2d2d2d"></stop><stop offset="1" stop-color="#000000"></stop></radialGradient><radialGradient cx="238.58074" cy="195.27738" r="8.26725" gradientUnits="userSpaceOnUse" id="color-15"><stop offset="0" stop-color="#2d2d2d"></stop><stop offset="1" stop-color="#000000"></stop></radialGradient><radialGradient cx="240.40731" cy="194.31697" r="8.26725" gradientUnits="userSpaceOnUse" id="color-16"><stop offset="0" stop-color="#2d2d2d"></stop><stop offset="1" stop-color="#000000"></stop></radialGradient><radialGradient cx="229.15611" cy="189.66442" r="8.26725" gradientUnits="userSpaceOnUse" id="color-17"><stop offset="0" stop-color="#2d2d2d"></stop><stop offset="1" stop-color="#000000"></stop></radialGradient><radialGradient cx="230.26391" cy="191.40558" r="8.26725" gradientUnits="userSpaceOnUse" id="color-18"><stop offset="0" stop-color="#2d2d2d"></stop><stop offset="1" stop-color="#000000"></stop></radialGradient><radialGradient cx="228.86514" cy="190.55381" r="8.26725" gradientUnits="userSpaceOnUse" id="color-19"><stop offset="0" stop-color="#2d2d2d"></stop><stop offset="1" stop-color="#000000"></stop></radialGradient><radialGradient cx="230.89222" cy="190.94076" r="8.26725" gradientUnits="userSpaceOnUse" id="color-20"><stop offset="0" stop-color="#2d2d2d"></stop><stop offset="1" stop-color="#000000"></stop></radialGradient><radialGradient cx="225.67144" cy="181.01052" r="8.26725" gradientUnits="userSpaceOnUse" id="color-21"><stop offset="0" stop-color="#2d2d2d"></stop><stop offset="1" stop-color="#000000"></stop></radialGradient><radialGradient cx="225.34449" cy="183.04816" r="8.26725" gradientUnits="userSpaceOnUse" id="color-22"><stop offset="0" stop-color="#2d2d2d"></stop><stop offset="1" stop-color="#000000"></stop></radialGradient><radialGradient cx="224.86348" cy="181.48269" r="8.26725" gradientUnits="userSpaceOnUse" id="color-23"><stop offset="0" stop-color="#2d2d2d"></stop><stop offset="1" stop-color="#000000"></stop></radialGradient><radialGradient cx="226.12296" cy="183.11747" r="8.26725" gradientUnits="userSpaceOnUse" id="color-24"><stop offset="0" stop-color="#2d2d2d"></stop><stop offset="1" stop-color="#000000"></stop></radialGradient><radialGradient cx="227.97914" cy="171.11834" r="8.26724" gradientUnits="userSpaceOnUse" id="color-25"><stop offset="0" stop-color="#2d2d2d"></stop><stop offset="1" stop-color="#000000"></stop></radialGradient><radialGradient cx="226.4524" cy="172.50683" r="8.26725" gradientUnits="userSpaceOnUse" id="color-26"><stop offset="0" stop-color="#2d2d2d"></stop><stop offset="1" stop-color="#000000"></stop></radialGradient><radialGradient cx="227.05313" cy="170.98327" r="8.26725" gradientUnits="userSpaceOnUse" id="color-27"><stop offset="0" stop-color="#2d2d2d"></stop><stop offset="1" stop-color="#000000"></stop></radialGradient><radialGradient cx="227.01756" cy="173.04667" r="8.26725" gradientUnits="userSpaceOnUse" id="color-28"><stop offset="0" stop-color="#2d2d2d"></stop><stop offset="1" stop-color="#000000"></stop></radialGradient><radialGradient cx="236.74619" cy="165.65638" r="8.26724" gradientUnits="userSpaceOnUse" id="color-29"><stop offset="0" stop-color="#2d2d2d"></stop><stop offset="1" stop-color="#000000"></stop></radialGradient><radialGradient cx="234.68304" cy="165.609" r="8.26725" gradientUnits="userSpaceOnUse" id="color-30"><stop offset="0" stop-color="#2d2d2d"></stop><stop offset="1" stop-color="#000000"></stop></radialGradient><radialGradient cx="236.16875" cy="164.91998" r="8.26725" gradientUnits="userSpaceOnUse" id="color-31"><stop offset="0" stop-color="#2d2d2d"></stop><stop offset="1" stop-color="#000000"></stop></radialGradient><radialGradient cx="234.72002" cy="166.38965" r="8.26725" gradientUnits="userSpaceOnUse" id="color-32"><stop offset="0" stop-color="#2d2d2d"></stop><stop offset="1" stop-color="#000000"></stop></radialGradient><radialGradient cx="246.77116" cy="167.22476" r="8.26724" gradientUnits="userSpaceOnUse" id="color-33"><stop offset="0" stop-color="#2d2d2d"></stop><stop offset="1" stop-color="#000000"></stop></radialGradient><radialGradient cx="245.11778" cy="165.98975" r="8.26725" gradientUnits="userSpaceOnUse" id="color-34"><stop offset="0" stop-color="#2d2d2d"></stop><stop offset="1" stop-color="#000000"></stop></radialGradient><radialGradient cx="246.72774" cy="166.28998" r="8.26725" gradientUnits="userSpaceOnUse" id="color-35"><stop offset="0" stop-color="#2d2d2d"></stop><stop offset="1" stop-color="#000000"></stop></radialGradient><radialGradient cx="244.6952" cy="166.64721" r="8.26725" gradientUnits="userSpaceOnUse" id="color-36"><stop offset="0" stop-color="#2d2d2d"></stop><stop offset="1" stop-color="#000000"></stop></radialGradient><radialGradient cx="240.00001" cy="179.99999" r="5.03831" gradientUnits="userSpaceOnUse" id="color-37"><stop offset="0" stop-color="#757575"></stop><stop offset="1" stop-color="#424242"></stop></radialGradient><radialGradient cx="240.00002" cy="179.99999" r="26.76086" gradientUnits="userSpaceOnUse" id="color-38"><stop offset="0" stop-color="#ffffff"></stop><stop offset="1" stop-color="#020202"></stop></radialGradient></defs><g transform="translate(-204.94456,-123.67507)"><g data-paper-data="{&quot;isPaintingLayer&quot;:true}" fill="none" fill-rule="nonzero" stroke-linejoin="miter" stroke-miterlimit="10" stroke-dasharray="" stroke-dashoffset="0" style="mix-blend-mode: normal"><g stroke-width="0.5" stroke-linecap="round"><g><path d="M264.79735,174.70489l-20.16275,-0.96753" stroke="url(#color-1)"></path><path d="M264.34508,170.3994l-19.96144,3.00222" stroke="url(#color-2)"></path><path d="M247.71476,179.41797l14.52551,-14.0172" stroke="url(#color-3)"></path><path d="M247.29828,179.37051l11.49716,-16.59179" stroke="url(#color-4)"></path></g><g><path d="M262.9387,191.96236l-14.97752,-13.53315" stroke="url(#color-5)"></path><path d="M265.31909,188.34632l-17.33904,-10.33587" stroke="url(#color-6)"></path><path d="M246.74092,184.77485l20.12017,-1.62843" stroke="url(#color-7)"></path><path d="M265.85994,178.93457l-19.41098,5.53951" stroke="url(#color-8)"></path></g><g><path d="M248.38412,203.99751l-0.83545,-20.16865" stroke="url(#color-9)"></path><path d="M247.86068,183.54892l4.77139,19.61395" stroke="url(#color-10)"></path><path d="M242.16557,187.40358l15.25739,13.21684" stroke="url(#color-11)"></path><path d="M242.17565,186.98453l17.5515,9.97083" stroke="url(#color-12)"></path></g><g><path d="M232.14199,204.20045l10.56742,-17.1989" stroke="url(#color-13)"></path><path d="M243.12458,186.94355l-6.99235,18.93621" stroke="url(#color-14)"></path><path d="M236.24763,186.96178l5.27873,19.48353" stroke="url(#color-15)"></path><path d="M236.48997,186.61976l8.99429,18.0714" stroke="url(#color-16)"></path></g><g><path d="M237.25103,186.65353l-18.98187,6.8674" stroke="url(#color-17)"></path><path d="M237.61186,186.86681l-17.26818,10.45386" stroke="url(#color-18)"></path><path d="M232.22178,182.59606l-8.01148,18.52805" stroke="url(#color-19)"></path><path d="M232.62443,182.47954l-4.22549,19.73875" stroke="url(#color-20)"></path></g><g><path d="M233.72478,184.13083l-18.75644,-7.46114" stroke="url(#color-21)"></path><path d="M233.85314,184.52988l-19.85487,-3.64107" stroke="url(#color-22)"></path><path d="M214.36625,186.30002l18.2895,-8.54207" stroke="url(#color-23)"></path><path d="M216.7732,189.89842l16.26106,-11.96038" stroke="url(#color-24)"></path></g><g><path d="M232.3264,178.58116l-10.00396,-17.53263" stroke="url(#color-25)"></path><path d="M218.93215,163.74072l13.24562,15.23241" stroke="url(#color-26)"></path><path d="M215.84384,168.19929l19.62291,4.73434" stroke="url(#color-27)"></path><path d="M235.65023,173.31052l-20.17021,-0.79736" stroke="url(#color-28)"></path></g><g><path d="M239.59425,154.46318l-4.84654,19.59552" stroke="url(#color-29)"></path><path d="M235.28253,154.07469l-0.91273,20.1653" stroke="url(#color-30)"></path><path d="M240.91655,172.13464l-10.94522,-16.96097" stroke="url(#color-31)"></path><path d="M240.7895,172.53408l-14.05661,-14.48738" stroke="url(#color-32)"></path></g><g><path d="M240.27055,172.91115l15.31178,-13.15377" stroke="url(#color-33)"></path><path d="M252.29487,156.94052l-12.43737,15.89919" stroke="url(#color-34)"></path><path d="M247.3306,154.75589l-0.91862,20.16504" stroke="url(#color-35)"></path><path d="M246.07682,175.17267l-3.05061,-19.95412" stroke="url(#color-36)"></path></g></g><path d="M234.96168,179.99999c0,-2.78258 2.25574,-5.03832 5.03832,-5.03832c2.78259,0 5.03831,2.25574 5.03831,5.03832c0,2.78258 -2.25573,5.03831 -5.03831,5.03831c-2.78259,0 -5.03832,-2.25573 -5.03832,-5.03831z" stroke="url(#color-37)" stroke-width="7" stroke-linecap="butt"></path><path d="M213.23914,179.99999c0,-14.77961 11.98124,-26.76087 26.76086,-26.76087c14.77961,0 26.76086,11.98125 26.76086,26.76087c0,14.77961 -11.98124,26.76086 -26.76086,26.76086c-14.77961,0 -26.76086,-11.98124 -26.76086,-26.76086z" stroke="url(#color-38)" stroke-width="8" stroke-linecap="butt"></path><path d="M209.44893,233.43853v-22.83441h60.25123v22.83441z" stroke="none" stroke-width="NaN" stroke-linecap="butt"></path><path d="M212.27497,146.50948v-22.83441h60.25123v22.83444z" stroke="none" stroke-width="NaN" stroke-linecap="butt"></path><path d="M270.55544,180c0,16.67409 -13.68014,30.19111 -30.55545,30.19111c-16.8753,0 -30.55544,-13.51702 -30.55544,-30.19111c0,-16.67409 13.68014,-30.19111 30.55544,-30.19111c16.8753,0 30.55545,13.51702 30.55545,30.19111z" stroke="#141413" stroke-width="9" stroke-linecap="butt"></path></g></g></svg>