<svg version="1.1" xmlns="http://www.w3.org/2000/svg" xmlns:xlink="http://www.w3.org/1999/xlink" width="51.65273" height="51.65274" viewBox="0,0,51.65273,51.65274"><defs><radialGradient cx="248.12568" cy="175.77112" r="5.31981" gradientUnits="userSpaceOnUse" id="color-1"><stop offset="0" stop-color="#2d2d2d"></stop><stop offset="1" stop-color="#000000"></stop></radialGradient><radialGradient cx="247.89898" cy="174.46266" r="5.3198" gradientUnits="userSpaceOnUse" id="color-2"><stop offset="0" stop-color="#2d2d2d"></stop><stop offset="1" stop-color="#000000"></stop></radialGradient><radialGradient cx="248.51877" cy="175.31496" r="5.31981" gradientUnits="userSpaceOnUse" id="color-3"><stop offset="0" stop-color="#2d2d2d"></stop><stop offset="1" stop-color="#000000"></stop></radialGradient><radialGradient cx="247.41069" cy="174.58311" r="5.3198" gradientUnits="userSpaceOnUse" id="color-4"><stop offset="0" stop-color="#2d2d2d"></stop><stop offset="1" stop-color="#000000"></stop></radialGradient><radialGradient cx="248.86972" cy="182.2624" r="5.31981" gradientUnits="userSpaceOnUse" id="color-5"><stop offset="0" stop-color="#2d2d2d"></stop><stop offset="1" stop-color="#000000"></stop></radialGradient><radialGradient cx="249.52411" cy="181.10689" r="5.31981" gradientUnits="userSpaceOnUse" id="color-6"><stop offset="0" stop-color="#2d2d2d"></stop><stop offset="1" stop-color="#000000"></stop></radialGradient><radialGradient cx="249.46293" cy="182.15894" r="5.31981" gradientUnits="userSpaceOnUse" id="color-7"><stop offset="0" stop-color="#2d2d2d"></stop><stop offset="1" stop-color="#000000"></stop></radialGradient><radialGradient cx="249.07016" cy="180.89041" r="5.3198" gradientUnits="userSpaceOnUse" id="color-8"><stop offset="0" stop-color="#2d2d2d"></stop><stop offset="1" stop-color="#000000"></stop></radialGradient><radialGradient cx="244.72722" cy="187.59863" r="5.31981" gradientUnits="userSpaceOnUse" id="color-9"><stop offset="0" stop-color="#2d2d2d"></stop><stop offset="1" stop-color="#000000"></stop></radialGradient><radialGradient cx="246.01022" cy="187.25609" r="5.31981" gradientUnits="userSpaceOnUse" id="color-10"><stop offset="0" stop-color="#2d2d2d"></stop><stop offset="1" stop-color="#000000"></stop></radialGradient><radialGradient cx="245.21661" cy="187.94945" r="5.31981" gradientUnits="userSpaceOnUse" id="color-11"><stop offset="0" stop-color="#2d2d2d"></stop><stop offset="1" stop-color="#000000"></stop></radialGradient><radialGradient cx="245.84668" cy="186.7805" r="5.3198" gradientUnits="userSpaceOnUse" id="color-12"><stop offset="0" stop-color="#2d2d2d"></stop><stop offset="1" stop-color="#000000"></stop></radialGradient><radialGradient cx="238.46665" cy="188.85073" r="5.31981" gradientUnits="userSpaceOnUse" id="color-13"><stop offset="0" stop-color="#2d2d2d"></stop><stop offset="1" stop-color="#000000"></stop></radialGradient><radialGradient cx="239.7223" cy="189.28288" r="5.31981" gradientUnits="userSpaceOnUse" id="color-14"><stop offset="0" stop-color="#2d2d2d"></stop><stop offset="1" stop-color="#000000"></stop></radialGradient><radialGradient cx="238.6768" cy="189.41502" r="5.31981" gradientUnits="userSpaceOnUse" id="color-15"><stop offset="0" stop-color="#2d2d2d"></stop><stop offset="1" stop-color="#000000"></stop></radialGradient><radialGradient cx="239.85216" cy="188.79701" r="5.31981" gradientUnits="userSpaceOnUse" id="color-16"><stop offset="0" stop-color="#2d2d2d"></stop><stop offset="1" stop-color="#000000"></stop></radialGradient><radialGradient cx="232.61225" cy="185.8032" r="5.31981" gradientUnits="userSpaceOnUse" id="color-17"><stop offset="0" stop-color="#2d2d2d"></stop><stop offset="1" stop-color="#000000"></stop></radialGradient><radialGradient cx="233.32509" cy="186.9236" r="5.31981" gradientUnits="userSpaceOnUse" id="color-18"><stop offset="0" stop-color="#2d2d2d"></stop><stop offset="1" stop-color="#000000"></stop></radialGradient><radialGradient cx="232.42502" cy="186.3755" r="5.31981" gradientUnits="userSpaceOnUse" id="color-19"><stop offset="0" stop-color="#2d2d2d"></stop><stop offset="1" stop-color="#000000"></stop></radialGradient><radialGradient cx="233.7294" cy="186.6245" r="5.31981" gradientUnits="userSpaceOnUse" id="color-20"><stop offset="0" stop-color="#2d2d2d"></stop><stop offset="1" stop-color="#000000"></stop></radialGradient><radialGradient cx="230.36994" cy="180.23459" r="5.31981" gradientUnits="userSpaceOnUse" id="color-21"><stop offset="0" stop-color="#2d2d2d"></stop><stop offset="1" stop-color="#000000"></stop></radialGradient><radialGradient cx="230.15955" cy="181.54577" r="5.31981" gradientUnits="userSpaceOnUse" id="color-22"><stop offset="0" stop-color="#2d2d2d"></stop><stop offset="1" stop-color="#000000"></stop></radialGradient><radialGradient cx="229.85003" cy="180.53842" r="5.31981" gradientUnits="userSpaceOnUse" id="color-23"><stop offset="0" stop-color="#2d2d2d"></stop><stop offset="1" stop-color="#000000"></stop></radialGradient><radialGradient cx="230.66048" cy="181.59037" r="5.31981" gradientUnits="userSpaceOnUse" id="color-24"><stop offset="0" stop-color="#2d2d2d"></stop><stop offset="1" stop-color="#000000"></stop></radialGradient><radialGradient cx="231.85489" cy="173.86917" r="5.3198" gradientUnits="userSpaceOnUse" id="color-25"><stop offset="0" stop-color="#2d2d2d"></stop><stop offset="1" stop-color="#000000"></stop></radialGradient><radialGradient cx="230.87247" cy="174.76264" r="5.31981" gradientUnits="userSpaceOnUse" id="color-26"><stop offset="0" stop-color="#2d2d2d"></stop><stop offset="1" stop-color="#000000"></stop></radialGradient><radialGradient cx="231.25903" cy="173.78226" r="5.31981" gradientUnits="userSpaceOnUse" id="color-27"><stop offset="0" stop-color="#2d2d2d"></stop><stop offset="1" stop-color="#000000"></stop></radialGradient><radialGradient cx="231.23614" cy="175.11002" r="5.31981" gradientUnits="userSpaceOnUse" id="color-28"><stop offset="0" stop-color="#2d2d2d"></stop><stop offset="1" stop-color="#000000"></stop></radialGradient><radialGradient cx="237.49631" cy="170.35452" r="5.3198" gradientUnits="userSpaceOnUse" id="color-29"><stop offset="0" stop-color="#2d2d2d"></stop><stop offset="1" stop-color="#000000"></stop></radialGradient><radialGradient cx="236.16871" cy="170.32403" r="5.31981" gradientUnits="userSpaceOnUse" id="color-30"><stop offset="0" stop-color="#2d2d2d"></stop><stop offset="1" stop-color="#000000"></stop></radialGradient><radialGradient cx="237.12475" cy="169.88065" r="5.31981" gradientUnits="userSpaceOnUse" id="color-31"><stop offset="0" stop-color="#2d2d2d"></stop><stop offset="1" stop-color="#000000"></stop></radialGradient><radialGradient cx="236.19252" cy="170.82636" r="5.31981" gradientUnits="userSpaceOnUse" id="color-32"><stop offset="0" stop-color="#2d2d2d"></stop><stop offset="1" stop-color="#000000"></stop></radialGradient><radialGradient cx="243.94717" cy="171.36373" r="5.3198" gradientUnits="userSpaceOnUse" id="color-33"><stop offset="0" stop-color="#2d2d2d"></stop><stop offset="1" stop-color="#000000"></stop></radialGradient><radialGradient cx="242.88326" cy="170.56903" r="5.31981" gradientUnits="userSpaceOnUse" id="color-34"><stop offset="0" stop-color="#2d2d2d"></stop><stop offset="1" stop-color="#000000"></stop></radialGradient><radialGradient cx="243.91923" cy="170.76223" r="5.31981" gradientUnits="userSpaceOnUse" id="color-35"><stop offset="0" stop-color="#2d2d2d"></stop><stop offset="1" stop-color="#000000"></stop></radialGradient><radialGradient cx="242.61134" cy="170.99209" r="5.31981" gradientUnits="userSpaceOnUse" id="color-36"><stop offset="0" stop-color="#2d2d2d"></stop><stop offset="1" stop-color="#000000"></stop></radialGradient><radialGradient cx="239.86656" cy="179.75165" r="5.5" gradientUnits="userSpaceOnUse" id="color-37"><stop offset="0" stop-color="#3a3a3a"></stop><stop offset="1" stop-color="#1f1f1f"></stop></radialGradient><radialGradient cx="239.86657" cy="179.75165" r="18.04615" gradientUnits="userSpaceOnUse" id="color-38"><stop offset="0" stop-color="#ffffff"></stop><stop offset="1" stop-color="#111111"></stop></radialGradient></defs><g transform="translate(-214.17364,-154.17363)"><g data-paper-data="{&quot;isPaintingLayer&quot;:true}" fill-rule="nonzero" stroke-linejoin="miter" stroke-miterlimit="10" stroke-dasharray="" stroke-dashoffset="0" style="mix-blend-mode: normal"><g><g fill="none" stroke-width="0.5" stroke-linecap="round"><path d="M242.57234,175.55445l12.97432,0.62259" stroke="url(#color-1)"></path><path d="M242.41085,175.33842l12.84478,-1.93187" stroke="url(#color-2)"></path><path d="M244.55437,179.20981l9.34687,-9.01978" stroke="url(#color-3)"></path><path d="M244.28636,179.17928l7.39819,-10.67648" stroke="url(#color-4)"></path></g><g fill="none" stroke-width="0.5" stroke-linecap="round"><path d="M254.35066,187.28188l-9.63773,-8.70831" stroke="url(#color-5)"></path><path d="M244.72506,178.30411l11.15732,6.65092" stroke="url(#color-6)"></path><path d="M243.92772,182.65686l12.94692,-1.04786" stroke="url(#color-7)"></path><path d="M243.73985,182.46332l12.49057,-3.56456" stroke="url(#color-8)"></path></g><g fill="none" stroke-width="0.5" stroke-linecap="round"><path d="M244.44749,182.04813l0.5376,12.97811" stroke="url(#color-9)"></path><path d="M244.64826,181.86799l3.07029,12.62118" stroke="url(#color-10)"></path><path d="M250.8014,192.85317l-9.81782,-8.50477" stroke="url(#color-11)"></path><path d="M240.99006,184.07875l11.29403,6.41602" stroke="url(#color-12)"></path></g><g fill="none" stroke-width="0.5" stroke-linecap="round"><path d="M241.33352,184.0897l-6.79992,11.06714" stroke="url(#color-13)"></path><path d="M237.10124,196.23744l4.49943,-12.18506" stroke="url(#color-14)"></path><path d="M240.57226,196.60137l-3.39676,-12.53726" stroke="url(#color-15)"></path><path d="M237.33143,183.84402l5.78764,11.62858" stroke="url(#color-16)"></path></g><g fill="none" stroke-width="0.5" stroke-linecap="round"><path d="M237.82117,183.86575l-12.21445,4.41903" stroke="url(#color-17)"></path><path d="M226.94163,190.72984l11.11173,-6.72685" stroke="url(#color-18)"></path><path d="M229.42972,193.17727l5.15522,-11.92242" stroke="url(#color-19)"></path><path d="M232.12502,193.88136l2.71902,-12.70148" stroke="url(#color-20)"></path></g><g fill="none" stroke-width="0.5" stroke-linecap="round"><path d="M223.48271,177.44135l12.06938,4.80109" stroke="url(#color-21)"></path><path d="M222.85848,180.15627l12.7762,2.34295" stroke="url(#color-22)"></path><path d="M234.8642,178.14163l-11.76892,5.49664" stroke="url(#color-23)"></path><path d="M235.10776,178.25751l-10.46366,7.69626" stroke="url(#color-24)"></path></g><g fill="none" stroke-width="0.5" stroke-linecap="round"><path d="M234.65227,178.67134l-6.43734,-11.28189" stroke="url(#color-25)"></path><path d="M226.03334,169.12182l8.52328,9.80174" stroke="url(#color-26)"></path><path d="M236.67301,175.03727l-12.62694,-3.04645" stroke="url(#color-27)"></path><path d="M236.79108,175.27979l-12.97912,-0.51308" stroke="url(#color-28)"></path></g><g fill="none" stroke-width="0.5" stroke-linecap="round"><path d="M239.32898,163.15192l-3.11865,12.60932" stroke="url(#color-29)"></path><path d="M236.55447,162.90194l-0.58732,12.97596" stroke="url(#color-30)"></path><path d="M233.13682,163.6091l7.04303,10.91404" stroke="url(#color-31)"></path><path d="M231.05296,165.45784l9.04514,9.32233" stroke="url(#color-32)"></path></g><g fill="none" stroke-width="0.5" stroke-linecap="round"><path d="M249.61698,166.55862l-9.85282,8.46418" stroke="url(#color-33)"></path><path d="M247.50157,164.74603l-8.0032,10.2308" stroke="url(#color-34)"></path><path d="M243.71605,176.31605l0.59111,-12.97579" stroke="url(#color-35)"></path><path d="M243.50039,176.47805l-1.96301,-12.84007" stroke="url(#color-36)"></path></g><path d="M234.36656,179.75165c0,-3.03757 2.46243,-5.5 5.5,-5.5c3.03757,0 5.5,2.46243 5.5,5.5c0,3.03757 -2.46243,5.5 -5.5,5.5c-3.03757,0 -5.5,-2.46243 -5.5,-5.5z" fill="url(#color-37)" stroke="#000000" stroke-width="0.5" stroke-linecap="butt"></path><path d="M221.82041,179.75165c0,-9.96661 8.07953,-18.04616 18.04615,-18.04616c9.96661,0 18.04615,8.07954 18.04615,18.04616c0,9.96661 -8.07953,18.04615 -18.04615,18.04615c-9.96661,0 -18.04615,-8.07953 -18.04615,-18.04615z" fill="none" stroke="url(#color-38)" stroke-width="4.5" stroke-linecap="butt"></path><path d="M262.57637,180c0,12.46859 -10.10779,22.57637 -22.57637,22.57637c-12.46859,0 -22.57636,-10.10778 -22.57636,-22.57637c0,-12.46859 10.10778,-22.57637 22.57636,-22.57637c12.46859,0 22.57637,10.10778 22.57637,22.57637z" fill="none" stroke="#000000" stroke-width="6.5" stroke-linecap="butt"></path></g></g></g></svg>