<svg version="1.1" xmlns="http://www.w3.org/2000/svg" xmlns:xlink="http://www.w3.org/1999/xlink" width="176.33385" height="149.72151" viewBox="0,0,176.33385,149.72151"><defs><linearGradient x1="285.19165" y1="158.67953" x2="326.09731" y2="158.67953" gradientUnits="userSpaceOnUse" id="color-1"><stop offset="0" stop-color="#9b9b9b"></stop><stop offset="1" stop-color="#949494"></stop></linearGradient><linearGradient x1="340.76414" y1="101.34636" x2="348.77592" y2="96.57529" gradientUnits="userSpaceOnUse" id="color-2"><stop offset="0" stop-color="#323232"></stop><stop offset="1" stop-color="#3e3e3e"></stop></linearGradient><linearGradient x1="332.76896" y1="118.96987" x2="387.12625" y2="118.96987" gradientUnits="userSpaceOnUse" id="color-3"><stop offset="0" stop-color="#9e8f6a"></stop><stop offset="1" stop-color="#8d7245"></stop></linearGradient></defs><g transform="translate(-237.62004,-70.80126)"><g data-paper-data="{&quot;isPaintingLayer&quot;:true}" fill-rule="nonzero" stroke-linecap="butt" stroke-linejoin="miter" stroke-miterlimit="10" stroke-dasharray="" stroke-dashoffset="0" style="mix-blend-mode: normal"><path d="M296.56647,163.2954v-36.0709h38.53358l-1.46895,35.41804c0,0 0.35391,3.9656 -2.12599,4.00928c-6.12031,0.10781 -34.93863,-3.35641 -34.93863,-3.35641z" fill="#2f2f2f" stroke="none" stroke-width="0"></path><path d="M284.44678,124.13349c-14.07972,-5.45625 -29.24591,-11.30187 -31.80828,-12.20305c-0.71996,-0.25321 5.80754,-4.70425 5.80754,-4.70425l28.13093,6.79688c0,0 4.51754,0.83293 4.20417,3.77832c-0.23339,2.19372 -5.01904,6.84183 -6.33437,6.33211z" fill="#d89856" stroke="#000000" stroke-width="0.25"></path><path d="M244.32504,136.59393c0,0 -5.78176,-3.1683 -4.55441,-6.51092c1.09045,-2.96978 8.68724,-2.53128 8.68724,-2.53128l30.86927,11.21597l-2.85342,10.10838z" fill="#8a8a8a" stroke="none" stroke-width="0"></path><path d="M273.07475,93.05522l11.25538,16.57568c0,0 10.92781,3.73899 4.55049,7.62661c-2.86356,1.74565 -6.55784,2.97572 -8.64432,2.56361c-1.0263,-0.2027 -0.35462,-1.35888 -2.7774,-2.08097c-3.62115,-1.07925 -7.8267,-6.26052 -10.76733,-8.83263c-8.90799,-7.79167 6.38316,-15.8523 6.38316,-15.8523z" fill="#333333" stroke="#000000" stroke-width="0.25"></path><path d="M318.98321,142.68999l-0.53651,-4.53159l3.26829,-0.18077l-0.01618,5.00791z" fill="#3f3f3f" stroke="none" stroke-width="0"></path><path d="M322.57394,142.17011l0.83633,-4.49658l3.63747,1.01372l-1.59155,4.74832z" fill="#3f3f3f" stroke="none" stroke-width="0"></path><path d="M298.44363,177.22957l-2.976,-16.07039c0,0 2.4504,-1.28087 3.99944,-2.54053c1.10484,-0.89845 6.42219,-2.28035 7.12295,-2.33891c6.53957,-0.54649 25.77999,3.29225 25.77999,3.29225l-2.3808,16.07039c0,0 -10.05844,3.74038 -15.45302,4.0118c-5.10459,0.25683 -16.09256,-2.42461 -16.09256,-2.42461z" fill="#797979" stroke="none" stroke-width="0"></path><path d="M313.12523,156.25253c0,0 -0.69681,-2.38448 -2.68264,-3.07555c-0.43034,-0.14976 -9.03798,1.80917 -9.03798,1.80917l-3.49511,-3.12929c0,0 -8.96909,-1.53903 -10.01278,-1.84485c-6.51216,-1.90819 0.74257,-3.39359 1.03149,-4.74052c0.10071,-0.46947 5.21962,2.32818 10.50978,2.3534c2.30018,0.01096 3.12056,-4.19185 5.30233,-3.78822c1.76304,0.32617 5.02744,1.48522 5.02744,1.48522l0.45489,3.92752c0,0 3.54116,-0.08446 3.87728,-0.18849c1.43335,-0.44364 -0.49013,-6.8616 -0.47451,-7.30994c0.11012,-3.16245 16.84063,-0.60642 17.02258,2.47157c0.06952,1.17596 -1.05604,2.05668 -1.16502,4.68221c-0.08893,2.14243 0.80371,5.93859 0.80371,5.93859l-0.35305,6.78083c0,0 -1.34575,13.6672 -2.52927,13.64255c-0.45572,-0.00949 -13.73768,0.96205 -18.66864,0.19c-2.27197,-0.35573 -3.6355,-2.26611 -3.97493,-3.0318c-0.88438,-1.99499 -9.81688,-12.09266 -6.45622,-14.69864c1.16578,-0.90399 14.82066,-1.47374 14.82066,-1.47374z" fill="url(#color-1)" stroke="none" stroke-width="0"></path><path d="M323.04508,153.84862c0,0 10.45091,2.66596 7.55077,-1.47262c-2.5594,-3.65233 -6.79431,-1.17953 -6.65308,-3.33364c0.05789,-0.8829 2.10667,-2.70898 3.80003,-2.8726c3.3453,-0.32323 4.1544,0.20882 6.44557,3.2366c1.32025,1.74472 1.27839,6.82189 -1.1774,9.45808c-2.78249,2.9869 -8.97228,1.31288 -8.97228,1.31288z" fill="#8a8a8a" stroke="none" stroke-width="0"></path><path d="M313.53878,142.09682l1.40389,-6.56628l16.54685,3.06514l-0.80937,5.92657c0,0 -6.04012,-2.5803 -9.40116,-2.94771c-3.7114,-0.40571 -7.74021,0.52228 -7.74021,0.52228z" fill="#3f3f3f" stroke="none" stroke-width="0"></path><path d="M274.06606,146.42246l3.25027,-3.56071l36.24038,11.66565l-1.11792,3.77395z" fill="#8a8a8a" stroke="none" stroke-width="0"></path><path d="M319.47403,167.01199c0,4.65687 -3.77514,8.432 -8.432,8.432c-4.65686,0 -8.432,-3.77513 -8.432,-8.432c0,-4.65687 3.77513,-8.432 8.432,-8.432c4.65686,0 8.432,3.77513 8.432,8.432z" fill="#76716c" stroke="none" stroke-width="0"></path><path d="M309.59083,155.91243c0.48688,-3.78727 4.87776,-2.30839 9.39025,-2.06635c4.8975,0.26269 7.1662,-0.04977 7.24211,2.9193c0.08607,3.36596 -2.55944,3.40224 -7.57082,2.76472c-4.74469,-0.6036 -9.31643,-1.08313 -9.06155,-3.61767z" fill="#a0a0a0" stroke="none" stroke-width="0"></path><text transform="translate(303.90013,165.45472) scale(0.09802,0.09802)" font-size="40" xml:space="preserve" fill="#626262" fill-rule="nonzero" stroke="none" stroke-width="1" stroke-linecap="butt" stroke-linejoin="miter" stroke-miterlimit="10" stroke-dasharray="" stroke-dashoffset="0" font-family="Sans Serif" font-weight="normal" text-anchor="start" style="mix-blend-mode: normal"><tspan x="0" dy="0">Factory</tspan></text><path d="M344.35857,100.56555l-6.99045,-7.3664l2.45659,-3.97747l8.57766,10.7392z" fill="url(#color-2)" stroke="none" stroke-width="0"></path><path d="M270.85956,143.86198l-1.79406,-4.18332l30.53666,-13.23945c0,0 -0.23311,10.35341 -1.28919,13.68167c-1.12229,3.53691 -6.01322,12.56046 -6.01322,12.56046z" fill="#0d0d0c" stroke="none" stroke-width="0"></path><path d="M297.05476,178.81678c-3.45316,-0.81235 -8.20304,-22.59722 -8.20304,-22.59722c0,0 7.62604,-24.04999 20.54165,-29.6445c10.5217,-4.55756 31.12414,8.37467 30.56312,9.33911c-0.38793,0.66688 -2.01738,2.0477 -2.01738,2.0477l-23.6968,-6.13457l-17.46516,27.45354c0,0 0.72764,6.47171 2.09529,10.0003c1.73255,4.47007 4.25221,6.25692 4.97384,6.67965c7.64852,4.48046 18.88804,0.89791 22.33077,-0.37485c3.70442,-1.36951 5.7961,-11.64916 5.7961,-11.64916l1.67322,-19.61454c0,0 2.12489,-3.24313 4.80911,-7.60615c4.37362,-7.10902 10.95732,-17.78637 14.29849,-21.65698c1.2333,-1.42872 2.64703,3.45182 2.79653,3.4634c0.77002,0.05966 -17.18068,26.16566 -17.18068,26.16566c0,0 -5.24768,29.76995 -5.80811,30.35696c-2.24564,2.3522 -2.9035,4.13489 -6.14376,4.76362c-3.24026,0.62874 -19.94928,1.22259 -29.36318,-0.992z" fill="#9b9b9b" stroke="none" stroke-width="0"></path><path d="M330.78274,132.3912l14.87999,-29.56157l2.976,2.5792c0,0 5.10245,8.68958 4.44113,10.05946c-0.5547,1.14903 -9.65148,17.04062 -13.26229,20.59963c-0.57084,0.56266 -5.06684,-1.89111 -5.06684,-1.89111z" fill="#9b9b9b" stroke="none" stroke-width="0"></path><path d="M314.31561,140.724c0,0 -5.26725,-0.84137 -7.09019,-2.63233c-1.93943,-1.90541 -3.02819,-14.82686 -3.02819,-14.82686c0,0 10.6084,-3.51865 19.44336,-7.26989c2.72756,-1.1581 3.85018,-3.23581 6.27131,-4.09409c2.98247,-1.05726 6.79843,-0.67952 8.09569,-1.0161c2.09393,-0.54328 2.89361,1.07128 2.89361,1.07128c0,0 0.47825,1.67458 -0.11827,5.13803c-0.89165,5.17707 -3.20513,13.12665 -5.23903,15.62039c-4.08293,5.00603 -16.66509,7.81117 -16.66509,7.81117z" fill="#181816" stroke="none" stroke-width="0"></path><path d="M345.76688,104.80285l-1.83826,-3.94753l3.61421,-2.37974l2.63186,2.36033z" fill="#323232" stroke="none" stroke-width="0"></path><path d="M285.34925,127.64444l-39.70959,-12.32587c0,0 61.98847,2.46706 63.12077,2.20748c4.42371,-1.01411 17.62407,-4.55354 17.62407,-4.55354l4.00151,-0.20806c0,0 -1.40938,2.03528 -4.27995,3.9002c-4.22053,2.74194 -9.71789,6.60068 -14.06368,7.9527c-7.56881,2.35475 -26.69313,3.02709 -26.69313,3.02709z" fill="#050e06" stroke="none" stroke-width="0"></path><path d="M364.11405,126.4392c0,0 -4.90161,4.11312 -7.66012,7.84665c-3.65181,4.94261 -12.33254,19.21273 -12.33254,19.21273c0,0 -0.17449,-8.30218 -0.05367,-9.14784c0.12081,-0.84566 2.56398,-7.4506 7.36423,-13.3357c6.20255,-7.60429 15.06289,-14.69424 15.06289,-14.69424l21.42719,0.3968c0,0 9.41972,1.85973 11.83684,3.28802c0.3227,0.19068 4.06448,1.64426 7.57442,4.09842c4.09468,2.86301 6.61343,6.97007 6.62059,7.46014c0.01632,1.11557 -13.53267,-7.10899 -13.53267,-7.10899c0,0 -10.93722,-0.73451 -16.45339,-0.48659c-6.17996,0.27775 -19.85378,2.47058 -19.85378,2.47058z" fill="#1dbf2b" stroke="none" stroke-width="0"></path><path d="M374.27547,157.10425l-29.40404,-53.137l5.11316,-3.23309l25.43605,44.80421z" fill="url(#color-3)" stroke="none" stroke-width="0"></path><path d="M238.92371,182.58637c-3.14915,-2.43661 0.3968,-5.3568 0.3968,-5.3568c0,0 28.80661,-10.21171 38.798,-12.55401c6.30291,-1.4776 15.36516,-0.14358 15.36516,-0.14358l2.5792,7.7376c0,0 -7.64113,2.2924 -17.15436,4.0542c-16.7566,3.10322 -39.73862,6.45308 -39.98481,6.26259z" fill="#9a9a9a" stroke="none" stroke-width="0"></path><path d="M357.96365,115.32881l-8.3328,-15.27678c0,0 2.10596,-1.95211 1.85374,-2.99252c-0.27489,-1.13393 -0.86174,-3.35629 -0.86174,-3.35629c0,0 1.59704,0.89256 4.21252,4.86194c2.9625,4.49602 7.88988,14.77966 7.88988,14.77966c0,0 0.52869,1.95654 0.73227,3.77645c0.16896,1.51042 0.05224,2.92674 -0.21463,3.05232c-0.52965,0.24925 -5.27924,-4.84479 -5.27924,-4.84479z" fill="#e0e0e0" stroke="none" stroke-width="0"></path><path d="M330.18755,111.75761c-0.85606,-0.47676 1.32363,-1.99758 2.45605,-2.47887c1.13242,-0.48128 1.48104,-0.8076 3.91783,-0.1984c2.43679,0.6092 3.76553,1.97898 2.55412,2.49383c-0.66972,0.28463 -1.98383,-0.17322 -4.13962,-0.00934c-1.74368,0.13255 -3.71721,0.78932 -4.78837,0.19278z" fill="#0d0d0c" stroke="none" stroke-width="0"></path><path d="M333.46119,90.92563c0,-2.0271 1.64329,-3.6704 3.6704,-3.6704c2.0271,0 3.6704,1.64329 3.6704,3.6704c0,2.0271 -1.64329,3.6704 -3.6704,3.6704c-2.0271,0 -3.6704,-1.64329 -3.6704,-3.6704z" fill="#101010" stroke="none" stroke-width="0"></path><path d="M245.27249,125.44721c0,0 0.93722,-3.55368 -1.8223,-5.40274c-2.62747,-1.76057 2.81429,-5.11246 2.81429,-5.11246l12.69759,2.5792c0,0 20.00098,7.33828 25.81232,9.05767c1.07982,0.31949 17.39792,-0.01447 29.97145,-4.19564c8.04907,-2.67662 14.96039,-9.0636 14.96039,-9.0636c0,0 5.9663,2.17544 12.66157,4.13408c5.43241,1.58921 13.00963,3.0985 13.29194,4.07075c0.03551,0.12228 4.66306,3.2211 4.66306,3.2211c0,0 -4.02392,4.07746 -6.88244,7.46022c-3.84241,4.54711 -14.10629,17.37777 -14.10629,17.37777c0,0 -3.3712,-1.17345 -5.47395,-3.60729c-1.39854,-1.61875 -1.13764,-4.14303 -2.60033,-5.28304c-4.44616,-2.96613 -10.00214,-1.34776 -10.00214,-1.34776c0,0 0.75682,-2.63613 4.27741,-4.10349c4.19146,-1.74697 11.22374,-2.49984 10.62032,-4.36903c-1.23131,-3.8142 -2.49236,-3.19813 -4.65776,-3.64604c-2.31664,-0.47919 0.85043,-4.26822 0.07797,-4.54499c-1.07046,-0.38355 3.21942,-0.36193 5.59066,-0.81178c2.05406,-0.38968 2.17318,-1.28169 2.17318,-1.28169c0,0 -6.55063,-1.22268 -7.19148,-0.42543c-1.64984,2.05246 1.72862,7.51893 1.72862,7.51893l-28.67114,2.57291c0,0 -14.81665,0.72086 -16.94594,1.97478c-6.85685,4.03795 -16.11888,11.53941 -16.75785,11.94135c-0.53498,0.33653 -13.37757,-5.05257 -15.3306,-7.78367c-3.96932,-5.55067 -10.89856,-10.93012 -10.89856,-10.93012z" fill="#1dbf2b" stroke="none" stroke-width="0"></path><text transform="translate(305.53936,170.5171) scale(0.08433,0.08433)" font-size="40" xml:space="preserve" fill="#626262" fill-rule="nonzero" stroke="none" stroke-width="1" stroke-linecap="butt" stroke-linejoin="miter" stroke-miterlimit="10" stroke-dasharray="" stroke-dashoffset="0" font-family="Sans Serif" font-weight="normal" text-anchor="start" style="mix-blend-mode: normal"><tspan x="0" dy="0">Racing</tspan></text><path d="M245.15487,125.5428c0,0 0.93722,-3.55368 -1.8223,-5.40274c-2.62747,-1.76057 4.94665,-3.19334 4.94665,-3.19334l10.56524,0.66008c0,0 20.00098,7.33828 25.81232,9.05767c1.07982,0.31949 5.61439,4.39684 3.4851,5.65076c-6.85685,4.03795 -16.11888,11.53941 -16.75785,11.94135c-0.53498,0.33653 -13.37757,-5.05257 -15.3306,-7.78367c-3.96932,-5.55067 -10.89856,-10.93012 -10.89856,-10.93012z" fill="#cacaca" stroke="none" stroke-width="0"></path><path d="M387.20854,220.52278v-0.85295h0.42648v0.85295z" fill="#a0a0a0" stroke="none" stroke-width="0"></path><path d="M251.02613,101.22477l7.81777,5.84829l-14.16852,11.21946l-4.1146,-3.07805z" fill="#636363" stroke="#000000" stroke-width="0.25"></path><path d="M272.361,93.82398c0,0 3.18663,-5.63021 8.09549,-11.6618c2.79974,-3.44007 6.07254,-7.82752 9.85297,-9.32179c10.40876,-4.11424 8.78541,-1.29546 10.87988,5.58241c1.33773,4.39285 -3.55595,7.54389 -8.37466,14.37626c-3.77014,5.34564 -7.86159,11.69811 -9.15577,14.5788c-1.27588,2.83991 -11.2979,-13.55384 -11.2979,-13.55384z" fill="#afafaf" stroke="#000000" stroke-width="0.25"></path><path d="M303.38793,78.74238l14.51064,8.48928l12.36721,0.27452l1.41031,3.1934c0,0 -9.9118,3.69908 -14.64747,2.88767c-5.73822,-0.98319 -17.35532,-8.37103 -17.35532,-8.37103z" fill="#d89856" stroke="#000000" stroke-width="0.25"></path><path d="M300.22659,86.95648c0,0 -7.59554,-2.27414 -8.50206,-6.3866c-0.49631,-2.25153 1.20798,-3.56779 2.28579,-4.4797c0.89084,-0.7537 2.56298,-1.07208 4.11645,-1.16331c3.43301,-0.20164 7.44154,4.79594 7.44154,4.79594z" fill="#afafaf" stroke="#000000" stroke-width="0.25"></path><path d="M330.63937,91.46619l-0.53851,-3.95312l5.67395,-2.95513l3.8434,1.21534l1.64237,3.48707c0,0 -3.3802,-1.66825 -4.78584,-1.41918c-1.30229,0.23075 -3.11335,1.40907 -4.35328,2.46189c-0.85685,0.72753 -1.48207,1.16314 -1.48207,1.16314z" fill="#383838" stroke="#000000" stroke-width="0.25"></path><path d="M294.43273,165.11878l0.62665,-9.74307l17.13813,5.73652l-0.32982,5.12792z" fill="#636363" stroke="#000000" stroke-width="0.25"></path><path d="M294.74969,124.45349c3.31059,14.73259 6.90296,30.58438 7.58169,33.21444c0.19071,0.73898 -7.14168,-2.20312 -7.14168,-2.20312l-10.02343,-27.14917c0,0 2.90998,-2.32773 5.53075,-3.708c1.95193,-1.02802 3.74341,-1.53046 4.05269,-0.15415z" fill="#d89856" stroke="#000000" stroke-width="0.25"></path><path d="M271.85312,93.13284c0,0 14.32008,9.37861 12.79313,16.26371c-0.66079,2.97949 12.26642,13.70829 10.86476,21.04444c-1.40165,7.33615 -10.31734,-0.55768 -10.31734,-0.55768c0,0 -15.13371,-18.68832 -17.90297,-25.3009c-1.9466,-4.6482 4.56242,-11.44957 4.56242,-11.44957z" fill="#333333" stroke="#000000" stroke-width="0.25"></path></g></g></svg>