<svg version="1.1" xmlns="http://www.w3.org/2000/svg" xmlns:xlink="http://www.w3.org/1999/xlink" width="32.8085" height="31.96787" viewBox="0,0,32.8085,31.96787"><g transform="translate(-220.96545,-148.39063)"><g data-paper-data="{&quot;isPaintingLayer&quot;:true}" fill-rule="nonzero" stroke="none" stroke-width="0" stroke-linecap="butt" stroke-linejoin="miter" stroke-miterlimit="10" stroke-dasharray="" stroke-dashoffset="0" style="mix-blend-mode: normal"><path d="M243.97131,174.56989c-0.24977,-0.18947 -0.19,-1.09361 -0.12195,-1.15691c0.3412,-0.3174 1.49187,0.03659 1.49187,0.03659c0,0 0.03922,0.94115 -0.13415,1.14472c-0.08519,0.10003 -0.45009,-0.05244 -0.60479,-0.03818c-0.15921,0.01467 -0.45177,0.14974 -0.63098,0.01379z" fill="#dadada"></path><g><path d="M242.6925,173.33847v-3.66667h4.53333v3.66667z" fill="#dadada"></path><path d="M226.81333,171.73847c0,0 -4.54798,-8.50726 0,-14.125c2.67601,-3.30545 8.60779,-5.40269 12.39286,-4.72471c4.18497,0.74961 7.23214,3.72471 7.23214,3.72471c0,0 2.86364,2.73106 2.13013,4.44674c-0.20341,0.47576 -1.41302,0.70457 -2.23423,0.95079c-0.73559,0.22055 -1.33398,0.53827 -1.86367,1.29223c-0.3071,0.43712 0.33707,1.83121 -0.60303,2.86694c-0.43762,0.48214 -1.00096,0.3597 -1.90418,0.65309c-0.66617,0.21639 -1.69964,0.87179 -2.06534,1.0678c-0.71304,0.38218 -2.67042,2.72143 -2.09355,3.89175c0.52419,1.06344 0.3922,2.28066 0.3922,2.28066c0,0 -3.04896,1.90612 -6.91973,1.09971c-2.68985,-0.56038 -4.4636,-3.42471 -4.4636,-3.42471z" fill="#dcdcdc"></path><path d="M238.6925,174.4718l-2,-4.86666l2.2,0.13333c0,0 -0.54396,1.16789 1.65279,1.16397c0.89532,-0.0016 1.91961,-1.57884 1.91961,-1.57884c0,0 0.679,0.37237 0.79574,0.60028c0.18803,0.3671 -0.77483,3.45115 0.87275,4.96412c1.07598,0.98807 2.90012,0.63693 4.39128,0.9754c0.42706,0.09694 2.27531,-0.35239 2.75493,0.08907c0.24268,0.22338 -0.8074,1.41878 -0.65015,1.51331c0.96657,0.58102 0.72656,1.88388 0.37079,2.54346c-0.17372,0.32208 -1.11772,0.4767 -2.1644,0.22152c-2.35878,-0.57507 -5.74334,-2.2923 -5.74334,-2.2923c0,0 -3.05307,-0.00419 -3.27249,-0.12259c-1.35035,-0.72866 -1.12751,-3.34408 -1.12751,-3.34408z" fill="#d8d8d8"></path><path d="M232.2925,169.73847c0,0 -1.25714,-0.44571 -1.27177,-1.03552c-0.0089,-0.3587 0.27177,-0.69782 0.27177,-0.69782c0,0 2.61547,0.53334 4.46667,0.53334c1.17426,0 3.44058,-0.19943 5.0787,-0.61976c0.79563,-0.20415 1.25503,-0.63273 1.79083,-0.66318c0.02571,-0.00146 -0.05056,-0.46802 -0.12181,-0.9857c-0.07655,-0.55613 -0.41398,-1.50459 -0.34631,-1.6655c0.12906,-0.30688 0.79612,-0.22197 0.75817,-0.48005c-0.03946,-0.26837 0.05108,-0.87664 0.107,-0.98729c0.43136,-0.85346 1.03732,-0.14184 1.23375,0.3323c0.21876,0.52805 0.36839,1.39682 0.4704,2.28027c0.05256,0.45518 0.43677,1.09008 1.38375,1.50894c1.01778,0.45017 0.54355,-0.53404 0.51555,-1.70786c-0.02756,-1.1546 0.08613,-1.89051 0.39771,-2.22475c0.08458,-0.09073 -0.36638,-1.41394 -0.36638,-1.41394l1.94641,-1.02548c0,0 -0.27283,2.02755 -0.0984,3.0138c0.11372,0.64294 0.52771,1.01053 0.57855,1.033c0.54954,0.24296 0.99096,0.30367 0.96437,0.42185c-0.19147,0.8512 -1.48052,4.91887 -1.48052,4.91887l1.75665,0.25772l0.04878,0.95469c0,0 1.54928,1.25865 0.95924,1.44352c-1.90313,0.59626 -7.94929,0.67861 -8.16394,0.30647c-0.1865,-0.32334 3.67735,-0.89619 3.41249,-1.20497c-0.45421,-0.52953 -1.64582,-1.19537 -1.64582,-1.19537l-2.24582,-1.16424z" fill="#cecece"></path><path d="M245.55424,174.63046c-0.24746,-0.24932 -0.28788,-1.08974 -0.21951,-1.18293c0.28255,-0.3851 1.58537,0 1.58537,0c0,0 0.08947,1.02874 -0.17073,1.2561c-0.07981,0.06974 -0.45035,-0.10661 -0.59766,-0.13606c-0.11621,-0.02324 -0.44612,0.21537 -0.59746,0.06289z" fill="#dadada"></path><path d="M246.95668,174.39875c-0.01202,-0.07187 -0.04762,-0.93487 -0.03659,-0.96341c0.09225,-0.2385 0.87721,-0.16526 0.87805,-0.03659c0.00052,0.07978 0.166,1.00296 0.09756,1.07317c-0.16678,0.1711 -0.89902,0.16596 -0.93902,-0.07317z" fill="#dadada"></path><path d="M247.94448,174.36216c-0.01202,-0.07187 -0.16958,-0.93488 -0.15854,-0.96341c0.58005,-0.36045 1.02355,-0.14087 1.02439,-0.01219c0.00052,0.07978 0.14161,0.97857 0.07317,1.04878c-0.16678,0.1711 -0.89902,0.16596 -0.93902,-0.07317z" fill="#dadada"></path><path d="M248.97802,174.37415c-0.01816,-0.07303 -0.2619,-0.93675 -0.25282,-0.96703c0.33657,-0.62505 0.90573,-0.22604 0.91693,-0.09361c0.00694,0.0821 0.22711,0.95836 0.16228,1.03615c-0.15798,0.18957 -0.76598,0.2675 -0.82638,0.02449z" fill="#dadada"></path><path d="M250.97321,174.10072c-0.01816,-0.07304 -0.35401,-1.05518 -0.34493,-1.08545c0.52079,-0.92768 0.8531,-0.42341 0.86429,-0.29098c0.00695,0.0821 0.33237,1.22152 0.26754,1.29931c-0.15797,0.18956 -0.72651,0.18855 -0.78691,0.07712z" fill="#dadada"></path><path d="M250.01268,174.17967c-0.01816,-0.07304 -0.47243,-0.85781 -0.46335,-0.88808c0.33658,-0.62505 1.12941,-0.26551 1.14061,-0.13309c0.00695,0.0821 0.24026,0.80047 0.17544,0.87826c-0.15797,0.18956 -0.7923,0.38592 -0.8527,0.14291z" fill="#dadada"></path></g><g><path d="M231.57406,158.13067l-0.56919,-5.86425l5.33211,-2.01342l8.05637,6.87872c0,0 -9.19007,3.11321 -10.50521,2.84533c-0.97603,-0.19881 -2.31408,-1.84638 -2.31408,-1.84638z" fill="#1b1b1b"></path><path d="M222.22301,165.19245l-0.56919,-5.86425l5.33211,-2.01342l2.41848,9.34045c0,0 -3.55217,0.65148 -4.86731,0.3836c-0.97603,-0.19881 -2.31408,-1.84638 -2.31408,-1.84638z" fill="#1b1b1b"></path><path d="M228.19937,157.31698l0.45494,-3.33454l5.28798,-1.36919c0,0 1.97156,-0.77998 3.0262,-0.42106c0.53129,0.18081 0.6152,1.49326 0.5314,1.63562c-0.18782,0.31907 -2.56943,0.41391 -4.03269,0.81526c-0.51263,0.14061 0.28237,1.47176 0.28237,1.47176c0,0 1.42605,-0.03065 2.09168,-0.66379c0.7526,-0.71586 0.15781,-1.54039 0.63054,-1.39319c0.43122,0.13428 1.17566,-3.98056 1.55311,-3.5504c0.27779,0.31658 1.83333,0.07344 2.00926,0.95986c0.43386,2.18596 -0.76872,6.27712 -0.9381,6.35208c-0.54634,0.24176 -10.8967,-0.50242 -10.8967,-0.50242z" fill="#212121"></path><path d="M223.06717,152.15961c0,0 2.17518,-1.56497 3.56487,-2.12385c1.54006,-0.61935 5.27079,-1.42953 5.27079,-1.42953c0,0 4.0023,-0.34957 5.59213,-0.15848c1.06391,0.12788 3.12584,0.01619 4.28475,0.58629c0.68559,0.33727 1.76293,1.14616 1.76293,1.14616l-3.47046,0.65775l-10.74732,2.04345l-3.21182,3.09955l-2.53066,-0.79423z" fill="#1b1b1b"></path><path d="M230.90382,153.50545l-2.39899,3.58229c0,0 3.97433,0.66085 8.20311,0.59486c2.34646,-0.03662 5.68109,-0.93234 5.68109,-0.93234c0,0 -0.0518,-1.76864 0.18462,-2.02306c0.05379,-0.05789 2.84317,-2.50532 3.8432,-2.36326c0.6699,0.09516 2.47799,2.23781 2.47799,2.23781c0,0 -0.23263,2.62316 -0.26182,2.71639c-0.38336,1.22438 -4.10577,1.81265 -4.10577,1.81265c0,0 -1.6016,2.1245 -2.94066,2.40339c-1.45718,0.30349 -7.33322,-0.07596 -7.33322,-0.07596l-3.88852,2.34605l0.37782,1.71212l-2.16635,2.59385c0,0 -3.68171,0.90979 -4.16131,-0.20069c-0.09532,-0.22072 3.33544,-0.98188 3.33544,-0.98188l1.6046,-1.77059l-1.07875,-3.40541l-3.96493,-1.03944l-0.14815,-1.87559l3.9823,-5.70601l1.25231,-0.55358l9.29808,-1.56377l0.12046,1.07621z" fill="#000000"></path><path d="M220.96546,159.9283l2.22349,-5.05807l2.70532,-0.75321l0.49905,1.92739l-2.40475,3.13344l0.40288,1.40838c0,0 3.86465,0.74258 4.16151,1.27431c0.52572,0.94164 1.00732,3.41289 1.00732,3.41289l-1.7851,1.74059l-3.35714,0.75985c0,0 -2.35229,-1.28221 -2.5357,-3.17366c-0.01795,-0.18513 2.48757,2.02452 2.48757,2.02452c0,0 1.32125,-0.28745 2.13654,-0.81952c0.41677,-0.27199 0.44403,-0.73367 0.40419,-0.76638c-1.10987,-0.91132 -2.59671,-2.28265 -3.15352,-2.59644c-0.92582,-0.52176 -2.36568,-0.6563 -2.36568,-0.6563z" fill="#222222"></path><path d="M239.78977,152.9976l-0.51362,-2.18729c0,0 2.85707,-0.73601 3.95466,-0.86498c0.42664,-0.05013 10.54315,-0.77952 10.54315,-0.77952l-0.36271,1.04312c0,0 -8.83714,3.25637 -9.49147,3.4527c-0.48863,0.14661 -2.90021,3.96507 -2.90021,3.96507l-4.1785,-0.7623z" fill="#1f1f1f"></path></g></g></g></svg>