<svg version="1.1" xmlns="http://www.w3.org/2000/svg" xmlns:xlink="http://www.w3.org/1999/xlink" width="169.69326" height="131.05203" viewBox="0,0,169.69326,131.05203"><defs><linearGradient x1="342.52293" y1="130.00588" x2="363.05379" y2="130.00588" gradientUnits="userSpaceOnUse" id="color-1"><stop offset="0" stop-color="#000000"></stop><stop offset="1" stop-color="#2d2d2d"></stop></linearGradient><linearGradient x1="329.25095" y1="108.91267" x2="334.40853" y2="106.6156" gradientUnits="userSpaceOnUse" id="color-2"><stop offset="0" stop-color="#4a4a4a"></stop><stop offset="1" stop-color="#313131"></stop></linearGradient><linearGradient x1="303.85648" y1="148.48361" x2="318.22808" y2="148.48361" gradientUnits="userSpaceOnUse" id="color-3"><stop offset="0" stop-color="#7f7f7f"></stop><stop offset="1" stop-color="#bbbbbb"></stop></linearGradient><linearGradient x1="302.14556" y1="144.12083" x2="305.39628" y2="144.12083" gradientUnits="userSpaceOnUse" id="color-4"><stop offset="0" stop-color="#bbbbbb"></stop><stop offset="1" stop-color="#7f7f7f"></stop></linearGradient><linearGradient x1="311.04229" y1="143.77866" x2="314.29294" y2="143.77866" gradientUnits="userSpaceOnUse" id="color-5"><stop offset="0" stop-color="#bbbbbb"></stop><stop offset="1" stop-color="#7f7f7f"></stop></linearGradient><linearGradient x1="306.765" y1="145.14738" x2="310.01572" y2="145.14738" gradientUnits="userSpaceOnUse" id="color-6"><stop offset="0" stop-color="#bbbbbb"></stop><stop offset="1" stop-color="#7f7f7f"></stop></linearGradient><linearGradient x1="328.83565" y1="134.28314" x2="351.76182" y2="134.28314" gradientUnits="userSpaceOnUse" id="color-7"><stop offset="0" stop-color="#000000"></stop><stop offset="1" stop-color="#313131"></stop></linearGradient><linearGradient x1="325.41384" y1="103.82905" x2="332.94185" y2="103.82905" gradientUnits="userSpaceOnUse" id="color-8"><stop offset="0" stop-color="#000000"></stop><stop offset="1" stop-color="#313131"></stop></linearGradient></defs><g transform="translate(-209.45998,-79.87167)"><g data-paper-data="{&quot;isPaintingLayer&quot;:true}" fill-rule="nonzero" stroke-linecap="butt" stroke-linejoin="miter" stroke-miterlimit="10" stroke-dasharray="" stroke-dashoffset="0" style="mix-blend-mode: normal"><path d="M265.25118,180.8986c0,13.68291 -11.31403,24.77509 -25.2706,24.77509c-13.95657,0 -25.2706,-11.09219 -25.2706,-24.77509c0,-13.68291 11.31403,-24.77509 25.2706,-24.77509c13.95657,0 25.2706,11.09219 25.2706,24.77509z" fill="none" stroke="#000000" stroke-width="10.5"></path><path d="M288.28722,169.10005c0,0 -3.1499,-6.57469 -2.90921,-10.42587c0.26934,-4.30951 4.44902,-14.21116 4.44902,-14.21116c0,0 -1.93808,-12.50337 -0.82389,-13.18478c3.18618,-1.94858 21.52583,0.52408 21.52583,0.52408v40.89061z" fill="#464646" stroke="none" stroke-width="0"></path><path d="M295.64412,147.88484l2.90854,-13.00287l20.32458,-6.33035c0,0 3.08838,13.43466 3.76157,19.1261c0.56087,4.74188 0.00242,12.69672 0.00242,12.69672c0,0 -11.88572,12.13335 -14.27966,11.02585c-1.38812,-0.64217 -9.64299,-1.29216 -9.64299,-1.29216z" fill="#000000" stroke="none" stroke-width="0"></path><path d="M343.72057,132.99998l-16.11324,16.09426l-3.85028,-0.31966c0,0 5.38135,-10.00895 8.26151,-13.51458c3.02577,-3.68285 9.47781,-8.07709 9.47781,-8.07709l22.92612,0.17109c0,0 5.27364,2.75322 7.76578,4.43218c2.41573,1.62747 6.96497,5.49192 6.96497,5.49192l-3.99944,-0.30619l-11.24458,-5.51174z" fill="url(#color-1)" stroke="none" stroke-width="0"></path><path d="M332.89367,116.23937l-5.7456,-10.37614l5.15758,-1.6127l3.69253,11.23158z" fill="url(#color-2)" stroke="none" stroke-width="0"></path><path d="M299.6785,159.47431c0,4.11034 -3.4087,7.44243 -7.61353,7.44243c-4.20483,0 -7.61353,-3.33209 -7.61353,-7.44243c0,-4.11034 3.4087,-7.44243 7.61353,-7.44243c4.20483,0 7.61353,3.33209 7.61353,7.44243z" fill="#141414" stroke="none" stroke-width="0"></path><path d="M252.38902,126.66425c0,0 -23.00988,-5.52745 -22.79444,-6.22142c0.14127,-0.45503 24.4746,0.75191 24.4746,0.75191l36.10199,8.14242c0,0 10.75457,0.7242 18.42397,-2.37228c5.41593,-2.18665 8.26136,-6.62574 12.71387,-7.8184c4.45958,-1.19456 6.59179,1.47016 6.60478,1.7185c0.08127,1.55403 -36.2679,18.58208 -36.2679,18.58208l-2.16376,-6.57623l-24.60479,-3.71985l30.7668,17.87841l-0.1064,2.60874z" fill="#292929" stroke="none" stroke-width="0"></path><path d="M290.68253,129.74923c0,0 -14.60885,-3.38867 -21.0533,-4.92307c-5.31141,-1.26463 -15.56005,-3.63145 -15.56005,-3.63145c0,0 24.37917,2.35191 35.59131,2.25976c9.20565,-0.07567 28.56759,-2.94412 28.56759,-2.94412c0,0 -6.94014,5.81034 -11.46306,7.35689c-4.52292,1.54655 -16.0825,1.88199 -16.0825,1.88199z" fill="#6c778a" stroke="none" stroke-width="0"></path><path d="M238.40281,183.93066v-6.84362l41.91715,-17.62231c0,0 7.37237,4.1022 8.31846,6.09996c0.5889,1.24351 0.5332,5.10472 0.5332,5.10472l-10.90475,-5.2165z" fill="#292929" stroke="none" stroke-width="0"></path><path d="M300.26358,150.45119l-1.19763,-14.20051l15.39814,-3.25072l3.76399,24.80811z" fill="url(#color-3)" stroke="none" stroke-width="0"></path><path d="M302.14556,151.64882v-15.05596h3.25072v15.05596z" fill="url(#color-4)" stroke="none" stroke-width="0"></path><path d="M311.04229,154.55737v-21.5574h3.25072v21.5574z" fill="url(#color-5)" stroke="none" stroke-width="0"></path><path d="M306.765,154.04406v-17.79341h3.25072v17.79341z" fill="url(#color-6)" stroke="none" stroke-width="0"></path><path d="M288.01676,170.35474l0.17109,-4.67615l22.48175,4.44835l5.92441,-7.00159c0,0 -19.04182,-11.78453 -21.1234,-13.59764c-1.68775,-1.47009 -4.95256,-14.16257 -4.95256,-14.16257l42.18659,-19.03821c0,0 3.63729,8.65189 4.5489,10.33798c0.30878,0.57111 -0.74866,2.17339 -0.74866,2.17339l-35.40587,10.45455l1.01246,8.92886c0,0 23.31808,11.77429 22.77671,12.85702c-0.75767,1.51533 -12.33355,13.89543 -12.33355,13.89543z" fill="#292929" stroke="none" stroke-width="0"></path><path d="M350.22201,161.22985l-21.38631,-51.8404l4.79054,-2.05309l18.13559,45.16788z" fill="url(#color-7)" stroke="none" stroke-width="0"></path><path d="M332.94185,103.82905c0,2.03155 -1.68519,3.67844 -3.76399,3.67844c-2.0788,0 -3.76399,-1.6469 -3.76399,-3.67844c0,-2.03155 1.68519,-3.67845 3.76399,-3.67845c2.0788,0 3.76399,1.6469 3.76399,3.67845z" fill="url(#color-8)" stroke="none" stroke-width="0"></path><path d="M321.53171,105.39796l-0.07153,-3.82806l4.98099,-4.01451l4.00746,0.43474l2.47474,3.32113c0,0 -3.84432,-0.99392 -5.17341,-0.47294c-1.23137,0.48267 -2.75103,1.7927 -3.75939,3.06906c-0.6968,0.88201 -1.22403,1.4322 -1.22403,1.4322z" data-paper-data="{&quot;index&quot;:null}" fill="#383838" stroke="#000000" stroke-width="0.25"></path><path d="M289.78411,87.58595l31.7395,13.78231l-0.30074,4.0378l-16.29323,-5.14895l-21.44226,-6.54204z" data-paper-data="{&quot;index&quot;:null}" fill="#d89856" stroke="#000000" stroke-width="0.25"></path><path d="M290.0792,97.24147c0,0 -8.12387,-1.56723 -9.0832,-5.66769c-0.52523,-2.24496 1.16199,-3.58304 2.22799,-4.50871c0.88108,-0.76508 2.54898,-1.10494 4.10114,-1.21616c3.43012,-0.24577 8.652,3.16412 8.652,3.16412z" data-paper-data="{&quot;index&quot;:null}" fill="#afafaf" stroke="#000000" stroke-width="0.25"></path><path d="M292.68933,172.20505l2.83727,-9.34184l15.373,9.50231l-1.4933,4.91675z" fill="#636363" stroke="#000000" stroke-width="0.25"></path><path d="M265.24348,84.05981l7.90697,-4.05107c0,0 12.0163,4.76412 12.02159,4.84136c0.17987,2.62707 0.67311,8.11999 0.19148,13.44596c-0.84444,9.33798 -2.46186,19.27469 1.90678,20.31563c2.96877,0.70739 -20.05202,3.29898 -20.05202,3.29898c0,0 -4.64259,-16.64263 -4.38036,-23.62992c0.02049,-0.5459 2.40556,-14.22094 2.40556,-14.22094z" fill="#afafaf" stroke="#000000" stroke-width="0.25"></path><path d="M268.66651,91.26538l-22.36536,1.53614l-17.03479,1.34056l0.61791,-4.00155l34.03051,-6.26679z" data-paper-data="{&quot;index&quot;:null}" fill="#d89856" stroke="#000000" stroke-width="0.25"></path><path d="M257.43627,83.84702c0,0 5.85652,-2.14397 9.14278,-1.13071c1.48705,0.45851 3.0353,1.16588 3.72107,2.11c0.8297,1.1423 2.17156,2.82651 1.15341,4.8951c-1.85964,3.77834 -10.12764,3.47247 -10.12764,3.47247z" data-paper-data="{&quot;index&quot;:null}" fill="#afafaf" stroke="#000000" stroke-width="0.25"></path><path d="M302.17222,132.40204c-0.14486,15.09928 -0.27125,31.35254 -0.21171,34.06811c0.01673,0.76301 -6.44896,-3.77734 -6.44896,-3.77734l-3.55187,-28.72161c0,0 10.24426,-4.87362 10.21255,-1.56915z" fill="#d89856" stroke="#000000" stroke-width="0.25"></path><path d="M265.85806,122.49597c0,0 19.11826,-10.00745 21.43928,-3.34795c1.0044,2.88187 12.61483,4.333 15.27957,11.31031c2.66475,6.97731 -9.06948,4.95004 -9.06948,4.95004z" fill="#333333" stroke="#000000" stroke-width="0.25"></path><path d="M228.03474,94.47357c0,0 -0.70304,0.12718 -1.52514,-0.63939c-0.13111,-0.12225 -0.51912,-1.83801 -0.69903,-2.36328c-0.71166,-2.0778 -1.43325,-5.1249 -1.43325,-5.1249l-0.48384,-3.05716l1.90811,2.89422l0.93673,2.47534l2.90999,1.22236l1.17681,3.7949z" data-paper-data="{&quot;index&quot;:null}" fill="#383838" stroke="#000000" stroke-width="0.25"></path><path d="M341.60712,128.3805l-8.04124,-19.50431l2.19461,-0.16123c0,0 6.37726,5.26411 7.24489,8.52432c0.99647,3.74429 3.0501,9.94359 3.0501,9.94359z" fill="#292929" stroke="none" stroke-width="0"></path></g></g></svg>