<svg version="1.1" xmlns="http://www.w3.org/2000/svg" xmlns:xlink="http://www.w3.org/1999/xlink" width="98.29376" height="87.39404" viewBox="0,0,98.29376,87.39404"><defs><radialGradient cx="324.3934" cy="143.85617" r="9.19586" gradientUnits="userSpaceOnUse" id="color-1"><stop offset="0" stop-color="#888888"></stop><stop offset="1" stop-color="#6f6f6f"></stop></radialGradient><radialGradient cx="317.81363" cy="115.27105" r="5.43425" gradientUnits="userSpaceOnUse" id="color-2"><stop offset="0" stop-color="#1b1b1b"></stop><stop offset="1" stop-color="#161616"></stop></radialGradient></defs><g transform="translate(-238.24116,-98.43965)"><g data-paper-data="{&quot;isPaintingLayer&quot;:true}" fill-rule="nonzero" stroke-linecap="butt" stroke-linejoin="miter" stroke-miterlimit="10" stroke-dasharray="" stroke-dashoffset="0" style="mix-blend-mode: normal"><path d="M301.17651,149.17505c-0.64931,1.0473 -13.15076,24.3366 -15.60804,24.5699c-1.83923,0.17462 -5.3758,-3.754 -5.71237,-5.61624c-0.49292,-2.72734 14.08116,-22.77412 14.08116,-22.77412c0,0 5.37076,-1.95546 6.75321,-0.57474c0.37332,0.37286 1.74051,2.37179 0.48604,4.39519z" data-paper-data="{&quot;index&quot;:null}" fill="#2d2d2d" stroke="#000000" stroke-width="0.25"></path><path d="M333.02601,164.90365l-14.34961,-28.45374l3.07134,-1.568l14.60344,29.30985z" data-paper-data="{&quot;index&quot;:null}" fill="url(#color-1)" stroke="#000000" stroke-width="0.25"></path><path d="M322.01646,135.29801c0,0 -6.81333,2.21807 -13.05296,9.56679c-9.61629,11.3256 -24.89965,38.12025 -24.89965,38.12025c0,0 -1.01643,1.43525 -4.83936,1.5163c-0.87204,0.01848 -40.53852,-1.92651 -40.53852,-1.92651l-0.16739,-4.26858c0,0 2.78995,-0.17078 2.88205,-0.37887c0.12578,-0.28421 0.22468,2.68109 0.22468,2.68109c0,0 40.02117,0.54617 39.97534,0.53089c-0.7926,-0.2642 15.37238,-27.24858 24.68112,-41.04198c3.27657,-4.85511 7.11356,-7.67309 7.11356,-7.67309l-43.00755,20.41901l-28.82543,25.22809l-2.95979,0.263l30.76758,-27.74827c0,0 43.70233,-22.33321 45.73079,-23.9154c0.98759,-0.77033 2.66242,-1.48815 2.66242,-1.48815l4.25308,10.11545z" data-paper-data="{&quot;index&quot;:null}" fill="#232323" stroke="#000000" stroke-width="0.25"></path><path d="M279.85053,181.04964l-15.2801,-40.91096l2.02086,0.09987l14.93526,40.79601z" data-paper-data="{&quot;index&quot;:null}" fill="#232323" stroke="#000000" stroke-width="0.25"></path><path d="M255.42191,140.54587c-0.53447,-0.41895 0.16374,-3.97474 2.02069,-4.8086c1.85695,-0.83386 4.63981,0.56834 7.30493,0.62097c3.4221,0.06758 10.32455,-0.70443 11.53039,-0.24902c1.57513,0.59489 1.09379,2.12808 0.00821,2.79044c-1.08559,0.66237 -2.58208,0.11405 -5.34125,0.46349c-0.76845,0.09732 -1.67754,1.98034 -2.91956,2.15134c-1.52129,0.20945 -2.86679,0.99022 -4.59557,1.00472c-3.89486,0.03269 -7.38976,-1.48886 -8.00784,-1.97335z" data-paper-data="{&quot;index&quot;:null}" fill="#383838" stroke="none" stroke-width="0"></path><path d="M317.28481,122.22972l0.3793,3.06956l-3.13178,1.9453l-0.64987,-5.00283c0,0 -0.41774,0.06417 -0.54354,-0.22972c-0.20261,-0.47337 -0.35932,-1.07056 -0.25201,-1.36325c0.20808,-0.5675 4.34123,-1.86965 5.41138,-1.75152c1.07014,0.11812 1.3151,2.17713 0.94678,2.5912c-0.14377,0.16164 -2.16027,0.74126 -2.16027,0.74126z" data-paper-data="{&quot;index&quot;:null}" fill="#101010" stroke="#000000" stroke-width="0.25"></path><path d="M317.12104,120.75857l-0.58604,-4.20888l2.9835,-0.05328l-0.137,4.20888z" data-paper-data="{&quot;index&quot;:null}" fill="url(#color-2)" stroke="#000000" stroke-width="0.25"></path><path d="M318.15472,117.85643c-0.89483,0 -1.62024,-0.7254 -1.62024,-1.62023c0,-0.89483 0.72541,-1.62024 1.62024,-1.62024c0.89483,0 1.62024,0.72541 1.62024,1.62024c0,0.89483 -0.72541,1.62023 -1.62024,1.62023z" data-paper-data="{&quot;index&quot;:null}" fill="#0c0c0c" stroke="#000000" stroke-width="0.25"></path><path d="M310.76941,117.41442l-0.15455,-3.98664l5.93261,-2.39386l3.7082,1.58051l1.29823,3.62927c0,0 -3.20345,-1.9866 -4.62657,-1.87435c-1.31849,0.10401 -3.23477,1.10208 -4.57053,2.03035c-0.92305,0.64147 -1.5874,1.01471 -1.5874,1.01471z" fill="#383838" stroke="#000000" stroke-width="0.25"></path><path d="M256.37289,134.07456c0,0 0.75117,-13.94128 2.88961,-18.1562c0.16033,-0.31602 3.38612,-5.08834 7.91542,-9.4559c5.567,-5.3682 13.35077,-7.88296 13.35077,-7.88296l6.00612,4.89849c0,0 6.98854,6.49967 4.97487,8.11815c-0.25353,0.20377 -0.51675,0.40776 -0.78809,0.6088c-5.82542,4.31593 -15.38989,11.70273 -13.06887,18.36223c1.0044,2.88187 -21.27983,3.5074 -21.27983,3.5074z" fill="#afafaf" stroke="#000000" stroke-width="0.25"></path><path d="M285.39143,109.01548l12.70458,6.92901l12.47128,-2.58326l0.41208,3.9831l-13.63277,4.57917l-18.50076,-7.43277z" fill="#d89856" stroke="#000000" stroke-width="0.25"></path><path d="M283.42525,117.6417c0,0 -4.82866,-1.41649 -5.92528,-5.48237c-0.6004,-2.22603 1.04089,-3.62007 2.07517,-4.58106c0.85486,-0.79427 2.5104,-1.19001 4.05794,-1.35334c3.41993,-0.36094 7.59765,5.44328 7.59765,5.44328z" fill="#afafaf" stroke="#000000" stroke-width="0.25"></path><path d="M293.06899,143.63099c-0.14486,15.09928 -0.27125,31.35254 -0.21171,34.06811c0.01673,0.76301 -6.44896,-3.77734 -6.44896,-3.77734l-3.55187,-28.72161c0,0 10.24426,-4.87362 10.21255,-1.56915z" fill="#d89856" stroke="#000000" stroke-width="0.25"></path><path d="M256.57613,134.07455c0,0 19.11826,-10.00745 21.43928,-3.34795c1.0044,2.88187 12.61483,4.333 15.27957,11.31031c2.66475,6.97731 -9.06948,4.95004 -9.06948,4.95004z" fill="#333333" stroke="#000000" stroke-width="0.25"></path><path d="M282.90398,180.60053l2.83727,-9.34184l15.373,9.50231l-1.4933,4.91675z" fill="#636363" stroke="#000000" stroke-width="0.25"></path></g></g></svg>