<svg version="1.1" xmlns="http://www.w3.org/2000/svg" xmlns:xlink="http://www.w3.org/1999/xlink" width="56.63378" height="56.63378" viewBox="0,0,56.63378,56.63378"><defs><radialGradient cx="250.62618" cy="175.25284" r="6.62275" gradientUnits="userSpaceOnUse" id="color-1"><stop offset="0" stop-color="#2d2d2d"></stop><stop offset="1" stop-color="#000000"></stop></radialGradient><radialGradient cx="250.34395" cy="173.6239" r="6.62274" gradientUnits="userSpaceOnUse" id="color-2"><stop offset="0" stop-color="#2d2d2d"></stop><stop offset="1" stop-color="#000000"></stop></radialGradient><radialGradient cx="251.11555" cy="174.68494" r="6.62275" gradientUnits="userSpaceOnUse" id="color-3"><stop offset="0" stop-color="#2d2d2d"></stop><stop offset="1" stop-color="#000000"></stop></radialGradient><radialGradient cx="249.73608" cy="173.77386" r="6.62274" gradientUnits="userSpaceOnUse" id="color-4"><stop offset="0" stop-color="#2d2d2d"></stop><stop offset="1" stop-color="#000000"></stop></radialGradient><radialGradient cx="251.55245" cy="183.33399" r="6.62275" gradientUnits="userSpaceOnUse" id="color-5"><stop offset="0" stop-color="#2d2d2d"></stop><stop offset="1" stop-color="#000000"></stop></radialGradient><radialGradient cx="252.36711" cy="181.89546" r="6.62275" gradientUnits="userSpaceOnUse" id="color-6"><stop offset="0" stop-color="#2d2d2d"></stop><stop offset="1" stop-color="#000000"></stop></radialGradient><radialGradient cx="252.29094" cy="183.20517" r="6.62275" gradientUnits="userSpaceOnUse" id="color-7"><stop offset="0" stop-color="#2d2d2d"></stop><stop offset="1" stop-color="#000000"></stop></radialGradient><radialGradient cx="251.80199" cy="181.62597" r="6.62274" gradientUnits="userSpaceOnUse" id="color-8"><stop offset="0" stop-color="#2d2d2d"></stop><stop offset="1" stop-color="#000000"></stop></radialGradient><radialGradient cx="246.39535" cy="189.97718" r="6.62275" gradientUnits="userSpaceOnUse" id="color-9"><stop offset="0" stop-color="#2d2d2d"></stop><stop offset="1" stop-color="#000000"></stop></radialGradient><radialGradient cx="247.9926" cy="189.55074" r="6.62275" gradientUnits="userSpaceOnUse" id="color-10"><stop offset="0" stop-color="#2d2d2d"></stop><stop offset="1" stop-color="#000000"></stop></radialGradient><radialGradient cx="247.00462" cy="190.41392" r="6.62275" gradientUnits="userSpaceOnUse" id="color-11"><stop offset="0" stop-color="#2d2d2d"></stop><stop offset="1" stop-color="#000000"></stop></radialGradient><radialGradient cx="247.789" cy="188.95867" r="6.62274" gradientUnits="userSpaceOnUse" id="color-12"><stop offset="0" stop-color="#2d2d2d"></stop><stop offset="1" stop-color="#000000"></stop></radialGradient><radialGradient cx="238.60143" cy="191.53595" r="6.62275" gradientUnits="userSpaceOnUse" id="color-13"><stop offset="0" stop-color="#2d2d2d"></stop><stop offset="1" stop-color="#000000"></stop></radialGradient><radialGradient cx="240.16462" cy="192.07394" r="6.62275" gradientUnits="userSpaceOnUse" id="color-14"><stop offset="0" stop-color="#2d2d2d"></stop><stop offset="1" stop-color="#000000"></stop></radialGradient><radialGradient cx="238.86306" cy="192.23845" r="6.62275" gradientUnits="userSpaceOnUse" id="color-15"><stop offset="0" stop-color="#2d2d2d"></stop><stop offset="1" stop-color="#000000"></stop></radialGradient><radialGradient cx="240.32629" cy="191.46908" r="6.62275" gradientUnits="userSpaceOnUse" id="color-16"><stop offset="0" stop-color="#2d2d2d"></stop><stop offset="1" stop-color="#000000"></stop></radialGradient><radialGradient cx="231.31315" cy="187.742" r="6.62275" gradientUnits="userSpaceOnUse" id="color-17"><stop offset="0" stop-color="#2d2d2d"></stop><stop offset="1" stop-color="#000000"></stop></radialGradient><radialGradient cx="232.20059" cy="189.13682" r="6.62275" gradientUnits="userSpaceOnUse" id="color-18"><stop offset="0" stop-color="#2d2d2d"></stop><stop offset="1" stop-color="#000000"></stop></radialGradient><radialGradient cx="231.08006" cy="188.45448" r="6.62275" gradientUnits="userSpaceOnUse" id="color-19"><stop offset="0" stop-color="#2d2d2d"></stop><stop offset="1" stop-color="#000000"></stop></radialGradient><radialGradient cx="232.70391" cy="188.76446" r="6.62275" gradientUnits="userSpaceOnUse" id="color-20"><stop offset="0" stop-color="#2d2d2d"></stop><stop offset="1" stop-color="#000000"></stop></radialGradient><radialGradient cx="228.52164" cy="180.80951" r="6.62275" gradientUnits="userSpaceOnUse" id="color-21"><stop offset="0" stop-color="#2d2d2d"></stop><stop offset="1" stop-color="#000000"></stop></radialGradient><radialGradient cx="228.25972" cy="182.44183" r="6.62275" gradientUnits="userSpaceOnUse" id="color-22"><stop offset="0" stop-color="#2d2d2d"></stop><stop offset="1" stop-color="#000000"></stop></radialGradient><radialGradient cx="227.8744" cy="181.18776" r="6.62275" gradientUnits="userSpaceOnUse" id="color-23"><stop offset="0" stop-color="#2d2d2d"></stop><stop offset="1" stop-color="#000000"></stop></radialGradient><radialGradient cx="228.88333" cy="182.49735" r="6.62275" gradientUnits="userSpaceOnUse" id="color-24"><stop offset="0" stop-color="#2d2d2d"></stop><stop offset="1" stop-color="#000000"></stop></radialGradient><radialGradient cx="230.37029" cy="172.88506" r="6.62274" gradientUnits="userSpaceOnUse" id="color-25"><stop offset="0" stop-color="#2d2d2d"></stop><stop offset="1" stop-color="#000000"></stop></radialGradient><radialGradient cx="229.14725" cy="173.99735" r="6.62275" gradientUnits="userSpaceOnUse" id="color-26"><stop offset="0" stop-color="#2d2d2d"></stop><stop offset="1" stop-color="#000000"></stop></radialGradient><radialGradient cx="229.62848" cy="172.77686" r="6.62275" gradientUnits="userSpaceOnUse" id="color-27"><stop offset="0" stop-color="#2d2d2d"></stop><stop offset="1" stop-color="#000000"></stop></radialGradient><radialGradient cx="229.59998" cy="174.42981" r="6.62275" gradientUnits="userSpaceOnUse" id="color-28"><stop offset="0" stop-color="#2d2d2d"></stop><stop offset="1" stop-color="#000000"></stop></radialGradient><radialGradient cx="237.39343" cy="168.50957" r="6.62274" gradientUnits="userSpaceOnUse" id="color-29"><stop offset="0" stop-color="#2d2d2d"></stop><stop offset="1" stop-color="#000000"></stop></radialGradient><radialGradient cx="235.74068" cy="168.47162" r="6.62275" gradientUnits="userSpaceOnUse" id="color-30"><stop offset="0" stop-color="#2d2d2d"></stop><stop offset="1" stop-color="#000000"></stop></radialGradient><radialGradient cx="236.93086" cy="167.91964" r="6.62275" gradientUnits="userSpaceOnUse" id="color-31"><stop offset="0" stop-color="#2d2d2d"></stop><stop offset="1" stop-color="#000000"></stop></radialGradient><radialGradient cx="235.77029" cy="169.09699" r="6.62275" gradientUnits="userSpaceOnUse" id="color-32"><stop offset="0" stop-color="#2d2d2d"></stop><stop offset="1" stop-color="#000000"></stop></radialGradient><radialGradient cx="245.42426" cy="169.76595" r="6.62274" gradientUnits="userSpaceOnUse" id="color-33"><stop offset="0" stop-color="#2d2d2d"></stop><stop offset="1" stop-color="#000000"></stop></radialGradient><radialGradient cx="244.09977" cy="168.77663" r="6.62275" gradientUnits="userSpaceOnUse" id="color-34"><stop offset="0" stop-color="#2d2d2d"></stop><stop offset="1" stop-color="#000000"></stop></radialGradient><radialGradient cx="245.38948" cy="169.01713" r="6.62275" gradientUnits="userSpaceOnUse" id="color-35"><stop offset="0" stop-color="#2d2d2d"></stop><stop offset="1" stop-color="#000000"></stop></radialGradient><radialGradient cx="243.76125" cy="169.30331" r="6.62275" gradientUnits="userSpaceOnUse" id="color-36"><stop offset="0" stop-color="#2d2d2d"></stop><stop offset="1" stop-color="#000000"></stop></radialGradient><radialGradient cx="240" cy="180" r="19.38392" gradientUnits="userSpaceOnUse" id="color-37"><stop offset="0" stop-color="#ffffff"></stop><stop offset="1" stop-color="#191919"></stop></radialGradient><radialGradient cx="240" cy="180" r="5.27575" gradientUnits="userSpaceOnUse" id="color-38"><stop offset="0" stop-color="#797979"></stop><stop offset="1" stop-color="#b6b6b6"></stop></radialGradient><radialGradient cx="240" cy="180" r="5.27575" gradientUnits="userSpaceOnUse" id="color-39"><stop offset="0" stop-color="#b8b8b8"></stop><stop offset="1" stop-color="#676767"></stop></radialGradient></defs><g transform="translate(-211.68311,-151.68311)"><g data-paper-data="{&quot;isPaintingLayer&quot;:true}" fill-rule="nonzero" stroke-linejoin="miter" stroke-miterlimit="10" stroke-dasharray="" stroke-dashoffset="0" style="mix-blend-mode: normal"><g fill="none" stroke-width="0.5" stroke-linecap="round"><g><path d="M259.86473,175.75818l-16.15203,-0.77507" stroke="url(#color-1)"></path><path d="M259.50244,172.30913l-15.99077,2.40503" stroke="url(#color-2)"></path><path d="M257.8163,168.30481l-11.63614,11.22894" stroke="url(#color-3)"></path><path d="M255.05669,166.20433l-9.21018,13.2914" stroke="url(#color-4)"></path></g><g><path d="M246.37757,178.74166l11.99824,10.84118" stroke="url(#color-5)"></path><path d="M260.28267,186.6861l-13.89001,-8.27989" stroke="url(#color-6)"></path><path d="M245.40003,183.82505l16.11793,-1.30451" stroke="url(#color-7)"></path><path d="M260.71597,179.14651l-15.54981,4.43761" stroke="url(#color-8)"></path></g><g><path d="M246.0471,183.06723l0.66927,16.15676" stroke="url(#color-9)"></path><path d="M246.29705,182.84297l3.82228,15.7124" stroke="url(#color-10)"></path><path d="M241.73481,185.93089l12.22243,10.58779" stroke="url(#color-11)"></path><path d="M241.74288,185.59519l14.06021,7.98746" stroke="url(#color-12)"></path></g><g><path d="M242.17046,185.60883l-8.46538,13.77774" stroke="url(#color-13)"></path><path d="M236.9016,200.73184l5.60145,-15.16947" stroke="url(#color-14)"></path><path d="M241.22275,201.18489l-4.2287,-15.60792" stroke="url(#color-15)"></path><path d="M244.39334,199.77967l-7.20517,-14.47669" stroke="url(#color-16)"></path></g><g><path d="M237.79785,185.33004l-15.20606,5.50136" stroke="url(#color-17)"></path><path d="M238.08691,185.50089l-13.83325,8.37441" stroke="url(#color-18)"></path><path d="M233.769,182.07966l-6.41786,14.84251" stroke="url(#color-19)"></path><path d="M230.70659,197.7987l3.38497,-15.81238" stroke="url(#color-20)"></path></g><g><path d="M234.97302,183.30913l-15.02546,-5.97699" stroke="url(#color-21)"></path><path d="M235.07586,183.62881l-15.9054,-2.9168" stroke="url(#color-22)"></path><path d="M219.46524,185.04684l14.65141,-6.8429" stroke="url(#color-23)"></path><path d="M221.39341,187.92946l13.02646,-9.58126" stroke="url(#color-24)"></path></g><g><path d="M233.8528,178.86339l-8.014,-14.04509" stroke="url(#color-25)"></path><path d="M233.73375,179.17738l-10.61084,-12.20243" stroke="url(#color-26)"></path><path d="M220.64891,170.54665l15.71958,3.7926" stroke="url(#color-27)"></path><path d="M236.51547,174.64117l-16.15801,-0.63875" stroke="url(#color-28)"></path></g><g><path d="M239.67496,159.54289l-3.88248,15.69763" stroke="url(#color-29)"></path><path d="M235.48974,175.38576l0.73117,-16.15408" stroke="url(#color-30)"></path><path d="M231.96621,160.11205l8.76803,13.58714" stroke="url(#color-31)"></path><path d="M229.37194,162.41359l11.26051,11.60559" stroke="url(#color-32)"></path></g><g><path d="M240.21673,174.32124l12.266,-10.53726" stroke="url(#color-33)"></path><path d="M239.88584,174.26401l9.96337,-12.73657" stroke="url(#color-34)"></path><path d="M245.87242,159.77737l-0.73589,16.15387" stroke="url(#color-35)"></path><path d="M242.42424,160.148l2.44379,15.9849" stroke="url(#color-36)"></path></g></g><path d="M220.61607,180c0,-10.70544 8.67848,-19.38392 19.38392,-19.38392c10.70544,0 19.38392,8.67848 19.38392,19.38392c0,10.70544 -8.67848,19.38392 -19.38392,19.38392c-10.70544,0 -19.38392,-8.67848 -19.38392,-19.38392z" fill="none" stroke="url(#color-37)" stroke-width="3" stroke-linecap="butt"></path><path d="M215.93311,180c0,-13.29178 10.77511,-24.06689 24.06689,-24.06689c13.29178,0 24.06689,10.77511 24.06689,24.06689c0,13.29178 -10.77511,24.06689 -24.06689,24.06689c-13.29178,0 -24.06689,-10.77511 -24.06689,-24.06689z" fill="none" stroke="#000000" stroke-width="8.5" stroke-linecap="butt"></path><path d="M234.72425,180c0,-2.91371 2.36203,-5.27575 5.27575,-5.27575c2.91371,0 5.27575,2.36203 5.27575,5.27575c0,2.91371 -2.36203,5.27575 -5.27575,5.27575c-2.91371,0 -5.27575,-2.36203 -5.27575,-5.27575z" fill="url(#color-38)" stroke="url(#color-39)" stroke-width="4.5" stroke-linecap="butt"></path></g></g></svg>