<svg version="1.1" xmlns="http://www.w3.org/2000/svg" xmlns:xlink="http://www.w3.org/1999/xlink" width="68.98777" height="107.74618" viewBox="0,0,68.98777,107.74618"><defs><radialGradient cx="253.02099" cy="174.18298" r="8.11531" gradientUnits="userSpaceOnUse" id="color-1"><stop offset="0" stop-color="#1a3aa2"></stop><stop offset="1" stop-color="#0028ad"></stop></radialGradient><radialGradient cx="252.67516" cy="172.18694" r="8.1153" gradientUnits="userSpaceOnUse" id="color-2"><stop offset="0" stop-color="#1a3aa2"></stop><stop offset="1" stop-color="#0028ad"></stop></radialGradient><radialGradient cx="253.62065" cy="173.48711" r="8.11531" gradientUnits="userSpaceOnUse" id="color-3"><stop offset="0" stop-color="#1a3aa2"></stop><stop offset="1" stop-color="#0028ad"></stop></radialGradient><radialGradient cx="251.93028" cy="172.37068" r="8.1153" gradientUnits="userSpaceOnUse" id="color-4"><stop offset="0" stop-color="#1a3aa2"></stop><stop offset="1" stop-color="#0028ad"></stop></radialGradient><radialGradient cx="254.15603" cy="184.08536" r="8.11531" gradientUnits="userSpaceOnUse" id="color-5"><stop offset="0" stop-color="#1a3aa2"></stop><stop offset="1" stop-color="#0028ad"></stop></radialGradient><radialGradient cx="255.15428" cy="182.32264" r="8.11531" gradientUnits="userSpaceOnUse" id="color-6"><stop offset="0" stop-color="#1a3aa2"></stop><stop offset="1" stop-color="#0028ad"></stop></radialGradient><radialGradient cx="255.06095" cy="183.92753" r="8.11531" gradientUnits="userSpaceOnUse" id="color-7"><stop offset="0" stop-color="#1a3aa2"></stop><stop offset="1" stop-color="#0028ad"></stop></radialGradient><radialGradient cx="254.46178" cy="181.99241" r="8.1153" gradientUnits="userSpaceOnUse" id="color-8"><stop offset="0" stop-color="#1a3aa2"></stop><stop offset="1" stop-color="#0028ad"></stop></radialGradient><radialGradient cx="247.83668" cy="192.22573" r="8.11531" gradientUnits="userSpaceOnUse" id="color-9"><stop offset="0" stop-color="#1a3aa2"></stop><stop offset="1" stop-color="#0028ad"></stop></radialGradient><radialGradient cx="249.79388" cy="191.70318" r="8.11531" gradientUnits="userSpaceOnUse" id="color-10"><stop offset="0" stop-color="#1a3aa2"></stop><stop offset="1" stop-color="#0028ad"></stop></radialGradient><radialGradient cx="248.58324" cy="192.76089" r="8.11531" gradientUnits="userSpaceOnUse" id="color-11"><stop offset="0" stop-color="#1a3aa2"></stop><stop offset="1" stop-color="#0028ad"></stop></radialGradient><radialGradient cx="249.5444" cy="190.97768" r="8.1153" gradientUnits="userSpaceOnUse" id="color-12"><stop offset="0" stop-color="#1a3aa2"></stop><stop offset="1" stop-color="#0028ad"></stop></radialGradient><radialGradient cx="238.28625" cy="194.13578" r="8.11531" gradientUnits="userSpaceOnUse" id="color-13"><stop offset="0" stop-color="#1a3aa2"></stop><stop offset="1" stop-color="#0028ad"></stop></radialGradient><radialGradient cx="240.20173" cy="194.79503" r="8.11531" gradientUnits="userSpaceOnUse" id="color-14"><stop offset="0" stop-color="#1a3aa2"></stop><stop offset="1" stop-color="#0028ad"></stop></radialGradient><radialGradient cx="238.60683" cy="194.99661" r="8.11531" gradientUnits="userSpaceOnUse" id="color-15"><stop offset="0" stop-color="#1a3aa2"></stop><stop offset="1" stop-color="#0028ad"></stop></radialGradient><radialGradient cx="240.39983" cy="194.05385" r="8.11531" gradientUnits="userSpaceOnUse" id="color-16"><stop offset="0" stop-color="#1a3aa2"></stop><stop offset="1" stop-color="#0028ad"></stop></radialGradient><radialGradient cx="229.35542" cy="189.48681" r="8.11531" gradientUnits="userSpaceOnUse" id="color-17"><stop offset="0" stop-color="#1a3aa2"></stop><stop offset="1" stop-color="#0028ad"></stop></radialGradient><radialGradient cx="230.44285" cy="191.19597" r="8.11531" gradientUnits="userSpaceOnUse" id="color-18"><stop offset="0" stop-color="#1a3aa2"></stop><stop offset="1" stop-color="#0028ad"></stop></radialGradient><radialGradient cx="229.06979" cy="190.35985" r="8.11531" gradientUnits="userSpaceOnUse" id="color-19"><stop offset="0" stop-color="#1a3aa2"></stop><stop offset="1" stop-color="#0028ad"></stop></radialGradient><radialGradient cx="231.05962" cy="190.7397" r="8.11531" gradientUnits="userSpaceOnUse" id="color-20"><stop offset="0" stop-color="#1a3aa2"></stop><stop offset="1" stop-color="#0028ad"></stop></radialGradient><radialGradient cx="225.93479" cy="180.99195" r="8.11531" gradientUnits="userSpaceOnUse" id="color-21"><stop offset="0" stop-color="#1a3aa2"></stop><stop offset="1" stop-color="#0028ad"></stop></radialGradient><radialGradient cx="225.61385" cy="182.99215" r="8.11531" gradientUnits="userSpaceOnUse" id="color-22"><stop offset="0" stop-color="#1a3aa2"></stop><stop offset="1" stop-color="#0028ad"></stop></radialGradient><radialGradient cx="225.14168" cy="181.45545" r="8.11531" gradientUnits="userSpaceOnUse" id="color-23"><stop offset="0" stop-color="#1a3aa2"></stop><stop offset="1" stop-color="#0028ad"></stop></radialGradient><radialGradient cx="226.37801" cy="183.06018" r="8.11531" gradientUnits="userSpaceOnUse" id="color-24"><stop offset="0" stop-color="#1a3aa2"></stop><stop offset="1" stop-color="#0028ad"></stop></radialGradient><radialGradient cx="228.20008" cy="171.28158" r="8.1153" gradientUnits="userSpaceOnUse" id="color-25"><stop offset="0" stop-color="#1a3aa2"></stop><stop offset="1" stop-color="#0028ad"></stop></radialGradient><radialGradient cx="226.7014" cy="172.64455" r="8.11531" gradientUnits="userSpaceOnUse" id="color-26"><stop offset="0" stop-color="#1a3aa2"></stop><stop offset="1" stop-color="#0028ad"></stop></radialGradient><radialGradient cx="227.29108" cy="171.14899" r="8.11531" gradientUnits="userSpaceOnUse" id="color-27"><stop offset="0" stop-color="#1a3aa2"></stop><stop offset="1" stop-color="#0028ad"></stop></radialGradient><radialGradient cx="227.25617" cy="173.17447" r="8.11531" gradientUnits="userSpaceOnUse" id="color-28"><stop offset="0" stop-color="#1a3aa2"></stop><stop offset="1" stop-color="#0028ad"></stop></radialGradient><radialGradient cx="236.806" cy="165.92" r="8.1153" gradientUnits="userSpaceOnUse" id="color-29"><stop offset="0" stop-color="#1a3aa2"></stop><stop offset="1" stop-color="#0028ad"></stop></radialGradient><radialGradient cx="234.78077" cy="165.8735" r="8.11531" gradientUnits="userSpaceOnUse" id="color-30"><stop offset="0" stop-color="#1a3aa2"></stop><stop offset="1" stop-color="#0028ad"></stop></radialGradient><radialGradient cx="236.23918" cy="165.19713" r="8.11531" gradientUnits="userSpaceOnUse" id="color-31"><stop offset="0" stop-color="#1a3aa2"></stop><stop offset="1" stop-color="#0028ad"></stop></radialGradient><radialGradient cx="234.81707" cy="166.6398" r="8.11531" gradientUnits="userSpaceOnUse" id="color-32"><stop offset="0" stop-color="#1a3aa2"></stop><stop offset="1" stop-color="#0028ad"></stop></radialGradient><radialGradient cx="246.64672" cy="167.45955" r="8.1153" gradientUnits="userSpaceOnUse" id="color-33"><stop offset="0" stop-color="#1a3aa2"></stop><stop offset="1" stop-color="#0028ad"></stop></radialGradient><radialGradient cx="245.02373" cy="166.24725" r="8.11531" gradientUnits="userSpaceOnUse" id="color-34"><stop offset="0" stop-color="#1a3aa2"></stop><stop offset="1" stop-color="#0028ad"></stop></radialGradient><radialGradient cx="246.6041" cy="166.54196" r="8.11531" gradientUnits="userSpaceOnUse" id="color-35"><stop offset="0" stop-color="#1a3aa2"></stop><stop offset="1" stop-color="#0028ad"></stop></radialGradient><radialGradient cx="244.60892" cy="166.89262" r="8.11531" gradientUnits="userSpaceOnUse" id="color-36"><stop offset="0" stop-color="#1a3aa2"></stop><stop offset="1" stop-color="#0028ad"></stop></radialGradient><radialGradient cx="240.00002" cy="179.99999" r="4.94572" gradientUnits="userSpaceOnUse" id="color-37"><stop offset="0" stop-color="#0015ff"></stop><stop offset="1" stop-color="#002192"></stop></radialGradient><radialGradient cx="240.00003" cy="179.99999" r="26.26904" gradientUnits="userSpaceOnUse" id="color-38"><stop offset="0" stop-color="#0009ff"></stop><stop offset="1" stop-color="#001f88"></stop></radialGradient></defs><g transform="translate(-205.50611,-126.12691)"><g data-paper-data="{&quot;isPaintingLayer&quot;:true}" fill="none" fill-rule="nonzero" stroke-linejoin="miter" stroke-miterlimit="10" stroke-dasharray="" stroke-dashoffset="0" style="mix-blend-mode: normal"><g stroke-width="0.5" stroke-linecap="round"><g><path d="M264.34163,174.80221l-19.79219,-0.94975" stroke="url(#color-1)"></path><path d="M244.30309,173.5229l19.59458,-2.94705" stroke="url(#color-2)"></path><path d="M247.57299,179.42867l14.25855,-13.75958" stroke="url(#color-3)"></path><path d="M247.16416,179.38209l11.28586,-16.28686" stroke="url(#color-4)"></path></g><g><path d="M262.51714,191.74252l-14.70226,-13.28443" stroke="url(#color-5)"></path><path d="M264.85376,188.19293l-17.02038,-10.14591" stroke="url(#color-6)"></path><path d="M266.36743,183.0886l-19.75039,1.5985" stroke="url(#color-7)"></path><path d="M265.38469,178.95416l-19.05424,5.43771" stroke="url(#color-8)"></path></g><g><path d="M247.40995,183.75849l0.8201,19.79798" stroke="url(#color-9)"></path><path d="M247.71622,183.4837l4.6837,19.25347" stroke="url(#color-10)"></path><path d="M242.12579,187.26752l14.97698,12.97394" stroke="url(#color-11)"></path><path d="M242.13568,186.85618l17.22893,9.78758" stroke="url(#color-12)"></path></g><g><path d="M242.65962,186.87288l-10.3732,16.88281" stroke="url(#color-13)"></path><path d="M243.06716,186.81595l-6.86384,18.58819" stroke="url(#color-14)"></path><path d="M236.31661,186.83384l5.18172,19.12545" stroke="url(#color-15)"></path><path d="M236.55449,186.49811l8.82898,17.73927" stroke="url(#color-16)"></path></g><g><path d="M218.66854,193.27245l18.63302,-6.74119" stroke="url(#color-17)"></path><path d="M220.70494,197.00235l16.95082,-10.26174" stroke="url(#color-18)"></path><path d="M224.5005,200.73589l7.86424,-18.18753" stroke="url(#color-19)"></path><path d="M228.61216,201.80996l4.14783,-19.37598" stroke="url(#color-20)"></path></g><g><path d="M233.84012,184.05492l-18.41172,-7.32402" stroke="url(#color-21)"></path><path d="M233.96612,184.44664l-19.48997,-3.57415" stroke="url(#color-22)"></path><path d="M232.79074,177.79916l-17.95337,8.38508" stroke="url(#color-23)"></path><path d="M217.20008,189.71651l15.96221,-11.74057" stroke="url(#color-24)"></path></g><g><path d="M222.64734,161.39683l9.8201,17.21041" stroke="url(#color-25)"></path><path d="M232.32154,178.992l-13.00219,-14.95246" stroke="url(#color-26)"></path><path d="M216.2878,168.41617l19.26227,4.64733" stroke="url(#color-27)"></path><path d="M215.93068,172.65076l19.79951,0.78271" stroke="url(#color-28)"></path></g><g><path d="M239.60172,154.93251l-4.75747,19.23538" stroke="url(#color-29)"></path><path d="M235.36924,154.55117l-0.89595,19.79469" stroke="url(#color-30)"></path><path d="M230.15565,155.62995l10.74407,16.64925" stroke="url(#color-31)"></path><path d="M226.97673,158.45017l13.79827,14.22112" stroke="url(#color-32)"></path></g><g><path d="M240.26559,173.04144l15.03037,-12.91203" stroke="url(#color-33)"></path><path d="M252.06892,157.36432l-12.20879,15.60699" stroke="url(#color-34)"></path><path d="M247.19588,155.21984l-0.90174,19.79443" stroke="url(#color-35)"></path><path d="M245.96515,175.26139l-2.99455,-19.58739" stroke="url(#color-36)"></path></g></g><path d="M235.05429,179.99999c0,-2.73144 2.21428,-4.94573 4.94573,-4.94573c2.73145,0 4.94572,2.21428 4.94572,4.94573c0,2.73144 -2.21427,4.94572 -4.94572,4.94572c-2.73145,0 -4.94573,-2.21427 -4.94573,-4.94572z" stroke="url(#color-37)" stroke-width="7" stroke-linecap="butt"></path><path d="M213.73097,179.99999c0,-14.50799 11.76104,-26.26905 26.26904,-26.26905c14.50799,0 26.26904,11.76105 26.26904,26.26905c0,14.50799 -11.76104,26.26904 -26.26904,26.26904c-14.50799,0 -26.26904,-11.76104 -26.26904,-26.26904z" stroke="url(#color-38)" stroke-width="8" stroke-linecap="butt"></path><path d="M209.83712,233.87309v-22.41475h59.1439v22.41475z" stroke="none" stroke-width="NaN" stroke-linecap="butt"></path><path d="M212.61123,148.54166v-22.41475h59.1439v22.41477z" stroke="none" stroke-width="NaN" stroke-linecap="butt"></path><path d="M269.99388,180c0,16.36765 -13.42872,29.63624 -29.99389,29.63624c-16.56516,0 -29.99388,-13.2686 -29.99388,-29.63624c0,-16.36765 13.42872,-29.63624 29.99388,-29.63624c16.56516,0 29.99389,13.2686 29.99389,29.63624z" stroke="#141413" stroke-width="9" stroke-linecap="butt"></path></g></g></svg>