<svg version="1.1" xmlns="http://www.w3.org/2000/svg" xmlns:xlink="http://www.w3.org/1999/xlink" width="57.04363" height="57.04364" viewBox="0,0,57.04363,57.04364"><defs><radialGradient cx="249.31386" cy="175.51114" r="5.99918" gradientUnits="userSpaceOnUse" id="color-1"><stop offset="0" stop-color="#2d2d2d"></stop><stop offset="1" stop-color="#000000"></stop></radialGradient><radialGradient cx="249.05821" cy="174.03557" r="5.99917" gradientUnits="userSpaceOnUse" id="color-2"><stop offset="0" stop-color="#2d2d2d"></stop><stop offset="1" stop-color="#000000"></stop></radialGradient><radialGradient cx="249.75715" cy="174.99672" r="5.99918" gradientUnits="userSpaceOnUse" id="color-3"><stop offset="0" stop-color="#2d2d2d"></stop><stop offset="1" stop-color="#000000"></stop></radialGradient><radialGradient cx="248.50756" cy="174.17141" r="5.99917" gradientUnits="userSpaceOnUse" id="color-4"><stop offset="0" stop-color="#2d2d2d"></stop><stop offset="1" stop-color="#000000"></stop></radialGradient><radialGradient cx="250.15293" cy="182.8314" r="5.99918" gradientUnits="userSpaceOnUse" id="color-5"><stop offset="0" stop-color="#2d2d2d"></stop><stop offset="1" stop-color="#000000"></stop></radialGradient><radialGradient cx="250.89088" cy="181.52831" r="5.99918" gradientUnits="userSpaceOnUse" id="color-6"><stop offset="0" stop-color="#2d2d2d"></stop><stop offset="1" stop-color="#000000"></stop></radialGradient><radialGradient cx="250.82187" cy="182.71472" r="5.99918" gradientUnits="userSpaceOnUse" id="color-7"><stop offset="0" stop-color="#2d2d2d"></stop><stop offset="1" stop-color="#000000"></stop></radialGradient><radialGradient cx="250.37896" cy="181.2842" r="5.99917" gradientUnits="userSpaceOnUse" id="color-8"><stop offset="0" stop-color="#2d2d2d"></stop><stop offset="1" stop-color="#000000"></stop></radialGradient><radialGradient cx="245.4814" cy="188.8491" r="5.99918" gradientUnits="userSpaceOnUse" id="color-9"><stop offset="0" stop-color="#2d2d2d"></stop><stop offset="1" stop-color="#000000"></stop></radialGradient><radialGradient cx="246.92824" cy="188.46281" r="5.99918" gradientUnits="userSpaceOnUse" id="color-10"><stop offset="0" stop-color="#2d2d2d"></stop><stop offset="1" stop-color="#000000"></stop></radialGradient><radialGradient cx="246.03328" cy="189.24472" r="5.99918" gradientUnits="userSpaceOnUse" id="color-11"><stop offset="0" stop-color="#2d2d2d"></stop><stop offset="1" stop-color="#000000"></stop></radialGradient><radialGradient cx="246.74382" cy="187.92649" r="5.99917" gradientUnits="userSpaceOnUse" id="color-12"><stop offset="0" stop-color="#2d2d2d"></stop><stop offset="1" stop-color="#000000"></stop></radialGradient><radialGradient cx="238.42131" cy="190.2611" r="5.99918" gradientUnits="userSpaceOnUse" id="color-13"><stop offset="0" stop-color="#2d2d2d"></stop><stop offset="1" stop-color="#000000"></stop></radialGradient><radialGradient cx="239.83732" cy="190.74843" r="5.99918" gradientUnits="userSpaceOnUse" id="color-14"><stop offset="0" stop-color="#2d2d2d"></stop><stop offset="1" stop-color="#000000"></stop></radialGradient><radialGradient cx="238.6583" cy="190.89745" r="5.99918" gradientUnits="userSpaceOnUse" id="color-15"><stop offset="0" stop-color="#2d2d2d"></stop><stop offset="1" stop-color="#000000"></stop></radialGradient><radialGradient cx="239.98376" cy="190.20053" r="5.99918" gradientUnits="userSpaceOnUse" id="color-16"><stop offset="0" stop-color="#2d2d2d"></stop><stop offset="1" stop-color="#000000"></stop></radialGradient><radialGradient cx="231.81926" cy="186.82437" r="5.99918" gradientUnits="userSpaceOnUse" id="color-17"><stop offset="0" stop-color="#2d2d2d"></stop><stop offset="1" stop-color="#000000"></stop></radialGradient><radialGradient cx="232.62315" cy="188.08786" r="5.99918" gradientUnits="userSpaceOnUse" id="color-18"><stop offset="0" stop-color="#2d2d2d"></stop><stop offset="1" stop-color="#000000"></stop></radialGradient><radialGradient cx="231.60812" cy="187.46977" r="5.99918" gradientUnits="userSpaceOnUse" id="color-19"><stop offset="0" stop-color="#2d2d2d"></stop><stop offset="1" stop-color="#000000"></stop></radialGradient><radialGradient cx="233.07908" cy="187.75056" r="5.99918" gradientUnits="userSpaceOnUse" id="color-20"><stop offset="0" stop-color="#2d2d2d"></stop><stop offset="1" stop-color="#000000"></stop></radialGradient><radialGradient cx="229.29059" cy="180.54462" r="5.99918" gradientUnits="userSpaceOnUse" id="color-21"><stop offset="0" stop-color="#2d2d2d"></stop><stop offset="1" stop-color="#000000"></stop></radialGradient><radialGradient cx="229.05333" cy="182.02325" r="5.99918" gradientUnits="userSpaceOnUse" id="color-22"><stop offset="0" stop-color="#2d2d2d"></stop><stop offset="1" stop-color="#000000"></stop></radialGradient><radialGradient cx="228.70428" cy="180.88725" r="5.99918" gradientUnits="userSpaceOnUse" id="color-23"><stop offset="0" stop-color="#2d2d2d"></stop><stop offset="1" stop-color="#000000"></stop></radialGradient><radialGradient cx="229.61823" cy="182.07354" r="5.99918" gradientUnits="userSpaceOnUse" id="color-24"><stop offset="0" stop-color="#2d2d2d"></stop><stop offset="1" stop-color="#000000"></stop></radialGradient><radialGradient cx="230.96519" cy="173.3663" r="5.99917" gradientUnits="userSpaceOnUse" id="color-25"><stop offset="0" stop-color="#2d2d2d"></stop><stop offset="1" stop-color="#000000"></stop></radialGradient><radialGradient cx="229.8573" cy="174.37386" r="5.99918" gradientUnits="userSpaceOnUse" id="color-26"><stop offset="0" stop-color="#2d2d2d"></stop><stop offset="1" stop-color="#000000"></stop></radialGradient><radialGradient cx="230.29321" cy="173.26828" r="5.99918" gradientUnits="userSpaceOnUse" id="color-27"><stop offset="0" stop-color="#2d2d2d"></stop><stop offset="1" stop-color="#000000"></stop></radialGradient><radialGradient cx="230.26741" cy="174.7656" r="5.99918" gradientUnits="userSpaceOnUse" id="color-28"><stop offset="0" stop-color="#2d2d2d"></stop><stop offset="1" stop-color="#000000"></stop></radialGradient><radialGradient cx="237.32705" cy="169.40279" r="5.99917" gradientUnits="userSpaceOnUse" id="color-29"><stop offset="0" stop-color="#2d2d2d"></stop><stop offset="1" stop-color="#000000"></stop></radialGradient><radialGradient cx="235.82991" cy="169.36841" r="5.99918" gradientUnits="userSpaceOnUse" id="color-30"><stop offset="0" stop-color="#2d2d2d"></stop><stop offset="1" stop-color="#000000"></stop></radialGradient><radialGradient cx="236.90803" cy="168.86841" r="5.99918" gradientUnits="userSpaceOnUse" id="color-31"><stop offset="0" stop-color="#2d2d2d"></stop><stop offset="1" stop-color="#000000"></stop></radialGradient><radialGradient cx="235.85675" cy="169.93489" r="5.99918" gradientUnits="userSpaceOnUse" id="color-32"><stop offset="0" stop-color="#2d2d2d"></stop><stop offset="1" stop-color="#000000"></stop></radialGradient><radialGradient cx="244.60173" cy="170.54089" r="5.99917" gradientUnits="userSpaceOnUse" id="color-33"><stop offset="0" stop-color="#2d2d2d"></stop><stop offset="1" stop-color="#000000"></stop></radialGradient><radialGradient cx="243.40195" cy="169.6447" r="5.99918" gradientUnits="userSpaceOnUse" id="color-34"><stop offset="0" stop-color="#2d2d2d"></stop><stop offset="1" stop-color="#000000"></stop></radialGradient><radialGradient cx="244.57023" cy="169.86257" r="5.99918" gradientUnits="userSpaceOnUse" id="color-35"><stop offset="0" stop-color="#2d2d2d"></stop><stop offset="1" stop-color="#000000"></stop></radialGradient><radialGradient cx="243.0953" cy="170.12179" r="5.99918" gradientUnits="userSpaceOnUse" id="color-36"><stop offset="0" stop-color="#2d2d2d"></stop><stop offset="1" stop-color="#000000"></stop></radialGradient></defs><g transform="translate(-211.47818,-151.47818)"><g data-paper-data="{&quot;isPaintingLayer&quot;:true}" fill-rule="nonzero" stroke-linejoin="miter" stroke-miterlimit="10" stroke-dasharray="" stroke-dashoffset="0" style="mix-blend-mode: normal"><g fill="none" stroke-width="0.45" stroke-linecap="round"><g><path d="M257.68255,175.9689l-14.63123,-0.70209" stroke="url(#color-1)"></path><path d="M257.35436,172.84459l-14.48514,2.17858" stroke="url(#color-2)"></path><path d="M255.827,169.2173l-10.54053,10.17167" stroke="url(#color-3)"></path><path d="M253.32722,167.3146l-8.34299,12.03994" stroke="url(#color-4)"></path></g><g><path d="M245.46529,178.67147l10.86853,9.82042" stroke="url(#color-5)"></path><path d="M245.47897,178.3676l12.58219,7.50029" stroke="url(#color-6)"></path><path d="M244.57979,183.27623l14.60033,-1.18168" stroke="url(#color-7)"></path><path d="M244.36792,183.05797l14.0857,-4.01978" stroke="url(#color-8)"></path></g><g><path d="M245.77219,197.22527l-0.60625,-14.63551" stroke="url(#color-9)"></path><path d="M245.39234,182.38662l3.46239,14.23298" stroke="url(#color-10)"></path><path d="M252.33127,194.77466l-11.07162,-9.59088" stroke="url(#color-11)"></path><path d="M254.00334,192.11509l-12.73636,-7.23539" stroke="url(#color-12)"></path></g><g><path d="M241.65429,184.89205l-7.66831,12.48049" stroke="url(#color-13)"></path><path d="M236.88153,198.59114l5.07404,-13.74118" stroke="url(#color-14)"></path><path d="M240.7958,199.00154l-3.83054,-14.13835" stroke="url(#color-15)"></path><path d="M243.66788,197.72862l-6.52676,-13.11362" stroke="url(#color-16)"></path></g><g><path d="M237.69338,184.63951l-13.77432,4.98337" stroke="url(#color-17)"></path><path d="M225.42446,192.38018l12.53077,-7.58591" stroke="url(#color-18)"></path><path d="M228.2303,195.14017l5.81358,-13.445" stroke="url(#color-19)"></path><path d="M234.33607,181.61062l-3.06625,14.32355" stroke="url(#color-20)"></path></g><g><path d="M221.52382,177.39466l13.61073,5.41423" stroke="url(#color-21)"></path><path d="M220.81988,180.45629l14.40781,2.64217" stroke="url(#color-22)"></path><path d="M234.35879,178.18437l-13.27189,6.19861" stroke="url(#color-23)"></path><path d="M222.83352,186.99418l11.79994,-8.67913" stroke="url(#color-24)"></path></g><g><path d="M226.86036,166.05907l7.25943,12.72267" stroke="url(#color-25)"></path><path d="M224.40018,168.01267l9.61177,11.0535" stroke="url(#color-26)"></path><path d="M222.15913,171.24806l14.23949,3.43551" stroke="url(#color-27)"></path><path d="M236.53177,174.95707l-14.63664,-0.57861" stroke="url(#color-28)"></path></g><g><path d="M239.39376,161.28037l-3.51692,14.21961" stroke="url(#color-29)"></path><path d="M235.60262,175.63153l0.66232,-14.63307" stroke="url(#color-30)"></path><path d="M232.41084,161.79594l7.94247,12.30783" stroke="url(#color-31)"></path><path d="M240.26111,174.39364l-10.20027,-10.51286" stroke="url(#color-32)"></path></g><g><path d="M250.99562,165.12213l-11.11109,9.54512" stroke="url(#color-33)"></path><path d="M239.58479,174.61542l9.02526,-11.53735" stroke="url(#color-34)"></path><path d="M245.0077,161.49278l-0.6666,14.63289" stroke="url(#color-35)"></path><path d="M241.88419,161.82851l2.2137,14.47983" stroke="url(#color-36)"></path></g></g><path d="M231.89244,180.00001c0,-4.47769 3.62988,-8.10757 8.10756,-8.10757c4.47769,0 8.10756,3.62988 8.10756,8.10757c0,4.47769 -3.62988,8.10756 -8.10756,8.10756c-4.47769,0 -8.10756,-3.62988 -8.10756,-8.10756z" fill="#141414" stroke="#000000" stroke-width="0.25" stroke-linecap="butt"></path><path d="M216.72819,180c0,-12.85267 10.41915,-23.27182 23.27182,-23.27182c12.85267,0 23.27181,10.41915 23.27181,23.27182c0,12.85267 -10.41915,23.27182 -23.27181,23.27182c-12.85267,0 -23.27182,-10.41915 -23.27182,-23.27182z" fill="none" stroke="#000000" stroke-width="10.5" stroke-linecap="butt"></path></g></g></svg>