<svg version="1.1" xmlns="http://www.w3.org/2000/svg" xmlns:xlink="http://www.w3.org/1999/xlink" width="563.37553" height="419.60029" viewBox="0,0,563.37553,419.60029"><defs><linearGradient x1="239.37178" y1="-1.05529" x2="239.37178" y2="244.76528" gradientUnits="userSpaceOnUse" id="color-1"><stop offset="0" stop-color="#f3f8ff"></stop><stop offset="1" stop-color="#449bff"></stop></linearGradient><linearGradient x1="238.61945" y1="-6.966" x2="238.61945" y2="210.96063" gradientUnits="userSpaceOnUse" id="color-2"><stop offset="0" stop-color="#945100"></stop><stop offset="1" stop-color="#000000"></stop></linearGradient><linearGradient x1="241.03567" y1="-7.48426" x2="241.03567" y2="50.09137" gradientUnits="userSpaceOnUse" id="color-3"><stop offset="0" stop-color="#9a5f11"></stop><stop offset="1" stop-color="#9a5f11" stop-opacity="0"></stop></linearGradient><linearGradient x1="238.56756" y1="178.5696" x2="238.56756" y2="360.54066" gradientUnits="userSpaceOnUse" id="color-4"><stop offset="0" stop-color="#1f4592"></stop><stop offset="1" stop-color="#0037ad"></stop></linearGradient></defs><g transform="translate(46.3755,7.48426)"><g data-paper-data="{&quot;isPaintingLayer&quot;:true}" fill-rule="nonzero" stroke-linecap="butt" stroke-linejoin="miter" stroke-miterlimit="10" stroke-dasharray="" stroke-dashoffset="0" style="mix-blend-mode: normal"><path d="M-13.12825,244.76528v-245.82058h505v245.82058z" fill="url(#color-1)" stroke="none" stroke-width="0"></path><path d="M-46.3755,409.61603c0,-1.38071 1.11929,-2.5 2.5,-2.5c1.38071,0 2.5,1.11929 2.5,2.5c0,1.38071 -1.11929,2.5 -2.5,2.5c-1.38071,0 -2.5,-1.11929 -2.5,-2.5z" fill="#30afca" stroke="none" stroke-width="0.5"></path><path d="M512.00003,403c0,-1.38071 1.11929,-2.5 2.5,-2.5c1.38071,0 2.5,1.11929 2.5,2.5c0,1.38071 -1.11929,2.5 -2.5,2.5c-1.38071,0 -2.5,-1.11929 -2.5,-2.5z" fill="#30afca" stroke="none" stroke-width="0.5"></path><path d="M-23.53563,-3.92667c1.04096,0 1.88483,0.28129 1.88483,0.62828c0,0.34699 -0.84387,0.62828 -1.88483,0.62828c-1.04096,0 -1.88483,-0.28129 -1.88483,-0.62828c0,-0.34699 0.84387,-0.62828 1.88483,-0.62828z" fill="#ffffff" stroke="#8a8a8a" stroke-width="2"></path><path d="M-15.65811,210.96063v-217.92663h508.55512v217.92663z" fill="url(#color-2)" stroke="none" stroke-width="0"></path><path d="M-11.62937,50.09137v-57.57563h505.33005v57.57563z" fill="url(#color-3)" stroke="none" stroke-width="0"></path><path d="M-16.10052,360.54066v-180.72212l509.33608,-1.24894v181.97107z" fill="url(#color-4)" stroke="none" stroke-width="0"></path><path d="M-15.81248,323.88204v-131.02703h509.02041v131.02703z" fill="#ffe96d" stroke="none" stroke-width="0"></path></g></g></svg>