<svg version="1.1" xmlns="http://www.w3.org/2000/svg" xmlns:xlink="http://www.w3.org/1999/xlink" width="26.60437" height="59.68823" viewBox="0,0,26.60437,59.68823"><g transform="translate(-222.74666,-176.51625)"><g data-paper-data="{&quot;isPaintingLayer&quot;:true}" fill-rule="nonzero" stroke="#000000" stroke-width="0.25" stroke-linecap="butt" stroke-linejoin="miter" stroke-miterlimit="10" stroke-dasharray="" stroke-dashoffset="0" style="mix-blend-mode: normal"><path d="M248.05138,197.36307c-7.59944,13.04828 -15.754,27.10842 -17.04638,29.4975c-0.36312,0.67127 -3.73396,-6.47417 -3.73396,-6.47417l11.12983,-26.71467c0,0 11.31365,0.83577 9.65051,3.69136z" fill="#d89856"></path><path d="M222.91858,226.89239l5.10774,-8.32053l12.4699,13.08146l-2.68827,4.37923z" fill="#e4e4e4"></path><path d="M229.422,178.16691c0,0 10.49449,-2.13468 16.38428,0.01496c1.71937,0.62753 3.24164,12.34864 2.62614,18.88578c-0.0196,3.98225 -8.53993,1.26184 -10.65646,-0.17576c-1.22397,-1.46902 -3.60337,-4.14608 -6.92491,-9.1317c-2.37288,-3.56169 -1.42907,-9.59326 -1.42907,-9.59326z" fill="#333333"></path><path d="M246.53288,178.68344c1.82918,1.33851 3.10845,16.66306 2.56841,19.5234c-0.4259,2.25583 -12.14313,22.53388 -16.19827,26.35146c-1.79737,1.69208 -11.22162,-3.88542 -6.94961,-7.09758c4.16848,-7.61528 10.93758,-20.74298 10.93758,-20.74298c0,0 -7.16419,-9.03468 -7.97577,-12.17339c-0.87078,-3.36767 -0.61208,-6.80408 -0.61208,-6.80408c0,0 8.45203,-1.42554 13.83287,-1.02952c2.29758,0.1691 3.90814,1.61506 4.39687,1.97269z" fill="#2a2d33"></path></g></g></svg>