<svg version="1.1" xmlns="http://www.w3.org/2000/svg" xmlns:xlink="http://www.w3.org/1999/xlink" width="173.46643" height="125.72555" viewBox="0,0,173.46643,125.72555"><defs><linearGradient x1="353.10231" y1="91.60057" x2="353.10231" y2="146.8406" gradientUnits="userSpaceOnUse" id="color-1"><stop offset="0" stop-color="#c59b1c"></stop><stop offset="1" stop-color="#c58c25"></stop></linearGradient><linearGradient x1="337.01974" y1="90.72652" x2="345.41065" y2="90.72652" gradientUnits="userSpaceOnUse" id="color-2"><stop offset="0" stop-color="#6b6b6b"></stop><stop offset="1" stop-color="#717171"></stop></linearGradient><linearGradient x1="332.12503" y1="89.85247" x2="342.26406" y2="89.85247" gradientUnits="userSpaceOnUse" id="color-3"><stop offset="0" stop-color="#000000"></stop><stop offset="1" stop-color="#090909"></stop></linearGradient></defs><g transform="translate(-234.1766,-58.20448)"><g data-paper-data="{&quot;isPaintingLayer&quot;:true}" fill-rule="nonzero" stroke-linecap="butt" stroke-linejoin="miter" stroke-miterlimit="10" stroke-dasharray="" stroke-dashoffset="0" style="mix-blend-mode: normal"><path d="M357.64732,120.96868l-2.79696,-8.39089l31.81545,1.04886l20.97722,10.139l-20.24658,-5.22947z" fill="#5d5d5d" stroke="none" stroke-width="0"></path><path d="M309.2263,156.5718l-18.54546,-5.58042c0,0 -5.54344,-2.04103 -10.32281,-3.15883c-0.88822,-0.20774 -2.10796,-0.30008 -2.87871,-0.20917c-0.83172,0.09811 -1.20388,0.38431 -1.87152,0.24956c-1.00151,-0.20213 -1.83277,-1.27794 -2.21951,-2.20655c-3.37957,-8.11472 5.69095,-22.65918 6.12807,-22.71831c0.29638,-0.04009 21.65828,5.42725 22.56677,5.62049c0.14858,0.03161 1.87473,0.52555 1.22026,1.1787c-0.59443,0.59323 -3.03172,1.56203 -3.01189,1.94862c0.04557,0.88816 -0.45681,1.64514 -0.45681,1.64514c0,0 1.15311,1.93801 1.71161,2.48392c0.56664,0.55386 1.67575,1.89916 3.1667,3.4698c3.14679,3.31497 7.36645,7.63369 7.36645,7.63369c0,0 0.05451,4.31691 -0.29946,4.62032c-0.46424,0.39792 -2.55368,5.02304 -2.55368,5.02304z" fill="#1f1f1f" stroke="none" stroke-width="0"></path><path d="M291.12537,145.26554c0,0 0.77252,-5.4788 2.43851,-8.90467c1.55926,-3.2064 5.81149,-7.59533 5.81149,-7.59533l1.375,0.25c0,0 -3.8344,4.87334 -5.5129,7.98952c-1.66516,3.09142 -2.6121,9.57298 -2.6121,9.57298z" fill="#000000" stroke="none" stroke-width="0"></path><path d="M300.1144,131.25012c0,0 1.81126,-1.20668 2.85226,-1.35557c1.04206,-0.14903 0.9294,0.52908 1.23165,0.76116c0.21134,0.16227 -2.84778,0.93278 -2.9822,2.17699c-0.06261,0.57958 0.96821,1.45938 0.96821,1.45938l10.93858,11.89718c0,0 1.15236,2.53102 0.91323,3.93324c-0.18543,1.08735 -1.77918,0.57689 -1.83794,0.60102c-0.05843,0.024 0.06604,-3.63906 -0.33029,-4.01889c-2.01003,-1.92633 -7.61184,-7.98645 -10.26296,-10.74357c-0.7715,-0.80236 -2.03857,-2.9536 -2.00857,-3.11238c0.16737,-0.88582 0.51802,-1.59856 0.51802,-1.59856z" fill="#c3c3c3" stroke="none" stroke-width="0"></path><path d="M301.00676,132.57361c0.56743,-1.2687 1.49125,-1.12963 2.43667,-1.57029c1.50133,-0.69976 2.83182,-1.07488 2.83182,-1.07488l29.63637,1.18182l2.18182,8.90909c0,0 -3.03424,13.47707 -4.4424,13.71731c-0.56216,0.0959 -1.38718,7.73604 -6.02572,11.9236c-4.25077,3.8375 -12.21386,4.23668 -15.36077,4.63901c-0.11073,0.01415 -2.65582,1.96805 -4.54973,3.08702c-3.01736,1.78272 -9.48519,0.98776 -12.38036,1.16022c-0.32511,0.01936 -1.27841,-1.11434 -1.59252,-1.60753c-0.60718,-0.95334 -0.51002,-1.61839 -0.67478,-1.69095c-0.54508,-0.24003 16.96425,-13.66842 16.01812,-15.67947c-0.13078,-0.27797 4.65799,-6.39919 4.66672,-6.95694c0.00745,-0.47593 -0.1526,-1.06253 -0.35911,-1.75494c-0.11563,-0.3877 -0.52523,-0.90332 -0.72117,-1.06807c-1.34359,-1.12968 -12.01573,-12.4307 -11.66495,-13.21499z" fill-opacity="0.99546" fill="#313131" stroke="none" stroke-width="0"></path><path d="M368.13596,153.13376l-27.96963,-57.68737l5.2443,-2.44734l27.96964,54.54079z" fill="url(#color-1)" stroke="none" stroke-width="0"></path><path d="M293.64239,127.77849l5.30769,-0.92308h17.61539l4.46154,2.61538c0,0 0.06486,1.16898 -3.29444,1.27349c-2.16507,0.06736 -12.14548,0.08176 -13.17047,0.04006c-1.43014,-0.05818 -2.61123,-1.12249 -4.63692,-1.48022c-1.07447,-0.18975 -2.4369,-0.08944 -3.28429,-0.28844c-2.08718,-0.49015 -2.99849,-1.2372 -2.99849,-1.2372z" fill="#585858" stroke="none" stroke-width="0"></path><path d="M327.92958,114.3259l3.14659,-6.64279l11.18786,-8.74051l8.74051,17.83064c0,0 -7.86628,0.98796 -11.60025,0.59194c-3.94597,-0.41851 -11.4747,-3.03928 -11.4747,-3.03928z" fill="#151515" stroke="none" stroke-width="0"></path><path d="M303.39995,161.76486l24.94142,-31.29051l3.80919,2.61766l-25.12324,31.56324z" fill="#090909" stroke="none" stroke-width="0"></path><path d="M341.21521,95.44639l-4.19545,-9.09013h3.84582l4.54506,8.74051z" fill="url(#color-2)" stroke="none" stroke-width="0"></path><path d="M249.26501,119.91982l-5.59392,-5.2443l17.83064,3.84583l-0.69924,3.84582z" fill="#313131" stroke="#dcdcdc" stroke-width="0.5"></path><path d="M282.2831,148.97316c0,0 -6.76968,-3.84084 -15.08792,-9.62182c-1.65688,-1.1515 -8.3156,-8.64035 -12.86796,-12.22898c-8.12474,-6.40474 -16.91369,-10.3699 -19.15222,-10.97696c-2.74629,-0.74475 3.60137,-4.61647 3.60137,-4.61647c0,0 4.92362,3.15702 7.83361,5.02291c1.93818,1.24276 12.75506,5.15741 12.75506,5.15741c0,0 1.1756,-5.43568 2.57899,-3.6816c2.25132,2.81388 18.83288,1.31217 24.44324,3.48824c0.28874,0.11199 7.63528,2.49016 18.39953,-1.10108c10.75159,-3.58702 34.36084,-18.73732 34.36084,-18.73732c0,0 -13.7106,10.75169 -9.22255,12.5534c4.24333,1.70347 25.31887,2.17412 25.31887,2.17412c0,0 -2.51315,5.32487 -5.71271,10.67168c-3.43584,5.74167 -9.70741,12.61105 -10.79209,13.50888c-1.00563,0.83239 -3.03374,-5.73097 -11.70386,-8.5225c-10.11599,-3.25706 -24.90233,-2.89535 -24.90233,-2.89535l-15.41834,-1.51414c0,0 -1.04318,-0.12483 -0.91017,0.87962c0.53892,4.06963 3.04321,15.11523 3.22604,15.282c0.86147,0.78583 1.84857,1.40889 1.84857,1.40889c0,0 -0.7015,5.19234 -2.15472,5.72145c-0.94453,0.3439 -1.89581,0.26627 -1.89581,0.26627z" fill="#5d5d5d" stroke="none" stroke-width="0"></path><path d="M355.20003,112.57779l-11.18785,-19.92836c0,0 7.13752,4.47881 10.12075,8.98409c2.69867,4.07554 4.91292,10.24503 4.91292,10.24503z" fill="#e6e6e6" stroke="none" stroke-width="0"></path><path d="M342.26406,89.85247c0,2.51017 -2.2697,4.54506 -5.0695,4.54506c-2.7998,0 -5.0695,-2.03489 -5.0695,-4.54506c0,-2.51017 2.26969,-4.54507 5.0695,-4.54507c2.7998,0 5.0695,2.0349 5.0695,4.54507z" fill="url(#color-3)" stroke="none" stroke-width="0"></path><path d="M259.75356,118.17172c0,0 -12.93572,-2.45874 -16.85023,-3.61384c-2.31481,-0.68306 -4.47661,-2.67933 -4.47661,-2.67933c0,0 42.67752,3.34643 59.08009,2.35234c13.9728,-0.84683 36.01666,-8.99513 36.01666,-8.99513c0,0 -12.58011,7.98976 -17.71606,10.70532c-4.99936,2.64334 -12.63939,6.3802 -21.44143,7.47495c-8.80204,1.09475 -34.61242,-5.2443 -34.61242,-5.2443z" fill="#252525" stroke="none" stroke-width="0"></path><path d="M236.67705,183.87347c-3.04579,0.73364 -3.30819,-5.89289 -0.79181,-7.00679c2.51638,-1.1139 39.23699,-13.09919 41.66471,-13.7486c1.61651,-0.43241 12.23102,-1.72013 12.23102,-1.72013c0,0 4.26493,4.02085 2.11904,6.06392c-0.37498,0.357 -11.14246,3.98589 -11.97786,4.4111c-3.49327,1.77804 -39.53981,11.10801 -43.24509,12.00051z" fill="#8a8a8a" stroke="none" stroke-width="0"></path><g data-paper-data="{&quot;index&quot;:null}" fill="#000000" stroke="none" stroke-width="0"><g><path d="M315.07421,120.65046c0,0 -0.37576,-0.01736 -0.4458,-0.09518c-0.07554,-0.08394 0.02402,-0.42393 0.02402,-0.42393c0,0 0.96236,-0.03695 2.05703,-0.09418c0.24212,-0.01266 4.92329,-0.66873 5.53552,-0.72797c0.21155,-0.02047 0.31845,-0.06829 0.45372,0.0597c0.06708,0.06347 0.10868,0.26487 -0.01414,0.29941c-0.05236,0.01472 -0.51262,0.05618 -0.51262,0.05618c0,0 -1.57897,2.33883 -1.24934,2.2532c0.33879,-0.08801 1.65327,-1.03963 2.91249,-1.7638c0.74401,-0.42787 1.78167,-0.8771 1.94042,-0.88133c0.24729,-0.0066 0.47334,0.29974 0.40441,0.34577c-0.01798,0.01201 -0.17895,0.1249 -0.32349,0.18605c-0.112,0.04738 -0.00427,-0.15942 -0.18006,-0.09706c-0.36649,0.13 -1.04799,0.46394 -1.47886,0.71558c-1.43401,0.83748 -3.13299,1.97776 -3.58094,1.85019c-0.3194,-0.09096 -0.16072,-0.304 -0.22102,-0.29885c-0.10955,0.00935 1.28457,-2.29583 1.16838,-2.2723c-2.23525,0.45268 -6.48972,0.88854 -6.48972,0.88854z"></path><path d="M324.74275,120.84512c-0.14332,-0.25941 0.44571,-0.61184 0.98256,-0.93126c0.42863,-0.25503 0.81812,-0.51253 0.81812,-0.51253l0.69756,0.16222c0,0 0.58204,-0.26624 0.65164,-0.24104c0.15347,0.05556 -0.01984,0.18542 0.16654,0.15934c0.13849,-0.01938 0.38059,-0.26959 0.44807,-0.23227c0.00218,0.0012 0.03595,-0.13569 0.00138,-0.14072c-0.0199,-0.00289 -1.1988,0.02396 -1.20183,-0.04672c-0.00338,-0.07903 0.04216,-0.22832 0.0816,-0.22983c0.12655,-0.00484 1.4268,-0.03513 1.51858,-0.04154c0.03788,-0.00265 0.22103,-0.19627 0.27731,-0.20292c0.02872,-0.00339 0.08097,0.10117 0.26219,0.15923c0.26175,0.08386 2.9503,-0.08859 2.94865,-0.03473c-0.00001,0.00046 1.7055,-1.09146 2.01266,-0.92483c0.40835,0.22153 -0.81728,1.71272 -1.22846,1.70354c-0.34076,-0.22586 0.75634,-1.21081 0.73063,-1.22329c-0.1363,-0.06613 -1.71555,0.88715 -1.74665,0.94968c-0.04163,0.0837 -0.34106,0.36466 -0.34106,0.36466c0,0 -0.02569,0.31924 -0.09627,0.33903c-0.03137,0.00879 -0.2867,-0.03944 -0.2867,-0.03944c0,0 -0.02127,-0.26914 0.00021,-0.32648c0.08372,-0.22348 0.4136,-0.41907 0.31614,-0.44068c-0.27861,-0.06179 -1.5287,0.25808 -1.80831,0.30427c-0.03159,0.00522 -0.03625,-0.00862 -0.04698,-0.03851c-0.02143,-0.05969 -0.02606,-0.16291 -0.03069,-0.16279c-0.04694,0.00117 0.01497,-0.09219 -0.06322,-0.10793c-0.19291,-0.03885 -0.56887,-0.03082 -0.70589,-0.01354c-0.07573,0.00955 -0.11579,0.05382 -0.12731,0.06448c-0.09663,0.08942 -0.12657,0.15335 -0.11714,0.17091c0.05302,0.09866 0.9363,-0.21831 1.03329,-0.14339c0.03871,0.02991 0.11358,0.10115 0.08258,0.21998c-0.00878,0.03367 -0.09241,-0.01338 -0.1248,0.03145c-0.02779,0.03846 -0.00337,0.16989 -0.02614,0.18994c-0.01127,0.00993 1.57622,0.22747 1.63201,0.25113c0.18312,0.07766 0.3729,-0.04859 0.3729,-0.04859l3.17059,-0.05584c0,0 0.22004,-0.42647 0.53434,-0.4087c0.08009,0.00453 0.0798,0.289 0.0798,0.289l3.99241,-0.05193l0.40763,0.40736c0,0 -4.57071,0.02214 -4.6737,0.06647c-0.04589,0.01976 -0.76797,0.6488 -0.76797,0.6488c0,0 1.36522,0.64909 0.90731,0.8416c-0.05957,0.02504 -0.8475,-0.4924 -1.15106,-0.4211c-0.12253,0.02878 -1.4875,2.70181 -2.21358,3.76044c-0.28071,0.40928 -0.27029,0.2093 -0.39345,0.1628c-0.61801,-0.23335 2.16391,-4.16233 2.16385,-4.16232c-0.03385,0.00832 0.80387,-0.45227 0.36334,-0.56095c-0.39679,-0.09789 -0.78198,-0.10865 -1.43998,-0.19069c-0.05309,-0.00662 0.72133,0.46161 1.05911,0.53326c0.02278,0.00483 0.47684,-0.03623 0.48644,-0.01778c0.0328,0.06308 -0.43804,0.2353 -0.45011,0.23381c-1.46333,-0.17972 -4.55364,-1.14766 -4.55364,-1.14766c0,0 -0.89771,0.02419 -0.92058,0.06145c-0.00743,0.01211 -1.07776,1.35401 -1.21492,1.42149c-0.03564,0.01753 -0.46489,-0.35927 -0.21517,-0.48363c0.00877,-0.00437 0.18592,-0.1049 0.37345,-0.24386c0.28161,-0.20868 0.49368,-0.56745 0.46986,-0.56824c-0.10128,-0.00337 0.0357,-0.2354 -0.09404,-0.17851c-0.31366,0.13752 -0.50703,0.58971 -0.65667,0.77409c-0.26466,0.32609 0.23878,0.68217 0.05881,0.78202c-0.13187,0.07316 -0.48707,-0.23463 -0.59922,-0.30489c-0.0956,-0.0599 0.4489,-0.96824 0.4489,-0.96824c0,0 -0.52529,-0.27739 -0.94924,-0.05201c-0.26089,0.1387 -0.44839,0.18288 -0.53732,0.46245c-0.03542,0.11134 1.35944,-0.68219 1.19175,-0.59542c-0.10282,0.0532 0.70437,0.07047 0.20394,0.31191c-0.23083,0.11137 -1.10631,0.57968 -1.67056,0.74048c-0.28235,0.08046 -0.48676,-0.06199 -0.49347,-0.07251z"></path></g><path d="M337.63338,121.05186c0,0 -0.10781,0.17151 -0.23527,0.05763c-0.21956,-0.19617 -0.05673,-0.38208 -0.05673,-0.38208l0.584,-0.42178c0,0 0.13923,-0.08829 0.24889,-0.004c0.06049,0.04649 -0.038,0.23111 -0.038,0.23111z"></path></g><path d="M302.18183,176.71822c-2.83988,-0.30742 -7.18182,-2.36364 -7.18182,-2.36364c0,0 1.76505,-0.15512 2.56792,-0.76547c0.70553,-0.53636 0.96761,-1.63362 1.54571,-1.84814c0.64382,-0.23891 2.56838,-0.43435 3.31824,-0.04628c0.84539,0.4375 1.51243,2.2181 2.14642,1.99158c1.32006,-0.47165 2.85805,-0.41778 3.57128,-0.84856c1.6141,-0.97487 1.67428,-2.28884 2.31816,-2.6541c0.51878,-0.29429 11.30477,-3.59562 13.32669,-4.3399c0.30253,-0.11137 1.82475,-2.03604 3.3026,-3.82137c0.81817,-0.98839 1.62275,-1.74495 2.19923,-2.57632c1.01959,-1.47039 0.37669,-1.28184 0.43102,-1.84143c0.09425,-0.97089 -3.11935,-2.88433 -1.92666,-4.25257c1.0343,-1.18653 3.06312,-0.21305 5.11336,0.20105c1.4764,0.29819 2.17937,-1.40746 2.17937,-1.40746c0,0 1.05287,0.39678 1.10998,1.31582c0.06637,1.06793 -0.58677,1.35549 -0.79235,3.00674c-0.27931,2.24337 -0.19389,5.92735 -0.64377,7.49992c-0.96621,3.37748 -3.74941,6.52883 -5.6763,7.52287c-2.0232,1.04372 -9.53418,3.07639 -16.19616,4.25102c-4.95369,0.87343 -9.47859,1.10987 -10.71293,0.97625z" fill="#272727" stroke="#8e8e8e" stroke-width="0.25"></path><path d="M328.18433,154.29208c0,-0.55229 0.44772,-1 1,-1c0.55228,0 1,0.44771 1,1c0,0.55229 -0.44772,1 -1,1c-0.55228,0 -1,-0.44771 -1,-1z" fill="#404040" stroke="none" stroke-width="0"></path><path d="M294.45707,164.83753l-0.72728,-13.54545c0,0 1.28091,-5.85213 7.90909,-5.81818c7.03798,0.03605 8,5.81818 8,5.81818l0.36364,13c0,0 -1.85715,6.45455 -8.36364,6.27273c-1.12914,-0.03155 -2.57857,-0.81675 -4.06666,-2.00761c-1.95367,-1.56345 -3.11516,-3.71967 -3.11516,-3.71967z" fill="#a9a9a9" stroke="none" stroke-width="0"></path><path d="M295.36927,163.62033c0,0 -1.49174,-11.31083 -0.63948,-11.91016c1.17327,-0.82506 13.98845,5.18182 13.98845,5.18182l0.31973,6.24874c0,0 -1.63295,5.67532 -7.35393,5.51545c-0.99282,-0.02775 -2.26727,-0.71814 -3.57571,-1.76523c-1.71781,-1.3747 -2.73907,-3.27061 -2.73907,-3.27061z" fill="#bfbfbf" stroke="none" stroke-width="0"></path><path d="M294.8207,154.33753c0,-1.02926 0.83437,-1.86363 1.86363,-1.86363c1.02926,0 1.86364,0.83437 1.86364,1.86363c0,1.02926 -0.83438,1.86364 -1.86364,1.86364c-1.02926,0 -1.86363,-0.83438 -1.86363,-1.86364z" fill="#000000" stroke="none" stroke-width="0"></path><path d="M289.06287,157.57804c0,0 -0.12437,-3.75768 -0.26414,-3.92781c-0.43138,-0.52509 -1.20503,-0.75568 -1.64174,-0.96829c-0.65395,-0.31835 -0.24338,-0.7198 -0.33056,-1.04443c-0.23339,-0.86908 0.51283,-0.4239 1.15272,-0.58255c0.49962,-0.12387 0.96551,-0.44549 1.28448,-0.99549c0.98872,-1.70484 1.54924,-4.91894 1.54924,-4.91894c0,0 2.59979,1.8249 2.625,2.0625c0.0548,0.51653 1.15755,15.72235 1.03403,16.90063c-0.00876,0.08355 0.82366,2.21545 2.2396,3.51105c1.00805,0.92237 2.39918,2.0219 2.34133,2.14945c-0.15042,0.33168 -1.45899,1.5252 -2.5271,1.92413c-1.51903,0.56734 -2.81021,0.23197 -3.00793,0.16894c-1.44412,-0.46036 -2.74152,-4.86119 -3.05791,-5.41673c-0.62703,-1.10099 -1.39702,-8.86246 -1.39702,-8.86246z" fill="#c7c7c7" stroke="none" stroke-width="0"></path><path d="M274.01442,59.29996c0,0 9.52612,-1.90628 18.017,-0.37546c7.36584,1.328 13.71453,5.99128 15.33135,7.4766c0.19178,0.17619 0.85862,9.1887 -4.18096,12.18496c-5.03958,2.99626 -7.42431,0.16711 -15.03821,-0.75826c-6.97788,-0.84807 -15.33874,-5.35834 -15.36796,-6.03916c-0.17222,-4.01249 1.23876,-12.48869 1.23876,-12.48869z" fill="#afafaf" stroke="#000000" stroke-width="0.25"></path><path d="M280.38145,79.97109c-5.36499,14.11475 -11.1123,29.31846 -11.99689,31.88661c-0.24855,0.72159 -4.74174,-5.77696 -4.74174,-5.77696l6.61463,-28.17434c0,0 11.29814,-1.0243 10.124,2.06471z" fill="#d89856" stroke="#000000" stroke-width="0.25"></path><path d="M260.86618,114.74275l2.35507,-9.4749l15.83952,8.70245l-1.23951,4.98678z" fill="#636363" stroke="#000000" stroke-width="0.25"></path><path d="M262.73884,66.55896c3.46897,-7.84345 11.44296,-7.23742 11.44296,-7.23742c0,0 -1.56118,8.39187 0.75427,11.77867c3.14955,4.60684 5.41271,7.0112 5.48232,7.47068c1.11863,7.3846 -10.12577,3.69145 -10.12577,3.69145c0,0 -10.4313,-9.1972 -7.55377,-15.70338z" fill="#333333" stroke="#000000" stroke-width="0.25"></path><g stroke="#000000" stroke-width="0.25"><path d="M331.43269,86.92558l0.74792,-3.9189l6.3195,-0.99518l3.25657,2.3756l0.44687,3.82849c0,0 -2.67329,-2.6575 -4.0851,-2.86885c-1.308,-0.19582 -3.39995,0.34468 -4.91052,0.94802c-1.04387,0.41692 -1.77524,0.63084 -1.77524,0.63084z" fill="#383838"></path><path d="M300.91402,65.88092l14.50709,12.5196l16.92969,4.57295l-0.92233,3.53346c0,0 -11.5602,-0.36316 -18.02089,-2.3545c-6.40829,-1.97519 -16.04308,-10.8108 -16.04308,-10.8108z" fill="#d89856"></path><path d="M300.49249,76.60987c0,0 -3.87046,-2.39658 -5.28929,-6.36156c-0.77679,-2.17079 0.74754,-3.69183 1.70151,-4.73258c0.78849,-0.8602 2.407,-1.38729 3.93649,-1.67407c3.38003,-0.63376 7.15493,6.17823 7.15493,6.17823z" fill="#afafaf"></path></g><path d="M252.09658,115.2672c0,0 -0.41653,-0.05357 -0.84075,-0.31853c-0.28224,-0.17628 -0.51988,-0.29436 -0.4959,-0.64578c0.09205,-0.30727 0.04503,-0.46507 1.40382,-0.50044c1.37772,-0.03587 1.38232,0.24442 1.37954,0.33684c-0.00055,0.01832 0.01172,0.15513 -0.08371,0.16695c-0.33126,0.04106 -1.17352,-0.06681 -1.46951,0.01246c-0.10787,0.02889 -0.26925,0.14602 -0.20152,0.2681c0.09679,0.17442 0.5052,0.25892 0.5052,0.25892c0,0 0.51408,0.01557 0.49764,-0.05252c-0.00608,-0.02514 -0.3563,-0.05275 -0.3563,-0.05275l-0.04661,-0.33158c0,0 0.8492,0.04536 1.05546,0.00817c0.17421,-0.03141 0.16788,-0.30931 0.16788,-0.30931l0.89848,-0.09161c0,0 0.11801,0.70589 0.25417,0.74875c0.0421,0.01325 0.40893,0.07061 0.52069,-0.10492c0.19521,-0.30661 0.03223,-0.93901 0.03628,-0.84008c0.00137,0.03359 1.30479,-0.12465 1.30479,-0.12465l0.04222,0.19932l3.10962,-0.29338c0,0 -0.07005,0.15184 0.03565,0.16158c0.08274,0.00763 0.67335,-0.05162 1.02268,-0.01039c0.23091,0.02725 0.25259,0.34488 0.19695,0.37298c-0.10696,0.05402 -1.03304,0.06932 -1.69242,0.06372c-0.04026,-0.00034 1.48851,0.01132 1.49505,0.28175c0.0011,0.04583 -0.64991,0.60828 -0.89282,0.66035c-0.10658,0.02285 -1.02314,0.12916 -1.34235,-0.03863c-0.20103,-0.10567 -0.2778,-0.33329 -0.27277,-0.3743c0.01644,-0.13394 1.52624,-0.0717 1.52624,-0.0717c0,0 -1.39871,0.021 -1.43448,-0.0665c-0.12599,-0.30819 0.10427,-0.35899 0.10427,-0.35899l-0.30974,0.01148l-0.68977,0.9252l-0.5844,0.00137c0,0 0.01961,-0.85454 -0.09382,-0.81536c-0.54283,0.18749 -0.52808,0.41888 -0.56751,0.48941c-0.20045,0.35847 -1.34499,0.59504 -2.05983,0.42244c-0.45153,-0.10903 -0.62196,-0.61577 -0.62196,-0.61577l-0.05246,0.59483z" fill="#ffffff" stroke="#ed2c30" stroke-width="0.2"></path></g></g></svg>