<svg version="1.1" xmlns="http://www.w3.org/2000/svg" xmlns:xlink="http://www.w3.org/1999/xlink" width="182.41721" height="102.37771" viewBox="0,0,182.41721,102.37771"><g transform="translate(-173.72561,-99.66076)"><g data-paper-data="{&quot;isPaintingLayer&quot;:true}" fill-rule="nonzero" stroke-linecap="butt" stroke-linejoin="miter" stroke-miterlimit="10" stroke-dasharray="" stroke-dashoffset="0" style="mix-blend-mode: normal"><path d="M173.72562,151.58236v-0.54396h0.36264v0.54396z" fill="#000000" stroke="none" stroke-width="0"></path><g><path d="M335.57897,182.85525l-23.37416,-49.34839l2.40488,-1.12549l23.51996,49.78578z" fill="#232323" stroke="none" stroke-width="0"></path><path d="M278.36639,178.23525c0,4.47629 -3.59015,8.10505 -8.01883,8.10505c-4.42868,0 -8.01883,-3.62876 -8.01883,-8.10505c0,-4.47629 3.59015,-8.10506 8.01883,-8.10506c4.42868,0 8.01883,3.62876 8.01883,8.10506z" fill="#000000" stroke="none" stroke-width="0"></path><path d="M225.44407,180.46873c0,-8.0924 6.56019,-14.6526 14.65259,-14.6526c8.0924,0 14.65259,6.56019 14.65259,14.6526c0,8.0924 -6.56019,14.65259 -14.65259,14.65259c-8.0924,0 -14.65259,-6.56019 -14.65259,-14.65259z" fill="#252525" stroke="#000000" stroke-width="12.5"></path><path d="M320.58763,181.13586c0,-8.0924 6.56019,-14.65259 14.6526,-14.65259c8.0924,0 14.65259,6.56019 14.65259,14.65259c0,8.0924 -6.56019,14.6526 -14.65259,14.6526c-8.0924,0 -14.6526,-6.56019 -14.6526,-14.6526z" fill="#252525" stroke="#000000" stroke-width="12.5"></path><path d="M311.02646,131.4659l-8.62557,-15.2216l2.79063,-1.58136l8.62556,15.2216z" fill="#232323" stroke="none" stroke-width="0"></path><path d="M233.46093,177.59249v-4.08231h37.76142c0,0 2.27354,2.0086 2.24756,2.76218c-0.00514,0.149 2.00361,3.4399 -0.64303,3.62748c-0.27387,0.01941 -25.16657,8.14884 -25.16657,8.14884c0,0 -4.48311,-1.35986 -3.40046,-2.13318c0.85915,-0.61369 26.81671,-8.17719 26.81671,-8.17719c0,0 -0.12908,-1.75628 -1.89644,-1.76313c-1.23318,-0.00477 -22.76617,0.60649 -18.00595,0.30044c1.24416,-0.07999 0.93222,7.71356 0.93222,7.71356l-4.63805,0.82155c0,0 -0.52773,-7.44723 -2.48432,-8.10817c-5.66527,-1.91375 -11.52309,0.88995 -11.52309,0.88995z" fill="#000000" stroke="none" stroke-width="0"></path><path d="M282.03256,179.29722l10.3647,-33.87865l18.75222,6.26692l-11.96847,32.85807c0,0 -3.86269,3.58496 -6.27645,2.8465c-3.11942,-0.95434 -10.87201,-8.09283 -10.87201,-8.09283z" fill="#131313" stroke="none" stroke-width="0"></path><path d="M229.8809,178.11922l14.98118,-30.9509l3.40526,0.59225l-15.12699,30.07612l5.28714,0.19597l11.32325,9.17518l32.27608,-1.42142c0,0 -2.16258,-7.58079 0.91456,-8.21909c0.99184,-0.20574 1.88724,2.85319 3.50145,4.08866c2.17959,1.66821 5.06962,1.69218 5.62989,1.67815c3.61069,-0.09044 3.79132,2.71874 3.79132,2.71874c0,0 2.96412,-1.35241 4.22294,-3.93837c1.67212,-3.43503 6.77071,-21.12078 6.77071,-21.12078l6.2443,-10.34356l-2.08677,-9.72055c0,0 -1.82797,-1.08415 -3.24313,-0.08186c-1.49319,1.05756 0.88973,4.20669 -0.38784,4.29405c-2.0351,0.13915 -10.21472,-1.22435 -10.21472,-1.22435l-5.2464,1.84108l-0.04973,5.8614l-8.09175,22.48334c0,0 0.38125,4.63474 0.65613,8.58561c0.17129,2.46193 0.39047,4.92588 0.17741,5.0185c-0.17431,0.07577 -2.67598,-0.05865 -3.04431,-1.36616c-0.26249,-0.93183 0.05426,-5.36241 -1.06651,-5.61809c-1.77092,-0.40399 -5.16699,3.72374 -5.16699,3.72374l0.67578,-8.28619c0,0 5.29789,-1.10783 5.29515,-1.11473c-0.45779,-1.15607 8.04847,-29.78125 8.04847,-29.78125l6.86065,-6.10591c0,0 6.8903,0.50726 10.22649,-0.54294c1.67107,-0.52604 2.27015,-2.71686 2.49231,-2.85644c0.71375,-0.44842 2.21856,0.50152 2.21856,0.50152c0,0 0.72875,3.42311 2.91228,5.32024c1.48136,1.28705 5.38428,1.09642 5.50316,1.23552c1.43856,1.68329 4.56691,7.92757 4.56691,7.92757c0,0 -6.36136,1.02668 -8.17923,2.29915c-2.74241,1.91963 -7.11185,7.07756 -7.11185,7.07756c0,0 -5.85345,23.41959 -5.83344,23.54881c0.07609,0.49102 -6.7323,5.0694 -6.7323,5.0694c0,0 -58.66801,1.78744 -60.62383,1.1675c-1.58012,-0.50086 -1.90723,-1.47335 -1.90723,-1.47335l-3.94789,0.0406z" fill="#ffffff" stroke="none" stroke-width="0"></path><path d="M237.98064,148.10506c-3.20078,-1.01882 0,-3.86362 0,-3.86362h53.21589v3.86362c0,0 -51.57066,0.52368 -53.21589,0z" fill="#ffffff" stroke="none" stroke-width="0"></path><path d="M244.39571,155.57715l3.35334,-7.43564l22.89012,0.2916c0,0 -0.46656,3.0253 -1.40475,3.9938c-0.91431,0.94386 -3.26074,2.56706 -3.26074,2.56706z" fill="#131313" stroke="none" stroke-width="0"></path><path d="M238.41804,144.20499v-5.83188c0,0 2.05165,-2.47855 4.22811,-2.47855c1.68689,0 4.70465,1.00445 9.03091,1.20446c14.58842,0.67446 37.47833,0.3993 37.47833,0.3993c0,0 2.68748,0.82909 3.08646,3.28876c0.3727,2.29775 -1.0453,3.4179 -1.0453,3.4179z" fill="#4b4b4b" stroke="none" stroke-width="0"></path><path d="M262.91192,172.92699c0,0 9.06305,-0.0207 10.49738,1.31217c1.69885,1.57869 0.1458,12.10115 0.1458,12.10115c0,0 -1.15757,0.70085 -2.87288,0.22298c-1.72083,-0.4794 -4.00207,-2.14042 -5.65211,-3.95074c-2.85084,-3.12779 -2.11818,-9.68557 -2.11818,-9.68557z" fill="#e4e4e4" stroke="none" stroke-width="0"></path><path d="M305.77623,114.5353c0,1.57017 -1.59926,2.84304 -3.57203,2.84304c-1.97278,0 -3.57203,-1.27287 -3.57203,-2.84304c0,-1.57017 1.59925,-2.84304 3.57203,-2.84304c1.97278,0 3.57203,1.27286 3.57203,2.84304z" fill="#000000" stroke="none" stroke-width="0"></path><path d="M309.56695,130.86456c0,-1.65069 1.33814,-2.98884 2.98883,-2.98884c1.65069,0 2.98884,1.33815 2.98884,2.98884c0,1.65069 -1.33815,2.98883 -2.98884,2.98883c-1.65069,0 -2.98883,-1.33814 -2.98883,-2.98883z" fill="#232323" stroke="none" stroke-width="0"></path></g><path d="M294.45336,117.07332l2.62207,-4.94641l3.46096,-2.06652l3.69781,1.08774c0,0 -3.49198,1.41942 -4.23922,2.63579c-0.24676,0.40168 -0.68394,1.63891 -1.15442,2.55079c-0.84946,1.64638 -0.57641,4.08065 -0.57641,4.08065z" fill="#383838" stroke="#000000" stroke-width="0.25"></path><path d="M241.05016,135.29618c0,0 0.75117,-13.94128 2.88961,-18.1562c0.16033,-0.31602 3.38612,-5.08834 7.91542,-9.4559c5.567,-5.3682 13.35077,-7.88296 13.35077,-7.88296l6.43924,5.47325c0,0 0.1598,6.13223 -0.11154,6.33327c-0.27134,0.20104 -11.52469,13.52165 -9.20367,20.18115c1.0044,2.88187 -21.27983,3.5074 -21.27983,3.5074z" fill="#afafaf" stroke="#000000" stroke-width="0.25"></path><path d="M270.54139,106.83366l15.64476,8.58923l8.60061,1.52086l3.43921,3.47125l-13.00703,0.81987l-20.9379,-6.75039z" fill="#d89856" stroke="#000000" stroke-width="0.25"></path><path d="M281.38408,140.30532c-0.14486,15.09928 -0.27125,31.35254 -0.21171,34.06811c0.01673,0.76301 -6.44896,-3.77734 -6.44896,-3.77734l-3.55187,-28.72161c0,0 10.24426,-4.87362 10.21255,-1.56915z" fill="#d89856" stroke="#000000" stroke-width="0.25"></path><path d="M240.42892,135.38415c0,0 18.77605,-10.98658 22.57869,-5.04722c1.64557,2.57023 13.27589,1.28826 17.4866,7.45702c4.21072,6.16876 -7.67368,6.91903 -7.67368,6.91903z" fill="#333333" stroke="#000000" stroke-width="0.25"></path><path d="M271.21907,178.18431l2.83727,-9.34184l15.373,9.50231l-1.4933,4.91675z" fill="#636363" stroke="#000000" stroke-width="0.25"></path><path d="M268.90273,116.28564c0,0 -7.62895,-2.15943 -8.59734,-6.25776c-0.53018,-2.24379 1.15408,-3.58559 2.21803,-4.51363c0.87938,-0.76703 2.54653,-1.11057 4.09845,-1.22521c3.42958,-0.25335 7.51295,4.68328 7.51295,4.68328z" fill="#afafaf" stroke="#000000" stroke-width="0.25"></path></g></g></svg>