<svg version="1.1" xmlns="http://www.w3.org/2000/svg" xmlns:xlink="http://www.w3.org/1999/xlink" width="86.89649" height="95.26977" viewBox="0,0,86.89649,95.26977"><defs><linearGradient x1="302.54436" y1="115.18233" x2="300.00971" y2="114.85911" gradientUnits="userSpaceOnUse" id="color-1"><stop offset="0" stop-color="#000000"></stop><stop offset="1" stop-color="#1a1a1a"></stop></linearGradient></defs><g transform="translate(-237.38129,-100.37271)"><g data-paper-data="{&quot;isPaintingLayer&quot;:true}" fill-rule="nonzero" stroke-linejoin="miter" stroke-miterlimit="10" stroke-dasharray="" stroke-dashoffset="0" style="mix-blend-mode: normal"><g stroke="#000000" stroke-linecap="butt"><g stroke-width="0.5"><path d="M309.06191,190.97456l-1.34326,-9.32642l2.12376,-0.34014l0.59369,9.51158z" data-paper-data="{&quot;index&quot;:null}" fill="#252525"></path><path d="M315.48658,188.85834l-6.60856,-6.71666l1.50918,-1.53247l6.11451,7.30999z" data-paper-data="{&quot;index&quot;:null}" fill="#252525"></path><path d="M308.22011,169.03682l1.34326,9.32642l-2.12377,0.34014l-0.59368,-9.51158z" data-paper-data="{&quot;index&quot;:null}" fill="#252525"></path><path d="M301.79908,171.22201l6.60856,6.71665l-1.50918,1.53247l-6.11451,-7.30999z" data-paper-data="{&quot;index&quot;:null}" fill="#252525"></path><path d="M297.66524,179.84502l9.38447,-0.84739l0.22717,2.1388l-9.52968,0.08907z" data-paper-data="{&quot;index&quot;:null}" fill="#252525"></path><path d="M299.43822,186.37278l7.05726,-6.24354l1.45038,1.58823l-7.62358,5.71874z" data-paper-data="{&quot;index&quot;:null}" fill="#252525"></path><path d="M319.61677,180.16635l-9.38447,0.84739l-0.22717,-2.1388l9.52968,-0.08907z" data-paper-data="{&quot;index&quot;:null}" fill="#252525"></path><path d="M317.77474,173.63861l-7.05726,6.24354l-1.45038,-1.58823l7.62359,-5.71874z" data-paper-data="{&quot;index&quot;:null}" fill="#252525"></path><path d="M305.53336,180.00569c0,-1.71631 1.39134,-3.10764 3.10764,-3.10764c1.7163,0 3.10764,1.39134 3.10764,3.10764c0,1.71631 -1.39134,3.10764 -3.10764,3.10764c-1.71631,0 -3.10764,-1.39134 -3.10764,-3.10764z" fill="#1d1d1d"></path></g><path d="M295.5042,180.00569c0,-7.25525 5.88155,-13.13679 13.13679,-13.13679c7.25525,0 13.13679,5.88155 13.13679,13.13679c0,7.25525 -5.88155,13.13679 -13.13679,13.13679c-7.25525,0 -13.13679,-5.88155 -13.13679,-13.13679z" fill="none" stroke-width="5"></path></g><path d="M296.74013,116.84439c0,0 0.21057,4.97119 0.00246,7.29812c-0.19076,2.13303 -2.57938,5.06235 -2.57938,5.06235" fill="none" stroke="#000000" stroke-width="0.5" stroke-linecap="round"></path><path d="M297.50447,116.29843c0,0 0.41022,5.00257 0.15814,7.42469c-0.25019,2.40402 -3.10631,5.78749 -3.10631,5.78749" fill="none" stroke="#000000" stroke-width="0.5" stroke-linecap="round"></path><path d="M298.05043,116.40763c0,0 0.34084,5.81792 0.08363,8.56026c-0.25961,2.76795 -3.07548,5.39441 -3.07548,5.39441" fill="none" stroke="#000000" stroke-width="0.5" stroke-linecap="round"></path><path d="M295.07957,148.74426l-3.30917,-29.16305c0,0 0.71208,-2.04944 1.55056,-3.04927c0.77232,-0.92094 2.17059,-1.49509 2.17059,-1.49509l3.30322,-0.74571l0.12673,3.58377l-3.46489,-0.09941c0,0 -0.73235,0.33846 -0.95925,0.71298c-0.22541,0.37204 -0.39774,1.18147 -0.39774,1.18147l3.79258,28.7487z" fill="#1d1d1d" stroke="#000000" stroke-width="0.5" stroke-linecap="butt"></path><path d="M249.68854,167.55469v-5.22417h5.71393v5.22417z" fill="#1d1d1d" stroke="#000000" stroke-width="0.5" stroke-linecap="butt"></path><path d="M237.87159,179.27953c0,0 14.42997,-19.88554 14.94849,-19.96478c0.63756,-0.09743 0.92991,2.71584 0.92991,2.71584c0,0 -11.43297,19.32961 -12.78707,19.81044c-0.21367,0.07587 -1.05031,0.63922 -2.32771,-0.14963c-1.38605,-0.85594 -0.76359,-2.41187 -0.76359,-2.41187z" fill="#1d1d1d" stroke="#000000" stroke-width="0.5" stroke-linecap="butt"></path><path d="M254.6175,167.62213l-7.40019,-28.5521l2.84805,-0.72382l7.31857,28.79698c0,0 0.53358,2.66512 0.27597,2.92908c-0.28124,0.28818 -2.27753,0.23199 -2.5001,0.27052c-0.32182,0.05572 -0.54229,-2.72069 -0.54229,-2.72069z" fill="#1d1d1d" stroke="#000000" stroke-width="0.5" stroke-linecap="butt"></path><path d="M238.75044,135.14855c0,0 1.07081,-1.60563 3.18347,-1.55093c2.49493,0.0646 3.74807,0.81133 5.88336,0.98535c3.21515,0.26203 8.69317,-0.42051 11.25401,-0.69516c1.70746,-0.18312 2.77975,2.40352 2.77975,2.40352c0,0 -8.77981,2.82895 -14.10992,4.96425c-1.04423,0.41833 -2.35349,0.2814 -3.44534,0.39235c-1.25018,0.12705 -5.54534,-1.60174 -5.54534,-1.60174z" fill="#3b3b3b" stroke="#000000" stroke-width="0.5" stroke-linecap="butt"></path><path d="M299.42228,158.27409l-0.20717,-5.80094c0,0 3.11491,-0.26976 3.52199,0.27623c0.44059,0.59094 0.25139,5.21402 0,5.5247c-0.49691,0.61409 -3.31482,0 -3.31482,0z" fill="#434343" stroke="#000000" stroke-width="0.5" stroke-linecap="butt"></path><path d="M270.9117,175.39094c-1.29886,0.09198 -11.90607,-7.20883 -12.99955,-7.89968c-0.54217,-0.34253 -3.08106,-10.05838 -3.08106,-10.05838c0,0 2.23322,-5.0101 20.63926,-8.07302c19.08364,-0.2606 24.53668,4.71097 22.22785,5.04793c-1.78538,0.69261 -11.91047,-2.54443 -20.9002,-1.90729c-9.36792,0.66395 -18.62018,5.74866 -18.62018,5.74866c0,0 0.31434,5.99024 0.95669,6.88832c0.67546,0.94439 11.12418,7.31486 11.12418,7.31486c0,0 27.97126,-14.97503 27.90427,-14.69592c-0.01858,0.07743 0.1537,2.74204 0.1537,2.74204c0,0 -26.33992,14.81705 -27.40494,14.89247z" fill="#1d1d1d" stroke="#000000" stroke-width="0.5" stroke-linecap="butt"></path><path d="M298.80686,161.30502l-3.91212,-11.33776l3.38364,-0.72469l3.42236,11.33777c0,0 0.12094,0.65327 0.33329,1.11705c0.22896,0.50005 0.5496,0.81626 0.52044,0.90348c-0.11763,0.35181 7.18222,16.99988 7.18222,16.99988c0,0 0.41766,1.29427 -0.72675,1.57388c-1.04594,0.25557 -1.46355,-0.68068 -1.58034,-0.83916c-0.2036,-0.27627 -6.94694,-16.04124 -7.09215,-16.45361c-0.07428,-0.21097 -0.40976,-0.8472 -0.7104,-1.49834c-0.28598,-0.6194 -0.82019,-1.0785 -0.82019,-1.0785z" fill="#1d1d1d" stroke="#000000" stroke-width="0.5" stroke-linecap="butt"></path><path d="M269.55578,170.9809c0,0 -9.15777,-5.86245 -9.83356,-6.52782c-0.54265,-0.53428 -1.20604,-4.88371 -1.07772,-5.41934c0.28923,-1.20724 1.24268,-1.70851 4.55728,-3.02096c1.96364,-0.77752 6.69929,-1.74409 6.69929,-1.74409l9.24941,-0.15476c0,0 0.12458,0.14094 0.69977,-0.11069c0.22188,-0.09708 0.20487,-0.36883 0.5256,-0.54863c0.30495,-0.17093 0.94838,-0.25209 1.14175,-0.27106c1.22453,-0.12016 5.16806,0.28946 8.46018,0.91146c1.2965,0.24497 3.48389,0.87294 3.86488,0.98525c0.56708,0.16715 0.74543,1.05472 0.77417,1.80767c0.03294,0.86342 -0.13085,1.59335 -0.13085,1.59335c0,0 -9.92434,6.13616 -14.36422,8.35609c-3.1505,1.57525 -7.03033,4.00916 -8.48625,4.50697c-0.22716,0.07767 -2.07974,-0.36344 -2.07974,-0.36344z" fill="#434343" stroke="#000000" stroke-width="0.5" stroke-linecap="butt"></path><path d="M294.63573,150.19292c-0.72367,-0.33194 -1.29046,-1.94122 -0.98383,-2.48507c0.30675,-0.54403 4.52418,-1.28015 5.10413,-1.03433c0.6534,0.27696 0.92866,2.25037 0.56947,2.55412c-0.31987,0.27051 -4.05548,1.10438 -4.68978,0.96527z" fill="#1d1d1d" stroke="#000000" stroke-width="0.5" stroke-linecap="butt"></path><path d="M301.30131,114.69892c0.15893,0.37834 0.17394,0.95797 -0.11162,1.00684c-0.69549,0.119 -4.19397,-0.15224 -4.11815,-0.80528c0.02798,-0.24105 4.08205,-0.55318 4.22977,-0.20156z" data-paper-data="{&quot;index&quot;:null}" fill="url(#color-1)" stroke="none" stroke-width="0" stroke-linecap="butt"></path><path d="M293.86447,114.80161c0,-1.54467 1.25221,-2.79688 2.79688,-2.79688c1.54467,0 2.79688,1.25221 2.79688,2.79688c0,1.54467 -1.25221,2.79688 -2.79688,2.79688c-1.54467,0 -2.79688,-1.25221 -2.79688,-2.79688z" fill="#000000" stroke="none" stroke-width="0" stroke-linecap="butt"></path><path d="M266.76536,182.2944l2.83727,-9.34184l15.373,9.50231l-1.4933,4.91675z" fill="#636363" stroke="#000000" stroke-width="0.25" stroke-linecap="butt"></path><path d="M290.43734,117.62419l-1.25599,-3.78677l5.03406,-3.94775l4.00131,0.48813l2.25536,3.12575c0,0 -3.62925,-1.01848 -4.96515,-0.51527c-1.23769,0.46621 -2.80129,1.95735 -3.82657,3.22014c-0.7085,0.87264 -1.24301,1.41575 -1.24301,1.41575z" fill="#383838" stroke="#000000" stroke-width="0.25" stroke-linecap="butt"></path><path d="M239.15352,132.86828c0,0 1.09176,-15.28167 3.35889,-21.86061c0.77559,-2.25068 3.82852,-9.41818 5.38809,-10.16932c2.04858,-0.98667 13.44229,0.48393 13.44229,0.48393c0,0 0.85942,2.74291 0.9144,4.72496c0.06414,2.31258 -3.55552,18.34509 -1.82384,23.31365c1.0044,2.88187 -21.27983,3.5074 -21.27983,3.5074z" fill="#afafaf" stroke="#000000" stroke-width="0.25" stroke-linecap="butt"></path><path d="M259.96878,102.31522l16.39711,9.58362l12.85554,1.9776l1.5136,3.76341l-14.98655,-0.7287l-21.19267,-6.32387z" fill="#d89856" stroke="#000000" stroke-width="0.25" stroke-linecap="butt"></path><path d="M262.56377,114.02763c0,0 -7.81505,-1.33755 -9.21293,-5.30995c-0.76533,-2.17485 0.76701,-3.68783 1.72646,-4.72354c0.79301,-0.85603 2.41428,-1.37458 3.94527,-1.65329c3.38331,-0.61591 7.96757,3.85945 7.96757,3.85945z" fill="#afafaf" stroke="#000000" stroke-width="0.25" stroke-linecap="butt"></path><path d="M239.31299,133.02774c0,0 19.11826,-10.00745 21.43928,-3.34795c1.0044,2.88187 12.61483,4.333 15.27957,11.31031c2.66475,6.97731 -9.06948,4.95004 -9.06948,4.95004z" fill="#333333" stroke="#000000" stroke-width="0.25" stroke-linecap="butt"></path><path d="M276.04504,142.49137c-0.14486,15.09928 -0.27125,31.35254 -0.21171,34.06811c0.01673,0.76301 -6.44896,-3.77734 -6.44896,-3.77734l-3.55187,-28.72161c0,0 10.24426,-4.87362 10.21255,-1.56915z" fill="#d89856" stroke="#000000" stroke-width="0.25" stroke-linecap="butt"></path></g></g></svg>