<svg version="1.1" xmlns="http://www.w3.org/2000/svg" xmlns:xlink="http://www.w3.org/1999/xlink" width="27.96255" height="31.29676" viewBox="0,0,27.96255,31.29676"><g transform="translate(-224.55474,-149.70704)"><g data-paper-data="{&quot;isPaintingLayer&quot;:true}" fill-rule="nonzero" stroke="#000000" stroke-linecap="butt" stroke-linejoin="miter" stroke-miterlimit="10" stroke-dasharray="" stroke-dashoffset="0" style="mix-blend-mode: normal"><path d="M249.08751,165.72505c0,0.9321 2.98161,2.26724 2.93218,3.13971c-0.0567,1.00022 -3.23599,1.30108 -3.52666,2.17986c-1.46783,4.43768 -2.79156,7.85918 -8.69197,7.85918c-8.08808,0 -13.78744,-20.03738 -13.78744,-20.03738l13.78744,-6.74878c0,0 9.28647,6.21063 9.28647,13.60741z" fill="#d89856" stroke-width="0.25"></path><path d="M251.01969,168.46476c-0.0567,1.00022 -0.28599,3.67608 -0.57666,4.55486c-1.46783,4.43768 -4.54156,6.48418 -10.44197,6.48418c-8.08808,0 -13.78744,-20.03738 -13.78744,-20.03738c0,0 9.55387,-11.52151 14.18744,-7.34878c4.60819,4.14988 9.70029,9.29774 7.90926,9.08991c-3.84797,-0.44653 -7.05875,-0.65656 -7.32518,3.60948c-0.25664,4.1092 10.08398,2.77526 10.03455,3.64773z" fill="#000000" stroke-width="3"></path></g></g></svg>