<svg version="1.1" xmlns="http://www.w3.org/2000/svg" xmlns:xlink="http://www.w3.org/1999/xlink" width="563.37551" height="412.992" viewBox="0,0,563.37551,412.992"><defs><radialGradient cx="186.90891" cy="70.47751" r="2.82433" gradientUnits="userSpaceOnUse" id="color-1"><stop offset="0" stop-color="#ff2785"></stop><stop offset="1" stop-color="#ff2785" stop-opacity="0"></stop></radialGradient><radialGradient cx="186.93593" cy="53.99103" r="2.82433" gradientUnits="userSpaceOnUse" id="color-2"><stop offset="0" stop-color="#ff2785"></stop><stop offset="1" stop-color="#ff2785" stop-opacity="0"></stop></radialGradient><linearGradient x1="239.99812" y1="0.3508" x2="239.99812" y2="336.3357" gradientUnits="userSpaceOnUse" id="color-3"><stop offset="0" stop-color="#e873ff"></stop><stop offset="1" stop-color="#e873ff" stop-opacity="0"></stop></linearGradient><linearGradient x1="239.57479" y1="-0.87596" x2="239.57479" y2="255.00161" gradientUnits="userSpaceOnUse" id="color-4"><stop offset="0" stop-color="#001a32"></stop><stop offset="1" stop-color="#001a32" stop-opacity="0"></stop></linearGradient><radialGradient cx="424.43598" cy="62.58156" r="17.45403" gradientUnits="userSpaceOnUse" id="color-5"><stop offset="0" stop-color="#ff0000" stop-opacity="0"></stop><stop offset="1" stop-color="#ff0000"></stop></radialGradient><radialGradient cx="425.0608" cy="62.58156" r="17.45403" gradientUnits="userSpaceOnUse" id="color-6"><stop offset="0" stop-color="#ff0000" stop-opacity="0"></stop><stop offset="1" stop-color="#ff0000"></stop></radialGradient><radialGradient cx="39.80799" cy="107.55792" r="26.82926" gradientUnits="userSpaceOnUse" id="color-7"><stop offset="0" stop-color="#84beff"></stop><stop offset="1" stop-color="#84beff" stop-opacity="0"></stop></radialGradient></defs><g transform="translate(46.37545,0.87596)"><g data-paper-data="{&quot;isPaintingLayer&quot;:true}" fill-rule="nonzero" stroke-linejoin="miter" stroke-miterlimit="10" stroke-dasharray="" stroke-dashoffset="0" style="mix-blend-mode: normal"><path d="M139.91698,161.12832c0,0 -0.22975,-78.51899 1.41752,-78.51899c1.60301,0 12.95652,3.55873 12.95652,3.55873l0.23354,8.38589l2.16633,0.1155l0.47251,66.45888z" fill="#000000" stroke="#000000" stroke-width="0.25" stroke-linecap="butt"></path><path d="M393.07749,153.0271v-55.60832h16.86994v55.60832z" fill="#000000" stroke="none" stroke-width="0" stroke-linecap="butt"></path><path d="M377.45718,158.65041v-77.09226h19.84553v77.09226z" fill="#000000" stroke="none" stroke-width="0" stroke-linecap="butt"></path><path d="M359.3376,149.27823v-63.10607h14.37069v63.10607z" fill="#000000" stroke="none" stroke-width="0" stroke-linecap="butt"></path><path d="M171.26904,161.14967v-71.22863h21.24363v71.22863z" fill="#000000" stroke="none" stroke-width="0" stroke-linecap="butt"></path><g stroke="none" stroke-width="0" stroke-linecap="butt"><path d="M186.49728,73.92629v-5.08445h0.57771v5.08445z" fill="#8e6b6b"></path><g><path d="M186.6606,90.24947v-11.89526h0.5777v11.89526z" fill="#8e6b6b"></path><path d="M186.71465,64.03325v-5.08446h0.57771v5.08446z" fill="#8e6b6b"></path><path d="M186.45452,78.37109v-4.625h0.875v4.625z" fill="#5e2323"></path><path d="M186.57952,68.62109v-4.625h0.875v4.625z" fill="#5e2323"></path><path d="M186.57952,58.99609v-4.625h0.875v4.625z" fill="#5e2323"></path><path d="M184.08459,70.47751c0,-1.55983 1.26449,-2.82432 2.82432,-2.82432c1.55983,0 2.82433,1.26449 2.82433,2.82432c0,1.55983 -1.2645,2.82433 -2.82433,2.82433c-1.55983,0 -2.82432,-1.26449 -2.82432,-2.82433z" fill="url(#color-1)"></path><path d="M184.11161,53.99103c0,-1.55983 1.26449,-2.82433 2.82432,-2.82433c1.55983,0 2.82433,1.2645 2.82433,2.82433c0,1.55983 -1.2645,2.82433 -2.82433,2.82433c-1.55983,0 -2.82432,-1.2645 -2.82432,-2.82433z" fill="url(#color-2)"></path></g></g><path d="M185.63972,116.16316v-35.61432h9.37219v35.61432z" fill="#000000" stroke="none" stroke-width="0" stroke-linecap="butt"></path><path d="M-7.58335,336.3357v-335.98489h495.16295v335.98489z" fill="url(#color-3)" stroke="none" stroke-width="0" stroke-linecap="butt"></path><path d="M-7.92297,255.00161v-255.87757h494.9955v255.87757z" fill="url(#color-4)" stroke="none" stroke-width="0" stroke-linecap="butt"></path><path d="M56.30351,151.77748v-84.97451h59.35719v84.97451z" fill="#000000" stroke="none" stroke-width="0" stroke-linecap="butt"></path><path d="M338.09399,168.0226v-89.3482h25.79123v89.3482z" fill="#000000" stroke="none" stroke-width="0" stroke-linecap="butt"></path><path d="M284.3601,160.52485v-98.72038h52.48426v98.72039z" fill="#000000" stroke="none" stroke-width="0" stroke-linecap="butt"></path><path d="M199.3856,163.64891v-101.18288h30.17735v101.18288z" fill="#000000" stroke="none" stroke-width="0" stroke-linecap="butt"></path><path d="M240.62322,161.77448v-92.47225h31.14351v92.47226z" fill="#000000" stroke="none" stroke-width="0" stroke-linecap="butt"></path><path d="M144.40209,178.01962v-106.39569h16.15438v106.3957z" fill="#000000" stroke="none" stroke-width="0" stroke-linecap="butt"></path><path d="M163.14646,165.52335v-29.36619h15.62031v29.36619z" fill="#000000" stroke="none" stroke-width="0" stroke-linecap="butt"></path><path d="M233.75029,121.78647v-53.10907h35.61432v53.10907z" fill="#000000" stroke="none" stroke-width="0" stroke-linecap="butt"></path><path d="M20.68919,152.40229v-75.60232h33.11507v75.60232z" fill="#000000" stroke="none" stroke-width="0" stroke-linecap="butt"></path><path d="M373.08349,153.65192v-54.35869h21.24363v54.3587z" fill="#000000" stroke="none" stroke-width="0" stroke-linecap="butt"></path><path d="M230.0014,161.14966v-111.64805h59.35719v111.64806z" fill="#000000" stroke="none" stroke-width="0" stroke-linecap="butt"></path><path d="M400.57524,153.0271v-99.97001h40.61281v99.97001z" fill="#000000" stroke="none" stroke-width="0" stroke-linecap="butt"></path><path d="M66.92531,155.52635v-101.84444h21.24363v101.84445z" fill="#000000" stroke="none" stroke-width="0" stroke-linecap="butt"></path><path d="M95.66671,156.15117v-81.22563h16.94277v81.22564z" fill="#000000" stroke="none" stroke-width="0" stroke-linecap="butt"></path><path d="M121.90883,157.40079v-114.96552h16.94277v114.96552z" fill="#000000" stroke="none" stroke-width="0" stroke-linecap="butt"></path><path d="M251.86986,161.14967v-61.85644h33.11506v61.85644z" fill="#adb6d2" stroke="#000000" stroke-width="0.25" stroke-linecap="butt"></path><path d="M293.10747,151.15267v-44.98651h31.24062v44.98651z" fill="#000000" stroke="none" stroke-width="0" stroke-linecap="butt"></path><path d="M170.0194,146.77898v-44.98651h31.24062v44.98651z" fill="#000000" stroke="none" stroke-width="0" stroke-linecap="butt"></path><path d="M181.88909,160.53627v-32.125h25.125v32.125z" fill="#7b7160" stroke="#000000" stroke-width="0.25" stroke-linecap="butt"></path><path d="M-46.37545,409.61604c0,-1.38071 1.11929,-2.5 2.5,-2.5c1.38071,0 2.5,1.11929 2.5,2.5c0,1.38071 -1.11929,2.5 -2.5,2.5c-1.38071,0 -2.5,-1.11929 -2.5,-2.5z" fill="#30afca" stroke="none" stroke-width="0.5" stroke-linecap="butt"></path><path d="M512.00006,403.00001c0,-1.38071 1.11929,-2.5 2.5,-2.5c1.38071,0 2.5,1.11929 2.5,2.5c0,1.38071 -1.11929,2.5 -2.5,2.5c-1.38071,0 -2.5,-1.11929 -2.5,-2.5z" fill="#30afca" stroke="none" stroke-width="0.5" stroke-linecap="butt"></path><path d="M281.90972,54.53025v106.5" fill="none" stroke="#000000" stroke-width="0.5" stroke-linecap="round"></path><path d="M98.15978,157.88467v-70.25l12.25,-3l23.74048,1.24997l-1.27842,73.48379l-22.46206,1.26624z" fill="#232323" stroke="#000000" stroke-width="0.25" stroke-linecap="butt"></path><path d="M110.15978,84.78025v76" fill="none" stroke="#000000" stroke-width="0.5" stroke-linecap="round"></path><g fill="#171717" stroke="none" stroke-width="0" stroke-linecap="butt"><g><g><path d="M111.16343,93.69701v-2.29739l3.02837,0.10443l-0.10442,2.08853z"></path><path d="M115.02721,93.64012v-2.13895l2.81952,0.09723l-0.09722,1.94449z"></path><path d="M118.47329,93.64011v-2.04611l2.69714,0.093l-0.093,1.8601z"></path><path d="M121.91447,93.64012v-1.905l2.51113,0.08659l-0.08658,1.73181z"></path><path d="M125.18695,93.58322v-1.79186l2.36199,0.08145l-0.08145,1.62896z"></path><path d="M128.20049,93.58322v-1.66828l2.19909,0.07583l-0.07583,1.51662z"></path><path d="M130.98837,93.52633v-1.4976l1.9741,0.06807l-0.06806,1.36145z"></path></g><g><path d="M111.16343,96.65557v-2.29738l3.02837,0.10442l-0.10442,2.08854z"></path><path d="M115.02721,96.59868v-2.13895l2.81952,0.09722l-0.09722,1.9445z"></path><path d="M118.47329,96.59868v-2.04611l2.69714,0.09301l-0.093,1.8601z"></path><path d="M121.91447,96.59868v-1.905l2.51113,0.08659l-0.08658,1.73181z"></path><path d="M125.18695,96.54178v-1.79186l2.36199,0.08145l-0.08145,1.62896z"></path><path d="M128.20049,96.54179v-1.66828l2.19909,0.07583l-0.07583,1.51662z"></path><path d="M130.98837,96.48489v-1.4976l1.9741,0.06808l-0.06806,1.36145z"></path></g><g><path d="M111.10653,99.50034v-2.29739l3.02837,0.10443l-0.10443,2.08853z"></path><path d="M114.97032,99.44345v-2.13895l2.81951,0.09722l-0.09722,1.9445z"></path><path d="M118.41641,99.44345v-2.04611l2.69714,0.09301l-0.093,1.8601z"></path><path d="M121.85758,99.44345v-1.905l2.51113,0.08659l-0.08658,1.73182z"></path><path d="M125.13006,99.38655v-1.79186l2.36199,0.08145l-0.08145,1.62896z"></path><path d="M128.14363,99.38656v-1.66828l2.1991,0.07583l-0.07583,1.51662z"></path><path d="M130.93151,99.32966v-1.4976l1.9741,0.06808l-0.06806,1.36145z"></path></g><g><path d="M111.10653,102.45891v-2.29738l3.02837,0.10442l-0.10443,2.08854z"></path><path d="M114.97032,102.40202v-2.13895l2.81951,0.09723l-0.09722,1.9445z"></path><path d="M118.41641,102.40201v-2.04611l2.69714,0.093l-0.093,1.8601z"></path><path d="M121.85758,102.40202v-1.905l2.51113,0.08659l-0.08658,1.73181z"></path><path d="M125.13006,102.34512v-1.79186l2.36199,0.08145l-0.08145,1.62896z"></path><path d="M128.14363,102.34512v-1.66829l2.1991,0.07583l-0.07583,1.51662z"></path><path d="M130.93151,102.28823v-1.4976l1.9741,0.06807l-0.06806,1.36145z"></path></g><g><path d="M110.99274,105.70194v-2.29739l3.02837,0.10443l-0.10443,2.08853z"></path><path d="M114.85653,105.64505v-2.13895l2.81951,0.09722l-0.09722,1.9445z"></path><path d="M118.30261,105.64505v-2.04611l2.69714,0.09301l-0.09301,1.8601z"></path><path d="M121.74379,105.64505v-1.905l2.51113,0.08659l-0.08658,1.73182z"></path><path d="M125.01627,105.58815v-1.79186l2.36199,0.08145l-0.08144,1.62896z"></path><path d="M128.02983,105.58816v-1.66828l2.19909,0.07583l-0.07582,1.51662z"></path><path d="M130.8177,105.53126v-1.4976l1.9741,0.06808l-0.06806,1.36145z"></path></g><g><path d="M110.99274,108.66051v-2.29738l3.02837,0.10442l-0.10443,2.08854z"></path><path d="M114.85653,108.60362v-2.13895l2.81951,0.09723l-0.09722,1.9445z"></path><path d="M118.30261,108.60361v-2.04611l2.69714,0.09301l-0.09301,1.8601z"></path><path d="M121.74379,108.60362v-1.905l2.51113,0.08659l-0.08658,1.73181z"></path><path d="M125.01627,108.54672v-1.79186l2.36199,0.08145l-0.08144,1.62896z"></path><path d="M128.02983,108.54672v-1.66829l2.19909,0.07583l-0.07582,1.51662z"></path><path d="M130.8177,108.48983v-1.4976l1.9741,0.06807l-0.06806,1.36145z"></path></g><g><path d="M110.93585,111.50528v-2.29738l3.02837,0.10442l-0.10442,2.08854z"></path><path d="M114.79964,111.44839v-2.13895l2.81951,0.09722l-0.09722,1.9445z"></path><path d="M118.24571,111.44838v-2.04611l2.69714,0.09301l-0.09301,1.8601z"></path><path d="M121.68689,111.44839v-1.905l2.51113,0.08659l-0.08658,1.73181z"></path><path d="M124.95938,111.39149v-1.79186l2.36199,0.08145l-0.08145,1.62896z"></path><path d="M127.97295,111.39149v-1.66828l2.19909,0.07583l-0.07582,1.51662z"></path><path d="M130.76082,111.3346v-1.4976l1.9741,0.06808l-0.06806,1.36145z"></path></g><g><path d="M110.93585,114.46384v-2.29739l3.02837,0.10443l-0.10442,2.08853z"></path><path d="M114.79964,114.40695v-2.13895l2.81951,0.09723l-0.09722,1.94449z"></path><path d="M118.24571,114.40695v-2.04611l2.69714,0.093l-0.09301,1.8601z"></path><path d="M121.68689,114.40695v-1.905l2.51113,0.08659l-0.08658,1.73181z"></path><path d="M124.95938,114.35005v-1.79186l2.36199,0.08145l-0.08145,1.62896z"></path><path d="M127.97295,114.35006v-1.66828l2.19909,0.07583l-0.07582,1.51662z"></path><path d="M130.76082,114.29316v-1.4976l1.9741,0.06807l-0.06806,1.36145z"></path></g></g><g><g><path d="M110.93585,117.4793v-2.29739l3.02837,0.10443l-0.10442,2.08853z"></path><path d="M114.79964,117.42241v-2.13895l2.81951,0.09722l-0.09722,1.9445z"></path><path d="M118.24571,117.4224v-2.04611l2.69714,0.09301l-0.09301,1.8601z"></path><path d="M121.68689,117.42241v-1.905l2.51113,0.08659l-0.08658,1.73182z"></path><path d="M124.95938,117.36551v-1.79186l2.36199,0.08145l-0.08145,1.62896z"></path><path d="M127.97295,117.36551v-1.66828l2.19909,0.07583l-0.07582,1.51662z"></path><path d="M130.76082,117.30862v-1.4976l1.9741,0.06808l-0.06806,1.36145z"></path></g><g><path d="M110.93585,120.43786v-2.29738l3.02837,0.10442l-0.10442,2.08854z"></path><path d="M114.79964,120.38097v-2.13895l2.81951,0.09723l-0.09722,1.9445z"></path><path d="M118.24571,120.38097v-2.04611l2.69714,0.09301l-0.09301,1.8601z"></path><path d="M121.68689,120.38097v-1.905l2.51113,0.08659l-0.08658,1.73181z"></path><path d="M124.95938,120.32407v-1.79186l2.36199,0.08145l-0.08145,1.62896z"></path><path d="M127.97295,120.32408v-1.66829l2.19909,0.07583l-0.07582,1.51662z"></path><path d="M130.76082,120.26718v-1.4976l1.9741,0.06807l-0.06806,1.36145z"></path></g><g><path d="M110.87895,123.28263v-2.29738l3.02837,0.10442l-0.10442,2.08854z"></path><path d="M114.74274,123.22574v-2.13895l2.81952,0.09722l-0.09722,1.9445z"></path><path d="M118.18882,123.22574v-2.04611l2.69714,0.09301l-0.093,1.8601z"></path><path d="M121.63,123.22574v-1.905l2.51113,0.08659l-0.08658,1.73181z"></path><path d="M124.90248,123.16884v-1.79186l2.36199,0.08145l-0.08145,1.62896z"></path><path d="M127.91605,123.16885v-1.66828l2.19909,0.07583l-0.07583,1.51662z"></path><path d="M130.7039,123.11195v-1.4976l1.9741,0.06808l-0.06806,1.36145z"></path></g><g><path d="M110.87895,126.2412v-2.29739l3.02837,0.10443l-0.10442,2.08853z"></path><path d="M114.74274,126.18431v-2.13895l2.81952,0.09723l-0.09722,1.94449z"></path><path d="M118.18882,126.1843v-2.04611l2.69714,0.093l-0.093,1.8601z"></path><path d="M121.63,126.18431v-1.905l2.51113,0.08659l-0.08658,1.73181z"></path><path d="M124.90248,126.12741v-1.79186l2.36199,0.08145l-0.08145,1.62896z"></path><path d="M127.91605,126.12741v-1.66828l2.19909,0.07583l-0.07583,1.51662z"></path><path d="M130.7039,126.07052v-1.4976l1.9741,0.06807l-0.06806,1.36145z"></path></g><g><path d="M110.76517,129.48423v-2.29738l3.02837,0.10442l-0.10443,2.08854z"></path><path d="M114.62895,129.42734v-2.13895l2.81951,0.09722l-0.09722,1.94449z"></path><path d="M118.07503,129.42734v-2.04611l2.69714,0.09301l-0.09301,1.8601z"></path><path d="M121.51621,129.42734v-1.905l2.51113,0.08659l-0.08658,1.73181z"></path><path d="M124.78869,129.37043v-1.79186l2.36199,0.08145l-0.08145,1.62896z"></path><path d="M127.80226,129.37043v-1.66828l2.19909,0.07583l-0.07583,1.51662z"></path><path d="M130.59009,129.31355v-1.4976l1.9741,0.06808l-0.06807,1.36145z"></path></g><g><path d="M110.76517,132.44278v-2.29738l3.02837,0.10442l-0.10443,2.08854z"></path><path d="M114.62895,132.38591v-2.13895l2.81951,0.09722l-0.09722,1.9445z"></path><path d="M118.07503,132.3859v-2.04611l2.69714,0.09301l-0.09301,1.8601z"></path><path d="M121.51621,132.38591v-1.905l2.51113,0.08659l-0.08658,1.73181z"></path><path d="M124.78869,132.32901v-1.79186l2.36199,0.08145l-0.08145,1.62896z"></path><path d="M127.80226,132.32901v-1.66828l2.19909,0.07583l-0.07583,1.51662z"></path><path d="M130.59009,132.27212v-1.4976l1.9741,0.06807l-0.06807,1.36145z"></path></g><g><path d="M110.70827,135.28757v-2.29738l3.02837,0.10442l-0.10443,2.08854z"></path><path d="M114.57205,135.23066v-2.13895l2.81951,0.09723l-0.09722,1.94449z"></path><path d="M118.01813,135.23066v-2.04611l2.69714,0.09301l-0.09301,1.8601z"></path><path d="M121.45931,135.23066v-1.905l2.51113,0.08659l-0.08658,1.73182z"></path><path d="M124.73179,135.17378v-1.79186l2.36199,0.08145l-0.08144,1.62896z"></path><path d="M127.74538,135.17378v-1.66828l2.19909,0.07583l-0.07583,1.51662z"></path><path d="M130.53323,135.11689v-1.4976l1.9741,0.06808l-0.06807,1.36145z"></path></g><g><path d="M110.70827,138.24613v-2.29738l3.02837,0.10442l-0.10443,2.08854z"></path><path d="M114.57205,138.18924v-2.13895l2.81951,0.09723l-0.09722,1.9445z"></path><path d="M118.01813,138.18924v-2.04611l2.69714,0.09301l-0.09301,1.8601z"></path><path d="M121.45931,138.18924v-1.905l2.51113,0.08659l-0.08658,1.73181z"></path><path d="M124.73179,138.13234v-1.79186l2.36199,0.08145l-0.08144,1.62896z"></path><path d="M127.74538,138.13234v-1.66829l2.19909,0.07583l-0.07583,1.51662z"></path><path d="M130.53323,138.07545v-1.4976l1.9741,0.06807l-0.06807,1.36145z"></path></g></g><g><g><path d="M110.76517,140.92022v-2.29739l3.02837,0.10443l-0.10443,2.08853z"></path><path d="M114.62895,140.86333v-2.13895l2.81951,0.09722l-0.09722,1.9445z"></path><path d="M118.07503,140.86332v-2.04611l2.69714,0.093l-0.09301,1.8601z"></path><path d="M121.51621,140.86333v-1.905l2.51113,0.08659l-0.08658,1.73182z"></path><path d="M124.78869,140.80641v-1.79186l2.36199,0.08145l-0.08145,1.62896z"></path><path d="M127.80226,140.80642v-1.66828l2.19909,0.07583l-0.07583,1.51662z"></path><path d="M130.59009,140.74954v-1.4976l1.9741,0.06807l-0.06807,1.36145z"></path></g><g><path d="M110.76517,143.87877v-2.29738l3.02837,0.10442l-0.10443,2.08854z"></path><path d="M114.62895,143.82189v-2.13895l2.81951,0.09723l-0.09722,1.94449z"></path><path d="M118.07503,143.82189v-2.04611l2.69714,0.09301l-0.09301,1.8601z"></path><path d="M121.51621,143.82189v-1.905l2.51113,0.08659l-0.08658,1.73182z"></path><path d="M124.78869,143.76499v-1.79186l2.36199,0.08145l-0.08145,1.62896z"></path><path d="M127.80226,143.765v-1.66828l2.19909,0.07583l-0.07583,1.51662z"></path><path d="M130.59009,143.70809v-1.4976l1.9741,0.06807l-0.06807,1.36145z"></path></g><g><path d="M110.70827,146.72355v-2.29739l3.02837,0.10442l-0.10443,2.08854z"></path><path d="M114.57205,146.66666v-2.13895l2.81951,0.09722l-0.09722,1.9445z"></path><path d="M118.01813,146.66664v-2.04611l2.69714,0.09301l-0.09301,1.8601z"></path><path d="M121.45931,146.66666v-1.905l2.51113,0.08659l-0.08658,1.73181z"></path><path d="M124.73179,146.60976v-1.79186l2.36199,0.08145l-0.08144,1.62896z"></path><path d="M127.74538,146.60977v-1.66828l2.19909,0.07583l-0.07583,1.51662z"></path><path d="M130.53323,146.55287v-1.4976l1.9741,0.06807l-0.06807,1.36145z"></path></g><g><path d="M110.70827,149.68212v-2.29739l3.02837,0.10443l-0.10443,2.08853z"></path><path d="M114.57205,149.62523v-2.13895l2.81951,0.09723l-0.09722,1.94449z"></path><path d="M118.01813,149.62522v-2.04611l2.69714,0.093l-0.09301,1.8601z"></path><path d="M121.45931,149.62523v-1.905l2.51113,0.08659l-0.08658,1.73182z"></path><path d="M124.73179,149.56832v-1.79186l2.36199,0.08145l-0.08144,1.62896z"></path><path d="M127.74538,149.56832v-1.66828l2.19909,0.07583l-0.07583,1.51662z"></path><path d="M130.53323,149.51144v-1.4976l1.9741,0.06807l-0.06807,1.36145z"></path></g><g><path d="M110.59448,152.92514v-2.29738l3.02837,0.10442l-0.10442,2.08854z"></path><path d="M114.45826,152.86826v-2.13895l2.81952,0.09723l-0.09722,1.94449z"></path><path d="M117.90434,152.86826v-2.04611l2.69714,0.09301l-0.093,1.8601z"></path><path d="M121.34552,152.86826v-1.905l2.51113,0.08659l-0.08658,1.73182z"></path><path d="M124.618,152.81136v-1.79186l2.36199,0.08145l-0.08145,1.62896z"></path><path d="M127.63158,152.81137v-1.66828l2.1991,0.07583l-0.07583,1.51662z"></path><path d="M130.41942,152.75447v-1.4976l1.9741,0.06808l-0.06806,1.36145z"></path></g><g><path d="M110.59448,155.88372v-2.29738l3.02837,0.10442l-0.10442,2.08854z"></path><path d="M114.45826,155.82683v-2.13895l2.81952,0.09723l-0.09722,1.94449z"></path><path d="M117.90434,155.82682v-2.04611l2.69714,0.09301l-0.093,1.8601z"></path><path d="M121.34552,155.82683v-1.905l2.51113,0.08659l-0.08658,1.73181z"></path><path d="M124.618,155.76993v-1.79186l2.36199,0.08145l-0.08145,1.62896z"></path><path d="M127.63158,155.76993v-1.66829l2.1991,0.07583l-0.07583,1.51662z"></path><path d="M130.41942,155.71302v-1.4976l1.9741,0.06807l-0.06806,1.36145z"></path></g><g><path d="M110.53758,158.72849v-2.29738l3.02837,0.10442l-0.10443,2.08854z"></path><path d="M114.40137,158.6716v-2.13895l2.81952,0.09723l-0.09722,1.94449z"></path><path d="M117.84746,158.67159v-2.04611l2.69714,0.09301l-0.093,1.8601z"></path><path d="M121.28863,158.6716v-1.905l2.51113,0.08659l-0.08658,1.73182z"></path><path d="M124.56111,158.6147v-1.79186l2.36199,0.08145l-0.08145,1.62896z"></path><path d="M127.57468,158.6147v-1.66828l2.1991,0.07583l-0.07583,1.51662z"></path><path d="M130.36256,158.55781v-1.4976l1.9741,0.06807l-0.06806,1.36145z"></path></g><g><path d="M110.53758,161.68705v-2.29738l3.02837,0.10442l-0.10443,2.08854z"></path><path d="M114.40137,161.63016v-2.13895l2.81952,0.09723l-0.09722,1.94449z"></path><path d="M117.84746,161.63016v-2.04611l2.69714,0.09301l-0.093,1.8601z"></path><path d="M121.28863,161.63016v-1.905l2.51113,0.08659l-0.08658,1.73182z"></path><path d="M124.56111,161.57325v-1.79186l2.36199,0.08145l-0.08145,1.62896z"></path><path d="M127.57468,161.57325v-1.66828l2.1991,0.07583l-0.07583,1.51662z"></path><path d="M130.36256,161.51637v-1.4976l1.9741,0.06808l-0.06806,1.36145z"></path></g></g></g><path d="M59.28711,162.17445l-0.05263,-58.10526c0,0 13.0625,-0.50926 19.27992,0.88792c0.42621,0.09578 2.36971,1.12176 2.8403,1.1352c5.85288,0.16715 16.14293,0.3453 16.14293,0.3453l-0.05263,55.73684z" fill="#adb6d2" stroke="#000000" stroke-width="0.25" stroke-linecap="butt"></path><g fill="#9e9e70" stroke="#000000" stroke-width="0.25" stroke-linecap="butt"><g><g><g><path d="M254.24806,105.86766v-2.33334h2.33334v2.33334z"></path><path d="M257.58137,105.86766v-2.33334h2.33334v2.33334z"></path><path d="M261.13694,105.86766v-2.33334h2.33334v2.33334z"></path><path d="M264.58137,105.86766v-2.33334h2.33334v2.33334z"></path><path d="M267.91472,105.86766v-2.33334h2.33334v2.33334z"></path><path d="M271.24805,105.97877v-2.33333h2.33334v2.33333z"></path><path d="M274.47029,105.97877v-2.33333h2.33334v2.33333z"></path><path d="M278.02583,105.97877v-2.33333h2.33334v2.33333z"></path><path d="M254.35917,109.3121v-2.33333h2.33334v2.33333z"></path><path d="M257.69248,109.3121v-2.33333h2.33334v2.33333z"></path><path d="M261.24805,109.3121v-2.33333h2.33334v2.33333z"></path><path d="M264.69248,109.3121v-2.33333h2.33334v2.33333z"></path><path d="M268.02583,109.3121v-2.33333h2.33334v2.33333z"></path><path d="M271.58137,109.3121v-2.33333h2.33334v2.33333z"></path><path d="M274.58137,109.42321v-2.33333h2.33334v2.33333z"></path><path d="M278.13694,109.42321v-2.33333h2.33334v2.33333z"></path></g><g><path d="M254.47028,112.97877v-2.33333h2.33333v2.33333z"></path><path d="M257.80357,112.97877v-2.33333h2.33334v2.33333z"></path><path d="M261.35916,112.97877v-2.33333h2.33334v2.33333z"></path><path d="M264.80357,112.97877v-2.33333h2.33334v2.33333z"></path><path d="M268.13694,112.97877v-2.33333h2.33334v2.33333z"></path><path d="M271.47029,113.08988v-2.33334h2.33334v2.33334z"></path><path d="M274.69248,113.08988v-2.33334h2.33334v2.33334z"></path><path d="M278.24805,113.08988v-2.33334h2.33334v2.33334z"></path><path d="M254.58137,116.42321v-2.33333h2.33333v2.33333z"></path><path d="M257.91468,116.42321v-2.33333h2.33334v2.33333z"></path><path d="M261.47028,116.42321v-2.33333h2.33333v2.33333z"></path><path d="M264.91468,116.42321v-2.33333h2.33334v2.33333z"></path><path d="M268.24805,116.42321v-2.33333h2.33334v2.33333z"></path><path d="M271.80359,116.42321v-2.33333h2.33334v2.33333z"></path><path d="M274.80359,116.53432v-2.33333h2.33334v2.33333z"></path><path d="M278.35916,116.53432v-2.33333h2.33334v2.33333z"></path></g></g><g><g><path d="M254.58139,119.97877v-2.33334h2.33334v2.33334z"></path><path d="M257.91468,119.97877v-2.33334h2.33334v2.33334z"></path><path d="M261.47029,119.97877v-2.33334h2.33334v2.33334z"></path><path d="M264.91468,119.97877v-2.33334h2.33334v2.33334z"></path><path d="M268.24805,119.97877v-2.33334h2.33334v2.33334z"></path><path d="M271.58137,120.08988v-2.33334h2.33333v2.33334z"></path><path d="M274.80359,120.08988v-2.33334h2.33334v2.33334z"></path><path d="M278.35916,120.08988v-2.33334h2.33334v2.33334z"></path><path d="M254.6925,123.42321v-2.33333h2.33334v2.33333z"></path><path d="M258.02581,123.42321v-2.33333h2.33334v2.33333z"></path><path d="M261.58137,123.42321v-2.33333h2.33334v2.33333z"></path><path d="M265.02581,123.42321v-2.33333h2.33334v2.33333z"></path><path d="M268.35916,123.42321v-2.33333h2.33334v2.33333z"></path><path d="M271.91472,123.42321v-2.33333h2.33334v2.33333z"></path><path d="M274.91472,123.53432v-2.33334h2.33334v2.33334z"></path><path d="M278.47029,123.53432v-2.33334h2.33334v2.33334z"></path></g><g><path d="M254.80358,127.08988v-2.33334h2.33334v2.33334z"></path><path d="M258.13694,127.08988v-2.33334h2.33334v2.33334z"></path><path d="M261.69248,127.08988v-2.33334h2.33334v2.33334z"></path><path d="M265.13694,127.08988v-2.33334h2.33334v2.33334z"></path><path d="M268.47029,127.08988v-2.33334h2.33334v2.33334z"></path><path d="M271.80359,127.20098v-2.33334h2.33334v2.33334z"></path><path d="M275.02583,127.20098v-2.33334h2.33334v2.33334z"></path><path d="M278.58137,127.20098v-2.33334h2.33334v2.33334z"></path><path d="M254.91469,130.53432v-2.33334h2.33334v2.33334z"></path><path d="M258.24805,130.53432v-2.33334h2.33334v2.33334z"></path><path d="M261.80357,130.53432v-2.33334h2.33334v2.33334z"></path><path d="M265.24805,130.53432v-2.33334h2.33334v2.33334z"></path><path d="M268.58137,130.53432v-2.33334h2.33334v2.33334z"></path><path d="M272.13694,130.53432v-2.33334h2.33334v2.33334z"></path><path d="M275.13694,130.64542v-2.33334h2.33334v2.33334z"></path><path d="M278.69248,130.64542v-2.33334h2.33334v2.33334z"></path></g></g></g><g><g><path d="M254.80358,134.08988v-2.33334h2.33334v2.33334z"></path><path d="M258.13694,134.08988v-2.33334h2.33334v2.33334z"></path><path d="M261.69248,134.08988v-2.33334h2.33334v2.33334z"></path><path d="M265.13694,134.08988v-2.33334h2.33334v2.33334z"></path><path d="M268.47029,134.08988v-2.33334h2.33334v2.33334z"></path><path d="M271.80359,134.20098v-2.33334h2.33334v2.33334z"></path><path d="M275.02583,134.20098v-2.33334h2.33334v2.33334z"></path><path d="M278.58137,134.20098v-2.33334h2.33334v2.33334z"></path><path d="M254.91469,137.53432v-2.33334h2.33334v2.33334z"></path><path d="M258.24805,137.53432v-2.33334h2.33334v2.33334z"></path><path d="M261.80357,137.53432v-2.33334h2.33334v2.33334z"></path><path d="M265.24805,137.53432v-2.33334h2.33334v2.33334z"></path><path d="M268.58137,137.53432v-2.33334h2.33334v2.33334z"></path><path d="M272.13694,137.53432v-2.33334h2.33334v2.33334z"></path><path d="M275.13694,137.64542v-2.33334h2.33334v2.33334z"></path><path d="M278.69248,137.64542v-2.33334h2.33334v2.33334z"></path></g><g><path d="M255.02582,141.20099v-2.33334h2.33333v2.33334z"></path><path d="M258.35916,141.20099v-2.33334h2.33334v2.33334z"></path><path d="M261.91468,141.20099v-2.33334h2.33334v2.33334z"></path><path d="M265.35916,141.20099v-2.33334h2.33334v2.33334z"></path><path d="M268.69248,141.20099v-2.33334h2.33334v2.33334z"></path><path d="M272.02583,141.3121v-2.33333h2.33334v2.33333z"></path><path d="M275.24805,141.3121v-2.33333h2.33334v2.33333z"></path><path d="M278.80359,141.3121v-2.33333h2.33334v2.33333z"></path><path d="M255.13695,144.64543v-2.33334h2.33334v2.33334z"></path><path d="M258.47028,144.64543v-2.33334h2.33333v2.33334z"></path><path d="M262.02581,144.64543v-2.33334h2.33333v2.33334z"></path><path d="M265.47028,144.64543v-2.33334h2.33333v2.33334z"></path><path d="M268.80359,144.64543v-2.33334h2.33334v2.33334z"></path><path d="M272.35916,144.64543v-2.33334h2.33334v2.33334z"></path><path d="M275.35916,144.75654v-2.33333h2.33334v2.33333z"></path><path d="M278.91472,144.75654v-2.33333h2.33334v2.33333z"></path></g></g><g><g><path d="M255.13695,148.20099v-2.33334h2.33334v2.33334z"></path><path d="M258.47029,148.20099v-2.33334h2.33334v2.33334z"></path><path d="M262.02581,148.20099v-2.33334h2.33334v2.33334z"></path><path d="M265.47029,148.20099v-2.33334h2.33334v2.33334z"></path><path d="M268.80359,148.20099v-2.33334h2.33334v2.33334z"></path><path d="M272.13694,148.3121v-2.33333h2.33333v2.33333z"></path><path d="M275.35916,148.3121v-2.33333h2.33334v2.33333z"></path><path d="M278.91472,148.3121v-2.33333h2.33334v2.33333z"></path><path d="M255.24806,151.64543v-2.33334h2.33334v2.33334z"></path><path d="M258.58137,151.64543v-2.33334h2.33334v2.33334z"></path><path d="M262.13694,151.64543v-2.33334h2.33334v2.33334z"></path><path d="M265.58137,151.64543v-2.33334h2.33334v2.33334z"></path><path d="M268.91472,151.64543v-2.33334h2.33334v2.33334z"></path><path d="M272.47029,151.64543v-2.33334h2.33334v2.33334z"></path><path d="M275.47029,151.75654v-2.33333h2.33334v2.33333z"></path><path d="M279.02583,151.75654v-2.33333h2.33334v2.33333z"></path></g><g><path d="M255.35917,155.3121v-2.33333h2.33334v2.33333z"></path><path d="M258.69248,155.3121v-2.33333h2.33334v2.33333z"></path><path d="M262.24805,155.3121v-2.33333h2.33334v2.33333z"></path><path d="M265.69248,155.3121v-2.33333h2.33334v2.33333z"></path><path d="M269.02583,155.3121v-2.33333h2.33334v2.33333z"></path><path d="M272.35916,155.42321v-2.33334h2.33334v2.33334z"></path><path d="M275.58137,155.42321v-2.33334h2.33334v2.33334z"></path><path d="M279.13694,155.42321v-2.33334h2.33334v2.33334z"></path><path d="M255.47028,158.75654v-2.33333h2.33333v2.33333z"></path><path d="M258.80357,158.75654v-2.33333h2.33334v2.33333z"></path><path d="M262.35916,158.75654v-2.33333h2.33334v2.33333z"></path><path d="M265.80357,158.75654v-2.33333h2.33334v2.33333z"></path><path d="M269.13694,158.75654v-2.33333h2.33334v2.33333z"></path><path d="M272.69248,158.75654v-2.33333h2.33334v2.33333z"></path><path d="M275.69248,158.86765v-2.33333h2.33334v2.33333z"></path><path d="M279.24805,158.86765v-2.33333h2.33334v2.33333z"></path></g></g></g><path d="M182.26409,135.28627v-3.125h24.625v3.125z" fill="#2c2923" stroke="none" stroke-width="0" stroke-linecap="butt"></path><path d="M182.26409,142.28627v-3.125h24.625v3.125z" fill="#2c2923" stroke="none" stroke-width="0" stroke-linecap="butt"></path><path d="M182.26409,148.28627v-3.125h24.625v3.125z" fill="#2c2923" stroke="none" stroke-width="0" stroke-linecap="butt"></path><path d="M182.26409,155.28627v-3.125h24.625v3.125z" fill="#2c2923" stroke="none" stroke-width="0" stroke-linecap="butt"></path><path d="M334.96646,166.28734v-38.375h30.625v38.375z" fill="#677e87" stroke="#000000" stroke-width="0.25" stroke-linecap="butt"></path><g fill="#000000" stroke="none" stroke-width="0" stroke-linecap="butt"><path d="M337.13909,134.20996v-2.5h3.25v2.5z"></path><path d="M342.0617,134.23972v-2.5h3.25v2.5z"></path><path d="M347.09147,134.3052v-2.5h3.25v2.5z"></path><path d="M352.01409,134.33496v-2.5h3.25v2.5z"></path><path d="M356.37718,134.3052v-2.5h3.25v2.5z"></path><path d="M361.29979,134.33496v-2.5h3.25v2.5z"></path></g><g fill="#000000" stroke="none" stroke-width="0" stroke-linecap="butt"><path d="M337.09147,138.5433v-2.5h3.25v2.5z"></path><path d="M342.01409,138.57306v-2.5h3.25v2.5z"></path><path d="M347.04385,138.63853v-2.5h3.25v2.5z"></path><path d="M351.96647,138.6683v-2.5h3.25v2.5z"></path><path d="M356.32956,138.63853v-2.5h3.25v2.5z"></path><path d="M361.25218,138.6683v-2.5h3.25v2.5z"></path></g><g fill="#000000" stroke="none" stroke-width="0" stroke-linecap="butt"><path d="M336.94861,142.63853v-2.5h3.25v2.5z"></path><path d="M341.87123,142.66829v-2.5h3.25v2.5z"></path><path d="M346.90097,142.73377v-2.5h3.25v2.5z"></path><path d="M351.82361,142.76353v-2.5h3.25v2.5z"></path><path d="M356.1867,142.73377v-2.5h3.25v2.5z"></path><path d="M361.10933,142.76353v-2.5h3.25v2.5z"></path></g><g fill="#000000" stroke="none" stroke-width="0" stroke-linecap="butt"><path d="M336.90097,146.97187v-2.5h3.25v2.5z"></path><path d="M341.82361,147.00162v-2.5h3.25v2.5z"></path><path d="M346.85337,147.06711v-2.5h3.25v2.5z"></path><path d="M351.77597,147.09687v-2.5h3.25v2.5z"></path><path d="M356.13909,147.06711v-2.5h3.25v2.5z"></path><path d="M361.0617,147.09687v-2.5h3.25v2.5z"></path></g><g fill="#000000" stroke="none" stroke-width="0" stroke-linecap="butt"><path d="M336.90097,151.01949v-2.5h3.25v2.5z"></path><path d="M341.82361,151.04925v-2.5h3.25v2.5z"></path><path d="M346.85337,151.11473v-2.5h3.25v2.5z"></path><path d="M351.77597,151.14449v-2.5h3.25v2.5z"></path><path d="M356.13909,151.11473v-2.5h3.25v2.5z"></path><path d="M361.0617,151.14449v-2.5h3.25v2.5z"></path></g><g fill="#000000" stroke="none" stroke-width="0" stroke-linecap="butt"><path d="M336.85337,155.35282v-2.5h3.25v2.5z"></path><path d="M341.77597,155.38258v-2.5h3.25v2.5z"></path><path d="M346.80575,155.44806v-2.5h3.25v2.5z"></path><path d="M351.72837,155.47782v-2.5h3.25v2.5z"></path><path d="M356.09147,155.44806v-2.5h3.25v2.5z"></path><path d="M361.01409,155.47782v-2.5h3.25v2.5z"></path></g><g fill="#000000" stroke="none" stroke-width="0" stroke-linecap="butt"><path d="M336.71052,159.44806v-2.5h3.25v2.5z"></path><path d="M341.63314,159.47782v-2.5h3.25v2.5z"></path><path d="M346.66288,159.5433v-2.5h3.25v2.5z"></path><path d="M351.58552,159.57306v-2.5h3.25v2.5z"></path><path d="M355.94861,159.5433v-2.5h3.25v2.5z"></path><path d="M360.87123,159.57306v-2.5h3.25v2.5z"></path></g><g fill="#000000" stroke="none" stroke-width="0" stroke-linecap="butt"><path d="M336.66288,163.78139v-2.5h3.25v2.5z"></path><path d="M341.58552,163.81115v-2.5h3.25v2.5z"></path><path d="M346.61528,163.87663v-2.5h3.25v2.5z"></path><path d="M351.53788,163.90639v-2.5h3.25v2.5z"></path><path d="M355.90097,163.87663v-2.5h3.25v2.5z"></path><path d="M360.82361,163.90639v-2.5h3.25v2.5z"></path></g><path d="M378.30575,152.22782v-18.85714h18.85715v18.85714z" fill="#816a59" stroke="#000000" stroke-width="0.25" stroke-linecap="butt"></path><path d="M379.78194,152.22782v-18.85714h2.33334v18.85714z" fill="#000000" stroke="none" stroke-width="0" stroke-linecap="butt"></path><path d="M383.44861,152.27543v-18.90476h2.33333v18.90476z" fill="#000000" stroke="none" stroke-width="0" stroke-linecap="butt"></path><path d="M387.16288,152.22782v-18.85714h2.33333v18.85714z" fill="#000000" stroke="none" stroke-width="0" stroke-linecap="butt"></path><path d="M390.78194,152.22782v-18.85714h2.33334v18.85714z" fill="#000000" stroke="none" stroke-width="0" stroke-linecap="butt"></path><path d="M394.06766,152.22782v-18.85714h2.33333v18.85714z" fill="#000000" stroke="none" stroke-width="0" stroke-linecap="butt"></path><g stroke-linecap="butt"><path d="M406.98198,67.12996l0.08637,-1.88542l24.25644,-7.21138c0,0 7.6175,1.62682 9.53175,2.41983c1.03938,0.43059 1.03349,1.95705 1.03349,1.95705l-10.97687,-1.67325z" fill="url(#color-5)" stroke="none" stroke-width="0"></path><g stroke="#000000" stroke-width="0.25"><path d="M412.24048,70.36828v-2.33259l19.23863,-5.0768c0,0 6.15163,0.3945 6.15094,0.47683c-0.00154,0.18333 -0.00745,1.50474 -0.00745,1.50474l-5.66325,0.28242z" fill="#3a3a3a"></path><path d="M404.86404,172.02725l-0.75,-99.5l30.75,-8l13.79182,1.74448l-1.86815,105.28028l-13.17367,0.22524z" fill="#232323"></path><g fill="#979797"><path d="M403.86404,75.77724v-3.06395l30.31295,-8.40458l14.4474,1.78504l0.13185,3.94718l-14.67367,-1.48804z"></path><path d="M403.86404,82.7701v-3.06395l30.31295,-8.40458l14.4474,1.78504l0.13185,3.94718l-14.67367,-1.48804z"></path><path d="M403.86404,90.41853v-3.06395l30.31295,-8.40457l14.4474,1.78504l0.13185,3.94719l-14.67367,-1.48804z"></path><path d="M403.86404,97.41138v-3.06395l30.31295,-8.40457l14.4474,1.78504l0.13185,3.94719l-14.67367,-1.48804z"></path><path d="M403.86404,105.49686v-3.06395l30.31295,-8.40458l14.4474,1.78504l0.13185,3.94718l-14.67367,-1.48804z"></path><path d="M403.86404,112.48971v-3.06395l30.31295,-8.40457l14.4474,1.78504l0.13185,3.94719l-14.67367,-1.48804z"></path><path d="M403.86404,120.13814v-3.06395l30.31295,-8.40457l14.4474,1.78504l0.13185,3.94719l-14.67367,-1.48804z"></path><path d="M403.86404,127.13099v-3.06395l30.31295,-8.40458l14.4474,1.78504l0.13185,3.94718l-14.67367,-1.48804z"></path></g><path d="M403.42698,134.99795v-3.06395l30.31295,-8.40458l14.4474,1.78504l0.13185,3.94719l-14.67367,-1.48804z" fill="#979797"></path><path d="M403.42698,141.9908v-3.06395l30.31295,-8.40457l14.4474,1.78504l0.13185,3.94719l-14.67367,-1.48804z" fill="#979797"></path><path d="M403.42698,149.63923v-3.06395l30.31295,-8.40457l14.4474,1.78504l0.13185,3.94718l-14.67367,-1.48804z" fill="#979797"></path><path d="M403.42698,156.63208v-3.06395l30.31295,-8.40457l14.4474,1.78504l0.13185,3.94718l-14.67367,-1.48804z" fill="#979797"></path><path d="M403.42698,164.71754v-3.06395l30.31295,-8.40458l14.4474,1.78504l0.13185,3.94718l-14.67367,-1.48804z" fill="#979797"></path><path d="M407.60679,67.12996l0.08637,-1.88542l24.25644,-7.21138c0,0 7.6175,1.62682 9.53175,2.41983c1.03938,0.43059 1.03349,1.95705 1.03349,1.95705l-10.97687,-1.67325z" fill="url(#color-6)"></path><path d="M408.97887,66.78693l0.08116,-1.77168l22.79296,-6.77629c0,0 7.15791,1.52866 8.95667,2.27384c0.97667,0.4046 0.97114,1.83897 0.97114,1.83897l-10.31459,-1.5723z" fill-opacity="0.53226" fill="#ff0000"></path><path d="M409.2218,68.1043l-1.71514,-0.96048l24.62936,-6.92915c0,0 11.06158,1.80134 10.53115,2.19656c-0.21523,0.16037 -1.68223,1.80213 -1.68223,1.80213l-9.53498,-1.04866l-18.88264,5.00417z" fill="#ababab"></path></g></g><g stroke-linecap="butt"><path d="M32.62743,124.88913v-26.625h10.375v26.625z" fill="#6a86a6" stroke="none" stroke-width="0"></path><g><path d="M32.12743,161.84802v-68.79167h11.375v68.79167z" fill="#3d4d5f" stroke="#000000" stroke-width="0.25"></path><path d="M12.97873,107.55792c0,-14.8174 12.01188,-26.82926 26.82927,-26.82926c14.81739,0 26.82926,12.01186 26.82926,26.82926c0,14.8174 -12.01188,26.82927 -26.82926,26.82927c-14.81739,0 -26.82927,-12.01186 -26.82927,-26.82927z" fill="url(#color-7)" stroke="none" stroke-width="0"></path></g></g><g fill="#9e9e70" stroke="#000000" stroke-width="0.25" stroke-linecap="butt"><g><g><g><path d="M61.80578,110.85763v-2.41624h2.94962v2.41624z"></path><path d="M66.01951,110.85763v-2.41624h2.94962v2.41624z"></path><path d="M70.51415,110.85763v-2.41624h2.94962v2.41624z"></path><path d="M74.86834,110.85763v-2.41624h2.94962v2.41624z"></path><path d="M79.08206,110.85763v-2.41624h2.94962v2.41624z"></path><path d="M83.29577,110.97268v-2.41623h2.94962v2.41623z"></path><path d="M87.36906,110.97268v-2.41623h2.94962v2.41623z"></path><path d="M91.86369,110.97268v-2.41623h2.94962v2.41623z"></path><path d="M61.94623,114.42444v-2.41623h2.94962v2.41623z"></path><path d="M66.15997,114.42444v-2.41623h2.94962v2.41623z"></path><path d="M70.6546,114.42444v-2.41623h2.94962v2.41623z"></path><path d="M75.00879,114.42444v-2.41623h2.94962v2.41623z"></path><path d="M79.22251,114.42444v-2.41623h2.94962v2.41623z"></path><path d="M83.71716,114.42444v-2.41623h2.94962v2.41623z"></path><path d="M87.50951,114.5395v-2.41623h2.94962v2.41623z"></path><path d="M92.00416,114.5395v-2.41623h2.94962v2.41623z"></path></g><g><path d="M62.08669,118.22138v-2.41623h2.9496v2.41623z"></path><path d="M66.30039,118.22138v-2.41623h2.94962v2.41623z"></path><path d="M70.79506,118.22138v-2.41623h2.94962v2.41623z"></path><path d="M75.1492,118.22138v-2.41623h2.94962v2.41623z"></path><path d="M79.36297,118.22138v-2.41623h2.94962v2.41623z"></path><path d="M83.5767,118.33643v-2.41624h2.94962v2.41624z"></path><path d="M87.64997,118.33643v-2.41624h2.94962v2.41624z"></path><path d="M92.1446,118.33643v-2.41624h2.94962v2.41624z"></path><path d="M62.22715,121.78819v-2.41623h2.9496v2.41623z"></path><path d="M66.44084,121.78819v-2.41623h2.94962v2.41623z"></path><path d="M70.93551,121.78819v-2.41623h2.9496v2.41623z"></path><path d="M75.28967,121.78819v-2.41623h2.94962v2.41623z"></path><path d="M79.50343,121.78819v-2.41623h2.94962v2.41623z"></path><path d="M83.99807,121.78819v-2.41623h2.94962v2.41623z"></path><path d="M87.79043,121.90325v-2.41623h2.94962v2.41623z"></path><path d="M92.28506,121.90325v-2.41623h2.94962v2.41623z"></path></g></g><g><g><path d="M62.22716,125.47007v-2.41624h2.94962v2.41624z"></path><path d="M66.44084,125.47007v-2.41624h2.94962v2.41624z"></path><path d="M70.93553,125.47007v-2.41624h2.94962v2.41624z"></path><path d="M75.28967,125.47007v-2.41624h2.94962v2.41624z"></path><path d="M79.50344,125.47007v-2.41624h2.94962v2.41624z"></path><path d="M83.71716,125.58513v-2.41624h2.9496v2.41624z"></path><path d="M87.79043,125.58513v-2.41624h2.94962v2.41624z"></path><path d="M92.28507,125.58513v-2.41624h2.94962v2.41624z"></path><path d="M62.36762,129.03689v-2.41623h2.94962v2.41623z"></path><path d="M66.58131,129.03689v-2.41623h2.94962v2.41623z"></path><path d="M71.07598,129.03689v-2.41623h2.94962v2.41623z"></path><path d="M75.43014,129.03689v-2.41623h2.94962v2.41623z"></path><path d="M79.64389,129.03689v-2.41623h2.94962v2.41623z"></path><path d="M84.13853,129.03689v-2.41623h2.94962v2.41623z"></path><path d="M87.93088,129.15194v-2.41624h2.94962v2.41624z"></path><path d="M92.42554,129.15194v-2.41624h2.94962v2.41624z"></path></g><g><path d="M62.50803,132.83382v-2.41624h2.94962v2.41624z"></path><path d="M66.72179,132.83382v-2.41624h2.94962v2.41624z"></path><path d="M71.21644,132.83382v-2.41624h2.94962v2.41624z"></path><path d="M75.57062,132.83382v-2.41624h2.94962v2.41624z"></path><path d="M79.78435,132.83382v-2.41624h2.94962v2.41624z"></path><path d="M83.99807,132.94887v-2.41624h2.94962v2.41624z"></path><path d="M88.07134,132.94887v-2.41624h2.94962v2.41624z"></path><path d="M92.56598,132.94887v-2.41624h2.94962v2.41624z"></path><path d="M62.64849,136.40064v-2.41624h2.94962v2.41624z"></path><path d="M66.86225,136.40064v-2.41624h2.94962v2.41624z"></path><path d="M71.35686,136.40064v-2.41624h2.94962v2.41624z"></path><path d="M75.71107,136.40064v-2.41624h2.94962v2.41624z"></path><path d="M79.92481,136.40064v-2.41624h2.94962v2.41624z"></path><path d="M84.41945,136.40064v-2.41624h2.94962v2.41624z"></path><path d="M88.2118,136.51568v-2.41624h2.94962v2.41624z"></path><path d="M92.70644,136.51568v-2.41624h2.94962v2.41624z"></path></g></g></g><g><g><path d="M62.50803,140.08252v-2.41624h2.94962v2.41624z"></path><path d="M66.72179,140.08252v-2.41624h2.94962v2.41624z"></path><path d="M71.21644,140.08252v-2.41624h2.94962v2.41624z"></path><path d="M75.57062,140.08252v-2.41624h2.94962v2.41624z"></path><path d="M79.78435,140.08252v-2.41624h2.94962v2.41624z"></path><path d="M83.99807,140.19757v-2.41624h2.94962v2.41624z"></path><path d="M88.07134,140.19757v-2.41624h2.94962v2.41624z"></path><path d="M92.56598,140.19757v-2.41624h2.94962v2.41624z"></path><path d="M62.64849,143.64933v-2.41624h2.94962v2.41624z"></path><path d="M66.86225,143.64933v-2.41624h2.94962v2.41624z"></path><path d="M71.35686,143.64933v-2.41624h2.94962v2.41624z"></path><path d="M75.71107,143.64933v-2.41624h2.94962v2.41624z"></path><path d="M79.92481,143.64933v-2.41624h2.94962v2.41624z"></path><path d="M84.41945,143.64933v-2.41624h2.94962v2.41624z"></path><path d="M88.2118,143.76438v-2.41624h2.94962v2.41624z"></path><path d="M92.70644,143.76438v-2.41624h2.94962v2.41624z"></path></g><g><path d="M62.78896,147.44627v-2.41624h2.9496v2.41624z"></path><path d="M67.0027,147.44627v-2.41624h2.94962v2.41624z"></path><path d="M71.49731,147.44627v-2.41624h2.94962v2.41624z"></path><path d="M75.85153,147.44627v-2.41624h2.94962v2.41624z"></path><path d="M80.06526,147.44627v-2.41624h2.94962v2.41624z"></path><path d="M84.27898,147.56133v-2.41623h2.94962v2.41623z"></path><path d="M88.35225,147.56133v-2.41623h2.94962v2.41623z"></path><path d="M92.8469,147.56133v-2.41623h2.94962v2.41623z"></path><path d="M62.92944,151.01308v-2.41624h2.94962v2.41624z"></path><path d="M67.14316,151.01308v-2.41624h2.9496v2.41624z"></path><path d="M71.63778,151.01308v-2.41624h2.9496v2.41624z"></path><path d="M75.99198,151.01308v-2.41624h2.9496v2.41624z"></path><path d="M80.20572,151.01308v-2.41624h2.94962v2.41624z"></path><path d="M84.70035,151.01308v-2.41624h2.94962v2.41624z"></path><path d="M88.49271,151.12814v-2.41623h2.94962v2.41623z"></path><path d="M92.98735,151.12814v-2.41623h2.94962v2.41623z"></path></g></g><g><g><path d="M62.92944,154.69497v-2.41624h2.94962v2.41624z"></path><path d="M67.14317,154.69497v-2.41624h2.94962v2.41624z"></path><path d="M71.63778,154.69497v-2.41624h2.94962v2.41624z"></path><path d="M75.992,154.69497v-2.41624h2.94962v2.41624z"></path><path d="M80.20572,154.69497v-2.41624h2.94962v2.41624z"></path><path d="M84.41945,154.81002v-2.41623h2.9496v2.41623z"></path><path d="M88.49272,154.81002v-2.41623h2.94962v2.41623z"></path><path d="M92.98735,154.81002v-2.41623h2.94962v2.41623z"></path><path d="M63.0699,158.26178v-2.41624h2.94962v2.41624z"></path><path d="M67.28363,158.26178v-2.41624h2.94962v2.41624z"></path><path d="M71.77826,158.26178v-2.41624h2.94962v2.41624z"></path><path d="M76.13245,158.26178v-2.41624h2.94962v2.41624z"></path><path d="M80.34618,158.26178v-2.41624h2.94962v2.41624z"></path><path d="M84.84083,158.26178v-2.41624h2.94962v2.41624z"></path><path d="M88.63318,158.37684v-2.41623h2.94962v2.41623z"></path><path d="M93.12781,158.37684v-2.41623h2.94962v2.41623z"></path></g><g><path d="M63.21035,162.05872v-2.41623h2.94962v2.41623z"></path><path d="M67.42409,162.05872v-2.41623h2.94962v2.41623z"></path><path d="M71.91872,162.05872v-2.41623h2.94962v2.41623z"></path><path d="M76.27291,162.05872v-2.41623h2.94962v2.41623z"></path><path d="M80.48663,162.05872v-2.41623h2.94962v2.41623z"></path><path d="M84.70037,162.17377v-2.41624h2.94962v2.41624z"></path><path d="M88.77363,162.17377v-2.41624h2.94962v2.41624z"></path><path d="M93.26826,162.17377v-2.41624h2.94962v2.41624z"></path><path d="M63.35081,165.62553v-2.41623h2.9496v2.41623z"></path><path d="M67.5645,165.62553v-2.41623h2.94962v2.41623z"></path><path d="M72.05918,165.62553v-2.41623h2.94962v2.41623z"></path><path d="M76.41333,165.62553v-2.41623h2.94962v2.41623z"></path><path d="M80.62709,165.62553v-2.41623h2.94962v2.41623z"></path><path d="M85.12173,165.62553v-2.41623h2.94962v2.41623z"></path><path d="M88.91409,165.74059v-2.41623h2.94962v2.41623z"></path><path d="M93.40872,165.74059v-2.41623h2.94962v2.41623z"></path></g></g></g><path d="M469.61861,168.12856v-73.72788h29.36619v73.72788z" fill="#000000" stroke="#000000" stroke-width="0.25" stroke-linecap="butt"></path><path d="M-21.48405,186.87294v-73.72788h26.24213v73.72788z" fill="#000000" stroke="#000000" stroke-width="0.25" stroke-linecap="butt"></path></g></g></svg>