<svg version="1.1" xmlns="http://www.w3.org/2000/svg" xmlns:xlink="http://www.w3.org/1999/xlink" width="118.19221" height="118.92792" viewBox="0,0,118.19221,118.92792"><defs><radialGradient cx="230.37278" cy="175.43479" r="12.09543" gradientUnits="userSpaceOnUse" id="color-1"><stop offset="0" stop-color="#000000"></stop><stop offset="1" stop-color="#2d2d2d"></stop></radialGradient><radialGradient cx="228.38093" cy="177.70392" r="12.09546" gradientUnits="userSpaceOnUse" id="color-2"><stop offset="0" stop-color="#000000"></stop><stop offset="1" stop-color="#2d2d2d"></stop></radialGradient><radialGradient cx="229.00438" cy="175.39037" r="12.09545" gradientUnits="userSpaceOnUse" id="color-3"><stop offset="0" stop-color="#000000"></stop><stop offset="1" stop-color="#2d2d2d"></stop></radialGradient><radialGradient cx="229.29113" cy="178.39605" r="12.09547" gradientUnits="userSpaceOnUse" id="color-4"><stop offset="0" stop-color="#000000"></stop><stop offset="1" stop-color="#2d2d2d"></stop></radialGradient><radialGradient cx="231.00197" cy="184.92925" r="12.09544" gradientUnits="userSpaceOnUse" id="color-5"><stop offset="0" stop-color="#000000"></stop><stop offset="1" stop-color="#2d2d2d"></stop></radialGradient><radialGradient cx="229.00758" cy="182.66234" r="12.09546" gradientUnits="userSpaceOnUse" id="color-6"><stop offset="0" stop-color="#000000"></stop><stop offset="1" stop-color="#2d2d2d"></stop></radialGradient><radialGradient cx="229.63362" cy="184.97519" r="12.09546" gradientUnits="userSpaceOnUse" id="color-7"><stop offset="0" stop-color="#000000"></stop><stop offset="1" stop-color="#2d2d2d"></stop></radialGradient><radialGradient cx="229.917" cy="181.96918" r="12.09547" gradientUnits="userSpaceOnUse" id="color-8"><stop offset="0" stop-color="#000000"></stop><stop offset="1" stop-color="#2d2d2d"></stop></radialGradient><radialGradient cx="244.6735" cy="170.73411" r="12.09543" gradientUnits="userSpaceOnUse" id="color-9"><stop offset="0" stop-color="#000000"></stop><stop offset="1" stop-color="#2d2d2d"></stop></radialGradient><radialGradient cx="242.40547" cy="168.74096" r="12.09545" gradientUnits="userSpaceOnUse" id="color-10"><stop offset="0" stop-color="#000000"></stop><stop offset="1" stop-color="#2d2d2d"></stop></radialGradient><radialGradient cx="244.71866" cy="169.36572" r="12.09546" gradientUnits="userSpaceOnUse" id="color-11"><stop offset="0" stop-color="#000000"></stop><stop offset="1" stop-color="#2d2d2d"></stop></radialGradient><radialGradient cx="241.71282" cy="169.65079" r="12.09547" gradientUnits="userSpaceOnUse" id="color-12"><stop offset="0" stop-color="#000000"></stop><stop offset="1" stop-color="#2d2d2d"></stop></radialGradient><radialGradient cx="235.17869" cy="171.35796" r="12.09543" gradientUnits="userSpaceOnUse" id="color-13"><stop offset="0" stop-color="#000000"></stop><stop offset="1" stop-color="#2d2d2d"></stop></radialGradient><radialGradient cx="237.4467" cy="169.36483" r="12.09546" gradientUnits="userSpaceOnUse" id="color-14"><stop offset="0" stop-color="#000000"></stop><stop offset="1" stop-color="#2d2d2d"></stop></radialGradient><radialGradient cx="235.13352" cy="169.98957" r="12.09545" gradientUnits="userSpaceOnUse" id="color-15"><stop offset="0" stop-color="#000000"></stop><stop offset="1" stop-color="#2d2d2d"></stop></radialGradient><radialGradient cx="238.13935" cy="170.27465" r="12.09547" gradientUnits="userSpaceOnUse" id="color-16"><stop offset="0" stop-color="#000000"></stop><stop offset="1" stop-color="#2d2d2d"></stop></radialGradient><radialGradient cx="235.32651" cy="189.26593" r="12.09543" gradientUnits="userSpaceOnUse" id="color-17"><stop offset="0" stop-color="#000000"></stop><stop offset="1" stop-color="#2d2d2d"></stop></radialGradient><radialGradient cx="237.59454" cy="191.25904" r="12.09546" gradientUnits="userSpaceOnUse" id="color-18"><stop offset="0" stop-color="#000000"></stop><stop offset="1" stop-color="#2d2d2d"></stop></radialGradient><radialGradient cx="235.28135" cy="190.63431" r="12.09545" gradientUnits="userSpaceOnUse" id="color-19"><stop offset="0" stop-color="#000000"></stop><stop offset="1" stop-color="#2d2d2d"></stop></radialGradient><radialGradient cx="238.28719" cy="190.34924" r="12.09547" gradientUnits="userSpaceOnUse" id="color-20"><stop offset="0" stop-color="#000000"></stop><stop offset="1" stop-color="#2d2d2d"></stop></radialGradient><radialGradient cx="244.82132" cy="188.64205" r="12.09543" gradientUnits="userSpaceOnUse" id="color-21"><stop offset="0" stop-color="#000000"></stop><stop offset="1" stop-color="#2d2d2d"></stop></radialGradient><radialGradient cx="242.55331" cy="190.63518" r="12.09545" gradientUnits="userSpaceOnUse" id="color-22"><stop offset="0" stop-color="#000000"></stop><stop offset="1" stop-color="#2d2d2d"></stop></radialGradient><radialGradient cx="244.86649" cy="190.01042" r="12.09546" gradientUnits="userSpaceOnUse" id="color-23"><stop offset="0" stop-color="#000000"></stop><stop offset="1" stop-color="#2d2d2d"></stop></radialGradient><radialGradient cx="241.86066" cy="189.72537" r="12.09547" gradientUnits="userSpaceOnUse" id="color-24"><stop offset="0" stop-color="#000000"></stop><stop offset="1" stop-color="#2d2d2d"></stop></radialGradient><radialGradient cx="249.62724" cy="184.56523" r="12.09543" gradientUnits="userSpaceOnUse" id="color-25"><stop offset="0" stop-color="#000000"></stop><stop offset="1" stop-color="#2d2d2d"></stop></radialGradient><radialGradient cx="251.61909" cy="182.2961" r="12.09546" gradientUnits="userSpaceOnUse" id="color-26"><stop offset="0" stop-color="#000000"></stop><stop offset="1" stop-color="#2d2d2d"></stop></radialGradient><radialGradient cx="250.99564" cy="184.60964" r="12.09545" gradientUnits="userSpaceOnUse" id="color-27"><stop offset="0" stop-color="#000000"></stop><stop offset="1" stop-color="#2d2d2d"></stop></radialGradient><radialGradient cx="250.70888" cy="181.60396" r="12.09547" gradientUnits="userSpaceOnUse" id="color-28"><stop offset="0" stop-color="#000000"></stop><stop offset="1" stop-color="#2d2d2d"></stop></radialGradient><radialGradient cx="248.99804" cy="175.07078" r="12.09543" gradientUnits="userSpaceOnUse" id="color-29"><stop offset="0" stop-color="#000000"></stop><stop offset="1" stop-color="#2d2d2d"></stop></radialGradient><radialGradient cx="250.99243" cy="177.33765" r="12.09546" gradientUnits="userSpaceOnUse" id="color-30"><stop offset="0" stop-color="#000000"></stop><stop offset="1" stop-color="#2d2d2d"></stop></radialGradient><radialGradient cx="250.3664" cy="175.02482" r="12.09545" gradientUnits="userSpaceOnUse" id="color-31"><stop offset="0" stop-color="#000000"></stop><stop offset="1" stop-color="#2d2d2d"></stop></radialGradient><radialGradient cx="250.08301" cy="178.03083" r="12.09548" gradientUnits="userSpaceOnUse" id="color-32"><stop offset="0" stop-color="#000000"></stop><stop offset="1" stop-color="#2d2d2d"></stop></radialGradient></defs><g transform="translate(-182.04676,-119.00892)"><g data-paper-data="{&quot;isPaintingLayer&quot;:true}" fill-rule="nonzero" stroke-linejoin="miter" stroke-miterlimit="10" stroke-dasharray="" stroke-dashoffset="0" style="mix-blend-mode: normal"><g><g fill="none" stroke-width="0.35" stroke-linecap="round"><g><g><path d="M237.91719,185.57138l-17.42018,-23.84843" stroke="url(#color-1)"></path><path d="M237.76541,186.16559l-21.7557,-19.97245" stroke="url(#color-2)"></path><path d="M241.55631,176.84566l-29.30506,-3.66388" stroke="url(#color-3)"></path><path d="M241.88484,177.36353l-29.4549,2.14956" stroke="url(#color-4)"></path></g><g data-paper-data="{&quot;index&quot;:null}"><path d="M221.14162,198.65213l17.39336,-23.86798" stroke="url(#color-5)"></path><path d="M216.64931,194.18702l21.73323,-19.9969" stroke="url(#color-6)"></path><path d="M212.88299,187.2026l29.30093,-3.69681" stroke="url(#color-7)"></path><path d="M213.05459,180.8711l29.45727,2.11648" stroke="url(#color-8)"></path></g></g><g><g><path d="M258.39084,160.86602l-23.8582,17.40677" stroke="url(#color-9)"></path><path d="M233.93854,178.12068l19.98469,-21.74446" stroke="url(#color-10)"></path><path d="M246.93667,152.61383l-3.68035,29.30298" stroke="url(#color-11)"></path><path d="M240.60528,152.78899l2.13302,29.45609" stroke="url(#color-12)"></path></g><g data-paper-data="{&quot;index&quot;:null}"><path d="M221.46133,161.48988l23.85819,17.40676" stroke="url(#color-13)"></path><path d="M225.92896,157.00009l19.98469,21.74447" stroke="url(#color-14)"></path><path d="M232.91551,153.23767l3.68035,29.30298" stroke="url(#color-15)"></path><path d="M239.24691,153.41282l-2.13301,29.45609" stroke="url(#color-16)"></path></g></g><g data-paper-data="{&quot;index&quot;:null}"><g><path d="M221.60916,199.13399l23.8582,-17.40677" stroke="url(#color-17)"></path><path d="M246.06148,181.87932l-19.98469,21.74447" stroke="url(#color-18)"></path><path d="M236.74369,178.08319l-3.68035,29.30298" stroke="url(#color-19)"></path><path d="M237.26174,177.75494l2.13302,29.45609" stroke="url(#color-20)"></path></g><g data-paper-data="{&quot;index&quot;:null}"><path d="M258.53868,198.51013l-23.85819,-17.40677" stroke="url(#color-21)"></path><path d="M234.08637,181.25546l19.98469,21.74446" stroke="url(#color-22)"></path><path d="M247.0845,206.7623l-3.68035,-29.30298" stroke="url(#color-23)"></path><path d="M240.7531,206.58718l2.13302,-29.45609" stroke="url(#color-24)"></path></g></g><g data-paper-data="{&quot;index&quot;:null}"><g><path d="M259.50299,198.27703l-17.42017,-23.84841" stroke="url(#color-25)"></path><path d="M242.23459,173.83443l21.75571,19.97247" stroke="url(#color-26)"></path><path d="M267.74875,186.81821l-29.30505,-3.66388" stroke="url(#color-27)"></path><path d="M238.11516,182.63649l29.45489,-2.14956" stroke="url(#color-28)"></path></g><g data-paper-data="{&quot;index&quot;:null}"><path d="M258.85838,161.34787l-17.39336,23.86798" stroke="url(#color-29)"></path><path d="M241.61748,185.80988l21.73324,-19.99689" stroke="url(#color-30)"></path><path d="M237.8161,176.49423l29.30092,-3.69682" stroke="url(#color-31)"></path><path d="M266.94542,179.12892l-29.45728,-2.11648" stroke="url(#color-32)"></path></g></g></g><path d="M231.42193,180.00001c0,-4.73754 3.84054,-8.57808 8.57808,-8.57808c4.73754,0 8.57808,3.84054 8.57808,8.57808c0,4.73754 -3.84054,8.57808 -8.57808,8.57808c-4.73754,0 -8.57808,-3.84054 -8.57808,-8.57808z" fill="#232323" stroke="#000000" stroke-width="2" stroke-linecap="butt"></path></g><path d="M210.26518,180c0,-16.42208 13.31273,-29.73482 29.73482,-29.73482c16.42208,0 29.73482,13.31273 29.73482,29.73482c0,16.42208 -13.31273,29.73482 -29.73482,29.73482c-16.42208,0 -29.73482,-13.31273 -29.73482,-29.73482z" fill="none" stroke="#000000" stroke-width="7" stroke-linecap="butt"></path><g fill="#e3b600" stroke="none" stroke-width="0" stroke-linecap="butt"><path d="M231.53021,154.20521l0.15133,-2.27595c0,0 0.37421,-0.18714 0.55139,-0.2294c0.18261,-0.04356 0.52847,-0.02816 0.52847,-0.02816c0,0 0.20646,0.86171 0.30816,0.86333c0.06166,0.00098 0.24811,-0.96198 0.41207,-1.01848c0.09525,-0.03283 0.86082,-0.2356 0.92667,-0.10681c0.071,0.13888 0.38121,2.1651 0.38121,2.1651c0,0 -0.73246,0.14506 -0.8695,0.06912c-0.10857,-0.06017 -0.03816,-1.14679 -0.06375,-1.14497c-0.12593,0.00898 -0.1135,0.35921 -0.27303,0.76432c-0.09924,0.25202 -0.14171,0.63806 -0.56051,0.63078c-0.12704,-0.00221 -0.22166,-0.14605 -0.3356,-0.47195c-0.05811,-0.16621 -0.17642,-0.60266 -0.17642,-0.60266l-0.07265,-0.02596l-0.06422,1.23275z"></path><path d="M235.0015,153.46772l0.96479,-2.3912l1.05557,-0.07235l0.74445,2.19458c0,0 -0.9132,0.09975 -0.95848,0.03826c-0.06302,-0.08558 -0.19669,-0.76114 -0.19669,-0.76114c0,0 -0.10532,-0.67906 -0.11375,-0.68152c-0.056,-0.01627 -0.19847,0.66292 -0.19847,0.66292c0,0 0.72756,-0.02456 0.60328,0.07223c-0.03624,0.02822 0.02577,0.51792 -0.14476,0.50882c-0.0564,-0.00301 -0.64905,-0.01179 -0.64905,-0.01179c0,0 -0.08177,0.37949 -0.15111,0.39525c-0.20085,0.04562 -0.95577,0.04592 -0.95577,0.04592z"></path><path d="M239.74122,153.11833l-1.34849,-2.23355l1.02454,-0.03368l1.34903,2.26324z"></path><path d="M237.95172,153.14538l1.91514,-2.26929l1.17543,0.01027l-1.98585,2.22634z" data-paper-data="{&quot;index&quot;:null}"></path><path d="M242.77503,153.25305l-1.20049,-2.31645l1.02457,0.03297l1.19909,2.34614z"></path><path d="M240.98756,153.16373l2.05858,-2.14003l1.17227,0.08665l-2.12634,2.09257z" data-paper-data="{&quot;index&quot;:null}"></path><path d="M243.99758,153.33158l0.70847,-2.1284l0.97213,0.14774l-0.7225,2.17323z"></path><path d="M246.81133,152.201l0.05304,0.23701c0,0 0.53552,0.0364 0.71878,0.47489c0.02931,0.07013 0.00077,0.37161 -0.16832,0.56845c-0.1251,0.14563 -0.45652,0.25652 -0.45652,0.25652l-0.77533,0.01623c0,0 -0.36699,-0.04915 -0.52081,-0.11844c-0.15272,-0.06882 -0.39882,-0.29596 -0.39882,-0.29596l0.49378,-0.47752l0.46904,0.27558c0,0 0.39456,-0.07608 0.38591,-0.08424c-0.02944,-0.02778 -0.72335,-0.43726 -0.76012,-0.481c-0.05186,-0.0617 -0.06569,-0.36754 -0.06569,-0.36754c0,0 0.10781,-0.38293 0.5645,-0.55814c0.23728,-0.09103 0.54256,-0.08031 0.70411,-0.06434c0.43543,0.04308 0.91096,0.17394 0.95487,0.3439c0.05649,0.21868 -0.58509,0.50105 -0.58509,0.50105c0,0 -0.18621,-0.15469 -0.30787,-0.19873c-0.11183,-0.04049 -0.30545,-0.02771 -0.30545,-0.02771z"></path></g><path d="M209.41244,137.11729v-18.10837h53.83569v18.10837z" fill="none" stroke="none" stroke-width="none" stroke-linecap="butt"></path><path d="M211.3701,237.93685v-18.10836h53.83569v18.10836z" fill="none" stroke="none" stroke-width="none" stroke-linecap="butt"></path><path d="M281.0718,150.76012l18.10484,-0.35733l1.06233,53.8252l-18.10484,0.35733z" data-paper-data="{&quot;index&quot;:null}" fill="none" stroke="none" stroke-width="none" stroke-linecap="butt"></path><path d="M182.04676,153.20719l18.10484,-0.35733l1.06233,53.82521l-18.10484,0.35733z" data-paper-data="{&quot;index&quot;:null}" fill="none" stroke="none" stroke-width="none" stroke-linecap="butt"></path></g></g></svg>